M48
;Layer_Color=9474304
;FILE_FORMAT=4:3
METRIC,LZ
;TYPE=PLATED
T01F00S00C0.300
T02F00S00C0.762
T03F00S00C0.800
T04F00S00C0.900
T05F00S00C1.200
T06F00S00C1.400
T07F00S00C3.200
;TYPE=NON_PLATED
T08F00S00C1.200
%
T01
X0036304Y-0060978
X0037549Y-0062045
X0047226Y-0052901
X0049233Y-0053384
X0017635Y-0063315
X0003919Y-0070757
X0005113Y-0072535
X-0040277Y-006014
X-0040378Y-0058413
X0059418Y-0038855
X0061882Y-0038042
X0068994Y-0016655
X0071026Y-0014953
X0070289Y0009964
X0071763Y0011209
X0031864Y0009504
X0031559Y0021985
X0015633Y0021759
X0015587Y0009504
X-0066464Y0025128
X-0068522Y0023858
X-0060216Y0040673
X-0058362Y0040393
X-0035908Y0063228
X-0033876Y006244
X-002176Y0064701
X-0023335Y0066479
X0012174Y0066276
X0013673Y0064701
X0031097Y0065717
X003224Y0063177
X0045372Y0056802
X0045245Y0054668
X0057938Y0059258
X0057843Y0043822
X0057564Y0041511
T02
X002628Y-008328
X002878Y-008326
X003128Y-008328
X-0031275Y-007263
X-0033775
X-0036275
X-0038775
X-0041275Y-007263
X-004225Y-006725
X-003975
X-003725
X-003475
X-004475Y-006725
X003024Y000883
Y001683
X0029947Y0021312
Y0029312
X0014021Y0029086
Y0021086
X0013975Y001683
Y000883
T03
X000856Y-0081712
X0034265Y-0074321
Y-0071781
X0043231Y-0042393
X0045771
X000856Y-0079172
X-0015773Y-0078232
Y-0080772
X-0029101Y-0058464
Y-0055924
X-0060528Y-0052045
X-0063068
X-0073736Y-0031369
X-0076276
X0070917Y-0036576
X0073457
X0078664Y-0010363
X0081204
X0079807Y0013563
Y0016103
X-0076301Y0020217
X-0078841
Y-0002134
X-0081381
X-0070554Y0040901
X-0068014
X-004765Y0063703
Y0066243
X-0027305Y0075692
X0026728Y0074785
X0018Y004825
Y004625
X0016
Y004825
X0014
Y004625
X003175Y0046
Y0048
X003375
Y0046
X003575
Y0048
X0038323Y0041664
X0039887Y0039662
X0046921Y006432
Y006686
X0069723Y0040716
Y0038176
X0026728Y0077325
X-0027305Y0078232
T04
X0009924Y-0035678
X0012424
X0014924
Y-0029678
X0012424
X0009924
T05
X-0037384Y-0086136
X-0033782Y-0087376
X-003018Y-0088616
X-0026577Y-0089857
X-0022975Y-0091097
X-0007849Y-0094082
X-0004039
X-0000229
X0003581
X0007391
X0024045Y-0091981
X0027648Y-009074
X003125Y-00895
X0034852Y-008826
X0038455Y-0087019
X0074377Y-0057879
X0076508Y-0054721
X0078638Y-0051562
X0080769Y-0048403
X0082899Y-0045245
X0063628Y-0069176
X0060626Y-0071522
X0057624Y-0073867
X0054621Y-0076213
X0051619Y-0078559
X-000308Y-00463
X-000689
X-00107
X-001451
X-008089Y-00479
X-0082965Y-0044705
X-0078815Y-0051095
X-007674Y-0054291
X-0074665Y-0057486
X-0064425Y-0069451
X-0061422Y-0071797
X-005842Y-0074143
X-0055418Y-0076488
X-0052415Y-0078834
X-0089477Y-0029833
X-0090399Y-0026137
X-009132Y-002244
X-0092242Y-0018743
X-0093164Y-0015046
X-0079756Y-0009195
X-0077256
X-0074756
X-0072256
X-0069756
X-0067256
X-0064756
X-0062256
X0011Y-001125
X001481
X00146Y-00197
X00176
Y-00227
X00146
X00116
Y-00197
X00086
X00056
Y-00227
X00086
X00206
Y-00197
X00236
X00266
Y-00227
X00236
X00296
Y-00197
X002825Y-001125
X003206
X00326Y-00197
Y-00227
X0090915Y-0023236
X0089929Y-0026916
X0088943Y-0030597
X0091901Y-0019556
X0092888Y-0015876
X0093794Y-0001262
X0093595Y0002543
X0093395Y0006348
X0093196Y0010152
X0092996Y0013957
X0089164Y0029612
X0087736Y0033145
X0086309Y0036678
X0033647Y0029312
Y0021312
X003394Y001683
Y000883
X003206Y0000522
X002825
X002644Y000883
Y001683
X0026147Y0021312
Y0029312
X0017721Y0029086
X0010221
Y0021086
X0010175Y001683
X0017675
X0017721Y0021086
X0017675Y000883
X0010175
X0011Y0000522
X001481
X-0087656Y0034492
X-0089206Y0031011
X-0092708Y0015657
X-009304Y0011862
X-0093372Y0008066
X-0093704Y0004271
X-0094036Y0000475
X-0086106Y0037972
X-0084557Y0041453
X-0083007Y0044933
X-0073952Y0058526
X-0071354Y0061313
X-0068755Y0064099
X-0066157Y0066886
X-0063558Y0069672
X0065156Y0068565
X0067655Y006569
X0070155Y0062814
X0072654Y0059939
X0075154Y0057063
X0083455Y0043743
X0084882Y004021
X0052192Y0078156
X0048893Y0080061
X0045593Y0081966
X0042293Y0083871
X0038994Y0085776
X0024247Y009106
X0020507Y0091787
X0016767Y0092514
X0013027Y0093241
X0009287Y0093968
X-0007177Y0094117
X-001094Y0093521
X-0014703Y0092925
X-0018466Y0092329
X-0022229Y0091733
X-0037011Y0086254
X-0040375Y0084466
X-0043739Y0082677
X-0047103Y0080888
X-0050467Y00791
T06
X-0001422Y-0082931
X0051076Y-0065835
X003585Y-004563
X006901Y-004732
X001745Y-0054737
X-0001422Y-0057631
X0025687Y-0078659
X-0025831Y-0078647
X-0017594Y-0054725
X-0033599Y-0044522
X-0049175Y-0064459
X-0069611Y-0044768
X-0079641Y-002244
X-0055093Y-0016319
X-0048393Y-0030988
X0048036Y-0033173
X0055771Y-0014211
X0080209Y-0020759
X0083249Y0005094
X0077759Y0030913
X0054301Y0021435
X0057983Y000377
X-0056743Y0007217
X-0053661Y0021849
X-0076773Y0032139
X-0081947Y0009422
X-0068403Y0054755
X-00499Y00375
X-0028717Y0050814
X-0014637Y0056755
X-0040595Y0073152
X0012719Y0058452
X0027049Y0053849
X0039699Y0075759
X004867Y0037626
X0067764Y0054224
X0017546Y0083287
X-0018595Y0081743
T07
X0055Y-0055
X-0055
X-004306Y-001463
X-0003Y-00147
X004194Y-001463
Y003237
X-0003Y00324
X-004306Y003237
X-0055Y0055
X0055
T08
X0002313Y-00187
X0035963
M30
