G04*
G04 #@! TF.GenerationSoftware,Altium Limited,Altium Designer,23.11.1 (41)*
G04*
G04 Layer_Physical_Order=1*
G04 Layer_Color=255*
%FSLAX43Y43*%
%MOMM*%
G71*
G04*
G04 #@! TF.SameCoordinates,7BC64366-9C4D-408C-9FF9-50DFB5F98349*
G04*
G04*
G04 #@! TF.FilePolarity,Positive*
G04*
G01*
G75*
%ADD11C,0.250*%
%ADD14C,0.254*%
%ADD30C,1.400*%
%ADD32C,1.600*%
%ADD34R,1.600X1.600*%
%ADD35C,1.500*%
%ADD36R,1.500X1.500*%
%ADD39C,1.300*%
%ADD40R,0.300X1.600*%
%ADD41R,1.600X0.300*%
%ADD42R,1.050X1.500*%
%ADD43R,1.400X1.050*%
%ADD44R,0.800X0.900*%
%ADD45R,0.900X0.800*%
%ADD46R,1.600X0.600*%
G04:AMPARAMS|DCode=47|XSize=1.2mm|YSize=4mm|CornerRadius=0.3mm|HoleSize=0mm|Usage=FLASHONLY|Rotation=90.000|XOffset=0mm|YOffset=0mm|HoleType=Round|Shape=RoundedRectangle|*
%AMROUNDEDRECTD47*
21,1,1.200,3.400,0,0,90.0*
21,1,0.600,4.000,0,0,90.0*
1,1,0.600,1.700,0.300*
1,1,0.600,1.700,-0.300*
1,1,0.600,-1.700,-0.300*
1,1,0.600,-1.700,0.300*
%
%ADD47ROUNDEDRECTD47*%
%ADD48R,2.100X0.800*%
%ADD49R,1.500X1.050*%
%ADD50R,2.770X2.550*%
%ADD51C,0.350*%
%ADD52C,0.800*%
%ADD53C,6.000*%
%ADD54R,1.300X1.300*%
%ADD55R,1.500X1.500*%
%ADD56R,1.400X1.400*%
%ADD57C,4.700*%
%ADD58R,1.200X1.200*%
%ADD59C,1.200*%
%ADD60C,0.500*%
D11*
X77245Y49275D02*
Y49325D01*
X76575Y46175D02*
Y48605D01*
X77245Y49275D01*
X72163Y46175D02*
X76575D01*
X42000Y26000D02*
X43000D01*
X39982Y28018D02*
X42000Y26000D01*
X40482Y29756D02*
X43238Y27000D01*
X43242D01*
X43367Y26875D02*
X43435D01*
X43242Y27000D02*
X43367Y26875D01*
X39982Y28018D02*
Y31275D01*
X40975Y25975D02*
X41000Y26000D01*
X37200Y25975D02*
X40975D01*
X45064Y27402D02*
X46298D01*
X46300Y27400D01*
X28675Y24275D02*
X50978D01*
X53465Y21789D01*
X53211Y19789D02*
X53465D01*
X28488Y23825D02*
X49175D01*
X53211Y19789D01*
X53000Y18500D02*
X54400D01*
X48125Y23375D02*
X53000Y18500D01*
X54400D02*
X55700Y19800D01*
X28225Y23375D02*
X48125D01*
X66350Y25650D02*
X69323Y22677D01*
X57197Y25650D02*
X66350D01*
X69323Y22677D02*
X69545D01*
X67520Y19500D02*
X72311D01*
X73488Y20677D01*
X73545D01*
X61820Y25200D02*
X67520Y19500D01*
X59532Y35325D02*
X62482D01*
X68249Y30403D02*
X68392Y30260D01*
X62482Y35325D02*
X67404Y30403D01*
X68249D01*
X67457Y29635D02*
X72985D01*
X59532Y34825D02*
X62267D01*
X67457Y29635D01*
X62131Y34325D02*
X67291Y29165D01*
X59532Y34325D02*
X62131D01*
X67457Y39767D02*
X72962D01*
X63956Y41800D02*
X65639Y40117D01*
X67107D01*
X67457Y39767D01*
X61004Y50825D02*
X63179Y53000D01*
X66400D01*
X74482Y50655D02*
X74787Y50350D01*
X73982Y50655D02*
X74482D01*
X74787Y50350D02*
X78300D01*
X30794Y46943D02*
X31127Y47276D01*
X28026Y46764D02*
Y47051D01*
X28747Y47131D02*
X31316Y49700D01*
X30794Y46875D02*
Y46943D01*
X30139Y46836D02*
Y47251D01*
X29430Y46805D02*
Y47178D01*
X31127Y47276D02*
Y47602D01*
X28000Y46738D02*
X28026Y46764D01*
X28699Y46780D02*
X28747Y46828D01*
X31127Y47602D02*
X31400Y47875D01*
X29399Y46774D02*
X29430Y46805D01*
X30098Y46795D02*
X30139Y46836D01*
X28747Y46828D02*
Y47131D01*
X51007Y53810D02*
X52430Y55232D01*
Y56720D01*
X49575Y56932D02*
Y57000D01*
X49432Y56789D02*
X49575Y56932D01*
X49432Y53835D02*
Y56789D01*
X49457Y52900D02*
Y53810D01*
Y52900D02*
X49482Y52875D01*
X49432Y53835D02*
X49457Y53810D01*
X46007Y55807D02*
X47756Y57556D01*
X45482Y55918D02*
X46545Y56981D01*
X45482Y52875D02*
Y55918D01*
X47756Y57556D02*
Y58794D01*
X46007Y52900D02*
Y55807D01*
X46545Y56981D02*
Y58225D01*
X18875Y27625D02*
X19130Y27370D01*
X20432D01*
X18600Y27625D02*
X18875D01*
X18125Y28100D02*
X18600Y27625D01*
X51482Y29968D02*
Y31275D01*
X57550Y24254D02*
X57700Y24104D01*
Y21980D02*
Y24104D01*
X57196Y24254D02*
X57550D01*
X51482Y29968D02*
X57196Y24254D01*
X57700Y21800D02*
Y21980D01*
X39100Y32025D02*
Y35567D01*
X38425Y31350D02*
X39100Y32025D01*
X38867Y35800D02*
X39100Y35567D01*
X55982Y31275D02*
Y35421D01*
X45673Y45731D02*
X55982Y35421D01*
X48163Y51300D02*
X53729Y45735D01*
Y42440D02*
Y45735D01*
X54304Y42825D02*
Y45796D01*
X53675Y42387D02*
X53729Y42440D01*
X42100Y56014D02*
X42277Y56191D01*
X42298D01*
X42607Y56500D01*
X42675D01*
X41475Y56412D02*
Y56941D01*
Y56412D02*
X41517Y56369D01*
Y55732D02*
X41525Y55724D01*
X42982Y53200D02*
Y55325D01*
X42100Y54300D02*
Y56014D01*
Y54300D02*
X42457Y53943D01*
X42675Y55632D02*
X42982Y55325D01*
X42675Y55632D02*
Y55700D01*
X41517Y55732D02*
Y56369D01*
X34901Y35275D02*
X34901D01*
X35951Y36325D02*
X37932D01*
X34901Y35275D02*
X35951Y36325D01*
X33929Y34303D02*
X34901Y35275D01*
X34550Y34288D02*
X35087Y34825D01*
X37932D01*
X34550Y28625D02*
Y34288D01*
X33929Y31887D02*
Y34303D01*
X35815Y36825D02*
X37932D01*
X31457Y32467D02*
X35815Y36825D01*
X51007Y52900D02*
Y53810D01*
X59800Y24000D02*
X60900D01*
X57700Y23750D02*
X57950Y24000D01*
X28026Y47051D02*
X32625Y51650D01*
X29430Y47178D02*
X31502Y49250D01*
X30139Y47251D02*
X31239Y48350D01*
X62129Y40825D02*
X65203Y37750D01*
X59532Y40825D02*
X62129D01*
X62705Y50055D02*
X62925D01*
X56982Y54362D02*
X57445Y54825D01*
X35368Y33825D02*
X37932D01*
X44197Y32400D02*
X50261D01*
X50436Y32575D01*
X44007Y32210D02*
X44197Y32400D01*
X64800Y45875D02*
X67275D01*
X67575Y46175D01*
X50491Y56616D02*
X50500Y56625D01*
X50491Y56091D02*
Y56616D01*
X50225Y55825D02*
X50491Y56091D01*
X49982Y55157D02*
X50412Y55588D01*
X50482Y54538D02*
X51444Y55500D01*
X51545Y55825D01*
X50482Y52875D02*
Y54538D01*
X51548Y56150D02*
Y56652D01*
X51545Y55825D02*
X51548Y56150D01*
X51500Y56700D02*
X51548Y56652D01*
X48050Y61100D02*
X52430Y56720D01*
X45975Y61100D02*
X48050D01*
X18175Y26200D02*
X18200Y26175D01*
X17100Y26200D02*
X18175D01*
X18200Y26175D02*
X20357D01*
X17100Y28100D02*
X18125D01*
X45056Y27394D02*
X45064Y27402D01*
X49457Y29644D02*
Y31250D01*
X29047Y25175D02*
X44988D01*
X49457Y29644D01*
X45175Y24725D02*
X49982Y29532D01*
X28861Y24725D02*
X45175D01*
X49982Y29532D02*
Y31275D01*
X44806Y27394D02*
X45056D01*
X47100Y28100D02*
X47100Y28100D01*
X46475Y28675D02*
Y29445D01*
X44787Y28100D02*
X47100D01*
X42982Y29905D02*
X44787Y28100D01*
X75725Y53225D02*
X77075D01*
X62550Y51375D02*
X63700D01*
X76150Y42954D02*
X76204Y42900D01*
X59532Y41300D02*
X63820D01*
X32700Y41405D02*
X32945Y41650D01*
Y42370D01*
X28903Y36175D02*
X34293D01*
X28657Y35929D02*
X28903Y36175D01*
X34293D02*
X35418Y37300D01*
X34550Y28625D02*
X37200Y25975D01*
X28100Y26122D02*
Y36200D01*
Y26122D02*
X29047Y25175D01*
X42482Y29718D02*
X44806Y27394D01*
X30250Y38400D02*
X30375Y38275D01*
X29500Y38400D02*
X30250D01*
X27300Y26286D02*
Y36200D01*
Y26286D02*
X28861Y24725D01*
X32325Y27875D02*
X32350Y27900D01*
X33500D01*
X36450Y29400D02*
X37500D01*
X38115Y31352D02*
X38118Y31350D01*
X37548Y31352D02*
X38115D01*
X36350Y31400D02*
X37500D01*
X36325Y31375D02*
X36350Y31400D01*
X37500D02*
X37548Y31352D01*
X38118Y31350D02*
X38425D01*
X26700Y37427D02*
X28523Y39250D01*
X25800Y25800D02*
X28225Y23375D01*
X26250Y26063D02*
X28488Y23825D01*
X26700Y26250D02*
Y37427D01*
X28336Y39700D02*
X33164D01*
X26250Y26063D02*
Y37614D01*
X28523Y39250D02*
X33350D01*
X26700Y26250D02*
X28675Y24275D01*
X26250Y37614D02*
X28336Y39700D01*
X33164D02*
X34789Y41325D01*
X32575Y26275D02*
X33438D01*
X25800Y25800D02*
Y37800D01*
X32325Y26025D02*
X32575Y26275D01*
X25800Y37800D02*
X28150Y40150D01*
X52507Y30340D02*
X57197Y25650D01*
X52007Y30204D02*
X57011Y25200D01*
X61820D01*
X52007Y30204D02*
Y31250D01*
X51982Y31275D02*
X52007Y31250D01*
X52507Y30340D02*
Y31250D01*
X52482Y31275D02*
X52507Y31250D01*
X51945Y26425D02*
X52000Y26370D01*
X50575Y25550D02*
Y26375D01*
X52000Y25575D02*
Y26370D01*
X50575Y26375D02*
X50600Y26400D01*
X68427Y27685D02*
X69915D01*
X69950Y27650D01*
X30374Y36956D02*
X30400Y36930D01*
X29444Y36956D02*
X30374D01*
X28150Y40150D02*
X32976D01*
X31400Y41700D02*
Y43100D01*
X34125Y45825D01*
X37932D01*
X31300Y41600D02*
X31400Y41700D01*
X31300Y40800D02*
Y41600D01*
X32945Y42370D02*
X35900Y45325D01*
X37932D01*
X32700Y40800D02*
Y41405D01*
X32976Y40150D02*
X34651Y41825D01*
X37932D01*
X33350Y39250D02*
X34925Y40825D01*
X34789Y41325D02*
X37932D01*
X34925Y40825D02*
X37932D01*
X33050Y38250D02*
X35125Y40325D01*
X33236Y37800D02*
X35261Y39825D01*
X37932D01*
X35125Y40325D02*
X37932D01*
X31320Y37800D02*
X33236D01*
X30400Y38250D02*
X33050D01*
X30450Y36930D02*
X31320Y37800D01*
X44982Y52875D02*
Y57982D01*
X45225Y58225D01*
X43787Y58225D02*
X44482Y57530D01*
Y52875D02*
Y57530D01*
X43600Y57775D02*
X43982Y57393D01*
Y52875D02*
Y57393D01*
X43482Y52875D02*
Y56846D01*
X43177Y57152D02*
X43482Y56846D01*
X42642Y57152D02*
X43177D01*
X42595Y57199D02*
X42642Y57152D01*
X42457Y53673D02*
Y53943D01*
Y53673D02*
X42457Y53673D01*
Y52900D02*
X42482Y52875D01*
X42457Y52900D02*
Y53673D01*
X39750Y57125D02*
X42700Y60075D01*
X39750Y56450D02*
Y57125D01*
X62875Y35825D02*
X63575Y35125D01*
X59532Y35825D02*
X62875D01*
X59532Y33825D02*
X61994D01*
X67455Y28365D01*
X67291Y29165D02*
X68217D01*
X67455Y28365D02*
X72935D01*
X32625Y51650D02*
X41667D01*
X31239Y48350D02*
X33472D01*
X31502Y49250D02*
X34702D01*
X31316Y49700D02*
X34889D01*
X31400Y47875D02*
X33311D01*
X61227Y33325D02*
X67902Y26650D01*
X59532Y33325D02*
X61227D01*
X73405Y27895D02*
X73932D01*
X74107Y27720D01*
X72935Y28365D02*
X73405Y27895D01*
X73607Y30260D02*
X74107D01*
X73432Y30085D02*
X73607Y30260D01*
X73432Y30082D02*
Y30085D01*
X72985Y29635D02*
X73432Y30082D01*
X72850Y34050D02*
X73295Y33605D01*
X69332Y34050D02*
X72850D01*
X73932Y33605D02*
X74107Y33430D01*
X73295Y33605D02*
X73932D01*
X65619Y35345D02*
X73045D01*
X73607Y35970D02*
X74107D01*
X73432Y35795D02*
X73607Y35970D01*
X73432Y35732D02*
Y35795D01*
X73045Y35345D02*
X73432Y35732D01*
X62301Y39300D02*
X65631Y35970D01*
X68392D01*
X65648Y36627D02*
X66577D01*
X62475Y39800D02*
X65648Y36627D01*
X65628Y34700D02*
X68392D01*
X59532Y37825D02*
X61867D01*
X62003Y38325D02*
X65628Y34700D01*
X66577Y36627D02*
X66625Y36675D01*
X59357Y38825D02*
X62139D01*
X59532Y39300D02*
X62301D01*
X66625Y36675D02*
X67327D01*
X61867Y37825D02*
X65642Y34050D01*
X59532Y39800D02*
X62475D01*
X65642Y34050D02*
X67452D01*
X59532Y38325D02*
X62003D01*
X62139Y38825D02*
X65619Y35345D01*
X65203Y37750D02*
X66050D01*
X67327Y36675D02*
X67892Y37240D01*
X65992Y41037D02*
X72982D01*
X73607Y41662D01*
X74107D01*
X39150Y57162D02*
X42513Y60525D01*
X39150Y55800D02*
Y57162D01*
X42122Y58225D02*
X43787D01*
X42309Y57775D02*
X43600D01*
X38450Y53530D02*
X39105Y52875D01*
X39982D01*
X38400Y53530D02*
X38450D01*
X38380Y53550D02*
X38400Y53530D01*
X30682Y28640D02*
X33929Y31887D01*
X35175Y32700D02*
X36005D01*
X35268Y33925D02*
X35368Y33825D01*
X35200Y33925D02*
X35268D01*
X30077Y33675D02*
X31525D01*
X46370Y29550D02*
X46475Y29445D01*
X56982Y28268D02*
X57525Y27725D01*
Y27675D02*
Y27725D01*
X56982Y28268D02*
Y31275D01*
X57482Y29088D02*
X58845Y27725D01*
X57482Y29088D02*
Y31275D01*
X58845Y27675D02*
Y27725D01*
X57450Y27600D02*
X57525Y27675D01*
X57450Y26800D02*
Y27600D01*
X58845Y27675D02*
X58875Y27645D01*
Y26775D02*
Y27645D01*
X48350Y51750D02*
X54304Y45796D01*
X53675Y41650D02*
Y42387D01*
X33472Y48350D02*
X33997Y47825D01*
X32325Y47325D02*
X33225D01*
X32300Y47300D02*
X32325Y47325D01*
X33311Y47875D02*
X33861Y47325D01*
X33225D02*
X33725Y46825D01*
X74988Y26650D02*
X75232Y26894D01*
X67902Y26650D02*
X74963D01*
X75232Y26894D02*
Y28365D01*
X75250Y26912D02*
X77775Y29437D01*
Y33300D01*
X77050Y34025D02*
X77775Y33300D01*
X74107Y34700D02*
X74607D01*
X75282Y34025D02*
X77050D01*
X74607Y34700D02*
X75282Y34025D01*
X76736Y39798D02*
X77859Y40921D01*
X75201Y39798D02*
X76736D01*
X77859Y44575D02*
X78900Y45616D01*
X77859Y40921D02*
Y44575D01*
X78300Y50350D02*
X78900Y49750D01*
X72932Y44575D02*
X77859D01*
X78900Y45616D02*
Y49750D01*
X71257Y42900D02*
X72932Y44575D01*
X75800Y49200D02*
X75925Y49325D01*
X75800Y48475D02*
Y49200D01*
X74107Y40392D02*
X74607D01*
X75201Y39798D01*
X36025Y32680D02*
X36075D01*
X36720Y33325D01*
X37932D01*
X36005Y32700D02*
X36025Y32680D01*
X37134Y37300D02*
X37134Y37300D01*
X28657Y31905D02*
Y35929D01*
X37907Y37300D02*
X37932Y37325D01*
X37134Y37300D02*
X37907D01*
X35418Y37300D02*
X37134D01*
X34702Y49250D02*
X35627Y48325D01*
X34889Y49700D02*
X35764Y48825D01*
X54482Y31275D02*
X54491Y31266D01*
Y30109D02*
Y31266D01*
Y30109D02*
X54500Y30100D01*
X50436Y32575D02*
X52882D01*
X42482Y29718D02*
Y31275D01*
X42982Y29905D02*
Y31275D01*
X45000Y29500D02*
X45050Y29550D01*
X45000Y28700D02*
Y29500D01*
X48982Y52875D02*
Y59191D01*
X47648Y60525D02*
X48982Y59191D01*
X47197Y51750D02*
X48350D01*
X47007Y51940D02*
Y52850D01*
X44307Y45647D02*
X54982Y34972D01*
X44307Y45647D02*
Y46293D01*
X37932Y44325D02*
X41525D01*
X47007Y51940D02*
X47197Y51750D01*
X41525Y44325D02*
X47925Y50725D01*
X47011Y51300D02*
X48163D01*
X39188Y44825D02*
X44232Y49869D01*
Y51636D01*
X54982Y31275D02*
Y34972D01*
X44900Y45690D02*
Y46875D01*
Y45690D02*
X55482Y35108D01*
Y31275D02*
Y35108D01*
X46507Y51804D02*
X47011Y51300D01*
X46507Y51804D02*
Y52850D01*
X46482Y52875D02*
X46507Y52850D01*
X62778Y45475D02*
X63180D01*
X62727Y45425D02*
X62778Y45475D01*
X62660Y45425D02*
X62727D01*
X76175Y29675D02*
X77200D01*
X76175Y35400D02*
X77200D01*
X57850Y45350D02*
X57862Y45338D01*
X59520D02*
X59532Y45325D01*
X57862Y45338D02*
X59520D01*
X40482Y29756D02*
Y31275D01*
X30032Y33720D02*
X30077Y33675D01*
X36325Y29525D02*
X36450Y29400D01*
X43982Y31275D02*
X44007Y31300D01*
Y32210D01*
X50982Y27438D02*
Y31275D01*
Y27438D02*
X51945Y26475D01*
Y26425D02*
Y26475D01*
X50482Y26568D02*
Y31275D01*
Y26568D02*
X50625Y26425D01*
X76100Y51175D02*
X77075D01*
X76000Y51275D02*
X76100Y51175D01*
X75500Y53450D02*
X75725Y53225D01*
X75245Y53195D02*
X75500Y53450D01*
X76150Y41050D02*
X76200Y41100D01*
X77225D01*
X74107Y42932D02*
X76129D01*
X76204Y42900D02*
X77225D01*
X76129Y42932D02*
X76150Y42954D01*
X73982Y53195D02*
X75245D01*
X20357Y26175D02*
X20432Y26100D01*
X31645Y27370D02*
X32150Y27875D01*
X32325D01*
X30032Y27370D02*
X31645D01*
X32250Y26100D02*
X32325Y26025D01*
X30032Y26100D02*
X32250D01*
X37932Y35825D02*
X37957Y35800D01*
X38867D01*
X30049Y32467D02*
X31457D01*
X30032Y32450D02*
X30049Y32467D01*
X28657Y31905D02*
X29382Y31180D01*
X30032D01*
Y28640D02*
X30682D01*
X30032Y29910D02*
Y31180D01*
X56482Y52875D02*
Y54343D01*
X56075Y54750D02*
Y54800D01*
Y54750D02*
X56482Y54343D01*
X62925Y50055D02*
X63700D01*
X62925D02*
X63057Y50187D01*
X62875Y50005D02*
X62925Y50055D01*
X42513Y60525D02*
X47648D01*
X49982Y52875D02*
Y55157D01*
X50982Y52875D02*
X51007Y52900D01*
X46545Y58225D02*
X46625Y58305D01*
Y59050D01*
X42886Y59625D02*
X46925D01*
X47756Y58794D01*
X14375Y31550D02*
X15123Y30802D01*
X17363Y30797D02*
X19399D01*
X17154Y30293D02*
X19399D01*
X17149Y30298D02*
X17154Y30293D01*
X15011Y30298D02*
X17149D01*
X14375Y29662D02*
X15011Y30298D01*
X19399Y30797D02*
X19782Y31180D01*
Y29910D02*
X20432D01*
X19399Y30293D02*
X19782Y29910D01*
X14375Y29550D02*
Y29662D01*
X17358Y30802D02*
X17363Y30797D01*
X15123Y30802D02*
X17358D01*
X19782Y31180D02*
X20432D01*
X37575Y53550D02*
X38380D01*
X40922Y56441D02*
Y57025D01*
X41475Y56941D02*
X42309Y57775D01*
X40325Y55812D02*
Y57064D01*
X42886Y59625D01*
X40900Y56419D02*
X40922Y56441D01*
Y57025D02*
X42122Y58225D01*
X35627Y48325D02*
X37932D01*
X35764Y48825D02*
X37932D01*
X33997Y47825D02*
X37932D01*
X33725Y46825D02*
X37932D01*
X33861Y47325D02*
X37932D01*
X47315Y60075D02*
X48482Y58908D01*
X42700Y60075D02*
X47315D01*
X48482Y52875D02*
Y58908D01*
X45175Y58275D02*
Y59050D01*
X39417Y54850D02*
X40457Y53810D01*
Y52900D02*
Y53810D01*
X38400Y54850D02*
X39417D01*
X40457Y52900D02*
X40482Y52875D01*
X38325Y54925D02*
X38400Y54850D01*
X37575Y54925D02*
X38325D01*
X45982Y29988D02*
X46370Y29600D01*
Y29550D02*
Y29600D01*
X45050Y29550D02*
Y29600D01*
X45482Y30032D01*
X45982Y29988D02*
Y31275D01*
X45482Y30032D02*
Y31275D01*
X49457Y31250D02*
X49482Y31275D01*
X37932Y44825D02*
X39188D01*
X68284Y49367D02*
X69808D01*
X69825Y49350D01*
X68267Y49385D02*
X68284Y49367D01*
X72857Y50010D02*
X73482Y49385D01*
X73982D01*
X70288Y44300D02*
X72163Y46175D01*
X70664Y42307D02*
X71257Y42900D01*
X67457Y34055D02*
X69327D01*
X67452Y34050D02*
X67457Y34055D01*
X68392Y27720D02*
X68427Y27685D01*
X68217Y29165D02*
X68392Y28990D01*
X67717Y31705D02*
X67892Y31530D01*
X68392D01*
X67717Y31705D02*
Y32383D01*
X74107Y28990D02*
X74607D01*
X75232Y28365D01*
X68428Y39086D02*
X69914D01*
X69950Y39050D01*
X73607Y39122D02*
X74107D01*
X72962Y39767D02*
X73607Y39122D01*
X69910Y33390D02*
X69950Y33350D01*
X68392Y33430D02*
X68432Y33390D01*
X69910D01*
X69327Y34055D02*
X69332Y34050D01*
X67650Y32450D02*
X67717Y32383D01*
X41667Y51650D02*
X41957Y51940D01*
X73482Y51925D02*
X73982D01*
X72837Y51280D02*
X73482Y51925D01*
X67332Y51280D02*
X72837D01*
X66285Y50010D02*
X72857D01*
X68092Y50480D02*
X68267Y50655D01*
X67169Y50480D02*
X68092D01*
X67149Y50460D02*
X67169Y50480D01*
X63057Y50187D02*
X63715D01*
X66400Y53048D02*
X67623D01*
X66962Y50910D02*
X67332Y51280D01*
X67623Y53048D02*
X67700Y53125D01*
X66266Y51925D02*
X68267D01*
X65887Y50910D02*
X66962D01*
X59532Y50825D02*
X61004D01*
X59538Y49331D02*
X60506D01*
X59532Y49325D02*
X59538Y49331D01*
X60506D02*
X62550Y51375D01*
X60494Y47844D02*
X62705Y50055D01*
X60025Y47825D02*
X60044Y47844D01*
X60494D01*
X66473Y42307D02*
X70664D01*
X59925Y44300D02*
X70288D01*
X63455Y45750D02*
Y45800D01*
X59925D02*
X62075D01*
X63180Y45475D02*
X63455Y45750D01*
X64775D02*
Y45800D01*
X64500Y45475D02*
X64775Y45750D01*
X66073Y50460D02*
X67149D01*
X61666Y47325D02*
X66266Y51925D01*
X61802Y46825D02*
X65887Y50910D01*
X61939Y46325D02*
X66073Y50460D01*
X62075Y45800D02*
X66285Y50010D01*
X59750Y47300D02*
X59775Y47325D01*
X59775Y46300D02*
X59800Y46325D01*
X59775Y47325D02*
X61666D01*
X60000Y46800D02*
X60025Y46825D01*
X59800Y46325D02*
X61939D01*
X60025Y46825D02*
X61802D01*
X67217Y42932D02*
X68392D01*
X65826Y40567D02*
X68217D01*
X64980Y43800D02*
X66473Y42307D01*
X66850Y43275D02*
X66874D01*
X64229Y42800D02*
X65992Y41037D01*
X66874Y43275D02*
X67217Y42932D01*
X68217Y41487D02*
X68392Y41662D01*
X67151Y41487D02*
X68217D01*
Y40567D02*
X68392Y40392D01*
X64316Y43350D02*
X66178Y41487D01*
X67151D02*
X67151Y41487D01*
X66178Y41487D02*
X67151D01*
X59875Y43350D02*
X64316D01*
X59532Y42800D02*
X64229D01*
X59875Y43800D02*
X64980D01*
X59925Y41800D02*
X63956D01*
X59532Y42300D02*
X64093D01*
X63775Y44800D02*
X64450Y45475D01*
X64500D01*
X59850Y44800D02*
X63775D01*
X64093Y42300D02*
X65826Y40567D01*
X63820Y41300D02*
X65725Y39395D01*
X48100Y44100D02*
Y45275D01*
Y44100D02*
X56482Y35718D01*
X68392Y39122D02*
X68428Y39086D01*
X67892Y37240D02*
X68392D01*
X66100Y37700D02*
X66875D01*
X66103Y39017D02*
X66875D01*
X66000Y39070D02*
X66050D01*
X65725Y39345D02*
Y39395D01*
Y39345D02*
X66000Y39070D01*
X57445Y54825D02*
Y55625D01*
X56982Y52875D02*
Y54362D01*
X41957Y52850D02*
X41982Y52875D01*
X41957Y52077D02*
Y52850D01*
X55995Y54950D02*
Y55650D01*
X45175Y58275D02*
X45225Y58225D01*
X46982Y52875D02*
X47007Y52850D01*
X45982Y52875D02*
X46007Y52900D01*
X41957Y51940D02*
Y52077D01*
X41957Y52077D01*
X56482Y31275D02*
Y35718D01*
D14*
X77170Y37225D02*
X77185Y37240D01*
X74107D02*
X76125D01*
X76110Y31530D02*
X76140Y31500D01*
X77200D01*
X74107Y31530D02*
X76110D01*
X76125Y37240D02*
X76140Y37225D01*
X77170D01*
D30*
X77545Y20677D02*
D03*
X75545D02*
D03*
X73545D02*
D03*
X75545Y22677D02*
D03*
X73545D02*
D03*
X71545D02*
D03*
X69545D02*
D03*
X71545Y20677D02*
D03*
X69545D02*
D03*
D32*
X37500Y20905D02*
D03*
X35200D02*
D03*
X32900D02*
D03*
X30600D02*
D03*
X40950Y18365D02*
D03*
X38650D02*
D03*
X36350D02*
D03*
X34050D02*
D03*
X31750D02*
D03*
X39800Y15825D02*
D03*
X37500D02*
D03*
X30600D02*
D03*
X35200D02*
D03*
X32900D02*
D03*
D34*
X39800Y20905D02*
D03*
D35*
X14375Y27550D02*
D03*
Y29550D02*
D03*
X64846Y20405D02*
D03*
X62846D02*
D03*
X11285Y50495D02*
D03*
D36*
X60846Y20405D02*
D03*
D39*
X26305Y60909D02*
D03*
X28845D02*
D03*
X23765D02*
D03*
X21225D02*
D03*
X16145D02*
D03*
X13605D02*
D03*
X55465Y21789D02*
D03*
X53465D02*
D03*
X57465D02*
D03*
Y19789D02*
D03*
X53465D02*
D03*
X55465D02*
D03*
D40*
X57482Y31275D02*
D03*
X56982D02*
D03*
X56482D02*
D03*
X55982D02*
D03*
X55482D02*
D03*
X54982D02*
D03*
X54482D02*
D03*
X53982D02*
D03*
X53482D02*
D03*
X52982D02*
D03*
X52482D02*
D03*
X51982D02*
D03*
X51482D02*
D03*
X50982D02*
D03*
X50482D02*
D03*
X49982D02*
D03*
X49482D02*
D03*
X48982D02*
D03*
X48482D02*
D03*
X47982D02*
D03*
X47482D02*
D03*
X46982D02*
D03*
X46482D02*
D03*
X45982D02*
D03*
X45482D02*
D03*
X44982D02*
D03*
X44482D02*
D03*
X43982D02*
D03*
X43482D02*
D03*
X42982D02*
D03*
X42482D02*
D03*
X41982D02*
D03*
X41482D02*
D03*
X40982D02*
D03*
X40482D02*
D03*
X39982D02*
D03*
Y52875D02*
D03*
X40482D02*
D03*
X40982D02*
D03*
X41482D02*
D03*
X41982D02*
D03*
X42482D02*
D03*
X42982D02*
D03*
X43482D02*
D03*
X43982D02*
D03*
X44482D02*
D03*
X44982D02*
D03*
X45482D02*
D03*
X45982D02*
D03*
X46482D02*
D03*
X46982D02*
D03*
X47482D02*
D03*
X47982D02*
D03*
X48482D02*
D03*
X48982D02*
D03*
X49482D02*
D03*
X49982D02*
D03*
X50482D02*
D03*
X50982D02*
D03*
X51482D02*
D03*
X51982D02*
D03*
X52482D02*
D03*
X52982D02*
D03*
X53482D02*
D03*
X53982D02*
D03*
X54482D02*
D03*
X54982D02*
D03*
X55482D02*
D03*
X55982D02*
D03*
X56482D02*
D03*
X56982D02*
D03*
X57482D02*
D03*
D41*
X37932Y33325D02*
D03*
Y33825D02*
D03*
Y34325D02*
D03*
Y34825D02*
D03*
Y35325D02*
D03*
Y35825D02*
D03*
Y36325D02*
D03*
Y36825D02*
D03*
Y37325D02*
D03*
Y37825D02*
D03*
Y38325D02*
D03*
Y38825D02*
D03*
Y39325D02*
D03*
Y39825D02*
D03*
Y40325D02*
D03*
Y40825D02*
D03*
Y41325D02*
D03*
Y41825D02*
D03*
Y42325D02*
D03*
Y42825D02*
D03*
Y43325D02*
D03*
Y43825D02*
D03*
Y44325D02*
D03*
Y44825D02*
D03*
Y45325D02*
D03*
Y45825D02*
D03*
Y46325D02*
D03*
Y46825D02*
D03*
Y47325D02*
D03*
Y47825D02*
D03*
Y48325D02*
D03*
Y48825D02*
D03*
Y49325D02*
D03*
Y49825D02*
D03*
Y50325D02*
D03*
Y50825D02*
D03*
X59532D02*
D03*
Y50325D02*
D03*
Y49825D02*
D03*
Y49325D02*
D03*
Y48825D02*
D03*
Y48325D02*
D03*
Y47825D02*
D03*
Y47325D02*
D03*
Y46825D02*
D03*
Y46325D02*
D03*
Y45825D02*
D03*
Y45325D02*
D03*
Y44825D02*
D03*
Y44325D02*
D03*
Y43825D02*
D03*
Y43325D02*
D03*
Y42825D02*
D03*
Y42325D02*
D03*
Y41825D02*
D03*
Y41325D02*
D03*
Y40825D02*
D03*
Y40325D02*
D03*
Y39825D02*
D03*
Y39325D02*
D03*
Y38825D02*
D03*
Y38325D02*
D03*
Y37825D02*
D03*
Y37325D02*
D03*
Y36825D02*
D03*
Y36325D02*
D03*
Y35825D02*
D03*
Y35325D02*
D03*
Y34825D02*
D03*
Y34325D02*
D03*
Y33825D02*
D03*
Y33325D02*
D03*
D42*
X59800Y24000D02*
D03*
X57950D02*
D03*
D43*
X32325Y26025D02*
D03*
Y27875D02*
D03*
X76125Y29625D02*
D03*
Y31475D02*
D03*
Y35350D02*
D03*
Y37200D02*
D03*
X76150Y41050D02*
D03*
Y42900D02*
D03*
X18200Y26175D02*
D03*
Y28025D02*
D03*
X76000Y53125D02*
D03*
Y51275D02*
D03*
D44*
X58845Y27675D02*
D03*
X57525D02*
D03*
X51945Y26425D02*
D03*
X50625D02*
D03*
X45225Y58225D02*
D03*
X46545D02*
D03*
X56075Y54800D02*
D03*
X57395D02*
D03*
X75925Y49325D02*
D03*
X77245D02*
D03*
X64775Y45800D02*
D03*
X63455D02*
D03*
X45050Y29550D02*
D03*
X46370D02*
D03*
X31400Y41700D02*
D03*
X32720D02*
D03*
X51545Y55825D02*
D03*
X50225D02*
D03*
D45*
X36025Y32680D02*
D03*
Y34000D02*
D03*
X30400Y36930D02*
D03*
Y38250D02*
D03*
X38400Y53530D02*
D03*
Y54850D02*
D03*
X66050Y37750D02*
D03*
Y39070D02*
D03*
X62875Y50005D02*
D03*
Y51325D02*
D03*
D46*
X73982Y53195D02*
D03*
X68267D02*
D03*
X73982Y51925D02*
D03*
Y50655D02*
D03*
Y49385D02*
D03*
X68267D02*
D03*
Y50655D02*
D03*
Y51925D02*
D03*
X74107Y42932D02*
D03*
X68392D02*
D03*
X74107Y41662D02*
D03*
Y40392D02*
D03*
Y39122D02*
D03*
X68392D02*
D03*
Y40392D02*
D03*
Y41662D02*
D03*
X74107Y31530D02*
D03*
X68392D02*
D03*
X74107Y30260D02*
D03*
Y28990D02*
D03*
Y27720D02*
D03*
X68392D02*
D03*
Y28990D02*
D03*
Y30260D02*
D03*
Y35970D02*
D03*
Y34700D02*
D03*
Y33430D02*
D03*
X74107D02*
D03*
Y34700D02*
D03*
Y35970D02*
D03*
X68392Y37240D02*
D03*
X74107D02*
D03*
D47*
X67575Y46175D02*
D03*
X76575D02*
D03*
D48*
X20432Y31180D02*
D03*
X30032D02*
D03*
X20432Y26100D02*
D03*
Y27370D02*
D03*
Y28640D02*
D03*
Y29910D02*
D03*
Y32450D02*
D03*
Y33720D02*
D03*
Y34990D02*
D03*
X30032Y29910D02*
D03*
Y28640D02*
D03*
Y27370D02*
D03*
Y26100D02*
D03*
Y34990D02*
D03*
Y33720D02*
D03*
Y32450D02*
D03*
D49*
X36325Y31375D02*
D03*
Y29525D02*
D03*
D50*
X15985Y46595D02*
D03*
Y52595D02*
D03*
D51*
X31595Y34995D02*
X31600Y35000D01*
X30037Y34995D02*
X31595D01*
X30032Y34990D02*
X30037Y34995D01*
X18880D02*
X20427D01*
X18875Y35000D02*
X18880Y34995D01*
X20427D02*
X20432Y34990D01*
D52*
X13185Y46595D02*
X15985D01*
X11285Y48495D02*
X13185Y46595D01*
X11285Y50495D02*
X12860Y52070D01*
X15460D01*
X15985Y52595D01*
D53*
X47700Y18365D02*
D03*
X22700D02*
D03*
D54*
X11065Y60909D02*
D03*
D55*
X14375Y31550D02*
D03*
X11285Y48495D02*
D03*
D56*
X77545Y22677D02*
D03*
D57*
X6000Y60164D02*
D03*
X76000Y60000D02*
D03*
X6000Y15164D02*
D03*
X76000Y15000D02*
D03*
D58*
X10975Y39832D02*
D03*
D59*
X12975D02*
D03*
X15775D02*
D03*
X19775D02*
D03*
D60*
X43000Y26000D02*
D03*
X43435Y26875D02*
D03*
X41000Y26000D02*
D03*
X46300Y27400D02*
D03*
X29399Y46774D02*
D03*
X28699Y46780D02*
D03*
X30794Y46875D02*
D03*
X28000Y46738D02*
D03*
X30098Y46795D02*
D03*
X58100Y41300D02*
D03*
X54304Y42825D02*
D03*
X42675Y56500D02*
D03*
Y55700D02*
D03*
X41525Y55724D02*
D03*
X34200Y44725D02*
D03*
X60900Y24000D02*
D03*
X44915Y33118D02*
D03*
X45600Y32975D02*
D03*
X51500Y56700D02*
D03*
X32800Y59200D02*
D03*
X17100Y26200D02*
D03*
Y28100D02*
D03*
X46475Y28675D02*
D03*
X47100Y28100D02*
D03*
X33776Y36750D02*
D03*
X31600Y35000D02*
D03*
X33775Y37525D02*
D03*
X29500Y38400D02*
D03*
X28100Y36200D02*
D03*
X27300D02*
D03*
X33500Y27900D02*
D03*
X37500Y29400D02*
D03*
Y31400D02*
D03*
X33438Y26275D02*
D03*
X50575Y25550D02*
D03*
X52000Y25575D02*
D03*
X69950Y27650D02*
D03*
X29444Y36956D02*
D03*
X31300Y40800D02*
D03*
X32700D02*
D03*
X42595Y57199D02*
D03*
X39750Y56419D02*
D03*
X47150Y33025D02*
D03*
X63575Y35125D02*
D03*
X61750Y36425D02*
D03*
X66625Y36675D02*
D03*
X34007Y41993D02*
D03*
X35175Y32700D02*
D03*
X35200Y33925D02*
D03*
X31525Y33675D02*
D03*
X58875Y26775D02*
D03*
X57450Y26800D02*
D03*
X56100Y40800D02*
D03*
X58200Y33675D02*
D03*
X58275Y30925D02*
D03*
X32300Y47300D02*
D03*
X75800Y48475D02*
D03*
X32665Y35360D02*
D03*
X54500Y30100D02*
D03*
X52882Y32575D02*
D03*
X53675Y41650D02*
D03*
X45000Y28700D02*
D03*
X49575Y57000D02*
D03*
X44307Y46293D02*
D03*
X47925Y50725D02*
D03*
X49850Y33050D02*
D03*
X44300Y48975D02*
D03*
X18875Y35000D02*
D03*
X45673Y45731D02*
D03*
X45742Y47401D02*
D03*
X44900Y46875D02*
D03*
X51050Y47350D02*
D03*
X62660Y45425D02*
D03*
X77200Y29675D02*
D03*
Y35400D02*
D03*
X51050Y46175D02*
D03*
X31350Y55100D02*
D03*
X63715Y50187D02*
D03*
X57850Y45350D02*
D03*
X43125Y33175D02*
D03*
X77075Y51175D02*
D03*
Y53225D02*
D03*
X77225Y41100D02*
D03*
X77200Y31500D02*
D03*
Y37225D02*
D03*
X77225Y42900D02*
D03*
X50500Y56625D02*
D03*
X45975Y61100D02*
D03*
X46625Y59050D02*
D03*
X41250Y29975D02*
D03*
X40900Y56419D02*
D03*
X40325Y55724D02*
D03*
X39150D02*
D03*
X34275Y48475D02*
D03*
X45175Y59050D02*
D03*
X37575Y54925D02*
D03*
Y53550D02*
D03*
X45775Y40800D02*
D03*
X31500Y52900D02*
D03*
X48100Y45275D02*
D03*
X63700Y51375D02*
D03*
X42575Y49025D02*
D03*
X29825Y54200D02*
D03*
X55995Y55650D02*
D03*
X57445Y55625D02*
D03*
X69825Y49350D02*
D03*
X66850Y43275D02*
D03*
X69950Y39050D02*
D03*
X66875Y37700D02*
D03*
Y39017D02*
D03*
X69950Y33350D02*
D03*
X67650Y32450D02*
D03*
X44232Y51636D02*
D03*
X38075Y52400D02*
D03*
X48700Y39575D02*
D03*
X49975Y36800D02*
D03*
X66400Y53000D02*
D03*
M02*
