G04*
G04 #@! TF.GenerationSoftware,Altium Limited,Altium Designer,23.11.1 (41)*
G04*
G04 Layer_Physical_Order=4*
G04 Layer_Color=16711680*
%FSLAX43Y43*%
%MOMM*%
G71*
G04*
G04 #@! TF.SameCoordinates,7BC64366-9C4D-408C-9FF9-50DFB5F98349*
G04*
G04*
G04 #@! TF.FilePolarity,Positive*
G04*
G01*
G75*
%ADD11C,0.250*%
%ADD30C,1.400*%
%ADD32C,1.600*%
%ADD34R,1.600X1.600*%
%ADD35C,1.500*%
%ADD36R,1.500X1.500*%
%ADD39C,1.300*%
%ADD44R,0.800X0.900*%
%ADD45R,0.900X0.800*%
%ADD52C,0.800*%
%ADD53C,6.000*%
%ADD54R,1.300X1.300*%
%ADD55R,1.500X1.500*%
%ADD56R,1.400X1.400*%
%ADD57C,4.700*%
%ADD58R,1.200X1.200*%
%ADD59C,1.200*%
%ADD60C,0.500*%
%ADD61R,0.900X2.500*%
%ADD62R,1.600X1.800*%
%ADD63R,0.300X0.800*%
%ADD64R,0.800X0.300*%
%ADD65R,0.300X1.500*%
%ADD66R,1.500X0.300*%
%ADD67R,1.000X1.400*%
%ADD68R,1.100X2.000*%
%ADD69R,3.300X2.000*%
%ADD70R,1.800X1.600*%
%ADD71R,1.400X1.000*%
%ADD72C,1.000*%
D11*
X41525Y35255D02*
Y38775D01*
X41270Y35000D02*
X41525Y35255D01*
X41275Y35000D02*
X42632D01*
X41275Y33700D02*
Y35000D01*
X42632D02*
X43075Y34557D01*
X62970Y20530D02*
X63200Y20300D01*
X61073Y22427D02*
X62970Y20530D01*
X60027Y23473D02*
X61073Y22427D01*
X49414Y23473D02*
X60027D01*
X46062Y26825D02*
X49414Y23473D01*
X44000Y17100D02*
Y23000D01*
Y17100D02*
X46060Y15040D01*
X70876D01*
X41000Y26000D02*
X44000Y23000D01*
X75183Y17983D02*
X77900Y20700D01*
X70876Y15040D02*
X73820Y17983D01*
X75183D01*
X70119Y18283D02*
X73633Y18433D01*
X75900Y20700D01*
X41000Y26000D02*
Y26000D01*
X44761Y26875D02*
X52904Y18733D01*
X43000Y26000D02*
X45000D01*
X52717Y18283D01*
X43435Y26875D02*
X44761D01*
X52717Y18283D02*
X70119D01*
X52904Y18733D02*
X69933D01*
X71900Y20700D01*
X44325Y28435D02*
X44471Y28289D01*
X44325Y28539D02*
X44325Y28435D01*
X44471Y28289D02*
X46062Y26825D01*
X44325Y28539D02*
Y35575D01*
X46303Y27397D02*
X49572D01*
X46300Y27400D02*
X46303Y27397D01*
X58325Y41252D02*
X59377Y40200D01*
X58148Y41252D02*
X58325D01*
X58100Y41300D02*
X58148Y41252D01*
X59377Y40200D02*
X59377D01*
X59752Y39825D01*
Y37600D02*
Y39825D01*
X46175Y35495D02*
Y35554D01*
X45984Y35745D02*
Y35753D01*
X45794Y35943D02*
X45984Y35753D01*
X45786Y35943D02*
X45794D01*
X46450Y35220D02*
X46500D01*
X45984Y35745D02*
X46175Y35554D01*
Y35495D02*
X46450Y35220D01*
X44050Y37679D02*
X45786Y35943D01*
X50687Y32595D02*
X51182Y32100D01*
X50687Y32595D02*
Y33718D01*
X50500Y33905D02*
X50687Y33718D01*
X49850Y33905D02*
X50500D01*
X46175Y33625D02*
X46230Y33680D01*
X46175Y33555D02*
Y33625D01*
X45600Y32980D02*
X46175Y33555D01*
X46230Y33680D02*
X46575D01*
X41270Y31150D02*
X42538D01*
X43075Y31687D01*
X41270Y29995D02*
Y31150D01*
X29523Y46544D02*
Y46582D01*
X29399Y46706D02*
X29523Y46582D01*
X29399Y46706D02*
Y46774D01*
X30269Y45799D02*
X31549D01*
X29523Y46544D02*
X30269Y45799D01*
X28135Y46530D02*
X30366Y44300D01*
X31550D01*
X28778Y46555D02*
X30533Y44800D01*
X31550D01*
X30794Y46875D02*
X30861D01*
X30911Y46825D01*
X31525D01*
X31550Y46800D01*
X30098Y46752D02*
X30551Y46300D01*
X30098Y46752D02*
Y46795D01*
X30551Y46300D02*
X31550D01*
X32695Y52925D02*
X33300Y52320D01*
Y51150D02*
Y52320D01*
X32000Y51150D02*
X32713D01*
X30700D02*
X32000D01*
X32717D02*
X33300D01*
X53325Y43775D02*
X54225D01*
X54879Y32704D02*
Y43121D01*
X54225Y43775D02*
X54879Y43121D01*
X53650Y42825D02*
X54304D01*
X42100Y55462D02*
Y56788D01*
X42723Y56452D02*
X43176D01*
X42675Y56500D02*
X42723Y56452D01*
X42100Y56788D02*
X42400Y57088D01*
X40948Y56194D02*
Y56371D01*
X40950Y54989D02*
Y56192D01*
X42675Y55632D02*
X43025Y55282D01*
X41499Y55699D02*
X41525Y55724D01*
X42100Y55462D02*
X42525Y55037D01*
X40900Y56419D02*
X40948Y56371D01*
X43025Y54300D02*
Y55282D01*
X42525Y54300D02*
Y55037D01*
X40948Y56194D02*
X40950Y56192D01*
X41499Y55076D02*
Y55699D01*
X42675Y55632D02*
Y55700D01*
X41000Y54325D02*
Y54939D01*
X40950Y54989D02*
X41000Y54939D01*
X41740Y51350D02*
X42518Y52127D01*
Y52693D02*
X42525Y52700D01*
X41740Y51350D02*
X41740D01*
X42518Y52127D02*
Y52693D01*
X41550Y51160D02*
X41740Y51350D01*
X42000Y52246D02*
Y52675D01*
X41050Y51296D02*
X42000Y52246D01*
Y52675D02*
X42025Y52700D01*
X41050Y50300D02*
Y51296D01*
X34200Y44725D02*
X34225Y44750D01*
X34337Y43775D02*
X35525D01*
X34225Y44750D02*
X35500D01*
X33175Y44275D02*
X33837D01*
X35500Y44750D02*
X35525Y44775D01*
X34200Y43275D02*
X35525D01*
X33900Y45300D02*
X35500D01*
X33425Y44825D02*
X33900Y45300D01*
X33175Y43775D02*
X33700D01*
X33837Y44275D02*
X34337Y43775D01*
X33700D02*
X34200Y43275D01*
X44971Y33680D02*
X45275D01*
X44915Y33623D02*
X44971Y33680D01*
X44915Y33118D02*
Y33623D01*
X42050Y37850D02*
X44325Y35575D01*
X45600Y32975D02*
Y32980D01*
X42000Y54325D02*
Y54575D01*
Y54325D02*
X42025Y54300D01*
X41499Y55076D02*
X42000Y54575D01*
X57850Y45350D02*
X63000Y40200D01*
Y27600D02*
Y40200D01*
X46525Y51211D02*
X48536Y49200D01*
X46525Y51211D02*
Y55650D01*
X29500Y51225D02*
Y52600D01*
X29400Y51125D02*
X29500Y51225D01*
Y52600D02*
X29825Y52925D01*
Y54200D01*
X32800Y58075D02*
Y59200D01*
X32725Y58000D02*
X32800Y58075D01*
X27300Y36200D02*
Y40137D01*
X30938Y43775D01*
X28100Y40100D02*
X31300Y43300D01*
X28100Y36200D02*
Y40100D01*
X35970Y35250D02*
X36632D01*
X39025Y37643D01*
X50550Y33905D02*
X51800D01*
X47100Y28100D02*
X47121Y28079D01*
X49604D01*
X53457Y31932D01*
X49572Y27397D02*
X54879Y32704D01*
X34550Y41250D02*
X35500D01*
X28925Y35625D02*
X34550Y41250D01*
X35500Y40750D02*
X35525Y40775D01*
X34687Y40750D02*
X35500D01*
X29475Y35538D02*
X34687Y40750D01*
X33842Y37525D02*
X33914Y37597D01*
X33775Y37525D02*
X33842D01*
X34397Y37597D02*
X34650Y37850D01*
X33914Y37597D02*
X34397D01*
X35970Y37850D02*
X36120Y37700D01*
X37810D01*
X39950Y35825D02*
X41025Y36900D01*
X39950Y33700D02*
Y35000D01*
X35975Y36550D02*
X37296D01*
X39550Y37531D02*
Y38750D01*
X41025Y36900D02*
Y38775D01*
X39025Y37643D02*
Y38775D01*
X39950Y35000D02*
Y35825D01*
X38500Y37754D02*
Y38750D01*
X38200Y21867D02*
Y36181D01*
X37296Y36550D02*
X38500Y37754D01*
X40525Y37233D02*
Y38775D01*
X38200Y36181D02*
X39550Y37531D01*
X40025Y37370D02*
Y38775D01*
X38000Y37890D02*
Y38750D01*
X39950Y32400D02*
Y33700D01*
Y31100D02*
Y32400D01*
X38000Y38750D02*
X38025Y38775D01*
X38650Y35995D02*
X40025Y37370D01*
X37810Y37700D02*
X38000Y37890D01*
X38650Y20400D02*
Y35995D01*
X39100Y21726D02*
Y35808D01*
X40525Y37233D01*
X50270Y47350D02*
X51050D01*
X32732Y35360D02*
X32818Y35275D01*
X34625D01*
X34455Y36750D02*
X34655Y36550D01*
X33776Y36750D02*
X34455D01*
X31525Y33675D02*
X33800Y31400D01*
X37500D01*
X63000Y27600D02*
X69900Y20700D01*
X31300Y43300D02*
X31550D01*
X47637Y32875D02*
X47925Y32587D01*
X48312Y32200D01*
X47875Y32537D02*
Y33905D01*
X52882Y32575D02*
Y40218D01*
X51675Y41425D02*
X52882Y40218D01*
X50370Y41425D02*
X51675D01*
X52575Y41275D02*
Y42575D01*
X53457Y31932D02*
Y40393D01*
X52575Y41275D02*
X53457Y40393D01*
X46550Y56700D02*
X47925Y55325D01*
Y50725D02*
Y55325D01*
X46525Y57250D02*
X46550Y57225D01*
Y56700D02*
Y57225D01*
X43525Y54300D02*
Y56103D01*
X43176Y56452D02*
X43525Y56103D01*
X42400Y57088D02*
X42416D01*
X42527Y57199D01*
X42595D01*
X39725Y55110D02*
Y56425D01*
X39750Y56450D01*
X46355Y36725D02*
X47550Y35530D01*
X44550Y37815D02*
X45640Y36725D01*
X46355D01*
X43525Y37475D02*
X45153Y35847D01*
Y35122D02*
Y35847D01*
Y35122D02*
X45275Y35000D01*
X44050Y37679D02*
Y38750D01*
X44025Y38775D02*
X44050Y38750D01*
X43525Y37475D02*
Y38775D01*
X44550Y37815D02*
Y38750D01*
X47550Y35500D02*
X47825Y35225D01*
X47875D01*
X49200D01*
X47550Y35500D02*
Y35530D01*
X42050Y37850D02*
Y38750D01*
X47150Y33025D02*
X47218D01*
X47368Y32875D02*
X47637D01*
X47218Y33025D02*
X47368Y32875D01*
X48312Y32100D02*
Y32200D01*
X52575Y42575D02*
X52575Y42575D01*
X52575Y43085D02*
X52765Y43275D01*
X52575Y42575D02*
Y43085D01*
X52902Y43275D02*
X52902Y43275D01*
X52765Y43275D02*
X52902D01*
X61750Y36425D02*
Y37598D01*
X61752Y37600D01*
X31549Y45799D02*
X31550Y45800D01*
X66625Y33475D02*
X67650Y32450D01*
X66625Y33475D02*
Y36675D01*
X60527Y35275D02*
Y35725D01*
X59752Y36500D02*
Y37600D01*
Y36500D02*
X60527Y35725D01*
X61752Y37600D02*
Y39625D01*
X58127Y35375D02*
Y37600D01*
X56100Y39652D02*
X56127Y39625D01*
X58127Y37600D02*
Y39625D01*
X56100Y39652D02*
Y40800D01*
X58127Y35375D02*
X58227Y35275D01*
X56127Y37600D02*
Y39625D01*
X55927Y35275D02*
Y37400D01*
X56127Y37600D01*
X58227Y29375D02*
X58275Y29423D01*
Y30925D01*
X58200Y35248D02*
X58227Y35275D01*
X58200Y33675D02*
Y35248D01*
X30938Y43775D02*
X31525D01*
X31550Y43800D01*
X31550Y47300D02*
X32300D01*
X32665Y35360D02*
X32732D01*
X53550Y42300D02*
X53575Y42275D01*
Y41818D02*
Y42275D01*
X53675Y41650D02*
Y41718D01*
X53575Y41818D02*
X53675Y41718D01*
X36225Y49350D02*
X36600Y48975D01*
X35900Y49830D02*
X35950D01*
X36225Y49555D01*
Y49350D02*
Y49555D01*
X36600Y48975D02*
X41585D01*
X34600Y49805D02*
X35750D01*
X32000D02*
X33300D01*
X30700D02*
X32000D01*
X29400D02*
X30700D01*
X33300D02*
X34600D01*
X41585Y48975D02*
X42000Y49390D01*
X35750Y49805D02*
X35875D01*
X48600Y57975D02*
X49575Y57000D01*
X47910Y46800D02*
X48343Y47234D01*
X48834D01*
X48950Y47350D01*
X47025Y46775D02*
X47050Y46800D01*
X47773D02*
X47773Y46800D01*
X47050Y46800D02*
X47773D01*
X47773Y46800D02*
X47910D01*
X45068Y46775D02*
X47025D01*
X47910Y47800D02*
X48100Y47990D01*
X47050Y47800D02*
X47910D01*
X48100Y47990D02*
Y49000D01*
X46025Y51075D02*
X48100Y49000D01*
X46025Y51075D02*
Y55650D01*
X48536Y49200D02*
X50400D01*
X44307Y46293D02*
X44313Y46300D01*
X45407D01*
X49200Y33905D02*
X49850D01*
Y33050D02*
Y33905D01*
X44500Y49243D02*
Y50250D01*
X44300Y49043D02*
X44500Y49243D01*
Y50250D02*
X44525Y50275D01*
X44300Y48975D02*
Y49043D01*
X44050Y49293D02*
Y50250D01*
Y49293D02*
X44300Y49043D01*
X41217Y41275D02*
X45695Y45753D01*
X35525Y41275D02*
X41217D01*
X45695Y45753D02*
X47003D01*
X46063Y46300D02*
X47000D01*
X46057Y46306D02*
X46063Y46300D01*
X45810Y47401D02*
X45935Y47275D01*
X47025D01*
X45412Y46306D02*
X46057D01*
X44968Y46875D02*
X45068Y46775D01*
X44900Y46875D02*
X44968D01*
X45742Y47401D02*
X45810D01*
X45407Y46300D02*
X45412Y46306D01*
X47003Y45753D02*
X47025Y45775D01*
X47000Y46300D02*
X47025Y46275D01*
X48875D01*
X50270Y46200D02*
X51025D01*
X51050Y46175D01*
X53300Y42300D02*
X53550D01*
X32595Y55100D02*
X32625Y55130D01*
X31350Y55100D02*
X32595D01*
X32625Y58000D02*
X32725D01*
X34430Y56350D02*
Y56400D01*
X32725Y58000D02*
X34050Y56675D01*
X34155D01*
X34430Y56400D01*
X43075Y33225D02*
X43125Y33175D01*
X43075Y33225D02*
Y34557D01*
X34625Y35275D02*
X34650Y35250D01*
X34225Y41775D02*
X35525D01*
X34007Y41993D02*
X34225Y41775D01*
X34007Y42026D02*
X34255Y42275D01*
X34007Y41993D02*
Y42026D01*
X34255Y42275D02*
X35525D01*
X45975Y59037D02*
Y61100D01*
X45030Y58091D02*
X45975Y59037D01*
X45030Y57255D02*
Y58091D01*
X41250Y29975D02*
X41270Y29995D01*
X29475Y19049D02*
Y35538D01*
Y19049D02*
X32699Y15825D01*
X32900D01*
X29700Y14700D02*
X34075D01*
X28925Y15475D02*
X29700Y14700D01*
X28925Y15475D02*
Y35625D01*
X35500Y41250D02*
X35525Y41275D01*
X34075Y14700D02*
X35200Y15825D01*
X40325Y55812D02*
X40346Y55791D01*
X39150Y55732D02*
X39275Y55607D01*
X39150Y55732D02*
Y55800D01*
X39725Y55110D02*
X40000Y54835D01*
X39275Y54923D02*
Y55607D01*
X40346Y55125D02*
Y55791D01*
X39500Y54325D02*
Y54698D01*
X39275Y54923D02*
X39500Y54698D01*
Y54325D02*
X39525Y54300D01*
X40500Y54325D02*
Y54971D01*
X40346Y55125D02*
X40500Y54971D01*
X51700Y45450D02*
Y47900D01*
X50400Y49200D02*
X51700Y47900D01*
X50550Y44300D02*
X51700Y45450D01*
X34537Y48275D02*
X35525D01*
X34275Y48475D02*
X34337D01*
X34537Y48275D01*
X35500Y45800D02*
X35525Y45775D01*
X35500Y45300D02*
X35525Y45275D01*
X33425Y45800D02*
X33425Y45800D01*
X33150Y45800D02*
X33425D01*
X33425Y45800D02*
X35500D01*
X33175Y44825D02*
X33425D01*
X33150Y44800D02*
X33175Y44825D01*
X36600Y44490D02*
Y48975D01*
X36410Y44300D02*
X36600Y44490D01*
X35525Y44275D02*
X35550Y44300D01*
X36410D01*
X41000Y54325D02*
X41025Y54300D01*
X40000Y54325D02*
Y54835D01*
Y54325D02*
X40025Y54300D01*
X40500Y54325D02*
X40525Y54300D01*
X40025Y51544D02*
X40525Y52044D01*
X40025Y50275D02*
Y51544D01*
X39550Y50300D02*
Y51705D01*
X40000Y52155D01*
X39025Y50275D02*
Y51950D01*
X39500Y52425D01*
X43525Y50275D02*
Y52700D01*
X43025Y50275D02*
Y52700D01*
X43025Y50275D02*
X43025Y50275D01*
X41550Y50300D02*
Y51160D01*
X40550Y51432D02*
X41025Y51907D01*
X40000Y52675D02*
X40025Y52700D01*
X40550Y51023D02*
Y51432D01*
X41525Y50275D02*
X41550Y50300D01*
X41025Y51907D02*
Y52700D01*
X40525Y52044D02*
Y52700D01*
X40000Y52155D02*
Y52675D01*
X41025Y50275D02*
X41050Y50300D01*
X39500Y52425D02*
Y52675D01*
X39525Y52700D01*
X40550Y51023D02*
X40550Y51023D01*
X40525Y50275D02*
X40550Y50300D01*
Y51023D01*
X39525Y50275D02*
X39550Y50300D01*
X39025Y50275D02*
X39025Y50275D01*
X36400Y52375D02*
X37525Y51250D01*
X35750Y52375D02*
X36400D01*
X37525Y50275D02*
Y51250D01*
X33925Y42775D02*
X35525D01*
X33150Y43300D02*
X33400D01*
X33925Y42775D01*
X33150Y43800D02*
X33175Y43775D01*
X33150Y44300D02*
X33175Y44275D01*
X33150Y46300D02*
X33162Y46287D01*
X35513D02*
X35525Y46275D01*
X33162Y46287D02*
X35513D01*
X34925Y46775D02*
X35525D01*
X33150Y46800D02*
X34900D01*
X34925Y46775D01*
X33162Y47287D02*
X35513D01*
X33150Y47300D02*
X33162Y47287D01*
X35513D02*
X35525Y47275D01*
X50500Y35225D02*
X51800D01*
X49200D02*
X50500D01*
X49975Y36800D02*
X49991Y36816D01*
X50050Y40200D02*
X50055Y40195D01*
X50050Y37684D02*
Y38880D01*
X51350Y37664D02*
Y38875D01*
X50055Y40195D02*
X51350D01*
X49991Y36816D02*
Y37624D01*
X48705Y37500D02*
X48725Y37480D01*
X48700Y38825D02*
Y39575D01*
X48725Y38800D02*
X48725Y38800D01*
X47025Y41275D02*
X47050Y41250D01*
X47915D01*
X45775Y40800D02*
X47000D01*
X47025Y40775D01*
Y42275D02*
X47037Y42287D01*
X49050Y41425D02*
Y41475D01*
X48750Y41775D02*
X49050Y41475D01*
X47915Y41250D02*
X48965Y40200D01*
X50050D01*
X47037Y42287D02*
X51688D01*
X51700Y42300D01*
X47025Y41775D02*
X48750D01*
X47490Y38800D02*
X48725D01*
X46170Y37505D02*
Y38800D01*
Y37505D02*
X46175Y37500D01*
X47495D02*
X48705D01*
X48700Y38825D02*
X48725Y38800D01*
X51311Y37624D02*
X51350Y37664D01*
X49991Y37624D02*
X50050Y37684D01*
X47025Y47775D02*
X47050Y47800D01*
X46425Y48275D02*
X47025D01*
X48875Y46275D02*
X48950Y46200D01*
X46675Y45275D02*
X48100D01*
X41665Y40775D02*
X46140Y45250D01*
X47025Y44275D02*
X47050Y44300D01*
X46600Y45250D02*
X46650Y45300D01*
X35525Y40775D02*
X41665D01*
X46140Y45250D02*
X46600D01*
X46650Y45300D02*
X46675Y45275D01*
X47025Y42775D02*
X47037Y42787D01*
X47025Y43775D02*
X47037Y43787D01*
X51450Y43300D02*
X51700D01*
X51688Y42787D02*
X51700Y42800D01*
X51688Y43787D02*
X51700Y43800D01*
X51425Y43275D02*
X51450Y43300D01*
X47037Y43787D02*
X51688D01*
X47025Y43275D02*
X51425D01*
X53050Y43275D02*
X53100Y43325D01*
X47037Y42787D02*
X51688D01*
X53300Y43800D02*
X53325Y43775D01*
X45525Y49175D02*
X46425Y48275D01*
X44232Y51636D02*
Y55867D01*
X42550Y49050D02*
Y50250D01*
X42525Y50275D02*
X42550Y50250D01*
Y49050D02*
X42575Y49025D01*
X52902Y43275D02*
X53050D01*
X45025Y50275D02*
Y55650D01*
X45525Y49175D02*
Y55650D01*
X32713Y51150D02*
X32717Y51146D01*
X42000Y50250D02*
X42025Y50275D01*
X42000Y49390D02*
Y50250D01*
X32625Y55130D02*
X34330D01*
X34435Y53725D02*
Y55025D01*
X34330Y55130D02*
X34435Y55025D01*
Y52430D02*
Y53725D01*
X31500Y52900D02*
X32670D01*
X32695Y52925D01*
X34600Y51150D02*
X35900D01*
X34430Y52425D02*
X34435Y52430D01*
X33300Y51150D02*
X34600D01*
X35750Y52375D02*
Y53725D01*
Y55025D02*
Y56350D01*
Y53725D02*
Y55025D01*
X38050Y52375D02*
X38075Y52400D01*
X38050Y50300D02*
Y52375D01*
X38525Y50275D02*
Y51950D01*
X38075Y52400D02*
X38525Y51950D01*
X35875Y49805D02*
X35900Y49830D01*
X38025Y50275D02*
X38050Y50300D01*
X66400Y53000D02*
X66850Y52550D01*
X41275Y32400D02*
Y33700D01*
X66850Y43275D02*
Y52550D01*
X39525Y38775D02*
X39550Y38750D01*
X38500D02*
X38525Y38775D01*
X39950Y35000D02*
X39950Y35000D01*
X47050Y44300D02*
X50550D01*
X42025Y38775D02*
X42050Y38750D01*
X46145Y38775D02*
X46170Y38800D01*
X45025Y38775D02*
X46145D01*
X44525D02*
X44550Y38750D01*
X36325Y19780D02*
X38030D01*
X35200Y20905D02*
X36325Y19780D01*
X38030D02*
X38650Y20400D01*
X37500Y20905D02*
Y21167D01*
X38200Y21867D01*
X39100Y21726D02*
X39125Y21701D01*
Y21580D02*
Y21701D01*
Y21580D02*
X39800Y20905D01*
X45740Y57975D02*
X48600D01*
X45025Y57250D02*
X45030Y57255D01*
X45550Y57785D02*
X45740Y57975D01*
X45550Y57275D02*
Y57785D01*
X45525Y57250D02*
X45550Y57275D01*
X44232Y55867D02*
X44815Y56450D01*
X45735D01*
X46000Y56715D01*
Y57225D01*
X46025Y57250D01*
D30*
X77545Y20677D02*
D03*
X75545D02*
D03*
X73545D02*
D03*
X75545Y22677D02*
D03*
X73545D02*
D03*
X71545D02*
D03*
X69545D02*
D03*
X71545Y20677D02*
D03*
X69545D02*
D03*
D32*
X37500Y20905D02*
D03*
X35200D02*
D03*
X32900D02*
D03*
X30600D02*
D03*
X40950Y18365D02*
D03*
X38650D02*
D03*
X36350D02*
D03*
X34050D02*
D03*
X31750D02*
D03*
X39800Y15825D02*
D03*
X37500D02*
D03*
X30600D02*
D03*
X35200D02*
D03*
X32900D02*
D03*
D34*
X39800Y20905D02*
D03*
D35*
X14375Y27550D02*
D03*
Y29550D02*
D03*
X64846Y20405D02*
D03*
X62846D02*
D03*
X11285Y50495D02*
D03*
D36*
X60846Y20405D02*
D03*
D39*
X26305Y60909D02*
D03*
X28845D02*
D03*
X23765D02*
D03*
X21225D02*
D03*
X16145D02*
D03*
X13605D02*
D03*
X55465Y21789D02*
D03*
X53465D02*
D03*
X57465D02*
D03*
Y19789D02*
D03*
X53465D02*
D03*
X55465D02*
D03*
D44*
X50273Y47505D02*
D03*
X48953D02*
D03*
X50270Y46200D02*
D03*
X48950D02*
D03*
X50370Y41425D02*
D03*
X49050D02*
D03*
X51311Y37624D02*
D03*
X49991D02*
D03*
X46175Y37500D02*
D03*
X47495D02*
D03*
X35970Y35250D02*
D03*
X34650D02*
D03*
X34655Y36550D02*
D03*
X35975D02*
D03*
X41270Y35000D02*
D03*
X39950D02*
D03*
X34435Y55025D02*
D03*
X35755D02*
D03*
X47490Y38800D02*
D03*
X46170D02*
D03*
X41275Y33700D02*
D03*
X39955D02*
D03*
X34435Y53725D02*
D03*
X35755D02*
D03*
X41275Y32400D02*
D03*
X39955D02*
D03*
X34430Y52425D02*
D03*
X35750D02*
D03*
X39950Y31100D02*
D03*
X41270D02*
D03*
X35750Y56350D02*
D03*
X34430D02*
D03*
X34650Y37850D02*
D03*
X35970D02*
D03*
D45*
X35900Y49830D02*
D03*
Y51150D02*
D03*
X34600Y49830D02*
D03*
Y51150D02*
D03*
X50050Y40200D02*
D03*
Y38880D02*
D03*
X51350Y40195D02*
D03*
Y38875D02*
D03*
X46500Y33900D02*
D03*
Y35220D02*
D03*
X45209Y35218D02*
D03*
Y33898D02*
D03*
X32000Y51145D02*
D03*
Y49825D02*
D03*
X48725Y38800D02*
D03*
Y37480D02*
D03*
X33300Y51150D02*
D03*
Y49830D02*
D03*
X50500Y33905D02*
D03*
Y35225D02*
D03*
X49200Y33905D02*
D03*
Y35225D02*
D03*
X30700Y51150D02*
D03*
Y49830D02*
D03*
X51800Y33905D02*
D03*
Y35225D02*
D03*
X47875D02*
D03*
Y33905D02*
D03*
X29400Y49805D02*
D03*
Y51125D02*
D03*
D52*
X11061Y62656D02*
X11529Y63125D01*
X11570D01*
X11061Y61003D02*
Y62656D01*
X11570Y63125D02*
X11670Y63225D01*
Y63425D01*
X26301Y60868D02*
Y61139D01*
X17775Y42032D02*
X17820Y41987D01*
Y40780D02*
X18768Y39832D01*
X19775D01*
X17820Y40780D02*
Y41987D01*
X17875Y38775D02*
X18881Y39781D01*
X17875Y37832D02*
Y38775D01*
X17775Y37732D02*
X17875Y37832D01*
X25821Y61618D02*
Y63103D01*
Y61618D02*
X26301Y61139D01*
X25721Y58903D02*
Y60288D01*
X26301Y60868D01*
X13601Y58445D02*
Y61003D01*
Y63355D01*
X11285Y48495D02*
X15685D01*
X10975Y39832D02*
Y41832D01*
X9775Y38632D02*
X10975Y39832D01*
X9725Y37432D02*
X9775Y37482D01*
Y38632D01*
X13485Y50495D02*
X15685D01*
X11285D02*
X13485D01*
X11285Y50495D02*
X11285Y50495D01*
X10811Y59715D02*
Y60753D01*
X10320Y58425D02*
Y59225D01*
X10811Y60753D02*
X11061Y61003D01*
X10320Y59225D02*
X10811Y59715D01*
X12975Y39832D02*
Y41532D01*
Y37782D02*
Y39832D01*
D53*
X47700Y18365D02*
D03*
X22700D02*
D03*
D54*
X11065Y60909D02*
D03*
D55*
X14375Y31550D02*
D03*
X11285Y48495D02*
D03*
D56*
X77545Y22677D02*
D03*
D57*
X6000Y60164D02*
D03*
X76000Y60000D02*
D03*
X6000Y15164D02*
D03*
X76000Y15000D02*
D03*
D58*
X10975Y39832D02*
D03*
D59*
X12975D02*
D03*
X15775D02*
D03*
X19775D02*
D03*
D60*
X43000Y26000D02*
D03*
X43435Y26875D02*
D03*
X41000Y26000D02*
D03*
X46300Y27400D02*
D03*
X29399Y46774D02*
D03*
X28699Y46780D02*
D03*
X30794Y46875D02*
D03*
X28000Y46738D02*
D03*
X30098Y46795D02*
D03*
X58100Y41300D02*
D03*
X54304Y42825D02*
D03*
X42675Y56500D02*
D03*
Y55700D02*
D03*
X41525Y55724D02*
D03*
X34200Y44725D02*
D03*
X60900Y24000D02*
D03*
X44915Y33118D02*
D03*
X45600Y32975D02*
D03*
X51500Y56700D02*
D03*
X32800Y59200D02*
D03*
X17100Y26200D02*
D03*
Y28100D02*
D03*
X46475Y28675D02*
D03*
X47100Y28100D02*
D03*
X33776Y36750D02*
D03*
X31600Y35000D02*
D03*
X33775Y37525D02*
D03*
X29500Y38400D02*
D03*
X28100Y36200D02*
D03*
X27300D02*
D03*
X33500Y27900D02*
D03*
X37500Y29400D02*
D03*
Y31400D02*
D03*
X33438Y26275D02*
D03*
X50575Y25550D02*
D03*
X52000Y25575D02*
D03*
X69950Y27650D02*
D03*
X29444Y36956D02*
D03*
X31300Y40800D02*
D03*
X32700D02*
D03*
X42595Y57199D02*
D03*
X39750Y56419D02*
D03*
X47150Y33025D02*
D03*
X63575Y35125D02*
D03*
X61750Y36425D02*
D03*
X66625Y36675D02*
D03*
X34007Y41993D02*
D03*
X35175Y32700D02*
D03*
X35200Y33925D02*
D03*
X31525Y33675D02*
D03*
X58875Y26775D02*
D03*
X57450Y26800D02*
D03*
X56100Y40800D02*
D03*
X58200Y33675D02*
D03*
X58275Y30925D02*
D03*
X32300Y47300D02*
D03*
X75800Y48475D02*
D03*
X32665Y35360D02*
D03*
X54500Y30100D02*
D03*
X52882Y32575D02*
D03*
X53675Y41650D02*
D03*
X45000Y28700D02*
D03*
X49575Y57000D02*
D03*
X44307Y46293D02*
D03*
X47925Y50725D02*
D03*
X49850Y33050D02*
D03*
X44300Y48975D02*
D03*
X18875Y35000D02*
D03*
X45673Y45731D02*
D03*
X45742Y47401D02*
D03*
X44900Y46875D02*
D03*
X51050Y47350D02*
D03*
X62660Y45425D02*
D03*
X77200Y29675D02*
D03*
Y35400D02*
D03*
X51050Y46175D02*
D03*
X31350Y55100D02*
D03*
X63715Y50187D02*
D03*
X57850Y45350D02*
D03*
X43125Y33175D02*
D03*
X77075Y51175D02*
D03*
Y53225D02*
D03*
X77225Y41100D02*
D03*
X77200Y31500D02*
D03*
Y37225D02*
D03*
X77225Y42900D02*
D03*
X50500Y56625D02*
D03*
X45975Y61100D02*
D03*
X46625Y59050D02*
D03*
X41250Y29975D02*
D03*
X40900Y56419D02*
D03*
X40325Y55724D02*
D03*
X39150D02*
D03*
X34275Y48475D02*
D03*
X45175Y59050D02*
D03*
X37575Y54925D02*
D03*
Y53550D02*
D03*
X45775Y40800D02*
D03*
X31500Y52900D02*
D03*
X48100Y45275D02*
D03*
X63700Y51375D02*
D03*
X42575Y49025D02*
D03*
X29825Y54200D02*
D03*
X55995Y55650D02*
D03*
X57445Y55625D02*
D03*
X69825Y49350D02*
D03*
X66850Y43275D02*
D03*
X69950Y39050D02*
D03*
X66875Y37700D02*
D03*
Y39017D02*
D03*
X69950Y33350D02*
D03*
X67650Y32450D02*
D03*
X44232Y51636D02*
D03*
X38075Y52400D02*
D03*
X48700Y39575D02*
D03*
X49975Y36800D02*
D03*
X66400Y53000D02*
D03*
D61*
X13025Y37432D02*
D03*
X9725D02*
D03*
X13620Y58425D02*
D03*
X10320D02*
D03*
D62*
X29825Y52925D02*
D03*
X32695D02*
D03*
X48312Y32100D02*
D03*
X51182D02*
D03*
D63*
X41025Y52700D02*
D03*
X40525D02*
D03*
X40025D02*
D03*
X39525D02*
D03*
X41025Y54300D02*
D03*
X40525D02*
D03*
X40025D02*
D03*
X39525D02*
D03*
X42025D02*
D03*
X42525D02*
D03*
X43025D02*
D03*
X43525D02*
D03*
X42025Y52700D02*
D03*
X42525D02*
D03*
X43025D02*
D03*
X43525D02*
D03*
X45025Y57250D02*
D03*
X45525D02*
D03*
X46025D02*
D03*
X46525D02*
D03*
X45025Y55650D02*
D03*
X45525D02*
D03*
X46025D02*
D03*
X46525D02*
D03*
D64*
X51700Y42300D02*
D03*
Y42800D02*
D03*
Y43300D02*
D03*
Y43800D02*
D03*
X53300Y42300D02*
D03*
Y42800D02*
D03*
Y43300D02*
D03*
Y43800D02*
D03*
X31550Y43300D02*
D03*
Y43800D02*
D03*
Y44300D02*
D03*
Y44800D02*
D03*
X33150Y43300D02*
D03*
Y43800D02*
D03*
Y44300D02*
D03*
Y44800D02*
D03*
X31550Y45800D02*
D03*
Y46300D02*
D03*
Y46800D02*
D03*
Y47300D02*
D03*
X33150Y45800D02*
D03*
Y46300D02*
D03*
Y46800D02*
D03*
Y47300D02*
D03*
D65*
X45025Y50275D02*
D03*
X44525D02*
D03*
X44025D02*
D03*
X43525D02*
D03*
X43025D02*
D03*
X42525D02*
D03*
X42025D02*
D03*
X40525D02*
D03*
X41525D02*
D03*
X41025D02*
D03*
X39525D02*
D03*
X39025D02*
D03*
X38525D02*
D03*
X38025D02*
D03*
X37525D02*
D03*
X45025Y38775D02*
D03*
X44525D02*
D03*
X44025D02*
D03*
X43525D02*
D03*
X43025D02*
D03*
X42525D02*
D03*
X42025D02*
D03*
X40525D02*
D03*
X41525D02*
D03*
X41025D02*
D03*
X39525D02*
D03*
X39025D02*
D03*
X38525D02*
D03*
X38025D02*
D03*
X37525D02*
D03*
X40025Y50275D02*
D03*
Y38775D02*
D03*
D66*
X35525Y48275D02*
D03*
Y47775D02*
D03*
Y47275D02*
D03*
Y46775D02*
D03*
Y46275D02*
D03*
Y45775D02*
D03*
Y43775D02*
D03*
Y43275D02*
D03*
Y42775D02*
D03*
Y42275D02*
D03*
Y41775D02*
D03*
Y41275D02*
D03*
Y40775D02*
D03*
Y44775D02*
D03*
Y44275D02*
D03*
X47025Y48275D02*
D03*
Y47775D02*
D03*
Y47275D02*
D03*
Y46775D02*
D03*
Y46275D02*
D03*
Y45775D02*
D03*
Y43775D02*
D03*
Y43275D02*
D03*
Y42775D02*
D03*
Y42275D02*
D03*
Y41775D02*
D03*
Y41275D02*
D03*
Y40775D02*
D03*
Y44775D02*
D03*
Y44275D02*
D03*
X35525Y45275D02*
D03*
X47025D02*
D03*
D67*
X56127Y37600D02*
D03*
X58127D02*
D03*
X61752Y39625D02*
D03*
X59752D02*
D03*
X56127D02*
D03*
X58127D02*
D03*
X61752Y37600D02*
D03*
X59752D02*
D03*
X11670Y63425D02*
D03*
X13670D02*
D03*
X10975Y41832D02*
D03*
X12975D02*
D03*
X25721Y58903D02*
D03*
X23721D02*
D03*
X17775Y37732D02*
D03*
X15775D02*
D03*
X25821Y63103D02*
D03*
X23821D02*
D03*
X17775Y42032D02*
D03*
X15775D02*
D03*
D68*
X60527Y35275D02*
D03*
X58227D02*
D03*
X55927D02*
D03*
D69*
X58227Y29375D02*
D03*
D70*
X43075Y34557D02*
D03*
Y31687D02*
D03*
X32625Y58000D02*
D03*
Y55130D02*
D03*
D71*
X13485Y50495D02*
D03*
Y48495D02*
D03*
X15685Y50495D02*
D03*
Y48495D02*
D03*
D72*
X23761Y59143D02*
Y61003D01*
X15775Y39832D02*
Y41732D01*
Y38032D02*
Y39832D01*
X23821Y61144D02*
Y63103D01*
M02*
