M48
;Layer_Color=9474304
;FILE_FORMAT=4:3
METRIC,LZ
;TYPE=PLATED
T01F00S00C0.300
T02F00S00C0.760
T03F00S00C0.800
T04F00S00C0.900
T05F00S00C1.610
;TYPE=NON_PLATED
T06F00S00C3.200
%
T01
X0007767Y0011933
X00082Y0020905
X0013444Y0034449
X00299Y00273
X0037315Y002571
X0038848Y002667
X0039144Y0015374
X0037443Y0015017
X0032733Y001503
X0039144Y001101
X003755Y0005108
X0037565Y0004114
X0034769Y0004562
X0040365Y0004414
X00426
X00471Y00046
X0053161Y0004392
X0052093Y0006266
X0051343Y000827
X0049404Y0012852
X0046402Y0013412
X0044713Y0012882
Y0014054
X0044475Y0018053
X0040833Y0017838
X0040367Y0013686
Y0012434
X0039986Y0008206
X0048493Y0016253
X0048529Y001806
Y001983
X0048704Y0021153
X0050265
X0050839Y0024888
X005175
X0052921
X0051026Y0026
X0049423Y0030158
X0048094
X004668Y0030011
X00441Y003366
X0049478Y0035776
X0055773Y0035766
X0053233Y0030158
X0056363Y0024003
X00592Y00124
X00677Y0014631
X00701Y00059
X00547Y0001984
X0040304Y002667
T02
X001161Y0009
X001415
X001669
X002431
X002685
X002939
T03
X001285Y00198
X001485
X001765
X002165
X002175Y0029109
X001975
X001775
X001495
X001295
T04
X0002951Y0018864
Y0020864
X0027383Y0038
X0029383
X0031383
X0033383
X0035383
X0037383
X00695Y0024443
Y0022443
X00715
Y0024443
Y0020443
Y0018443
Y0016443
X00695
Y0018443
Y0020443
T05
X00152Y0002825
X00258Y0012425
T06
X00025Y00025
Y00375
X00725
Y00025
M30
