M48
;Layer_Color=9474304
;FILE_FORMAT=4:3
METRIC,LZ
;TYPE=PLATED
T01F00S00C0.300
T02F00S00C0.760
T03F00S00C0.800
T04F00S00C0.900
T05F00S00C1.000
;TYPE=NON_PLATED
T06F00S00C3.200
%
T01
X0016975Y0004225
X0033175Y00052
X0030254Y0012243
X0032104Y0015367
X003168Y001965
X0030125Y0021475
X0029275Y0026464
Y0027364
X002934Y003321
X0031112Y0036812
X00228Y00377
X00218
X0022271Y0035734
X0022766Y0031675
X002294Y0029975
X0020075Y0031675
X0017775Y00234
X0013321Y002465
X001311Y00218
X0023525Y00177
X0026608Y0015367
X0034295Y0018453
X0038805
X003765Y0022036
X003675
X0036625Y0030895
X003755Y0030875
X001055Y00391
X0041234Y0028925
X0041237Y0026518
X0041225Y0025525
Y0023275
X003995Y0022075
X00229Y004015
X00208
X0019775
X00188
X00178
X00168
X00158
X00148
T02
X0003645Y001686
Y00194
Y002194
Y002702
Y002956
Y00321
Y003464
T03
X0011825Y0002
Y0006
Y00088
Y00108
X0013625Y00272
Y00292
Y0032
Y0034
Y0036
T04
X00138Y0014842
X00158
X00178
X00198
X00218
X00238
T05
X0032705Y0014075
Y0016615
X0035245
X0037785
Y0014075
X0035245
X0040325
Y0016615
X0042865
Y0014075
T06
X0005Y0005
X004
Y004
X0005
M30
