M48
;Layer_Color=9474304
;FILE_FORMAT=4:3
METRIC,LZ
;TYPE=PLATED
T01F00S00C0.300
T02F00S00C0.900
T03F00S00C0.930
T04F00S00C1.000
T05F00S00C1.600
T06F00S00C2.200
;TYPE=NON_PLATED
T07F00S00C3.200
%
T01
X0057077Y0030183
X005949
X00547Y0036878
X00728Y00243
X00787Y0027
X00807Y00271
X0080759Y0047165
X0080663Y0065163
X0078787Y0065113
X0071711Y0062311
X0067745Y0063711
X00581Y00604
X00503Y00651
X0072854Y0044246
X00788Y0047026
X0034852Y0043264
X0035051Y0061751
X00716Y00814
X0077672Y0082727
X00805Y0084
T02
X0015323Y0092237
X0017863
X0020403
X0022943
X0066123
X0083903
T03
X0022593Y0036789
X0024593
X0026593
X0044381Y0076672
Y0078672
X0039301
Y0076672
X0025375Y0076209
X0020295Y0078209
X0022593Y0041869
X0024593
X0028593
X0025375Y0080209
Y0082209
X0020295
Y0080209
X0039301Y0082672
X0044381Y0080672
T04
X0037011Y0039581
X0039511
X0042011
X0058093Y0066632
Y0069172
X0060633
Y0066632
Y0071712
X0058093
Y0074252
Y0076792
X0060633
Y0074252
T05
X00875Y001
Y001508
X0087713Y0028512
Y0033592
X008784Y0048118
Y0053198
X0088221Y0066725
Y0071805
X0023472Y0055976
Y0050896
T06
X0010883Y0092237
X0090883
T07
X0005Y0005
X0095
X0005Y0095
X0095
M30
