M48
;Layer_Color=9474304
;FILE_FORMAT=4:3
METRIC,LZ
;TYPE=PLATED
T01F00S00C0.250
T02F00S00C0.300
T03F00S00C0.700
T04F00S00C0.800
T05F00S00C0.900
T06F00S00C1.000
T07F00S00C3.200
;TYPE=NON_PLATED
T08F00S00C3.200
%
T01
X0035175Y00327
X00352Y0033925
X0032665Y003536
X0033776Y003675
X0033775Y0037525
X00463Y00274
X00471Y00281
X0052882Y0032575
X0063575Y0035125
X0066625Y0036675
X0066875Y00377
Y0039017
X006995Y003905
Y003335
X006765Y003245
X006995Y002765
X00772Y00315
Y0037225
X0077225Y00429
X00758Y0048475
X0077075Y0053225
X00664Y0053
X00637Y0051375
X0063715Y0050187
X006266Y0045425
X006685Y0043275
X0069825Y004935
X005105Y004735
X005105Y0046175
X00481Y0045275
X0045673Y0045731
X00449Y0046875
X0044307Y0046293
X00443Y0048975
X0042575Y0049025
X0044232Y0051636
X0047925Y0050725
X0040325Y0055724
X00409Y0056419
X0054304Y0042825
X0053675Y004165
X0038075Y00524
X00315Y00529
X003135Y00551
X0029825Y00542
X00328Y00592
T02
X00171Y00262
Y00281
X0018875Y0035
X00273Y00362
X00281
X0029444Y0036956
X00295Y00384
X00316Y0035
X0031525Y0033675
X00335Y00279
X0033438Y0026275
X00375Y00294
Y00314
X004125Y0029975
X0041Y0026
X0043
X0043435Y0026875
X0045Y00287
X0046475Y0028675
X004715Y0033025
X00456Y0032975
X0044915Y0033118
X0043125Y0033175
X004985Y003305
X0049975Y00368
X00487Y0039575
X00545Y00301
X0058275Y0030925
X00582Y0033675
X006175Y0036425
X0058875Y0026775
X005745Y00268
X00609Y0024
X0052Y0025575
X0050575Y002555
X00772Y0029675
Y00354
X0077225Y00411
X0077075Y0051175
X0057445Y0055625
X0055995Y005565
X00515Y00567
X00505Y0056625
X0049575Y0057
X0046625Y005905
X0045175Y005905
X0045975Y00611
X0042595Y0057199
X0042675Y00565
Y00557
X0041525Y0055724
X003975Y0056419
X0045742Y0047401
X0045775Y00408
X00561Y00408
X00581Y00413
X005785Y004535
X00342Y0044725
X0034007Y0041993
X00327Y00408
X00313
X0030794Y0046875
X0030098Y0046795
X0029399Y0046774
X0028699Y004678
X0028Y0046738
X00323Y00473
X0034275Y0048475
X0037575Y005355
Y0054925
X003915Y0055724
T03
X0011065Y0060909
X0013605
X0016145
X0021225
X0023765
X0026305
X0028845
T04
X0053465Y0019789
Y0021789
X0055465
Y0019789
X0057465
Y0021789
X0019775Y0039832
X0015775
X0012975
X0010975
T05
X0014375Y002755
Y002955
Y003155
X0060846Y0020405
X0062846
X0064846
X0069545Y0020677
X0071545
X0073545
X0075545
X0077545
Y0022677
X0075545
X0073545
X0071545
X0069545
X0011285Y0048495
Y0050495
T06
X00306Y0015825
X00329
X00352
X00375
X003865Y0018365
X003635
X003405
X003175
X00329Y0020905
X00352
X00375
X00306
X00398
X004095Y0018365
X00398Y0015825
T07
X00227Y0018365
X00477
T08
X0006Y0015164
X0076Y0015
X0076Y006
X0006Y0060164
M30
