G04*
G04 #@! TF.GenerationSoftware,Altium Limited,Altium Designer,23.11.1 (41)*
G04*
G04 Layer_Physical_Order=2*
G04 Layer_Color=16711680*
%FSLAX43Y43*%
%MOMM*%
G71*
G04*
G04 #@! TF.SameCoordinates,D39783C5-6E33-4812-9A3B-6E021FC33A11*
G04*
G04*
G04 #@! TF.FilePolarity,Positive*
G04*
G01*
G75*
%ADD12C,0.250*%
%ADD34R,1.050X1.500*%
%ADD35R,1.500X1.050*%
%ADD45C,0.350*%
%ADD46C,0.381*%
%ADD47C,0.800*%
%ADD48R,1.200X1.200*%
%ADD49C,1.200*%
%ADD50C,1.303*%
%ADD51C,1.500*%
%ADD52R,1.500X1.500*%
%ADD53C,4.000*%
%ADD54C,0.700*%
%ADD55R,2.250X1.600*%
G36*
X35075Y43025D02*
Y40625D01*
X44375Y31325D01*
X44375Y12575D01*
X43400Y11600D01*
X38150D01*
X35475Y8925D01*
Y1700D01*
X34450Y675D01*
X28750D01*
X26200Y3225D01*
Y12490D01*
X24750Y14317D01*
Y15792D01*
X23579D01*
X21925Y17875D01*
X16250D01*
X15025Y19025D01*
Y20050D01*
X15105D01*
Y21925D01*
Y23825D01*
X15100D01*
Y25700D01*
X15025D01*
Y25875D01*
Y29975D01*
X13875Y31125D01*
X13908Y31248D01*
X13934Y31255D01*
X14116Y31360D01*
X14265Y31509D01*
X14370Y31691D01*
X14425Y31895D01*
Y32105D01*
X14370Y32309D01*
X14265Y32491D01*
X14116Y32640D01*
X13934Y32745D01*
X13730Y32800D01*
X13520D01*
X13316Y32745D01*
X13134Y32640D01*
X13130Y32637D01*
X12375D01*
Y33075D01*
X9725D01*
Y32637D01*
X9525D01*
Y32775D01*
X7625D01*
Y31825D01*
X6950Y31150D01*
Y30625D01*
X4575D01*
Y30172D01*
X4237D01*
X4168Y30241D01*
X3974Y30353D01*
X3757Y30412D01*
X3533D01*
X3316Y30353D01*
X3122Y30241D01*
X3053Y30172D01*
X2725D01*
Y30300D01*
X825D01*
Y28850D01*
X2725D01*
Y28948D01*
X3053D01*
X3122Y28879D01*
X3316Y28767D01*
X3533Y28708D01*
X3757D01*
X3974Y28767D01*
X4168Y28879D01*
X4237Y28948D01*
X4575D01*
Y28625D01*
X6734D01*
X6783Y28508D01*
X4325Y26050D01*
X3806D01*
X3789Y26177D01*
X3974Y26227D01*
X4168Y26339D01*
X4326Y26497D01*
X4438Y26691D01*
X4497Y26908D01*
Y27132D01*
X4438Y27349D01*
X4326Y27543D01*
X4168Y27701D01*
X3974Y27813D01*
X3757Y27872D01*
X3533D01*
X3316Y27813D01*
X3122Y27701D01*
X2964Y27543D01*
X2852Y27349D01*
X2793Y27132D01*
Y26908D01*
X2852Y26691D01*
X2964Y26497D01*
X3122Y26339D01*
X3316Y26227D01*
X3501Y26177D01*
X3484Y26050D01*
X2000D01*
X500Y27550D01*
Y33125D01*
X2015Y34640D01*
X2793D01*
Y34528D01*
X2852Y34311D01*
X2964Y34117D01*
X3122Y33959D01*
X3316Y33847D01*
X3533Y33789D01*
X3757D01*
X3974Y33847D01*
X4168Y33959D01*
X4326Y34117D01*
X4438Y34311D01*
X4497Y34528D01*
Y34646D01*
X8575Y38725D01*
Y43775D01*
X9125Y44325D01*
X33775D01*
X35075Y43025D01*
D02*
G37*
G36*
X14350Y28614D02*
Y28000D01*
X13725D01*
Y27200D01*
X13525D01*
Y28000D01*
X12877D01*
X12825Y28000D01*
X12750Y28096D01*
Y28100D01*
X11900D01*
Y27375D01*
Y26650D01*
X12698D01*
X12750Y26650D01*
X12825Y26554D01*
Y26400D01*
X12895D01*
X12935Y26280D01*
X9575Y23750D01*
Y16725D01*
X10700Y15600D01*
X13049D01*
X13097Y15483D01*
X13040Y15425D01*
X12915Y15208D01*
X12850Y14967D01*
Y14942D01*
X13800D01*
Y14842D01*
X13900D01*
Y13892D01*
X13925D01*
X14167Y13956D01*
X14383Y14082D01*
X14560Y14258D01*
X14685Y14475D01*
X14734Y14658D01*
X14866D01*
X14915Y14475D01*
X15040Y14258D01*
X15217Y14082D01*
X15433Y13956D01*
X15675Y13892D01*
X15925D01*
X16167Y13956D01*
X16383Y14082D01*
X16560Y14258D01*
X16685Y14475D01*
X16703Y14541D01*
X16826Y14574D01*
X16911Y14489D01*
X16915Y14475D01*
X17040Y14258D01*
X17075Y14223D01*
Y11875D01*
X15175Y9975D01*
X15225Y9925D01*
Y7425D01*
X14650Y6850D01*
X10950D01*
Y6950D01*
X8750D01*
X6750Y8950D01*
Y10050D01*
X255Y16545D01*
Y20455D01*
X7762Y27962D01*
X8000Y28200D01*
X10600D01*
Y28588D01*
X10850D01*
Y28500D01*
X12750D01*
Y28588D01*
X13105D01*
X13134Y28560D01*
X13316Y28455D01*
X13520Y28400D01*
X13730D01*
X13934Y28455D01*
X14116Y28560D01*
X14260Y28704D01*
X14350Y28614D01*
D02*
G37*
%LPC*%
G36*
X22909Y38250D02*
X22691D01*
X22488Y38166D01*
X22383Y38061D01*
X22300Y38026D01*
X22217Y38061D01*
X22112Y38166D01*
X21909Y38250D01*
X21691D01*
X21488Y38166D01*
X21334Y38012D01*
X21250Y37809D01*
Y37591D01*
X21334Y37388D01*
X21488Y37234D01*
X21691Y37150D01*
X21881D01*
X29794Y29238D01*
Y27803D01*
X29667Y27750D01*
X29587Y27830D01*
X29384Y27914D01*
X29166D01*
X28963Y27830D01*
X28809Y27675D01*
X28770Y27582D01*
X28475D01*
Y27925D01*
X26575D01*
Y26475D01*
X28475D01*
Y26818D01*
X29016D01*
X29111Y26836D01*
X29166Y26814D01*
X29384D01*
X29587Y26898D01*
X29667Y26978D01*
X29794Y26925D01*
Y21921D01*
X29659Y21787D01*
X29575Y21584D01*
Y21366D01*
X29659Y21163D01*
X29813Y21009D01*
X30016Y20925D01*
X30234D01*
X30417Y21000D01*
X30544Y20950D01*
Y20455D01*
X30569Y20328D01*
X30641Y20221D01*
X31130Y19731D01*
Y19541D01*
X31214Y19338D01*
X31368Y19184D01*
X31571Y19100D01*
X31789D01*
X31992Y19184D01*
X32146Y19338D01*
X32230Y19541D01*
Y19759D01*
X32146Y19962D01*
X31992Y20116D01*
X31789Y20200D01*
X31599D01*
X31206Y20592D01*
Y29625D01*
X31181Y29752D01*
X31109Y29859D01*
X23350Y37619D01*
Y37809D01*
X23266Y38012D01*
X23112Y38166D01*
X22909Y38250D01*
D02*
G37*
G36*
X17350Y37050D02*
X14700D01*
Y36637D01*
X14120D01*
X14116Y36640D01*
X13934Y36745D01*
X13730Y36800D01*
X13520D01*
X13316Y36745D01*
X13134Y36640D01*
X12985Y36491D01*
X12880Y36309D01*
X12825Y36105D01*
Y35895D01*
X12880Y35691D01*
X12985Y35509D01*
X13134Y35360D01*
X13316Y35255D01*
X13520Y35200D01*
X13730D01*
X13934Y35255D01*
X14116Y35360D01*
X14170Y35413D01*
X14700D01*
Y35050D01*
X17350D01*
Y35448D01*
X17650D01*
Y35325D01*
X19550D01*
Y36775D01*
X17650D01*
Y36671D01*
X17350D01*
Y37050D01*
D02*
G37*
G36*
X12375Y36125D02*
X11150D01*
Y35225D01*
X12375D01*
Y36125D01*
D02*
G37*
G36*
X10950D02*
X9725D01*
Y35225D01*
X10950D01*
Y36125D01*
D02*
G37*
G36*
X19550Y34925D02*
X18700D01*
Y34300D01*
X19550D01*
Y34925D01*
D02*
G37*
G36*
X18500D02*
X17650D01*
Y34300D01*
X18500D01*
Y34925D01*
D02*
G37*
G36*
X12375Y35025D02*
X11150D01*
Y34125D01*
X12375D01*
Y35025D01*
D02*
G37*
G36*
X10950D02*
X9725D01*
Y34125D01*
X10950D01*
Y35025D01*
D02*
G37*
G36*
X13730Y34800D02*
X13725D01*
Y34100D01*
X14425D01*
Y34105D01*
X14370Y34309D01*
X14265Y34491D01*
X14116Y34640D01*
X13934Y34745D01*
X13730Y34800D01*
D02*
G37*
G36*
X13525D02*
X13520D01*
X13316Y34745D01*
X13134Y34640D01*
X12985Y34491D01*
X12880Y34309D01*
X12825Y34105D01*
Y34100D01*
X13525D01*
Y34800D01*
D02*
G37*
G36*
X9525Y34625D02*
X8675D01*
Y34000D01*
X9525D01*
Y34625D01*
D02*
G37*
G36*
X8475D02*
X7625D01*
Y34000D01*
X8475D01*
Y34625D01*
D02*
G37*
G36*
X19550Y34100D02*
X18700D01*
Y33475D01*
X19550D01*
Y34100D01*
D02*
G37*
G36*
X18500D02*
X17650D01*
Y33475D01*
X18500D01*
Y34100D01*
D02*
G37*
G36*
X14425Y33900D02*
X13725D01*
Y33200D01*
X13730D01*
X13934Y33255D01*
X14116Y33360D01*
X14265Y33509D01*
X14370Y33691D01*
X14425Y33895D01*
Y33900D01*
D02*
G37*
G36*
X13525D02*
X12825D01*
Y33895D01*
X12880Y33691D01*
X12985Y33509D01*
X13134Y33360D01*
X13316Y33255D01*
X13520Y33200D01*
X13525D01*
Y33900D01*
D02*
G37*
G36*
X9525Y33800D02*
X8675D01*
Y33175D01*
X9525D01*
Y33800D01*
D02*
G37*
G36*
X8475D02*
X7625D01*
Y33175D01*
X8475D01*
Y33800D01*
D02*
G37*
G36*
X17350Y34000D02*
X16125D01*
Y33100D01*
X17350D01*
Y34000D01*
D02*
G37*
G36*
X15925D02*
X14700D01*
Y33100D01*
X15925D01*
Y34000D01*
D02*
G37*
G36*
X7225Y33675D02*
X6000D01*
Y32775D01*
X7225D01*
Y33675D01*
D02*
G37*
G36*
X5800D02*
X4575D01*
Y32775D01*
X5800D01*
Y33675D01*
D02*
G37*
G36*
X36550Y33375D02*
X35925D01*
Y32525D01*
X36550D01*
Y33375D01*
D02*
G37*
G36*
X35725D02*
X35100D01*
Y32525D01*
X35725D01*
Y33375D01*
D02*
G37*
G36*
X22876Y32225D02*
X22657D01*
X22455Y32141D01*
X22371Y32057D01*
X20470D01*
X20387Y32141D01*
X20184Y32225D01*
X19966D01*
X19763Y32141D01*
X19609Y31987D01*
X19525Y31784D01*
Y31566D01*
X19609Y31363D01*
X19763Y31209D01*
X19966Y31125D01*
X20184D01*
X20387Y31209D01*
X20470Y31293D01*
X22371D01*
X22455Y31209D01*
X22657Y31125D01*
X22876D01*
X23078Y31209D01*
X23233Y31363D01*
X23316Y31566D01*
Y31784D01*
X23233Y31987D01*
X23078Y32141D01*
X22876Y32225D01*
D02*
G37*
G36*
X17350Y32900D02*
X16125D01*
Y32000D01*
X17350D01*
Y32900D01*
D02*
G37*
G36*
X15925D02*
X14700D01*
Y32000D01*
X15925D01*
Y32900D01*
D02*
G37*
G36*
X7225Y32575D02*
X6000D01*
Y31675D01*
X7225D01*
Y32575D01*
D02*
G37*
G36*
X3757Y32951D02*
X3745D01*
Y32100D01*
Y31249D01*
X3757D01*
X3974Y31307D01*
X4168Y31419D01*
X4326Y31577D01*
X4438Y31771D01*
X4448Y31807D01*
X4575Y31790D01*
Y31675D01*
X5800D01*
Y32575D01*
X4575D01*
Y32410D01*
X4448Y32393D01*
X4438Y32429D01*
X4326Y32623D01*
X4168Y32781D01*
X3974Y32893D01*
X3757Y32951D01*
D02*
G37*
G36*
X1675Y32150D02*
X825D01*
Y31525D01*
X1675D01*
Y32150D01*
D02*
G37*
G36*
X36550Y32325D02*
X35925D01*
Y31475D01*
X36550D01*
Y32325D01*
D02*
G37*
G36*
X35725D02*
X35100D01*
Y31475D01*
X35725D01*
Y32325D01*
D02*
G37*
G36*
X3545Y32951D02*
X3533D01*
X3316Y32893D01*
X3122Y32781D01*
X2964Y32623D01*
X2852Y32429D01*
X2802Y32245D01*
X2760Y32193D01*
X2683Y32150D01*
X2667D01*
X1875D01*
Y31525D01*
X2725D01*
Y31753D01*
X2852Y31771D01*
X2964Y31577D01*
X3122Y31419D01*
X3316Y31307D01*
X3533Y31249D01*
X3545D01*
Y32100D01*
Y32951D01*
D02*
G37*
G36*
X2725Y31325D02*
X1875D01*
Y30700D01*
X2725D01*
Y31325D01*
D02*
G37*
G36*
X1675D02*
X825D01*
Y30700D01*
X1675D01*
Y31325D01*
D02*
G37*
G36*
X38400Y33375D02*
X36950D01*
Y31475D01*
X37168D01*
Y31270D01*
X37084Y31187D01*
X37000Y30984D01*
Y30766D01*
X37084Y30563D01*
X37238Y30409D01*
X37441Y30325D01*
X37659D01*
X37862Y30409D01*
X38016Y30563D01*
X38100Y30766D01*
Y30984D01*
X38016Y31187D01*
X37932Y31270D01*
Y31475D01*
X38400D01*
Y33375D01*
D02*
G37*
G36*
X43800Y29825D02*
X41900D01*
Y29307D01*
X41630D01*
X41546Y29391D01*
X41344Y29475D01*
X41125D01*
X40923Y29391D01*
X40768Y29237D01*
X40684Y29034D01*
Y28816D01*
X40768Y28613D01*
X40923Y28459D01*
X41125Y28375D01*
X41344D01*
X41546Y28459D01*
X41630Y28543D01*
X41900D01*
Y28375D01*
X43800D01*
Y29825D01*
D02*
G37*
G36*
Y27975D02*
X42950D01*
Y27350D01*
X43800D01*
Y27975D01*
D02*
G37*
G36*
X42750D02*
X41900D01*
Y27350D01*
X42750D01*
Y27975D01*
D02*
G37*
G36*
X43800Y27150D02*
X42850D01*
X41900D01*
Y26602D01*
X41900Y26525D01*
X41900Y26398D01*
Y25850D01*
X42850D01*
X43800D01*
Y26398D01*
X43800Y26475D01*
X43800Y26602D01*
Y27150D01*
D02*
G37*
G36*
X28475Y26075D02*
X27625D01*
Y25450D01*
X28475D01*
Y26075D01*
D02*
G37*
G36*
X27425D02*
X26575D01*
Y25450D01*
X27425D01*
Y26075D01*
D02*
G37*
G36*
X43800Y25650D02*
X42950D01*
Y25025D01*
X43800D01*
Y25650D01*
D02*
G37*
G36*
X16950Y25700D02*
X16325D01*
Y24850D01*
X16950D01*
Y25700D01*
D02*
G37*
G36*
X16125D02*
X15500D01*
Y24850D01*
X16125D01*
Y25700D01*
D02*
G37*
G36*
X28475Y25250D02*
X27625D01*
Y24625D01*
X28475D01*
Y25250D01*
D02*
G37*
G36*
X27425D02*
X26575D01*
Y24625D01*
X27425D01*
Y25250D01*
D02*
G37*
G36*
X38750Y24500D02*
X38125D01*
Y23650D01*
X38750D01*
Y24500D01*
D02*
G37*
G36*
X37925D02*
X37300D01*
Y23650D01*
X37925D01*
Y24500D01*
D02*
G37*
G36*
X41334Y26075D02*
X41116D01*
X40913Y25991D01*
X40759Y25837D01*
X40675Y25634D01*
Y25416D01*
X40759Y25213D01*
X40913Y25059D01*
X40974Y25034D01*
X41022Y24963D01*
X41900Y24084D01*
Y23389D01*
X41775Y23384D01*
X41691Y23587D01*
X41537Y23741D01*
X41334Y23825D01*
X41116D01*
X40913Y23741D01*
X40759Y23587D01*
X40675Y23384D01*
Y23166D01*
X40759Y22963D01*
X40843Y22880D01*
Y22483D01*
X40610Y22250D01*
X40460Y22280D01*
X40416Y22387D01*
X40262Y22541D01*
X40059Y22625D01*
X39841D01*
X39638Y22541D01*
X39516Y22418D01*
X39075D01*
X38929Y22389D01*
X38805Y22306D01*
X33850Y17351D01*
X33767Y17227D01*
X33738Y17081D01*
Y16922D01*
X33611Y16906D01*
X33590Y16982D01*
X33465Y17198D01*
X33288Y17375D01*
X33072Y17500D01*
X32830Y17565D01*
X32805D01*
Y16615D01*
X32705D01*
Y16515D01*
X31755D01*
Y16490D01*
X31820Y16248D01*
X31945Y16032D01*
X31914Y15883D01*
X31792Y15833D01*
X31708Y15749D01*
X27003D01*
X26919Y15833D01*
X26717Y15917D01*
X26498D01*
X26296Y15833D01*
X26141Y15678D01*
X26058Y15476D01*
Y15257D01*
X26141Y15055D01*
X26296Y14900D01*
X26498Y14817D01*
X26717D01*
X26919Y14900D01*
X27003Y14984D01*
X31708D01*
X31792Y14900D01*
X31944Y14837D01*
X31986Y14699D01*
X31945Y14658D01*
X31820Y14442D01*
X31755Y14200D01*
Y13950D01*
X31820Y13708D01*
X31945Y13492D01*
X32122Y13315D01*
X32338Y13190D01*
X32580Y13125D01*
X32830D01*
X33072Y13190D01*
X33288Y13315D01*
X33465Y13492D01*
X33590Y13708D01*
X33655Y13950D01*
Y14200D01*
X33595Y14424D01*
X34390Y15220D01*
X34473Y15344D01*
X34502Y15490D01*
Y15848D01*
X34620Y15897D01*
X34662Y15855D01*
X34878Y15730D01*
X35120Y15665D01*
X35370D01*
X35612Y15730D01*
X35828Y15855D01*
X36005Y16032D01*
X36130Y16248D01*
X36195Y16490D01*
Y16740D01*
X36192Y16751D01*
X41495Y22054D01*
X41578Y22178D01*
X41607Y22325D01*
Y22880D01*
X41691Y22963D01*
X41775Y23166D01*
Y23170D01*
X41900Y23175D01*
X41902Y23175D01*
X43800D01*
Y24625D01*
X42441D01*
X42158Y24908D01*
X42207Y25025D01*
X42750D01*
Y25650D01*
X41900D01*
Y25639D01*
X41775Y25634D01*
X41691Y25837D01*
X41537Y25991D01*
X41334Y26075D01*
D02*
G37*
G36*
X16950Y24650D02*
X16225D01*
X15500D01*
Y23800D01*
X15505D01*
Y22975D01*
X16230D01*
X16955D01*
Y23825D01*
X16950D01*
Y24650D01*
D02*
G37*
G36*
X38750Y23450D02*
X38125D01*
Y22600D01*
X38750D01*
Y23450D01*
D02*
G37*
G36*
X37925D02*
X37300D01*
Y22600D01*
X37925D01*
Y23450D01*
D02*
G37*
G36*
X36900Y24500D02*
X35450D01*
Y22600D01*
X36143D01*
Y22356D01*
X36172Y22209D01*
X36206Y22159D01*
X36200Y22145D01*
Y21927D01*
X36284Y21724D01*
X36438Y21570D01*
X36641Y21486D01*
X36859D01*
X37062Y21570D01*
X37216Y21724D01*
X37300Y21927D01*
Y22145D01*
X37216Y22348D01*
X37062Y22502D01*
X36907Y22566D01*
Y23200D01*
X36900Y23237D01*
Y24500D01*
D02*
G37*
G36*
X16955Y22775D02*
X16230D01*
X15505D01*
Y21925D01*
Y21100D01*
X16230D01*
X16955D01*
Y21925D01*
Y22775D01*
D02*
G37*
G36*
Y20900D02*
X16330D01*
Y20050D01*
X16955D01*
Y20900D01*
D02*
G37*
G36*
X16130D02*
X15505D01*
Y20050D01*
X16130D01*
Y20900D01*
D02*
G37*
G36*
X32605Y17565D02*
X32580D01*
X32338Y17500D01*
X32122Y17375D01*
X31945Y17198D01*
X31820Y16982D01*
X31755Y16740D01*
Y16715D01*
X32605D01*
Y17565D01*
D02*
G37*
G36*
X42990D02*
X42740D01*
X42498Y17500D01*
X42282Y17375D01*
X42105Y17198D01*
X41980Y16982D01*
X41915Y16740D01*
Y16490D01*
X41980Y16248D01*
X42105Y16032D01*
X42282Y15855D01*
X42498Y15730D01*
X42740Y15665D01*
X42990D01*
X43232Y15730D01*
X43448Y15855D01*
X43625Y16032D01*
X43750Y16248D01*
X43815Y16490D01*
Y16740D01*
X43750Y16982D01*
X43625Y17198D01*
X43448Y17375D01*
X43232Y17500D01*
X42990Y17565D01*
D02*
G37*
G36*
X40450D02*
X40200D01*
X39958Y17500D01*
X39742Y17375D01*
X39565Y17198D01*
X39440Y16982D01*
X39375Y16740D01*
Y16490D01*
X39440Y16248D01*
X39565Y16032D01*
X39742Y15855D01*
X39958Y15730D01*
X40200Y15665D01*
X40450D01*
X40692Y15730D01*
X40908Y15855D01*
X41085Y16032D01*
X41210Y16248D01*
X41275Y16490D01*
Y16740D01*
X41210Y16982D01*
X41085Y17198D01*
X40908Y17375D01*
X40692Y17500D01*
X40450Y17565D01*
D02*
G37*
G36*
X37910D02*
X37660D01*
X37418Y17500D01*
X37202Y17375D01*
X37025Y17198D01*
X36900Y16982D01*
X36835Y16740D01*
Y16490D01*
X36900Y16248D01*
X37025Y16032D01*
X37202Y15855D01*
X37418Y15730D01*
X37660Y15665D01*
X37910D01*
X38152Y15730D01*
X38368Y15855D01*
X38545Y16032D01*
X38670Y16248D01*
X38735Y16490D01*
Y16740D01*
X38670Y16982D01*
X38545Y17198D01*
X38368Y17375D01*
X38152Y17500D01*
X37910Y17565D01*
D02*
G37*
G36*
X35370Y15025D02*
X35345D01*
Y14175D01*
X36195D01*
Y14200D01*
X36130Y14442D01*
X36005Y14658D01*
X35828Y14835D01*
X35612Y14960D01*
X35370Y15025D01*
D02*
G37*
G36*
X35145D02*
X35120D01*
X34878Y14960D01*
X34662Y14835D01*
X34485Y14658D01*
X34360Y14442D01*
X34295Y14200D01*
Y14175D01*
X35145D01*
Y15025D01*
D02*
G37*
G36*
X42990D02*
X42740D01*
X42498Y14960D01*
X42282Y14835D01*
X42105Y14658D01*
X41980Y14442D01*
X41915Y14200D01*
Y13950D01*
X41980Y13708D01*
X42105Y13492D01*
X42282Y13315D01*
X42498Y13190D01*
X42740Y13125D01*
X42990D01*
X43232Y13190D01*
X43448Y13315D01*
X43625Y13492D01*
X43750Y13708D01*
X43815Y13950D01*
Y14200D01*
X43750Y14442D01*
X43625Y14658D01*
X43448Y14835D01*
X43232Y14960D01*
X42990Y15025D01*
D02*
G37*
G36*
X40450D02*
X40200D01*
X39958Y14960D01*
X39742Y14835D01*
X39565Y14658D01*
X39440Y14442D01*
X39375Y14200D01*
Y13950D01*
X39440Y13708D01*
X39565Y13492D01*
X39742Y13315D01*
X39958Y13190D01*
X40200Y13125D01*
X40450D01*
X40692Y13190D01*
X40908Y13315D01*
X41085Y13492D01*
X41210Y13708D01*
X41275Y13950D01*
Y14200D01*
X41210Y14442D01*
X41085Y14658D01*
X40908Y14835D01*
X40692Y14960D01*
X40450Y15025D01*
D02*
G37*
G36*
X37910D02*
X37660D01*
X37418Y14960D01*
X37202Y14835D01*
X37025Y14658D01*
X36900Y14442D01*
X36835Y14200D01*
Y13950D01*
X36900Y13708D01*
X37025Y13492D01*
X37202Y13315D01*
X37418Y13190D01*
X37660Y13125D01*
X37910D01*
X38152Y13190D01*
X38368Y13315D01*
X38545Y13492D01*
X38670Y13708D01*
X38735Y13950D01*
Y14200D01*
X38670Y14442D01*
X38545Y14658D01*
X38368Y14835D01*
X38152Y14960D01*
X37910Y15025D01*
D02*
G37*
G36*
X36195Y13975D02*
X35345D01*
Y13125D01*
X35370D01*
X35612Y13190D01*
X35828Y13315D01*
X36005Y13492D01*
X36130Y13708D01*
X36195Y13950D01*
Y13975D01*
D02*
G37*
G36*
X35145D02*
X34295D01*
Y13950D01*
X34360Y13708D01*
X34485Y13492D01*
X34662Y13315D01*
X34878Y13190D01*
X35120Y13125D01*
X35145D01*
Y13975D01*
D02*
G37*
G36*
X11700Y28100D02*
X10850D01*
Y27475D01*
X11700D01*
Y28100D01*
D02*
G37*
G36*
Y27275D02*
X10850D01*
Y26650D01*
X11700D01*
Y27275D01*
D02*
G37*
G36*
X10600Y27150D02*
X9375D01*
Y26250D01*
X10600D01*
Y27150D01*
D02*
G37*
G36*
X9175D02*
X7950D01*
Y26250D01*
X9175D01*
Y27150D01*
D02*
G37*
G36*
X10600Y26050D02*
X9375D01*
Y25150D01*
X10600D01*
Y26050D01*
D02*
G37*
G36*
X9175D02*
X7950D01*
Y25150D01*
X9175D01*
Y26050D01*
D02*
G37*
G36*
X3757Y22792D02*
X3533D01*
X3316Y22733D01*
X3122Y22621D01*
X2964Y22463D01*
X2852Y22269D01*
X2793Y22052D01*
Y21828D01*
X2852Y21611D01*
X2964Y21417D01*
X3122Y21259D01*
X3316Y21147D01*
X3533Y21088D01*
X3757D01*
X3974Y21147D01*
X4168Y21259D01*
X4326Y21417D01*
X4438Y21611D01*
X4497Y21828D01*
Y22052D01*
X4438Y22269D01*
X4326Y22463D01*
X4168Y22621D01*
X3974Y22733D01*
X3757Y22792D01*
D02*
G37*
G36*
X7390Y20400D02*
X4740D01*
Y20012D01*
X4237D01*
X4168Y20081D01*
X3974Y20193D01*
X3757Y20251D01*
X3533D01*
X3316Y20193D01*
X3122Y20081D01*
X3053Y20012D01*
X2725D01*
Y20125D01*
X825D01*
Y18675D01*
X2725D01*
Y18788D01*
X3053D01*
X3122Y18719D01*
X3316Y18607D01*
X3533Y18549D01*
X3757D01*
X3974Y18607D01*
X4168Y18719D01*
X4237Y18788D01*
X4740D01*
Y18400D01*
X7390D01*
Y20400D01*
D02*
G37*
G36*
X2725Y18275D02*
X1875D01*
Y17650D01*
X2725D01*
Y18275D01*
D02*
G37*
G36*
X1675D02*
X825D01*
Y17650D01*
X1675D01*
Y18275D01*
D02*
G37*
G36*
X3545Y17712D02*
X3533D01*
X3316Y17653D01*
X3122Y17541D01*
X2964Y17383D01*
X2852Y17189D01*
X2725Y17207D01*
Y17450D01*
X1875D01*
Y16825D01*
X2701Y16825D01*
X2767Y16770D01*
X2799Y16729D01*
X2852Y16531D01*
X2964Y16337D01*
X3122Y16179D01*
X3316Y16067D01*
X3533Y16008D01*
X3545D01*
Y16860D01*
Y17712D01*
D02*
G37*
G36*
X3757D02*
X3745D01*
Y16960D01*
X4497D01*
Y16972D01*
X4438Y17189D01*
X4326Y17383D01*
X4168Y17541D01*
X3974Y17653D01*
X3757Y17712D01*
D02*
G37*
G36*
X1675Y17450D02*
X825D01*
Y16825D01*
X1675D01*
Y17450D01*
D02*
G37*
G36*
X7390Y17350D02*
X6165D01*
Y16450D01*
X7390D01*
Y17350D01*
D02*
G37*
G36*
X5964D02*
X4740D01*
Y16450D01*
X5964D01*
Y17350D01*
D02*
G37*
G36*
X4497Y16760D02*
X3745D01*
Y16008D01*
X3757D01*
X3974Y16067D01*
X4168Y16179D01*
X4326Y16337D01*
X4438Y16531D01*
X4497Y16748D01*
Y16760D01*
D02*
G37*
G36*
X7390Y16250D02*
X6165D01*
Y15350D01*
X7390D01*
Y16250D01*
D02*
G37*
G36*
X5964D02*
X4740D01*
Y15350D01*
X5964D01*
Y16250D01*
D02*
G37*
G36*
X13700Y14742D02*
X12850D01*
Y14717D01*
X12915Y14475D01*
X13040Y14258D01*
X13217Y14082D01*
X13433Y13956D01*
X13675Y13892D01*
X13700D01*
Y14742D01*
D02*
G37*
G36*
X10785Y12825D02*
X9561D01*
Y11925D01*
X10785D01*
Y12825D01*
D02*
G37*
G36*
X9361D02*
X8135D01*
Y11925D01*
X9361D01*
Y12825D01*
D02*
G37*
G36*
X12625Y11600D02*
X11925D01*
Y10900D01*
X12625D01*
Y11600D01*
D02*
G37*
G36*
X11725D02*
X11025D01*
Y10900D01*
X11725D01*
Y11600D01*
D02*
G37*
G36*
X10785Y11725D02*
X9561D01*
Y10825D01*
X10785D01*
Y11725D01*
D02*
G37*
G36*
X9361D02*
X8135D01*
Y10825D01*
X9361D01*
Y11725D01*
D02*
G37*
G36*
X14700Y11425D02*
X13850D01*
Y10800D01*
X14700D01*
Y11425D01*
D02*
G37*
G36*
X13650D02*
X12800D01*
Y10800D01*
X13650D01*
Y11425D01*
D02*
G37*
G36*
X12625Y10700D02*
X11925D01*
Y10000D01*
X12625D01*
Y10700D01*
D02*
G37*
G36*
X11725D02*
X11025D01*
Y10000D01*
X11725D01*
Y10700D01*
D02*
G37*
G36*
X14700Y10600D02*
X13850D01*
Y9975D01*
X14700D01*
Y10600D01*
D02*
G37*
G36*
X13650D02*
X12800D01*
Y9975D01*
X13650D01*
Y10600D01*
D02*
G37*
G36*
X10785Y9775D02*
X8135D01*
Y7775D01*
X10785D01*
Y8201D01*
X11293D01*
X11334Y8160D01*
X11516Y8055D01*
X11720Y8000D01*
X11930D01*
X12134Y8055D01*
X12316Y8160D01*
X12357Y8201D01*
X12800D01*
Y8125D01*
X14700D01*
Y9575D01*
X12800D01*
Y9424D01*
X12332D01*
X12316Y9440D01*
X12134Y9545D01*
X11930Y9600D01*
X11720D01*
X11516Y9545D01*
X11334Y9440D01*
X11318Y9424D01*
X10785D01*
Y9775D01*
D02*
G37*
%LPD*%
D12*
X22800Y37700D02*
X30875Y29625D01*
Y20455D02*
X31680Y19650D01*
X30875Y20455D02*
Y29625D01*
X30125Y21475D02*
Y29375D01*
X21800Y37700D02*
X30125Y29375D01*
D34*
X14380Y22875D02*
D03*
X16230D02*
D03*
X14380Y21000D02*
D03*
X16230D02*
D03*
X14375Y24750D02*
D03*
X16225D02*
D03*
X36175Y23550D02*
D03*
X38025D02*
D03*
X37675Y32425D02*
D03*
X35825D02*
D03*
D35*
X18600Y34200D02*
D03*
Y36050D02*
D03*
X11800Y29225D02*
D03*
Y27375D02*
D03*
X1775Y29575D02*
D03*
Y31425D02*
D03*
X27525Y25350D02*
D03*
Y27200D02*
D03*
X42850Y23900D02*
D03*
Y25750D02*
D03*
Y27250D02*
D03*
Y29100D02*
D03*
X13750Y4100D02*
D03*
Y5950D02*
D03*
X8575Y33900D02*
D03*
Y32050D02*
D03*
X13750Y10700D02*
D03*
Y8850D02*
D03*
X1775Y17550D02*
D03*
Y19400D02*
D03*
D45*
X26608Y15367D02*
X32104D01*
X37550Y30875D02*
Y32300D01*
X37675Y32425D01*
X20075Y31675D02*
X22766D01*
X33378Y18459D02*
X34289D01*
X34295Y18453D01*
X34120Y17081D02*
X39075Y22036D01*
X34120Y15490D02*
Y17081D01*
X14380Y21225D02*
Y22875D01*
Y21000D02*
Y21225D01*
X14030Y21575D02*
X14380Y21225D01*
X13805Y21575D02*
X14030D01*
X32705Y14075D02*
X34120Y15490D01*
X13647Y21733D02*
X13805Y21575D01*
X13177Y21733D02*
X13647D01*
X13110Y21800D02*
X13177Y21733D01*
X13875Y4225D02*
X16975D01*
X13750Y4100D02*
X13875Y4225D01*
X13175Y3750D02*
X13525Y4100D01*
X13750D01*
X11825Y2000D02*
X13175Y3350D01*
Y3750D01*
X11595Y2000D02*
X11825D01*
X9625Y2900D02*
X10250Y2275D01*
X11320D01*
X11595Y2000D01*
X9625Y5950D02*
X13750D01*
X41292Y25233D02*
X42625Y23900D01*
X41225Y25525D02*
X41292Y25458D01*
Y25233D02*
Y25458D01*
X36525Y22356D02*
X36750Y22131D01*
X36525Y22356D02*
Y23200D01*
X36750Y22036D02*
Y22131D01*
X36175Y23550D02*
X36525Y23200D01*
X42625Y23900D02*
X42850D01*
X41234Y28925D02*
X42675D01*
X42850Y29100D01*
X27525Y27200D02*
X29016D01*
X29180Y27364D01*
X29275D01*
X9625Y5950D02*
X9625Y5950D01*
X35245Y16615D02*
X35515D01*
X41225Y22325D01*
Y23275D01*
X39911Y22036D02*
X39950Y22075D01*
X39075Y22036D02*
X39911D01*
D46*
X13321Y24650D02*
X13421Y24750D01*
X14375D01*
D47*
X16034Y36059D02*
X18591D01*
X13650Y36025D02*
X16025D01*
Y36050D02*
X16034Y36059D01*
X18591D02*
X18600Y36050D01*
X13625Y36000D02*
X13650Y36025D01*
X9788Y8812D02*
X13712D01*
X9275Y29200D02*
X13625D01*
X9460Y8775D02*
X9750D01*
X9250D02*
X9460D01*
X9750D02*
X9788Y8812D01*
X8600Y32025D02*
X13600D01*
X13625Y32000D01*
X8575Y32050D02*
X8600Y32025D01*
X13625Y29200D02*
X13625Y29200D01*
X13712Y8812D02*
X13750Y8850D01*
X3645Y29560D02*
X6475D01*
X1500D02*
X3645D01*
Y19400D02*
X6300D01*
X1550D02*
X3645D01*
D48*
X13625Y27200D02*
D03*
X11825Y10800D02*
D03*
D49*
X13625Y29200D02*
D03*
Y32000D02*
D03*
Y36000D02*
D03*
Y34000D02*
D03*
X11825Y2000D02*
D03*
Y6000D02*
D03*
Y8800D02*
D03*
D50*
X3645Y16860D02*
D03*
Y19400D02*
D03*
Y21940D02*
D03*
Y27020D02*
D03*
Y29560D02*
D03*
Y32100D02*
D03*
Y34640D02*
D03*
D51*
X32705Y16615D02*
D03*
X35245D02*
D03*
X37785D02*
D03*
Y14075D02*
D03*
X35245D02*
D03*
X32705D02*
D03*
X40325Y16615D02*
D03*
X42865D02*
D03*
Y14075D02*
D03*
X40325D02*
D03*
X15800Y14842D02*
D03*
X13800D02*
D03*
X21800D02*
D03*
X19800D02*
D03*
X17800D02*
D03*
D52*
X23800D02*
D03*
D53*
X5000Y40000D02*
D03*
X40000D02*
D03*
Y5000D02*
D03*
X5000D02*
D03*
D54*
X32104Y15367D02*
D03*
X37550Y30875D02*
D03*
X20075Y31675D02*
D03*
X22271Y35734D02*
D03*
X22940Y29975D02*
D03*
X34295Y18453D02*
D03*
X38805D02*
D03*
X22766Y31675D02*
D03*
X26608Y15367D02*
D03*
X41225Y25525D02*
D03*
X36625Y30895D02*
D03*
X37650Y22036D02*
D03*
X36750D02*
D03*
X41234Y28925D02*
D03*
X41237Y26518D02*
D03*
X29340Y33210D02*
D03*
X30125Y21475D02*
D03*
X29275Y27364D02*
D03*
Y26464D02*
D03*
X13110Y21800D02*
D03*
X13321Y24650D02*
D03*
X23525Y17700D02*
D03*
X22800Y37700D02*
D03*
X21800D02*
D03*
X31680Y19650D02*
D03*
X17775Y23400D02*
D03*
X30254Y12243D02*
D03*
X39950Y22075D02*
D03*
X41225Y23275D02*
D03*
X31112Y36812D02*
D03*
X33175Y5200D02*
D03*
X10550Y39100D02*
D03*
X14800Y40150D02*
D03*
X16800D02*
D03*
X15800D02*
D03*
X22900D02*
D03*
X20800D02*
D03*
X18800D02*
D03*
X17800D02*
D03*
X19775D02*
D03*
X16975Y4225D02*
D03*
D55*
X16025Y36050D02*
D03*
Y33000D02*
D03*
X9275Y26150D02*
D03*
Y29200D02*
D03*
X9625Y2900D02*
D03*
Y5950D02*
D03*
X9460Y11825D02*
D03*
Y8775D02*
D03*
X5900Y32675D02*
D03*
Y29625D02*
D03*
X11050Y32075D02*
D03*
Y35125D02*
D03*
X6064Y19400D02*
D03*
Y16350D02*
D03*
M02*
