G04*
G04 #@! TF.GenerationSoftware,Altium Limited,Altium Designer,23.11.1 (41)*
G04*
G04 Layer_Color=32896*
%FSLAX43Y43*%
%MOMM*%
G71*
G04*
G04 #@! TF.SameCoordinates,D39783C5-6E33-4812-9A3B-6E021FC33A11*
G04*
G04*
G04 #@! TF.FilePolarity,Positive*
G04*
G01*
G75*
%ADD10C,0.150*%
%ADD14C,0.200*%
%ADD15C,0.254*%
G36*
X18438Y23321D02*
X18445Y23319D01*
X18457Y23313D01*
X18462Y23309D01*
X18466Y23306D01*
X18468Y23304D01*
X18469Y23303D01*
X18654Y23119D01*
X18659Y23114D01*
X18662Y23108D01*
X18666Y23097D01*
X18667Y23093D01*
X18668Y23089D01*
Y23087D01*
Y23086D01*
X18667Y23078D01*
X18666Y23070D01*
X18661Y23058D01*
X18653Y23050D01*
X18644Y23044D01*
X18636Y23041D01*
X18628Y23039D01*
X18623Y23038D01*
X18621D01*
X18614Y23039D01*
X18607Y23040D01*
X18597Y23045D01*
X18593Y23048D01*
X18590Y23050D01*
X18589Y23051D01*
X18588Y23052D01*
X18478Y23160D01*
Y22424D01*
X18477Y22416D01*
X18476Y22409D01*
X18471Y22397D01*
X18463Y22389D01*
X18454Y22383D01*
X18446Y22380D01*
X18438Y22378D01*
X18433Y22377D01*
X18431D01*
X18423Y22378D01*
X18415Y22379D01*
X18403Y22384D01*
X18395Y22392D01*
X18389Y22401D01*
X18385Y22409D01*
X18384Y22417D01*
X18383Y22422D01*
Y22424D01*
Y23274D01*
X18384Y23282D01*
X18385Y23290D01*
X18390Y23302D01*
X18398Y23310D01*
X18407Y23316D01*
X18416Y23320D01*
X18423Y23321D01*
X18429Y23322D01*
X18431D01*
X18438Y23321D01*
D02*
G37*
G36*
X19110Y23322D02*
X19128Y23320D01*
X19144Y23317D01*
X19160Y23312D01*
X19175Y23307D01*
X19189Y23301D01*
X19201Y23295D01*
X19213Y23288D01*
X19224Y23282D01*
X19233Y23275D01*
X19241Y23269D01*
X19248Y23264D01*
X19253Y23259D01*
X19257Y23256D01*
X19259Y23254D01*
X19260Y23253D01*
X19272Y23240D01*
X19283Y23226D01*
X19292Y23212D01*
X19300Y23198D01*
X19307Y23184D01*
X19312Y23170D01*
X19317Y23156D01*
X19320Y23144D01*
X19323Y23132D01*
X19325Y23122D01*
X19327Y23112D01*
X19328Y23103D01*
X19329Y23097D01*
Y23091D01*
Y23088D01*
Y23087D01*
Y22613D01*
X19328Y22595D01*
X19326Y22577D01*
X19323Y22562D01*
X19318Y22546D01*
X19313Y22531D01*
X19307Y22517D01*
X19301Y22505D01*
X19294Y22493D01*
X19288Y22482D01*
X19282Y22473D01*
X19276Y22465D01*
X19271Y22458D01*
X19266Y22453D01*
X19263Y22449D01*
X19261Y22447D01*
X19260Y22446D01*
X19247Y22434D01*
X19233Y22423D01*
X19219Y22414D01*
X19205Y22406D01*
X19190Y22399D01*
X19176Y22394D01*
X19163Y22389D01*
X19150Y22386D01*
X19138Y22383D01*
X19127Y22381D01*
X19117Y22379D01*
X19109Y22378D01*
X19102Y22377D01*
X18903D01*
X18895Y22378D01*
X18887Y22379D01*
X18876Y22384D01*
X18867Y22392D01*
X18862Y22401D01*
X18858Y22409D01*
X18857Y22417D01*
X18856Y22422D01*
Y22424D01*
Y22432D01*
X18858Y22440D01*
X18863Y22452D01*
X18871Y22460D01*
X18879Y22466D01*
X18888Y22470D01*
X18896Y22471D01*
X18901Y22472D01*
X19092D01*
X19113Y22474D01*
X19133Y22478D01*
X19150Y22485D01*
X19165Y22493D01*
X19177Y22500D01*
X19185Y22507D01*
X19191Y22511D01*
X19193Y22513D01*
X19207Y22529D01*
X19217Y22547D01*
X19224Y22563D01*
X19229Y22578D01*
X19232Y22592D01*
X19233Y22603D01*
X19234Y22607D01*
Y22610D01*
Y22612D01*
Y22613D01*
Y23086D01*
X19232Y23107D01*
X19228Y23127D01*
X19221Y23143D01*
X19213Y23158D01*
X19206Y23170D01*
X19199Y23179D01*
X19195Y23184D01*
X19193Y23186D01*
X19177Y23200D01*
X19160Y23210D01*
X19143Y23218D01*
X19127Y23223D01*
X19113Y23226D01*
X19102Y23227D01*
X19098Y23228D01*
X18903D01*
X18895Y23229D01*
X18887Y23230D01*
X18876Y23235D01*
X18867Y23243D01*
X18862Y23252D01*
X18858Y23260D01*
X18857Y23268D01*
X18856Y23273D01*
Y23275D01*
Y23283D01*
X18858Y23291D01*
X18863Y23303D01*
X18871Y23311D01*
X18879Y23317D01*
X18888Y23321D01*
X18896Y23322D01*
X18901Y23323D01*
X19092D01*
X19110Y23322D01*
D02*
G37*
G36*
X17982Y23321D02*
X18005Y23315D01*
X18026Y23306D01*
X18045Y23295D01*
X18063Y23281D01*
X18079Y23266D01*
X18093Y23249D01*
X18106Y23233D01*
X18117Y23216D01*
X18127Y23199D01*
X18135Y23184D01*
X18141Y23170D01*
X18146Y23159D01*
X18150Y23150D01*
X18152Y23144D01*
X18153Y23143D01*
Y23142D01*
X18160Y23119D01*
X18167Y23095D01*
X18177Y23045D01*
X18184Y22996D01*
X18187Y22973D01*
X18189Y22950D01*
X18191Y22929D01*
X18192Y22910D01*
X18193Y22893D01*
Y22879D01*
X18194Y22867D01*
Y22858D01*
Y22852D01*
Y22850D01*
Y22819D01*
X18192Y22788D01*
X18190Y22759D01*
X18188Y22732D01*
X18184Y22706D01*
X18181Y22682D01*
X18177Y22659D01*
X18173Y22639D01*
X18170Y22620D01*
X18166Y22604D01*
X18162Y22590D01*
X18159Y22578D01*
X18157Y22569D01*
X18155Y22563D01*
X18153Y22558D01*
Y22557D01*
X18147Y22541D01*
X18141Y22525D01*
X18127Y22498D01*
X18112Y22474D01*
X18097Y22453D01*
X18081Y22436D01*
X18064Y22421D01*
X18048Y22409D01*
X18033Y22400D01*
X18018Y22392D01*
X18004Y22387D01*
X17991Y22383D01*
X17980Y22380D01*
X17971Y22378D01*
X17964Y22377D01*
X17958D01*
X17946Y22378D01*
X17934Y22379D01*
X17911Y22385D01*
X17890Y22394D01*
X17871Y22405D01*
X17853Y22419D01*
X17837Y22434D01*
X17823Y22450D01*
X17810Y22467D01*
X17799Y22484D01*
X17789Y22500D01*
X17781Y22515D01*
X17775Y22529D01*
X17769Y22540D01*
X17766Y22549D01*
X17764Y22555D01*
X17763Y22557D01*
X17756Y22580D01*
X17749Y22604D01*
X17739Y22654D01*
X17731Y22704D01*
X17728Y22727D01*
X17726Y22750D01*
X17724Y22771D01*
X17723Y22790D01*
X17722Y22807D01*
Y22822D01*
X17721Y22834D01*
Y22842D01*
Y22848D01*
Y22850D01*
Y22881D01*
X17723Y22911D01*
X17725Y22940D01*
X17728Y22967D01*
X17731Y22993D01*
X17734Y23017D01*
X17738Y23039D01*
X17742Y23060D01*
X17746Y23078D01*
X17750Y23095D01*
X17753Y23109D01*
X17756Y23121D01*
X17759Y23129D01*
X17761Y23136D01*
X17762Y23141D01*
X17763Y23142D01*
X17769Y23158D01*
X17775Y23174D01*
X17789Y23202D01*
X17804Y23226D01*
X17819Y23247D01*
X17835Y23264D01*
X17851Y23279D01*
X17868Y23291D01*
X17883Y23300D01*
X17898Y23308D01*
X17912Y23313D01*
X17925Y23318D01*
X17936Y23320D01*
X17945Y23322D01*
X17952Y23323D01*
X17970D01*
X17982Y23321D01*
D02*
G37*
G36*
X37298Y35054D02*
X37316Y35052D01*
X37332Y35049D01*
X37348Y35044D01*
X37363Y35039D01*
X37377Y35033D01*
X37389Y35027D01*
X37401Y35020D01*
X37412Y35014D01*
X37421Y35007D01*
X37429Y35001D01*
X37436Y34996D01*
X37441Y34991D01*
X37445Y34988D01*
X37447Y34986D01*
X37448Y34985D01*
X37460Y34972D01*
X37471Y34958D01*
X37480Y34944D01*
X37488Y34930D01*
X37495Y34916D01*
X37500Y34902D01*
X37505Y34888D01*
X37508Y34876D01*
X37511Y34864D01*
X37513Y34853D01*
X37515Y34843D01*
X37516Y34834D01*
X37517Y34828D01*
Y34822D01*
Y34819D01*
Y34818D01*
Y34345D01*
X37516Y34327D01*
X37514Y34309D01*
X37511Y34293D01*
X37506Y34277D01*
X37501Y34262D01*
X37495Y34248D01*
X37489Y34236D01*
X37482Y34224D01*
X37476Y34213D01*
X37470Y34204D01*
X37464Y34196D01*
X37459Y34189D01*
X37454Y34184D01*
X37451Y34180D01*
X37449Y34178D01*
X37448Y34177D01*
X37435Y34165D01*
X37421Y34154D01*
X37407Y34145D01*
X37393Y34137D01*
X37378Y34130D01*
X37364Y34125D01*
X37351Y34120D01*
X37338Y34117D01*
X37326Y34114D01*
X37315Y34112D01*
X37305Y34110D01*
X37297Y34109D01*
X37290Y34108D01*
X37092D01*
X37084Y34109D01*
X37076Y34110D01*
X37065Y34115D01*
X37056Y34123D01*
X37051Y34132D01*
X37047Y34140D01*
X37046Y34148D01*
X37045Y34153D01*
Y34155D01*
Y34163D01*
X37047Y34171D01*
X37052Y34183D01*
X37060Y34191D01*
X37068Y34197D01*
X37077Y34201D01*
X37085Y34202D01*
X37090Y34203D01*
X37280D01*
X37301Y34205D01*
X37321Y34209D01*
X37338Y34216D01*
X37353Y34224D01*
X37365Y34231D01*
X37373Y34238D01*
X37379Y34242D01*
X37381Y34244D01*
X37395Y34260D01*
X37405Y34278D01*
X37412Y34294D01*
X37417Y34310D01*
X37420Y34324D01*
X37421Y34335D01*
X37422Y34339D01*
Y34342D01*
Y34344D01*
Y34345D01*
Y34817D01*
X37420Y34838D01*
X37416Y34858D01*
X37409Y34875D01*
X37401Y34890D01*
X37394Y34902D01*
X37387Y34911D01*
X37383Y34916D01*
X37381Y34918D01*
X37365Y34932D01*
X37348Y34942D01*
X37331Y34950D01*
X37315Y34955D01*
X37301Y34958D01*
X37290Y34959D01*
X37286Y34960D01*
X37092D01*
X37084Y34961D01*
X37076Y34962D01*
X37065Y34967D01*
X37056Y34975D01*
X37051Y34984D01*
X37047Y34992D01*
X37046Y35000D01*
X37045Y35005D01*
Y35007D01*
Y35015D01*
X37047Y35023D01*
X37052Y35035D01*
X37060Y35043D01*
X37068Y35049D01*
X37077Y35053D01*
X37085Y35054D01*
X37090Y35055D01*
X37280D01*
X37298Y35054D01*
D02*
G37*
G36*
X36816D02*
X36823Y35053D01*
X36835Y35048D01*
X36843Y35040D01*
X36849Y35031D01*
X36852Y35022D01*
X36854Y35015D01*
X36855Y35009D01*
Y35008D01*
Y35007D01*
Y34628D01*
X36854Y34620D01*
X36853Y34613D01*
X36848Y34601D01*
X36840Y34593D01*
X36831Y34587D01*
X36823Y34584D01*
X36815Y34582D01*
X36810Y34581D01*
X36620D01*
X36599Y34579D01*
X36580Y34574D01*
X36563Y34568D01*
X36548Y34560D01*
X36536Y34552D01*
X36527Y34546D01*
X36522Y34541D01*
X36520Y34539D01*
X36506Y34523D01*
X36496Y34506D01*
X36488Y34490D01*
X36483Y34474D01*
X36480Y34460D01*
X36479Y34449D01*
X36478Y34445D01*
Y34442D01*
Y34440D01*
Y34439D01*
Y34345D01*
X36480Y34323D01*
X36485Y34304D01*
X36491Y34287D01*
X36499Y34272D01*
X36507Y34260D01*
X36513Y34251D01*
X36518Y34246D01*
X36520Y34244D01*
X36536Y34230D01*
X36553Y34220D01*
X36570Y34213D01*
X36585Y34208D01*
X36599Y34205D01*
X36610Y34204D01*
X36614Y34203D01*
X36808D01*
X36816Y34202D01*
X36823Y34201D01*
X36835Y34196D01*
X36843Y34188D01*
X36849Y34179D01*
X36852Y34170D01*
X36854Y34163D01*
X36855Y34157D01*
Y34156D01*
Y34155D01*
X36854Y34147D01*
X36853Y34140D01*
X36848Y34128D01*
X36840Y34120D01*
X36831Y34114D01*
X36823Y34111D01*
X36815Y34109D01*
X36810Y34108D01*
X36620D01*
X36602Y34109D01*
X36585Y34111D01*
X36569Y34114D01*
X36553Y34119D01*
X36538Y34124D01*
X36525Y34130D01*
X36512Y34136D01*
X36500Y34143D01*
X36490Y34149D01*
X36480Y34155D01*
X36472Y34161D01*
X36465Y34166D01*
X36460Y34171D01*
X36456Y34174D01*
X36454Y34176D01*
X36453Y34177D01*
X36441Y34190D01*
X36430Y34204D01*
X36421Y34218D01*
X36412Y34232D01*
X36406Y34247D01*
X36400Y34261D01*
X36395Y34274D01*
X36392Y34287D01*
X36389Y34299D01*
X36387Y34310D01*
X36385Y34320D01*
X36384Y34328D01*
X36383Y34335D01*
Y34341D01*
Y34344D01*
Y34345D01*
Y34439D01*
X36384Y34457D01*
X36386Y34474D01*
X36389Y34491D01*
X36394Y34506D01*
X36399Y34520D01*
X36405Y34534D01*
X36411Y34547D01*
X36418Y34559D01*
X36424Y34569D01*
X36431Y34579D01*
X36437Y34587D01*
X36442Y34594D01*
X36447Y34599D01*
X36450Y34603D01*
X36452Y34605D01*
X36453Y34606D01*
X36466Y34618D01*
X36480Y34629D01*
X36494Y34638D01*
X36508Y34647D01*
X36522Y34653D01*
X36536Y34659D01*
X36550Y34664D01*
X36562Y34667D01*
X36574Y34670D01*
X36585Y34672D01*
X36595Y34674D01*
X36604Y34675D01*
X36610Y34676D01*
X36760D01*
Y34960D01*
X36478D01*
X36470Y34961D01*
X36462Y34962D01*
X36451Y34967D01*
X36442Y34975D01*
X36437Y34984D01*
X36433Y34992D01*
X36432Y35000D01*
X36431Y35005D01*
Y35007D01*
Y35015D01*
X36433Y35023D01*
X36438Y35035D01*
X36446Y35043D01*
X36454Y35049D01*
X36463Y35053D01*
X36471Y35054D01*
X36476Y35055D01*
X36808D01*
X36816Y35054D01*
D02*
G37*
G36*
X18831Y25222D02*
X18838Y25221D01*
X18850Y25216D01*
X18858Y25208D01*
X18864Y25199D01*
X18867Y25190D01*
X18869Y25183D01*
X18870Y25177D01*
Y25176D01*
Y25175D01*
Y24324D01*
X18869Y24316D01*
X18868Y24309D01*
X18863Y24297D01*
X18855Y24289D01*
X18846Y24283D01*
X18838Y24280D01*
X18830Y24278D01*
X18825Y24277D01*
X18823D01*
X18815Y24278D01*
X18807Y24279D01*
X18795Y24284D01*
X18787Y24292D01*
X18781Y24301D01*
X18777Y24309D01*
X18776Y24317D01*
X18775Y24322D01*
Y24324D01*
Y24655D01*
X18570D01*
X18394Y24303D01*
X18388Y24294D01*
X18382Y24288D01*
X18375Y24283D01*
X18368Y24280D01*
X18361Y24278D01*
X18356Y24277D01*
X18351D01*
X18344Y24278D01*
X18338Y24279D01*
X18327Y24284D01*
X18323Y24287D01*
X18320Y24289D01*
X18319Y24290D01*
X18318Y24291D01*
X18313Y24296D01*
X18309Y24302D01*
X18307Y24308D01*
X18305Y24313D01*
X18304Y24317D01*
X18303Y24321D01*
Y24323D01*
Y24324D01*
X18304Y24332D01*
X18306Y24338D01*
X18308Y24343D01*
X18309Y24345D01*
X18475Y24675D01*
X18459Y24682D01*
X18445Y24689D01*
X18418Y24706D01*
X18395Y24725D01*
X18376Y24745D01*
X18359Y24766D01*
X18345Y24788D01*
X18334Y24811D01*
X18324Y24833D01*
X18317Y24854D01*
X18312Y24873D01*
X18308Y24891D01*
X18306Y24907D01*
X18304Y24920D01*
X18303Y24930D01*
Y24934D01*
Y24937D01*
Y24938D01*
Y24939D01*
X18304Y24961D01*
X18307Y24982D01*
X18311Y25002D01*
X18316Y25021D01*
X18322Y25038D01*
X18329Y25054D01*
X18337Y25070D01*
X18344Y25084D01*
X18352Y25096D01*
X18360Y25107D01*
X18367Y25117D01*
X18373Y25125D01*
X18378Y25132D01*
X18382Y25136D01*
X18385Y25139D01*
X18386Y25140D01*
X18402Y25155D01*
X18418Y25167D01*
X18435Y25179D01*
X18452Y25188D01*
X18469Y25196D01*
X18486Y25203D01*
X18502Y25208D01*
X18518Y25213D01*
X18532Y25216D01*
X18545Y25219D01*
X18557Y25220D01*
X18567Y25222D01*
X18576D01*
X18582Y25223D01*
X18823D01*
X18831Y25222D01*
D02*
G37*
G36*
X18075D02*
X18082Y25221D01*
X18094Y25216D01*
X18102Y25208D01*
X18108Y25199D01*
X18111Y25190D01*
X18113Y25183D01*
X18114Y25177D01*
Y25176D01*
Y25175D01*
X18113Y25167D01*
X18112Y25160D01*
X18107Y25148D01*
X18099Y25140D01*
X18090Y25134D01*
X18082Y25131D01*
X18074Y25129D01*
X18069Y25128D01*
X17878D01*
X17857Y25126D01*
X17837Y25121D01*
X17820Y25115D01*
X17805Y25107D01*
X17793Y25099D01*
X17784Y25093D01*
X17779Y25088D01*
X17777Y25086D01*
X17763Y25070D01*
X17753Y25053D01*
X17745Y25036D01*
X17740Y25021D01*
X17737Y25008D01*
X17736Y24997D01*
X17735Y24993D01*
Y24990D01*
Y24988D01*
Y24987D01*
X17737Y24965D01*
X17742Y24946D01*
X17748Y24929D01*
X17756Y24914D01*
X17764Y24902D01*
X17770Y24893D01*
X17775Y24888D01*
X17777Y24886D01*
X17793Y24872D01*
X17810Y24862D01*
X17827Y24855D01*
X17843Y24850D01*
X17857Y24847D01*
X17868Y24846D01*
X17872Y24845D01*
X17972D01*
X17980Y24844D01*
X17988Y24843D01*
X18000Y24838D01*
X18008Y24830D01*
X18014Y24821D01*
X18017Y24812D01*
X18019Y24805D01*
X18020Y24799D01*
Y24798D01*
Y24797D01*
X18019Y24789D01*
X18018Y24782D01*
X18012Y24770D01*
X18005Y24762D01*
X17996Y24756D01*
X17987Y24753D01*
X17979Y24751D01*
X17974Y24750D01*
X17878D01*
X17857Y24748D01*
X17837Y24743D01*
X17820Y24737D01*
X17805Y24729D01*
X17793Y24721D01*
X17784Y24715D01*
X17779Y24710D01*
X17777Y24708D01*
X17763Y24692D01*
X17753Y24675D01*
X17745Y24658D01*
X17740Y24642D01*
X17737Y24628D01*
X17736Y24617D01*
X17735Y24613D01*
Y24610D01*
Y24608D01*
Y24607D01*
Y24513D01*
X17737Y24491D01*
X17742Y24472D01*
X17748Y24456D01*
X17756Y24441D01*
X17764Y24429D01*
X17770Y24420D01*
X17775Y24415D01*
X17777Y24413D01*
X17793Y24399D01*
X17810Y24389D01*
X17827Y24382D01*
X17843Y24377D01*
X17857Y24374D01*
X17868Y24373D01*
X17872Y24372D01*
X18067D01*
X18075Y24371D01*
X18082Y24370D01*
X18094Y24365D01*
X18102Y24357D01*
X18108Y24348D01*
X18111Y24339D01*
X18113Y24332D01*
X18114Y24326D01*
Y24325D01*
Y24324D01*
X18113Y24316D01*
X18112Y24309D01*
X18107Y24297D01*
X18099Y24289D01*
X18090Y24283D01*
X18082Y24280D01*
X18074Y24278D01*
X18069Y24277D01*
X17878D01*
X17860Y24278D01*
X17843Y24280D01*
X17826Y24283D01*
X17810Y24288D01*
X17796Y24293D01*
X17782Y24299D01*
X17769Y24305D01*
X17757Y24312D01*
X17747Y24318D01*
X17737Y24324D01*
X17729Y24330D01*
X17722Y24335D01*
X17717Y24340D01*
X17713Y24343D01*
X17711Y24345D01*
X17710Y24346D01*
X17698Y24359D01*
X17687Y24373D01*
X17678Y24387D01*
X17669Y24401D01*
X17663Y24416D01*
X17657Y24430D01*
X17652Y24443D01*
X17649Y24456D01*
X17646Y24468D01*
X17644Y24478D01*
X17642Y24488D01*
X17641Y24496D01*
X17640Y24503D01*
Y24509D01*
Y24512D01*
Y24513D01*
Y24607D01*
X17641Y24629D01*
X17644Y24649D01*
X17649Y24668D01*
X17655Y24687D01*
X17662Y24703D01*
X17670Y24719D01*
X17679Y24733D01*
X17687Y24746D01*
X17696Y24758D01*
X17705Y24768D01*
X17713Y24777D01*
X17720Y24784D01*
X17726Y24790D01*
X17731Y24794D01*
X17734Y24796D01*
X17735Y24797D01*
X17718Y24811D01*
X17704Y24826D01*
X17691Y24841D01*
X17680Y24857D01*
X17671Y24873D01*
X17663Y24889D01*
X17657Y24904D01*
X17652Y24919D01*
X17648Y24933D01*
X17645Y24946D01*
X17643Y24957D01*
X17641Y24967D01*
Y24976D01*
X17640Y24982D01*
Y24986D01*
Y24987D01*
X17641Y25005D01*
X17643Y25022D01*
X17646Y25037D01*
X17651Y25053D01*
X17656Y25068D01*
X17662Y25081D01*
X17668Y25094D01*
X17675Y25106D01*
X17681Y25116D01*
X17688Y25126D01*
X17694Y25134D01*
X17699Y25141D01*
X17704Y25146D01*
X17707Y25150D01*
X17709Y25152D01*
X17710Y25153D01*
X17723Y25165D01*
X17737Y25176D01*
X17751Y25185D01*
X17765Y25194D01*
X17780Y25200D01*
X17793Y25206D01*
X17807Y25211D01*
X17820Y25214D01*
X17832Y25217D01*
X17843Y25219D01*
X17853Y25221D01*
X17861Y25222D01*
X17868Y25223D01*
X18067D01*
X18075Y25222D01*
D02*
G37*
G36*
X9501Y1646D02*
X9526Y1641D01*
X9550Y1632D01*
X9572Y1621D01*
X9593Y1608D01*
X9612Y1594D01*
X9629Y1578D01*
X9645Y1563D01*
X9659Y1547D01*
X9672Y1531D01*
X9682Y1517D01*
X9691Y1504D01*
X9698Y1493D01*
X9703Y1484D01*
X9706Y1479D01*
X9707Y1478D01*
Y1477D01*
X9710Y1471D01*
X9711Y1465D01*
X9712Y1460D01*
Y1459D01*
Y1459D01*
X9711Y1451D01*
X9710Y1443D01*
X9704Y1431D01*
X9697Y1423D01*
X9688Y1417D01*
X9679Y1414D01*
X9671Y1412D01*
X9666Y1411D01*
X9664D01*
X9654Y1412D01*
X9646Y1415D01*
X9639Y1418D01*
X9633Y1423D01*
X9629Y1427D01*
X9625Y1430D01*
X9624Y1433D01*
X9623Y1434D01*
X9610Y1454D01*
X9597Y1473D01*
X9584Y1489D01*
X9571Y1502D01*
X9559Y1514D01*
X9546Y1524D01*
X9535Y1532D01*
X9523Y1538D01*
X9513Y1543D01*
X9504Y1547D01*
X9496Y1549D01*
X9489Y1551D01*
X9483Y1552D01*
X9479Y1553D01*
X9476D01*
X9455Y1551D01*
X9435Y1546D01*
X9418Y1540D01*
X9404Y1532D01*
X9392Y1524D01*
X9383Y1518D01*
X9378Y1513D01*
X9376Y1511D01*
X9362Y1495D01*
X9352Y1478D01*
X9344Y1461D01*
X9339Y1446D01*
X9336Y1432D01*
X9335Y1421D01*
X9334Y1417D01*
Y1414D01*
Y1412D01*
Y1411D01*
X9335Y1396D01*
X9338Y1382D01*
X9341Y1369D01*
X9345Y1357D01*
X9350Y1347D01*
X9353Y1340D01*
X9356Y1335D01*
X9357Y1333D01*
X9704Y776D01*
X9709Y766D01*
X9711Y758D01*
X9712Y751D01*
Y750D01*
Y749D01*
X9711Y741D01*
X9710Y734D01*
X9704Y722D01*
X9697Y714D01*
X9688Y708D01*
X9679Y705D01*
X9671Y703D01*
X9666Y702D01*
X9286D01*
X9278Y703D01*
X9270Y704D01*
X9259Y709D01*
X9250Y717D01*
X9245Y726D01*
X9241Y734D01*
X9240Y742D01*
X9239Y747D01*
Y749D01*
Y757D01*
X9241Y765D01*
X9246Y777D01*
X9254Y785D01*
X9262Y791D01*
X9271Y795D01*
X9279Y796D01*
X9284Y797D01*
X9580D01*
X9282Y1275D01*
X9274Y1288D01*
X9268Y1301D01*
X9257Y1326D01*
X9249Y1349D01*
X9244Y1369D01*
X9243Y1379D01*
X9241Y1387D01*
X9240Y1394D01*
Y1400D01*
X9239Y1405D01*
Y1409D01*
Y1411D01*
Y1412D01*
X9240Y1430D01*
X9242Y1447D01*
X9245Y1463D01*
X9250Y1478D01*
X9255Y1493D01*
X9261Y1507D01*
X9267Y1520D01*
X9274Y1531D01*
X9280Y1542D01*
X9287Y1551D01*
X9293Y1559D01*
X9298Y1566D01*
X9303Y1571D01*
X9306Y1575D01*
X9308Y1577D01*
X9309Y1578D01*
X9322Y1590D01*
X9336Y1601D01*
X9350Y1610D01*
X9364Y1619D01*
X9378Y1625D01*
X9392Y1631D01*
X9406Y1636D01*
X9418Y1639D01*
X9430Y1642D01*
X9441Y1644D01*
X9451Y1646D01*
X9460Y1647D01*
X9466Y1648D01*
X9488D01*
X9501Y1646D01*
D02*
G37*
G36*
X10154Y1647D02*
X10172Y1645D01*
X10188Y1642D01*
X10204Y1637D01*
X10219Y1632D01*
X10233Y1626D01*
X10245Y1620D01*
X10257Y1613D01*
X10268Y1607D01*
X10277Y1600D01*
X10285Y1594D01*
X10292Y1589D01*
X10297Y1584D01*
X10301Y1581D01*
X10303Y1579D01*
X10304Y1578D01*
X10316Y1565D01*
X10327Y1551D01*
X10336Y1537D01*
X10344Y1523D01*
X10351Y1509D01*
X10356Y1495D01*
X10361Y1481D01*
X10364Y1469D01*
X10367Y1457D01*
X10369Y1447D01*
X10371Y1437D01*
X10372Y1428D01*
X10373Y1422D01*
Y1416D01*
Y1413D01*
Y1412D01*
Y938D01*
X10372Y920D01*
X10370Y902D01*
X10367Y887D01*
X10362Y871D01*
X10357Y856D01*
X10351Y842D01*
X10345Y830D01*
X10338Y818D01*
X10332Y807D01*
X10326Y798D01*
X10320Y790D01*
X10315Y783D01*
X10310Y778D01*
X10307Y774D01*
X10305Y772D01*
X10304Y771D01*
X10291Y759D01*
X10277Y748D01*
X10263Y739D01*
X10249Y731D01*
X10234Y724D01*
X10220Y719D01*
X10207Y714D01*
X10194Y711D01*
X10182Y708D01*
X10171Y706D01*
X10161Y704D01*
X10153Y703D01*
X10146Y702D01*
X9948D01*
X9940Y703D01*
X9932Y704D01*
X9921Y709D01*
X9912Y717D01*
X9907Y726D01*
X9903Y734D01*
X9902Y742D01*
X9901Y747D01*
Y749D01*
Y757D01*
X9903Y765D01*
X9908Y777D01*
X9916Y785D01*
X9924Y791D01*
X9933Y795D01*
X9941Y796D01*
X9946Y797D01*
X10136D01*
X10157Y799D01*
X10177Y803D01*
X10194Y810D01*
X10209Y818D01*
X10221Y825D01*
X10229Y832D01*
X10235Y836D01*
X10237Y838D01*
X10251Y854D01*
X10261Y872D01*
X10268Y888D01*
X10273Y903D01*
X10276Y917D01*
X10277Y928D01*
X10278Y932D01*
Y935D01*
Y937D01*
Y938D01*
Y1411D01*
X10276Y1432D01*
X10272Y1452D01*
X10265Y1468D01*
X10257Y1483D01*
X10250Y1495D01*
X10243Y1504D01*
X10239Y1509D01*
X10237Y1511D01*
X10221Y1525D01*
X10204Y1535D01*
X10187Y1543D01*
X10171Y1548D01*
X10157Y1551D01*
X10146Y1552D01*
X10142Y1553D01*
X9948D01*
X9940Y1554D01*
X9932Y1555D01*
X9921Y1560D01*
X9912Y1568D01*
X9907Y1577D01*
X9903Y1585D01*
X9902Y1593D01*
X9901Y1598D01*
Y1600D01*
Y1608D01*
X9903Y1616D01*
X9908Y1628D01*
X9916Y1636D01*
X9924Y1642D01*
X9933Y1646D01*
X9941Y1647D01*
X9946Y1648D01*
X10136D01*
X10154Y1647D01*
D02*
G37*
G36*
X9011D02*
X9018Y1646D01*
X9030Y1641D01*
X9038Y1633D01*
X9044Y1624D01*
X9047Y1615D01*
X9049Y1608D01*
X9050Y1602D01*
Y1601D01*
Y1600D01*
X9049Y1592D01*
X9048Y1585D01*
X9043Y1573D01*
X9035Y1565D01*
X9026Y1559D01*
X9018Y1556D01*
X9010Y1554D01*
X9005Y1553D01*
X8684D01*
X8758Y1222D01*
X8814D01*
X8822Y1221D01*
X8829Y1220D01*
X8841Y1215D01*
X8849Y1207D01*
X8855Y1198D01*
X8858Y1189D01*
X8860Y1182D01*
X8861Y1176D01*
Y1175D01*
Y1174D01*
X8860Y1166D01*
X8859Y1159D01*
X8854Y1147D01*
X8846Y1139D01*
X8837Y1133D01*
X8829Y1130D01*
X8821Y1128D01*
X8816Y1127D01*
X8779D01*
X8860Y760D01*
X8861Y757D01*
Y753D01*
Y750D01*
Y749D01*
X8860Y741D01*
X8859Y734D01*
X8853Y722D01*
X8846Y714D01*
X8837Y708D01*
X8828Y705D01*
X8820Y703D01*
X8815Y702D01*
X8813D01*
X8801Y704D01*
X8791Y708D01*
X8783Y714D01*
X8777Y721D01*
X8773Y727D01*
X8770Y733D01*
X8768Y737D01*
Y739D01*
X8682Y1127D01*
X8625D01*
X8617Y1128D01*
X8609Y1129D01*
X8597Y1134D01*
X8589Y1142D01*
X8583Y1151D01*
X8579Y1159D01*
X8578Y1167D01*
X8577Y1172D01*
Y1174D01*
X8578Y1182D01*
X8579Y1190D01*
X8584Y1202D01*
X8592Y1210D01*
X8601Y1216D01*
X8610Y1220D01*
X8617Y1221D01*
X8623Y1222D01*
X8661D01*
X8579Y1590D01*
X8578Y1595D01*
X8577Y1599D01*
Y1601D01*
Y1602D01*
X8578Y1610D01*
X8579Y1617D01*
X8585Y1629D01*
X8593Y1637D01*
X8601Y1642D01*
X8610Y1646D01*
X8618Y1647D01*
X8623Y1648D01*
X9003D01*
X9011Y1647D01*
D02*
G37*
G36*
X16051Y38771D02*
X16076Y38766D01*
X16100Y38757D01*
X16122Y38746D01*
X16143Y38733D01*
X16162Y38719D01*
X16179Y38703D01*
X16195Y38688D01*
X16209Y38672D01*
X16222Y38656D01*
X16232Y38642D01*
X16241Y38629D01*
X16248Y38618D01*
X16253Y38609D01*
X16256Y38604D01*
X16257Y38603D01*
Y38602D01*
X16260Y38596D01*
X16261Y38590D01*
X16262Y38585D01*
Y38584D01*
Y38583D01*
X16261Y38576D01*
X16260Y38568D01*
X16254Y38556D01*
X16247Y38548D01*
X16238Y38542D01*
X16229Y38539D01*
X16221Y38537D01*
X16216Y38536D01*
X16214D01*
X16204Y38537D01*
X16196Y38540D01*
X16189Y38543D01*
X16183Y38548D01*
X16179Y38552D01*
X16175Y38555D01*
X16174Y38558D01*
X16173Y38559D01*
X16160Y38579D01*
X16147Y38598D01*
X16134Y38614D01*
X16121Y38627D01*
X16109Y38639D01*
X16096Y38649D01*
X16085Y38657D01*
X16073Y38663D01*
X16063Y38668D01*
X16054Y38672D01*
X16046Y38674D01*
X16039Y38676D01*
X16033Y38677D01*
X16029Y38678D01*
X16025D01*
X16005Y38676D01*
X15985Y38671D01*
X15968Y38665D01*
X15954Y38657D01*
X15942Y38649D01*
X15933Y38643D01*
X15928Y38638D01*
X15926Y38636D01*
X15912Y38620D01*
X15902Y38603D01*
X15894Y38586D01*
X15889Y38571D01*
X15886Y38557D01*
X15885Y38546D01*
X15884Y38542D01*
Y38539D01*
Y38537D01*
Y38536D01*
X15885Y38521D01*
X15888Y38507D01*
X15891Y38494D01*
X15895Y38482D01*
X15900Y38472D01*
X15903Y38465D01*
X15906Y38460D01*
X15907Y38458D01*
X16254Y37901D01*
X16259Y37891D01*
X16261Y37883D01*
X16262Y37876D01*
Y37875D01*
Y37874D01*
X16261Y37866D01*
X16260Y37859D01*
X16254Y37847D01*
X16247Y37839D01*
X16238Y37833D01*
X16229Y37830D01*
X16221Y37828D01*
X16216Y37827D01*
X15836D01*
X15828Y37828D01*
X15820Y37829D01*
X15809Y37834D01*
X15800Y37842D01*
X15795Y37851D01*
X15791Y37859D01*
X15790Y37867D01*
X15789Y37872D01*
Y37874D01*
Y37882D01*
X15791Y37890D01*
X15796Y37902D01*
X15804Y37910D01*
X15812Y37916D01*
X15821Y37920D01*
X15829Y37921D01*
X15834Y37922D01*
X16130D01*
X15832Y38400D01*
X15824Y38413D01*
X15818Y38426D01*
X15807Y38451D01*
X15799Y38474D01*
X15794Y38494D01*
X15793Y38504D01*
X15791Y38512D01*
X15790Y38519D01*
Y38525D01*
X15789Y38530D01*
Y38534D01*
Y38536D01*
Y38537D01*
X15790Y38555D01*
X15792Y38572D01*
X15795Y38588D01*
X15800Y38603D01*
X15805Y38618D01*
X15811Y38632D01*
X15817Y38645D01*
X15824Y38656D01*
X15830Y38667D01*
X15837Y38676D01*
X15843Y38684D01*
X15848Y38691D01*
X15853Y38696D01*
X15856Y38700D01*
X15858Y38702D01*
X15859Y38703D01*
X15872Y38715D01*
X15886Y38726D01*
X15900Y38735D01*
X15914Y38744D01*
X15928Y38750D01*
X15942Y38756D01*
X15956Y38761D01*
X15968Y38764D01*
X15980Y38767D01*
X15991Y38769D01*
X16001Y38771D01*
X16010Y38772D01*
X16016Y38773D01*
X16038D01*
X16051Y38771D01*
D02*
G37*
G36*
X16704Y38772D02*
X16722Y38770D01*
X16738Y38767D01*
X16754Y38762D01*
X16769Y38757D01*
X16783Y38751D01*
X16795Y38745D01*
X16807Y38738D01*
X16818Y38732D01*
X16827Y38725D01*
X16835Y38719D01*
X16842Y38714D01*
X16847Y38709D01*
X16851Y38706D01*
X16853Y38704D01*
X16854Y38703D01*
X16866Y38690D01*
X16877Y38676D01*
X16886Y38662D01*
X16894Y38648D01*
X16901Y38634D01*
X16906Y38620D01*
X16911Y38606D01*
X16914Y38594D01*
X16917Y38583D01*
X16919Y38572D01*
X16921Y38562D01*
X16922Y38553D01*
X16923Y38547D01*
Y38541D01*
Y38538D01*
Y38537D01*
Y38063D01*
X16922Y38045D01*
X16920Y38027D01*
X16917Y38012D01*
X16912Y37996D01*
X16907Y37981D01*
X16901Y37967D01*
X16895Y37955D01*
X16888Y37943D01*
X16882Y37932D01*
X16876Y37923D01*
X16870Y37915D01*
X16865Y37908D01*
X16860Y37903D01*
X16857Y37899D01*
X16855Y37897D01*
X16854Y37896D01*
X16841Y37884D01*
X16827Y37873D01*
X16813Y37864D01*
X16799Y37856D01*
X16784Y37849D01*
X16770Y37844D01*
X16757Y37839D01*
X16744Y37836D01*
X16732Y37833D01*
X16721Y37831D01*
X16711Y37829D01*
X16703Y37828D01*
X16696Y37827D01*
X16498D01*
X16490Y37828D01*
X16482Y37829D01*
X16471Y37834D01*
X16462Y37842D01*
X16457Y37851D01*
X16453Y37859D01*
X16452Y37867D01*
X16451Y37872D01*
Y37874D01*
Y37882D01*
X16453Y37890D01*
X16458Y37902D01*
X16466Y37910D01*
X16474Y37916D01*
X16483Y37920D01*
X16491Y37921D01*
X16496Y37922D01*
X16686D01*
X16707Y37924D01*
X16727Y37928D01*
X16744Y37935D01*
X16759Y37943D01*
X16771Y37950D01*
X16779Y37957D01*
X16785Y37961D01*
X16787Y37963D01*
X16801Y37979D01*
X16811Y37997D01*
X16818Y38013D01*
X16823Y38028D01*
X16826Y38042D01*
X16827Y38053D01*
X16828Y38057D01*
Y38060D01*
Y38062D01*
Y38063D01*
Y38536D01*
X16826Y38557D01*
X16822Y38577D01*
X16815Y38593D01*
X16807Y38608D01*
X16800Y38620D01*
X16793Y38629D01*
X16789Y38634D01*
X16787Y38636D01*
X16771Y38650D01*
X16754Y38660D01*
X16737Y38668D01*
X16721Y38673D01*
X16707Y38676D01*
X16696Y38677D01*
X16692Y38678D01*
X16498D01*
X16490Y38679D01*
X16482Y38680D01*
X16471Y38685D01*
X16462Y38693D01*
X16457Y38702D01*
X16453Y38710D01*
X16452Y38718D01*
X16451Y38723D01*
Y38725D01*
Y38733D01*
X16453Y38741D01*
X16458Y38753D01*
X16466Y38761D01*
X16474Y38767D01*
X16483Y38771D01*
X16491Y38772D01*
X16496Y38773D01*
X16686D01*
X16704Y38772D01*
D02*
G37*
G36*
X15283Y38770D02*
X15297Y38767D01*
X15303Y38765D01*
X15308Y38763D01*
X15312Y38762D01*
X15313Y38761D01*
X15331Y38753D01*
X15349Y38744D01*
X15383Y38723D01*
X15413Y38701D01*
X15427Y38690D01*
X15440Y38679D01*
X15452Y38669D01*
X15462Y38659D01*
X15471Y38650D01*
X15478Y38642D01*
X15485Y38636D01*
X15489Y38631D01*
X15492Y38628D01*
X15493Y38627D01*
X15512Y38604D01*
X15528Y38581D01*
X15542Y38557D01*
X15554Y38533D01*
X15565Y38509D01*
X15573Y38486D01*
X15580Y38463D01*
X15586Y38442D01*
X15590Y38422D01*
X15593Y38403D01*
X15596Y38387D01*
X15597Y38373D01*
X15598Y38362D01*
X15599Y38353D01*
Y38348D01*
Y38346D01*
Y38061D01*
X15598Y38043D01*
X15596Y38026D01*
X15593Y38010D01*
X15588Y37995D01*
X15583Y37980D01*
X15577Y37966D01*
X15571Y37953D01*
X15565Y37942D01*
X15559Y37931D01*
X15552Y37922D01*
X15547Y37914D01*
X15542Y37907D01*
X15537Y37902D01*
X15534Y37898D01*
X15532Y37896D01*
X15531Y37895D01*
X15518Y37883D01*
X15504Y37873D01*
X15490Y37864D01*
X15476Y37856D01*
X15462Y37849D01*
X15448Y37844D01*
X15422Y37836D01*
X15410Y37833D01*
X15399Y37831D01*
X15389Y37829D01*
X15381Y37828D01*
X15374Y37827D01*
X15364D01*
X15346Y37828D01*
X15329Y37830D01*
X15312Y37833D01*
X15297Y37838D01*
X15282Y37843D01*
X15268Y37849D01*
X15255Y37855D01*
X15244Y37861D01*
X15233Y37867D01*
X15224Y37874D01*
X15216Y37879D01*
X15209Y37884D01*
X15204Y37889D01*
X15200Y37892D01*
X15198Y37894D01*
X15197Y37895D01*
X15185Y37908D01*
X15174Y37922D01*
X15165Y37936D01*
X15156Y37951D01*
X15150Y37965D01*
X15144Y37979D01*
X15139Y37992D01*
X15136Y38005D01*
X15133Y38018D01*
X15131Y38028D01*
X15129Y38038D01*
X15128Y38046D01*
X15127Y38053D01*
Y38059D01*
Y38062D01*
Y38063D01*
Y38157D01*
X15128Y38175D01*
X15130Y38193D01*
X15133Y38210D01*
X15138Y38226D01*
X15143Y38241D01*
X15148Y38254D01*
X15155Y38267D01*
X15161Y38279D01*
X15167Y38290D01*
X15173Y38299D01*
X15179Y38307D01*
X15184Y38314D01*
X15189Y38319D01*
X15192Y38323D01*
X15194Y38325D01*
X15195Y38326D01*
X15208Y38338D01*
X15222Y38349D01*
X15236Y38358D01*
X15250Y38366D01*
X15264Y38373D01*
X15278Y38378D01*
X15292Y38383D01*
X15304Y38386D01*
X15317Y38389D01*
X15328Y38391D01*
X15338Y38393D01*
X15346Y38394D01*
X15353Y38395D01*
X15500D01*
X15498Y38411D01*
X15494Y38426D01*
X15485Y38456D01*
X15473Y38484D01*
X15462Y38508D01*
X15455Y38519D01*
X15449Y38529D01*
X15444Y38537D01*
X15439Y38545D01*
X15435Y38550D01*
X15432Y38555D01*
X15430Y38557D01*
X15429Y38558D01*
X15414Y38576D01*
X15399Y38591D01*
X15383Y38606D01*
X15367Y38619D01*
X15352Y38631D01*
X15337Y38641D01*
X15322Y38650D01*
X15308Y38658D01*
X15295Y38664D01*
X15283Y38670D01*
X15273Y38674D01*
X15264Y38677D01*
X15256Y38680D01*
X15251Y38682D01*
X15247Y38683D01*
X15246D01*
X15238Y38687D01*
X15232Y38692D01*
X15228Y38699D01*
X15225Y38706D01*
X15223Y38713D01*
X15222Y38718D01*
Y38723D01*
Y38724D01*
X15223Y38732D01*
X15224Y38740D01*
X15229Y38752D01*
X15237Y38760D01*
X15246Y38766D01*
X15255Y38770D01*
X15262Y38771D01*
X15268Y38772D01*
X15276D01*
X15283Y38770D01*
D02*
G37*
G36*
X11854Y37470D02*
X11879Y37465D01*
X11903Y37456D01*
X11925Y37445D01*
X11946Y37432D01*
X11965Y37418D01*
X11982Y37402D01*
X11998Y37387D01*
X12012Y37371D01*
X12025Y37355D01*
X12035Y37341D01*
X12044Y37328D01*
X12051Y37317D01*
X12056Y37308D01*
X12059Y37303D01*
X12060Y37302D01*
Y37301D01*
X12063Y37295D01*
X12064Y37289D01*
X12065Y37284D01*
Y37283D01*
Y37282D01*
X12064Y37274D01*
X12063Y37266D01*
X12057Y37254D01*
X12050Y37246D01*
X12041Y37240D01*
X12032Y37237D01*
X12024Y37235D01*
X12019Y37234D01*
X12017D01*
X12007Y37235D01*
X11999Y37238D01*
X11992Y37241D01*
X11986Y37246D01*
X11982Y37250D01*
X11978Y37253D01*
X11977Y37256D01*
X11976Y37257D01*
X11963Y37278D01*
X11950Y37297D01*
X11937Y37313D01*
X11924Y37326D01*
X11912Y37338D01*
X11899Y37348D01*
X11888Y37356D01*
X11876Y37362D01*
X11866Y37367D01*
X11857Y37371D01*
X11849Y37373D01*
X11842Y37375D01*
X11836Y37376D01*
X11832Y37377D01*
X11828D01*
X11807Y37375D01*
X11787Y37370D01*
X11770Y37364D01*
X11756Y37356D01*
X11744Y37348D01*
X11735Y37342D01*
X11730Y37337D01*
X11728Y37335D01*
X11714Y37319D01*
X11704Y37302D01*
X11696Y37285D01*
X11691Y37269D01*
X11688Y37255D01*
X11687Y37244D01*
X11686Y37240D01*
Y37237D01*
Y37235D01*
Y37234D01*
X11687Y37219D01*
X11690Y37205D01*
X11693Y37192D01*
X11697Y37180D01*
X11702Y37170D01*
X11705Y37163D01*
X11708Y37158D01*
X11709Y37156D01*
X12057Y36599D01*
X12062Y36589D01*
X12064Y36581D01*
X12065Y36574D01*
Y36573D01*
Y36572D01*
X12064Y36564D01*
X12063Y36557D01*
X12057Y36545D01*
X12050Y36537D01*
X12041Y36531D01*
X12032Y36528D01*
X12024Y36526D01*
X12019Y36525D01*
X11638D01*
X11630Y36526D01*
X11622Y36527D01*
X11611Y36532D01*
X11602Y36540D01*
X11597Y36549D01*
X11593Y36557D01*
X11592Y36565D01*
X11591Y36570D01*
Y36572D01*
Y36580D01*
X11593Y36588D01*
X11598Y36600D01*
X11606Y36608D01*
X11614Y36614D01*
X11623Y36618D01*
X11631Y36619D01*
X11636Y36620D01*
X11933D01*
X11634Y37098D01*
X11626Y37111D01*
X11620Y37124D01*
X11609Y37149D01*
X11601Y37172D01*
X11596Y37192D01*
X11595Y37202D01*
X11593Y37210D01*
X11592Y37217D01*
Y37223D01*
X11591Y37228D01*
Y37232D01*
Y37234D01*
Y37235D01*
X11592Y37253D01*
X11594Y37270D01*
X11597Y37287D01*
X11602Y37302D01*
X11607Y37317D01*
X11613Y37331D01*
X11619Y37344D01*
X11626Y37355D01*
X11632Y37366D01*
X11639Y37375D01*
X11645Y37383D01*
X11650Y37390D01*
X11655Y37395D01*
X11658Y37399D01*
X11660Y37401D01*
X11661Y37402D01*
X11674Y37414D01*
X11688Y37425D01*
X11702Y37434D01*
X11716Y37443D01*
X11730Y37449D01*
X11744Y37455D01*
X11758Y37460D01*
X11770Y37463D01*
X11782Y37466D01*
X11793Y37468D01*
X11803Y37470D01*
X11812Y37471D01*
X11818Y37472D01*
X11841D01*
X11854Y37470D01*
D02*
G37*
G36*
X12507Y37471D02*
X12525Y37469D01*
X12541Y37466D01*
X12557Y37461D01*
X12572Y37456D01*
X12586Y37450D01*
X12598Y37444D01*
X12610Y37437D01*
X12621Y37431D01*
X12630Y37424D01*
X12638Y37418D01*
X12645Y37413D01*
X12650Y37408D01*
X12654Y37405D01*
X12656Y37403D01*
X12657Y37402D01*
X12668Y37389D01*
X12679Y37375D01*
X12688Y37361D01*
X12696Y37347D01*
X12703Y37333D01*
X12708Y37319D01*
X12713Y37305D01*
X12716Y37293D01*
X12719Y37281D01*
X12721Y37270D01*
X12723Y37260D01*
X12724Y37251D01*
X12725Y37245D01*
Y37239D01*
Y37236D01*
Y37235D01*
Y36762D01*
X12724Y36744D01*
X12722Y36726D01*
X12719Y36710D01*
X12714Y36694D01*
X12709Y36679D01*
X12703Y36665D01*
X12697Y36653D01*
X12690Y36641D01*
X12684Y36630D01*
X12678Y36621D01*
X12672Y36613D01*
X12667Y36606D01*
X12663Y36601D01*
X12660Y36597D01*
X12658Y36595D01*
X12657Y36594D01*
X12644Y36582D01*
X12630Y36571D01*
X12616Y36562D01*
X12602Y36554D01*
X12587Y36547D01*
X12573Y36542D01*
X12560Y36537D01*
X12547Y36534D01*
X12535Y36531D01*
X12524Y36529D01*
X12514Y36527D01*
X12506Y36526D01*
X12499Y36525D01*
X12300D01*
X12292Y36526D01*
X12284Y36527D01*
X12273Y36532D01*
X12264Y36540D01*
X12259Y36549D01*
X12255Y36557D01*
X12254Y36565D01*
X12253Y36570D01*
Y36572D01*
Y36580D01*
X12255Y36588D01*
X12260Y36600D01*
X12268Y36608D01*
X12276Y36614D01*
X12285Y36618D01*
X12293Y36619D01*
X12298Y36620D01*
X12489D01*
X12510Y36622D01*
X12530Y36626D01*
X12547Y36633D01*
X12562Y36641D01*
X12574Y36648D01*
X12582Y36655D01*
X12588Y36659D01*
X12590Y36661D01*
X12604Y36677D01*
X12614Y36695D01*
X12621Y36711D01*
X12626Y36727D01*
X12629Y36741D01*
X12630Y36752D01*
X12631Y36756D01*
Y36759D01*
Y36761D01*
Y36762D01*
Y37234D01*
X12629Y37255D01*
X12625Y37275D01*
X12618Y37292D01*
X12610Y37307D01*
X12603Y37319D01*
X12596Y37328D01*
X12592Y37333D01*
X12590Y37335D01*
X12574Y37349D01*
X12557Y37359D01*
X12540Y37367D01*
X12524Y37372D01*
X12510Y37375D01*
X12499Y37376D01*
X12495Y37377D01*
X12300D01*
X12292Y37378D01*
X12284Y37379D01*
X12273Y37384D01*
X12264Y37392D01*
X12259Y37401D01*
X12255Y37409D01*
X12254Y37417D01*
X12253Y37422D01*
Y37424D01*
Y37432D01*
X12255Y37440D01*
X12260Y37452D01*
X12268Y37460D01*
X12276Y37466D01*
X12285Y37470D01*
X12293Y37471D01*
X12298Y37472D01*
X12489D01*
X12507Y37471D01*
D02*
G37*
G36*
X11363D02*
X11370Y37470D01*
X11382Y37465D01*
X11390Y37457D01*
X11396Y37448D01*
X11399Y37439D01*
X11401Y37432D01*
X11402Y37426D01*
Y37425D01*
Y37424D01*
Y37045D01*
X11401Y37037D01*
X11400Y37030D01*
X11395Y37018D01*
X11387Y37010D01*
X11378Y37004D01*
X11370Y37001D01*
X11362Y36999D01*
X11357Y36998D01*
X11166D01*
X11145Y36996D01*
X11126Y36991D01*
X11109Y36985D01*
X11094Y36977D01*
X11082Y36969D01*
X11073Y36963D01*
X11068Y36958D01*
X11066Y36956D01*
X11052Y36940D01*
X11042Y36923D01*
X11034Y36907D01*
X11029Y36891D01*
X11026Y36877D01*
X11025Y36866D01*
X11024Y36862D01*
Y36859D01*
Y36857D01*
Y36856D01*
Y36762D01*
X11026Y36740D01*
X11031Y36721D01*
X11037Y36704D01*
X11045Y36689D01*
X11053Y36677D01*
X11059Y36668D01*
X11064Y36663D01*
X11066Y36661D01*
X11082Y36647D01*
X11099Y36637D01*
X11116Y36630D01*
X11131Y36625D01*
X11145Y36622D01*
X11156Y36621D01*
X11160Y36620D01*
X11355D01*
X11363Y36619D01*
X11370Y36618D01*
X11382Y36613D01*
X11390Y36605D01*
X11396Y36596D01*
X11399Y36587D01*
X11401Y36580D01*
X11402Y36574D01*
Y36573D01*
Y36572D01*
X11401Y36564D01*
X11400Y36557D01*
X11395Y36545D01*
X11387Y36537D01*
X11378Y36531D01*
X11370Y36528D01*
X11362Y36526D01*
X11357Y36525D01*
X11166D01*
X11148Y36526D01*
X11131Y36528D01*
X11115Y36531D01*
X11099Y36536D01*
X11084Y36541D01*
X11071Y36547D01*
X11058Y36553D01*
X11046Y36560D01*
X11036Y36566D01*
X11026Y36572D01*
X11018Y36578D01*
X11011Y36583D01*
X11006Y36588D01*
X11002Y36591D01*
X11000Y36593D01*
X10999Y36594D01*
X10988Y36607D01*
X10977Y36621D01*
X10968Y36635D01*
X10959Y36649D01*
X10953Y36664D01*
X10947Y36678D01*
X10942Y36691D01*
X10939Y36704D01*
X10936Y36716D01*
X10934Y36727D01*
X10932Y36737D01*
X10931Y36745D01*
X10930Y36752D01*
Y36758D01*
Y36761D01*
Y36762D01*
Y36856D01*
X10931Y36874D01*
X10933Y36891D01*
X10936Y36908D01*
X10941Y36923D01*
X10946Y36937D01*
X10952Y36951D01*
X10958Y36964D01*
X10965Y36976D01*
X10971Y36986D01*
X10978Y36996D01*
X10984Y37004D01*
X10988Y37011D01*
X10993Y37016D01*
X10996Y37020D01*
X10998Y37022D01*
X10999Y37023D01*
X11012Y37035D01*
X11026Y37046D01*
X11040Y37055D01*
X11054Y37064D01*
X11068Y37070D01*
X11082Y37076D01*
X11096Y37081D01*
X11108Y37084D01*
X11120Y37087D01*
X11131Y37089D01*
X11141Y37091D01*
X11150Y37092D01*
X11156Y37093D01*
X11307D01*
Y37377D01*
X11024D01*
X11016Y37378D01*
X11008Y37379D01*
X10997Y37384D01*
X10988Y37392D01*
X10984Y37401D01*
X10980Y37409D01*
X10979Y37417D01*
X10978Y37422D01*
Y37424D01*
Y37432D01*
X10980Y37440D01*
X10984Y37452D01*
X10992Y37460D01*
X11000Y37466D01*
X11009Y37470D01*
X11017Y37471D01*
X11022Y37472D01*
X11355D01*
X11363Y37471D01*
D02*
G37*
G36*
X5974Y35183D02*
X5999Y35178D01*
X6023Y35169D01*
X6045Y35158D01*
X6066Y35145D01*
X6085Y35131D01*
X6102Y35115D01*
X6118Y35100D01*
X6132Y35084D01*
X6145Y35068D01*
X6155Y35054D01*
X6164Y35041D01*
X6171Y35030D01*
X6176Y35021D01*
X6179Y35016D01*
X6180Y35015D01*
Y35014D01*
X6182Y35008D01*
X6183Y35002D01*
X6184Y34997D01*
Y34996D01*
Y34995D01*
X6183Y34987D01*
X6182Y34979D01*
X6177Y34967D01*
X6170Y34959D01*
X6161Y34953D01*
X6152Y34950D01*
X6144Y34948D01*
X6139Y34947D01*
X6137D01*
X6127Y34948D01*
X6119Y34951D01*
X6112Y34954D01*
X6106Y34959D01*
X6102Y34963D01*
X6098Y34966D01*
X6097Y34969D01*
X6096Y34970D01*
X6083Y34991D01*
X6070Y35010D01*
X6057Y35026D01*
X6044Y35039D01*
X6032Y35051D01*
X6019Y35061D01*
X6008Y35069D01*
X5996Y35075D01*
X5986Y35080D01*
X5977Y35084D01*
X5969Y35086D01*
X5962Y35088D01*
X5956Y35089D01*
X5952Y35090D01*
X5948D01*
X5927Y35088D01*
X5907Y35083D01*
X5890Y35077D01*
X5876Y35069D01*
X5864Y35061D01*
X5855Y35055D01*
X5850Y35050D01*
X5848Y35048D01*
X5834Y35032D01*
X5824Y35015D01*
X5816Y34998D01*
X5811Y34982D01*
X5808Y34968D01*
X5807Y34957D01*
X5806Y34953D01*
Y34950D01*
Y34948D01*
Y34947D01*
X5807Y34932D01*
X5810Y34918D01*
X5813Y34905D01*
X5817Y34893D01*
X5822Y34883D01*
X5825Y34876D01*
X5828Y34871D01*
X5829Y34869D01*
X6177Y34312D01*
X6181Y34302D01*
X6183Y34294D01*
X6184Y34287D01*
Y34286D01*
Y34285D01*
X6183Y34277D01*
X6182Y34270D01*
X6177Y34258D01*
X6170Y34250D01*
X6161Y34244D01*
X6152Y34241D01*
X6144Y34239D01*
X6139Y34238D01*
X5758D01*
X5750Y34239D01*
X5742Y34240D01*
X5731Y34245D01*
X5722Y34253D01*
X5717Y34262D01*
X5713Y34270D01*
X5712Y34278D01*
X5711Y34283D01*
Y34285D01*
Y34293D01*
X5713Y34301D01*
X5718Y34313D01*
X5726Y34321D01*
X5734Y34327D01*
X5743Y34331D01*
X5751Y34332D01*
X5756Y34333D01*
X6053D01*
X5754Y34811D01*
X5746Y34824D01*
X5740Y34837D01*
X5729Y34862D01*
X5721Y34885D01*
X5716Y34905D01*
X5715Y34915D01*
X5713Y34923D01*
X5712Y34930D01*
Y34936D01*
X5711Y34941D01*
Y34945D01*
Y34947D01*
Y34948D01*
X5712Y34966D01*
X5714Y34983D01*
X5717Y35000D01*
X5722Y35015D01*
X5727Y35030D01*
X5733Y35044D01*
X5739Y35057D01*
X5746Y35068D01*
X5752Y35079D01*
X5759Y35088D01*
X5765Y35096D01*
X5770Y35103D01*
X5775Y35108D01*
X5778Y35112D01*
X5780Y35114D01*
X5781Y35115D01*
X5794Y35127D01*
X5808Y35138D01*
X5822Y35147D01*
X5836Y35156D01*
X5850Y35162D01*
X5864Y35168D01*
X5878Y35173D01*
X5890Y35176D01*
X5902Y35179D01*
X5913Y35181D01*
X5923Y35183D01*
X5932Y35184D01*
X5938Y35185D01*
X5961D01*
X5974Y35183D01*
D02*
G37*
G36*
X5298D02*
X5308Y35179D01*
X5316Y35173D01*
X5322Y35167D01*
X5327Y35160D01*
X5330Y35155D01*
X5331Y35151D01*
X5332Y35149D01*
X5522Y34487D01*
X5523Y34483D01*
Y34479D01*
Y34475D01*
Y34474D01*
X5522Y34466D01*
X5521Y34459D01*
X5516Y34447D01*
X5508Y34439D01*
X5499Y34433D01*
X5491Y34430D01*
X5483Y34428D01*
X5478Y34427D01*
X5191D01*
Y34285D01*
X5190Y34277D01*
X5189Y34270D01*
X5184Y34258D01*
X5176Y34250D01*
X5167Y34244D01*
X5159Y34241D01*
X5151Y34239D01*
X5146Y34238D01*
X5144D01*
X5136Y34239D01*
X5128Y34240D01*
X5116Y34245D01*
X5108Y34253D01*
X5102Y34262D01*
X5098Y34270D01*
X5097Y34278D01*
X5096Y34283D01*
Y34285D01*
Y34427D01*
X5003D01*
X4995Y34428D01*
X4987Y34429D01*
X4975Y34434D01*
X4967Y34442D01*
X4961Y34451D01*
X4957Y34459D01*
X4956Y34467D01*
X4955Y34472D01*
Y34474D01*
X4956Y34482D01*
X4957Y34490D01*
X4962Y34502D01*
X4970Y34510D01*
X4979Y34516D01*
X4988Y34520D01*
X4995Y34521D01*
X5001Y34522D01*
X5096D01*
Y34664D01*
X5097Y34672D01*
X5098Y34680D01*
X5103Y34691D01*
X5111Y34700D01*
X5120Y34705D01*
X5129Y34709D01*
X5136Y34710D01*
X5142Y34711D01*
X5152D01*
X5159Y34709D01*
X5171Y34704D01*
X5179Y34696D01*
X5185Y34688D01*
X5188Y34679D01*
X5190Y34671D01*
X5191Y34666D01*
Y34665D01*
Y34664D01*
Y34522D01*
X5413D01*
X5241Y35123D01*
X5240Y35128D01*
X5239Y35132D01*
Y35135D01*
Y35136D01*
Y35144D01*
X5241Y35152D01*
X5246Y35164D01*
X5254Y35172D01*
X5262Y35178D01*
X5271Y35182D01*
X5279Y35183D01*
X5284Y35184D01*
X5286D01*
X5298Y35183D01*
D02*
G37*
G36*
X6627Y35184D02*
X6645Y35182D01*
X6661Y35179D01*
X6677Y35174D01*
X6692Y35169D01*
X6706Y35163D01*
X6718Y35157D01*
X6730Y35150D01*
X6740Y35144D01*
X6749Y35137D01*
X6757Y35131D01*
X6764Y35126D01*
X6769Y35121D01*
X6773Y35118D01*
X6775Y35116D01*
X6776Y35115D01*
X6788Y35102D01*
X6799Y35088D01*
X6808Y35074D01*
X6816Y35060D01*
X6823Y35046D01*
X6828Y35032D01*
X6833Y35018D01*
X6836Y35006D01*
X6839Y34994D01*
X6841Y34983D01*
X6843Y34973D01*
X6844Y34964D01*
X6845Y34958D01*
Y34952D01*
Y34949D01*
Y34948D01*
Y34475D01*
X6844Y34457D01*
X6842Y34439D01*
X6839Y34423D01*
X6834Y34407D01*
X6829Y34392D01*
X6823Y34378D01*
X6817Y34366D01*
X6810Y34354D01*
X6804Y34343D01*
X6798Y34334D01*
X6792Y34326D01*
X6787Y34319D01*
X6782Y34314D01*
X6779Y34310D01*
X6777Y34308D01*
X6776Y34307D01*
X6763Y34295D01*
X6749Y34284D01*
X6736Y34275D01*
X6722Y34267D01*
X6707Y34260D01*
X6693Y34255D01*
X6680Y34250D01*
X6667Y34247D01*
X6655Y34244D01*
X6644Y34242D01*
X6634Y34240D01*
X6626Y34239D01*
X6619Y34238D01*
X6420D01*
X6412Y34239D01*
X6404Y34240D01*
X6393Y34245D01*
X6384Y34253D01*
X6379Y34262D01*
X6375Y34270D01*
X6374Y34278D01*
X6373Y34283D01*
Y34285D01*
Y34293D01*
X6375Y34301D01*
X6380Y34313D01*
X6388Y34321D01*
X6396Y34327D01*
X6405Y34331D01*
X6413Y34332D01*
X6418Y34333D01*
X6609D01*
X6630Y34335D01*
X6650Y34339D01*
X6667Y34346D01*
X6682Y34354D01*
X6694Y34361D01*
X6702Y34368D01*
X6708Y34372D01*
X6710Y34374D01*
X6724Y34390D01*
X6734Y34408D01*
X6740Y34424D01*
X6745Y34440D01*
X6748Y34454D01*
X6749Y34465D01*
X6750Y34469D01*
Y34472D01*
Y34474D01*
Y34475D01*
Y34947D01*
X6748Y34968D01*
X6745Y34988D01*
X6738Y35005D01*
X6730Y35020D01*
X6723Y35032D01*
X6716Y35041D01*
X6712Y35046D01*
X6710Y35048D01*
X6694Y35062D01*
X6677Y35072D01*
X6660Y35080D01*
X6644Y35085D01*
X6630Y35088D01*
X6619Y35089D01*
X6615Y35090D01*
X6420D01*
X6412Y35091D01*
X6404Y35092D01*
X6393Y35097D01*
X6384Y35105D01*
X6379Y35114D01*
X6375Y35122D01*
X6374Y35130D01*
X6373Y35135D01*
Y35137D01*
Y35145D01*
X6375Y35153D01*
X6380Y35165D01*
X6388Y35173D01*
X6396Y35179D01*
X6405Y35183D01*
X6413Y35184D01*
X6418Y35185D01*
X6609D01*
X6627Y35184D01*
D02*
G37*
G36*
X13827Y1746D02*
X13852Y1741D01*
X13876Y1732D01*
X13898Y1721D01*
X13919Y1708D01*
X13938Y1694D01*
X13955Y1678D01*
X13971Y1663D01*
X13985Y1647D01*
X13998Y1631D01*
X14008Y1617D01*
X14017Y1604D01*
X14024Y1593D01*
X14029Y1584D01*
X14032Y1579D01*
X14033Y1578D01*
Y1577D01*
X14036Y1571D01*
X14037Y1565D01*
X14038Y1560D01*
Y1559D01*
Y1559D01*
X14037Y1551D01*
X14036Y1543D01*
X14030Y1531D01*
X14023Y1523D01*
X14014Y1517D01*
X14005Y1514D01*
X13997Y1512D01*
X13992Y1511D01*
X13990D01*
X13980Y1512D01*
X13972Y1515D01*
X13965Y1518D01*
X13959Y1523D01*
X13955Y1527D01*
X13951Y1530D01*
X13950Y1533D01*
X13949Y1534D01*
X13936Y1554D01*
X13923Y1573D01*
X13910Y1589D01*
X13897Y1602D01*
X13885Y1614D01*
X13872Y1624D01*
X13861Y1632D01*
X13849Y1638D01*
X13839Y1643D01*
X13830Y1647D01*
X13822Y1649D01*
X13815Y1651D01*
X13809Y1652D01*
X13805Y1653D01*
X13801D01*
X13780Y1651D01*
X13760Y1646D01*
X13743Y1640D01*
X13729Y1632D01*
X13717Y1624D01*
X13708Y1618D01*
X13703Y1613D01*
X13701Y1611D01*
X13687Y1595D01*
X13677Y1578D01*
X13669Y1561D01*
X13664Y1546D01*
X13661Y1532D01*
X13660Y1521D01*
X13659Y1517D01*
Y1514D01*
Y1512D01*
Y1511D01*
X13660Y1496D01*
X13663Y1482D01*
X13666Y1469D01*
X13670Y1457D01*
X13675Y1447D01*
X13678Y1440D01*
X13681Y1435D01*
X13682Y1433D01*
X14030Y876D01*
X14035Y866D01*
X14037Y858D01*
X14038Y851D01*
Y850D01*
Y849D01*
X14037Y841D01*
X14036Y834D01*
X14030Y822D01*
X14023Y814D01*
X14014Y808D01*
X14005Y805D01*
X13997Y803D01*
X13992Y802D01*
X13611D01*
X13603Y803D01*
X13595Y804D01*
X13584Y809D01*
X13575Y817D01*
X13570Y826D01*
X13566Y834D01*
X13565Y842D01*
X13564Y847D01*
Y849D01*
Y857D01*
X13566Y865D01*
X13571Y877D01*
X13579Y885D01*
X13587Y891D01*
X13596Y895D01*
X13604Y896D01*
X13609Y897D01*
X13906D01*
X13607Y1375D01*
X13599Y1388D01*
X13593Y1401D01*
X13582Y1426D01*
X13574Y1449D01*
X13569Y1469D01*
X13568Y1479D01*
X13566Y1487D01*
X13565Y1494D01*
Y1500D01*
X13564Y1505D01*
Y1509D01*
Y1511D01*
Y1512D01*
X13565Y1530D01*
X13567Y1547D01*
X13570Y1563D01*
X13575Y1578D01*
X13580Y1593D01*
X13586Y1607D01*
X13592Y1620D01*
X13599Y1631D01*
X13605Y1642D01*
X13612Y1651D01*
X13618Y1659D01*
X13623Y1666D01*
X13628Y1671D01*
X13631Y1675D01*
X13633Y1677D01*
X13634Y1678D01*
X13647Y1690D01*
X13661Y1701D01*
X13675Y1710D01*
X13689Y1719D01*
X13703Y1725D01*
X13717Y1731D01*
X13731Y1736D01*
X13743Y1739D01*
X13755Y1742D01*
X13766Y1744D01*
X13776Y1746D01*
X13785Y1747D01*
X13791Y1748D01*
X13814D01*
X13827Y1746D01*
D02*
G37*
G36*
X14480Y1747D02*
X14498Y1745D01*
X14514Y1742D01*
X14530Y1737D01*
X14545Y1732D01*
X14559Y1726D01*
X14571Y1720D01*
X14583Y1713D01*
X14594Y1707D01*
X14603Y1700D01*
X14611Y1694D01*
X14618Y1689D01*
X14623Y1684D01*
X14627Y1681D01*
X14629Y1679D01*
X14630Y1678D01*
X14642Y1665D01*
X14652Y1651D01*
X14661Y1637D01*
X14669Y1623D01*
X14676Y1609D01*
X14681Y1595D01*
X14686Y1581D01*
X14689Y1569D01*
X14692Y1558D01*
X14694Y1547D01*
X14696Y1537D01*
X14697Y1528D01*
X14698Y1522D01*
Y1516D01*
Y1513D01*
Y1512D01*
Y1038D01*
X14697Y1020D01*
X14695Y1002D01*
X14692Y987D01*
X14687Y971D01*
X14682Y956D01*
X14676Y942D01*
X14670Y930D01*
X14663Y918D01*
X14657Y907D01*
X14651Y898D01*
X14645Y890D01*
X14641Y883D01*
X14636Y878D01*
X14633Y874D01*
X14631Y872D01*
X14630Y871D01*
X14617Y859D01*
X14603Y848D01*
X14589Y839D01*
X14575Y831D01*
X14560Y824D01*
X14546Y819D01*
X14533Y814D01*
X14520Y811D01*
X14508Y808D01*
X14497Y806D01*
X14487Y804D01*
X14479Y803D01*
X14472Y802D01*
X14273D01*
X14265Y803D01*
X14257Y804D01*
X14246Y809D01*
X14237Y817D01*
X14232Y826D01*
X14228Y834D01*
X14227Y842D01*
X14226Y847D01*
Y849D01*
Y857D01*
X14228Y865D01*
X14233Y877D01*
X14241Y885D01*
X14249Y891D01*
X14258Y895D01*
X14266Y896D01*
X14271Y897D01*
X14462D01*
X14483Y899D01*
X14503Y903D01*
X14520Y910D01*
X14535Y918D01*
X14547Y925D01*
X14555Y932D01*
X14561Y936D01*
X14563Y938D01*
X14577Y954D01*
X14587Y972D01*
X14594Y988D01*
X14599Y1003D01*
X14602Y1017D01*
X14603Y1028D01*
X14604Y1032D01*
Y1035D01*
Y1037D01*
Y1038D01*
Y1511D01*
X14602Y1532D01*
X14598Y1552D01*
X14591Y1568D01*
X14583Y1583D01*
X14576Y1595D01*
X14569Y1604D01*
X14565Y1609D01*
X14563Y1611D01*
X14547Y1625D01*
X14530Y1635D01*
X14513Y1643D01*
X14497Y1648D01*
X14483Y1651D01*
X14472Y1652D01*
X14468Y1653D01*
X14273D01*
X14265Y1654D01*
X14257Y1655D01*
X14246Y1660D01*
X14237Y1668D01*
X14232Y1677D01*
X14228Y1685D01*
X14227Y1693D01*
X14226Y1698D01*
Y1700D01*
Y1708D01*
X14228Y1716D01*
X14233Y1728D01*
X14241Y1736D01*
X14249Y1742D01*
X14258Y1746D01*
X14266Y1747D01*
X14271Y1748D01*
X14462D01*
X14480Y1747D01*
D02*
G37*
G36*
X13336D02*
X13343Y1746D01*
X13355Y1741D01*
X13363Y1733D01*
X13369Y1724D01*
X13372Y1715D01*
X13374Y1708D01*
X13375Y1702D01*
Y1701D01*
Y1700D01*
X13374Y1692D01*
X13373Y1685D01*
X13368Y1673D01*
X13360Y1665D01*
X13351Y1659D01*
X13343Y1656D01*
X13335Y1654D01*
X13330Y1653D01*
X13139D01*
X13118Y1651D01*
X13098Y1646D01*
X13081Y1640D01*
X13066Y1632D01*
X13054Y1624D01*
X13045Y1618D01*
X13040Y1613D01*
X13038Y1611D01*
X13024Y1595D01*
X13014Y1578D01*
X13006Y1561D01*
X13001Y1546D01*
X12998Y1533D01*
X12997Y1522D01*
X12996Y1518D01*
Y1515D01*
Y1513D01*
Y1512D01*
X12998Y1490D01*
X13003Y1471D01*
X13009Y1454D01*
X13017Y1439D01*
X13025Y1427D01*
X13031Y1418D01*
X13036Y1413D01*
X13038Y1411D01*
X13054Y1397D01*
X13071Y1387D01*
X13088Y1380D01*
X13104Y1375D01*
X13118Y1372D01*
X13129Y1371D01*
X13133Y1370D01*
X13233D01*
X13241Y1369D01*
X13249Y1368D01*
X13261Y1363D01*
X13269Y1355D01*
X13275Y1346D01*
X13278Y1337D01*
X13280Y1330D01*
X13281Y1324D01*
Y1323D01*
Y1322D01*
X13280Y1314D01*
X13279Y1307D01*
X13273Y1295D01*
X13266Y1287D01*
X13257Y1281D01*
X13248Y1278D01*
X13240Y1276D01*
X13235Y1275D01*
X13139D01*
X13118Y1273D01*
X13098Y1268D01*
X13081Y1262D01*
X13066Y1254D01*
X13054Y1246D01*
X13045Y1240D01*
X13040Y1235D01*
X13038Y1233D01*
X13024Y1217D01*
X13014Y1200D01*
X13006Y1183D01*
X13001Y1167D01*
X12998Y1153D01*
X12997Y1142D01*
X12996Y1138D01*
Y1135D01*
Y1133D01*
Y1132D01*
Y1038D01*
X12998Y1016D01*
X13003Y998D01*
X13009Y981D01*
X13017Y966D01*
X13025Y954D01*
X13031Y945D01*
X13036Y940D01*
X13038Y938D01*
X13054Y924D01*
X13071Y914D01*
X13088Y907D01*
X13104Y902D01*
X13118Y899D01*
X13129Y898D01*
X13133Y897D01*
X13328D01*
X13336Y896D01*
X13343Y895D01*
X13355Y890D01*
X13363Y882D01*
X13369Y873D01*
X13372Y864D01*
X13374Y857D01*
X13375Y851D01*
Y850D01*
Y849D01*
X13374Y841D01*
X13373Y834D01*
X13368Y822D01*
X13360Y814D01*
X13351Y808D01*
X13343Y805D01*
X13335Y803D01*
X13330Y802D01*
X13139D01*
X13121Y803D01*
X13104Y805D01*
X13087Y808D01*
X13071Y813D01*
X13057Y818D01*
X13043Y824D01*
X13030Y830D01*
X13018Y837D01*
X13008Y843D01*
X12998Y849D01*
X12990Y855D01*
X12983Y860D01*
X12978Y865D01*
X12974Y868D01*
X12972Y870D01*
X12971Y871D01*
X12960Y884D01*
X12949Y898D01*
X12940Y912D01*
X12931Y926D01*
X12925Y941D01*
X12919Y955D01*
X12914Y968D01*
X12911Y981D01*
X12908Y993D01*
X12906Y1003D01*
X12904Y1013D01*
X12903Y1021D01*
X12902Y1028D01*
Y1034D01*
Y1037D01*
Y1038D01*
Y1132D01*
X12903Y1154D01*
X12906Y1174D01*
X12911Y1193D01*
X12917Y1212D01*
X12924Y1228D01*
X12932Y1244D01*
X12941Y1258D01*
X12949Y1271D01*
X12958Y1283D01*
X12966Y1293D01*
X12974Y1302D01*
X12981Y1309D01*
X12987Y1315D01*
X12992Y1319D01*
X12995Y1321D01*
X12996Y1322D01*
X12979Y1336D01*
X12965Y1351D01*
X12953Y1366D01*
X12942Y1382D01*
X12933Y1398D01*
X12925Y1414D01*
X12919Y1429D01*
X12914Y1444D01*
X12910Y1458D01*
X12907Y1471D01*
X12905Y1482D01*
X12903Y1492D01*
Y1501D01*
X12902Y1507D01*
Y1511D01*
Y1512D01*
X12903Y1530D01*
X12905Y1547D01*
X12908Y1562D01*
X12913Y1578D01*
X12918Y1593D01*
X12924Y1606D01*
X12930Y1619D01*
X12937Y1631D01*
X12943Y1641D01*
X12950Y1651D01*
X12956Y1659D01*
X12960Y1666D01*
X12965Y1671D01*
X12968Y1675D01*
X12970Y1677D01*
X12971Y1678D01*
X12984Y1690D01*
X12998Y1701D01*
X13012Y1710D01*
X13026Y1719D01*
X13041Y1725D01*
X13054Y1731D01*
X13068Y1736D01*
X13081Y1739D01*
X13093Y1742D01*
X13104Y1744D01*
X13114Y1746D01*
X13122Y1747D01*
X13129Y1748D01*
X13328D01*
X13336Y1747D01*
D02*
G37*
G36*
X18626Y38421D02*
X18651Y38416D01*
X18675Y38407D01*
X18697Y38396D01*
X18718Y38383D01*
X18737Y38369D01*
X18754Y38353D01*
X18770Y38338D01*
X18784Y38322D01*
X18797Y38306D01*
X18807Y38292D01*
X18816Y38279D01*
X18823Y38268D01*
X18828Y38259D01*
X18831Y38254D01*
X18832Y38253D01*
Y38252D01*
X18835Y38246D01*
X18836Y38240D01*
X18837Y38235D01*
Y38234D01*
Y38233D01*
X18836Y38226D01*
X18835Y38218D01*
X18829Y38206D01*
X18822Y38198D01*
X18813Y38192D01*
X18804Y38189D01*
X18796Y38187D01*
X18791Y38186D01*
X18789D01*
X18779Y38187D01*
X18771Y38190D01*
X18764Y38193D01*
X18758Y38198D01*
X18754Y38202D01*
X18750Y38205D01*
X18749Y38208D01*
X18748Y38209D01*
X18735Y38229D01*
X18722Y38248D01*
X18709Y38264D01*
X18696Y38277D01*
X18684Y38289D01*
X18671Y38299D01*
X18660Y38307D01*
X18648Y38313D01*
X18638Y38318D01*
X18629Y38322D01*
X18621Y38324D01*
X18614Y38326D01*
X18608Y38327D01*
X18604Y38328D01*
X18601D01*
X18580Y38326D01*
X18560Y38321D01*
X18543Y38315D01*
X18529Y38307D01*
X18517Y38299D01*
X18508Y38293D01*
X18503Y38288D01*
X18501Y38286D01*
X18487Y38270D01*
X18477Y38253D01*
X18469Y38236D01*
X18464Y38221D01*
X18461Y38207D01*
X18460Y38196D01*
X18459Y38192D01*
Y38189D01*
Y38187D01*
Y38186D01*
X18460Y38171D01*
X18463Y38157D01*
X18466Y38144D01*
X18470Y38132D01*
X18475Y38122D01*
X18478Y38115D01*
X18481Y38110D01*
X18482Y38108D01*
X18829Y37551D01*
X18834Y37541D01*
X18836Y37533D01*
X18837Y37526D01*
Y37525D01*
Y37524D01*
X18836Y37516D01*
X18835Y37509D01*
X18829Y37497D01*
X18822Y37489D01*
X18813Y37483D01*
X18804Y37480D01*
X18796Y37478D01*
X18791Y37477D01*
X18411D01*
X18403Y37478D01*
X18395Y37479D01*
X18384Y37484D01*
X18375Y37492D01*
X18370Y37501D01*
X18366Y37509D01*
X18365Y37517D01*
X18364Y37522D01*
Y37524D01*
Y37532D01*
X18366Y37540D01*
X18371Y37552D01*
X18379Y37560D01*
X18387Y37566D01*
X18396Y37570D01*
X18404Y37571D01*
X18409Y37572D01*
X18705D01*
X18407Y38050D01*
X18399Y38063D01*
X18393Y38076D01*
X18382Y38101D01*
X18374Y38124D01*
X18369Y38144D01*
X18368Y38154D01*
X18366Y38162D01*
X18365Y38169D01*
Y38175D01*
X18364Y38180D01*
Y38184D01*
Y38186D01*
Y38187D01*
X18365Y38205D01*
X18367Y38222D01*
X18370Y38238D01*
X18375Y38253D01*
X18380Y38268D01*
X18386Y38282D01*
X18392Y38295D01*
X18399Y38306D01*
X18405Y38317D01*
X18412Y38326D01*
X18418Y38334D01*
X18423Y38341D01*
X18428Y38346D01*
X18431Y38350D01*
X18433Y38352D01*
X18434Y38353D01*
X18447Y38365D01*
X18461Y38376D01*
X18475Y38385D01*
X18489Y38394D01*
X18503Y38400D01*
X18517Y38406D01*
X18531Y38411D01*
X18543Y38414D01*
X18555Y38417D01*
X18566Y38419D01*
X18576Y38421D01*
X18585Y38422D01*
X18591Y38423D01*
X18613D01*
X18626Y38421D01*
D02*
G37*
G36*
X17965D02*
X17990Y38416D01*
X18014Y38407D01*
X18036Y38396D01*
X18056Y38383D01*
X18075Y38369D01*
X18092Y38353D01*
X18108Y38338D01*
X18122Y38322D01*
X18135Y38306D01*
X18145Y38292D01*
X18154Y38279D01*
X18161Y38268D01*
X18166Y38259D01*
X18169Y38254D01*
X18170Y38253D01*
Y38252D01*
X18173Y38246D01*
X18174Y38240D01*
X18175Y38235D01*
Y38234D01*
Y38233D01*
X18174Y38226D01*
X18173Y38218D01*
X18167Y38206D01*
X18160Y38198D01*
X18151Y38192D01*
X18142Y38189D01*
X18134Y38187D01*
X18129Y38186D01*
X18127D01*
X18117Y38187D01*
X18109Y38190D01*
X18102Y38193D01*
X18096Y38198D01*
X18092Y38202D01*
X18088Y38205D01*
X18087Y38208D01*
X18086Y38209D01*
X18073Y38229D01*
X18060Y38248D01*
X18047Y38264D01*
X18035Y38277D01*
X18023Y38289D01*
X18010Y38299D01*
X17999Y38307D01*
X17987Y38313D01*
X17977Y38318D01*
X17968Y38322D01*
X17960Y38324D01*
X17953Y38326D01*
X17947Y38327D01*
X17943Y38328D01*
X17939D01*
X17918Y38326D01*
X17898Y38321D01*
X17881Y38315D01*
X17867Y38307D01*
X17855Y38299D01*
X17846Y38293D01*
X17841Y38288D01*
X17839Y38286D01*
X17825Y38270D01*
X17815Y38253D01*
X17807Y38236D01*
X17802Y38221D01*
X17799Y38207D01*
X17798Y38196D01*
X17797Y38192D01*
Y38189D01*
Y38187D01*
Y38186D01*
X17798Y38171D01*
X17801Y38157D01*
X17804Y38144D01*
X17808Y38132D01*
X17813Y38122D01*
X17816Y38115D01*
X17819Y38110D01*
X17820Y38108D01*
X18167Y37551D01*
X18172Y37541D01*
X18174Y37533D01*
X18175Y37526D01*
Y37525D01*
Y37524D01*
X18174Y37516D01*
X18173Y37509D01*
X18167Y37497D01*
X18160Y37489D01*
X18151Y37483D01*
X18142Y37480D01*
X18134Y37478D01*
X18129Y37477D01*
X17749D01*
X17741Y37478D01*
X17733Y37479D01*
X17722Y37484D01*
X17713Y37492D01*
X17708Y37501D01*
X17704Y37509D01*
X17703Y37517D01*
X17702Y37522D01*
Y37524D01*
Y37532D01*
X17704Y37540D01*
X17709Y37552D01*
X17717Y37560D01*
X17725Y37566D01*
X17734Y37570D01*
X17742Y37571D01*
X17747Y37572D01*
X18043D01*
X17745Y38050D01*
X17737Y38063D01*
X17731Y38076D01*
X17720Y38101D01*
X17712Y38124D01*
X17707Y38144D01*
X17706Y38154D01*
X17704Y38162D01*
X17703Y38169D01*
Y38175D01*
X17702Y38180D01*
Y38184D01*
Y38186D01*
Y38187D01*
X17703Y38205D01*
X17705Y38222D01*
X17708Y38238D01*
X17713Y38253D01*
X17718Y38268D01*
X17724Y38282D01*
X17730Y38295D01*
X17737Y38306D01*
X17743Y38317D01*
X17750Y38326D01*
X17756Y38334D01*
X17761Y38341D01*
X17766Y38346D01*
X17769Y38350D01*
X17771Y38352D01*
X17772Y38353D01*
X17785Y38365D01*
X17799Y38376D01*
X17813Y38385D01*
X17827Y38394D01*
X17841Y38400D01*
X17855Y38406D01*
X17869Y38411D01*
X17881Y38414D01*
X17893Y38417D01*
X17904Y38419D01*
X17914Y38421D01*
X17923Y38422D01*
X17929Y38423D01*
X17952D01*
X17965Y38421D01*
D02*
G37*
G36*
X19279Y38422D02*
X19297Y38420D01*
X19313Y38417D01*
X19329Y38412D01*
X19344Y38407D01*
X19358Y38401D01*
X19370Y38395D01*
X19382Y38388D01*
X19393Y38382D01*
X19402Y38375D01*
X19410Y38369D01*
X19417Y38364D01*
X19422Y38359D01*
X19426Y38356D01*
X19428Y38354D01*
X19429Y38353D01*
X19441Y38340D01*
X19452Y38326D01*
X19461Y38312D01*
X19469Y38298D01*
X19476Y38284D01*
X19481Y38270D01*
X19486Y38256D01*
X19489Y38244D01*
X19492Y38232D01*
X19494Y38222D01*
X19496Y38212D01*
X19497Y38203D01*
X19498Y38197D01*
Y38191D01*
Y38188D01*
Y38187D01*
Y37713D01*
X19497Y37695D01*
X19495Y37677D01*
X19492Y37662D01*
X19487Y37646D01*
X19482Y37631D01*
X19476Y37617D01*
X19470Y37605D01*
X19463Y37593D01*
X19457Y37582D01*
X19451Y37573D01*
X19445Y37565D01*
X19440Y37558D01*
X19435Y37553D01*
X19432Y37549D01*
X19430Y37547D01*
X19429Y37546D01*
X19416Y37534D01*
X19402Y37523D01*
X19388Y37514D01*
X19374Y37506D01*
X19359Y37499D01*
X19345Y37494D01*
X19332Y37489D01*
X19319Y37486D01*
X19307Y37483D01*
X19296Y37481D01*
X19286Y37479D01*
X19278Y37478D01*
X19271Y37477D01*
X19073D01*
X19065Y37478D01*
X19057Y37479D01*
X19046Y37484D01*
X19037Y37492D01*
X19032Y37501D01*
X19028Y37509D01*
X19027Y37517D01*
X19026Y37522D01*
Y37524D01*
Y37532D01*
X19028Y37540D01*
X19033Y37552D01*
X19041Y37560D01*
X19049Y37566D01*
X19058Y37570D01*
X19066Y37571D01*
X19071Y37572D01*
X19261D01*
X19282Y37574D01*
X19302Y37578D01*
X19319Y37585D01*
X19334Y37593D01*
X19346Y37600D01*
X19354Y37607D01*
X19360Y37611D01*
X19362Y37613D01*
X19376Y37629D01*
X19386Y37647D01*
X19393Y37663D01*
X19398Y37678D01*
X19401Y37692D01*
X19402Y37703D01*
X19403Y37707D01*
Y37710D01*
Y37712D01*
Y37713D01*
Y38186D01*
X19401Y38207D01*
X19397Y38227D01*
X19390Y38243D01*
X19382Y38258D01*
X19375Y38270D01*
X19368Y38279D01*
X19364Y38284D01*
X19362Y38286D01*
X19346Y38300D01*
X19329Y38310D01*
X19312Y38318D01*
X19296Y38323D01*
X19282Y38326D01*
X19271Y38327D01*
X19267Y38328D01*
X19073D01*
X19065Y38329D01*
X19057Y38330D01*
X19046Y38335D01*
X19037Y38343D01*
X19032Y38352D01*
X19028Y38360D01*
X19027Y38368D01*
X19026Y38373D01*
Y38375D01*
Y38383D01*
X19028Y38391D01*
X19033Y38403D01*
X19041Y38411D01*
X19049Y38417D01*
X19058Y38421D01*
X19066Y38422D01*
X19071Y38423D01*
X19261D01*
X19279Y38422D01*
D02*
G37*
G36*
X8730Y36149D02*
X8755Y36144D01*
X8779Y36135D01*
X8801Y36124D01*
X8822Y36111D01*
X8841Y36097D01*
X8858Y36081D01*
X8873Y36066D01*
X8887Y36050D01*
X8900Y36034D01*
X8910Y36020D01*
X8919Y36007D01*
X8926Y35996D01*
X8931Y35987D01*
X8934Y35982D01*
X8935Y35981D01*
Y35980D01*
X8938Y35974D01*
X8939Y35968D01*
X8940Y35963D01*
Y35962D01*
Y35961D01*
X8939Y35953D01*
X8938Y35945D01*
X8932Y35933D01*
X8925Y35925D01*
X8916Y35919D01*
X8907Y35916D01*
X8899Y35914D01*
X8894Y35913D01*
X8892D01*
X8882Y35914D01*
X8875Y35917D01*
X8868Y35920D01*
X8862Y35925D01*
X8858Y35929D01*
X8854Y35932D01*
X8853Y35935D01*
X8852Y35936D01*
X8839Y35957D01*
X8826Y35976D01*
X8813Y35992D01*
X8800Y36005D01*
X8788Y36017D01*
X8775Y36027D01*
X8764Y36035D01*
X8752Y36041D01*
X8742Y36046D01*
X8733Y36050D01*
X8725Y36052D01*
X8718Y36054D01*
X8712Y36055D01*
X8708Y36056D01*
X8704D01*
X8683Y36054D01*
X8663Y36049D01*
X8646Y36043D01*
X8632Y36035D01*
X8620Y36027D01*
X8611Y36021D01*
X8606Y36016D01*
X8604Y36014D01*
X8590Y35998D01*
X8580Y35981D01*
X8572Y35964D01*
X8567Y35948D01*
X8564Y35934D01*
X8563Y35923D01*
X8562Y35919D01*
Y35916D01*
Y35914D01*
Y35913D01*
X8563Y35898D01*
X8566Y35884D01*
X8569Y35871D01*
X8573Y35859D01*
X8578Y35849D01*
X8581Y35842D01*
X8584Y35837D01*
X8585Y35835D01*
X8932Y35278D01*
X8937Y35268D01*
X8939Y35260D01*
X8940Y35253D01*
Y35252D01*
Y35251D01*
X8939Y35243D01*
X8938Y35236D01*
X8932Y35224D01*
X8925Y35216D01*
X8916Y35210D01*
X8907Y35207D01*
X8899Y35205D01*
X8894Y35204D01*
X8514D01*
X8506Y35205D01*
X8498Y35206D01*
X8487Y35211D01*
X8478Y35219D01*
X8473Y35228D01*
X8469Y35236D01*
X8468Y35244D01*
X8467Y35249D01*
Y35251D01*
Y35259D01*
X8469Y35267D01*
X8474Y35279D01*
X8482Y35287D01*
X8490Y35293D01*
X8499Y35297D01*
X8507Y35298D01*
X8512Y35299D01*
X8809D01*
X8510Y35777D01*
X8502Y35790D01*
X8496Y35803D01*
X8485Y35828D01*
X8477Y35851D01*
X8472Y35871D01*
X8471Y35881D01*
X8469Y35889D01*
X8468Y35896D01*
Y35902D01*
X8467Y35907D01*
Y35911D01*
Y35913D01*
Y35914D01*
X8468Y35932D01*
X8470Y35949D01*
X8473Y35966D01*
X8478Y35981D01*
X8483Y35996D01*
X8489Y36010D01*
X8495Y36023D01*
X8502Y36034D01*
X8508Y36045D01*
X8515Y36054D01*
X8521Y36062D01*
X8526Y36069D01*
X8531Y36074D01*
X8534Y36078D01*
X8536Y36080D01*
X8537Y36081D01*
X8550Y36093D01*
X8564Y36104D01*
X8578Y36113D01*
X8592Y36122D01*
X8606Y36128D01*
X8620Y36134D01*
X8634Y36139D01*
X8646Y36142D01*
X8658Y36145D01*
X8669Y36147D01*
X8679Y36149D01*
X8688Y36150D01*
X8694Y36151D01*
X8717D01*
X8730Y36149D01*
D02*
G37*
G36*
X8049D02*
X8056Y36147D01*
X8068Y36141D01*
X8073Y36137D01*
X8077Y36134D01*
X8079Y36132D01*
X8080Y36131D01*
X8265Y35946D01*
X8270Y35941D01*
X8273Y35935D01*
X8277Y35924D01*
X8278Y35920D01*
X8279Y35916D01*
Y35914D01*
Y35913D01*
X8278Y35905D01*
X8277Y35897D01*
X8272Y35885D01*
X8264Y35877D01*
X8255Y35871D01*
X8247Y35868D01*
X8239Y35866D01*
X8234Y35865D01*
X8232D01*
X8225Y35866D01*
X8218Y35867D01*
X8208Y35872D01*
X8204Y35875D01*
X8201Y35877D01*
X8200Y35878D01*
X8199Y35879D01*
X8089Y35988D01*
Y35251D01*
X8088Y35243D01*
X8087Y35236D01*
X8082Y35224D01*
X8074Y35216D01*
X8065Y35210D01*
X8057Y35207D01*
X8049Y35205D01*
X8044Y35204D01*
X8042D01*
X8034Y35205D01*
X8026Y35206D01*
X8014Y35211D01*
X8006Y35219D01*
X8000Y35228D01*
X7996Y35236D01*
X7995Y35244D01*
X7994Y35249D01*
Y35251D01*
Y36102D01*
X7995Y36110D01*
X7996Y36118D01*
X8001Y36130D01*
X8009Y36138D01*
X8018Y36144D01*
X8027Y36148D01*
X8034Y36149D01*
X8040Y36150D01*
X8042D01*
X8049Y36149D01*
D02*
G37*
G36*
X9383Y36150D02*
X9401Y36148D01*
X9417Y36145D01*
X9432Y36140D01*
X9447Y36135D01*
X9461Y36129D01*
X9473Y36123D01*
X9485Y36116D01*
X9496Y36110D01*
X9505Y36103D01*
X9513Y36097D01*
X9520Y36092D01*
X9525Y36087D01*
X9529Y36084D01*
X9531Y36082D01*
X9532Y36081D01*
X9544Y36068D01*
X9555Y36054D01*
X9564Y36040D01*
X9572Y36026D01*
X9579Y36012D01*
X9584Y35998D01*
X9589Y35984D01*
X9592Y35972D01*
X9595Y35960D01*
X9597Y35949D01*
X9599Y35939D01*
X9600Y35930D01*
X9601Y35924D01*
Y35918D01*
Y35915D01*
Y35914D01*
Y35441D01*
X9600Y35423D01*
X9598Y35405D01*
X9595Y35389D01*
X9590Y35373D01*
X9585Y35358D01*
X9579Y35344D01*
X9573Y35332D01*
X9566Y35320D01*
X9560Y35309D01*
X9554Y35300D01*
X9548Y35292D01*
X9543Y35285D01*
X9538Y35280D01*
X9535Y35276D01*
X9533Y35274D01*
X9532Y35273D01*
X9519Y35261D01*
X9505Y35250D01*
X9491Y35241D01*
X9477Y35233D01*
X9462Y35226D01*
X9448Y35221D01*
X9436Y35216D01*
X9423Y35213D01*
X9411Y35210D01*
X9400Y35208D01*
X9390Y35206D01*
X9382Y35205D01*
X9375Y35204D01*
X9176D01*
X9168Y35205D01*
X9160Y35206D01*
X9149Y35211D01*
X9140Y35219D01*
X9135Y35228D01*
X9131Y35236D01*
X9130Y35244D01*
X9129Y35249D01*
Y35251D01*
Y35259D01*
X9131Y35267D01*
X9136Y35279D01*
X9144Y35287D01*
X9152Y35293D01*
X9161Y35297D01*
X9169Y35298D01*
X9174Y35299D01*
X9365D01*
X9386Y35301D01*
X9406Y35305D01*
X9423Y35312D01*
X9437Y35320D01*
X9449Y35327D01*
X9457Y35334D01*
X9463Y35338D01*
X9465Y35340D01*
X9479Y35356D01*
X9489Y35374D01*
X9496Y35390D01*
X9501Y35406D01*
X9504Y35420D01*
X9505Y35431D01*
X9506Y35435D01*
Y35438D01*
Y35440D01*
Y35441D01*
Y35913D01*
X9504Y35934D01*
X9500Y35954D01*
X9493Y35971D01*
X9485Y35986D01*
X9478Y35998D01*
X9471Y36007D01*
X9467Y36012D01*
X9465Y36014D01*
X9449Y36028D01*
X9432Y36038D01*
X9416Y36046D01*
X9400Y36051D01*
X9386Y36054D01*
X9375Y36055D01*
X9371Y36056D01*
X9176D01*
X9168Y36057D01*
X9160Y36058D01*
X9149Y36063D01*
X9140Y36071D01*
X9135Y36080D01*
X9131Y36088D01*
X9130Y36096D01*
X9129Y36101D01*
Y36103D01*
Y36111D01*
X9131Y36119D01*
X9136Y36131D01*
X9144Y36139D01*
X9152Y36145D01*
X9161Y36149D01*
X9169Y36150D01*
X9174Y36151D01*
X9365D01*
X9383Y36150D01*
D02*
G37*
G36*
X1923Y33685D02*
X1948Y33680D01*
X1971Y33671D01*
X1993Y33660D01*
X2014Y33647D01*
X2033Y33633D01*
X2050Y33617D01*
X2066Y33602D01*
X2080Y33586D01*
X2093Y33570D01*
X2103Y33556D01*
X2112Y33543D01*
X2119Y33532D01*
X2124Y33523D01*
X2127Y33518D01*
X2128Y33517D01*
Y33516D01*
X2131Y33510D01*
X2132Y33504D01*
X2133Y33499D01*
Y33498D01*
Y33497D01*
X2132Y33489D01*
X2131Y33481D01*
X2125Y33469D01*
X2118Y33461D01*
X2109Y33455D01*
X2100Y33452D01*
X2092Y33450D01*
X2087Y33449D01*
X2085D01*
X2075Y33450D01*
X2067Y33453D01*
X2060Y33456D01*
X2054Y33461D01*
X2050Y33465D01*
X2046Y33468D01*
X2045Y33471D01*
X2044Y33472D01*
X2031Y33493D01*
X2018Y33512D01*
X2005Y33528D01*
X1992Y33541D01*
X1980Y33553D01*
X1967Y33563D01*
X1956Y33571D01*
X1945Y33577D01*
X1935Y33582D01*
X1926Y33586D01*
X1918Y33588D01*
X1911Y33590D01*
X1905Y33591D01*
X1901Y33592D01*
X1897D01*
X1876Y33590D01*
X1856Y33585D01*
X1839Y33579D01*
X1825Y33571D01*
X1813Y33563D01*
X1804Y33557D01*
X1799Y33552D01*
X1797Y33550D01*
X1783Y33534D01*
X1773Y33517D01*
X1765Y33500D01*
X1760Y33484D01*
X1757Y33470D01*
X1756Y33459D01*
X1755Y33455D01*
Y33452D01*
Y33450D01*
Y33449D01*
X1756Y33434D01*
X1759Y33420D01*
X1762Y33407D01*
X1766Y33395D01*
X1771Y33385D01*
X1774Y33378D01*
X1777Y33373D01*
X1778Y33371D01*
X2125Y32814D01*
X2130Y32804D01*
X2132Y32797D01*
X2133Y32790D01*
Y32789D01*
Y32788D01*
X2132Y32780D01*
X2131Y32773D01*
X2125Y32761D01*
X2118Y32753D01*
X2109Y32747D01*
X2100Y32744D01*
X2092Y32742D01*
X2087Y32741D01*
X1707D01*
X1699Y32742D01*
X1691Y32743D01*
X1680Y32748D01*
X1671Y32756D01*
X1666Y32765D01*
X1662Y32773D01*
X1661Y32781D01*
X1660Y32786D01*
Y32788D01*
Y32796D01*
X1662Y32803D01*
X1667Y32815D01*
X1675Y32823D01*
X1683Y32829D01*
X1692Y32833D01*
X1700Y32834D01*
X1705Y32835D01*
X2001D01*
X1703Y33314D01*
X1695Y33327D01*
X1689Y33340D01*
X1678Y33364D01*
X1670Y33387D01*
X1665Y33407D01*
X1664Y33417D01*
X1662Y33425D01*
X1661Y33432D01*
Y33438D01*
X1660Y33443D01*
Y33447D01*
Y33449D01*
Y33450D01*
X1661Y33468D01*
X1663Y33485D01*
X1666Y33502D01*
X1671Y33517D01*
X1676Y33532D01*
X1682Y33546D01*
X1688Y33559D01*
X1695Y33570D01*
X1701Y33581D01*
X1708Y33590D01*
X1714Y33598D01*
X1719Y33605D01*
X1724Y33610D01*
X1727Y33614D01*
X1729Y33616D01*
X1730Y33617D01*
X1743Y33629D01*
X1757Y33640D01*
X1771Y33649D01*
X1785Y33658D01*
X1799Y33664D01*
X1813Y33670D01*
X1827Y33675D01*
X1839Y33678D01*
X1851Y33681D01*
X1862Y33683D01*
X1872Y33685D01*
X1881Y33686D01*
X1887Y33687D01*
X1910D01*
X1923Y33685D01*
D02*
G37*
G36*
X2575Y33686D02*
X2593Y33684D01*
X2609Y33681D01*
X2625Y33676D01*
X2640Y33671D01*
X2654Y33665D01*
X2666Y33659D01*
X2678Y33652D01*
X2689Y33646D01*
X2698Y33639D01*
X2706Y33633D01*
X2713Y33628D01*
X2718Y33623D01*
X2722Y33620D01*
X2724Y33618D01*
X2725Y33617D01*
X2737Y33604D01*
X2748Y33590D01*
X2757Y33576D01*
X2765Y33562D01*
X2772Y33548D01*
X2777Y33534D01*
X2782Y33520D01*
X2785Y33508D01*
X2788Y33496D01*
X2790Y33485D01*
X2792Y33475D01*
X2793Y33466D01*
X2794Y33460D01*
Y33454D01*
Y33451D01*
Y33450D01*
Y32977D01*
X2793Y32959D01*
X2791Y32941D01*
X2788Y32925D01*
X2783Y32909D01*
X2778Y32894D01*
X2772Y32880D01*
X2766Y32868D01*
X2759Y32856D01*
X2753Y32845D01*
X2747Y32836D01*
X2741Y32828D01*
X2736Y32821D01*
X2731Y32816D01*
X2728Y32812D01*
X2726Y32810D01*
X2725Y32809D01*
X2712Y32798D01*
X2698Y32787D01*
X2684Y32778D01*
X2670Y32770D01*
X2655Y32763D01*
X2641Y32758D01*
X2628Y32753D01*
X2615Y32750D01*
X2603Y32747D01*
X2592Y32745D01*
X2582Y32743D01*
X2574Y32742D01*
X2567Y32741D01*
X2369D01*
X2361Y32742D01*
X2353Y32743D01*
X2342Y32748D01*
X2333Y32756D01*
X2328Y32765D01*
X2324Y32773D01*
X2323Y32781D01*
X2322Y32786D01*
Y32788D01*
Y32796D01*
X2324Y32803D01*
X2329Y32815D01*
X2337Y32823D01*
X2345Y32829D01*
X2354Y32833D01*
X2362Y32834D01*
X2367Y32835D01*
X2557D01*
X2578Y32837D01*
X2598Y32841D01*
X2615Y32848D01*
X2630Y32856D01*
X2642Y32863D01*
X2650Y32870D01*
X2656Y32874D01*
X2658Y32876D01*
X2672Y32892D01*
X2682Y32910D01*
X2689Y32926D01*
X2694Y32942D01*
X2697Y32956D01*
X2698Y32967D01*
X2699Y32971D01*
Y32974D01*
Y32976D01*
Y32977D01*
Y33449D01*
X2697Y33470D01*
X2693Y33490D01*
X2686Y33507D01*
X2678Y33522D01*
X2671Y33534D01*
X2664Y33543D01*
X2660Y33548D01*
X2658Y33550D01*
X2642Y33564D01*
X2625Y33574D01*
X2608Y33582D01*
X2592Y33587D01*
X2578Y33590D01*
X2567Y33591D01*
X2563Y33592D01*
X2369D01*
X2361Y33593D01*
X2353Y33594D01*
X2342Y33599D01*
X2333Y33607D01*
X2328Y33616D01*
X2324Y33624D01*
X2323Y33632D01*
X2322Y33637D01*
Y33639D01*
Y33647D01*
X2324Y33655D01*
X2329Y33667D01*
X2337Y33675D01*
X2345Y33681D01*
X2354Y33685D01*
X2362Y33686D01*
X2367Y33687D01*
X2557D01*
X2575Y33686D01*
D02*
G37*
G36*
X1259Y33685D02*
X1282Y33679D01*
X1303Y33670D01*
X1322Y33659D01*
X1340Y33645D01*
X1356Y33630D01*
X1370Y33613D01*
X1383Y33597D01*
X1393Y33580D01*
X1403Y33563D01*
X1411Y33548D01*
X1417Y33534D01*
X1422Y33523D01*
X1426Y33514D01*
X1428Y33508D01*
X1429Y33507D01*
Y33506D01*
X1436Y33482D01*
X1443Y33458D01*
X1453Y33408D01*
X1460Y33360D01*
X1463Y33337D01*
X1465Y33314D01*
X1467Y33293D01*
X1468Y33274D01*
X1469Y33257D01*
Y33243D01*
X1470Y33231D01*
Y33222D01*
Y33216D01*
Y33214D01*
Y33183D01*
X1468Y33152D01*
X1466Y33123D01*
X1464Y33096D01*
X1460Y33070D01*
X1457Y33046D01*
X1453Y33023D01*
X1449Y33003D01*
X1446Y32984D01*
X1442Y32968D01*
X1438Y32954D01*
X1435Y32942D01*
X1433Y32933D01*
X1431Y32926D01*
X1429Y32921D01*
Y32920D01*
X1423Y32904D01*
X1417Y32888D01*
X1403Y32861D01*
X1389Y32837D01*
X1374Y32816D01*
X1358Y32799D01*
X1341Y32785D01*
X1325Y32773D01*
X1310Y32764D01*
X1295Y32756D01*
X1281Y32751D01*
X1268Y32747D01*
X1257Y32744D01*
X1248Y32742D01*
X1241Y32741D01*
X1235D01*
X1223Y32742D01*
X1211Y32743D01*
X1188Y32749D01*
X1167Y32758D01*
X1148Y32769D01*
X1130Y32783D01*
X1114Y32798D01*
X1100Y32813D01*
X1087Y32830D01*
X1076Y32847D01*
X1066Y32863D01*
X1058Y32878D01*
X1052Y32892D01*
X1046Y32903D01*
X1043Y32912D01*
X1041Y32918D01*
X1040Y32920D01*
X1033Y32944D01*
X1026Y32968D01*
X1016Y33018D01*
X1008Y33068D01*
X1005Y33091D01*
X1003Y33114D01*
X1001Y33135D01*
X1000Y33154D01*
X999Y33171D01*
Y33186D01*
X998Y33198D01*
Y33206D01*
Y33212D01*
Y33214D01*
Y33245D01*
X1000Y33275D01*
X1002Y33304D01*
X1005Y33331D01*
X1008Y33356D01*
X1011Y33380D01*
X1015Y33402D01*
X1019Y33423D01*
X1023Y33441D01*
X1027Y33458D01*
X1030Y33472D01*
X1033Y33484D01*
X1036Y33493D01*
X1038Y33500D01*
X1039Y33505D01*
X1040Y33506D01*
X1046Y33522D01*
X1052Y33538D01*
X1066Y33566D01*
X1081Y33590D01*
X1096Y33611D01*
X1112Y33628D01*
X1128Y33643D01*
X1145Y33655D01*
X1160Y33664D01*
X1175Y33672D01*
X1189Y33677D01*
X1202Y33682D01*
X1213Y33684D01*
X1222Y33686D01*
X1229Y33687D01*
X1247D01*
X1259Y33685D01*
D02*
G37*
G36*
X9374Y14271D02*
X9381Y14269D01*
X9393Y14263D01*
X9398Y14259D01*
X9402Y14256D01*
X9404Y14254D01*
X9405Y14253D01*
X9589Y14069D01*
X9594Y14064D01*
X9597Y14058D01*
X9601Y14047D01*
X9602Y14043D01*
X9603Y14039D01*
Y14037D01*
Y14036D01*
X9602Y14028D01*
X9601Y14020D01*
X9596Y14008D01*
X9588Y14000D01*
X9579Y13994D01*
X9571Y13991D01*
X9563Y13989D01*
X9558Y13988D01*
X9556D01*
X9549Y13989D01*
X9542Y13990D01*
X9532Y13995D01*
X9528Y13998D01*
X9525Y14000D01*
X9524Y14001D01*
X9523Y14002D01*
X9414Y14110D01*
Y13374D01*
X9413Y13366D01*
X9412Y13359D01*
X9407Y13347D01*
X9399Y13339D01*
X9390Y13333D01*
X9382Y13330D01*
X9374Y13328D01*
X9369Y13327D01*
X9367D01*
X9359Y13328D01*
X9351Y13329D01*
X9339Y13334D01*
X9331Y13342D01*
X9325Y13351D01*
X9321Y13359D01*
X9320Y13367D01*
X9319Y13372D01*
Y13374D01*
Y14224D01*
X9320Y14232D01*
X9321Y14240D01*
X9326Y14252D01*
X9334Y14260D01*
X9343Y14266D01*
X9352Y14270D01*
X9359Y14271D01*
X9365Y14272D01*
X9367D01*
X9374Y14271D01*
D02*
G37*
G36*
X10045Y14272D02*
X10063Y14270D01*
X10079Y14267D01*
X10095Y14262D01*
X10110Y14257D01*
X10124Y14251D01*
X10136Y14245D01*
X10148Y14238D01*
X10159Y14232D01*
X10168Y14225D01*
X10176Y14219D01*
X10183Y14214D01*
X10188Y14209D01*
X10192Y14206D01*
X10194Y14204D01*
X10195Y14203D01*
X10207Y14190D01*
X10218Y14176D01*
X10227Y14162D01*
X10235Y14148D01*
X10242Y14134D01*
X10247Y14120D01*
X10252Y14106D01*
X10255Y14094D01*
X10258Y14083D01*
X10260Y14072D01*
X10262Y14062D01*
X10263Y14053D01*
X10264Y14047D01*
Y14041D01*
Y14038D01*
Y14037D01*
Y13563D01*
X10263Y13545D01*
X10261Y13527D01*
X10258Y13512D01*
X10253Y13496D01*
X10248Y13481D01*
X10242Y13467D01*
X10236Y13455D01*
X10229Y13443D01*
X10223Y13432D01*
X10217Y13423D01*
X10211Y13415D01*
X10206Y13408D01*
X10201Y13403D01*
X10198Y13399D01*
X10196Y13397D01*
X10195Y13396D01*
X10182Y13384D01*
X10168Y13373D01*
X10154Y13364D01*
X10140Y13356D01*
X10125Y13349D01*
X10111Y13344D01*
X10098Y13339D01*
X10085Y13336D01*
X10073Y13333D01*
X10062Y13331D01*
X10052Y13329D01*
X10044Y13328D01*
X10037Y13327D01*
X9839D01*
X9831Y13328D01*
X9823Y13329D01*
X9812Y13334D01*
X9803Y13342D01*
X9798Y13351D01*
X9794Y13359D01*
X9793Y13367D01*
X9792Y13372D01*
Y13374D01*
Y13382D01*
X9794Y13390D01*
X9799Y13402D01*
X9807Y13410D01*
X9815Y13416D01*
X9824Y13420D01*
X9832Y13421D01*
X9837Y13422D01*
X10027D01*
X10048Y13424D01*
X10068Y13428D01*
X10085Y13435D01*
X10100Y13443D01*
X10112Y13450D01*
X10120Y13457D01*
X10126Y13461D01*
X10128Y13463D01*
X10142Y13479D01*
X10152Y13497D01*
X10159Y13513D01*
X10164Y13528D01*
X10167Y13542D01*
X10168Y13553D01*
X10169Y13557D01*
Y13560D01*
Y13562D01*
Y13563D01*
Y14036D01*
X10167Y14057D01*
X10163Y14077D01*
X10156Y14093D01*
X10148Y14108D01*
X10141Y14120D01*
X10134Y14129D01*
X10130Y14134D01*
X10128Y14136D01*
X10112Y14150D01*
X10095Y14160D01*
X10078Y14168D01*
X10062Y14173D01*
X10048Y14176D01*
X10037Y14177D01*
X10033Y14178D01*
X9839D01*
X9831Y14179D01*
X9823Y14180D01*
X9812Y14185D01*
X9803Y14193D01*
X9798Y14202D01*
X9794Y14210D01*
X9793Y14218D01*
X9792Y14223D01*
Y14225D01*
Y14233D01*
X9794Y14241D01*
X9799Y14253D01*
X9807Y14261D01*
X9815Y14267D01*
X9824Y14271D01*
X9832Y14272D01*
X9837Y14273D01*
X10027D01*
X10045Y14272D01*
D02*
G37*
G36*
X9091D02*
X9098Y14271D01*
X9110Y14266D01*
X9118Y14258D01*
X9124Y14249D01*
X9127Y14240D01*
X9129Y14233D01*
X9130Y14227D01*
Y14226D01*
Y14225D01*
X9129Y14217D01*
X9128Y14210D01*
X9123Y14198D01*
X9115Y14190D01*
X9106Y14184D01*
X9098Y14181D01*
X9090Y14179D01*
X9085Y14178D01*
X8764D01*
X8838Y13847D01*
X8894D01*
X8901Y13846D01*
X8908Y13845D01*
X8920Y13840D01*
X8928Y13832D01*
X8934Y13823D01*
X8937Y13814D01*
X8939Y13807D01*
X8940Y13801D01*
Y13800D01*
Y13799D01*
X8939Y13791D01*
X8938Y13784D01*
X8933Y13772D01*
X8925Y13764D01*
X8916Y13758D01*
X8908Y13755D01*
X8901Y13753D01*
X8896Y13752D01*
X8859D01*
X8939Y13385D01*
X8940Y13382D01*
Y13378D01*
Y13375D01*
Y13374D01*
X8939Y13366D01*
X8938Y13359D01*
X8932Y13347D01*
X8925Y13339D01*
X8916Y13333D01*
X8907Y13330D01*
X8899Y13328D01*
X8895Y13327D01*
X8893D01*
X8881Y13329D01*
X8871Y13333D01*
X8863Y13339D01*
X8857Y13346D01*
X8853Y13352D01*
X8850Y13358D01*
X8848Y13362D01*
Y13364D01*
X8762Y13752D01*
X8705D01*
X8697Y13753D01*
X8689Y13754D01*
X8677Y13759D01*
X8669Y13767D01*
X8663Y13776D01*
X8659Y13784D01*
X8658Y13792D01*
X8657Y13797D01*
Y13799D01*
X8658Y13807D01*
X8659Y13815D01*
X8664Y13827D01*
X8672Y13835D01*
X8681Y13841D01*
X8690Y13845D01*
X8697Y13846D01*
X8703Y13847D01*
X8741D01*
X8659Y14215D01*
X8658Y14220D01*
X8657Y14224D01*
Y14226D01*
Y14227D01*
X8658Y14235D01*
X8659Y14242D01*
X8665Y14254D01*
X8673Y14262D01*
X8681Y14267D01*
X8690Y14271D01*
X8698Y14272D01*
X8703Y14273D01*
X9083D01*
X9091Y14272D01*
D02*
G37*
G36*
X9238Y24996D02*
X9245Y24994D01*
X9257Y24988D01*
X9262Y24984D01*
X9266Y24981D01*
X9268Y24979D01*
X9269Y24978D01*
X9454Y24794D01*
X9459Y24789D01*
X9462Y24783D01*
X9466Y24772D01*
X9467Y24768D01*
X9468Y24764D01*
Y24762D01*
Y24761D01*
X9467Y24753D01*
X9466Y24745D01*
X9461Y24733D01*
X9453Y24725D01*
X9444Y24719D01*
X9436Y24716D01*
X9428Y24714D01*
X9423Y24713D01*
X9421D01*
X9414Y24714D01*
X9407Y24715D01*
X9397Y24720D01*
X9393Y24723D01*
X9390Y24725D01*
X9389Y24726D01*
X9388Y24727D01*
X9278Y24835D01*
Y24099D01*
X9277Y24091D01*
X9276Y24084D01*
X9271Y24072D01*
X9263Y24064D01*
X9254Y24058D01*
X9246Y24055D01*
X9238Y24053D01*
X9233Y24052D01*
X9231D01*
X9223Y24053D01*
X9215Y24054D01*
X9203Y24059D01*
X9195Y24067D01*
X9189Y24076D01*
X9185Y24084D01*
X9184Y24092D01*
X9183Y24097D01*
Y24099D01*
Y24949D01*
X9184Y24957D01*
X9185Y24965D01*
X9190Y24977D01*
X9198Y24985D01*
X9207Y24991D01*
X9216Y24995D01*
X9223Y24996D01*
X9229Y24997D01*
X9231D01*
X9238Y24996D01*
D02*
G37*
G36*
X9910Y24997D02*
X9928Y24995D01*
X9944Y24992D01*
X9960Y24987D01*
X9975Y24982D01*
X9989Y24976D01*
X10001Y24970D01*
X10013Y24963D01*
X10024Y24957D01*
X10033Y24950D01*
X10041Y24944D01*
X10048Y24939D01*
X10053Y24934D01*
X10057Y24931D01*
X10059Y24929D01*
X10060Y24928D01*
X10072Y24915D01*
X10083Y24901D01*
X10092Y24887D01*
X10100Y24873D01*
X10107Y24859D01*
X10112Y24845D01*
X10117Y24831D01*
X10120Y24819D01*
X10123Y24808D01*
X10125Y24797D01*
X10127Y24787D01*
X10128Y24778D01*
X10129Y24772D01*
Y24766D01*
Y24763D01*
Y24762D01*
Y24288D01*
X10128Y24270D01*
X10126Y24252D01*
X10123Y24237D01*
X10118Y24221D01*
X10113Y24206D01*
X10107Y24192D01*
X10101Y24180D01*
X10094Y24168D01*
X10088Y24157D01*
X10082Y24148D01*
X10076Y24140D01*
X10071Y24133D01*
X10066Y24128D01*
X10063Y24124D01*
X10061Y24122D01*
X10060Y24121D01*
X10047Y24109D01*
X10033Y24098D01*
X10019Y24089D01*
X10005Y24081D01*
X9990Y24074D01*
X9976Y24069D01*
X9963Y24064D01*
X9950Y24061D01*
X9938Y24058D01*
X9927Y24056D01*
X9917Y24054D01*
X9909Y24053D01*
X9902Y24052D01*
X9703D01*
X9695Y24053D01*
X9687Y24054D01*
X9676Y24059D01*
X9667Y24067D01*
X9662Y24076D01*
X9658Y24084D01*
X9657Y24092D01*
X9656Y24097D01*
Y24099D01*
Y24107D01*
X9658Y24115D01*
X9663Y24127D01*
X9671Y24135D01*
X9679Y24141D01*
X9688Y24145D01*
X9696Y24146D01*
X9701Y24147D01*
X9892D01*
X9913Y24149D01*
X9933Y24153D01*
X9950Y24160D01*
X9965Y24168D01*
X9977Y24175D01*
X9985Y24182D01*
X9991Y24186D01*
X9993Y24188D01*
X10007Y24204D01*
X10017Y24222D01*
X10024Y24238D01*
X10029Y24253D01*
X10032Y24267D01*
X10033Y24278D01*
X10034Y24282D01*
Y24285D01*
Y24287D01*
Y24288D01*
Y24761D01*
X10032Y24782D01*
X10028Y24802D01*
X10021Y24818D01*
X10013Y24833D01*
X10006Y24845D01*
X9999Y24854D01*
X9995Y24859D01*
X9993Y24861D01*
X9977Y24875D01*
X9960Y24885D01*
X9943Y24893D01*
X9927Y24898D01*
X9913Y24901D01*
X9902Y24902D01*
X9898Y24903D01*
X9703D01*
X9695Y24904D01*
X9687Y24905D01*
X9676Y24910D01*
X9667Y24918D01*
X9662Y24927D01*
X9658Y24935D01*
X9657Y24943D01*
X9656Y24948D01*
Y24950D01*
Y24958D01*
X9658Y24966D01*
X9663Y24978D01*
X9671Y24986D01*
X9679Y24992D01*
X9688Y24996D01*
X9696Y24997D01*
X9701Y24998D01*
X9892D01*
X9910Y24997D01*
D02*
G37*
G36*
X8677Y24995D02*
X8691Y24992D01*
X8697Y24990D01*
X8702Y24988D01*
X8706Y24987D01*
X8707Y24986D01*
X8725Y24978D01*
X8743Y24969D01*
X8777Y24948D01*
X8807Y24926D01*
X8821Y24915D01*
X8834Y24904D01*
X8846Y24894D01*
X8857Y24884D01*
X8866Y24875D01*
X8873Y24867D01*
X8880Y24861D01*
X8884Y24856D01*
X8887Y24853D01*
X8888Y24852D01*
X8907Y24829D01*
X8923Y24806D01*
X8937Y24782D01*
X8949Y24758D01*
X8960Y24734D01*
X8968Y24711D01*
X8975Y24688D01*
X8981Y24667D01*
X8985Y24647D01*
X8988Y24628D01*
X8991Y24612D01*
X8992Y24598D01*
X8993Y24587D01*
X8994Y24578D01*
Y24573D01*
Y24571D01*
Y24286D01*
X8993Y24268D01*
X8991Y24251D01*
X8988Y24235D01*
X8983Y24220D01*
X8978Y24205D01*
X8972Y24191D01*
X8966Y24178D01*
X8960Y24167D01*
X8954Y24156D01*
X8947Y24147D01*
X8942Y24139D01*
X8937Y24132D01*
X8932Y24127D01*
X8929Y24123D01*
X8927Y24121D01*
X8926Y24120D01*
X8913Y24108D01*
X8899Y24098D01*
X8885Y24089D01*
X8871Y24081D01*
X8856Y24074D01*
X8842Y24069D01*
X8816Y24061D01*
X8804Y24058D01*
X8793Y24056D01*
X8783Y24054D01*
X8775Y24053D01*
X8768Y24052D01*
X8758D01*
X8740Y24053D01*
X8723Y24055D01*
X8706Y24058D01*
X8691Y24063D01*
X8676Y24068D01*
X8662Y24074D01*
X8649Y24080D01*
X8638Y24086D01*
X8627Y24092D01*
X8618Y24099D01*
X8610Y24104D01*
X8603Y24109D01*
X8598Y24114D01*
X8594Y24117D01*
X8592Y24119D01*
X8591Y24120D01*
X8579Y24133D01*
X8568Y24147D01*
X8559Y24161D01*
X8550Y24176D01*
X8544Y24190D01*
X8538Y24204D01*
X8533Y24217D01*
X8530Y24230D01*
X8527Y24243D01*
X8525Y24253D01*
X8523Y24263D01*
X8522Y24271D01*
X8521Y24278D01*
Y24284D01*
Y24287D01*
Y24288D01*
Y24382D01*
X8522Y24400D01*
X8524Y24418D01*
X8527Y24435D01*
X8532Y24451D01*
X8537Y24466D01*
X8542Y24479D01*
X8549Y24492D01*
X8555Y24504D01*
X8561Y24515D01*
X8567Y24524D01*
X8573Y24532D01*
X8578Y24539D01*
X8583Y24544D01*
X8586Y24548D01*
X8588Y24550D01*
X8589Y24551D01*
X8602Y24563D01*
X8616Y24574D01*
X8630Y24583D01*
X8644Y24591D01*
X8658Y24598D01*
X8672Y24603D01*
X8686Y24608D01*
X8698Y24611D01*
X8711Y24614D01*
X8722Y24616D01*
X8732Y24618D01*
X8740Y24619D01*
X8747Y24620D01*
X8895D01*
X8893Y24636D01*
X8889Y24651D01*
X8880Y24681D01*
X8868Y24709D01*
X8856Y24733D01*
X8849Y24744D01*
X8843Y24754D01*
X8838Y24762D01*
X8833Y24770D01*
X8829Y24775D01*
X8826Y24780D01*
X8824Y24782D01*
X8823Y24783D01*
X8808Y24801D01*
X8793Y24816D01*
X8777Y24831D01*
X8761Y24844D01*
X8746Y24856D01*
X8731Y24866D01*
X8716Y24875D01*
X8702Y24883D01*
X8689Y24889D01*
X8677Y24895D01*
X8667Y24899D01*
X8658Y24902D01*
X8650Y24905D01*
X8645Y24907D01*
X8641Y24908D01*
X8640D01*
X8632Y24912D01*
X8626Y24917D01*
X8622Y24924D01*
X8619Y24931D01*
X8617Y24938D01*
X8616Y24943D01*
Y24948D01*
Y24949D01*
X8617Y24957D01*
X8618Y24965D01*
X8623Y24977D01*
X8631Y24985D01*
X8640Y24991D01*
X8649Y24995D01*
X8656Y24996D01*
X8662Y24997D01*
X8670D01*
X8677Y24995D01*
D02*
G37*
G36*
X6672Y21747D02*
X6679Y21745D01*
X6691Y21739D01*
X6696Y21735D01*
X6700Y21732D01*
X6702Y21730D01*
X6703Y21729D01*
X6887Y21544D01*
X6892Y21539D01*
X6895Y21533D01*
X6899Y21522D01*
X6900Y21518D01*
X6901Y21514D01*
Y21512D01*
Y21511D01*
X6900Y21503D01*
X6899Y21495D01*
X6894Y21483D01*
X6887Y21475D01*
X6878Y21469D01*
X6870Y21466D01*
X6862Y21464D01*
X6857Y21463D01*
X6855D01*
X6848Y21464D01*
X6841Y21465D01*
X6831Y21470D01*
X6827Y21473D01*
X6824Y21475D01*
X6823Y21476D01*
X6822Y21477D01*
X6712Y21586D01*
Y20850D01*
X6711Y20842D01*
X6710Y20835D01*
X6705Y20823D01*
X6697Y20815D01*
X6688Y20809D01*
X6680Y20806D01*
X6672Y20804D01*
X6667Y20803D01*
X6665D01*
X6657Y20804D01*
X6649Y20805D01*
X6637Y20810D01*
X6629Y20818D01*
X6623Y20827D01*
X6619Y20835D01*
X6618Y20843D01*
X6617Y20848D01*
Y20850D01*
Y21700D01*
X6618Y21708D01*
X6619Y21716D01*
X6624Y21728D01*
X6632Y21736D01*
X6641Y21742D01*
X6650Y21746D01*
X6657Y21747D01*
X6663Y21748D01*
X6665D01*
X6672Y21747D01*
D02*
G37*
G36*
X7344Y21748D02*
X7362Y21746D01*
X7378Y21743D01*
X7394Y21738D01*
X7409Y21733D01*
X7423Y21727D01*
X7435Y21721D01*
X7447Y21714D01*
X7457Y21708D01*
X7466Y21701D01*
X7474Y21695D01*
X7481Y21690D01*
X7486Y21685D01*
X7490Y21682D01*
X7492Y21680D01*
X7493Y21679D01*
X7505Y21666D01*
X7516Y21652D01*
X7525Y21638D01*
X7533Y21624D01*
X7540Y21610D01*
X7545Y21596D01*
X7550Y21582D01*
X7553Y21570D01*
X7556Y21558D01*
X7558Y21547D01*
X7560Y21537D01*
X7561Y21528D01*
X7562Y21522D01*
Y21516D01*
Y21513D01*
Y21512D01*
Y21039D01*
X7561Y21021D01*
X7559Y21003D01*
X7556Y20987D01*
X7551Y20971D01*
X7546Y20956D01*
X7540Y20942D01*
X7534Y20930D01*
X7527Y20918D01*
X7521Y20907D01*
X7515Y20898D01*
X7509Y20890D01*
X7504Y20883D01*
X7499Y20878D01*
X7496Y20874D01*
X7494Y20872D01*
X7493Y20871D01*
X7480Y20860D01*
X7466Y20849D01*
X7452Y20840D01*
X7439Y20832D01*
X7424Y20825D01*
X7410Y20820D01*
X7397Y20815D01*
X7384Y20812D01*
X7372Y20809D01*
X7361Y20807D01*
X7351Y20805D01*
X7343Y20804D01*
X7336Y20803D01*
X7137D01*
X7129Y20804D01*
X7121Y20805D01*
X7110Y20810D01*
X7101Y20818D01*
X7096Y20827D01*
X7092Y20835D01*
X7091Y20843D01*
X7090Y20848D01*
Y20850D01*
Y20858D01*
X7092Y20865D01*
X7097Y20877D01*
X7105Y20885D01*
X7113Y20891D01*
X7122Y20895D01*
X7130Y20896D01*
X7135Y20897D01*
X7326D01*
X7347Y20899D01*
X7367Y20903D01*
X7384Y20910D01*
X7399Y20918D01*
X7411Y20925D01*
X7419Y20932D01*
X7425Y20936D01*
X7427Y20938D01*
X7441Y20954D01*
X7451Y20972D01*
X7457Y20988D01*
X7462Y21004D01*
X7465Y21018D01*
X7466Y21029D01*
X7467Y21033D01*
Y21036D01*
Y21038D01*
Y21039D01*
Y21511D01*
X7465Y21532D01*
X7461Y21552D01*
X7454Y21569D01*
X7447Y21584D01*
X7440Y21596D01*
X7433Y21605D01*
X7429Y21610D01*
X7427Y21612D01*
X7411Y21626D01*
X7394Y21636D01*
X7377Y21644D01*
X7361Y21649D01*
X7347Y21652D01*
X7336Y21653D01*
X7332Y21654D01*
X7137D01*
X7129Y21655D01*
X7121Y21656D01*
X7110Y21661D01*
X7101Y21669D01*
X7096Y21678D01*
X7092Y21686D01*
X7091Y21694D01*
X7090Y21699D01*
Y21701D01*
Y21709D01*
X7092Y21717D01*
X7097Y21729D01*
X7105Y21737D01*
X7113Y21743D01*
X7122Y21747D01*
X7130Y21748D01*
X7135Y21749D01*
X7326D01*
X7344Y21748D01*
D02*
G37*
G36*
X6388D02*
X6395Y21747D01*
X6407Y21742D01*
X6415Y21734D01*
X6421Y21725D01*
X6424Y21716D01*
X6426Y21709D01*
X6427Y21703D01*
Y21702D01*
Y21701D01*
Y21323D01*
X6426Y21315D01*
X6425Y21308D01*
X6420Y21296D01*
X6412Y21288D01*
X6403Y21282D01*
X6395Y21279D01*
X6387Y21277D01*
X6382Y21276D01*
X6192D01*
X6171Y21274D01*
X6152Y21269D01*
X6135Y21263D01*
X6120Y21255D01*
X6108Y21247D01*
X6099Y21241D01*
X6094Y21236D01*
X6092Y21234D01*
X6078Y21218D01*
X6068Y21201D01*
X6060Y21184D01*
X6055Y21168D01*
X6052Y21154D01*
X6051Y21143D01*
X6050Y21139D01*
Y21136D01*
Y21134D01*
Y21133D01*
Y21039D01*
X6052Y21017D01*
X6057Y20998D01*
X6063Y20981D01*
X6071Y20966D01*
X6079Y20954D01*
X6085Y20945D01*
X6090Y20940D01*
X6092Y20938D01*
X6108Y20924D01*
X6125Y20914D01*
X6142Y20907D01*
X6157Y20902D01*
X6171Y20899D01*
X6182Y20898D01*
X6186Y20897D01*
X6380D01*
X6388Y20896D01*
X6395Y20895D01*
X6407Y20890D01*
X6415Y20882D01*
X6421Y20873D01*
X6424Y20864D01*
X6426Y20858D01*
X6427Y20852D01*
Y20851D01*
Y20850D01*
X6426Y20842D01*
X6425Y20835D01*
X6420Y20823D01*
X6412Y20815D01*
X6403Y20809D01*
X6395Y20806D01*
X6387Y20804D01*
X6382Y20803D01*
X6192D01*
X6174Y20804D01*
X6157Y20806D01*
X6141Y20809D01*
X6125Y20814D01*
X6110Y20819D01*
X6097Y20825D01*
X6084Y20831D01*
X6072Y20838D01*
X6062Y20844D01*
X6052Y20850D01*
X6044Y20856D01*
X6037Y20861D01*
X6032Y20865D01*
X6028Y20868D01*
X6026Y20870D01*
X6025Y20871D01*
X6013Y20884D01*
X6002Y20898D01*
X5993Y20912D01*
X5984Y20926D01*
X5978Y20941D01*
X5972Y20955D01*
X5967Y20968D01*
X5964Y20981D01*
X5961Y20993D01*
X5959Y21004D01*
X5957Y21014D01*
X5956Y21022D01*
X5955Y21029D01*
Y21035D01*
Y21038D01*
Y21039D01*
Y21133D01*
X5956Y21151D01*
X5958Y21168D01*
X5961Y21185D01*
X5966Y21201D01*
X5971Y21215D01*
X5977Y21229D01*
X5983Y21242D01*
X5990Y21254D01*
X5996Y21264D01*
X6003Y21274D01*
X6009Y21282D01*
X6014Y21289D01*
X6019Y21294D01*
X6022Y21298D01*
X6024Y21300D01*
X6025Y21301D01*
X6038Y21313D01*
X6052Y21324D01*
X6066Y21333D01*
X6080Y21342D01*
X6094Y21348D01*
X6108Y21354D01*
X6122Y21359D01*
X6134Y21362D01*
X6146Y21365D01*
X6157Y21367D01*
X6167Y21369D01*
X6176Y21370D01*
X6182Y21371D01*
X6332D01*
Y21654D01*
X6050D01*
X6042Y21655D01*
X6034Y21656D01*
X6023Y21661D01*
X6014Y21669D01*
X6009Y21678D01*
X6005Y21686D01*
X6004Y21694D01*
X6003Y21699D01*
Y21701D01*
Y21709D01*
X6005Y21717D01*
X6010Y21729D01*
X6018Y21737D01*
X6026Y21743D01*
X6035Y21747D01*
X6043Y21748D01*
X6048Y21749D01*
X6380D01*
X6388Y21748D01*
D02*
G37*
G36*
X16455Y10678D02*
X16472Y10676D01*
X16487Y10673D01*
X16503Y10668D01*
X16518Y10663D01*
X16531Y10657D01*
X16544Y10651D01*
X16556Y10644D01*
X16566Y10638D01*
X16576Y10631D01*
X16584Y10625D01*
X16591Y10620D01*
X16596Y10615D01*
X16600Y10612D01*
X16602Y10610D01*
X16603Y10609D01*
X16615Y10596D01*
X16626Y10582D01*
X16635Y10568D01*
X16644Y10554D01*
X16650Y10539D01*
X16656Y10526D01*
X16661Y10512D01*
X16664Y10499D01*
X16667Y10487D01*
X16669Y10476D01*
X16671Y10466D01*
X16672Y10458D01*
X16673Y10451D01*
Y10253D01*
X16672Y10245D01*
X16671Y10238D01*
X16666Y10226D01*
X16658Y10218D01*
X16649Y10212D01*
X16640Y10209D01*
X16633Y10207D01*
X16627Y10206D01*
X16626D01*
X16625D01*
X16617Y10207D01*
X16610Y10208D01*
X16598Y10213D01*
X16590Y10221D01*
X16584Y10230D01*
X16581Y10238D01*
X16579Y10246D01*
X16578Y10251D01*
Y10441D01*
X16576Y10462D01*
X16571Y10482D01*
X16565Y10499D01*
X16557Y10514D01*
X16549Y10526D01*
X16543Y10535D01*
X16538Y10540D01*
X16536Y10542D01*
X16520Y10556D01*
X16503Y10566D01*
X16486Y10574D01*
X16471Y10579D01*
X16458Y10582D01*
X16447Y10583D01*
X16443Y10584D01*
X16440D01*
X16438D01*
X16437D01*
X16415Y10582D01*
X16396Y10577D01*
X16379Y10571D01*
X16364Y10563D01*
X16352Y10555D01*
X16343Y10549D01*
X16338Y10544D01*
X16336Y10542D01*
X16322Y10526D01*
X16312Y10509D01*
X16305Y10492D01*
X16300Y10476D01*
X16297Y10462D01*
X16296Y10451D01*
X16295Y10447D01*
Y10348D01*
X16294Y10340D01*
X16293Y10332D01*
X16288Y10320D01*
X16280Y10312D01*
X16271Y10306D01*
X16262Y10303D01*
X16255Y10301D01*
X16249Y10300D01*
X16248D01*
X16247D01*
X16239Y10301D01*
X16232Y10302D01*
X16220Y10308D01*
X16212Y10315D01*
X16206Y10324D01*
X16203Y10333D01*
X16201Y10341D01*
X16200Y10346D01*
Y10441D01*
X16198Y10462D01*
X16193Y10482D01*
X16187Y10499D01*
X16179Y10514D01*
X16171Y10526D01*
X16165Y10535D01*
X16160Y10540D01*
X16158Y10542D01*
X16142Y10556D01*
X16125Y10566D01*
X16108Y10574D01*
X16092Y10579D01*
X16078Y10582D01*
X16067Y10583D01*
X16063Y10584D01*
X16060D01*
X16058D01*
X16057D01*
X15963D01*
X15941Y10582D01*
X15922Y10577D01*
X15906Y10571D01*
X15891Y10563D01*
X15879Y10555D01*
X15870Y10549D01*
X15865Y10544D01*
X15863Y10542D01*
X15849Y10526D01*
X15839Y10509D01*
X15832Y10492D01*
X15827Y10476D01*
X15824Y10462D01*
X15823Y10451D01*
X15822Y10447D01*
Y10253D01*
X15821Y10245D01*
X15820Y10238D01*
X15815Y10226D01*
X15807Y10218D01*
X15798Y10212D01*
X15789Y10209D01*
X15782Y10207D01*
X15776Y10206D01*
X15775D01*
X15774D01*
X15766Y10207D01*
X15759Y10208D01*
X15747Y10213D01*
X15739Y10221D01*
X15733Y10230D01*
X15730Y10238D01*
X15728Y10246D01*
X15727Y10251D01*
Y10441D01*
X15728Y10459D01*
X15730Y10476D01*
X15733Y10493D01*
X15738Y10509D01*
X15743Y10523D01*
X15749Y10537D01*
X15755Y10550D01*
X15762Y10562D01*
X15768Y10572D01*
X15774Y10582D01*
X15780Y10590D01*
X15785Y10597D01*
X15790Y10602D01*
X15793Y10606D01*
X15795Y10608D01*
X15796Y10609D01*
X15809Y10621D01*
X15823Y10632D01*
X15837Y10641D01*
X15851Y10650D01*
X15866Y10656D01*
X15880Y10662D01*
X15893Y10667D01*
X15906Y10670D01*
X15917Y10673D01*
X15928Y10675D01*
X15938Y10677D01*
X15946Y10678D01*
X15953Y10679D01*
X15959D01*
X15962D01*
X15963D01*
X16057D01*
X16079Y10678D01*
X16099Y10675D01*
X16118Y10670D01*
X16137Y10664D01*
X16153Y10657D01*
X16169Y10649D01*
X16183Y10640D01*
X16196Y10632D01*
X16208Y10623D01*
X16218Y10614D01*
X16227Y10606D01*
X16234Y10599D01*
X16240Y10593D01*
X16244Y10588D01*
X16246Y10585D01*
X16247Y10584D01*
X16261Y10601D01*
X16276Y10615D01*
X16291Y10628D01*
X16307Y10639D01*
X16323Y10648D01*
X16339Y10656D01*
X16354Y10662D01*
X16369Y10667D01*
X16383Y10671D01*
X16396Y10674D01*
X16407Y10676D01*
X16417Y10678D01*
X16426D01*
X16432Y10679D01*
X16436D01*
X16437D01*
X16455Y10678D01*
D02*
G37*
G36*
X16632Y10015D02*
X16640Y10014D01*
X16652Y10009D01*
X16660Y10001D01*
X16666Y9992D01*
X16670Y9983D01*
X16671Y9976D01*
X16672Y9970D01*
Y9968D01*
X16671Y9961D01*
X16669Y9954D01*
X16663Y9942D01*
X16659Y9937D01*
X16656Y9933D01*
X16654Y9931D01*
X16653Y9930D01*
X16469Y9746D01*
X16464Y9741D01*
X16458Y9738D01*
X16447Y9734D01*
X16443Y9733D01*
X16439Y9732D01*
X16437D01*
X16436D01*
X16428Y9733D01*
X16420Y9734D01*
X16408Y9739D01*
X16400Y9747D01*
X16394Y9756D01*
X16391Y9764D01*
X16389Y9772D01*
X16388Y9777D01*
Y9779D01*
X16389Y9786D01*
X16390Y9793D01*
X16395Y9803D01*
X16398Y9807D01*
X16400Y9810D01*
X16401Y9811D01*
X16402Y9812D01*
X16510Y9921D01*
X15774D01*
X15766Y9922D01*
X15759Y9923D01*
X15747Y9928D01*
X15739Y9936D01*
X15733Y9945D01*
X15730Y9953D01*
X15728Y9961D01*
X15727Y9966D01*
Y9968D01*
X15728Y9976D01*
X15729Y9984D01*
X15734Y9996D01*
X15742Y10004D01*
X15751Y10010D01*
X15759Y10014D01*
X15767Y10015D01*
X15772Y10016D01*
X15774D01*
X16624D01*
X16632Y10015D01*
D02*
G37*
G36*
X16641Y9541D02*
X16653Y9536D01*
X16661Y9528D01*
X16667Y9520D01*
X16671Y9511D01*
X16672Y9503D01*
X16673Y9498D01*
Y9308D01*
X16672Y9290D01*
X16670Y9272D01*
X16667Y9256D01*
X16662Y9240D01*
X16657Y9225D01*
X16651Y9211D01*
X16645Y9199D01*
X16638Y9187D01*
X16632Y9176D01*
X16625Y9167D01*
X16619Y9159D01*
X16614Y9152D01*
X16609Y9147D01*
X16606Y9143D01*
X16604Y9141D01*
X16603Y9140D01*
X16590Y9128D01*
X16576Y9117D01*
X16562Y9108D01*
X16548Y9100D01*
X16534Y9093D01*
X16520Y9088D01*
X16506Y9083D01*
X16494Y9080D01*
X16483Y9077D01*
X16472Y9075D01*
X16462Y9073D01*
X16453Y9072D01*
X16447Y9071D01*
X16441D01*
X16438D01*
X16437D01*
X15963D01*
X15945Y9072D01*
X15927Y9074D01*
X15912Y9077D01*
X15896Y9082D01*
X15881Y9087D01*
X15867Y9093D01*
X15855Y9099D01*
X15843Y9106D01*
X15832Y9112D01*
X15823Y9118D01*
X15815Y9124D01*
X15808Y9129D01*
X15803Y9134D01*
X15799Y9137D01*
X15797Y9139D01*
X15796Y9140D01*
X15784Y9153D01*
X15773Y9167D01*
X15764Y9181D01*
X15756Y9195D01*
X15749Y9210D01*
X15744Y9224D01*
X15739Y9237D01*
X15736Y9250D01*
X15733Y9262D01*
X15731Y9273D01*
X15729Y9283D01*
X15728Y9291D01*
X15727Y9298D01*
Y9496D01*
X15728Y9504D01*
X15729Y9512D01*
X15734Y9523D01*
X15742Y9532D01*
X15751Y9537D01*
X15759Y9541D01*
X15767Y9542D01*
X15772Y9543D01*
X15774D01*
X15782D01*
X15790Y9541D01*
X15802Y9536D01*
X15810Y9528D01*
X15816Y9520D01*
X15820Y9511D01*
X15821Y9503D01*
X15822Y9498D01*
Y9308D01*
X15824Y9287D01*
X15828Y9267D01*
X15835Y9250D01*
X15843Y9235D01*
X15850Y9223D01*
X15857Y9215D01*
X15861Y9209D01*
X15863Y9207D01*
X15879Y9193D01*
X15897Y9183D01*
X15913Y9176D01*
X15928Y9171D01*
X15942Y9168D01*
X15953Y9167D01*
X15957Y9166D01*
X15960D01*
X15962D01*
X15963D01*
X16436D01*
X16457Y9168D01*
X16477Y9172D01*
X16493Y9179D01*
X16508Y9187D01*
X16520Y9194D01*
X16529Y9201D01*
X16534Y9205D01*
X16536Y9207D01*
X16550Y9223D01*
X16560Y9240D01*
X16568Y9257D01*
X16573Y9273D01*
X16576Y9287D01*
X16577Y9298D01*
X16578Y9302D01*
Y9496D01*
X16579Y9504D01*
X16580Y9512D01*
X16585Y9523D01*
X16593Y9532D01*
X16602Y9537D01*
X16610Y9541D01*
X16618Y9542D01*
X16623Y9543D01*
X16625D01*
X16633D01*
X16641Y9541D01*
D02*
G37*
G36*
X11259Y26171D02*
X11284Y26166D01*
X11308Y26157D01*
X11330Y26146D01*
X11351Y26133D01*
X11370Y26119D01*
X11387Y26103D01*
X11403Y26088D01*
X11417Y26072D01*
X11430Y26056D01*
X11440Y26042D01*
X11449Y26029D01*
X11456Y26018D01*
X11461Y26009D01*
X11464Y26004D01*
X11465Y26003D01*
Y26002D01*
X11468Y25996D01*
X11469Y25990D01*
X11470Y25985D01*
Y25984D01*
Y25983D01*
X11469Y25976D01*
X11468Y25968D01*
X11462Y25956D01*
X11455Y25948D01*
X11446Y25942D01*
X11437Y25939D01*
X11429Y25937D01*
X11424Y25936D01*
X11422D01*
X11412Y25937D01*
X11404Y25940D01*
X11397Y25943D01*
X11391Y25948D01*
X11387Y25952D01*
X11383Y25955D01*
X11382Y25958D01*
X11381Y25959D01*
X11368Y25979D01*
X11355Y25998D01*
X11342Y26014D01*
X11329Y26027D01*
X11317Y26039D01*
X11304Y26049D01*
X11293Y26057D01*
X11281Y26063D01*
X11271Y26068D01*
X11262Y26072D01*
X11254Y26074D01*
X11247Y26076D01*
X11241Y26077D01*
X11237Y26078D01*
X11233D01*
X11212Y26076D01*
X11192Y26071D01*
X11175Y26065D01*
X11161Y26057D01*
X11149Y26049D01*
X11140Y26043D01*
X11135Y26038D01*
X11133Y26036D01*
X11119Y26020D01*
X11109Y26003D01*
X11101Y25986D01*
X11096Y25971D01*
X11093Y25957D01*
X11092Y25946D01*
X11091Y25942D01*
Y25939D01*
Y25937D01*
Y25936D01*
X11092Y25921D01*
X11095Y25907D01*
X11098Y25894D01*
X11102Y25882D01*
X11107Y25872D01*
X11110Y25865D01*
X11113Y25860D01*
X11114Y25858D01*
X11462Y25301D01*
X11467Y25291D01*
X11469Y25283D01*
X11470Y25276D01*
Y25275D01*
Y25274D01*
X11469Y25266D01*
X11468Y25259D01*
X11462Y25247D01*
X11455Y25239D01*
X11446Y25233D01*
X11437Y25230D01*
X11429Y25228D01*
X11424Y25227D01*
X11043D01*
X11035Y25228D01*
X11027Y25229D01*
X11016Y25234D01*
X11007Y25242D01*
X11002Y25251D01*
X10998Y25259D01*
X10997Y25267D01*
X10996Y25272D01*
Y25274D01*
Y25282D01*
X10998Y25290D01*
X11003Y25302D01*
X11011Y25310D01*
X11019Y25316D01*
X11028Y25320D01*
X11036Y25321D01*
X11041Y25322D01*
X11338D01*
X11039Y25800D01*
X11031Y25813D01*
X11025Y25826D01*
X11014Y25851D01*
X11006Y25874D01*
X11001Y25894D01*
X11000Y25904D01*
X10998Y25912D01*
X10997Y25919D01*
Y25925D01*
X10996Y25930D01*
Y25934D01*
Y25936D01*
Y25937D01*
X10997Y25955D01*
X10999Y25972D01*
X11002Y25988D01*
X11007Y26003D01*
X11012Y26018D01*
X11018Y26032D01*
X11024Y26045D01*
X11031Y26056D01*
X11037Y26067D01*
X11044Y26076D01*
X11050Y26084D01*
X11055Y26091D01*
X11060Y26096D01*
X11063Y26100D01*
X11065Y26102D01*
X11066Y26103D01*
X11079Y26115D01*
X11093Y26126D01*
X11107Y26135D01*
X11121Y26144D01*
X11135Y26150D01*
X11149Y26156D01*
X11163Y26161D01*
X11175Y26164D01*
X11187Y26167D01*
X11198Y26169D01*
X11208Y26171D01*
X11217Y26172D01*
X11223Y26173D01*
X11246D01*
X11259Y26171D01*
D02*
G37*
G36*
X11713D02*
X11720Y26169D01*
X11732Y26163D01*
X11737Y26159D01*
X11741Y26156D01*
X11743Y26154D01*
X11744Y26153D01*
X11929Y25969D01*
X11934Y25964D01*
X11937Y25958D01*
X11941Y25947D01*
X11942Y25943D01*
X11943Y25939D01*
Y25937D01*
Y25936D01*
X11942Y25928D01*
X11941Y25920D01*
X11936Y25908D01*
X11928Y25900D01*
X11919Y25894D01*
X11911Y25891D01*
X11903Y25889D01*
X11898Y25888D01*
X11896D01*
X11889Y25889D01*
X11882Y25890D01*
X11872Y25895D01*
X11868Y25898D01*
X11865Y25900D01*
X11864Y25901D01*
X11863Y25902D01*
X11753Y26010D01*
Y25274D01*
X11752Y25266D01*
X11751Y25259D01*
X11746Y25247D01*
X11738Y25239D01*
X11729Y25233D01*
X11721Y25230D01*
X11713Y25228D01*
X11708Y25227D01*
X11706D01*
X11698Y25228D01*
X11690Y25229D01*
X11678Y25234D01*
X11670Y25242D01*
X11664Y25251D01*
X11660Y25259D01*
X11659Y25267D01*
X11658Y25272D01*
Y25274D01*
Y26124D01*
X11659Y26132D01*
X11660Y26140D01*
X11665Y26152D01*
X11673Y26160D01*
X11682Y26166D01*
X11691Y26170D01*
X11698Y26171D01*
X11704Y26172D01*
X11706D01*
X11713Y26171D01*
D02*
G37*
G36*
X12385Y26172D02*
X12403Y26170D01*
X12419Y26167D01*
X12435Y26162D01*
X12450Y26157D01*
X12464Y26151D01*
X12476Y26145D01*
X12488Y26138D01*
X12499Y26132D01*
X12508Y26125D01*
X12516Y26119D01*
X12523Y26114D01*
X12528Y26109D01*
X12532Y26106D01*
X12534Y26104D01*
X12535Y26103D01*
X12547Y26090D01*
X12558Y26076D01*
X12567Y26062D01*
X12575Y26048D01*
X12582Y26034D01*
X12587Y26020D01*
X12592Y26006D01*
X12595Y25994D01*
X12598Y25983D01*
X12600Y25972D01*
X12602Y25962D01*
X12603Y25953D01*
X12604Y25947D01*
Y25941D01*
Y25938D01*
Y25937D01*
Y25463D01*
X12603Y25445D01*
X12601Y25427D01*
X12598Y25412D01*
X12593Y25396D01*
X12588Y25381D01*
X12582Y25367D01*
X12576Y25355D01*
X12569Y25343D01*
X12563Y25332D01*
X12557Y25323D01*
X12551Y25315D01*
X12546Y25308D01*
X12541Y25303D01*
X12538Y25299D01*
X12536Y25297D01*
X12535Y25296D01*
X12522Y25284D01*
X12508Y25273D01*
X12494Y25264D01*
X12480Y25256D01*
X12465Y25249D01*
X12451Y25244D01*
X12438Y25239D01*
X12425Y25236D01*
X12413Y25233D01*
X12402Y25231D01*
X12392Y25229D01*
X12384Y25228D01*
X12377Y25227D01*
X12178D01*
X12170Y25228D01*
X12162Y25229D01*
X12151Y25234D01*
X12142Y25242D01*
X12137Y25251D01*
X12133Y25259D01*
X12132Y25267D01*
X12131Y25272D01*
Y25274D01*
Y25282D01*
X12133Y25290D01*
X12138Y25302D01*
X12146Y25310D01*
X12154Y25316D01*
X12163Y25320D01*
X12171Y25321D01*
X12176Y25322D01*
X12367D01*
X12388Y25324D01*
X12408Y25328D01*
X12425Y25335D01*
X12440Y25343D01*
X12452Y25350D01*
X12460Y25357D01*
X12466Y25361D01*
X12468Y25363D01*
X12482Y25379D01*
X12492Y25397D01*
X12499Y25413D01*
X12504Y25428D01*
X12507Y25442D01*
X12508Y25453D01*
X12509Y25457D01*
Y25460D01*
Y25462D01*
Y25463D01*
Y25936D01*
X12507Y25957D01*
X12503Y25977D01*
X12496Y25993D01*
X12488Y26008D01*
X12481Y26020D01*
X12474Y26029D01*
X12470Y26034D01*
X12468Y26036D01*
X12452Y26050D01*
X12435Y26060D01*
X12418Y26068D01*
X12402Y26073D01*
X12388Y26076D01*
X12377Y26077D01*
X12373Y26078D01*
X12178D01*
X12170Y26079D01*
X12162Y26080D01*
X12151Y26085D01*
X12142Y26093D01*
X12137Y26102D01*
X12133Y26110D01*
X12132Y26118D01*
X12131Y26123D01*
Y26125D01*
Y26133D01*
X12133Y26141D01*
X12138Y26153D01*
X12146Y26161D01*
X12154Y26167D01*
X12163Y26171D01*
X12171Y26172D01*
X12176Y26173D01*
X12367D01*
X12385Y26172D01*
D02*
G37*
G36*
X1904Y21645D02*
X1911Y21643D01*
X1923Y21637D01*
X1928Y21633D01*
X1932Y21630D01*
X1934Y21628D01*
X1935Y21627D01*
X2119Y21443D01*
X2124Y21438D01*
X2127Y21432D01*
X2131Y21421D01*
X2132Y21417D01*
X2133Y21413D01*
Y21411D01*
Y21410D01*
X2132Y21402D01*
X2131Y21394D01*
X2126Y21382D01*
X2118Y21374D01*
X2109Y21368D01*
X2101Y21365D01*
X2093Y21363D01*
X2088Y21362D01*
X2086D01*
X2079Y21363D01*
X2072Y21364D01*
X2062Y21369D01*
X2058Y21372D01*
X2055Y21374D01*
X2054Y21375D01*
X2053Y21376D01*
X1944Y21485D01*
Y20748D01*
X1943Y20740D01*
X1942Y20733D01*
X1937Y20721D01*
X1929Y20713D01*
X1920Y20707D01*
X1912Y20704D01*
X1904Y20702D01*
X1899Y20701D01*
X1897D01*
X1889Y20702D01*
X1881Y20703D01*
X1869Y20708D01*
X1861Y20716D01*
X1855Y20725D01*
X1851Y20733D01*
X1850Y20741D01*
X1849Y20746D01*
Y20748D01*
Y21598D01*
X1850Y21606D01*
X1851Y21614D01*
X1856Y21626D01*
X1864Y21634D01*
X1873Y21640D01*
X1882Y21644D01*
X1889Y21645D01*
X1895Y21646D01*
X1897D01*
X1904Y21645D01*
D02*
G37*
G36*
X1435D02*
X1445Y21641D01*
X1453Y21635D01*
X1459Y21629D01*
X1464Y21622D01*
X1467Y21617D01*
X1468Y21613D01*
X1469Y21611D01*
X1659Y20950D01*
X1660Y20946D01*
Y20942D01*
Y20938D01*
Y20937D01*
X1659Y20929D01*
X1658Y20922D01*
X1653Y20910D01*
X1645Y20902D01*
X1636Y20896D01*
X1628Y20893D01*
X1620Y20891D01*
X1615Y20890D01*
X1329D01*
Y20748D01*
X1328Y20740D01*
X1327Y20733D01*
X1322Y20721D01*
X1314Y20713D01*
X1305Y20707D01*
X1297Y20704D01*
X1289Y20702D01*
X1284Y20701D01*
X1282D01*
X1274Y20702D01*
X1266Y20703D01*
X1254Y20708D01*
X1246Y20716D01*
X1240Y20725D01*
X1236Y20733D01*
X1235Y20741D01*
X1234Y20746D01*
Y20748D01*
Y20890D01*
X1140D01*
X1132Y20891D01*
X1124Y20892D01*
X1112Y20897D01*
X1104Y20905D01*
X1098Y20914D01*
X1094Y20922D01*
X1093Y20930D01*
X1092Y20935D01*
Y20937D01*
X1093Y20945D01*
X1094Y20953D01*
X1099Y20965D01*
X1107Y20973D01*
X1116Y20979D01*
X1125Y20983D01*
X1132Y20983D01*
X1138Y20984D01*
X1234D01*
Y21126D01*
X1235Y21134D01*
X1236Y21142D01*
X1241Y21153D01*
X1249Y21162D01*
X1258Y21167D01*
X1267Y21171D01*
X1274Y21172D01*
X1280Y21173D01*
X1290D01*
X1297Y21171D01*
X1309Y21166D01*
X1317Y21158D01*
X1323Y21150D01*
X1326Y21141D01*
X1328Y21133D01*
X1329Y21128D01*
Y21127D01*
Y21126D01*
Y20984D01*
X1550D01*
X1379Y21585D01*
X1378Y21590D01*
X1377Y21594D01*
Y21597D01*
Y21598D01*
Y21606D01*
X1379Y21614D01*
X1384Y21626D01*
X1391Y21634D01*
X1399Y21640D01*
X1408Y21644D01*
X1416Y21645D01*
X1421Y21646D01*
X1423D01*
X1435Y21645D01*
D02*
G37*
G36*
X2575Y21646D02*
X2593Y21644D01*
X2609Y21641D01*
X2625Y21636D01*
X2640Y21631D01*
X2654Y21625D01*
X2666Y21619D01*
X2678Y21612D01*
X2689Y21606D01*
X2698Y21599D01*
X2706Y21593D01*
X2713Y21588D01*
X2718Y21583D01*
X2722Y21580D01*
X2724Y21578D01*
X2725Y21577D01*
X2737Y21564D01*
X2748Y21550D01*
X2757Y21537D01*
X2765Y21523D01*
X2772Y21509D01*
X2777Y21495D01*
X2782Y21481D01*
X2785Y21469D01*
X2788Y21457D01*
X2790Y21446D01*
X2792Y21436D01*
X2793Y21427D01*
X2794Y21421D01*
Y21415D01*
Y21412D01*
Y21411D01*
Y20938D01*
X2793Y20920D01*
X2791Y20902D01*
X2788Y20886D01*
X2783Y20870D01*
X2778Y20855D01*
X2772Y20841D01*
X2766Y20829D01*
X2759Y20817D01*
X2753Y20806D01*
X2747Y20797D01*
X2741Y20789D01*
X2736Y20782D01*
X2731Y20777D01*
X2728Y20773D01*
X2726Y20771D01*
X2725Y20770D01*
X2712Y20758D01*
X2698Y20747D01*
X2684Y20738D01*
X2670Y20730D01*
X2655Y20723D01*
X2641Y20718D01*
X2628Y20713D01*
X2615Y20710D01*
X2603Y20707D01*
X2592Y20705D01*
X2582Y20703D01*
X2574Y20702D01*
X2567Y20701D01*
X2369D01*
X2361Y20702D01*
X2353Y20703D01*
X2342Y20708D01*
X2333Y20716D01*
X2328Y20725D01*
X2324Y20733D01*
X2323Y20741D01*
X2322Y20746D01*
Y20748D01*
Y20756D01*
X2324Y20764D01*
X2329Y20776D01*
X2337Y20784D01*
X2345Y20790D01*
X2354Y20794D01*
X2362Y20795D01*
X2367Y20796D01*
X2557D01*
X2578Y20798D01*
X2598Y20802D01*
X2615Y20809D01*
X2630Y20817D01*
X2642Y20824D01*
X2650Y20831D01*
X2656Y20835D01*
X2658Y20837D01*
X2672Y20853D01*
X2682Y20871D01*
X2689Y20887D01*
X2694Y20903D01*
X2697Y20917D01*
X2698Y20928D01*
X2699Y20932D01*
Y20935D01*
Y20937D01*
Y20938D01*
Y21410D01*
X2697Y21431D01*
X2693Y21451D01*
X2686Y21468D01*
X2678Y21483D01*
X2671Y21495D01*
X2664Y21504D01*
X2660Y21509D01*
X2658Y21511D01*
X2642Y21525D01*
X2625Y21535D01*
X2608Y21542D01*
X2592Y21547D01*
X2578Y21550D01*
X2567Y21551D01*
X2563Y21552D01*
X2369D01*
X2361Y21553D01*
X2353Y21554D01*
X2342Y21559D01*
X2333Y21567D01*
X2328Y21576D01*
X2324Y21584D01*
X2323Y21592D01*
X2322Y21597D01*
Y21599D01*
Y21607D01*
X2324Y21615D01*
X2329Y21627D01*
X2337Y21635D01*
X2345Y21641D01*
X2354Y21645D01*
X2362Y21646D01*
X2367Y21647D01*
X2557D01*
X2575Y21646D01*
D02*
G37*
G36*
X18560Y21471D02*
X18567Y21469D01*
X18579Y21463D01*
X18584Y21459D01*
X18588Y21456D01*
X18590Y21454D01*
X18591Y21453D01*
X18776Y21269D01*
X18781Y21264D01*
X18784Y21258D01*
X18788Y21247D01*
X18789Y21243D01*
X18790Y21239D01*
Y21237D01*
Y21236D01*
X18789Y21228D01*
X18788Y21220D01*
X18783Y21208D01*
X18775Y21200D01*
X18766Y21194D01*
X18758Y21191D01*
X18750Y21189D01*
X18745Y21188D01*
X18743D01*
X18736Y21189D01*
X18729Y21190D01*
X18719Y21195D01*
X18715Y21198D01*
X18712Y21200D01*
X18711Y21201D01*
X18710Y21202D01*
X18600Y21310D01*
Y20574D01*
X18599Y20566D01*
X18598Y20559D01*
X18593Y20547D01*
X18585Y20539D01*
X18576Y20533D01*
X18568Y20530D01*
X18560Y20528D01*
X18555Y20527D01*
X18553D01*
X18545Y20528D01*
X18537Y20529D01*
X18525Y20534D01*
X18517Y20542D01*
X18511Y20551D01*
X18507Y20559D01*
X18506Y20567D01*
X18505Y20572D01*
Y20574D01*
Y21424D01*
X18506Y21432D01*
X18507Y21440D01*
X18512Y21452D01*
X18520Y21460D01*
X18529Y21466D01*
X18538Y21470D01*
X18545Y21471D01*
X18551Y21472D01*
X18553D01*
X18560Y21471D01*
D02*
G37*
G36*
X19232Y21472D02*
X19250Y21470D01*
X19266Y21467D01*
X19282Y21462D01*
X19297Y21457D01*
X19311Y21451D01*
X19323Y21445D01*
X19335Y21438D01*
X19346Y21432D01*
X19355Y21425D01*
X19363Y21419D01*
X19370Y21414D01*
X19375Y21409D01*
X19379Y21406D01*
X19381Y21404D01*
X19382Y21403D01*
X19394Y21390D01*
X19405Y21376D01*
X19414Y21362D01*
X19422Y21348D01*
X19429Y21334D01*
X19434Y21320D01*
X19439Y21306D01*
X19442Y21294D01*
X19445Y21283D01*
X19447Y21272D01*
X19449Y21262D01*
X19450Y21253D01*
X19451Y21247D01*
Y21241D01*
Y21238D01*
Y21237D01*
Y20763D01*
X19450Y20745D01*
X19448Y20728D01*
X19445Y20712D01*
X19440Y20696D01*
X19435Y20681D01*
X19429Y20667D01*
X19423Y20655D01*
X19416Y20643D01*
X19410Y20632D01*
X19404Y20623D01*
X19398Y20615D01*
X19393Y20608D01*
X19388Y20603D01*
X19385Y20599D01*
X19383Y20597D01*
X19382Y20596D01*
X19369Y20584D01*
X19355Y20573D01*
X19341Y20564D01*
X19327Y20556D01*
X19312Y20549D01*
X19298Y20544D01*
X19285Y20539D01*
X19272Y20536D01*
X19260Y20533D01*
X19249Y20531D01*
X19239Y20529D01*
X19231Y20528D01*
X19224Y20527D01*
X19025D01*
X19017Y20528D01*
X19009Y20529D01*
X18998Y20534D01*
X18989Y20542D01*
X18984Y20551D01*
X18980Y20559D01*
X18979Y20567D01*
X18978Y20572D01*
Y20574D01*
Y20582D01*
X18980Y20590D01*
X18985Y20602D01*
X18993Y20610D01*
X19001Y20616D01*
X19010Y20620D01*
X19018Y20621D01*
X19023Y20622D01*
X19214D01*
X19235Y20624D01*
X19255Y20628D01*
X19272Y20635D01*
X19287Y20643D01*
X19299Y20650D01*
X19307Y20657D01*
X19313Y20661D01*
X19315Y20663D01*
X19329Y20679D01*
X19339Y20697D01*
X19346Y20713D01*
X19351Y20729D01*
X19354Y20742D01*
X19355Y20753D01*
X19356Y20757D01*
Y20760D01*
Y20762D01*
Y20763D01*
Y21236D01*
X19354Y21257D01*
X19350Y21277D01*
X19343Y21293D01*
X19335Y21308D01*
X19328Y21320D01*
X19321Y21329D01*
X19317Y21334D01*
X19315Y21336D01*
X19299Y21350D01*
X19282Y21360D01*
X19265Y21368D01*
X19249Y21373D01*
X19235Y21376D01*
X19224Y21377D01*
X19220Y21378D01*
X19025D01*
X19017Y21379D01*
X19009Y21380D01*
X18998Y21385D01*
X18989Y21393D01*
X18984Y21402D01*
X18980Y21410D01*
X18979Y21418D01*
X18978Y21423D01*
Y21425D01*
Y21433D01*
X18980Y21441D01*
X18985Y21453D01*
X18993Y21461D01*
X19001Y21467D01*
X19010Y21471D01*
X19018Y21472D01*
X19023Y21473D01*
X19214D01*
X19232Y21472D01*
D02*
G37*
G36*
X18098Y21471D02*
X18115Y21469D01*
X18132Y21466D01*
X18147Y21461D01*
X18162Y21456D01*
X18176Y21450D01*
X18189Y21444D01*
X18200Y21437D01*
X18211Y21431D01*
X18220Y21424D01*
X18228Y21418D01*
X18235Y21413D01*
X18240Y21408D01*
X18244Y21405D01*
X18246Y21403D01*
X18247Y21402D01*
X18259Y21389D01*
X18270Y21375D01*
X18279Y21361D01*
X18287Y21347D01*
X18294Y21333D01*
X18299Y21319D01*
X18304Y21305D01*
X18307Y21293D01*
X18310Y21282D01*
X18312Y21271D01*
X18314Y21261D01*
X18315Y21252D01*
X18316Y21246D01*
Y21240D01*
Y21237D01*
Y21236D01*
X18315Y21214D01*
X18312Y21194D01*
X18307Y21175D01*
X18301Y21157D01*
X18294Y21140D01*
X18286Y21124D01*
X18277Y21110D01*
X18268Y21097D01*
X18260Y21085D01*
X18251Y21075D01*
X18243Y21066D01*
X18236Y21059D01*
X18230Y21053D01*
X18225Y21049D01*
X18222Y21047D01*
X18221Y21046D01*
X18238Y21032D01*
X18252Y21018D01*
X18265Y21002D01*
X18276Y20987D01*
X18285Y20971D01*
X18293Y20955D01*
X18299Y20940D01*
X18304Y20925D01*
X18308Y20911D01*
X18311Y20898D01*
X18313Y20887D01*
X18314Y20877D01*
X18315Y20868D01*
X18316Y20862D01*
Y20858D01*
Y20857D01*
Y20762D01*
X18315Y20744D01*
X18313Y20728D01*
X18310Y20711D01*
X18305Y20696D01*
X18300Y20681D01*
X18294Y20667D01*
X18288Y20654D01*
X18281Y20643D01*
X18275Y20632D01*
X18269Y20623D01*
X18263Y20615D01*
X18258Y20608D01*
X18253Y20603D01*
X18250Y20599D01*
X18248Y20597D01*
X18247Y20596D01*
X18234Y20584D01*
X18220Y20573D01*
X18206Y20564D01*
X18192Y20556D01*
X18178Y20549D01*
X18164Y20544D01*
X18150Y20539D01*
X18138Y20536D01*
X18126Y20533D01*
X18115Y20531D01*
X18105Y20529D01*
X18096Y20528D01*
X18089Y20527D01*
X18080D01*
X18062Y20528D01*
X18045Y20530D01*
X18028Y20533D01*
X18013Y20538D01*
X17998Y20543D01*
X17984Y20549D01*
X17971Y20555D01*
X17960Y20562D01*
X17949Y20568D01*
X17940Y20574D01*
X17932Y20580D01*
X17925Y20585D01*
X17920Y20590D01*
X17916Y20593D01*
X17914Y20595D01*
X17913Y20596D01*
X17901Y20609D01*
X17890Y20623D01*
X17881Y20637D01*
X17872Y20651D01*
X17866Y20665D01*
X17860Y20679D01*
X17855Y20693D01*
X17852Y20705D01*
X17849Y20717D01*
X17847Y20728D01*
X17845Y20737D01*
X17844Y20746D01*
X17843Y20753D01*
Y20758D01*
Y20761D01*
Y20762D01*
Y20783D01*
Y20803D01*
X17844Y20821D01*
Y20837D01*
X17845Y20851D01*
X17846Y20864D01*
X17847Y20875D01*
Y20885D01*
X17848Y20894D01*
X17849Y20901D01*
X17850Y20907D01*
X17851Y20911D01*
Y20915D01*
X17852Y20917D01*
Y20919D01*
X17856Y20933D01*
X17861Y20946D01*
X17873Y20971D01*
X17887Y20993D01*
X17902Y21011D01*
X17916Y21026D01*
X17922Y21032D01*
X17927Y21037D01*
X17932Y21041D01*
X17935Y21044D01*
X17937Y21045D01*
X17938Y21046D01*
X17921Y21060D01*
X17907Y21075D01*
X17894Y21090D01*
X17883Y21106D01*
X17874Y21122D01*
X17866Y21138D01*
X17860Y21153D01*
X17855Y21168D01*
X17851Y21182D01*
X17848Y21195D01*
X17846Y21206D01*
X17844Y21216D01*
Y21225D01*
X17843Y21231D01*
Y21235D01*
Y21236D01*
X17844Y21254D01*
X17846Y21271D01*
X17849Y21288D01*
X17854Y21302D01*
X17859Y21317D01*
X17865Y21331D01*
X17871Y21344D01*
X17878Y21355D01*
X17884Y21366D01*
X17891Y21375D01*
X17897Y21383D01*
X17902Y21390D01*
X17907Y21395D01*
X17910Y21399D01*
X17912Y21401D01*
X17913Y21402D01*
X17926Y21414D01*
X17940Y21425D01*
X17954Y21434D01*
X17968Y21443D01*
X17982Y21449D01*
X17996Y21455D01*
X18010Y21460D01*
X18022Y21463D01*
X18034Y21466D01*
X18045Y21468D01*
X18055Y21470D01*
X18064Y21471D01*
X18070Y21472D01*
X18080D01*
X18098Y21471D01*
D02*
G37*
G36*
X41005Y25391D02*
X41023Y25389D01*
X41038Y25386D01*
X41054Y25381D01*
X41069Y25376D01*
X41083Y25370D01*
X41095Y25364D01*
X41107Y25357D01*
X41118Y25351D01*
X41127Y25345D01*
X41135Y25339D01*
X41142Y25334D01*
X41147Y25329D01*
X41151Y25326D01*
X41153Y25324D01*
X41154Y25323D01*
X41166Y25310D01*
X41177Y25296D01*
X41186Y25282D01*
X41194Y25268D01*
X41201Y25253D01*
X41206Y25239D01*
X41211Y25226D01*
X41214Y25213D01*
X41217Y25201D01*
X41219Y25190D01*
X41221Y25180D01*
X41222Y25172D01*
X41223Y25165D01*
Y24967D01*
X41222Y24959D01*
X41221Y24951D01*
X41216Y24940D01*
X41208Y24931D01*
X41199Y24926D01*
X41191Y24922D01*
X41183Y24921D01*
X41178Y24920D01*
X41176D01*
X41168D01*
X41160Y24922D01*
X41148Y24927D01*
X41140Y24935D01*
X41134Y24943D01*
X41130Y24952D01*
X41129Y24960D01*
X41128Y24965D01*
Y25155D01*
X41126Y25176D01*
X41122Y25196D01*
X41115Y25213D01*
X41107Y25228D01*
X41100Y25240D01*
X41093Y25248D01*
X41089Y25254D01*
X41087Y25256D01*
X41071Y25270D01*
X41053Y25280D01*
X41037Y25287D01*
X41022Y25292D01*
X41008Y25295D01*
X40997Y25296D01*
X40993Y25297D01*
X40990D01*
X40988D01*
X40987D01*
X40514D01*
X40493Y25295D01*
X40473Y25291D01*
X40457Y25284D01*
X40442Y25276D01*
X40430Y25269D01*
X40421Y25262D01*
X40416Y25258D01*
X40414Y25256D01*
X40400Y25240D01*
X40390Y25223D01*
X40382Y25206D01*
X40377Y25190D01*
X40374Y25176D01*
X40373Y25165D01*
X40372Y25161D01*
Y24967D01*
X40371Y24959D01*
X40370Y24951D01*
X40365Y24940D01*
X40357Y24931D01*
X40348Y24926D01*
X40340Y24922D01*
X40332Y24921D01*
X40327Y24920D01*
X40325D01*
X40317D01*
X40309Y24922D01*
X40297Y24927D01*
X40289Y24935D01*
X40283Y24943D01*
X40279Y24952D01*
X40278Y24960D01*
X40277Y24965D01*
Y25155D01*
X40278Y25173D01*
X40280Y25191D01*
X40283Y25207D01*
X40288Y25223D01*
X40293Y25238D01*
X40299Y25252D01*
X40305Y25264D01*
X40312Y25276D01*
X40318Y25287D01*
X40325Y25296D01*
X40331Y25304D01*
X40336Y25311D01*
X40341Y25316D01*
X40344Y25320D01*
X40346Y25322D01*
X40347Y25323D01*
X40360Y25335D01*
X40374Y25346D01*
X40388Y25355D01*
X40402Y25363D01*
X40416Y25370D01*
X40430Y25375D01*
X40444Y25380D01*
X40456Y25383D01*
X40467Y25386D01*
X40478Y25388D01*
X40488Y25390D01*
X40497Y25391D01*
X40503Y25392D01*
X40509D01*
X40512D01*
X40513D01*
X40987D01*
X41005Y25391D01*
D02*
G37*
G36*
X40333Y24730D02*
X40340Y24729D01*
X40352Y24724D01*
X40360Y24716D01*
X40366Y24707D01*
X40369Y24699D01*
X40371Y24691D01*
X40372Y24686D01*
Y24365D01*
X40703Y24439D01*
Y24495D01*
X40704Y24503D01*
X40705Y24510D01*
X40710Y24522D01*
X40718Y24530D01*
X40727Y24536D01*
X40736Y24539D01*
X40743Y24541D01*
X40749Y24542D01*
X40750D01*
X40751D01*
X40759Y24541D01*
X40766Y24540D01*
X40778Y24535D01*
X40786Y24527D01*
X40792Y24518D01*
X40795Y24510D01*
X40797Y24502D01*
X40798Y24497D01*
Y24460D01*
X41165Y24541D01*
X41168Y24542D01*
X41172D01*
X41175D01*
X41176D01*
X41184Y24541D01*
X41191Y24540D01*
X41203Y24534D01*
X41211Y24527D01*
X41217Y24518D01*
X41220Y24509D01*
X41222Y24501D01*
X41223Y24496D01*
Y24494D01*
X41221Y24482D01*
X41217Y24472D01*
X41211Y24464D01*
X41204Y24458D01*
X41198Y24454D01*
X41192Y24451D01*
X41188Y24449D01*
X41186D01*
X40798Y24363D01*
Y24306D01*
X40797Y24298D01*
X40796Y24290D01*
X40791Y24278D01*
X40783Y24270D01*
X40774Y24264D01*
X40766Y24260D01*
X40758Y24259D01*
X40753Y24258D01*
X40751D01*
X40743Y24259D01*
X40735Y24260D01*
X40723Y24265D01*
X40715Y24273D01*
X40709Y24282D01*
X40705Y24291D01*
X40704Y24298D01*
X40703Y24304D01*
Y24342D01*
X40335Y24260D01*
X40330Y24259D01*
X40326Y24258D01*
X40324D01*
X40323D01*
X40315Y24259D01*
X40308Y24260D01*
X40296Y24266D01*
X40288Y24274D01*
X40283Y24282D01*
X40279Y24291D01*
X40278Y24299D01*
X40277Y24304D01*
Y24684D01*
X40278Y24692D01*
X40279Y24699D01*
X40284Y24711D01*
X40292Y24719D01*
X40301Y24725D01*
X40310Y24728D01*
X40317Y24730D01*
X40323Y24731D01*
X40324D01*
X40325D01*
X40333Y24730D01*
D02*
G37*
G36*
X41005Y28591D02*
X41023Y28589D01*
X41038Y28586D01*
X41054Y28581D01*
X41069Y28576D01*
X41083Y28570D01*
X41095Y28564D01*
X41107Y28557D01*
X41118Y28551D01*
X41127Y28545D01*
X41135Y28539D01*
X41142Y28534D01*
X41147Y28529D01*
X41151Y28526D01*
X41153Y28524D01*
X41154Y28523D01*
X41166Y28510D01*
X41177Y28496D01*
X41186Y28482D01*
X41194Y28468D01*
X41201Y28453D01*
X41206Y28439D01*
X41211Y28426D01*
X41214Y28413D01*
X41217Y28401D01*
X41219Y28390D01*
X41221Y28380D01*
X41222Y28372D01*
X41223Y28365D01*
Y28167D01*
X41222Y28159D01*
X41221Y28151D01*
X41216Y28140D01*
X41208Y28131D01*
X41199Y28126D01*
X41191Y28122D01*
X41183Y28121D01*
X41178Y28120D01*
X41176D01*
X41168D01*
X41160Y28122D01*
X41148Y28127D01*
X41140Y28135D01*
X41134Y28143D01*
X41130Y28152D01*
X41129Y28160D01*
X41128Y28165D01*
Y28355D01*
X41126Y28376D01*
X41122Y28396D01*
X41115Y28413D01*
X41107Y28428D01*
X41100Y28440D01*
X41093Y28448D01*
X41089Y28454D01*
X41087Y28456D01*
X41071Y28470D01*
X41053Y28480D01*
X41037Y28487D01*
X41022Y28492D01*
X41008Y28495D01*
X40997Y28496D01*
X40993Y28497D01*
X40990D01*
X40988D01*
X40987D01*
X40514D01*
X40493Y28495D01*
X40473Y28491D01*
X40457Y28484D01*
X40442Y28476D01*
X40430Y28469D01*
X40421Y28462D01*
X40416Y28458D01*
X40414Y28456D01*
X40400Y28440D01*
X40390Y28423D01*
X40382Y28406D01*
X40377Y28390D01*
X40374Y28376D01*
X40373Y28365D01*
X40372Y28361D01*
Y28167D01*
X40371Y28159D01*
X40370Y28151D01*
X40365Y28140D01*
X40357Y28131D01*
X40348Y28126D01*
X40340Y28122D01*
X40332Y28121D01*
X40327Y28120D01*
X40325D01*
X40317D01*
X40309Y28122D01*
X40297Y28127D01*
X40289Y28135D01*
X40283Y28143D01*
X40279Y28152D01*
X40278Y28160D01*
X40277Y28165D01*
Y28355D01*
X40278Y28373D01*
X40280Y28391D01*
X40283Y28407D01*
X40288Y28423D01*
X40293Y28438D01*
X40299Y28452D01*
X40305Y28464D01*
X40312Y28476D01*
X40318Y28487D01*
X40325Y28496D01*
X40331Y28504D01*
X40336Y28511D01*
X40341Y28516D01*
X40344Y28520D01*
X40346Y28522D01*
X40347Y28523D01*
X40360Y28535D01*
X40374Y28546D01*
X40388Y28555D01*
X40402Y28563D01*
X40416Y28570D01*
X40430Y28575D01*
X40444Y28580D01*
X40456Y28583D01*
X40467Y28586D01*
X40478Y28588D01*
X40488Y28590D01*
X40497Y28591D01*
X40503Y28592D01*
X40509D01*
X40512D01*
X40513D01*
X40987D01*
X41005Y28591D01*
D02*
G37*
G36*
X41007Y27929D02*
X41024Y27927D01*
X41040Y27924D01*
X41055Y27919D01*
X41070Y27914D01*
X41084Y27908D01*
X41097Y27902D01*
X41108Y27896D01*
X41119Y27890D01*
X41128Y27883D01*
X41136Y27878D01*
X41143Y27873D01*
X41148Y27868D01*
X41152Y27865D01*
X41154Y27863D01*
X41155Y27862D01*
X41167Y27849D01*
X41177Y27835D01*
X41186Y27821D01*
X41194Y27807D01*
X41201Y27792D01*
X41206Y27778D01*
X41214Y27752D01*
X41217Y27740D01*
X41219Y27730D01*
X41221Y27720D01*
X41222Y27712D01*
X41223Y27705D01*
Y27695D01*
X41222Y27677D01*
X41220Y27660D01*
X41217Y27643D01*
X41212Y27628D01*
X41207Y27613D01*
X41201Y27599D01*
X41195Y27586D01*
X41189Y27575D01*
X41183Y27564D01*
X41176Y27555D01*
X41171Y27547D01*
X41166Y27540D01*
X41161Y27535D01*
X41158Y27531D01*
X41156Y27529D01*
X41155Y27528D01*
X41142Y27516D01*
X41128Y27505D01*
X41114Y27496D01*
X41099Y27487D01*
X41085Y27481D01*
X41071Y27475D01*
X41058Y27470D01*
X41045Y27467D01*
X41032Y27464D01*
X41022Y27462D01*
X41012Y27460D01*
X41004Y27459D01*
X40997Y27458D01*
X40991D01*
X40988D01*
X40987D01*
X40893D01*
X40875Y27459D01*
X40857Y27461D01*
X40840Y27464D01*
X40824Y27469D01*
X40809Y27474D01*
X40796Y27479D01*
X40783Y27486D01*
X40771Y27492D01*
X40760Y27498D01*
X40751Y27504D01*
X40743Y27510D01*
X40736Y27515D01*
X40731Y27520D01*
X40727Y27523D01*
X40725Y27525D01*
X40724Y27526D01*
X40712Y27539D01*
X40701Y27553D01*
X40692Y27567D01*
X40684Y27581D01*
X40677Y27595D01*
X40672Y27609D01*
X40667Y27623D01*
X40664Y27635D01*
X40661Y27648D01*
X40659Y27659D01*
X40657Y27669D01*
X40656Y27677D01*
X40655Y27684D01*
Y27831D01*
X40639Y27829D01*
X40624Y27825D01*
X40594Y27816D01*
X40566Y27804D01*
X40542Y27792D01*
X40531Y27785D01*
X40521Y27779D01*
X40513Y27774D01*
X40505Y27769D01*
X40500Y27765D01*
X40495Y27762D01*
X40493Y27760D01*
X40492Y27759D01*
X40474Y27744D01*
X40459Y27730D01*
X40444Y27714D01*
X40431Y27698D01*
X40419Y27683D01*
X40409Y27668D01*
X40400Y27653D01*
X40392Y27639D01*
X40386Y27626D01*
X40380Y27614D01*
X40376Y27604D01*
X40373Y27595D01*
X40370Y27587D01*
X40368Y27582D01*
X40367Y27578D01*
Y27577D01*
X40363Y27569D01*
X40358Y27563D01*
X40351Y27559D01*
X40344Y27556D01*
X40337Y27554D01*
X40332Y27553D01*
X40327D01*
X40326D01*
X40318Y27554D01*
X40310Y27555D01*
X40298Y27560D01*
X40290Y27568D01*
X40284Y27577D01*
X40280Y27586D01*
X40279Y27593D01*
X40278Y27599D01*
Y27607D01*
X40280Y27614D01*
X40283Y27628D01*
X40285Y27634D01*
X40287Y27639D01*
X40288Y27643D01*
X40289Y27644D01*
X40297Y27662D01*
X40306Y27680D01*
X40327Y27714D01*
X40349Y27743D01*
X40360Y27757D01*
X40371Y27770D01*
X40381Y27782D01*
X40391Y27793D01*
X40400Y27802D01*
X40408Y27809D01*
X40414Y27816D01*
X40419Y27820D01*
X40422Y27823D01*
X40423Y27824D01*
X40446Y27843D01*
X40469Y27859D01*
X40493Y27873D01*
X40517Y27885D01*
X40541Y27896D01*
X40564Y27904D01*
X40587Y27911D01*
X40608Y27917D01*
X40628Y27921D01*
X40647Y27924D01*
X40663Y27927D01*
X40677Y27928D01*
X40688Y27929D01*
X40697Y27930D01*
X40702D01*
X40704D01*
X40989D01*
X41007Y27929D01*
D02*
G37*
G36*
X36813Y26046D02*
X36823Y26042D01*
X36831Y26036D01*
X36837Y26030D01*
X36842Y26023D01*
X36845Y26018D01*
X36846Y26014D01*
X36847Y26012D01*
X37036Y25350D01*
X37037Y25346D01*
Y25342D01*
Y25338D01*
Y25337D01*
X37036Y25329D01*
X37035Y25322D01*
X37030Y25310D01*
X37022Y25302D01*
X37013Y25296D01*
X37005Y25294D01*
X36997Y25292D01*
X36992Y25291D01*
X36706D01*
Y25149D01*
X36705Y25141D01*
X36704Y25134D01*
X36699Y25122D01*
X36691Y25114D01*
X36682Y25108D01*
X36674Y25105D01*
X36666Y25103D01*
X36661Y25102D01*
X36659D01*
X36651Y25103D01*
X36643Y25104D01*
X36631Y25109D01*
X36623Y25117D01*
X36617Y25126D01*
X36613Y25134D01*
X36612Y25142D01*
X36611Y25147D01*
Y25149D01*
Y25291D01*
X36517D01*
X36509Y25292D01*
X36501Y25292D01*
X36489Y25297D01*
X36481Y25305D01*
X36475Y25314D01*
X36471Y25322D01*
X36470Y25330D01*
X36469Y25335D01*
Y25337D01*
X36470Y25345D01*
X36471Y25353D01*
X36476Y25365D01*
X36484Y25373D01*
X36493Y25379D01*
X36502Y25383D01*
X36509Y25384D01*
X36515Y25385D01*
X36611D01*
Y25527D01*
X36612Y25535D01*
X36613Y25543D01*
X36618Y25554D01*
X36626Y25563D01*
X36635Y25568D01*
X36644Y25572D01*
X36651Y25573D01*
X36657Y25574D01*
X36667D01*
X36674Y25572D01*
X36686Y25567D01*
X36694Y25559D01*
X36700Y25551D01*
X36703Y25542D01*
X36705Y25534D01*
X36706Y25529D01*
Y25528D01*
Y25527D01*
Y25385D01*
X36928D01*
X36756Y25986D01*
X36755Y25991D01*
X36754Y25995D01*
Y25998D01*
Y25999D01*
Y26007D01*
X36756Y26015D01*
X36761Y26027D01*
X36769Y26035D01*
X36777Y26041D01*
X36786Y26045D01*
X36794Y26046D01*
X36799Y26047D01*
X36801D01*
X36813Y26046D01*
D02*
G37*
G36*
X37480Y26047D02*
X37497Y26045D01*
X37513Y26042D01*
X37529Y26037D01*
X37544Y26032D01*
X37558Y26026D01*
X37570Y26020D01*
X37582Y26013D01*
X37593Y26007D01*
X37602Y26000D01*
X37610Y25994D01*
X37617Y25989D01*
X37622Y25984D01*
X37626Y25981D01*
X37628Y25979D01*
X37629Y25978D01*
X37641Y25965D01*
X37652Y25951D01*
X37661Y25937D01*
X37669Y25923D01*
X37676Y25909D01*
X37681Y25895D01*
X37686Y25881D01*
X37689Y25869D01*
X37692Y25857D01*
X37694Y25847D01*
X37696Y25837D01*
X37697Y25828D01*
X37698Y25822D01*
Y25816D01*
Y25813D01*
Y25812D01*
Y25338D01*
X37697Y25320D01*
X37695Y25302D01*
X37692Y25287D01*
X37687Y25271D01*
X37682Y25256D01*
X37676Y25242D01*
X37670Y25230D01*
X37663Y25218D01*
X37657Y25207D01*
X37651Y25198D01*
X37645Y25190D01*
X37640Y25183D01*
X37635Y25178D01*
X37632Y25174D01*
X37630Y25172D01*
X37629Y25171D01*
X37616Y25159D01*
X37602Y25148D01*
X37588Y25139D01*
X37574Y25131D01*
X37559Y25124D01*
X37545Y25119D01*
X37532Y25114D01*
X37519Y25111D01*
X37507Y25108D01*
X37496Y25106D01*
X37487Y25104D01*
X37479Y25103D01*
X37472Y25102D01*
X37273D01*
X37265Y25103D01*
X37257Y25104D01*
X37246Y25109D01*
X37237Y25117D01*
X37232Y25126D01*
X37228Y25134D01*
X37227Y25142D01*
X37226Y25147D01*
Y25149D01*
Y25157D01*
X37228Y25165D01*
X37233Y25177D01*
X37241Y25185D01*
X37249Y25191D01*
X37258Y25195D01*
X37266Y25196D01*
X37271Y25197D01*
X37462D01*
X37483Y25199D01*
X37502Y25203D01*
X37519Y25210D01*
X37534Y25218D01*
X37546Y25225D01*
X37554Y25232D01*
X37560Y25236D01*
X37562Y25238D01*
X37576Y25254D01*
X37586Y25272D01*
X37593Y25288D01*
X37598Y25303D01*
X37601Y25317D01*
X37602Y25328D01*
X37603Y25332D01*
Y25335D01*
Y25337D01*
Y25338D01*
Y25811D01*
X37601Y25832D01*
X37597Y25851D01*
X37590Y25868D01*
X37582Y25883D01*
X37575Y25895D01*
X37568Y25904D01*
X37564Y25909D01*
X37562Y25911D01*
X37546Y25925D01*
X37529Y25935D01*
X37512Y25943D01*
X37496Y25948D01*
X37483Y25951D01*
X37472Y25952D01*
X37468Y25953D01*
X37273D01*
X37265Y25954D01*
X37257Y25955D01*
X37246Y25960D01*
X37237Y25968D01*
X37232Y25977D01*
X37228Y25985D01*
X37227Y25993D01*
X37226Y25998D01*
Y26000D01*
Y26008D01*
X37228Y26016D01*
X37233Y26028D01*
X37241Y26036D01*
X37249Y26042D01*
X37258Y26046D01*
X37266Y26047D01*
X37271Y26048D01*
X37462D01*
X37480Y26047D01*
D02*
G37*
G36*
X27774Y29472D02*
X27792Y29470D01*
X27808Y29467D01*
X27824Y29462D01*
X27839Y29457D01*
X27853Y29451D01*
X27865Y29445D01*
X27877Y29438D01*
X27888Y29432D01*
X27897Y29425D01*
X27905Y29419D01*
X27912Y29414D01*
X27917Y29409D01*
X27921Y29406D01*
X27923Y29404D01*
X27924Y29403D01*
X27936Y29390D01*
X27947Y29376D01*
X27956Y29362D01*
X27964Y29348D01*
X27971Y29334D01*
X27976Y29320D01*
X27981Y29306D01*
X27983Y29294D01*
X27986Y29282D01*
X27988Y29272D01*
X27990Y29262D01*
X27991Y29253D01*
X27992Y29247D01*
Y29241D01*
Y29238D01*
Y29237D01*
Y28763D01*
X27991Y28745D01*
X27989Y28727D01*
X27986Y28712D01*
X27982Y28696D01*
X27977Y28681D01*
X27971Y28667D01*
X27965Y28655D01*
X27958Y28643D01*
X27952Y28632D01*
X27946Y28623D01*
X27940Y28615D01*
X27935Y28608D01*
X27930Y28603D01*
X27927Y28599D01*
X27925Y28597D01*
X27924Y28596D01*
X27911Y28584D01*
X27897Y28573D01*
X27883Y28564D01*
X27869Y28556D01*
X27854Y28549D01*
X27840Y28544D01*
X27827Y28539D01*
X27814Y28536D01*
X27802Y28533D01*
X27791Y28531D01*
X27781Y28529D01*
X27773Y28528D01*
X27766Y28527D01*
X27567D01*
X27559Y28528D01*
X27551Y28529D01*
X27540Y28534D01*
X27531Y28542D01*
X27526Y28551D01*
X27522Y28559D01*
X27521Y28567D01*
X27520Y28572D01*
Y28574D01*
Y28582D01*
X27522Y28590D01*
X27527Y28602D01*
X27535Y28610D01*
X27543Y28616D01*
X27552Y28620D01*
X27560Y28621D01*
X27565Y28622D01*
X27756D01*
X27777Y28624D01*
X27797Y28628D01*
X27814Y28635D01*
X27829Y28643D01*
X27841Y28650D01*
X27849Y28657D01*
X27855Y28661D01*
X27857Y28663D01*
X27871Y28679D01*
X27881Y28697D01*
X27888Y28713D01*
X27893Y28728D01*
X27896Y28742D01*
X27897Y28753D01*
X27898Y28757D01*
Y28760D01*
Y28762D01*
Y28763D01*
Y29236D01*
X27896Y29257D01*
X27892Y29277D01*
X27885Y29293D01*
X27877Y29308D01*
X27870Y29320D01*
X27863Y29329D01*
X27859Y29334D01*
X27857Y29336D01*
X27841Y29350D01*
X27824Y29360D01*
X27807Y29368D01*
X27791Y29373D01*
X27777Y29376D01*
X27766Y29377D01*
X27762Y29378D01*
X27567D01*
X27559Y29379D01*
X27551Y29380D01*
X27540Y29385D01*
X27531Y29393D01*
X27526Y29402D01*
X27522Y29410D01*
X27521Y29418D01*
X27520Y29423D01*
Y29425D01*
Y29433D01*
X27522Y29441D01*
X27527Y29453D01*
X27535Y29461D01*
X27543Y29467D01*
X27552Y29471D01*
X27560Y29472D01*
X27565Y29473D01*
X27756D01*
X27774Y29472D01*
D02*
G37*
G36*
X27292D02*
X27299Y29471D01*
X27311Y29466D01*
X27319Y29458D01*
X27325Y29449D01*
X27328Y29440D01*
X27330Y29433D01*
X27331Y29427D01*
Y29426D01*
Y29425D01*
X27330Y29417D01*
X27329Y29410D01*
X27324Y29398D01*
X27316Y29390D01*
X27307Y29384D01*
X27299Y29381D01*
X27291Y29379D01*
X27286Y29378D01*
X27095D01*
X27074Y29376D01*
X27054Y29371D01*
X27037Y29365D01*
X27022Y29357D01*
X27010Y29349D01*
X27001Y29343D01*
X26996Y29338D01*
X26994Y29336D01*
X26980Y29320D01*
X26970Y29303D01*
X26962Y29286D01*
X26957Y29271D01*
X26954Y29258D01*
X26953Y29247D01*
X26952Y29243D01*
Y29240D01*
Y29238D01*
Y29237D01*
X26954Y29215D01*
X26959Y29196D01*
X26965Y29179D01*
X26973Y29164D01*
X26981Y29152D01*
X26987Y29143D01*
X26992Y29138D01*
X26994Y29136D01*
X27010Y29122D01*
X27027Y29112D01*
X27044Y29105D01*
X27060Y29100D01*
X27074Y29097D01*
X27085Y29096D01*
X27089Y29095D01*
X27189D01*
X27197Y29094D01*
X27205Y29093D01*
X27217Y29088D01*
X27225Y29080D01*
X27231Y29071D01*
X27234Y29062D01*
X27236Y29055D01*
X27237Y29049D01*
Y29048D01*
Y29047D01*
X27236Y29039D01*
X27235Y29032D01*
X27229Y29020D01*
X27222Y29012D01*
X27213Y29006D01*
X27204Y29003D01*
X27196Y29001D01*
X27191Y29000D01*
X27095D01*
X27074Y28998D01*
X27054Y28993D01*
X27037Y28987D01*
X27022Y28979D01*
X27010Y28971D01*
X27001Y28965D01*
X26996Y28960D01*
X26994Y28958D01*
X26980Y28942D01*
X26970Y28925D01*
X26962Y28908D01*
X26957Y28892D01*
X26954Y28878D01*
X26953Y28867D01*
X26952Y28863D01*
Y28860D01*
Y28858D01*
Y28857D01*
Y28763D01*
X26954Y28741D01*
X26959Y28722D01*
X26965Y28706D01*
X26973Y28691D01*
X26981Y28679D01*
X26987Y28670D01*
X26992Y28665D01*
X26994Y28663D01*
X27010Y28649D01*
X27027Y28639D01*
X27044Y28632D01*
X27060Y28627D01*
X27074Y28624D01*
X27085Y28623D01*
X27089Y28622D01*
X27284D01*
X27292Y28621D01*
X27299Y28620D01*
X27311Y28615D01*
X27319Y28607D01*
X27325Y28598D01*
X27328Y28589D01*
X27330Y28582D01*
X27331Y28576D01*
Y28575D01*
Y28574D01*
X27330Y28566D01*
X27329Y28559D01*
X27324Y28547D01*
X27316Y28539D01*
X27307Y28533D01*
X27299Y28530D01*
X27291Y28528D01*
X27286Y28527D01*
X27095D01*
X27077Y28528D01*
X27060Y28530D01*
X27043Y28533D01*
X27027Y28538D01*
X27013Y28543D01*
X26999Y28549D01*
X26986Y28555D01*
X26974Y28562D01*
X26964Y28568D01*
X26954Y28574D01*
X26946Y28580D01*
X26939Y28585D01*
X26934Y28590D01*
X26930Y28593D01*
X26928Y28595D01*
X26927Y28596D01*
X26915Y28609D01*
X26904Y28623D01*
X26895Y28637D01*
X26886Y28651D01*
X26880Y28666D01*
X26874Y28680D01*
X26869Y28693D01*
X26866Y28706D01*
X26864Y28718D01*
X26861Y28728D01*
X26860Y28738D01*
X26859Y28746D01*
X26858Y28753D01*
Y28759D01*
Y28762D01*
Y28763D01*
Y28857D01*
X26859Y28879D01*
X26861Y28899D01*
X26866Y28918D01*
X26872Y28937D01*
X26879Y28953D01*
X26887Y28969D01*
X26896Y28983D01*
X26904Y28996D01*
X26913Y29008D01*
X26922Y29018D01*
X26930Y29027D01*
X26937Y29034D01*
X26943Y29040D01*
X26948Y29044D01*
X26951Y29046D01*
X26952Y29047D01*
X26935Y29061D01*
X26921Y29076D01*
X26908Y29091D01*
X26897Y29107D01*
X26888Y29123D01*
X26880Y29139D01*
X26874Y29154D01*
X26869Y29169D01*
X26865Y29183D01*
X26862Y29196D01*
X26861Y29207D01*
X26859Y29217D01*
Y29226D01*
X26858Y29232D01*
Y29236D01*
Y29237D01*
X26859Y29255D01*
X26861Y29272D01*
X26864Y29287D01*
X26868Y29303D01*
X26873Y29318D01*
X26879Y29331D01*
X26885Y29344D01*
X26892Y29356D01*
X26898Y29366D01*
X26905Y29376D01*
X26911Y29384D01*
X26916Y29391D01*
X26921Y29396D01*
X26924Y29400D01*
X26926Y29402D01*
X26927Y29403D01*
X26940Y29415D01*
X26954Y29426D01*
X26968Y29435D01*
X26982Y29444D01*
X26997Y29450D01*
X27010Y29456D01*
X27024Y29461D01*
X27037Y29464D01*
X27049Y29467D01*
X27060Y29469D01*
X27070Y29471D01*
X27078Y29472D01*
X27085Y29473D01*
X27284D01*
X27292Y29472D01*
D02*
G37*
%LPC*%
G36*
X17961Y23228D02*
X17958D01*
X17944Y23226D01*
X17930Y23221D01*
X17918Y23213D01*
X17907Y23203D01*
X17896Y23191D01*
X17887Y23178D01*
X17870Y23149D01*
X17858Y23121D01*
X17853Y23108D01*
X17849Y23096D01*
X17846Y23086D01*
X17844Y23078D01*
X17842Y23073D01*
Y23071D01*
X17833Y23032D01*
X17827Y22993D01*
X17822Y22955D01*
X17821Y22938D01*
X17819Y22922D01*
X17818Y22906D01*
X17817Y22893D01*
Y22880D01*
X17816Y22870D01*
Y22862D01*
Y22855D01*
Y22851D01*
Y22850D01*
X17817Y22807D01*
X17820Y22766D01*
X17822Y22747D01*
X17824Y22728D01*
X17827Y22711D01*
X17829Y22695D01*
X17831Y22681D01*
X17834Y22667D01*
X17836Y22656D01*
X17838Y22646D01*
X17840Y22638D01*
X17841Y22633D01*
X17842Y22629D01*
Y22628D01*
X17849Y22600D01*
X17858Y22576D01*
X17866Y22556D01*
X17876Y22538D01*
X17885Y22523D01*
X17895Y22510D01*
X17905Y22500D01*
X17914Y22492D01*
X17923Y22485D01*
X17931Y22480D01*
X17939Y22477D01*
X17945Y22474D01*
X17950Y22473D01*
X17955Y22472D01*
X17958D01*
X17972Y22474D01*
X17986Y22479D01*
X17998Y22487D01*
X18009Y22497D01*
X18020Y22508D01*
X18029Y22522D01*
X18046Y22551D01*
X18058Y22578D01*
X18063Y22592D01*
X18067Y22604D01*
X18070Y22614D01*
X18072Y22621D01*
X18074Y22626D01*
Y22628D01*
X18082Y22668D01*
X18088Y22707D01*
X18093Y22744D01*
X18095Y22762D01*
X18096Y22778D01*
X18097Y22794D01*
X18098Y22807D01*
Y22820D01*
X18099Y22830D01*
Y22839D01*
Y22845D01*
Y22849D01*
Y22850D01*
X18098Y22892D01*
X18095Y22933D01*
X18093Y22952D01*
X18091Y22970D01*
X18089Y22987D01*
X18086Y23003D01*
X18084Y23018D01*
X18082Y23031D01*
X18080Y23043D01*
X18078Y23053D01*
X18076Y23060D01*
X18075Y23066D01*
X18074Y23070D01*
Y23071D01*
X18066Y23099D01*
X18058Y23123D01*
X18049Y23143D01*
X18040Y23161D01*
X18030Y23177D01*
X18021Y23189D01*
X18011Y23200D01*
X18002Y23208D01*
X17993Y23215D01*
X17985Y23220D01*
X17977Y23223D01*
X17971Y23226D01*
X17965Y23227D01*
X17961Y23228D01*
D02*
G37*
G36*
X18775Y25128D02*
X18587D01*
X18572Y25127D01*
X18559Y25126D01*
X18533Y25119D01*
X18510Y25111D01*
X18490Y25101D01*
X18482Y25095D01*
X18475Y25090D01*
X18468Y25086D01*
X18463Y25082D01*
X18459Y25078D01*
X18455Y25075D01*
X18454Y25074D01*
X18453Y25073D01*
X18443Y25062D01*
X18435Y25051D01*
X18427Y25040D01*
X18421Y25029D01*
X18411Y25007D01*
X18405Y24986D01*
X18401Y24967D01*
X18400Y24959D01*
X18399Y24952D01*
X18398Y24947D01*
Y24943D01*
Y24940D01*
Y24939D01*
X18399Y24924D01*
X18400Y24910D01*
X18407Y24884D01*
X18415Y24861D01*
X18425Y24842D01*
X18431Y24833D01*
X18436Y24826D01*
X18440Y24819D01*
X18444Y24814D01*
X18448Y24810D01*
X18451Y24807D01*
X18452Y24805D01*
X18453Y24804D01*
X18464Y24795D01*
X18475Y24786D01*
X18486Y24779D01*
X18497Y24773D01*
X18520Y24763D01*
X18541Y24757D01*
X18559Y24753D01*
X18567Y24752D01*
X18574Y24751D01*
X18579Y24750D01*
X18775D01*
Y25128D01*
D02*
G37*
G36*
X15504Y38300D02*
X15364D01*
X15343Y38298D01*
X15323Y38293D01*
X15306Y38287D01*
X15292Y38279D01*
X15280Y38271D01*
X15271Y38265D01*
X15266Y38260D01*
X15264Y38258D01*
X15250Y38242D01*
X15240Y38225D01*
X15232Y38208D01*
X15227Y38192D01*
X15224Y38178D01*
X15223Y38167D01*
X15222Y38163D01*
Y38160D01*
Y38158D01*
Y38157D01*
Y38063D01*
X15224Y38042D01*
X15229Y38022D01*
X15235Y38006D01*
X15243Y37991D01*
X15251Y37979D01*
X15257Y37971D01*
X15262Y37965D01*
X15264Y37963D01*
X15280Y37949D01*
X15297Y37939D01*
X15314Y37932D01*
X15329Y37927D01*
X15343Y37924D01*
X15354Y37923D01*
X15358Y37922D01*
X15364D01*
X15385Y37924D01*
X15404Y37928D01*
X15422Y37935D01*
X15436Y37943D01*
X15448Y37950D01*
X15457Y37957D01*
X15462Y37961D01*
X15464Y37963D01*
X15477Y37979D01*
X15487Y37996D01*
X15494Y38013D01*
X15499Y38028D01*
X15502Y38042D01*
X15503Y38053D01*
X15504Y38057D01*
Y38060D01*
Y38062D01*
Y38063D01*
Y38300D01*
D02*
G37*
G36*
X1238Y33592D02*
X1235D01*
X1221Y33590D01*
X1207Y33585D01*
X1195Y33577D01*
X1184Y33567D01*
X1173Y33555D01*
X1164Y33542D01*
X1147Y33513D01*
X1135Y33484D01*
X1130Y33471D01*
X1126Y33459D01*
X1123Y33449D01*
X1121Y33441D01*
X1119Y33436D01*
Y33434D01*
X1110Y33395D01*
X1104Y33356D01*
X1099Y33319D01*
X1098Y33302D01*
X1096Y33286D01*
X1095Y33270D01*
X1094Y33257D01*
Y33244D01*
X1093Y33234D01*
Y33226D01*
Y33219D01*
Y33215D01*
Y33214D01*
X1094Y33171D01*
X1097Y33130D01*
X1099Y33111D01*
X1101Y33092D01*
X1104Y33075D01*
X1106Y33059D01*
X1108Y33045D01*
X1111Y33031D01*
X1113Y33020D01*
X1115Y33010D01*
X1117Y33002D01*
X1118Y32997D01*
X1119Y32993D01*
Y32992D01*
X1126Y32964D01*
X1135Y32940D01*
X1143Y32919D01*
X1153Y32901D01*
X1162Y32886D01*
X1172Y32873D01*
X1182Y32863D01*
X1191Y32855D01*
X1200Y32848D01*
X1208Y32843D01*
X1216Y32840D01*
X1222Y32837D01*
X1227Y32836D01*
X1232Y32835D01*
X1235D01*
X1249Y32837D01*
X1263Y32842D01*
X1275Y32850D01*
X1286Y32860D01*
X1297Y32871D01*
X1306Y32885D01*
X1323Y32914D01*
X1335Y32942D01*
X1340Y32956D01*
X1344Y32968D01*
X1347Y32978D01*
X1349Y32985D01*
X1351Y32990D01*
Y32992D01*
X1359Y33032D01*
X1365Y33071D01*
X1370Y33108D01*
X1372Y33126D01*
X1373Y33142D01*
X1374Y33158D01*
X1375Y33171D01*
Y33184D01*
X1376Y33194D01*
Y33203D01*
Y33209D01*
Y33213D01*
Y33214D01*
X1375Y33256D01*
X1372Y33297D01*
X1370Y33316D01*
X1368Y33334D01*
X1366Y33351D01*
X1363Y33366D01*
X1361Y33381D01*
X1359Y33394D01*
X1357Y33406D01*
X1355Y33416D01*
X1353Y33423D01*
X1352Y33429D01*
X1351Y33433D01*
Y33434D01*
X1343Y33462D01*
X1335Y33486D01*
X1326Y33507D01*
X1317Y33525D01*
X1307Y33541D01*
X1298Y33553D01*
X1288Y33564D01*
X1279Y33572D01*
X1270Y33579D01*
X1262Y33584D01*
X1254Y33587D01*
X1248Y33590D01*
X1242Y33591D01*
X1238Y33592D01*
D02*
G37*
G36*
X8899Y24525D02*
X8758D01*
X8737Y24523D01*
X8717Y24518D01*
X8700Y24512D01*
X8686Y24504D01*
X8674Y24496D01*
X8665Y24490D01*
X8660Y24485D01*
X8658Y24483D01*
X8644Y24467D01*
X8634Y24450D01*
X8626Y24433D01*
X8621Y24417D01*
X8618Y24403D01*
X8617Y24392D01*
X8616Y24388D01*
Y24385D01*
Y24383D01*
Y24382D01*
Y24288D01*
X8618Y24267D01*
X8623Y24247D01*
X8629Y24231D01*
X8637Y24216D01*
X8645Y24204D01*
X8651Y24196D01*
X8656Y24190D01*
X8658Y24188D01*
X8674Y24174D01*
X8691Y24164D01*
X8708Y24157D01*
X8723Y24152D01*
X8737Y24149D01*
X8748Y24148D01*
X8752Y24147D01*
X8758D01*
X8779Y24149D01*
X8798Y24153D01*
X8816Y24160D01*
X8830Y24168D01*
X8842Y24175D01*
X8851Y24182D01*
X8856Y24186D01*
X8858Y24188D01*
X8872Y24204D01*
X8882Y24221D01*
X8889Y24238D01*
X8894Y24253D01*
X8897Y24267D01*
X8898Y24278D01*
X8899Y24282D01*
Y24285D01*
Y24287D01*
Y24288D01*
Y24525D01*
D02*
G37*
G36*
X18086Y21377D02*
X18080D01*
X18059Y21375D01*
X18039Y21370D01*
X18022Y21364D01*
X18008Y21356D01*
X17996Y21348D01*
X17987Y21342D01*
X17982Y21337D01*
X17980Y21335D01*
X17966Y21319D01*
X17956Y21302D01*
X17948Y21285D01*
X17943Y21271D01*
X17940Y21257D01*
X17939Y21246D01*
X17938Y21242D01*
Y21239D01*
Y21237D01*
Y21236D01*
X17940Y21215D01*
X17945Y21195D01*
X17951Y21178D01*
X17959Y21163D01*
X17967Y21151D01*
X17973Y21143D01*
X17978Y21137D01*
X17980Y21135D01*
X17996Y21121D01*
X18013Y21111D01*
X18030Y21104D01*
X18045Y21099D01*
X18059Y21096D01*
X18070Y21095D01*
X18074Y21094D01*
X18080D01*
X18101Y21096D01*
X18120Y21100D01*
X18138Y21107D01*
X18152Y21115D01*
X18164Y21122D01*
X18173Y21129D01*
X18178Y21133D01*
X18180Y21135D01*
X18194Y21151D01*
X18204Y21169D01*
X18211Y21185D01*
X18216Y21201D01*
X18219Y21215D01*
X18220Y21226D01*
X18221Y21230D01*
Y21233D01*
Y21235D01*
Y21236D01*
X18219Y21258D01*
X18215Y21277D01*
X18208Y21293D01*
X18200Y21308D01*
X18193Y21320D01*
X18186Y21329D01*
X18182Y21334D01*
X18180Y21336D01*
X18164Y21350D01*
X18147Y21360D01*
X18130Y21367D01*
X18115Y21372D01*
X18101Y21375D01*
X18090Y21376D01*
X18086Y21377D01*
D02*
G37*
G36*
Y20999D02*
X18080D01*
X18059Y20997D01*
X18039Y20992D01*
X18022Y20986D01*
X18008Y20978D01*
X17996Y20970D01*
X17987Y20964D01*
X17982Y20959D01*
X17980Y20957D01*
X17966Y20941D01*
X17956Y20924D01*
X17948Y20907D01*
X17943Y20892D01*
X17940Y20878D01*
X17939Y20867D01*
X17938Y20863D01*
Y20860D01*
Y20858D01*
Y20857D01*
Y20763D01*
X17940Y20741D01*
X17945Y20723D01*
X17951Y20706D01*
X17959Y20691D01*
X17967Y20679D01*
X17973Y20670D01*
X17978Y20665D01*
X17980Y20663D01*
X17996Y20649D01*
X18013Y20639D01*
X18030Y20632D01*
X18045Y20627D01*
X18059Y20624D01*
X18070Y20623D01*
X18074Y20622D01*
X18080D01*
X18101Y20624D01*
X18120Y20628D01*
X18138Y20635D01*
X18152Y20643D01*
X18164Y20650D01*
X18173Y20657D01*
X18178Y20661D01*
X18180Y20663D01*
X18194Y20679D01*
X18204Y20696D01*
X18211Y20713D01*
X18216Y20729D01*
X18219Y20742D01*
X18220Y20753D01*
X18221Y20757D01*
Y20760D01*
Y20762D01*
Y20763D01*
Y20857D01*
X18219Y20879D01*
X18215Y20898D01*
X18208Y20915D01*
X18200Y20930D01*
X18193Y20942D01*
X18186Y20951D01*
X18182Y20956D01*
X18180Y20958D01*
X18164Y20972D01*
X18147Y20982D01*
X18130Y20989D01*
X18115Y20994D01*
X18101Y20997D01*
X18090Y20998D01*
X18086Y20999D01*
D02*
G37*
G36*
X40993Y27835D02*
X40990D01*
X40988D01*
X40987D01*
X40750D01*
Y27695D01*
X40752Y27674D01*
X40757Y27654D01*
X40763Y27637D01*
X40771Y27623D01*
X40779Y27611D01*
X40785Y27602D01*
X40790Y27597D01*
X40792Y27595D01*
X40808Y27581D01*
X40825Y27571D01*
X40842Y27563D01*
X40858Y27558D01*
X40872Y27555D01*
X40883Y27554D01*
X40887Y27553D01*
X40890D01*
X40892D01*
X40893D01*
X40987D01*
X41008Y27555D01*
X41028Y27560D01*
X41044Y27566D01*
X41059Y27574D01*
X41071Y27582D01*
X41079Y27588D01*
X41085Y27593D01*
X41087Y27595D01*
X41101Y27611D01*
X41111Y27628D01*
X41118Y27645D01*
X41123Y27660D01*
X41126Y27674D01*
X41127Y27685D01*
X41128Y27689D01*
Y27695D01*
X41126Y27716D01*
X41122Y27735D01*
X41115Y27752D01*
X41107Y27766D01*
X41100Y27778D01*
X41093Y27787D01*
X41089Y27792D01*
X41087Y27794D01*
X41071Y27808D01*
X41054Y27818D01*
X41037Y27825D01*
X41022Y27830D01*
X41008Y27833D01*
X40997Y27834D01*
X40993Y27835D01*
D02*
G37*
%LPD*%
D10*
X17650Y33475D02*
X19550D01*
X17650Y36775D02*
X19550D01*
X17650Y33475D02*
Y36775D01*
X19550Y33475D02*
Y36775D01*
X13655Y21925D02*
X16955D01*
X13655Y23825D02*
X16955D01*
Y21925D02*
Y23825D01*
X13655Y21925D02*
Y23825D01*
Y20050D02*
Y21950D01*
X16955Y20050D02*
Y21950D01*
X13655D02*
X16955D01*
X13655Y20050D02*
X16955D01*
X13650Y23800D02*
X16950D01*
X13650D02*
Y25700D01*
X16950Y23800D02*
Y25700D01*
X13650D02*
X16950D01*
X10850Y29950D02*
X12750D01*
X10850Y26650D02*
X12750D01*
Y29950D01*
X10850Y26650D02*
Y29950D01*
X35450Y22600D02*
Y24500D01*
X38750Y22600D02*
Y24500D01*
X35450D02*
X38750D01*
X35450Y22600D02*
X38750D01*
X35100Y31475D02*
X38400D01*
X35100Y33375D02*
X38400D01*
Y31475D02*
Y33375D01*
X35100Y31475D02*
Y33375D01*
X825Y28850D02*
X2725D01*
X825Y32150D02*
X2725D01*
X825Y28850D02*
Y32150D01*
X2725Y28850D02*
Y32150D01*
X26575Y24625D02*
Y27925D01*
X28475Y24625D02*
Y27925D01*
X26575Y24625D02*
X28475D01*
X26575Y27925D02*
X28475D01*
X41900Y23175D02*
Y26475D01*
X43800Y23175D02*
Y26475D01*
X41900Y23175D02*
X43800D01*
X41900Y26475D02*
X43800D01*
X41900Y26525D02*
Y29825D01*
X43800Y26525D02*
Y29825D01*
X41900Y26525D02*
X43800D01*
X41900Y29825D02*
X43800D01*
X12800Y3375D02*
Y6675D01*
X14700Y3375D02*
Y6675D01*
X12800Y3375D02*
X14700D01*
X12800Y6675D02*
X14700D01*
X9525Y31325D02*
Y34625D01*
X7625Y31325D02*
Y34625D01*
X9525D01*
X7625Y31325D02*
X9525D01*
X14700Y8125D02*
Y11425D01*
X12800Y8125D02*
Y11425D01*
X14700D01*
X12800Y8125D02*
X14700D01*
X825Y16825D02*
Y20125D01*
X2725Y16825D02*
Y20125D01*
X825Y16825D02*
X2725D01*
X825Y20125D02*
X2725D01*
D14*
X14625Y34200D02*
Y34850D01*
X17425Y34200D02*
Y34850D01*
X14625D02*
X17425D01*
X14625Y34725D02*
X17425D01*
X10675Y27350D02*
Y28000D01*
X7875Y27350D02*
Y28000D01*
Y27350D02*
X10675D01*
X7875Y27475D02*
X10675D01*
X11025Y4100D02*
Y4750D01*
X8225Y4100D02*
Y4750D01*
Y4100D02*
X11025D01*
X8225Y4225D02*
X11025D01*
X8061Y9975D02*
Y10625D01*
X10861Y9975D02*
Y10625D01*
X8061D02*
X10861D01*
X8061Y10500D02*
X10861D01*
X4500Y30825D02*
Y31475D01*
X7300Y30825D02*
Y31475D01*
X4500D02*
X7300D01*
X4500Y31350D02*
X7300D01*
X9650Y33800D02*
X12450D01*
X9650Y33925D02*
X12450D01*
Y33275D02*
Y33925D01*
X9650Y33275D02*
Y33925D01*
X4665Y17675D02*
X7464D01*
X4665Y17550D02*
X7464D01*
X4665D02*
Y18200D01*
X7464Y17550D02*
Y18200D01*
D15*
X17562Y36525D02*
G03*
X17562Y36525I-13J0D01*
G01*
X7762Y25675D02*
G03*
X7762Y25675I-13J0D01*
G01*
X8113Y2425D02*
G03*
X8113Y2425I-13J0D01*
G01*
X10998Y12300D02*
G03*
X10998Y12300I-13J0D01*
G01*
X7438Y33150D02*
G03*
X7438Y33150I-13J0D01*
G01*
X12587Y35600D02*
G03*
X12587Y35600I-13J0D01*
G01*
X4552Y15875D02*
G03*
X4552Y15875I-13J0D01*
G01*
M02*
