G04*
G04 #@! TF.GenerationSoftware,Altium Limited,Altium Designer,23.11.1 (41)*
G04*
G04 Layer_Color=16711935*
%FSLAX43Y43*%
%MOMM*%
G71*
G04*
G04 #@! TF.SameCoordinates,D39783C5-6E33-4812-9A3B-6E021FC33A11*
G04*
G04*
G04 #@! TF.FilePolarity,Negative*
G04*
G01*
G75*
%ADD16R,1.253X1.703*%
%ADD17R,1.703X1.253*%
%ADD27R,1.403X1.403*%
%ADD28C,1.403*%
%ADD29C,1.506*%
%ADD30C,1.703*%
%ADD31R,1.703X1.703*%
%ADD32C,4.203*%
%ADD33C,0.903*%
%ADD56R,2.453X1.803*%
D16*
X14380Y22875D02*
D03*
X16230D02*
D03*
X14380Y21000D02*
D03*
X16230D02*
D03*
X14375Y24750D02*
D03*
X16225D02*
D03*
X36175Y23550D02*
D03*
X38025D02*
D03*
X37675Y32425D02*
D03*
X35825D02*
D03*
D17*
X18600Y34200D02*
D03*
Y36050D02*
D03*
X11800Y29225D02*
D03*
Y27375D02*
D03*
X1775Y29575D02*
D03*
Y31425D02*
D03*
X27525Y25350D02*
D03*
Y27200D02*
D03*
X42850Y23900D02*
D03*
Y25750D02*
D03*
Y27250D02*
D03*
Y29100D02*
D03*
X13750Y4100D02*
D03*
Y5950D02*
D03*
X8575Y33900D02*
D03*
Y32050D02*
D03*
X13750Y10700D02*
D03*
Y8850D02*
D03*
X1775Y17550D02*
D03*
Y19400D02*
D03*
D27*
X13625Y27200D02*
D03*
X11825Y10800D02*
D03*
D28*
X13625Y29200D02*
D03*
Y32000D02*
D03*
Y36000D02*
D03*
Y34000D02*
D03*
X11825Y2000D02*
D03*
Y6000D02*
D03*
Y8800D02*
D03*
D29*
X3645Y16860D02*
D03*
Y19400D02*
D03*
Y21940D02*
D03*
Y27020D02*
D03*
Y29560D02*
D03*
Y32100D02*
D03*
Y34640D02*
D03*
D30*
X32705Y16615D02*
D03*
X35245D02*
D03*
X37785D02*
D03*
Y14075D02*
D03*
X35245D02*
D03*
X32705D02*
D03*
X40325Y16615D02*
D03*
X42865D02*
D03*
Y14075D02*
D03*
X40325D02*
D03*
X15800Y14842D02*
D03*
X13800D02*
D03*
X21800D02*
D03*
X19800D02*
D03*
X17800D02*
D03*
D31*
X23800D02*
D03*
D32*
X5000Y40000D02*
D03*
X40000D02*
D03*
Y5000D02*
D03*
X5000D02*
D03*
D33*
X32104Y15367D02*
D03*
X37550Y30875D02*
D03*
X20075Y31675D02*
D03*
X22271Y35734D02*
D03*
X22940Y29975D02*
D03*
X34295Y18453D02*
D03*
X38805D02*
D03*
X22766Y31675D02*
D03*
X26608Y15367D02*
D03*
X41225Y25525D02*
D03*
X36625Y30895D02*
D03*
X37650Y22036D02*
D03*
X36750D02*
D03*
X41234Y28925D02*
D03*
X41237Y26518D02*
D03*
X29340Y33210D02*
D03*
X30125Y21475D02*
D03*
X29275Y27364D02*
D03*
Y26464D02*
D03*
X13110Y21800D02*
D03*
X13321Y24650D02*
D03*
X23525Y17700D02*
D03*
X22800Y37700D02*
D03*
X21800D02*
D03*
X31680Y19650D02*
D03*
X17775Y23400D02*
D03*
X30254Y12243D02*
D03*
X39950Y22075D02*
D03*
X41225Y23275D02*
D03*
X31112Y36812D02*
D03*
X33175Y5200D02*
D03*
X10550Y39100D02*
D03*
X14800Y40150D02*
D03*
X16800D02*
D03*
X15800D02*
D03*
X22900D02*
D03*
X20800D02*
D03*
X18800D02*
D03*
X17800D02*
D03*
X19775D02*
D03*
X16975Y4225D02*
D03*
D56*
X16025Y36050D02*
D03*
Y33000D02*
D03*
X9275Y26150D02*
D03*
Y29200D02*
D03*
X9625Y2900D02*
D03*
Y5950D02*
D03*
X9460Y11825D02*
D03*
Y8775D02*
D03*
X5900Y32675D02*
D03*
Y29625D02*
D03*
X11050Y32075D02*
D03*
Y35125D02*
D03*
X6064Y19400D02*
D03*
Y16350D02*
D03*
M02*
