G04*
G04 #@! TF.GenerationSoftware,Altium Limited,Altium Designer,23.11.1 (41)*
G04*
G04 Layer_Physical_Order=1*
G04 Layer_Color=255*
%FSLAX43Y43*%
%MOMM*%
G71*
G04*
G04 #@! TF.SameCoordinates,D39783C5-6E33-4812-9A3B-6E021FC33A11*
G04*
G04*
G04 #@! TF.FilePolarity,Positive*
G04*
G01*
G75*
%ADD12C,0.250*%
%ADD34R,1.050X1.500*%
%ADD35R,1.500X1.050*%
G04:AMPARAMS|DCode=36|XSize=1.2mm|YSize=4mm|CornerRadius=0.3mm|HoleSize=0mm|Usage=FLASHONLY|Rotation=180.000|XOffset=0mm|YOffset=0mm|HoleType=Round|Shape=RoundedRectangle|*
%AMROUNDEDRECTD36*
21,1,1.200,3.400,0,0,180.0*
21,1,0.600,4.000,0,0,180.0*
1,1,0.600,-0.300,1.700*
1,1,0.600,0.300,1.700*
1,1,0.600,0.300,-1.700*
1,1,0.600,-0.300,-1.700*
%
%ADD36ROUNDEDRECTD36*%
%ADD37R,1.600X0.600*%
G04:AMPARAMS|DCode=38|XSize=0.6mm|YSize=1.9mm|CornerRadius=0.15mm|HoleSize=0mm|Usage=FLASHONLY|Rotation=270.000|XOffset=0mm|YOffset=0mm|HoleType=Round|Shape=RoundedRectangle|*
%AMROUNDEDRECTD38*
21,1,0.600,1.600,0,0,270.0*
21,1,0.300,1.900,0,0,270.0*
1,1,0.300,-0.800,-0.150*
1,1,0.300,-0.800,0.150*
1,1,0.300,0.800,0.150*
1,1,0.300,0.800,-0.150*
%
%ADD38ROUNDEDRECTD38*%
%ADD39R,1.900X0.600*%
%ADD40R,0.500X1.800*%
%ADD41R,1.800X0.500*%
%ADD42R,0.760X0.890*%
%ADD43R,0.250X1.100*%
%ADD44R,1.700X1.500*%
%ADD45C,0.350*%
%ADD46C,0.381*%
%ADD47C,0.800*%
%ADD48R,1.200X1.200*%
%ADD49C,1.200*%
%ADD50C,1.303*%
%ADD51C,1.500*%
%ADD52R,1.500X1.500*%
%ADD53C,4.000*%
%ADD54C,0.700*%
G36*
X35075Y43025D02*
Y40625D01*
X44375Y31325D01*
X44375Y17687D01*
X44299Y17649D01*
X44248Y17642D01*
X43132Y18758D01*
Y21975D01*
X43850D01*
Y22775D01*
Y23575D01*
Y24375D01*
Y25175D01*
Y25525D01*
X42750D01*
X41650D01*
Y25175D01*
Y24375D01*
Y23807D01*
X41586Y23770D01*
X41523Y23747D01*
X41334Y23825D01*
X41116D01*
X40913Y23741D01*
X40759Y23587D01*
X40675Y23384D01*
Y23166D01*
X40759Y22963D01*
X40913Y22809D01*
X41116Y22725D01*
X41334D01*
X41523Y22803D01*
X41563Y22794D01*
X41650Y22743D01*
Y21975D01*
X42368D01*
Y18600D01*
X42397Y18453D01*
X42480Y18329D01*
X43157Y17652D01*
X43091Y17538D01*
X42990Y17565D01*
X42740D01*
X42498Y17500D01*
X42282Y17375D01*
X42206Y17299D01*
X42203Y17298D01*
X42049Y17322D01*
X42010Y17380D01*
X41132Y18258D01*
Y19325D01*
X41200D01*
Y21525D01*
X40332D01*
Y21680D01*
X40416Y21763D01*
X40500Y21966D01*
Y22184D01*
X40416Y22387D01*
X40262Y22541D01*
X40059Y22625D01*
X39841D01*
X39638Y22541D01*
X39484Y22387D01*
X39400Y22184D01*
Y21966D01*
X39484Y21763D01*
X39568Y21680D01*
Y21525D01*
X38096D01*
X38044Y21652D01*
X38116Y21724D01*
X38200Y21927D01*
Y22145D01*
X38116Y22348D01*
X37962Y22502D01*
X37759Y22586D01*
X37541D01*
X37338Y22502D01*
X37184Y22348D01*
X37100Y22145D01*
Y21927D01*
X37184Y21724D01*
X37218Y21691D01*
Y21525D01*
X36850D01*
Y20425D01*
Y19325D01*
X40368D01*
Y18100D01*
X40397Y17954D01*
X40480Y17830D01*
X40672Y17637D01*
X40607Y17523D01*
X40450Y17565D01*
X40425D01*
Y16615D01*
Y15665D01*
X40450D01*
X40692Y15730D01*
X40908Y15855D01*
X41085Y16032D01*
X41210Y16248D01*
X41231Y16324D01*
X41358Y16308D01*
Y15200D01*
X41387Y15054D01*
X41470Y14930D01*
X41975Y14424D01*
X41915Y14200D01*
Y13950D01*
X41980Y13708D01*
X42105Y13492D01*
X42147Y13450D01*
X42098Y13332D01*
X41092D01*
X41043Y13450D01*
X41085Y13492D01*
X41210Y13708D01*
X41275Y13950D01*
Y14200D01*
X41210Y14442D01*
X41085Y14658D01*
X40908Y14835D01*
X40692Y14960D01*
X40450Y15025D01*
X40200D01*
X39958Y14960D01*
X39742Y14835D01*
X39565Y14658D01*
X39440Y14442D01*
X39375Y14200D01*
Y13950D01*
X39440Y13708D01*
X39565Y13492D01*
X39607Y13450D01*
X39558Y13332D01*
X39068D01*
X38675Y13726D01*
X38735Y13950D01*
Y14200D01*
X38670Y14442D01*
X38545Y14658D01*
X38368Y14835D01*
X38152Y14960D01*
X37910Y15025D01*
X37660D01*
X37418Y14960D01*
X37202Y14835D01*
X37025Y14658D01*
X36900Y14442D01*
X36835Y14200D01*
Y13950D01*
X36900Y13708D01*
X37025Y13492D01*
X37202Y13315D01*
X37418Y13190D01*
X37660Y13125D01*
X37910D01*
X38134Y13185D01*
X38640Y12680D01*
X38764Y12597D01*
X38910Y12568D01*
X43331D01*
X43477Y12597D01*
X43601Y12680D01*
X44248Y13326D01*
X44299Y13319D01*
X44375Y13282D01*
Y12575D01*
X43400Y11600D01*
X38150D01*
X35475Y8925D01*
Y1700D01*
X34450Y675D01*
X28750D01*
X26200Y3225D01*
Y12490D01*
X25648Y13185D01*
X24750Y14317D01*
Y15792D01*
X23579D01*
X21925Y17875D01*
X20875D01*
Y18100D01*
X18975D01*
Y18100D01*
X18950D01*
Y18100D01*
X17050D01*
Y17875D01*
X16250D01*
X15025Y19025D01*
Y24262D01*
X15225D01*
Y24170D01*
X17225D01*
Y25170D01*
X15225D01*
Y25058D01*
X15025D01*
Y29975D01*
X13875Y31125D01*
X13908Y31248D01*
X13934Y31255D01*
X14116Y31360D01*
X14265Y31509D01*
X14370Y31691D01*
X14425Y31895D01*
Y31900D01*
X13625D01*
Y32000D01*
X13525D01*
Y32800D01*
X13520D01*
X13316Y32745D01*
X13134Y32640D01*
X13007Y32513D01*
X12880Y32544D01*
Y33456D01*
X13007Y33487D01*
X13134Y33360D01*
X13316Y33255D01*
X13520Y33200D01*
X13730D01*
X13934Y33255D01*
X14116Y33360D01*
X14265Y33509D01*
X14370Y33691D01*
X14425Y33895D01*
Y34105D01*
X14370Y34309D01*
X14265Y34491D01*
X14116Y34640D01*
X13934Y34745D01*
X13730Y34800D01*
X13520D01*
X13316Y34745D01*
X13134Y34640D01*
X13007Y34513D01*
X12880Y34544D01*
Y35456D01*
X13007Y35487D01*
X13134Y35360D01*
X13316Y35255D01*
X13520Y35200D01*
X13730D01*
X13934Y35255D01*
X14116Y35360D01*
X14265Y35509D01*
X14328Y35618D01*
X17000D01*
X20683Y31935D01*
Y29675D01*
X20340D01*
Y27775D01*
X20315Y27750D01*
X20315D01*
Y25850D01*
X20383D01*
Y22805D01*
X20412Y22659D01*
X20495Y22535D01*
X20940Y22089D01*
Y21630D01*
X22940D01*
Y22630D01*
X21481D01*
X21328Y22783D01*
X21377Y22900D01*
X22940D01*
Y23900D01*
X21147D01*
Y24170D01*
X22940D01*
Y25170D01*
X22296D01*
Y25850D01*
X23615D01*
Y27750D01*
X23640Y27775D01*
X23640D01*
Y29675D01*
X23525D01*
X23455Y29781D01*
X23490Y29866D01*
Y30084D01*
X23406Y30287D01*
X23252Y30441D01*
X23049Y30525D01*
X22831D01*
X22628Y30441D01*
X22474Y30287D01*
X22423Y30165D01*
X22296Y30190D01*
Y33419D01*
X22271Y33546D01*
X22199Y33653D01*
X20720Y35133D01*
X20769Y35250D01*
X21950D01*
X21950Y35250D01*
Y35250D01*
X22071Y35221D01*
X22162Y35184D01*
X22381D01*
X22583Y35267D01*
X22737Y35422D01*
X22821Y35624D01*
Y35843D01*
X22737Y36045D01*
X22583Y36200D01*
X22381Y36284D01*
X22162D01*
X22077Y36249D01*
X21950Y36333D01*
Y37150D01*
X24307D01*
X27275Y40118D01*
Y43225D01*
X28425Y44325D01*
X33775D01*
X35075Y43025D01*
D02*
G37*
G36*
X12898Y29540D02*
X12880Y29509D01*
X12825Y29305D01*
Y29300D01*
X13625D01*
Y29200D01*
X13725D01*
Y28400D01*
X13730D01*
X13934Y28455D01*
X14116Y28560D01*
X14223Y28667D01*
X14350Y28614D01*
Y28000D01*
X12825D01*
Y26400D01*
X12895D01*
X12935Y26280D01*
X9575Y23750D01*
Y16725D01*
X10700Y15600D01*
X13049D01*
X13097Y15483D01*
X13040Y15425D01*
X12915Y15208D01*
X12850Y14967D01*
Y14717D01*
X12915Y14475D01*
X13040Y14258D01*
X13217Y14082D01*
X13433Y13956D01*
X13675Y13892D01*
X13925D01*
X14167Y13956D01*
X14383Y14082D01*
X14560Y14258D01*
X14685Y14475D01*
X14734Y14658D01*
X14866D01*
X14915Y14475D01*
X15040Y14258D01*
X15217Y14082D01*
X15433Y13956D01*
X15675Y13892D01*
X15700D01*
Y14842D01*
X15900D01*
Y13892D01*
X15925D01*
X16167Y13956D01*
X16383Y14082D01*
X16560Y14258D01*
X16685Y14475D01*
X16703Y14541D01*
X16826Y14574D01*
X16911Y14489D01*
X16915Y14475D01*
X17040Y14258D01*
X17075Y14223D01*
Y11875D01*
X15175Y9975D01*
X15225Y9925D01*
Y7425D01*
X14650Y6850D01*
X8850D01*
X6750Y8950D01*
Y10050D01*
X255Y16545D01*
Y20455D01*
X7762Y27962D01*
X9450Y29650D01*
X12834D01*
X12898Y29540D01*
D02*
G37*
%LPC*%
G36*
X31057Y44195D02*
Y44195D01*
X29897D01*
Y44195D01*
X29787D01*
Y44195D01*
X29770Y44195D01*
X28627D01*
Y42905D01*
X29030D01*
Y42788D01*
X29059Y42642D01*
X29142Y42518D01*
X37968Y33692D01*
Y33525D01*
X37650D01*
Y32425D01*
Y31325D01*
X41200D01*
Y33525D01*
X41132D01*
Y33950D01*
X41103Y34096D01*
X41020Y34220D01*
X33399Y41841D01*
Y42905D01*
X33597D01*
Y44195D01*
X32450D01*
X32437Y44195D01*
Y44195D01*
X32327D01*
X32327Y44195D01*
X32314Y44195D01*
X31167D01*
Y44195D01*
X31057D01*
D02*
G37*
G36*
X31221Y37362D02*
X31003D01*
X30800Y37278D01*
X30646Y37124D01*
X30562Y36921D01*
Y36703D01*
X30646Y36500D01*
X30730Y36417D01*
Y36195D01*
X29897D01*
Y36195D01*
X29787D01*
Y36195D01*
X28627D01*
Y34905D01*
X29787D01*
Y34905D01*
X29897D01*
Y34905D01*
X31057D01*
Y34905D01*
X31167D01*
Y34905D01*
X32327D01*
Y34905D01*
X32437D01*
Y34905D01*
X33597D01*
Y36195D01*
X32437D01*
Y36195D01*
X32327D01*
Y36195D01*
X31494D01*
Y36417D01*
X31578Y36500D01*
X31662Y36703D01*
Y36921D01*
X31578Y37124D01*
X31424Y37278D01*
X31221Y37362D01*
D02*
G37*
G36*
X29075Y34160D02*
X27625D01*
Y32260D01*
X29075D01*
Y32610D01*
X29181Y32681D01*
X29231Y32660D01*
X29449D01*
X29652Y32744D01*
X29806Y32898D01*
X29890Y33101D01*
Y33319D01*
X29806Y33522D01*
X29652Y33676D01*
X29449Y33760D01*
X29231D01*
X29181Y33739D01*
X29075Y33810D01*
Y34160D01*
D02*
G37*
G36*
X13730Y32800D02*
X13725D01*
Y32100D01*
X14425D01*
Y32105D01*
X14370Y32309D01*
X14265Y32491D01*
X14116Y32640D01*
X13934Y32745D01*
X13730Y32800D01*
D02*
G37*
G36*
X37450Y33525D02*
X32300D01*
Y31325D01*
X36112D01*
X36160Y31208D01*
X36159Y31206D01*
X36075Y31004D01*
Y30785D01*
X36159Y30583D01*
X36313Y30428D01*
X36516Y30345D01*
X36734D01*
X36937Y30428D01*
X37091Y30583D01*
X37175Y30785D01*
Y31004D01*
X37132Y31107D01*
Y31325D01*
X37450D01*
Y32425D01*
Y33525D01*
D02*
G37*
G36*
X43850Y30875D02*
X41650D01*
Y29975D01*
Y29453D01*
X41523Y29401D01*
X41344Y29475D01*
X41125D01*
X40923Y29391D01*
X40768Y29237D01*
X40684Y29034D01*
Y28816D01*
X40768Y28613D01*
X40852Y28530D01*
Y27860D01*
X40881Y27714D01*
X40964Y27590D01*
X41368Y27186D01*
X41306Y27068D01*
X41127D01*
X40925Y26984D01*
X40770Y26830D01*
X40687Y26627D01*
Y26409D01*
X40770Y26206D01*
X40925Y26052D01*
X41127Y25968D01*
X41346D01*
X41523Y26041D01*
X41612Y26004D01*
X41646Y25978D01*
X41650Y25974D01*
Y25725D01*
X42750D01*
X43850D01*
Y25975D01*
Y26775D01*
Y27575D01*
Y28375D01*
Y29175D01*
Y29975D01*
Y30875D01*
D02*
G37*
G36*
X17884Y23950D02*
X17666D01*
X17463Y23866D01*
X17380Y23782D01*
X17225D01*
Y23900D01*
X15225D01*
Y22900D01*
X17225D01*
Y23018D01*
X17380D01*
X17463Y22934D01*
X17666Y22850D01*
X17884D01*
X18087Y22934D01*
X18241Y23088D01*
X18325Y23291D01*
Y23509D01*
X18241Y23712D01*
X18087Y23866D01*
X17884Y23950D01*
D02*
G37*
G36*
X17225Y22630D02*
X16325D01*
Y22230D01*
X17225D01*
Y22630D01*
D02*
G37*
G36*
X16125D02*
X15225D01*
Y22230D01*
X16125D01*
Y22630D01*
D02*
G37*
G36*
X17225Y22030D02*
X16325D01*
Y21630D01*
X17225D01*
Y22030D01*
D02*
G37*
G36*
X16125D02*
X15225D01*
Y21630D01*
X16125D01*
Y22030D01*
D02*
G37*
G36*
X22940Y21360D02*
X20940D01*
Y20789D01*
X20932Y20750D01*
Y20570D01*
X20312Y19950D01*
X19077D01*
X18975Y19950D01*
X18848Y19950D01*
X17613D01*
X17233Y20330D01*
Y20750D01*
X17225Y20789D01*
Y21360D01*
X15225D01*
Y20360D01*
X16436D01*
Y20166D01*
X16467Y20013D01*
X16553Y19884D01*
X17050Y19387D01*
Y18500D01*
X18848D01*
X18950Y18500D01*
X19077Y18500D01*
X20875D01*
Y19387D01*
X21612Y20124D01*
X21698Y20253D01*
X21720Y20360D01*
X22940D01*
Y21360D01*
D02*
G37*
G36*
X25300Y18650D02*
X23850D01*
Y18298D01*
X23723Y18213D01*
X23634Y18250D01*
X23416D01*
X23213Y18166D01*
X23059Y18012D01*
X22975Y17809D01*
Y17591D01*
X23059Y17388D01*
X23213Y17234D01*
X23416Y17150D01*
X23634D01*
X23723Y17187D01*
X23850Y17102D01*
Y16750D01*
X25300D01*
Y18650D01*
D02*
G37*
G36*
X27225Y34160D02*
X25775D01*
Y32260D01*
X25964D01*
X25980Y32217D01*
X25985Y32133D01*
X25840Y32035D01*
X25729Y31870D01*
X25690Y31675D01*
Y28275D01*
X25729Y28080D01*
X25840Y27915D01*
X26005Y27804D01*
X26200Y27765D01*
X26364D01*
Y27754D01*
X26393Y27608D01*
X26476Y27484D01*
X28530Y25430D01*
X28654Y25347D01*
X28800Y25318D01*
X28854D01*
X28866Y25191D01*
X28804Y25178D01*
X28680Y25095D01*
X26769Y23185D01*
X26200D01*
X26005Y23146D01*
X25840Y23035D01*
X25729Y22870D01*
X25690Y22675D01*
Y19275D01*
X25729Y19080D01*
X25840Y18915D01*
X26005Y18804D01*
X26118Y18782D01*
Y18650D01*
X25700D01*
Y16750D01*
X27150D01*
X27243Y16667D01*
Y6770D01*
X27272Y6624D01*
X27355Y6500D01*
X29100Y4754D01*
Y4295D01*
X31400D01*
Y5295D01*
X29641D01*
X29488Y5448D01*
X29537Y5565D01*
X31400D01*
Y6565D01*
X30632D01*
Y6835D01*
X31400D01*
Y7294D01*
X32050Y7945D01*
X32133Y8069D01*
X32162Y8215D01*
Y12347D01*
X32133Y12493D01*
X32050Y12617D01*
X31761Y12906D01*
Y13556D01*
X31888Y13590D01*
X31945Y13492D01*
X32122Y13315D01*
X32338Y13190D01*
X32580Y13125D01*
X32830D01*
X33072Y13190D01*
X33288Y13315D01*
X33465Y13492D01*
X33590Y13708D01*
X33655Y13950D01*
Y14200D01*
X33590Y14442D01*
X33465Y14658D01*
X33288Y14835D01*
X33072Y14960D01*
X32830Y15025D01*
X32580D01*
X32338Y14960D01*
X32122Y14835D01*
X31945Y14658D01*
X31888Y14560D01*
X31761Y14594D01*
Y16096D01*
X31888Y16130D01*
X31945Y16032D01*
X32122Y15855D01*
X32338Y15730D01*
X32580Y15665D01*
X32830D01*
X33072Y15730D01*
X33288Y15855D01*
X33465Y16032D01*
X33590Y16248D01*
X33655Y16490D01*
Y16740D01*
X33590Y16982D01*
X33465Y17198D01*
X33288Y17375D01*
X33072Y17500D01*
X32830Y17565D01*
X32771D01*
X32722Y17682D01*
X33628Y18588D01*
X33634Y18587D01*
X33745Y18526D01*
Y18344D01*
X33829Y18142D01*
X33983Y17987D01*
X34186Y17903D01*
X34404D01*
X34607Y17987D01*
X34690Y18071D01*
X38409D01*
X38493Y17987D01*
X38695Y17903D01*
X38914D01*
X39116Y17987D01*
X39271Y18142D01*
X39355Y18344D01*
Y18563D01*
X39271Y18765D01*
X39116Y18919D01*
X38914Y19003D01*
X38695D01*
X38493Y18919D01*
X38409Y18836D01*
X34690D01*
X34607Y18919D01*
X34404Y19003D01*
X34186D01*
X33983Y18919D01*
X33974Y18910D01*
X33857Y18972D01*
X33857Y18976D01*
Y19325D01*
X36650D01*
Y20425D01*
Y21525D01*
X32300D01*
Y19981D01*
X32126D01*
X31992Y20116D01*
X31789Y20200D01*
X31571D01*
X31368Y20116D01*
X31214Y19962D01*
X31130Y19759D01*
Y19541D01*
X31214Y19338D01*
X31368Y19184D01*
X31571Y19100D01*
X31789D01*
X31992Y19184D01*
X32126Y19319D01*
X32625D01*
X32657Y19325D01*
X33093D01*
Y19134D01*
X31108Y17150D01*
X31025Y17026D01*
X30996Y16880D01*
Y16092D01*
X30636D01*
Y20090D01*
X32295Y21749D01*
X32378Y21873D01*
X32407Y22020D01*
Y27745D01*
X32378Y27891D01*
X32295Y28015D01*
X32090Y28220D01*
X31966Y28303D01*
X31850Y28326D01*
Y29175D01*
Y29975D01*
Y30875D01*
X29650D01*
Y29975D01*
Y29175D01*
Y28375D01*
Y27575D01*
Y27325D01*
X30750D01*
Y27125D01*
X29650D01*
Y27033D01*
X29523Y26956D01*
X29384Y27014D01*
X29166D01*
X28963Y26930D01*
X28809Y26775D01*
X28725Y26573D01*
Y26495D01*
X28598Y26443D01*
X27157Y27883D01*
X27160Y27915D01*
X27271Y28080D01*
X27310Y28275D01*
Y31675D01*
X27271Y31870D01*
X27160Y32035D01*
X27015Y32133D01*
X27020Y32217D01*
X27036Y32260D01*
X27225D01*
Y34160D01*
D02*
G37*
G36*
X40225Y17565D02*
X40200D01*
X39958Y17500D01*
X39742Y17375D01*
X39565Y17198D01*
X39440Y16982D01*
X39375Y16740D01*
Y16715D01*
X40225D01*
Y17565D01*
D02*
G37*
G36*
Y16515D02*
X39375D01*
Y16490D01*
X39440Y16248D01*
X39565Y16032D01*
X39742Y15855D01*
X39958Y15730D01*
X40200Y15665D01*
X40225D01*
Y16515D01*
D02*
G37*
G36*
X37910Y17565D02*
X37660D01*
X37418Y17500D01*
X37202Y17375D01*
X37025Y17198D01*
X36900Y16982D01*
X36835Y16740D01*
Y16490D01*
X36900Y16248D01*
X37025Y16032D01*
X37202Y15855D01*
X37418Y15730D01*
X37660Y15665D01*
X37910D01*
X38152Y15730D01*
X38368Y15855D01*
X38545Y16032D01*
X38670Y16248D01*
X38735Y16490D01*
Y16740D01*
X38670Y16982D01*
X38545Y17198D01*
X38368Y17375D01*
X38152Y17500D01*
X37910Y17565D01*
D02*
G37*
G36*
X35370D02*
X35120D01*
X34878Y17500D01*
X34662Y17375D01*
X34485Y17198D01*
X34360Y16982D01*
X34295Y16740D01*
Y16490D01*
X34360Y16248D01*
X34485Y16032D01*
X34662Y15855D01*
X34878Y15730D01*
X35120Y15665D01*
X35370D01*
X35612Y15730D01*
X35828Y15855D01*
X36005Y16032D01*
X36130Y16248D01*
X36195Y16490D01*
Y16740D01*
X36130Y16982D01*
X36005Y17198D01*
X35828Y17375D01*
X35612Y17500D01*
X35370Y17565D01*
D02*
G37*
G36*
Y15025D02*
X35120D01*
X34878Y14960D01*
X34662Y14835D01*
X34485Y14658D01*
X34360Y14442D01*
X34295Y14200D01*
Y13950D01*
X34360Y13708D01*
X34485Y13492D01*
X34662Y13315D01*
X34878Y13190D01*
X35120Y13125D01*
X35370D01*
X35612Y13190D01*
X35828Y13315D01*
X36005Y13492D01*
X36130Y13708D01*
X36195Y13950D01*
Y14200D01*
X36130Y14442D01*
X36005Y14658D01*
X35828Y14835D01*
X35612Y14960D01*
X35370Y15025D01*
D02*
G37*
G36*
X33284Y5750D02*
X33066D01*
X32863Y5666D01*
X32709Y5512D01*
X32625Y5309D01*
Y5091D01*
X32662Y5002D01*
X32577Y4875D01*
X32075D01*
Y3966D01*
X32017Y3907D01*
X31400D01*
Y4025D01*
X29100D01*
Y3025D01*
X31400D01*
Y3143D01*
X32052D01*
X32075Y3025D01*
X32075Y3016D01*
Y2400D01*
X32925D01*
Y3025D01*
X32234D01*
X32222Y3152D01*
X32321Y3172D01*
X32445Y3255D01*
X32616Y3425D01*
X33975D01*
Y4875D01*
X33773D01*
X33688Y5002D01*
X33725Y5091D01*
Y5309D01*
X33641Y5512D01*
X33487Y5666D01*
X33284Y5750D01*
D02*
G37*
G36*
X33975Y3025D02*
X33125D01*
Y2400D01*
X33975D01*
Y3025D01*
D02*
G37*
G36*
X31050Y2762D02*
X30350D01*
Y2355D01*
X31407D01*
Y2405D01*
X31380Y2542D01*
X31302Y2657D01*
X31187Y2735D01*
X31050Y2762D01*
D02*
G37*
G36*
X30150D02*
X29450D01*
X29313Y2735D01*
X29198Y2657D01*
X29120Y2542D01*
X29093Y2405D01*
Y2355D01*
X30150D01*
Y2762D01*
D02*
G37*
G36*
X31407Y2155D02*
X30350D01*
Y1748D01*
X31050D01*
X31187Y1775D01*
X31302Y1853D01*
X31380Y1968D01*
X31407Y2105D01*
Y2155D01*
D02*
G37*
G36*
X30150D02*
X29093D01*
Y2105D01*
X29120Y1968D01*
X29198Y1853D01*
X29313Y1775D01*
X29450Y1748D01*
X30150D01*
Y2155D01*
D02*
G37*
G36*
X33975Y2200D02*
X33125D01*
Y1575D01*
X33975D01*
Y2200D01*
D02*
G37*
G36*
X32925D02*
X32075D01*
Y1575D01*
X32925D01*
Y2200D01*
D02*
G37*
G36*
X13525Y29100D02*
X12825D01*
Y29095D01*
X12880Y28891D01*
X12985Y28709D01*
X13134Y28560D01*
X13316Y28455D01*
X13520Y28400D01*
X13525D01*
Y29100D01*
D02*
G37*
G36*
X3757Y22792D02*
X3533D01*
X3316Y22733D01*
X3122Y22621D01*
X2964Y22463D01*
X2852Y22269D01*
X2793Y22052D01*
Y21828D01*
X2852Y21611D01*
X2964Y21417D01*
X3122Y21259D01*
X3316Y21147D01*
X3533Y21088D01*
X3757D01*
X3974Y21147D01*
X4168Y21259D01*
X4326Y21417D01*
X4438Y21611D01*
X4497Y21828D01*
Y22052D01*
X4438Y22269D01*
X4326Y22463D01*
X4168Y22621D01*
X3974Y22733D01*
X3757Y22792D01*
D02*
G37*
G36*
Y20251D02*
X3745D01*
Y19500D01*
X4497D01*
Y19512D01*
X4438Y19729D01*
X4326Y19923D01*
X4168Y20081D01*
X3974Y20193D01*
X3757Y20251D01*
D02*
G37*
G36*
X3545D02*
X3533D01*
X3316Y20193D01*
X3122Y20081D01*
X2964Y19923D01*
X2852Y19729D01*
X2793Y19512D01*
Y19500D01*
X3545D01*
Y20251D01*
D02*
G37*
G36*
X4497Y19300D02*
X3745D01*
Y18549D01*
X3757D01*
X3974Y18607D01*
X4168Y18719D01*
X4326Y18877D01*
X4438Y19071D01*
X4497Y19288D01*
Y19300D01*
D02*
G37*
G36*
X3545D02*
X2793D01*
Y19288D01*
X2852Y19071D01*
X2964Y18877D01*
X3122Y18719D01*
X3316Y18607D01*
X3533Y18549D01*
X3545D01*
Y19300D01*
D02*
G37*
G36*
X3757Y17712D02*
X3533D01*
X3316Y17653D01*
X3122Y17541D01*
X2964Y17383D01*
X2852Y17189D01*
X2793Y16972D01*
Y16748D01*
X2852Y16531D01*
X2964Y16337D01*
X3122Y16179D01*
X3316Y16067D01*
X3533Y16008D01*
X3757D01*
X3974Y16067D01*
X4168Y16179D01*
X4326Y16337D01*
X4438Y16531D01*
X4497Y16748D01*
Y16972D01*
X4438Y17189D01*
X4326Y17383D01*
X4168Y17541D01*
X3974Y17653D01*
X3757Y17712D01*
D02*
G37*
G36*
X12625Y11600D02*
X11025D01*
Y10000D01*
X12625D01*
Y11600D01*
D02*
G37*
G36*
X11930Y9600D02*
X11925D01*
Y8900D01*
X12625D01*
Y8905D01*
X12570Y9109D01*
X12465Y9291D01*
X12316Y9440D01*
X12134Y9545D01*
X11930Y9600D01*
D02*
G37*
G36*
X11725D02*
X11720D01*
X11516Y9545D01*
X11334Y9440D01*
X11185Y9291D01*
X11080Y9109D01*
X11025Y8905D01*
Y8900D01*
X11725D01*
Y9600D01*
D02*
G37*
G36*
X12625Y8700D02*
X11925D01*
Y8000D01*
X11930D01*
X12134Y8055D01*
X12316Y8160D01*
X12465Y8309D01*
X12570Y8491D01*
X12625Y8695D01*
Y8700D01*
D02*
G37*
G36*
X11725D02*
X11025D01*
Y8695D01*
X11080Y8491D01*
X11185Y8309D01*
X11334Y8160D01*
X11516Y8055D01*
X11720Y8000D01*
X11725D01*
Y8700D01*
D02*
G37*
%LPD*%
D12*
X19375Y35975D02*
Y36418D01*
X19775Y35575D02*
X19809D01*
X19375Y35975D02*
X19775Y35575D01*
X19809D02*
X21965Y33419D01*
X18687Y36818D02*
X18975D01*
X18300Y37205D02*
Y39100D01*
Y37205D02*
X18687Y36818D01*
X18975D02*
X19375Y36418D01*
X21965Y24845D02*
Y33419D01*
X14800Y40052D02*
X14875Y40127D01*
X21940Y24670D02*
X21965Y24845D01*
X30125Y21475D02*
Y22300D01*
X30250Y22425D01*
X30750D01*
X22300Y38200D02*
X22800Y37700D01*
X22300Y38200D02*
Y39100D01*
X21800Y37700D02*
Y39100D01*
X31680Y19650D02*
X32625D01*
X32750Y19775D01*
Y20425D01*
X14800Y39100D02*
Y40052D01*
X10550Y39100D02*
X11300D01*
X16800D02*
Y40150D01*
X15800Y39100D02*
Y40075D01*
X22800Y39100D02*
Y39928D01*
X20800Y39100D02*
Y40150D01*
X18800Y39100D02*
Y40150D01*
X17800Y39100D02*
Y40150D01*
X19775D02*
X19800Y40125D01*
Y39100D02*
Y40125D01*
X12800Y37950D02*
Y39100D01*
X13300Y37975D02*
X13325Y37950D01*
X13800Y38200D02*
X14050Y37950D01*
X11800D02*
Y39100D01*
X13300Y37975D02*
Y39100D01*
X13800Y38200D02*
Y39100D01*
X14300Y38000D02*
Y39100D01*
D34*
X19375Y36200D02*
D03*
X21225D02*
D03*
X22890Y26800D02*
D03*
X21040D02*
D03*
X28350Y33210D02*
D03*
X26500D02*
D03*
X22915Y28725D02*
D03*
X21065D02*
D03*
X24575Y17700D02*
D03*
X26425D02*
D03*
D35*
X18000Y17375D02*
D03*
Y19225D02*
D03*
X33025Y2300D02*
D03*
Y4150D02*
D03*
X19925Y17375D02*
D03*
Y19225D02*
D03*
X30254Y13517D02*
D03*
Y15367D02*
D03*
X18250Y4225D02*
D03*
Y2375D02*
D03*
D36*
X26500Y20975D02*
D03*
Y29975D02*
D03*
D37*
X16225Y23400D02*
D03*
Y22130D02*
D03*
Y20860D02*
D03*
X21940D02*
D03*
Y22130D02*
D03*
Y23400D02*
D03*
X16225Y24670D02*
D03*
X21940D02*
D03*
D38*
X30250Y2255D02*
D03*
D39*
Y3525D02*
D03*
Y4795D02*
D03*
Y6065D02*
D03*
Y7335D02*
D03*
Y8605D02*
D03*
Y9875D02*
D03*
Y11145D02*
D03*
X20850Y2255D02*
D03*
Y3525D02*
D03*
Y4795D02*
D03*
Y6065D02*
D03*
Y7335D02*
D03*
Y8605D02*
D03*
Y9875D02*
D03*
Y11145D02*
D03*
D40*
X39950Y20425D02*
D03*
Y32425D02*
D03*
X40750Y20425D02*
D03*
X39150D02*
D03*
X38350D02*
D03*
X37550D02*
D03*
X36750D02*
D03*
X35950D02*
D03*
X35150D02*
D03*
X34350D02*
D03*
X33550D02*
D03*
X32750D02*
D03*
X40750Y32425D02*
D03*
X32750D02*
D03*
X33550D02*
D03*
X34350D02*
D03*
X35150D02*
D03*
X35950D02*
D03*
X36750D02*
D03*
X37550D02*
D03*
X38350D02*
D03*
X39150D02*
D03*
D41*
X42750Y27225D02*
D03*
X30750D02*
D03*
X42750Y30425D02*
D03*
Y29625D02*
D03*
Y28825D02*
D03*
Y28025D02*
D03*
Y26425D02*
D03*
Y25625D02*
D03*
Y24825D02*
D03*
Y24025D02*
D03*
Y23225D02*
D03*
Y22425D02*
D03*
X30750Y28025D02*
D03*
Y28825D02*
D03*
Y29625D02*
D03*
Y30425D02*
D03*
Y26425D02*
D03*
Y25625D02*
D03*
Y22425D02*
D03*
Y23225D02*
D03*
Y24025D02*
D03*
Y24825D02*
D03*
D42*
X33017Y43550D02*
D03*
X30477Y35550D02*
D03*
X31747D02*
D03*
Y43550D02*
D03*
X30477D02*
D03*
X33017Y35550D02*
D03*
X29207Y43550D02*
D03*
X29207Y35550D02*
D03*
D43*
X22800Y39100D02*
D03*
X22300D02*
D03*
X21800D02*
D03*
X21300D02*
D03*
X20800D02*
D03*
X20300D02*
D03*
X19800D02*
D03*
X19300D02*
D03*
X18800D02*
D03*
X18300D02*
D03*
X17800D02*
D03*
X17300D02*
D03*
X16800D02*
D03*
X16300D02*
D03*
X15800D02*
D03*
X15300D02*
D03*
X14800D02*
D03*
X14300D02*
D03*
X13800D02*
D03*
X13300D02*
D03*
X12800D02*
D03*
X12300D02*
D03*
X11800D02*
D03*
X11300D02*
D03*
D44*
X9650Y43000D02*
D03*
X24450D02*
D03*
D45*
X40750Y32425D02*
Y33950D01*
X31747Y42131D02*
X39950Y33928D01*
X31747Y42131D02*
Y43550D01*
X33017Y41683D02*
Y43550D01*
Y41683D02*
X40750Y33950D01*
X39950Y32425D02*
Y33928D01*
X30477Y42623D02*
Y43550D01*
X39141Y32434D02*
Y33959D01*
X30477Y42623D02*
X39141Y33959D01*
X30929Y12243D02*
X31230Y11941D01*
Y11651D02*
Y11941D01*
X31025Y11446D02*
X31230Y11651D01*
X31025Y11270D02*
Y11446D01*
X30900Y11145D02*
X31025Y11270D01*
X30250Y11145D02*
X30900D01*
X31379Y12748D02*
Y16880D01*
Y12748D02*
X31780Y12347D01*
X31379Y16880D02*
X33475Y18976D01*
X31780Y8215D02*
Y12347D01*
X30254Y12243D02*
X30929D01*
X30900Y7335D02*
X31780Y8215D01*
X30254Y12243D02*
Y13517D01*
X37550Y30875D02*
Y32425D01*
X22250Y35734D02*
X22260Y35745D01*
X21225Y36084D02*
X21575Y35734D01*
X21225Y36084D02*
Y36200D01*
X21575Y35734D02*
X22250D01*
X13625Y36000D02*
X17159D01*
X21065Y28725D02*
Y32094D01*
X17159Y36000D02*
X21065Y32094D01*
X22940Y28345D02*
Y29975D01*
X22890Y26800D02*
Y28295D01*
Y26350D02*
Y26800D01*
Y28295D02*
X22940Y28345D01*
X20765Y22805D02*
Y26525D01*
Y22805D02*
X21440Y22130D01*
X20765Y26525D02*
X21040Y26800D01*
X21065D02*
Y28725D01*
X33475Y18976D02*
Y20350D01*
X34295Y18453D02*
X38805D01*
X33475Y20350D02*
X33550Y20425D01*
X28925Y14263D02*
X30029Y15367D01*
X28925Y10550D02*
Y14263D01*
X27625Y6770D02*
X29600Y4795D01*
X27625Y21780D02*
X29795Y23950D01*
X28175Y10030D02*
X29600Y8605D01*
X27625Y6770D02*
Y21780D01*
X28175Y10030D02*
Y21530D01*
X30029Y15367D02*
X30254D01*
X28175Y21530D02*
X29795Y23150D01*
X15345Y2255D02*
X20850D01*
X11825Y5775D02*
X15345Y2255D01*
X11825Y5775D02*
Y6000D01*
X32025Y22020D02*
Y27745D01*
X31820Y27950D02*
X32025Y27745D01*
X30825Y27950D02*
X31820D01*
X30750Y28025D02*
X30825Y27950D01*
X42700Y25575D02*
X42750Y25625D01*
X41275Y25575D02*
X42700D01*
X41225Y25525D02*
X41275Y25575D01*
X36625Y30895D02*
X36750Y31020D01*
Y32425D01*
X30254Y20248D02*
X32025Y22020D01*
X30254Y15367D02*
Y20248D01*
X28925Y10550D02*
X29600Y9875D01*
X30250D01*
X37600Y20475D02*
Y21986D01*
X37550Y20425D02*
X37600Y20475D01*
Y21986D02*
X37650Y22036D01*
X41234Y27860D02*
Y28925D01*
X41795Y27300D02*
X42675D01*
X41234Y27860D02*
X41795Y27300D01*
X42675D02*
X42750Y27225D01*
X41132Y26518D02*
X41237D01*
X41283Y26472D02*
X42703D01*
X41237Y26518D02*
X41283Y26472D01*
X42703D02*
X42750Y26425D01*
X28350Y33210D02*
X29340D01*
X29275Y26464D02*
X29294Y26444D01*
X29275Y27364D02*
X29342Y27297D01*
X30678D01*
X30731Y26444D02*
X30750Y26425D01*
X30678Y27297D02*
X30750Y27225D01*
X29294Y26444D02*
X30731D01*
X16156Y27138D02*
Y29469D01*
Y27138D02*
X18525Y24770D01*
X18500Y23100D02*
Y25270D01*
X17550Y22150D02*
X18500Y23100D01*
X16245Y22150D02*
X17550D01*
X16225Y22130D02*
X16245Y22150D01*
X13625Y32000D02*
X16156Y29469D01*
X26500Y29975D02*
X26746Y29729D01*
Y27754D02*
X28800Y25700D01*
X30675D01*
X26746Y27754D02*
Y29729D01*
X13204Y21800D02*
X13534Y22130D01*
X13110Y21800D02*
X13204D01*
X13534Y22130D02*
X16225D01*
Y23400D02*
X17775D01*
X23525Y17700D02*
X24575D01*
X21440Y22130D02*
X21940D01*
X26500Y29975D02*
Y33210D01*
X26425Y17700D02*
X26500Y17775D01*
Y20975D01*
X29795Y23950D02*
X30675D01*
X30750Y24025D01*
X18475Y4225D02*
X18825Y4575D01*
X20200Y11145D02*
X20850D01*
X18825Y9770D02*
X20200Y11145D01*
X18825Y4575D02*
Y9770D01*
X18250Y4225D02*
X18475D01*
X39950Y20425D02*
Y22075D01*
X42675Y23250D02*
X42700Y23275D01*
X41225D02*
X41250Y23250D01*
X42675D01*
X42700Y23275D02*
X42750Y23225D01*
Y18600D02*
Y22425D01*
Y18600D02*
X43990Y17360D01*
Y13609D02*
Y17360D01*
X43331Y12950D02*
X43990Y13609D01*
X38910Y12950D02*
X43331D01*
X37785Y14075D02*
X38910Y12950D01*
X41740Y15200D02*
X42865Y14075D01*
X41740Y15200D02*
Y17110D01*
X40750Y18100D02*
X41740Y17110D01*
X31112Y35550D02*
X31747D01*
X30477D02*
X31112D01*
Y36812D01*
X31747Y35550D02*
X33017D01*
X29207D02*
X30477D01*
X33175Y4270D02*
X33250Y4195D01*
X33175Y4270D02*
Y5200D01*
X32175Y3525D02*
X32800Y4150D01*
X30250Y3525D02*
X32175D01*
X32800Y4150D02*
X33025D01*
X16975Y4225D02*
X18250D01*
X19175Y3525D02*
X20850D01*
X18475Y4225D02*
X19175Y3525D01*
X29600Y4795D02*
X30250D01*
X29795Y23150D02*
X30675D01*
X30250Y7335D02*
X30900D01*
X30250Y6065D02*
Y7335D01*
X30675Y23150D02*
X30750Y23225D01*
X29600Y8605D02*
X30250D01*
X40750Y18100D02*
Y20425D01*
X26500Y22375D02*
X28950Y24825D01*
X26500Y20975D02*
Y22375D01*
X28950Y24825D02*
X30750D01*
X30675Y25700D02*
X30750Y25625D01*
X29412Y42788D02*
X38350Y33850D01*
X39141Y32434D02*
X39150Y32425D01*
X38350D02*
Y33850D01*
X29412Y42788D02*
Y43345D01*
X29207Y43550D02*
X29412Y43345D01*
D46*
X18225Y17375D02*
X18559Y17041D01*
X19700Y17375D02*
X19800Y17275D01*
Y14842D02*
Y17275D01*
X17800Y14842D02*
Y17175D01*
X18000Y17375D01*
X18225D01*
X13331Y24660D02*
X16215D01*
X16225Y24670D01*
X13321Y24650D02*
X13331Y24660D01*
X21440Y20860D02*
X21940D01*
X21330Y20406D02*
Y20750D01*
X21440Y20860D01*
X19925Y19225D02*
X20150D01*
X17775D02*
X18000D01*
X20150D02*
X21330Y20406D01*
X16834Y20166D02*
X17775Y19225D01*
X16225Y20860D02*
X16725D01*
X16834Y20166D02*
Y20750D01*
X16725Y20860D02*
X16834Y20750D01*
X21500Y7335D02*
X21819Y7016D01*
X22372D01*
X22735Y7378D01*
Y13392D01*
X22050Y14077D02*
X22735Y13392D01*
X21500Y6065D02*
X21819Y6385D01*
X23365Y13392D02*
X24050Y14077D01*
X21819Y6385D02*
X22633D01*
X20850Y7335D02*
X21500D01*
X22633Y6385D02*
X23365Y7117D01*
X20850Y6065D02*
X21500D01*
X22050Y14077D02*
Y14175D01*
X23365Y7117D02*
Y13392D01*
X24050Y14077D02*
Y14175D01*
D47*
X14050Y37950D02*
X14250D01*
X13325D02*
X14050D01*
X12800D02*
X13325D01*
X11800D02*
X12800D01*
X14250D02*
X14300Y38000D01*
X3645Y29560D02*
Y29696D01*
X3897Y29948D02*
Y30046D01*
X11800Y37950D01*
X3645Y29696D02*
X3897Y29948D01*
D48*
X13625Y27200D02*
D03*
X11825Y10800D02*
D03*
D49*
X13625Y29200D02*
D03*
Y32000D02*
D03*
Y36000D02*
D03*
Y34000D02*
D03*
X11825Y2000D02*
D03*
Y6000D02*
D03*
Y8800D02*
D03*
D50*
X3645Y16860D02*
D03*
Y19400D02*
D03*
Y21940D02*
D03*
Y27020D02*
D03*
Y29560D02*
D03*
Y32100D02*
D03*
Y34640D02*
D03*
D51*
X32705Y16615D02*
D03*
X35245D02*
D03*
X37785D02*
D03*
Y14075D02*
D03*
X35245D02*
D03*
X32705D02*
D03*
X40325Y16615D02*
D03*
X42865D02*
D03*
Y14075D02*
D03*
X40325D02*
D03*
X15800Y14842D02*
D03*
X13800D02*
D03*
X21800D02*
D03*
X19800D02*
D03*
X17800D02*
D03*
D52*
X23800D02*
D03*
D53*
X5000Y40000D02*
D03*
X40000D02*
D03*
Y5000D02*
D03*
X5000D02*
D03*
D54*
X32104Y15367D02*
D03*
X37550Y30875D02*
D03*
X20075Y31675D02*
D03*
X22271Y35734D02*
D03*
X22940Y29975D02*
D03*
X34295Y18453D02*
D03*
X38805D02*
D03*
X22766Y31675D02*
D03*
X26608Y15367D02*
D03*
X41225Y25525D02*
D03*
X36625Y30895D02*
D03*
X37650Y22036D02*
D03*
X36750D02*
D03*
X41234Y28925D02*
D03*
X41237Y26518D02*
D03*
X29340Y33210D02*
D03*
X30125Y21475D02*
D03*
X29275Y27364D02*
D03*
Y26464D02*
D03*
X13110Y21800D02*
D03*
X13321Y24650D02*
D03*
X23525Y17700D02*
D03*
X22800Y37700D02*
D03*
X21800D02*
D03*
X31680Y19650D02*
D03*
X17775Y23400D02*
D03*
X30254Y12243D02*
D03*
X39950Y22075D02*
D03*
X41225Y23275D02*
D03*
X31112Y36812D02*
D03*
X33175Y5200D02*
D03*
X10550Y39100D02*
D03*
X14800Y40150D02*
D03*
X16800D02*
D03*
X15800D02*
D03*
X22900D02*
D03*
X20800D02*
D03*
X18800D02*
D03*
X17800D02*
D03*
X19775D02*
D03*
X16975Y4225D02*
D03*
M02*
