G04*
G04 #@! TF.GenerationSoftware,Altium Limited,Altium Designer,23.11.1 (41)*
G04*
G04 Layer_Color=16711935*
%FSLAX43Y43*%
%MOMM*%
G71*
G04*
G04 #@! TF.SameCoordinates,5C86F8B5-C48D-4B9D-AEF1-1A40F40C4F51*
G04*
G04*
G04 #@! TF.FilePolarity,Negative*
G04*
G01*
G75*
%ADD19R,1.703X1.203*%
%ADD20R,1.203X1.703*%
%ADD26R,1.603X1.603*%
%ADD27C,1.603*%
%ADD28C,3.503*%
%ADD29C,2.603*%
%ADD30R,2.603X2.603*%
%ADD31C,4.203*%
%ADD32C,1.711*%
%ADD33C,1.703*%
%ADD34R,1.703X1.703*%
%ADD35R,1.711X1.711*%
%ADD36R,1.603X1.603*%
%ADD37C,0.903*%
D19*
X16231Y78236D02*
D03*
Y80086D02*
D03*
X18263Y78200D02*
D03*
Y80050D02*
D03*
X29439Y82245D02*
D03*
Y80395D02*
D03*
X27407Y82245D02*
D03*
Y80395D02*
D03*
X48699Y82011D02*
D03*
Y80161D02*
D03*
X46667Y78581D02*
D03*
Y76731D02*
D03*
X48699Y78581D02*
D03*
Y76731D02*
D03*
X46667Y82010D02*
D03*
Y80160D02*
D03*
X34856Y76731D02*
D03*
Y78581D02*
D03*
X36888Y76731D02*
D03*
Y78581D02*
D03*
D20*
X17518Y94396D02*
D03*
X15668D02*
D03*
X17518Y90078D02*
D03*
X15668D02*
D03*
X26693Y34757D02*
D03*
X24843D02*
D03*
X22557Y43901D02*
D03*
X24407D02*
D03*
X26693Y32725D02*
D03*
X24843D02*
D03*
X22557Y45806D02*
D03*
X24407D02*
D03*
D26*
X22593Y41869D02*
D03*
D27*
X24593D02*
D03*
X22593Y36789D02*
D03*
X26593D02*
D03*
X24593D02*
D03*
X28593Y41869D02*
D03*
X15323Y92237D02*
D03*
X17863D02*
D03*
X20403D02*
D03*
X22943D02*
D03*
X66123D02*
D03*
X83903D02*
D03*
X44381Y78672D02*
D03*
Y76672D02*
D03*
Y80672D02*
D03*
X39301Y82672D02*
D03*
Y78672D02*
D03*
X25375Y76209D02*
D03*
X20295Y80209D02*
D03*
Y78209D02*
D03*
Y82209D02*
D03*
X25375Y80209D02*
D03*
D28*
X10883Y92237D02*
D03*
X90883D02*
D03*
D29*
X87500Y15080D02*
D03*
X87840Y53198D02*
D03*
X87713Y33592D02*
D03*
X88221Y71805D02*
D03*
X23472Y55976D02*
D03*
D30*
X87500Y10000D02*
D03*
X87840Y48118D02*
D03*
X87713Y28512D02*
D03*
X88221Y66725D02*
D03*
X23472Y50896D02*
D03*
D31*
X5000Y95000D02*
D03*
X95000D02*
D03*
Y5000D02*
D03*
X5000D02*
D03*
D32*
X42011Y39581D02*
D03*
X39511D02*
D03*
D33*
X58093Y74252D02*
D03*
X60633Y76792D02*
D03*
X58093Y69172D02*
D03*
Y66632D02*
D03*
X60633D02*
D03*
Y69172D02*
D03*
X58093Y71712D02*
D03*
X60633D02*
D03*
Y74252D02*
D03*
D34*
X58093Y76792D02*
D03*
D35*
X37011Y39581D02*
D03*
D36*
X39301Y76672D02*
D03*
X25375Y82209D02*
D03*
D37*
X78700Y27000D02*
D03*
X50300Y65100D02*
D03*
X71711Y62311D02*
D03*
X58100Y60400D02*
D03*
X77672Y82727D02*
D03*
X80500Y84000D02*
D03*
X80663Y65163D02*
D03*
X80759Y47165D02*
D03*
X80700Y27100D02*
D03*
X35051Y61751D02*
D03*
X71600Y81400D02*
D03*
X72800Y24300D02*
D03*
X78787Y65113D02*
D03*
X78800Y47026D02*
D03*
X72854Y44246D02*
D03*
X54700Y36878D02*
D03*
X57077Y30183D02*
D03*
X59490D02*
D03*
X67745Y63711D02*
D03*
X34852Y43264D02*
D03*
M02*
