G04*
G04 #@! TF.GenerationSoftware,Altium Limited,Altium Designer,23.11.1 (41)*
G04*
G04 Layer_Color=32896*
%FSLAX43Y43*%
%MOMM*%
G71*
G04*
G04 #@! TF.SameCoordinates,5C86F8B5-C48D-4B9D-AEF1-1A40F40C4F51*
G04*
G04*
G04 #@! TF.FilePolarity,Positive*
G04*
G01*
G75*
%ADD11C,0.150*%
G36*
X15548Y96933D02*
X15562Y96932D01*
X15574Y96930D01*
X15587Y96926D01*
X15610Y96918D01*
X15632Y96907D01*
X15652Y96894D01*
X15672Y96880D01*
X15689Y96865D01*
X15705Y96849D01*
X15719Y96832D01*
X15731Y96817D01*
X15742Y96803D01*
X15751Y96790D01*
X15758Y96779D01*
X15763Y96771D01*
X15765Y96767D01*
X15766Y96765D01*
X15767Y96764D01*
Y96763D01*
X15770Y96756D01*
X15771Y96751D01*
X15771Y96746D01*
Y96745D01*
Y96744D01*
X15771Y96736D01*
X15770Y96728D01*
X15767Y96722D01*
X15764Y96716D01*
X15761Y96712D01*
X15756Y96708D01*
X15747Y96702D01*
X15739Y96699D01*
X15731Y96697D01*
X15728Y96696D01*
X15724D01*
X15714Y96697D01*
X15706Y96700D01*
X15699Y96704D01*
X15693Y96708D01*
X15689Y96712D01*
X15686Y96716D01*
X15684Y96719D01*
X15683Y96720D01*
X15670Y96741D01*
X15657Y96759D01*
X15644Y96775D01*
X15632Y96789D01*
X15618Y96801D01*
X15607Y96810D01*
X15595Y96818D01*
X15583Y96824D01*
X15573Y96829D01*
X15564Y96832D01*
X15556Y96836D01*
X15548Y96837D01*
X15542Y96838D01*
X15538Y96839D01*
X15535D01*
X15524Y96838D01*
X15513Y96837D01*
X15494Y96832D01*
X15477Y96826D01*
X15462Y96818D01*
X15451Y96811D01*
X15446Y96807D01*
X15442Y96804D01*
X15438Y96801D01*
X15436Y96799D01*
X15435Y96798D01*
X15434Y96797D01*
X15427Y96789D01*
X15420Y96781D01*
X15415Y96772D01*
X15410Y96764D01*
X15402Y96747D01*
X15397Y96731D01*
X15395Y96717D01*
X15393Y96711D01*
Y96706D01*
X15392Y96702D01*
Y96699D01*
Y96697D01*
Y96696D01*
X15393Y96681D01*
X15396Y96667D01*
X15400Y96654D01*
X15404Y96642D01*
X15408Y96632D01*
X15412Y96625D01*
X15415Y96620D01*
X15416Y96619D01*
Y96618D01*
X15763Y96061D01*
X15768Y96052D01*
X15771Y96042D01*
Y96039D01*
X15771Y96036D01*
Y96034D01*
Y96033D01*
X15771Y96025D01*
X15770Y96018D01*
X15767Y96012D01*
X15764Y96007D01*
X15756Y95998D01*
X15747Y95992D01*
X15739Y95989D01*
X15731Y95987D01*
X15728Y95987D01*
X15345D01*
X15337Y95987D01*
X15329Y95988D01*
X15323Y95991D01*
X15317Y95994D01*
X15312Y95997D01*
X15309Y96002D01*
X15303Y96011D01*
X15300Y96019D01*
X15298Y96027D01*
X15297Y96030D01*
Y96032D01*
Y96033D01*
Y96034D01*
X15298Y96042D01*
X15299Y96050D01*
X15302Y96056D01*
X15305Y96062D01*
X15308Y96067D01*
X15312Y96070D01*
X15321Y96076D01*
X15330Y96079D01*
X15337Y96081D01*
X15341Y96082D01*
X15639D01*
X15341Y96561D01*
X15333Y96573D01*
X15327Y96586D01*
X15321Y96599D01*
X15316Y96611D01*
X15308Y96634D01*
X15302Y96654D01*
X15301Y96663D01*
X15300Y96671D01*
X15299Y96679D01*
X15298Y96685D01*
X15297Y96690D01*
Y96693D01*
Y96696D01*
Y96696D01*
X15298Y96715D01*
X15301Y96732D01*
X15304Y96748D01*
X15308Y96764D01*
X15313Y96779D01*
X15320Y96792D01*
X15326Y96806D01*
X15332Y96817D01*
X15339Y96827D01*
X15345Y96837D01*
X15351Y96845D01*
X15357Y96851D01*
X15361Y96857D01*
X15364Y96861D01*
X15367Y96863D01*
X15367Y96864D01*
X15381Y96876D01*
X15394Y96887D01*
X15408Y96896D01*
X15422Y96905D01*
X15437Y96911D01*
X15451Y96917D01*
X15464Y96921D01*
X15477Y96926D01*
X15489Y96928D01*
X15500Y96931D01*
X15510Y96931D01*
X15518Y96933D01*
X15526D01*
X15531Y96934D01*
X15535D01*
X15548Y96933D01*
D02*
G37*
G36*
X14878D02*
X14885Y96931D01*
X14892Y96928D01*
X14898Y96925D01*
X14903Y96921D01*
X14906Y96918D01*
X14908Y96916D01*
X14909Y96915D01*
X15095Y96730D01*
X15099Y96725D01*
X15102Y96719D01*
X15105Y96713D01*
X15107Y96708D01*
X15107Y96703D01*
X15108Y96700D01*
Y96697D01*
Y96696D01*
X15107Y96688D01*
X15107Y96681D01*
X15104Y96675D01*
X15101Y96669D01*
X15097Y96665D01*
X15093Y96661D01*
X15084Y96655D01*
X15076Y96651D01*
X15068Y96650D01*
X15065Y96649D01*
X15061D01*
X15054Y96650D01*
X15047Y96651D01*
X15042Y96653D01*
X15037Y96656D01*
X15033Y96659D01*
X15030Y96661D01*
X15028Y96662D01*
X15027Y96663D01*
X14918Y96772D01*
Y96033D01*
X14918Y96025D01*
X14917Y96018D01*
X14914Y96012D01*
X14911Y96007D01*
X14903Y95998D01*
X14894Y95992D01*
X14886Y95989D01*
X14878Y95987D01*
X14875Y95987D01*
X14871D01*
X14863Y95987D01*
X14855Y95988D01*
X14849Y95991D01*
X14843Y95994D01*
X14838Y95997D01*
X14835Y96002D01*
X14829Y96010D01*
X14826Y96018D01*
X14824Y96026D01*
X14823Y96032D01*
Y96032D01*
Y96033D01*
Y96886D01*
X14824Y96895D01*
X14825Y96902D01*
X14828Y96908D01*
X14831Y96914D01*
X14834Y96919D01*
X14838Y96922D01*
X14847Y96928D01*
X14856Y96931D01*
X14863Y96933D01*
X14867Y96934D01*
X14871D01*
X14878Y96933D01*
D02*
G37*
G36*
X16216D02*
X16232Y96931D01*
X16249Y96927D01*
X16265Y96923D01*
X16280Y96918D01*
X16293Y96911D01*
X16306Y96906D01*
X16318Y96899D01*
X16328Y96892D01*
X16337Y96886D01*
X16345Y96881D01*
X16352Y96875D01*
X16358Y96871D01*
X16361Y96867D01*
X16364Y96865D01*
X16365Y96864D01*
X16377Y96851D01*
X16387Y96837D01*
X16396Y96823D01*
X16405Y96809D01*
X16411Y96795D01*
X16417Y96781D01*
X16421Y96767D01*
X16425Y96754D01*
X16428Y96742D01*
X16430Y96731D01*
X16431Y96721D01*
X16433Y96713D01*
Y96706D01*
X16434Y96701D01*
Y96697D01*
Y96696D01*
Y96223D01*
X16433Y96205D01*
X16430Y96188D01*
X16427Y96172D01*
X16423Y96156D01*
X16418Y96141D01*
X16412Y96127D01*
X16405Y96114D01*
X16399Y96102D01*
X16393Y96092D01*
X16386Y96083D01*
X16380Y96075D01*
X16375Y96068D01*
X16371Y96062D01*
X16368Y96059D01*
X16365Y96057D01*
X16365Y96056D01*
X16351Y96043D01*
X16338Y96033D01*
X16324Y96024D01*
X16310Y96016D01*
X16295Y96009D01*
X16281Y96003D01*
X16268Y95999D01*
X16255Y95995D01*
X16243Y95992D01*
X16232Y95990D01*
X16222Y95989D01*
X16214Y95987D01*
X16206D01*
X16201Y95987D01*
X16008D01*
X16000Y95987D01*
X15992Y95988D01*
X15986Y95991D01*
X15981Y95994D01*
X15976Y95997D01*
X15972Y96002D01*
X15966Y96011D01*
X15963Y96019D01*
X15961Y96027D01*
X15961Y96030D01*
Y96032D01*
Y96033D01*
Y96034D01*
X15961Y96042D01*
X15962Y96050D01*
X15965Y96056D01*
X15968Y96062D01*
X15971Y96067D01*
X15976Y96070D01*
X15984Y96076D01*
X15993Y96079D01*
X16001Y96081D01*
X16004Y96082D01*
X16197D01*
X16208Y96082D01*
X16219Y96083D01*
X16238Y96088D01*
X16255Y96095D01*
X16270Y96102D01*
X16281Y96110D01*
X16286Y96113D01*
X16291Y96116D01*
X16294Y96119D01*
X16296Y96121D01*
X16297Y96122D01*
X16298Y96122D01*
X16306Y96131D01*
X16311Y96139D01*
X16317Y96147D01*
X16321Y96156D01*
X16329Y96172D01*
X16334Y96188D01*
X16336Y96202D01*
X16337Y96208D01*
X16338Y96213D01*
X16339Y96217D01*
Y96221D01*
Y96222D01*
Y96223D01*
Y96696D01*
X16338Y96707D01*
X16337Y96718D01*
X16332Y96737D01*
X16325Y96755D01*
X16318Y96769D01*
X16310Y96781D01*
X16307Y96786D01*
X16305Y96790D01*
X16301Y96793D01*
X16300Y96796D01*
X16299Y96796D01*
X16298Y96797D01*
X16290Y96805D01*
X16281Y96811D01*
X16273Y96816D01*
X16265Y96821D01*
X16248Y96829D01*
X16232Y96834D01*
X16218Y96836D01*
X16212Y96838D01*
X16207D01*
X16203Y96839D01*
X16008D01*
X16000Y96840D01*
X15992Y96841D01*
X15986Y96843D01*
X15981Y96846D01*
X15976Y96850D01*
X15972Y96854D01*
X15966Y96863D01*
X15963Y96871D01*
X15961Y96879D01*
X15961Y96882D01*
Y96885D01*
Y96886D01*
Y96886D01*
X15961Y96895D01*
X15962Y96902D01*
X15965Y96908D01*
X15968Y96914D01*
X15971Y96919D01*
X15976Y96922D01*
X15984Y96928D01*
X15993Y96931D01*
X16001Y96933D01*
X16004Y96934D01*
X16197D01*
X16216Y96933D01*
D02*
G37*
G36*
X15726Y92615D02*
X15739Y92614D01*
X15752Y92612D01*
X15764Y92608D01*
X15788Y92600D01*
X15810Y92589D01*
X15830Y92576D01*
X15849Y92562D01*
X15867Y92547D01*
X15883Y92531D01*
X15897Y92514D01*
X15909Y92499D01*
X15920Y92485D01*
X15929Y92472D01*
X15936Y92461D01*
X15941Y92453D01*
X15943Y92449D01*
X15944Y92447D01*
X15945Y92446D01*
Y92445D01*
X15948Y92438D01*
X15948Y92433D01*
X15949Y92428D01*
Y92427D01*
Y92426D01*
X15948Y92418D01*
X15948Y92410D01*
X15945Y92404D01*
X15942Y92398D01*
X15938Y92394D01*
X15934Y92390D01*
X15925Y92384D01*
X15917Y92381D01*
X15909Y92379D01*
X15906Y92378D01*
X15902D01*
X15892Y92379D01*
X15883Y92382D01*
X15877Y92386D01*
X15871Y92390D01*
X15867Y92394D01*
X15863Y92398D01*
X15862Y92401D01*
X15861Y92402D01*
X15848Y92423D01*
X15835Y92441D01*
X15822Y92457D01*
X15809Y92471D01*
X15796Y92483D01*
X15784Y92492D01*
X15773Y92500D01*
X15761Y92506D01*
X15751Y92511D01*
X15742Y92514D01*
X15733Y92518D01*
X15726Y92519D01*
X15720Y92520D01*
X15716Y92521D01*
X15713D01*
X15702Y92520D01*
X15691Y92519D01*
X15672Y92514D01*
X15654Y92508D01*
X15640Y92500D01*
X15629Y92493D01*
X15624Y92489D01*
X15619Y92486D01*
X15616Y92483D01*
X15614Y92481D01*
X15613Y92480D01*
X15612Y92479D01*
X15604Y92471D01*
X15598Y92463D01*
X15593Y92454D01*
X15588Y92446D01*
X15580Y92429D01*
X15575Y92413D01*
X15573Y92399D01*
X15571Y92393D01*
Y92388D01*
X15570Y92384D01*
Y92381D01*
Y92379D01*
Y92378D01*
X15571Y92363D01*
X15574Y92349D01*
X15578Y92336D01*
X15582Y92324D01*
X15586Y92314D01*
X15590Y92307D01*
X15593Y92302D01*
X15594Y92301D01*
Y92300D01*
X15941Y91743D01*
X15946Y91734D01*
X15948Y91724D01*
Y91721D01*
X15949Y91718D01*
Y91716D01*
Y91715D01*
X15948Y91707D01*
X15948Y91700D01*
X15945Y91694D01*
X15942Y91689D01*
X15934Y91680D01*
X15925Y91674D01*
X15917Y91671D01*
X15909Y91669D01*
X15906Y91669D01*
X15523D01*
X15514Y91669D01*
X15507Y91670D01*
X15501Y91673D01*
X15495Y91676D01*
X15490Y91679D01*
X15487Y91684D01*
X15481Y91693D01*
X15478Y91701D01*
X15476Y91709D01*
X15475Y91712D01*
Y91714D01*
Y91715D01*
Y91716D01*
X15476Y91724D01*
X15477Y91732D01*
X15479Y91738D01*
X15483Y91744D01*
X15486Y91749D01*
X15490Y91752D01*
X15499Y91758D01*
X15508Y91761D01*
X15515Y91763D01*
X15519Y91764D01*
X15817D01*
X15519Y92243D01*
X15511Y92255D01*
X15504Y92268D01*
X15499Y92281D01*
X15494Y92293D01*
X15486Y92316D01*
X15480Y92336D01*
X15479Y92345D01*
X15478Y92353D01*
X15477Y92361D01*
X15476Y92367D01*
X15475Y92372D01*
Y92375D01*
Y92378D01*
Y92378D01*
X15476Y92397D01*
X15479Y92414D01*
X15482Y92430D01*
X15486Y92446D01*
X15491Y92461D01*
X15498Y92474D01*
X15504Y92488D01*
X15510Y92499D01*
X15517Y92509D01*
X15523Y92519D01*
X15529Y92527D01*
X15534Y92533D01*
X15539Y92539D01*
X15542Y92543D01*
X15544Y92545D01*
X15545Y92546D01*
X15559Y92558D01*
X15572Y92569D01*
X15586Y92578D01*
X15600Y92587D01*
X15614Y92593D01*
X15629Y92599D01*
X15642Y92603D01*
X15655Y92608D01*
X15667Y92610D01*
X15678Y92613D01*
X15688Y92613D01*
X15696Y92615D01*
X15703D01*
X15708Y92616D01*
X15713D01*
X15726Y92615D01*
D02*
G37*
G36*
X15063D02*
X15076Y92614D01*
X15089Y92612D01*
X15101Y92608D01*
X15124Y92600D01*
X15147Y92589D01*
X15167Y92576D01*
X15186Y92562D01*
X15204Y92547D01*
X15219Y92531D01*
X15234Y92514D01*
X15246Y92499D01*
X15257Y92485D01*
X15266Y92472D01*
X15273Y92461D01*
X15278Y92453D01*
X15279Y92449D01*
X15281Y92447D01*
X15282Y92446D01*
Y92445D01*
X15284Y92438D01*
X15285Y92433D01*
X15286Y92428D01*
Y92427D01*
Y92426D01*
X15285Y92418D01*
X15284Y92410D01*
X15282Y92404D01*
X15279Y92398D01*
X15275Y92394D01*
X15271Y92390D01*
X15262Y92384D01*
X15254Y92381D01*
X15246Y92379D01*
X15243Y92378D01*
X15239D01*
X15229Y92379D01*
X15220Y92382D01*
X15214Y92386D01*
X15208Y92390D01*
X15204Y92394D01*
X15200Y92398D01*
X15199Y92401D01*
X15198Y92402D01*
X15184Y92423D01*
X15172Y92441D01*
X15159Y92457D01*
X15146Y92471D01*
X15133Y92483D01*
X15121Y92492D01*
X15109Y92500D01*
X15098Y92506D01*
X15088Y92511D01*
X15079Y92514D01*
X15070Y92518D01*
X15063Y92519D01*
X15057Y92520D01*
X15053Y92521D01*
X15050D01*
X15039Y92520D01*
X15028Y92519D01*
X15009Y92514D01*
X14991Y92508D01*
X14977Y92500D01*
X14965Y92493D01*
X14960Y92489D01*
X14956Y92486D01*
X14953Y92483D01*
X14950Y92481D01*
X14950Y92480D01*
X14949Y92479D01*
X14941Y92471D01*
X14935Y92463D01*
X14930Y92454D01*
X14925Y92446D01*
X14917Y92429D01*
X14912Y92413D01*
X14910Y92399D01*
X14908Y92393D01*
Y92388D01*
X14907Y92384D01*
Y92381D01*
Y92379D01*
Y92378D01*
X14908Y92363D01*
X14910Y92349D01*
X14915Y92336D01*
X14919Y92324D01*
X14923Y92314D01*
X14927Y92307D01*
X14930Y92302D01*
X14930Y92301D01*
Y92300D01*
X15278Y91743D01*
X15283Y91734D01*
X15285Y91724D01*
Y91721D01*
X15286Y91718D01*
Y91716D01*
Y91715D01*
X15285Y91707D01*
X15284Y91700D01*
X15282Y91694D01*
X15279Y91689D01*
X15271Y91680D01*
X15262Y91674D01*
X15254Y91671D01*
X15246Y91669D01*
X15243Y91669D01*
X14860D01*
X14851Y91669D01*
X14844Y91670D01*
X14838Y91673D01*
X14832Y91676D01*
X14827Y91679D01*
X14824Y91684D01*
X14818Y91693D01*
X14815Y91701D01*
X14813Y91709D01*
X14812Y91712D01*
Y91714D01*
Y91715D01*
Y91716D01*
X14813Y91724D01*
X14814Y91732D01*
X14816Y91738D01*
X14820Y91744D01*
X14823Y91749D01*
X14827Y91752D01*
X14835Y91758D01*
X14845Y91761D01*
X14852Y91763D01*
X14855Y91764D01*
X15154D01*
X14855Y92243D01*
X14848Y92255D01*
X14841Y92268D01*
X14835Y92281D01*
X14830Y92293D01*
X14823Y92316D01*
X14817Y92336D01*
X14815Y92345D01*
X14815Y92353D01*
X14814Y92361D01*
X14813Y92367D01*
X14812Y92372D01*
Y92375D01*
Y92378D01*
Y92378D01*
X14813Y92397D01*
X14815Y92414D01*
X14819Y92430D01*
X14823Y92446D01*
X14828Y92461D01*
X14835Y92474D01*
X14840Y92488D01*
X14847Y92499D01*
X14854Y92509D01*
X14860Y92519D01*
X14865Y92527D01*
X14871Y92533D01*
X14875Y92539D01*
X14879Y92543D01*
X14881Y92545D01*
X14882Y92546D01*
X14895Y92558D01*
X14909Y92569D01*
X14923Y92578D01*
X14937Y92587D01*
X14951Y92593D01*
X14965Y92599D01*
X14979Y92603D01*
X14992Y92608D01*
X15004Y92610D01*
X15015Y92613D01*
X15025Y92613D01*
X15033Y92615D01*
X15040D01*
X15045Y92616D01*
X15050D01*
X15063Y92615D01*
D02*
G37*
G36*
X16393D02*
X16410Y92613D01*
X16427Y92609D01*
X16442Y92605D01*
X16457Y92600D01*
X16471Y92593D01*
X16484Y92588D01*
X16496Y92581D01*
X16506Y92574D01*
X16515Y92568D01*
X16523Y92563D01*
X16530Y92557D01*
X16536Y92553D01*
X16539Y92549D01*
X16542Y92547D01*
X16542Y92546D01*
X16555Y92533D01*
X16565Y92519D01*
X16574Y92505D01*
X16582Y92491D01*
X16589Y92477D01*
X16595Y92463D01*
X16599Y92449D01*
X16603Y92436D01*
X16606Y92424D01*
X16608Y92413D01*
X16609Y92403D01*
X16611Y92395D01*
Y92388D01*
X16612Y92383D01*
Y92379D01*
Y92378D01*
Y91905D01*
X16611Y91887D01*
X16608Y91870D01*
X16605Y91854D01*
X16601Y91838D01*
X16596Y91823D01*
X16590Y91809D01*
X16583Y91796D01*
X16577Y91784D01*
X16571Y91774D01*
X16564Y91765D01*
X16558Y91757D01*
X16553Y91750D01*
X16549Y91744D01*
X16546Y91741D01*
X16543Y91739D01*
X16542Y91738D01*
X16529Y91725D01*
X16516Y91715D01*
X16502Y91706D01*
X16487Y91698D01*
X16473Y91691D01*
X16459Y91685D01*
X16446Y91681D01*
X16432Y91677D01*
X16421Y91674D01*
X16410Y91672D01*
X16400Y91671D01*
X16392Y91669D01*
X16384D01*
X16379Y91669D01*
X16186D01*
X16178Y91669D01*
X16170Y91670D01*
X16164Y91673D01*
X16158Y91676D01*
X16153Y91679D01*
X16150Y91684D01*
X16144Y91693D01*
X16141Y91701D01*
X16139Y91709D01*
X16138Y91712D01*
Y91714D01*
Y91715D01*
Y91716D01*
X16139Y91724D01*
X16140Y91732D01*
X16143Y91738D01*
X16146Y91744D01*
X16149Y91749D01*
X16153Y91752D01*
X16162Y91758D01*
X16171Y91761D01*
X16178Y91763D01*
X16182Y91764D01*
X16375D01*
X16386Y91764D01*
X16397Y91765D01*
X16416Y91770D01*
X16432Y91777D01*
X16447Y91784D01*
X16459Y91792D01*
X16464Y91795D01*
X16468Y91798D01*
X16472Y91801D01*
X16474Y91803D01*
X16475Y91804D01*
X16476Y91804D01*
X16483Y91813D01*
X16489Y91821D01*
X16495Y91829D01*
X16499Y91838D01*
X16507Y91854D01*
X16512Y91870D01*
X16514Y91884D01*
X16515Y91890D01*
X16516Y91895D01*
X16517Y91899D01*
Y91903D01*
Y91904D01*
Y91905D01*
Y92378D01*
X16516Y92389D01*
X16515Y92400D01*
X16510Y92419D01*
X16503Y92437D01*
X16496Y92451D01*
X16488Y92463D01*
X16485Y92468D01*
X16482Y92472D01*
X16479Y92475D01*
X16477Y92478D01*
X16477Y92478D01*
X16476Y92479D01*
X16467Y92487D01*
X16459Y92493D01*
X16451Y92498D01*
X16442Y92503D01*
X16426Y92511D01*
X16410Y92516D01*
X16396Y92518D01*
X16390Y92520D01*
X16385D01*
X16381Y92521D01*
X16186D01*
X16178Y92522D01*
X16170Y92523D01*
X16164Y92525D01*
X16158Y92528D01*
X16153Y92532D01*
X16150Y92536D01*
X16144Y92545D01*
X16141Y92553D01*
X16139Y92561D01*
X16138Y92564D01*
Y92567D01*
Y92568D01*
Y92568D01*
X16139Y92577D01*
X16140Y92584D01*
X16143Y92590D01*
X16146Y92596D01*
X16149Y92601D01*
X16153Y92604D01*
X16162Y92610D01*
X16171Y92613D01*
X16178Y92615D01*
X16182Y92616D01*
X16375D01*
X16393Y92615D01*
D02*
G37*
G36*
X15872Y82379D02*
X15878Y82376D01*
X15885Y82374D01*
X15891Y82370D01*
X15896Y82366D01*
X15899Y82364D01*
X15902Y82361D01*
X15903Y82360D01*
X16088Y82176D01*
X16093Y82171D01*
X16096Y82165D01*
X16098Y82159D01*
X16100Y82154D01*
X16101Y82149D01*
X16102Y82146D01*
Y82143D01*
Y82142D01*
X16101Y82134D01*
X16100Y82126D01*
X16097Y82121D01*
X16094Y82115D01*
X16091Y82111D01*
X16087Y82106D01*
X16078Y82101D01*
X16069Y82097D01*
X16062Y82096D01*
X16058Y82095D01*
X16054D01*
X16048Y82096D01*
X16041Y82097D01*
X16035Y82099D01*
X16030Y82102D01*
X16027Y82105D01*
X16023Y82106D01*
X16022Y82108D01*
X16021Y82109D01*
X15912Y82218D01*
Y81479D01*
X15911Y81471D01*
X15910Y81464D01*
X15908Y81457D01*
X15904Y81452D01*
X15897Y81444D01*
X15888Y81438D01*
X15879Y81435D01*
X15872Y81433D01*
X15868Y81432D01*
X15864D01*
X15856Y81433D01*
X15848Y81434D01*
X15843Y81437D01*
X15837Y81440D01*
X15832Y81443D01*
X15828Y81447D01*
X15823Y81456D01*
X15819Y81464D01*
X15818Y81472D01*
X15817Y81477D01*
Y81478D01*
Y81479D01*
Y82332D01*
X15818Y82340D01*
X15818Y82348D01*
X15821Y82354D01*
X15824Y82360D01*
X15828Y82365D01*
X15832Y82368D01*
X15840Y82374D01*
X15849Y82377D01*
X15857Y82379D01*
X15860Y82380D01*
X15864D01*
X15872Y82379D01*
D02*
G37*
G36*
X16546D02*
X16562Y82376D01*
X16579Y82373D01*
X16595Y82369D01*
X16610Y82364D01*
X16623Y82357D01*
X16637Y82351D01*
X16648Y82345D01*
X16658Y82338D01*
X16667Y82332D01*
X16676Y82326D01*
X16682Y82321D01*
X16688Y82316D01*
X16692Y82313D01*
X16694Y82311D01*
X16695Y82310D01*
X16707Y82296D01*
X16717Y82283D01*
X16727Y82269D01*
X16735Y82255D01*
X16742Y82241D01*
X16747Y82226D01*
X16751Y82213D01*
X16756Y82200D01*
X16758Y82188D01*
X16761Y82177D01*
X16761Y82167D01*
X16763Y82159D01*
Y82151D01*
X16764Y82146D01*
Y82143D01*
Y82142D01*
Y81669D01*
X16763Y81651D01*
X16761Y81634D01*
X16757Y81617D01*
X16753Y81602D01*
X16748Y81587D01*
X16742Y81573D01*
X16736Y81560D01*
X16729Y81548D01*
X16723Y81538D01*
X16717Y81529D01*
X16711Y81521D01*
X16706Y81514D01*
X16702Y81508D01*
X16698Y81505D01*
X16696Y81502D01*
X16695Y81502D01*
X16682Y81489D01*
X16668Y81479D01*
X16654Y81470D01*
X16640Y81462D01*
X16626Y81455D01*
X16612Y81449D01*
X16598Y81445D01*
X16585Y81441D01*
X16573Y81438D01*
X16562Y81436D01*
X16552Y81435D01*
X16544Y81433D01*
X16537D01*
X16532Y81432D01*
X16338D01*
X16330Y81433D01*
X16322Y81434D01*
X16317Y81437D01*
X16311Y81440D01*
X16306Y81443D01*
X16302Y81447D01*
X16297Y81457D01*
X16293Y81465D01*
X16292Y81472D01*
X16291Y81476D01*
Y81478D01*
Y81479D01*
Y81480D01*
X16292Y81488D01*
X16292Y81496D01*
X16295Y81502D01*
X16298Y81507D01*
X16302Y81512D01*
X16306Y81516D01*
X16314Y81522D01*
X16323Y81525D01*
X16331Y81527D01*
X16334Y81527D01*
X16527D01*
X16538Y81528D01*
X16549Y81529D01*
X16568Y81534D01*
X16585Y81541D01*
X16600Y81548D01*
X16612Y81556D01*
X16617Y81559D01*
X16621Y81562D01*
X16624Y81565D01*
X16627Y81567D01*
X16627Y81567D01*
X16628Y81568D01*
X16636Y81577D01*
X16642Y81585D01*
X16647Y81593D01*
X16652Y81602D01*
X16659Y81618D01*
X16664Y81634D01*
X16667Y81648D01*
X16667Y81654D01*
X16668Y81659D01*
X16669Y81663D01*
Y81667D01*
Y81668D01*
Y81669D01*
Y82142D01*
X16668Y82153D01*
X16667Y82164D01*
X16662Y82183D01*
X16656Y82201D01*
X16648Y82215D01*
X16641Y82226D01*
X16637Y82231D01*
X16635Y82236D01*
X16632Y82239D01*
X16630Y82241D01*
X16629Y82242D01*
X16628Y82243D01*
X16620Y82251D01*
X16612Y82257D01*
X16603Y82262D01*
X16595Y82267D01*
X16578Y82275D01*
X16562Y82280D01*
X16548Y82282D01*
X16542Y82284D01*
X16537D01*
X16533Y82285D01*
X16338D01*
X16330Y82286D01*
X16322Y82286D01*
X16317Y82289D01*
X16311Y82292D01*
X16306Y82296D01*
X16302Y82300D01*
X16297Y82309D01*
X16293Y82317D01*
X16292Y82325D01*
X16291Y82328D01*
Y82330D01*
Y82331D01*
Y82332D01*
X16292Y82340D01*
X16292Y82348D01*
X16295Y82354D01*
X16298Y82360D01*
X16302Y82365D01*
X16306Y82368D01*
X16314Y82374D01*
X16323Y82377D01*
X16331Y82379D01*
X16334Y82380D01*
X16527D01*
X16546Y82379D01*
D02*
G37*
G36*
X15303D02*
X15310Y82378D01*
X15324Y82375D01*
X15330Y82372D01*
X15335Y82370D01*
X15339Y82370D01*
X15340Y82369D01*
X15359Y82360D01*
X15376Y82351D01*
X15394Y82341D01*
X15410Y82331D01*
X15426Y82320D01*
X15440Y82309D01*
X15454Y82298D01*
X15468Y82287D01*
X15479Y82276D01*
X15489Y82266D01*
X15498Y82258D01*
X15507Y82250D01*
X15513Y82244D01*
X15517Y82239D01*
X15520Y82236D01*
X15521Y82235D01*
X15539Y82211D01*
X15556Y82188D01*
X15570Y82164D01*
X15583Y82140D01*
X15593Y82116D01*
X15602Y82092D01*
X15608Y82070D01*
X15614Y82049D01*
X15618Y82029D01*
X15622Y82011D01*
X15624Y81994D01*
X15626Y81980D01*
X15627Y81969D01*
X15628Y81961D01*
Y81957D01*
Y81955D01*
Y81954D01*
Y81953D01*
Y81667D01*
X15627Y81649D01*
X15624Y81632D01*
X15621Y81616D01*
X15617Y81600D01*
X15612Y81585D01*
X15606Y81572D01*
X15600Y81559D01*
X15593Y81547D01*
X15587Y81537D01*
X15581Y81527D01*
X15575Y81520D01*
X15570Y81513D01*
X15566Y81507D01*
X15562Y81504D01*
X15560Y81502D01*
X15559Y81501D01*
X15546Y81489D01*
X15532Y81478D01*
X15518Y81469D01*
X15503Y81462D01*
X15489Y81455D01*
X15476Y81449D01*
X15462Y81445D01*
X15449Y81441D01*
X15437Y81438D01*
X15426Y81436D01*
X15416Y81435D01*
X15408Y81433D01*
X15400D01*
X15395Y81432D01*
X15391D01*
X15373Y81433D01*
X15356Y81436D01*
X15339Y81439D01*
X15324Y81443D01*
X15309Y81448D01*
X15295Y81454D01*
X15283Y81460D01*
X15271Y81467D01*
X15261Y81473D01*
X15251Y81479D01*
X15244Y81485D01*
X15237Y81490D01*
X15231Y81494D01*
X15228Y81498D01*
X15225Y81500D01*
X15224Y81501D01*
X15212Y81514D01*
X15201Y81528D01*
X15192Y81542D01*
X15184Y81557D01*
X15177Y81571D01*
X15171Y81584D01*
X15167Y81598D01*
X15163Y81611D01*
X15160Y81623D01*
X15158Y81634D01*
X15157Y81644D01*
X15155Y81652D01*
Y81660D01*
X15154Y81665D01*
Y81668D01*
Y81669D01*
Y81763D01*
X15155Y81781D01*
X15157Y81799D01*
X15161Y81816D01*
X15165Y81831D01*
X15170Y81846D01*
X15176Y81860D01*
X15182Y81873D01*
X15189Y81885D01*
X15195Y81895D01*
X15201Y81904D01*
X15207Y81912D01*
X15212Y81919D01*
X15216Y81925D01*
X15219Y81928D01*
X15222Y81931D01*
X15223Y81931D01*
X15236Y81944D01*
X15249Y81954D01*
X15264Y81964D01*
X15278Y81971D01*
X15292Y81978D01*
X15306Y81984D01*
X15319Y81988D01*
X15333Y81992D01*
X15344Y81995D01*
X15356Y81997D01*
X15366Y81998D01*
X15374Y82000D01*
X15381D01*
X15387Y82001D01*
X15529D01*
X15527Y82016D01*
X15523Y82032D01*
X15519Y82047D01*
X15513Y82062D01*
X15502Y82090D01*
X15496Y82103D01*
X15489Y82115D01*
X15483Y82126D01*
X15478Y82136D01*
X15472Y82144D01*
X15468Y82151D01*
X15464Y82157D01*
X15460Y82161D01*
X15458Y82164D01*
X15458Y82165D01*
X15443Y82183D01*
X15427Y82199D01*
X15411Y82214D01*
X15395Y82226D01*
X15380Y82238D01*
X15364Y82249D01*
X15350Y82258D01*
X15336Y82266D01*
X15323Y82272D01*
X15311Y82278D01*
X15300Y82282D01*
X15291Y82286D01*
X15284Y82288D01*
X15279Y82290D01*
X15274Y82291D01*
X15274D01*
X15265Y82295D01*
X15259Y82300D01*
X15255Y82306D01*
X15253Y82314D01*
X15250Y82321D01*
X15249Y82326D01*
Y82330D01*
Y82332D01*
X15250Y82340D01*
X15251Y82348D01*
X15254Y82354D01*
X15257Y82360D01*
X15260Y82365D01*
X15264Y82368D01*
X15273Y82374D01*
X15282Y82377D01*
X15289Y82379D01*
X15293Y82380D01*
X15297D01*
X15303Y82379D01*
D02*
G37*
G36*
X17904Y82353D02*
X17910Y82351D01*
X17917Y82348D01*
X17923Y82345D01*
X17928Y82341D01*
X17931Y82338D01*
X17934Y82336D01*
X17935Y82335D01*
X18120Y82150D01*
X18125Y82145D01*
X18128Y82139D01*
X18130Y82133D01*
X18132Y82128D01*
X18133Y82123D01*
X18134Y82120D01*
Y82118D01*
Y82117D01*
X18133Y82108D01*
X18132Y82101D01*
X18129Y82095D01*
X18126Y82089D01*
X18123Y82085D01*
X18119Y82081D01*
X18110Y82075D01*
X18101Y82072D01*
X18094Y82070D01*
X18090Y82069D01*
X18086D01*
X18080Y82070D01*
X18073Y82072D01*
X18067Y82074D01*
X18062Y82077D01*
X18059Y82079D01*
X18055Y82081D01*
X18054Y82083D01*
X18053Y82083D01*
X17944Y82193D01*
Y81454D01*
X17943Y81445D01*
X17942Y81439D01*
X17940Y81432D01*
X17936Y81427D01*
X17929Y81419D01*
X17920Y81413D01*
X17911Y81410D01*
X17904Y81408D01*
X17900Y81407D01*
X17896D01*
X17888Y81408D01*
X17880Y81409D01*
X17875Y81411D01*
X17869Y81414D01*
X17864Y81418D01*
X17860Y81422D01*
X17855Y81430D01*
X17851Y81439D01*
X17850Y81446D01*
X17849Y81452D01*
Y81453D01*
Y81454D01*
Y82307D01*
X17850Y82315D01*
X17850Y82323D01*
X17853Y82328D01*
X17856Y82334D01*
X17860Y82339D01*
X17864Y82343D01*
X17872Y82348D01*
X17881Y82352D01*
X17889Y82353D01*
X17892Y82354D01*
X17896D01*
X17904Y82353D01*
D02*
G37*
G36*
X18578D02*
X18594Y82351D01*
X18611Y82348D01*
X18627Y82343D01*
X18642Y82338D01*
X18655Y82332D01*
X18669Y82326D01*
X18680Y82319D01*
X18690Y82313D01*
X18699Y82307D01*
X18708Y82301D01*
X18714Y82295D01*
X18720Y82291D01*
X18724Y82288D01*
X18726Y82285D01*
X18727Y82284D01*
X18739Y82271D01*
X18749Y82258D01*
X18759Y82243D01*
X18767Y82229D01*
X18774Y82215D01*
X18779Y82201D01*
X18784Y82188D01*
X18788Y82174D01*
X18790Y82163D01*
X18793Y82152D01*
X18794Y82142D01*
X18795Y82133D01*
Y82126D01*
X18796Y82121D01*
Y82118D01*
Y82117D01*
Y81644D01*
X18795Y81625D01*
X18793Y81609D01*
X18789Y81592D01*
X18785Y81576D01*
X18780Y81561D01*
X18774Y81548D01*
X18768Y81534D01*
X18761Y81523D01*
X18755Y81513D01*
X18749Y81504D01*
X18743Y81495D01*
X18738Y81489D01*
X18734Y81483D01*
X18730Y81479D01*
X18728Y81477D01*
X18727Y81476D01*
X18714Y81464D01*
X18700Y81454D01*
X18686Y81444D01*
X18672Y81436D01*
X18658Y81429D01*
X18644Y81424D01*
X18630Y81420D01*
X18617Y81415D01*
X18605Y81413D01*
X18594Y81410D01*
X18584Y81410D01*
X18576Y81408D01*
X18569D01*
X18564Y81407D01*
X18370D01*
X18362Y81408D01*
X18354Y81409D01*
X18349Y81411D01*
X18343Y81414D01*
X18338Y81418D01*
X18334Y81422D01*
X18329Y81431D01*
X18325Y81439D01*
X18324Y81447D01*
X18323Y81450D01*
Y81453D01*
Y81454D01*
Y81454D01*
X18324Y81463D01*
X18324Y81470D01*
X18327Y81476D01*
X18330Y81482D01*
X18334Y81487D01*
X18338Y81490D01*
X18346Y81496D01*
X18355Y81499D01*
X18363Y81501D01*
X18366Y81502D01*
X18559D01*
X18570Y81503D01*
X18581Y81504D01*
X18600Y81509D01*
X18617Y81515D01*
X18632Y81523D01*
X18644Y81530D01*
X18649Y81534D01*
X18653Y81536D01*
X18656Y81539D01*
X18659Y81541D01*
X18659Y81542D01*
X18660Y81543D01*
X18668Y81551D01*
X18674Y81559D01*
X18679Y81568D01*
X18684Y81576D01*
X18691Y81593D01*
X18696Y81609D01*
X18699Y81623D01*
X18699Y81629D01*
X18700Y81634D01*
X18701Y81638D01*
Y81641D01*
Y81643D01*
Y81644D01*
Y82117D01*
X18700Y82128D01*
X18699Y82138D01*
X18694Y82158D01*
X18688Y82175D01*
X18680Y82189D01*
X18673Y82201D01*
X18669Y82206D01*
X18667Y82210D01*
X18664Y82213D01*
X18662Y82216D01*
X18661Y82217D01*
X18660Y82218D01*
X18652Y82225D01*
X18644Y82232D01*
X18635Y82237D01*
X18627Y82242D01*
X18610Y82249D01*
X18594Y82254D01*
X18580Y82257D01*
X18574Y82258D01*
X18569D01*
X18565Y82259D01*
X18370D01*
X18362Y82260D01*
X18354Y82261D01*
X18349Y82263D01*
X18343Y82267D01*
X18338Y82270D01*
X18334Y82274D01*
X18329Y82283D01*
X18325Y82292D01*
X18324Y82299D01*
X18323Y82303D01*
Y82305D01*
Y82306D01*
Y82307D01*
X18324Y82315D01*
X18324Y82323D01*
X18327Y82328D01*
X18330Y82334D01*
X18334Y82339D01*
X18338Y82343D01*
X18346Y82348D01*
X18355Y82352D01*
X18363Y82353D01*
X18366Y82354D01*
X18559D01*
X18578Y82353D01*
D02*
G37*
G36*
X17621D02*
X17629Y82353D01*
X17635Y82350D01*
X17640Y82347D01*
X17645Y82343D01*
X17649Y82339D01*
X17655Y82331D01*
X17658Y82322D01*
X17660Y82314D01*
X17660Y82311D01*
Y82308D01*
Y82308D01*
Y82307D01*
X17660Y82298D01*
X17659Y82291D01*
X17656Y82285D01*
X17653Y82279D01*
X17650Y82275D01*
X17645Y82271D01*
X17636Y82265D01*
X17628Y82262D01*
X17620Y82260D01*
X17617Y82259D01*
X17424D01*
X17413Y82258D01*
X17402Y82258D01*
X17383Y82253D01*
X17366Y82246D01*
X17351Y82238D01*
X17340Y82231D01*
X17335Y82228D01*
X17331Y82224D01*
X17327Y82222D01*
X17325Y82219D01*
X17324Y82218D01*
X17323Y82218D01*
X17316Y82209D01*
X17309Y82201D01*
X17304Y82193D01*
X17299Y82184D01*
X17291Y82168D01*
X17286Y82152D01*
X17284Y82138D01*
X17282Y82132D01*
Y82127D01*
X17281Y82123D01*
Y82119D01*
Y82118D01*
Y82117D01*
X17282Y82106D01*
X17283Y82095D01*
X17288Y82076D01*
X17295Y82059D01*
X17302Y82044D01*
X17310Y82033D01*
X17313Y82028D01*
X17316Y82024D01*
X17319Y82020D01*
X17321Y82018D01*
X17322Y82017D01*
X17323Y82016D01*
X17331Y82009D01*
X17340Y82003D01*
X17348Y81997D01*
X17356Y81993D01*
X17373Y81985D01*
X17389Y81980D01*
X17403Y81978D01*
X17409Y81977D01*
X17414Y81976D01*
X17418Y81975D01*
X17519D01*
X17527Y81974D01*
X17535Y81974D01*
X17540Y81971D01*
X17546Y81968D01*
X17550Y81964D01*
X17555Y81960D01*
X17560Y81952D01*
X17564Y81943D01*
X17565Y81935D01*
X17566Y81932D01*
Y81929D01*
Y81929D01*
Y81928D01*
X17565Y81919D01*
X17565Y81912D01*
X17562Y81906D01*
X17559Y81900D01*
X17555Y81896D01*
X17551Y81892D01*
X17542Y81886D01*
X17534Y81883D01*
X17526Y81881D01*
X17523Y81880D01*
X17424D01*
X17413Y81879D01*
X17402Y81879D01*
X17383Y81874D01*
X17366Y81867D01*
X17351Y81859D01*
X17340Y81852D01*
X17335Y81849D01*
X17331Y81845D01*
X17327Y81843D01*
X17325Y81840D01*
X17324Y81839D01*
X17323Y81839D01*
X17316Y81830D01*
X17309Y81822D01*
X17304Y81814D01*
X17299Y81805D01*
X17291Y81789D01*
X17286Y81773D01*
X17284Y81759D01*
X17282Y81753D01*
Y81748D01*
X17281Y81744D01*
Y81740D01*
Y81739D01*
Y81738D01*
Y81644D01*
X17282Y81633D01*
X17283Y81622D01*
X17288Y81603D01*
X17295Y81585D01*
X17302Y81571D01*
X17310Y81559D01*
X17316Y81550D01*
X17319Y81547D01*
X17321Y81544D01*
X17322Y81544D01*
X17323Y81543D01*
X17331Y81535D01*
X17340Y81529D01*
X17348Y81524D01*
X17356Y81519D01*
X17373Y81512D01*
X17389Y81507D01*
X17403Y81504D01*
X17409Y81504D01*
X17414Y81503D01*
X17418Y81502D01*
X17613D01*
X17621Y81501D01*
X17629Y81500D01*
X17635Y81498D01*
X17640Y81494D01*
X17645Y81491D01*
X17649Y81487D01*
X17655Y81479D01*
X17658Y81469D01*
X17660Y81462D01*
X17660Y81459D01*
Y81456D01*
Y81455D01*
Y81454D01*
X17660Y81446D01*
X17659Y81439D01*
X17656Y81433D01*
X17653Y81427D01*
X17650Y81423D01*
X17645Y81419D01*
X17636Y81413D01*
X17628Y81410D01*
X17620Y81408D01*
X17617Y81407D01*
X17424D01*
X17406Y81408D01*
X17389Y81410D01*
X17372Y81414D01*
X17356Y81418D01*
X17342Y81423D01*
X17328Y81429D01*
X17316Y81435D01*
X17304Y81442D01*
X17293Y81448D01*
X17284Y81454D01*
X17276Y81460D01*
X17269Y81465D01*
X17263Y81469D01*
X17260Y81473D01*
X17257Y81475D01*
X17256Y81476D01*
X17244Y81489D01*
X17233Y81503D01*
X17224Y81517D01*
X17216Y81531D01*
X17209Y81545D01*
X17203Y81559D01*
X17199Y81573D01*
X17195Y81586D01*
X17192Y81598D01*
X17190Y81609D01*
X17189Y81619D01*
X17187Y81627D01*
Y81634D01*
X17186Y81639D01*
Y81643D01*
Y81644D01*
Y81738D01*
X17187Y81759D01*
X17191Y81779D01*
X17195Y81799D01*
X17201Y81817D01*
X17208Y81834D01*
X17216Y81849D01*
X17225Y81864D01*
X17234Y81877D01*
X17243Y81889D01*
X17251Y81899D01*
X17260Y81908D01*
X17266Y81914D01*
X17272Y81920D01*
X17277Y81924D01*
X17281Y81927D01*
X17281Y81928D01*
X17265Y81942D01*
X17250Y81956D01*
X17237Y81972D01*
X17226Y81988D01*
X17217Y82004D01*
X17210Y82019D01*
X17203Y82034D01*
X17198Y82049D01*
X17195Y82063D01*
X17191Y82076D01*
X17189Y82088D01*
X17188Y82098D01*
X17187Y82105D01*
X17186Y82112D01*
Y82115D01*
Y82117D01*
X17187Y82135D01*
X17190Y82152D01*
X17193Y82168D01*
X17197Y82184D01*
X17202Y82198D01*
X17209Y82213D01*
X17215Y82225D01*
X17221Y82237D01*
X17228Y82248D01*
X17234Y82257D01*
X17240Y82265D01*
X17246Y82272D01*
X17250Y82278D01*
X17253Y82281D01*
X17256Y82283D01*
X17256Y82284D01*
X17270Y82297D01*
X17283Y82308D01*
X17297Y82317D01*
X17311Y82325D01*
X17326Y82332D01*
X17340Y82338D01*
X17353Y82342D01*
X17366Y82346D01*
X17378Y82348D01*
X17389Y82351D01*
X17399Y82352D01*
X17407Y82353D01*
X17415D01*
X17420Y82354D01*
X17613D01*
X17621Y82353D01*
D02*
G37*
G36*
X29271Y84538D02*
X29288Y84535D01*
X29304Y84532D01*
X29320Y84528D01*
X29335Y84523D01*
X29349Y84516D01*
X29362Y84510D01*
X29374Y84504D01*
X29384Y84497D01*
X29393Y84491D01*
X29401Y84485D01*
X29408Y84480D01*
X29414Y84475D01*
X29417Y84472D01*
X29419Y84470D01*
X29420Y84469D01*
X29433Y84455D01*
X29443Y84442D01*
X29452Y84428D01*
X29460Y84414D01*
X29467Y84400D01*
X29473Y84385D01*
X29477Y84372D01*
X29481Y84359D01*
X29484Y84347D01*
X29486Y84336D01*
X29487Y84326D01*
X29489Y84318D01*
Y84310D01*
X29489Y84305D01*
Y84302D01*
Y84301D01*
Y83828D01*
X29489Y83810D01*
X29486Y83793D01*
X29483Y83776D01*
X29479Y83761D01*
X29474Y83746D01*
X29468Y83732D01*
X29461Y83719D01*
X29454Y83707D01*
X29449Y83697D01*
X29442Y83688D01*
X29436Y83680D01*
X29431Y83673D01*
X29427Y83667D01*
X29424Y83664D01*
X29421Y83661D01*
X29420Y83661D01*
X29407Y83648D01*
X29394Y83638D01*
X29379Y83629D01*
X29365Y83621D01*
X29351Y83614D01*
X29337Y83608D01*
X29324Y83604D01*
X29310Y83600D01*
X29299Y83597D01*
X29288Y83595D01*
X29278Y83594D01*
X29269Y83592D01*
X29262D01*
X29257Y83591D01*
X29064D01*
X29055Y83592D01*
X29048Y83593D01*
X29042Y83596D01*
X29036Y83599D01*
X29031Y83602D01*
X29028Y83606D01*
X29022Y83616D01*
X29019Y83624D01*
X29017Y83631D01*
X29016Y83635D01*
Y83637D01*
Y83638D01*
Y83639D01*
X29017Y83647D01*
X29018Y83655D01*
X29020Y83661D01*
X29024Y83666D01*
X29027Y83671D01*
X29031Y83675D01*
X29040Y83681D01*
X29049Y83684D01*
X29056Y83686D01*
X29060Y83686D01*
X29253D01*
X29264Y83687D01*
X29274Y83688D01*
X29294Y83693D01*
X29310Y83700D01*
X29325Y83707D01*
X29337Y83715D01*
X29342Y83718D01*
X29346Y83721D01*
X29349Y83724D01*
X29352Y83726D01*
X29353Y83726D01*
X29354Y83727D01*
X29361Y83736D01*
X29367Y83744D01*
X29373Y83752D01*
X29377Y83761D01*
X29384Y83777D01*
X29389Y83793D01*
X29392Y83807D01*
X29393Y83813D01*
X29394Y83818D01*
X29394Y83822D01*
Y83826D01*
Y83827D01*
Y83828D01*
Y84301D01*
X29394Y84312D01*
X29393Y84323D01*
X29388Y84342D01*
X29381Y84360D01*
X29374Y84374D01*
X29366Y84385D01*
X29363Y84390D01*
X29360Y84395D01*
X29357Y84398D01*
X29355Y84400D01*
X29354Y84401D01*
X29354Y84402D01*
X29345Y84410D01*
X29337Y84416D01*
X29329Y84421D01*
X29320Y84426D01*
X29304Y84434D01*
X29288Y84439D01*
X29274Y84441D01*
X29268Y84443D01*
X29263D01*
X29259Y84444D01*
X29064D01*
X29055Y84445D01*
X29048Y84445D01*
X29042Y84448D01*
X29036Y84451D01*
X29031Y84455D01*
X29028Y84459D01*
X29022Y84468D01*
X29019Y84476D01*
X29017Y84484D01*
X29016Y84487D01*
Y84490D01*
Y84490D01*
Y84491D01*
X29017Y84499D01*
X29018Y84507D01*
X29020Y84513D01*
X29024Y84519D01*
X29027Y84524D01*
X29031Y84527D01*
X29040Y84533D01*
X29049Y84536D01*
X29056Y84538D01*
X29060Y84539D01*
X29253D01*
X29271Y84538D01*
D02*
G37*
G36*
X28608D02*
X28625Y84535D01*
X28641Y84532D01*
X28657Y84528D01*
X28672Y84523D01*
X28685Y84516D01*
X28699Y84510D01*
X28710Y84504D01*
X28720Y84497D01*
X28730Y84491D01*
X28738Y84485D01*
X28745Y84480D01*
X28750Y84475D01*
X28754Y84472D01*
X28756Y84470D01*
X28757Y84469D01*
X28770Y84455D01*
X28780Y84442D01*
X28789Y84428D01*
X28797Y84414D01*
X28804Y84400D01*
X28810Y84385D01*
X28814Y84372D01*
X28818Y84359D01*
X28820Y84347D01*
X28823Y84336D01*
X28824Y84326D01*
X28825Y84318D01*
Y84310D01*
X28826Y84305D01*
Y84302D01*
Y84301D01*
X28825Y84280D01*
X28822Y84260D01*
X28817Y84240D01*
X28811Y84222D01*
X28805Y84205D01*
X28796Y84190D01*
X28788Y84175D01*
X28779Y84163D01*
X28770Y84151D01*
X28761Y84141D01*
X28753Y84132D01*
X28746Y84125D01*
X28740Y84120D01*
X28735Y84115D01*
X28732Y84113D01*
X28731Y84112D01*
X28748Y84098D01*
X28763Y84084D01*
X28775Y84068D01*
X28786Y84052D01*
X28795Y84036D01*
X28803Y84020D01*
X28810Y84005D01*
X28815Y83990D01*
X28818Y83976D01*
X28821Y83963D01*
X28823Y83952D01*
X28825Y83942D01*
X28825Y83934D01*
X28826Y83927D01*
Y83924D01*
Y83922D01*
Y83828D01*
X28825Y83810D01*
X28823Y83793D01*
X28820Y83776D01*
X28815Y83761D01*
X28810Y83746D01*
X28805Y83732D01*
X28798Y83719D01*
X28791Y83707D01*
X28785Y83697D01*
X28779Y83688D01*
X28773Y83680D01*
X28768Y83673D01*
X28764Y83667D01*
X28760Y83664D01*
X28758Y83661D01*
X28757Y83661D01*
X28744Y83648D01*
X28730Y83638D01*
X28716Y83629D01*
X28702Y83621D01*
X28688Y83614D01*
X28674Y83608D01*
X28660Y83604D01*
X28647Y83600D01*
X28635Y83597D01*
X28625Y83595D01*
X28615Y83594D01*
X28606Y83592D01*
X28599D01*
X28594Y83591D01*
X28590D01*
X28571Y83592D01*
X28555Y83595D01*
X28538Y83598D01*
X28522Y83602D01*
X28508Y83607D01*
X28494Y83613D01*
X28481Y83620D01*
X28470Y83626D01*
X28460Y83632D01*
X28450Y83639D01*
X28442Y83645D01*
X28435Y83650D01*
X28430Y83654D01*
X28426Y83657D01*
X28424Y83660D01*
X28423Y83661D01*
X28411Y83674D01*
X28400Y83687D01*
X28391Y83701D01*
X28382Y83716D01*
X28376Y83730D01*
X28370Y83744D01*
X28366Y83757D01*
X28361Y83771D01*
X28359Y83782D01*
X28356Y83793D01*
X28356Y83803D01*
X28354Y83811D01*
Y83819D01*
X28353Y83824D01*
Y83827D01*
Y83828D01*
Y83850D01*
Y83869D01*
X28354Y83886D01*
X28355Y83903D01*
Y83917D01*
X28356Y83930D01*
X28356Y83941D01*
X28357Y83951D01*
X28358Y83960D01*
X28359Y83966D01*
X28360Y83972D01*
Y83977D01*
X28361Y83980D01*
X28361Y83983D01*
Y83984D01*
Y83985D01*
X28366Y83999D01*
X28371Y84012D01*
X28382Y84036D01*
X28397Y84058D01*
X28404Y84068D01*
X28411Y84077D01*
X28419Y84085D01*
X28426Y84092D01*
X28431Y84098D01*
X28437Y84103D01*
X28441Y84107D01*
X28445Y84110D01*
X28447Y84111D01*
X28448Y84112D01*
X28431Y84126D01*
X28416Y84140D01*
X28404Y84156D01*
X28393Y84172D01*
X28384Y84188D01*
X28376Y84204D01*
X28370Y84219D01*
X28365Y84234D01*
X28361Y84247D01*
X28358Y84260D01*
X28356Y84272D01*
X28355Y84282D01*
X28354Y84290D01*
X28353Y84296D01*
Y84300D01*
Y84301D01*
X28354Y84320D01*
X28356Y84337D01*
X28360Y84353D01*
X28364Y84369D01*
X28369Y84384D01*
X28376Y84397D01*
X28381Y84410D01*
X28388Y84422D01*
X28395Y84432D01*
X28401Y84442D01*
X28406Y84450D01*
X28412Y84456D01*
X28416Y84462D01*
X28420Y84465D01*
X28422Y84468D01*
X28423Y84469D01*
X28436Y84481D01*
X28450Y84492D01*
X28464Y84501D01*
X28478Y84509D01*
X28492Y84516D01*
X28506Y84522D01*
X28520Y84526D01*
X28532Y84530D01*
X28544Y84533D01*
X28555Y84535D01*
X28565Y84536D01*
X28573Y84538D01*
X28580D01*
X28585Y84539D01*
X28590D01*
X28608Y84538D01*
D02*
G37*
G36*
X27239D02*
X27256Y84535D01*
X27272Y84532D01*
X27288Y84528D01*
X27303Y84523D01*
X27317Y84516D01*
X27330Y84510D01*
X27342Y84504D01*
X27352Y84497D01*
X27361Y84491D01*
X27369Y84485D01*
X27376Y84480D01*
X27382Y84475D01*
X27385Y84472D01*
X27387Y84470D01*
X27388Y84469D01*
X27401Y84455D01*
X27411Y84442D01*
X27420Y84428D01*
X27428Y84414D01*
X27435Y84400D01*
X27441Y84385D01*
X27445Y84372D01*
X27449Y84359D01*
X27452Y84347D01*
X27454Y84336D01*
X27455Y84326D01*
X27457Y84318D01*
Y84310D01*
X27457Y84305D01*
Y84302D01*
Y84301D01*
Y83828D01*
X27457Y83810D01*
X27454Y83793D01*
X27451Y83776D01*
X27447Y83761D01*
X27442Y83746D01*
X27436Y83732D01*
X27429Y83719D01*
X27422Y83707D01*
X27417Y83697D01*
X27410Y83688D01*
X27404Y83680D01*
X27399Y83673D01*
X27395Y83667D01*
X27392Y83664D01*
X27389Y83661D01*
X27388Y83661D01*
X27375Y83648D01*
X27362Y83638D01*
X27347Y83629D01*
X27333Y83621D01*
X27319Y83614D01*
X27305Y83608D01*
X27292Y83604D01*
X27278Y83600D01*
X27267Y83597D01*
X27256Y83595D01*
X27246Y83594D01*
X27237Y83592D01*
X27230D01*
X27225Y83591D01*
X27032D01*
X27023Y83592D01*
X27016Y83593D01*
X27010Y83596D01*
X27004Y83599D01*
X26999Y83602D01*
X26996Y83606D01*
X26990Y83616D01*
X26987Y83624D01*
X26985Y83631D01*
X26984Y83635D01*
Y83637D01*
Y83638D01*
Y83639D01*
X26985Y83647D01*
X26986Y83655D01*
X26988Y83661D01*
X26992Y83666D01*
X26995Y83671D01*
X26999Y83675D01*
X27008Y83681D01*
X27017Y83684D01*
X27024Y83686D01*
X27028Y83686D01*
X27221D01*
X27232Y83687D01*
X27242Y83688D01*
X27262Y83693D01*
X27278Y83700D01*
X27293Y83707D01*
X27305Y83715D01*
X27310Y83718D01*
X27314Y83721D01*
X27317Y83724D01*
X27320Y83726D01*
X27321Y83726D01*
X27322Y83727D01*
X27329Y83736D01*
X27335Y83744D01*
X27341Y83752D01*
X27345Y83761D01*
X27352Y83777D01*
X27357Y83793D01*
X27360Y83807D01*
X27361Y83813D01*
X27362Y83818D01*
X27362Y83822D01*
Y83826D01*
Y83827D01*
Y83828D01*
Y84301D01*
X27362Y84312D01*
X27361Y84323D01*
X27356Y84342D01*
X27349Y84360D01*
X27342Y84374D01*
X27334Y84385D01*
X27331Y84390D01*
X27328Y84395D01*
X27325Y84398D01*
X27323Y84400D01*
X27322Y84401D01*
X27322Y84402D01*
X27313Y84410D01*
X27305Y84416D01*
X27297Y84421D01*
X27288Y84426D01*
X27272Y84434D01*
X27256Y84439D01*
X27242Y84441D01*
X27236Y84443D01*
X27231D01*
X27227Y84444D01*
X27032D01*
X27023Y84445D01*
X27016Y84445D01*
X27010Y84448D01*
X27004Y84451D01*
X26999Y84455D01*
X26996Y84459D01*
X26990Y84468D01*
X26987Y84476D01*
X26985Y84484D01*
X26984Y84487D01*
Y84490D01*
Y84490D01*
Y84491D01*
X26985Y84499D01*
X26986Y84507D01*
X26988Y84513D01*
X26992Y84519D01*
X26995Y84524D01*
X26999Y84527D01*
X27008Y84533D01*
X27017Y84536D01*
X27024Y84538D01*
X27028Y84539D01*
X27221D01*
X27239Y84538D01*
D02*
G37*
G36*
X26756D02*
X26763Y84537D01*
X26769Y84534D01*
X26774Y84531D01*
X26783Y84524D01*
X26788Y84515D01*
X26792Y84506D01*
X26793Y84499D01*
X26794Y84495D01*
Y84493D01*
Y84492D01*
Y84491D01*
Y84111D01*
X26793Y84103D01*
X26793Y84096D01*
X26790Y84090D01*
X26787Y84085D01*
X26779Y84076D01*
X26771Y84070D01*
X26763Y84067D01*
X26755Y84065D01*
X26749Y84065D01*
X26558D01*
X26548Y84064D01*
X26537Y84063D01*
X26518Y84058D01*
X26500Y84051D01*
X26486Y84044D01*
X26474Y84036D01*
X26469Y84033D01*
X26465Y84030D01*
X26462Y84027D01*
X26459Y84025D01*
X26458Y84024D01*
X26458Y84023D01*
X26450Y84015D01*
X26443Y84006D01*
X26438Y83998D01*
X26434Y83990D01*
X26426Y83973D01*
X26421Y83957D01*
X26419Y83943D01*
X26417Y83937D01*
Y83932D01*
X26416Y83928D01*
Y83925D01*
Y83923D01*
Y83922D01*
Y83828D01*
X26417Y83817D01*
X26418Y83806D01*
X26423Y83787D01*
X26429Y83770D01*
X26437Y83756D01*
X26444Y83743D01*
X26451Y83735D01*
X26453Y83731D01*
X26456Y83729D01*
X26457Y83728D01*
X26458Y83727D01*
X26465Y83720D01*
X26473Y83714D01*
X26482Y83708D01*
X26491Y83704D01*
X26508Y83696D01*
X26523Y83691D01*
X26538Y83689D01*
X26543Y83688D01*
X26548Y83687D01*
X26553Y83686D01*
X26748D01*
X26756Y83686D01*
X26763Y83685D01*
X26769Y83682D01*
X26774Y83679D01*
X26783Y83671D01*
X26788Y83663D01*
X26792Y83654D01*
X26793Y83646D01*
X26794Y83643D01*
Y83641D01*
Y83640D01*
Y83639D01*
X26793Y83631D01*
X26793Y83623D01*
X26790Y83617D01*
X26787Y83611D01*
X26783Y83607D01*
X26779Y83603D01*
X26771Y83597D01*
X26763Y83594D01*
X26755Y83592D01*
X26749Y83591D01*
X26558D01*
X26539Y83592D01*
X26523Y83595D01*
X26506Y83598D01*
X26490Y83602D01*
X26476Y83607D01*
X26462Y83613D01*
X26449Y83620D01*
X26438Y83626D01*
X26428Y83632D01*
X26418Y83639D01*
X26410Y83645D01*
X26403Y83650D01*
X26398Y83654D01*
X26394Y83657D01*
X26392Y83660D01*
X26391Y83661D01*
X26379Y83674D01*
X26368Y83687D01*
X26359Y83701D01*
X26350Y83716D01*
X26344Y83730D01*
X26338Y83744D01*
X26334Y83757D01*
X26329Y83771D01*
X26327Y83782D01*
X26324Y83793D01*
X26324Y83803D01*
X26322Y83811D01*
Y83819D01*
X26321Y83824D01*
Y83827D01*
Y83828D01*
Y83922D01*
X26322Y83940D01*
X26324Y83957D01*
X26328Y83974D01*
X26332Y83990D01*
X26337Y84004D01*
X26343Y84018D01*
X26349Y84030D01*
X26355Y84042D01*
X26362Y84053D01*
X26369Y84062D01*
X26374Y84070D01*
X26379Y84077D01*
X26384Y84083D01*
X26387Y84086D01*
X26389Y84089D01*
X26390Y84090D01*
X26403Y84102D01*
X26417Y84113D01*
X26431Y84122D01*
X26445Y84130D01*
X26459Y84137D01*
X26473Y84143D01*
X26487Y84147D01*
X26500Y84151D01*
X26512Y84154D01*
X26523Y84156D01*
X26533Y84157D01*
X26541Y84159D01*
X26548D01*
X26553Y84160D01*
X26699D01*
Y84444D01*
X26416D01*
X26408Y84445D01*
X26400Y84445D01*
X26394Y84448D01*
X26389Y84451D01*
X26381Y84459D01*
X26375Y84468D01*
X26372Y84476D01*
X26370Y84484D01*
X26369Y84487D01*
Y84490D01*
Y84490D01*
Y84491D01*
X26370Y84499D01*
X26371Y84507D01*
X26374Y84513D01*
X26377Y84519D01*
X26380Y84524D01*
X26384Y84527D01*
X26393Y84533D01*
X26401Y84536D01*
X26409Y84538D01*
X26414Y84539D01*
X26748D01*
X26756Y84538D01*
D02*
G37*
G36*
X24711Y37294D02*
X24718Y37291D01*
X24724Y37289D01*
X24730Y37285D01*
X24735Y37281D01*
X24738Y37279D01*
X24741Y37276D01*
X24742Y37276D01*
X24928Y37091D01*
X24932Y37086D01*
X24935Y37080D01*
X24938Y37074D01*
X24939Y37069D01*
X24940Y37064D01*
X24941Y37061D01*
Y37058D01*
Y37057D01*
X24940Y37049D01*
X24939Y37041D01*
X24937Y37036D01*
X24933Y37030D01*
X24930Y37026D01*
X24926Y37021D01*
X24917Y37016D01*
X24908Y37012D01*
X24901Y37011D01*
X24898Y37010D01*
X24893D01*
X24887Y37011D01*
X24880Y37012D01*
X24874Y37014D01*
X24869Y37017D01*
X24866Y37020D01*
X24863Y37021D01*
X24861Y37023D01*
X24860Y37024D01*
X24751Y37133D01*
Y36394D01*
X24750Y36386D01*
X24749Y36379D01*
X24747Y36372D01*
X24743Y36367D01*
X24736Y36359D01*
X24727Y36353D01*
X24718Y36350D01*
X24711Y36348D01*
X24708Y36347D01*
X24703D01*
X24695Y36348D01*
X24688Y36349D01*
X24682Y36352D01*
X24676Y36355D01*
X24671Y36358D01*
X24668Y36362D01*
X24662Y36371D01*
X24658Y36379D01*
X24657Y36387D01*
X24656Y36392D01*
Y36393D01*
Y36394D01*
Y37247D01*
X24657Y37256D01*
X24658Y37263D01*
X24660Y37269D01*
X24663Y37275D01*
X24667Y37280D01*
X24671Y37283D01*
X24679Y37289D01*
X24688Y37292D01*
X24696Y37294D01*
X24699Y37295D01*
X24703D01*
X24711Y37294D01*
D02*
G37*
G36*
X25385D02*
X25402Y37291D01*
X25418Y37288D01*
X25434Y37284D01*
X25449Y37279D01*
X25462Y37272D01*
X25476Y37266D01*
X25487Y37260D01*
X25497Y37253D01*
X25507Y37247D01*
X25515Y37241D01*
X25522Y37236D01*
X25527Y37231D01*
X25531Y37228D01*
X25533Y37226D01*
X25534Y37225D01*
X25547Y37211D01*
X25557Y37198D01*
X25566Y37184D01*
X25574Y37170D01*
X25581Y37156D01*
X25587Y37141D01*
X25591Y37128D01*
X25595Y37115D01*
X25597Y37103D01*
X25600Y37092D01*
X25601Y37082D01*
X25602Y37074D01*
Y37066D01*
X25603Y37061D01*
Y37058D01*
Y37057D01*
Y36584D01*
X25602Y36566D01*
X25600Y36549D01*
X25597Y36532D01*
X25592Y36517D01*
X25587Y36502D01*
X25582Y36488D01*
X25575Y36475D01*
X25568Y36463D01*
X25562Y36453D01*
X25556Y36444D01*
X25550Y36436D01*
X25545Y36429D01*
X25541Y36423D01*
X25537Y36420D01*
X25535Y36417D01*
X25534Y36417D01*
X25521Y36404D01*
X25507Y36394D01*
X25493Y36385D01*
X25479Y36377D01*
X25465Y36370D01*
X25451Y36364D01*
X25437Y36360D01*
X25424Y36356D01*
X25412Y36353D01*
X25402Y36351D01*
X25392Y36350D01*
X25383Y36348D01*
X25376D01*
X25371Y36347D01*
X25177D01*
X25169Y36348D01*
X25162Y36349D01*
X25156Y36352D01*
X25150Y36355D01*
X25145Y36358D01*
X25142Y36362D01*
X25136Y36372D01*
X25132Y36380D01*
X25131Y36387D01*
X25130Y36391D01*
Y36393D01*
Y36394D01*
Y36395D01*
X25131Y36403D01*
X25132Y36411D01*
X25134Y36417D01*
X25137Y36422D01*
X25141Y36427D01*
X25145Y36431D01*
X25153Y36437D01*
X25162Y36440D01*
X25170Y36442D01*
X25173Y36442D01*
X25367D01*
X25377Y36443D01*
X25388Y36444D01*
X25407Y36449D01*
X25424Y36456D01*
X25439Y36463D01*
X25451Y36471D01*
X25456Y36474D01*
X25460Y36477D01*
X25463Y36480D01*
X25466Y36482D01*
X25467Y36482D01*
X25467Y36483D01*
X25475Y36492D01*
X25481Y36500D01*
X25487Y36508D01*
X25491Y36517D01*
X25498Y36533D01*
X25503Y36549D01*
X25506Y36563D01*
X25507Y36569D01*
X25507Y36574D01*
X25508Y36578D01*
Y36582D01*
Y36583D01*
Y36584D01*
Y37057D01*
X25507Y37068D01*
X25507Y37079D01*
X25502Y37098D01*
X25495Y37116D01*
X25487Y37130D01*
X25480Y37141D01*
X25477Y37146D01*
X25474Y37151D01*
X25471Y37154D01*
X25469Y37156D01*
X25468Y37157D01*
X25467Y37158D01*
X25459Y37166D01*
X25451Y37172D01*
X25442Y37177D01*
X25434Y37182D01*
X25417Y37190D01*
X25402Y37195D01*
X25387Y37197D01*
X25382Y37199D01*
X25377D01*
X25372Y37200D01*
X25177D01*
X25169Y37201D01*
X25162Y37201D01*
X25156Y37204D01*
X25150Y37207D01*
X25145Y37211D01*
X25142Y37215D01*
X25136Y37224D01*
X25132Y37232D01*
X25131Y37240D01*
X25130Y37243D01*
Y37245D01*
Y37246D01*
Y37247D01*
X25131Y37256D01*
X25132Y37263D01*
X25134Y37269D01*
X25137Y37275D01*
X25141Y37280D01*
X25145Y37283D01*
X25153Y37289D01*
X25162Y37292D01*
X25170Y37294D01*
X25173Y37295D01*
X25367D01*
X25385Y37294D01*
D02*
G37*
G36*
X24249D02*
X24265Y37291D01*
X24282Y37288D01*
X24298Y37284D01*
X24313Y37279D01*
X24326Y37272D01*
X24339Y37266D01*
X24351Y37260D01*
X24361Y37253D01*
X24370Y37247D01*
X24379Y37241D01*
X24385Y37236D01*
X24391Y37231D01*
X24394Y37228D01*
X24397Y37226D01*
X24398Y37225D01*
X24410Y37211D01*
X24420Y37198D01*
X24429Y37184D01*
X24438Y37170D01*
X24444Y37156D01*
X24450Y37141D01*
X24454Y37128D01*
X24458Y37115D01*
X24461Y37103D01*
X24463Y37092D01*
X24464Y37082D01*
X24466Y37074D01*
Y37066D01*
X24467Y37061D01*
Y37058D01*
Y37057D01*
Y36963D01*
X24466Y36945D01*
X24463Y36928D01*
X24460Y36911D01*
X24456Y36896D01*
X24451Y36881D01*
X24445Y36867D01*
X24438Y36854D01*
X24432Y36842D01*
X24426Y36832D01*
X24419Y36823D01*
X24413Y36815D01*
X24409Y36808D01*
X24404Y36802D01*
X24401Y36799D01*
X24399Y36796D01*
X24398Y36796D01*
X24384Y36783D01*
X24371Y36773D01*
X24357Y36764D01*
X24343Y36756D01*
X24329Y36749D01*
X24314Y36743D01*
X24301Y36739D01*
X24289Y36735D01*
X24277Y36732D01*
X24265Y36730D01*
X24256Y36729D01*
X24248Y36727D01*
X24240D01*
X24235Y36726D01*
X24092D01*
X24097Y36698D01*
X24104Y36672D01*
X24114Y36646D01*
X24126Y36623D01*
X24139Y36601D01*
X24154Y36580D01*
X24169Y36561D01*
X24184Y36543D01*
X24199Y36528D01*
X24214Y36514D01*
X24227Y36502D01*
X24239Y36492D01*
X24249Y36485D01*
X24256Y36480D01*
X24261Y36476D01*
X24262Y36475D01*
X24263D01*
X24276Y36467D01*
X24290Y36459D01*
X24305Y36452D01*
X24319Y36447D01*
X24330Y36442D01*
X24340Y36439D01*
X24344Y36437D01*
X24346Y36437D01*
X24348Y36436D01*
X24349D01*
X24356Y36432D01*
X24362Y36426D01*
X24366Y36419D01*
X24369Y36412D01*
X24370Y36405D01*
X24372Y36399D01*
Y36396D01*
Y36394D01*
X24371Y36387D01*
X24369Y36382D01*
X24368Y36376D01*
X24364Y36371D01*
X24362Y36367D01*
X24360Y36364D01*
X24359Y36362D01*
X24358Y36362D01*
X24352Y36357D01*
X24347Y36353D01*
X24341Y36351D01*
X24336Y36349D01*
X24332Y36348D01*
X24329Y36347D01*
X24325D01*
X24319Y36348D01*
X24310Y36349D01*
X24294Y36354D01*
X24276Y36362D01*
X24259Y36370D01*
X24243Y36378D01*
X24236Y36382D01*
X24230Y36386D01*
X24225Y36388D01*
X24222Y36391D01*
X24219Y36392D01*
X24219Y36392D01*
X24198Y36406D01*
X24179Y36420D01*
X24161Y36434D01*
X24144Y36449D01*
X24129Y36464D01*
X24114Y36480D01*
X24101Y36495D01*
X24089Y36511D01*
X24077Y36527D01*
X24067Y36542D01*
X24057Y36559D01*
X24049Y36574D01*
X24034Y36606D01*
X24022Y36636D01*
X24013Y36663D01*
X24005Y36690D01*
X24000Y36713D01*
X23999Y36724D01*
X23997Y36733D01*
X23996Y36742D01*
X23995Y36750D01*
X23994Y36756D01*
X23994Y36762D01*
Y36767D01*
Y36771D01*
Y36772D01*
Y36773D01*
Y37059D01*
X23994Y37077D01*
X23997Y37095D01*
X24000Y37111D01*
X24004Y37126D01*
X24009Y37141D01*
X24015Y37155D01*
X24022Y37167D01*
X24028Y37179D01*
X24034Y37190D01*
X24041Y37199D01*
X24047Y37206D01*
X24052Y37213D01*
X24056Y37219D01*
X24059Y37222D01*
X24062Y37225D01*
X24063Y37226D01*
X24076Y37238D01*
X24089Y37248D01*
X24104Y37258D01*
X24118Y37265D01*
X24132Y37272D01*
X24146Y37278D01*
X24159Y37282D01*
X24173Y37286D01*
X24184Y37289D01*
X24195Y37291D01*
X24205Y37292D01*
X24214Y37294D01*
X24221D01*
X24226Y37295D01*
X24230D01*
X24249Y37294D01*
D02*
G37*
G36*
X22050Y46437D02*
X22060Y46433D01*
X22067Y46428D01*
X22074Y46421D01*
X22078Y46415D01*
X22081Y46410D01*
X22082Y46405D01*
X22083Y46404D01*
X22273Y45741D01*
X22274Y45736D01*
Y45732D01*
Y45729D01*
Y45727D01*
X22273Y45719D01*
X22272Y45712D01*
X22270Y45706D01*
X22266Y45701D01*
X22259Y45692D01*
X22251Y45686D01*
X22242Y45683D01*
X22235Y45681D01*
X22229Y45681D01*
X21942D01*
Y45538D01*
X21941Y45530D01*
X21941Y45523D01*
X21938Y45516D01*
X21935Y45511D01*
X21927Y45503D01*
X21918Y45497D01*
X21910Y45494D01*
X21902Y45492D01*
X21899Y45491D01*
X21895D01*
X21886Y45492D01*
X21879Y45493D01*
X21873Y45496D01*
X21867Y45499D01*
X21862Y45502D01*
X21859Y45506D01*
X21853Y45515D01*
X21850Y45523D01*
X21848Y45531D01*
X21847Y45536D01*
Y45537D01*
Y45538D01*
Y45681D01*
X21753D01*
X21745Y45681D01*
X21737Y45682D01*
X21732Y45685D01*
X21726Y45688D01*
X21721Y45691D01*
X21717Y45696D01*
X21712Y45705D01*
X21708Y45713D01*
X21707Y45721D01*
X21706Y45724D01*
Y45726D01*
Y45727D01*
Y45728D01*
X21707Y45736D01*
X21707Y45744D01*
X21710Y45750D01*
X21713Y45756D01*
X21717Y45761D01*
X21721Y45764D01*
X21729Y45770D01*
X21738Y45773D01*
X21746Y45775D01*
X21749Y45775D01*
X21847D01*
Y45917D01*
X21848Y45925D01*
X21849Y45933D01*
X21851Y45939D01*
X21855Y45945D01*
X21858Y45950D01*
X21862Y45953D01*
X21871Y45959D01*
X21880Y45962D01*
X21887Y45964D01*
X21891Y45965D01*
X21895D01*
X21903Y45964D01*
X21911Y45963D01*
X21916Y45960D01*
X21922Y45957D01*
X21926Y45954D01*
X21931Y45950D01*
X21936Y45941D01*
X21940Y45932D01*
X21941Y45925D01*
X21942Y45921D01*
Y45919D01*
Y45918D01*
Y45917D01*
Y45775D01*
X22165D01*
X21992Y46377D01*
X21991Y46382D01*
X21990Y46387D01*
Y46390D01*
Y46391D01*
X21991Y46400D01*
X21991Y46407D01*
X21994Y46413D01*
X21997Y46419D01*
X22001Y46424D01*
X22005Y46427D01*
X22013Y46433D01*
X22022Y46436D01*
X22030Y46438D01*
X22033Y46439D01*
X22037D01*
X22050Y46437D01*
D02*
G37*
G36*
X22718Y46438D02*
X22735Y46435D01*
X22751Y46432D01*
X22767Y46428D01*
X22782Y46423D01*
X22795Y46416D01*
X22809Y46410D01*
X22820Y46404D01*
X22830Y46397D01*
X22840Y46391D01*
X22848Y46385D01*
X22855Y46380D01*
X22860Y46375D01*
X22864Y46372D01*
X22866Y46370D01*
X22867Y46369D01*
X22880Y46355D01*
X22890Y46342D01*
X22899Y46328D01*
X22907Y46314D01*
X22914Y46300D01*
X22920Y46285D01*
X22924Y46272D01*
X22928Y46259D01*
X22930Y46247D01*
X22933Y46236D01*
X22934Y46226D01*
X22935Y46218D01*
Y46210D01*
X22936Y46205D01*
Y46202D01*
Y46201D01*
Y45728D01*
X22935Y45710D01*
X22933Y45693D01*
X22930Y45676D01*
X22925Y45661D01*
X22920Y45646D01*
X22915Y45632D01*
X22908Y45619D01*
X22901Y45607D01*
X22895Y45597D01*
X22889Y45588D01*
X22883Y45580D01*
X22878Y45573D01*
X22874Y45567D01*
X22870Y45564D01*
X22868Y45561D01*
X22867Y45561D01*
X22854Y45548D01*
X22840Y45538D01*
X22826Y45529D01*
X22812Y45521D01*
X22798Y45514D01*
X22784Y45508D01*
X22770Y45504D01*
X22757Y45500D01*
X22745Y45497D01*
X22735Y45495D01*
X22725Y45494D01*
X22716Y45492D01*
X22709D01*
X22704Y45491D01*
X22510D01*
X22502Y45492D01*
X22495Y45493D01*
X22489Y45496D01*
X22483Y45499D01*
X22478Y45502D01*
X22475Y45506D01*
X22469Y45516D01*
X22465Y45524D01*
X22464Y45531D01*
X22463Y45535D01*
Y45537D01*
Y45538D01*
Y45539D01*
X22464Y45547D01*
X22465Y45555D01*
X22467Y45561D01*
X22470Y45566D01*
X22474Y45571D01*
X22478Y45575D01*
X22486Y45581D01*
X22495Y45584D01*
X22503Y45586D01*
X22506Y45586D01*
X22700D01*
X22710Y45587D01*
X22721Y45588D01*
X22740Y45593D01*
X22757Y45600D01*
X22772Y45607D01*
X22784Y45615D01*
X22789Y45618D01*
X22793Y45621D01*
X22796Y45624D01*
X22799Y45626D01*
X22800Y45626D01*
X22800Y45627D01*
X22808Y45636D01*
X22814Y45644D01*
X22820Y45652D01*
X22824Y45661D01*
X22831Y45677D01*
X22836Y45693D01*
X22839Y45707D01*
X22840Y45713D01*
X22840Y45718D01*
X22841Y45722D01*
Y45726D01*
Y45727D01*
Y45728D01*
Y46201D01*
X22840Y46212D01*
X22840Y46223D01*
X22835Y46242D01*
X22828Y46260D01*
X22820Y46274D01*
X22813Y46285D01*
X22810Y46290D01*
X22807Y46295D01*
X22804Y46298D01*
X22802Y46300D01*
X22801Y46301D01*
X22800Y46302D01*
X22792Y46310D01*
X22784Y46316D01*
X22775Y46321D01*
X22767Y46326D01*
X22750Y46334D01*
X22735Y46339D01*
X22720Y46341D01*
X22715Y46343D01*
X22710D01*
X22705Y46344D01*
X22510D01*
X22502Y46345D01*
X22495Y46345D01*
X22489Y46348D01*
X22483Y46351D01*
X22478Y46355D01*
X22475Y46359D01*
X22469Y46368D01*
X22465Y46376D01*
X22464Y46384D01*
X22463Y46387D01*
Y46389D01*
Y46390D01*
Y46391D01*
X22464Y46400D01*
X22465Y46407D01*
X22467Y46413D01*
X22470Y46419D01*
X22474Y46424D01*
X22478Y46427D01*
X22486Y46433D01*
X22495Y46436D01*
X22503Y46438D01*
X22506Y46439D01*
X22700D01*
X22718Y46438D01*
D02*
G37*
G36*
X24244Y35262D02*
X24258Y35261D01*
X24270Y35258D01*
X24283Y35255D01*
X24306Y35247D01*
X24329Y35236D01*
X24349Y35223D01*
X24368Y35208D01*
X24385Y35194D01*
X24401Y35178D01*
X24415Y35161D01*
X24428Y35146D01*
X24438Y35132D01*
X24448Y35119D01*
X24454Y35108D01*
X24459Y35099D01*
X24461Y35096D01*
X24463Y35094D01*
X24463Y35093D01*
Y35092D01*
X24466Y35085D01*
X24467Y35079D01*
X24468Y35074D01*
Y35074D01*
Y35073D01*
X24467Y35064D01*
X24466Y35057D01*
X24463Y35051D01*
X24460Y35045D01*
X24457Y35041D01*
X24453Y35037D01*
X24444Y35031D01*
X24435Y35028D01*
X24428Y35026D01*
X24424Y35025D01*
X24420D01*
X24410Y35026D01*
X24402Y35029D01*
X24395Y35033D01*
X24389Y35037D01*
X24385Y35041D01*
X24382Y35045D01*
X24380Y35048D01*
X24379Y35049D01*
X24366Y35069D01*
X24354Y35088D01*
X24340Y35104D01*
X24328Y35118D01*
X24314Y35129D01*
X24303Y35139D01*
X24291Y35147D01*
X24279Y35153D01*
X24269Y35158D01*
X24260Y35161D01*
X24252Y35164D01*
X24244Y35166D01*
X24239Y35167D01*
X24234Y35168D01*
X24231D01*
X24220Y35167D01*
X24209Y35166D01*
X24190Y35161D01*
X24173Y35154D01*
X24159Y35147D01*
X24147Y35139D01*
X24142Y35136D01*
X24138Y35133D01*
X24134Y35130D01*
X24132Y35128D01*
X24131Y35127D01*
X24130Y35126D01*
X24123Y35118D01*
X24116Y35109D01*
X24111Y35101D01*
X24106Y35093D01*
X24099Y35076D01*
X24094Y35060D01*
X24091Y35046D01*
X24089Y35040D01*
Y35035D01*
X24089Y35031D01*
Y35028D01*
Y35026D01*
Y35025D01*
X24089Y35010D01*
X24092Y34996D01*
X24096Y34983D01*
X24100Y34971D01*
X24104Y34961D01*
X24109Y34954D01*
X24111Y34949D01*
X24112Y34948D01*
Y34947D01*
X24459Y34390D01*
X24464Y34380D01*
X24467Y34371D01*
Y34368D01*
X24468Y34365D01*
Y34363D01*
Y34362D01*
X24467Y34354D01*
X24466Y34347D01*
X24463Y34340D01*
X24460Y34335D01*
X24453Y34327D01*
X24444Y34321D01*
X24435Y34318D01*
X24428Y34316D01*
X24424Y34315D01*
X24041D01*
X24033Y34316D01*
X24025Y34317D01*
X24019Y34320D01*
X24014Y34323D01*
X24009Y34326D01*
X24005Y34330D01*
X23999Y34340D01*
X23996Y34348D01*
X23994Y34355D01*
X23994Y34359D01*
Y34361D01*
Y34362D01*
Y34363D01*
X23994Y34371D01*
X23995Y34379D01*
X23998Y34385D01*
X24001Y34390D01*
X24004Y34395D01*
X24009Y34399D01*
X24017Y34405D01*
X24026Y34408D01*
X24034Y34410D01*
X24037Y34410D01*
X24335D01*
X24037Y34889D01*
X24029Y34902D01*
X24023Y34915D01*
X24017Y34928D01*
X24012Y34939D01*
X24004Y34963D01*
X23999Y34983D01*
X23997Y34992D01*
X23996Y35000D01*
X23995Y35008D01*
X23994Y35014D01*
X23994Y35019D01*
Y35022D01*
Y35024D01*
Y35025D01*
X23994Y35044D01*
X23997Y35061D01*
X24000Y35077D01*
X24004Y35093D01*
X24009Y35108D01*
X24016Y35121D01*
X24022Y35134D01*
X24029Y35146D01*
X24035Y35156D01*
X24041Y35166D01*
X24047Y35174D01*
X24053Y35180D01*
X24057Y35186D01*
X24060Y35189D01*
X24063Y35192D01*
X24064Y35193D01*
X24077Y35205D01*
X24090Y35216D01*
X24104Y35225D01*
X24119Y35234D01*
X24133Y35240D01*
X24147Y35246D01*
X24160Y35250D01*
X24174Y35254D01*
X24185Y35257D01*
X24196Y35259D01*
X24206Y35260D01*
X24214Y35262D01*
X24222D01*
X24227Y35263D01*
X24231D01*
X24244Y35262D01*
D02*
G37*
G36*
X24711D02*
X24718Y35259D01*
X24724Y35257D01*
X24730Y35253D01*
X24735Y35249D01*
X24738Y35247D01*
X24741Y35244D01*
X24742Y35243D01*
X24928Y35059D01*
X24932Y35054D01*
X24935Y35048D01*
X24938Y35042D01*
X24939Y35037D01*
X24940Y35032D01*
X24941Y35029D01*
Y35026D01*
Y35025D01*
X24940Y35017D01*
X24939Y35009D01*
X24937Y35004D01*
X24933Y34998D01*
X24930Y34994D01*
X24926Y34989D01*
X24917Y34984D01*
X24908Y34980D01*
X24901Y34979D01*
X24898Y34978D01*
X24893D01*
X24887Y34979D01*
X24880Y34980D01*
X24874Y34982D01*
X24869Y34985D01*
X24866Y34988D01*
X24863Y34989D01*
X24861Y34991D01*
X24860Y34992D01*
X24751Y35101D01*
Y34362D01*
X24750Y34354D01*
X24749Y34347D01*
X24747Y34340D01*
X24743Y34335D01*
X24736Y34327D01*
X24727Y34321D01*
X24718Y34318D01*
X24711Y34316D01*
X24708Y34315D01*
X24703D01*
X24695Y34316D01*
X24688Y34317D01*
X24682Y34320D01*
X24676Y34323D01*
X24671Y34326D01*
X24668Y34330D01*
X24662Y34339D01*
X24658Y34347D01*
X24657Y34355D01*
X24656Y34360D01*
Y34361D01*
Y34362D01*
Y35215D01*
X24657Y35223D01*
X24658Y35231D01*
X24660Y35237D01*
X24663Y35243D01*
X24667Y35248D01*
X24671Y35251D01*
X24679Y35257D01*
X24688Y35260D01*
X24696Y35262D01*
X24699Y35263D01*
X24703D01*
X24711Y35262D01*
D02*
G37*
G36*
X25385D02*
X25402Y35259D01*
X25418Y35256D01*
X25434Y35252D01*
X25449Y35247D01*
X25462Y35240D01*
X25476Y35234D01*
X25487Y35228D01*
X25497Y35221D01*
X25507Y35215D01*
X25515Y35209D01*
X25522Y35204D01*
X25527Y35199D01*
X25531Y35196D01*
X25533Y35194D01*
X25534Y35193D01*
X25547Y35179D01*
X25557Y35166D01*
X25566Y35152D01*
X25574Y35138D01*
X25581Y35124D01*
X25587Y35109D01*
X25591Y35096D01*
X25595Y35083D01*
X25597Y35071D01*
X25600Y35060D01*
X25601Y35050D01*
X25602Y35042D01*
Y35034D01*
X25603Y35029D01*
Y35026D01*
Y35025D01*
Y34552D01*
X25602Y34534D01*
X25600Y34517D01*
X25597Y34500D01*
X25592Y34485D01*
X25587Y34470D01*
X25582Y34456D01*
X25575Y34443D01*
X25568Y34431D01*
X25562Y34421D01*
X25556Y34412D01*
X25550Y34404D01*
X25545Y34397D01*
X25541Y34391D01*
X25537Y34388D01*
X25535Y34385D01*
X25534Y34385D01*
X25521Y34372D01*
X25507Y34362D01*
X25493Y34353D01*
X25479Y34345D01*
X25465Y34338D01*
X25451Y34332D01*
X25437Y34328D01*
X25424Y34324D01*
X25412Y34321D01*
X25402Y34319D01*
X25392Y34318D01*
X25383Y34316D01*
X25376D01*
X25371Y34315D01*
X25177D01*
X25169Y34316D01*
X25162Y34317D01*
X25156Y34320D01*
X25150Y34323D01*
X25145Y34326D01*
X25142Y34330D01*
X25136Y34340D01*
X25132Y34348D01*
X25131Y34355D01*
X25130Y34359D01*
Y34361D01*
Y34362D01*
Y34363D01*
X25131Y34371D01*
X25132Y34379D01*
X25134Y34385D01*
X25137Y34390D01*
X25141Y34395D01*
X25145Y34399D01*
X25153Y34405D01*
X25162Y34408D01*
X25170Y34410D01*
X25173Y34410D01*
X25367D01*
X25377Y34411D01*
X25388Y34412D01*
X25407Y34417D01*
X25424Y34424D01*
X25439Y34431D01*
X25451Y34439D01*
X25456Y34442D01*
X25460Y34445D01*
X25463Y34448D01*
X25466Y34450D01*
X25467Y34450D01*
X25467Y34451D01*
X25475Y34460D01*
X25481Y34468D01*
X25487Y34476D01*
X25491Y34485D01*
X25498Y34501D01*
X25503Y34517D01*
X25506Y34531D01*
X25507Y34537D01*
X25507Y34542D01*
X25508Y34546D01*
Y34550D01*
Y34551D01*
Y34552D01*
Y35025D01*
X25507Y35036D01*
X25507Y35047D01*
X25502Y35066D01*
X25495Y35084D01*
X25487Y35098D01*
X25480Y35109D01*
X25477Y35114D01*
X25474Y35119D01*
X25471Y35122D01*
X25469Y35124D01*
X25468Y35125D01*
X25467Y35126D01*
X25459Y35134D01*
X25451Y35140D01*
X25442Y35145D01*
X25434Y35150D01*
X25417Y35158D01*
X25402Y35163D01*
X25387Y35165D01*
X25382Y35167D01*
X25377D01*
X25372Y35168D01*
X25177D01*
X25169Y35169D01*
X25162Y35169D01*
X25156Y35172D01*
X25150Y35175D01*
X25145Y35179D01*
X25142Y35183D01*
X25136Y35192D01*
X25132Y35200D01*
X25131Y35208D01*
X25130Y35211D01*
Y35214D01*
Y35214D01*
Y35215D01*
X25131Y35223D01*
X25132Y35231D01*
X25134Y35237D01*
X25137Y35243D01*
X25141Y35248D01*
X25145Y35251D01*
X25153Y35257D01*
X25162Y35260D01*
X25170Y35262D01*
X25173Y35263D01*
X25367D01*
X25385Y35262D01*
D02*
G37*
G36*
X22616Y48343D02*
X22633Y48340D01*
X22650Y48337D01*
X22665Y48333D01*
X22680Y48328D01*
X22694Y48321D01*
X22707Y48315D01*
X22719Y48309D01*
X22729Y48302D01*
X22738Y48296D01*
X22746Y48290D01*
X22753Y48285D01*
X22759Y48280D01*
X22762Y48277D01*
X22765Y48275D01*
X22765Y48274D01*
X22778Y48260D01*
X22788Y48247D01*
X22797Y48233D01*
X22805Y48219D01*
X22812Y48205D01*
X22818Y48190D01*
X22822Y48177D01*
X22826Y48164D01*
X22829Y48152D01*
X22831Y48141D01*
X22832Y48131D01*
X22834Y48123D01*
Y48115D01*
X22835Y48110D01*
Y48107D01*
Y48106D01*
Y47633D01*
X22834Y47615D01*
X22831Y47598D01*
X22828Y47581D01*
X22824Y47566D01*
X22819Y47551D01*
X22813Y47537D01*
X22806Y47524D01*
X22800Y47512D01*
X22794Y47502D01*
X22787Y47493D01*
X22781Y47485D01*
X22776Y47478D01*
X22772Y47472D01*
X22769Y47469D01*
X22766Y47466D01*
X22765Y47466D01*
X22752Y47453D01*
X22739Y47443D01*
X22725Y47434D01*
X22710Y47426D01*
X22696Y47419D01*
X22682Y47413D01*
X22669Y47409D01*
X22655Y47405D01*
X22644Y47402D01*
X22633Y47400D01*
X22623Y47399D01*
X22615Y47397D01*
X22607D01*
X22602Y47396D01*
X22409D01*
X22401Y47397D01*
X22393Y47398D01*
X22387Y47401D01*
X22381Y47404D01*
X22376Y47407D01*
X22373Y47411D01*
X22367Y47421D01*
X22364Y47429D01*
X22362Y47436D01*
X22361Y47440D01*
Y47442D01*
Y47443D01*
Y47444D01*
X22362Y47452D01*
X22363Y47460D01*
X22366Y47466D01*
X22369Y47471D01*
X22372Y47476D01*
X22376Y47480D01*
X22385Y47486D01*
X22394Y47489D01*
X22401Y47491D01*
X22405Y47491D01*
X22598D01*
X22609Y47492D01*
X22620Y47493D01*
X22639Y47498D01*
X22655Y47505D01*
X22670Y47512D01*
X22682Y47520D01*
X22687Y47523D01*
X22691Y47526D01*
X22695Y47529D01*
X22697Y47531D01*
X22698Y47531D01*
X22699Y47532D01*
X22706Y47541D01*
X22712Y47549D01*
X22718Y47557D01*
X22722Y47566D01*
X22730Y47582D01*
X22735Y47598D01*
X22737Y47612D01*
X22738Y47618D01*
X22739Y47623D01*
X22740Y47627D01*
Y47631D01*
Y47632D01*
Y47633D01*
Y48106D01*
X22739Y48117D01*
X22738Y48128D01*
X22733Y48147D01*
X22726Y48165D01*
X22719Y48179D01*
X22711Y48190D01*
X22708Y48195D01*
X22705Y48200D01*
X22702Y48203D01*
X22700Y48205D01*
X22700Y48206D01*
X22699Y48207D01*
X22690Y48215D01*
X22682Y48221D01*
X22674Y48226D01*
X22665Y48231D01*
X22649Y48239D01*
X22633Y48244D01*
X22619Y48246D01*
X22613Y48248D01*
X22608D01*
X22604Y48249D01*
X22409D01*
X22401Y48250D01*
X22393Y48250D01*
X22387Y48253D01*
X22381Y48256D01*
X22376Y48260D01*
X22373Y48264D01*
X22367Y48273D01*
X22364Y48281D01*
X22362Y48289D01*
X22361Y48292D01*
Y48294D01*
Y48295D01*
Y48296D01*
X22362Y48305D01*
X22363Y48312D01*
X22366Y48318D01*
X22369Y48324D01*
X22372Y48329D01*
X22376Y48332D01*
X22385Y48338D01*
X22394Y48341D01*
X22401Y48343D01*
X22405Y48344D01*
X22598D01*
X22616Y48343D01*
D02*
G37*
G36*
X22133D02*
X22141Y48342D01*
X22146Y48339D01*
X22152Y48336D01*
X22156Y48333D01*
X22161Y48329D01*
X22166Y48320D01*
X22170Y48311D01*
X22171Y48304D01*
X22172Y48300D01*
Y48298D01*
Y48297D01*
Y48296D01*
X22171Y48288D01*
X22171Y48280D01*
X22168Y48275D01*
X22165Y48269D01*
X22161Y48265D01*
X22157Y48260D01*
X22148Y48255D01*
X22140Y48251D01*
X22132Y48250D01*
X22129Y48249D01*
X21806D01*
X21879Y47917D01*
X21936D01*
X21944Y47916D01*
X21951Y47915D01*
X21957Y47913D01*
X21962Y47910D01*
X21971Y47902D01*
X21976Y47894D01*
X21980Y47885D01*
X21981Y47877D01*
X21982Y47874D01*
Y47871D01*
Y47870D01*
Y47870D01*
X21981Y47861D01*
X21981Y47854D01*
X21978Y47848D01*
X21975Y47842D01*
X21971Y47838D01*
X21967Y47834D01*
X21959Y47828D01*
X21951Y47825D01*
X21943Y47823D01*
X21937Y47822D01*
X21900D01*
X21981Y47454D01*
X21982Y47451D01*
Y47447D01*
Y47445D01*
Y47443D01*
X21981Y47435D01*
X21981Y47428D01*
X21978Y47421D01*
X21975Y47416D01*
X21967Y47408D01*
X21958Y47402D01*
X21950Y47399D01*
X21942Y47397D01*
X21939Y47396D01*
X21935D01*
X21928Y47397D01*
X21922Y47398D01*
X21912Y47402D01*
X21905Y47408D01*
X21898Y47415D01*
X21894Y47421D01*
X21892Y47427D01*
X21890Y47431D01*
Y47433D01*
X21803Y47822D01*
X21746D01*
X21737Y47823D01*
X21730Y47824D01*
X21724Y47826D01*
X21718Y47830D01*
X21713Y47833D01*
X21710Y47837D01*
X21704Y47846D01*
X21701Y47855D01*
X21699Y47862D01*
X21698Y47865D01*
Y47868D01*
Y47869D01*
Y47870D01*
X21699Y47878D01*
X21700Y47885D01*
X21702Y47891D01*
X21706Y47897D01*
X21709Y47902D01*
X21713Y47905D01*
X21722Y47911D01*
X21731Y47915D01*
X21738Y47916D01*
X21742Y47917D01*
X21782D01*
X21700Y48286D01*
X21699Y48290D01*
X21698Y48294D01*
Y48296D01*
Y48297D01*
X21699Y48305D01*
X21701Y48313D01*
X21703Y48319D01*
X21706Y48324D01*
X21713Y48332D01*
X21722Y48338D01*
X21731Y48341D01*
X21738Y48343D01*
X21744Y48344D01*
X22125D01*
X22133Y48343D01*
D02*
G37*
G36*
X48333Y84309D02*
X48340Y84307D01*
X48346Y84304D01*
X48352Y84301D01*
X48357Y84297D01*
X48360Y84294D01*
X48363Y84292D01*
X48364Y84291D01*
X48550Y84106D01*
X48554Y84101D01*
X48557Y84095D01*
X48560Y84089D01*
X48561Y84084D01*
X48562Y84079D01*
X48563Y84076D01*
Y84073D01*
Y84073D01*
X48562Y84064D01*
X48561Y84057D01*
X48559Y84051D01*
X48555Y84045D01*
X48552Y84041D01*
X48548Y84037D01*
X48539Y84031D01*
X48530Y84028D01*
X48523Y84026D01*
X48520Y84025D01*
X48515D01*
X48509Y84026D01*
X48502Y84028D01*
X48496Y84029D01*
X48491Y84033D01*
X48488Y84035D01*
X48485Y84037D01*
X48483Y84038D01*
X48482Y84039D01*
X48373Y84148D01*
Y83409D01*
X48372Y83401D01*
X48371Y83394D01*
X48369Y83388D01*
X48365Y83383D01*
X48358Y83374D01*
X48349Y83369D01*
X48340Y83365D01*
X48333Y83364D01*
X48330Y83363D01*
X48325D01*
X48317Y83364D01*
X48310Y83364D01*
X48304Y83367D01*
X48298Y83370D01*
X48293Y83374D01*
X48290Y83378D01*
X48284Y83386D01*
X48280Y83394D01*
X48279Y83402D01*
X48278Y83408D01*
Y83409D01*
Y83409D01*
Y84263D01*
X48279Y84271D01*
X48280Y84278D01*
X48282Y84284D01*
X48285Y84290D01*
X48289Y84295D01*
X48293Y84298D01*
X48301Y84304D01*
X48310Y84308D01*
X48318Y84309D01*
X48321Y84310D01*
X48325D01*
X48333Y84309D01*
D02*
G37*
G36*
X49007D02*
X49024Y84307D01*
X49040Y84303D01*
X49056Y84299D01*
X49071Y84294D01*
X49084Y84288D01*
X49098Y84282D01*
X49109Y84275D01*
X49119Y84268D01*
X49129Y84263D01*
X49137Y84257D01*
X49144Y84251D01*
X49149Y84247D01*
X49153Y84243D01*
X49155Y84241D01*
X49156Y84240D01*
X49169Y84227D01*
X49179Y84213D01*
X49188Y84199D01*
X49196Y84185D01*
X49203Y84171D01*
X49209Y84157D01*
X49213Y84143D01*
X49217Y84130D01*
X49219Y84118D01*
X49222Y84108D01*
X49223Y84098D01*
X49224Y84089D01*
Y84082D01*
X49225Y84077D01*
Y84073D01*
Y84073D01*
Y83599D01*
X49224Y83581D01*
X49222Y83564D01*
X49219Y83548D01*
X49214Y83532D01*
X49209Y83517D01*
X49204Y83504D01*
X49197Y83490D01*
X49190Y83479D01*
X49184Y83469D01*
X49178Y83459D01*
X49172Y83451D01*
X49167Y83444D01*
X49163Y83439D01*
X49159Y83435D01*
X49157Y83433D01*
X49156Y83432D01*
X49143Y83419D01*
X49129Y83409D01*
X49115Y83400D01*
X49101Y83392D01*
X49087Y83385D01*
X49073Y83379D01*
X49059Y83375D01*
X49046Y83371D01*
X49034Y83369D01*
X49024Y83366D01*
X49014Y83365D01*
X49005Y83364D01*
X48998D01*
X48993Y83363D01*
X48799D01*
X48791Y83364D01*
X48784Y83364D01*
X48778Y83367D01*
X48772Y83370D01*
X48767Y83374D01*
X48764Y83378D01*
X48758Y83387D01*
X48754Y83395D01*
X48753Y83403D01*
X48752Y83406D01*
Y83409D01*
Y83409D01*
Y83410D01*
X48753Y83419D01*
X48754Y83426D01*
X48756Y83432D01*
X48759Y83438D01*
X48763Y83443D01*
X48767Y83446D01*
X48775Y83452D01*
X48784Y83455D01*
X48792Y83457D01*
X48795Y83458D01*
X48989D01*
X48999Y83459D01*
X49010Y83459D01*
X49029Y83464D01*
X49046Y83471D01*
X49061Y83479D01*
X49073Y83486D01*
X49078Y83489D01*
X49082Y83492D01*
X49085Y83495D01*
X49088Y83497D01*
X49089Y83498D01*
X49089Y83499D01*
X49097Y83507D01*
X49103Y83515D01*
X49109Y83524D01*
X49113Y83532D01*
X49120Y83549D01*
X49125Y83564D01*
X49128Y83579D01*
X49129Y83584D01*
X49129Y83589D01*
X49130Y83594D01*
Y83597D01*
Y83599D01*
Y83599D01*
Y84073D01*
X49129Y84083D01*
X49129Y84094D01*
X49124Y84113D01*
X49117Y84131D01*
X49109Y84145D01*
X49102Y84157D01*
X49099Y84162D01*
X49096Y84166D01*
X49093Y84169D01*
X49091Y84172D01*
X49090Y84173D01*
X49089Y84173D01*
X49081Y84181D01*
X49073Y84188D01*
X49064Y84193D01*
X49056Y84198D01*
X49039Y84205D01*
X49024Y84210D01*
X49009Y84213D01*
X49004Y84214D01*
X48999D01*
X48994Y84215D01*
X48799D01*
X48791Y84216D01*
X48784Y84217D01*
X48778Y84219D01*
X48772Y84223D01*
X48767Y84226D01*
X48764Y84230D01*
X48758Y84239D01*
X48754Y84248D01*
X48753Y84255D01*
X48752Y84258D01*
Y84261D01*
Y84262D01*
Y84263D01*
X48753Y84271D01*
X48754Y84278D01*
X48756Y84284D01*
X48759Y84290D01*
X48763Y84295D01*
X48767Y84298D01*
X48775Y84304D01*
X48784Y84308D01*
X48792Y84309D01*
X48795Y84310D01*
X48989D01*
X49007Y84309D01*
D02*
G37*
G36*
X48050D02*
X48058Y84308D01*
X48064Y84306D01*
X48070Y84303D01*
X48074Y84299D01*
X48078Y84295D01*
X48084Y84287D01*
X48087Y84278D01*
X48089Y84270D01*
X48090Y84267D01*
Y84264D01*
Y84263D01*
Y84263D01*
X48089Y84254D01*
X48088Y84247D01*
X48085Y84241D01*
X48082Y84235D01*
X48079Y84231D01*
X48075Y84227D01*
X48065Y84221D01*
X48057Y84218D01*
X48050Y84216D01*
X48046Y84215D01*
X47723D01*
X47796Y83883D01*
X47853D01*
X47861Y83883D01*
X47868Y83882D01*
X47875Y83879D01*
X47880Y83876D01*
X47888Y83868D01*
X47894Y83860D01*
X47897Y83851D01*
X47899Y83844D01*
X47900Y83840D01*
Y83838D01*
Y83837D01*
Y83836D01*
X47899Y83828D01*
X47898Y83820D01*
X47896Y83814D01*
X47892Y83809D01*
X47889Y83804D01*
X47885Y83800D01*
X47876Y83794D01*
X47868Y83791D01*
X47861Y83789D01*
X47855Y83789D01*
X47817D01*
X47899Y83420D01*
X47900Y83417D01*
Y83414D01*
Y83411D01*
Y83409D01*
X47899Y83401D01*
X47898Y83394D01*
X47896Y83388D01*
X47892Y83383D01*
X47885Y83374D01*
X47876Y83369D01*
X47867Y83365D01*
X47860Y83364D01*
X47856Y83363D01*
X47852D01*
X47846Y83364D01*
X47840Y83364D01*
X47830Y83369D01*
X47822Y83374D01*
X47816Y83381D01*
X47811Y83388D01*
X47809Y83394D01*
X47807Y83398D01*
Y83399D01*
X47721Y83789D01*
X47663D01*
X47655Y83789D01*
X47647Y83790D01*
X47641Y83793D01*
X47636Y83796D01*
X47631Y83799D01*
X47627Y83804D01*
X47621Y83813D01*
X47618Y83821D01*
X47616Y83829D01*
X47616Y83832D01*
Y83834D01*
Y83835D01*
Y83836D01*
X47616Y83844D01*
X47617Y83852D01*
X47620Y83858D01*
X47623Y83864D01*
X47626Y83868D01*
X47631Y83872D01*
X47639Y83878D01*
X47648Y83881D01*
X47656Y83883D01*
X47659Y83883D01*
X47699D01*
X47617Y84253D01*
X47616Y84257D01*
X47616Y84261D01*
Y84263D01*
Y84263D01*
X47616Y84272D01*
X47618Y84279D01*
X47621Y84285D01*
X47623Y84290D01*
X47631Y84298D01*
X47640Y84304D01*
X47648Y84308D01*
X47656Y84309D01*
X47661Y84310D01*
X48042D01*
X48050Y84309D01*
D02*
G37*
G36*
X46301Y80880D02*
X46308Y80878D01*
X46314Y80875D01*
X46320Y80872D01*
X46325Y80868D01*
X46328Y80865D01*
X46331Y80863D01*
X46332Y80862D01*
X46518Y80677D01*
X46522Y80672D01*
X46525Y80666D01*
X46528Y80660D01*
X46529Y80655D01*
X46530Y80650D01*
X46531Y80647D01*
Y80644D01*
Y80644D01*
X46530Y80635D01*
X46529Y80628D01*
X46527Y80622D01*
X46523Y80616D01*
X46520Y80612D01*
X46516Y80608D01*
X46507Y80602D01*
X46498Y80599D01*
X46491Y80597D01*
X46488Y80596D01*
X46483D01*
X46477Y80597D01*
X46470Y80599D01*
X46464Y80600D01*
X46459Y80604D01*
X46456Y80606D01*
X46453Y80608D01*
X46451Y80609D01*
X46450Y80610D01*
X46341Y80719D01*
Y79980D01*
X46340Y79972D01*
X46339Y79965D01*
X46337Y79959D01*
X46333Y79954D01*
X46326Y79945D01*
X46317Y79940D01*
X46308Y79936D01*
X46301Y79935D01*
X46298Y79934D01*
X46293D01*
X46285Y79935D01*
X46278Y79935D01*
X46272Y79938D01*
X46266Y79941D01*
X46261Y79945D01*
X46258Y79949D01*
X46252Y79957D01*
X46248Y79965D01*
X46247Y79973D01*
X46246Y79979D01*
Y79980D01*
Y79980D01*
Y80834D01*
X46247Y80842D01*
X46248Y80849D01*
X46250Y80855D01*
X46253Y80861D01*
X46257Y80866D01*
X46261Y80869D01*
X46269Y80875D01*
X46278Y80879D01*
X46286Y80880D01*
X46289Y80881D01*
X46293D01*
X46301Y80880D01*
D02*
G37*
G36*
X46975D02*
X46992Y80878D01*
X47008Y80874D01*
X47024Y80870D01*
X47039Y80865D01*
X47052Y80859D01*
X47066Y80853D01*
X47077Y80846D01*
X47087Y80839D01*
X47097Y80834D01*
X47105Y80828D01*
X47112Y80822D01*
X47117Y80818D01*
X47121Y80814D01*
X47123Y80812D01*
X47124Y80811D01*
X47137Y80798D01*
X47147Y80784D01*
X47156Y80770D01*
X47164Y80756D01*
X47171Y80742D01*
X47177Y80728D01*
X47181Y80714D01*
X47185Y80701D01*
X47187Y80689D01*
X47190Y80679D01*
X47191Y80669D01*
X47192Y80660D01*
Y80653D01*
X47193Y80648D01*
Y80644D01*
Y80644D01*
Y80170D01*
X47192Y80152D01*
X47190Y80135D01*
X47187Y80119D01*
X47182Y80103D01*
X47177Y80088D01*
X47172Y80075D01*
X47165Y80061D01*
X47158Y80050D01*
X47152Y80040D01*
X47146Y80030D01*
X47140Y80022D01*
X47135Y80015D01*
X47131Y80010D01*
X47127Y80006D01*
X47125Y80004D01*
X47124Y80003D01*
X47111Y79990D01*
X47097Y79980D01*
X47083Y79971D01*
X47069Y79963D01*
X47055Y79956D01*
X47041Y79950D01*
X47027Y79946D01*
X47014Y79942D01*
X47002Y79940D01*
X46992Y79937D01*
X46982Y79936D01*
X46973Y79935D01*
X46966D01*
X46961Y79934D01*
X46767D01*
X46759Y79935D01*
X46752Y79935D01*
X46746Y79938D01*
X46740Y79941D01*
X46735Y79945D01*
X46732Y79949D01*
X46726Y79958D01*
X46722Y79966D01*
X46721Y79974D01*
X46720Y79977D01*
Y79980D01*
Y79980D01*
Y79981D01*
X46721Y79990D01*
X46722Y79997D01*
X46724Y80003D01*
X46727Y80009D01*
X46731Y80014D01*
X46735Y80017D01*
X46743Y80023D01*
X46752Y80026D01*
X46760Y80028D01*
X46763Y80029D01*
X46957D01*
X46967Y80030D01*
X46978Y80030D01*
X46997Y80035D01*
X47014Y80042D01*
X47029Y80050D01*
X47041Y80057D01*
X47046Y80060D01*
X47050Y80063D01*
X47053Y80066D01*
X47056Y80068D01*
X47057Y80069D01*
X47057Y80070D01*
X47065Y80078D01*
X47071Y80086D01*
X47077Y80095D01*
X47081Y80103D01*
X47088Y80120D01*
X47093Y80135D01*
X47096Y80150D01*
X47097Y80155D01*
X47097Y80160D01*
X47098Y80165D01*
Y80168D01*
Y80170D01*
Y80170D01*
Y80644D01*
X47097Y80654D01*
X47097Y80665D01*
X47092Y80684D01*
X47085Y80702D01*
X47077Y80716D01*
X47070Y80728D01*
X47067Y80733D01*
X47064Y80737D01*
X47061Y80740D01*
X47059Y80743D01*
X47058Y80744D01*
X47057Y80744D01*
X47049Y80752D01*
X47041Y80759D01*
X47032Y80764D01*
X47024Y80769D01*
X47007Y80776D01*
X46992Y80781D01*
X46977Y80784D01*
X46972Y80785D01*
X46967D01*
X46962Y80786D01*
X46767D01*
X46759Y80787D01*
X46752Y80788D01*
X46746Y80790D01*
X46740Y80794D01*
X46735Y80797D01*
X46732Y80801D01*
X46726Y80810D01*
X46722Y80819D01*
X46721Y80826D01*
X46720Y80829D01*
Y80832D01*
Y80833D01*
Y80834D01*
X46721Y80842D01*
X46722Y80849D01*
X46724Y80855D01*
X46727Y80861D01*
X46731Y80866D01*
X46735Y80869D01*
X46743Y80875D01*
X46752Y80879D01*
X46760Y80880D01*
X46763Y80881D01*
X46957D01*
X46975Y80880D01*
D02*
G37*
G36*
X45839D02*
X45855Y80878D01*
X45872Y80874D01*
X45888Y80870D01*
X45903Y80865D01*
X45916Y80859D01*
X45929Y80853D01*
X45941Y80846D01*
X45951Y80839D01*
X45960Y80834D01*
X45969Y80828D01*
X45975Y80822D01*
X45981Y80818D01*
X45984Y80814D01*
X45987Y80812D01*
X45988Y80811D01*
X46000Y80798D01*
X46010Y80784D01*
X46019Y80770D01*
X46028Y80756D01*
X46034Y80742D01*
X46040Y80728D01*
X46044Y80714D01*
X46048Y80701D01*
X46051Y80689D01*
X46053Y80679D01*
X46054Y80669D01*
X46056Y80660D01*
Y80653D01*
X46057Y80648D01*
Y80644D01*
Y80644D01*
X46056Y80622D01*
X46053Y80602D01*
X46048Y80583D01*
X46042Y80564D01*
X46035Y80548D01*
X46027Y80532D01*
X46019Y80518D01*
X46009Y80505D01*
X46000Y80494D01*
X45992Y80484D01*
X45984Y80474D01*
X45977Y80468D01*
X45970Y80462D01*
X45966Y80458D01*
X45963Y80455D01*
X45962Y80454D01*
X45979Y80440D01*
X45994Y80426D01*
X46006Y80410D01*
X46017Y80395D01*
X46026Y80379D01*
X46034Y80363D01*
X46040Y80348D01*
X46045Y80333D01*
X46048Y80319D01*
X46052Y80305D01*
X46053Y80295D01*
X46055Y80285D01*
X46056Y80276D01*
X46057Y80270D01*
Y80266D01*
Y80265D01*
Y80170D01*
X46056Y80152D01*
X46053Y80135D01*
X46050Y80119D01*
X46046Y80103D01*
X46041Y80088D01*
X46035Y80075D01*
X46028Y80061D01*
X46022Y80050D01*
X46016Y80040D01*
X46009Y80030D01*
X46004Y80022D01*
X45999Y80015D01*
X45994Y80010D01*
X45991Y80006D01*
X45989Y80004D01*
X45988Y80003D01*
X45974Y79990D01*
X45961Y79980D01*
X45947Y79971D01*
X45933Y79963D01*
X45919Y79956D01*
X45904Y79950D01*
X45891Y79946D01*
X45878Y79942D01*
X45866Y79940D01*
X45855Y79937D01*
X45845Y79936D01*
X45837Y79935D01*
X45829D01*
X45824Y79934D01*
X45820D01*
X45802Y79935D01*
X45785Y79937D01*
X45769Y79940D01*
X45753Y79945D01*
X45739Y79950D01*
X45724Y79955D01*
X45712Y79962D01*
X45700Y79969D01*
X45690Y79975D01*
X45680Y79981D01*
X45673Y79987D01*
X45666Y79992D01*
X45660Y79996D01*
X45657Y80000D01*
X45654Y80002D01*
X45654Y80003D01*
X45641Y80016D01*
X45630Y80030D01*
X45621Y80044D01*
X45613Y80058D01*
X45606Y80072D01*
X45600Y80086D01*
X45596Y80100D01*
X45592Y80113D01*
X45589Y80125D01*
X45587Y80135D01*
X45586Y80145D01*
X45584Y80154D01*
Y80161D01*
X45584Y80166D01*
Y80170D01*
Y80170D01*
Y80192D01*
Y80211D01*
X45584Y80229D01*
X45585Y80245D01*
Y80260D01*
X45586Y80272D01*
X45587Y80284D01*
X45588Y80294D01*
X45589Y80302D01*
X45589Y80309D01*
X45590Y80315D01*
Y80320D01*
X45591Y80323D01*
X45592Y80325D01*
Y80326D01*
Y80327D01*
X45596Y80341D01*
X45601Y80355D01*
X45613Y80379D01*
X45628Y80400D01*
X45634Y80410D01*
X45642Y80420D01*
X45649Y80427D01*
X45656Y80435D01*
X45662Y80440D01*
X45668Y80445D01*
X45672Y80450D01*
X45675Y80452D01*
X45678Y80454D01*
X45679Y80454D01*
X45662Y80469D01*
X45647Y80483D01*
X45634Y80499D01*
X45624Y80514D01*
X45614Y80530D01*
X45607Y80546D01*
X45600Y80561D01*
X45595Y80576D01*
X45592Y80589D01*
X45589Y80603D01*
X45586Y80614D01*
X45585Y80624D01*
X45584Y80632D01*
X45584Y80639D01*
Y80642D01*
Y80644D01*
X45584Y80662D01*
X45587Y80679D01*
X45590Y80695D01*
X45594Y80711D01*
X45599Y80726D01*
X45606Y80739D01*
X45612Y80753D01*
X45619Y80764D01*
X45625Y80774D01*
X45631Y80784D01*
X45637Y80792D01*
X45643Y80799D01*
X45647Y80804D01*
X45650Y80808D01*
X45653Y80810D01*
X45654Y80811D01*
X45667Y80824D01*
X45680Y80834D01*
X45694Y80844D01*
X45709Y80852D01*
X45723Y80859D01*
X45737Y80864D01*
X45750Y80869D01*
X45763Y80873D01*
X45774Y80875D01*
X45786Y80878D01*
X45795Y80879D01*
X45804Y80880D01*
X45811D01*
X45816Y80881D01*
X45820D01*
X45839Y80880D01*
D02*
G37*
G36*
X48155D02*
X48162Y80878D01*
X48168Y80875D01*
X48174Y80872D01*
X48179Y80868D01*
X48183Y80865D01*
X48185Y80863D01*
X48186Y80862D01*
X48372Y80677D01*
X48376Y80672D01*
X48379Y80666D01*
X48382Y80660D01*
X48383Y80655D01*
X48384Y80650D01*
X48385Y80647D01*
Y80644D01*
Y80644D01*
X48384Y80635D01*
X48383Y80628D01*
X48381Y80622D01*
X48378Y80616D01*
X48374Y80612D01*
X48370Y80608D01*
X48361Y80602D01*
X48353Y80599D01*
X48345Y80597D01*
X48342Y80596D01*
X48338D01*
X48331Y80597D01*
X48324Y80599D01*
X48318Y80600D01*
X48313Y80604D01*
X48310Y80606D01*
X48307Y80608D01*
X48305Y80609D01*
X48304Y80610D01*
X48195Y80719D01*
Y79980D01*
X48194Y79972D01*
X48193Y79965D01*
X48191Y79959D01*
X48188Y79954D01*
X48180Y79945D01*
X48171Y79940D01*
X48163Y79936D01*
X48155Y79935D01*
X48152Y79934D01*
X48148D01*
X48139Y79935D01*
X48132Y79935D01*
X48126Y79938D01*
X48120Y79941D01*
X48115Y79945D01*
X48112Y79949D01*
X48106Y79957D01*
X48103Y79965D01*
X48101Y79973D01*
X48100Y79979D01*
Y79980D01*
Y79980D01*
Y80834D01*
X48101Y80842D01*
X48102Y80849D01*
X48104Y80855D01*
X48108Y80861D01*
X48111Y80866D01*
X48115Y80869D01*
X48123Y80875D01*
X48133Y80879D01*
X48140Y80880D01*
X48143Y80881D01*
X48148D01*
X48155Y80880D01*
D02*
G37*
G36*
X47682D02*
X47689Y80878D01*
X47695Y80875D01*
X47701Y80872D01*
X47706Y80868D01*
X47709Y80865D01*
X47712Y80863D01*
X47713Y80862D01*
X47899Y80677D01*
X47903Y80672D01*
X47906Y80666D01*
X47909Y80660D01*
X47910Y80655D01*
X47911Y80650D01*
X47912Y80647D01*
Y80644D01*
Y80644D01*
X47911Y80635D01*
X47910Y80628D01*
X47908Y80622D01*
X47904Y80616D01*
X47901Y80612D01*
X47897Y80608D01*
X47888Y80602D01*
X47879Y80599D01*
X47872Y80597D01*
X47869Y80596D01*
X47864D01*
X47858Y80597D01*
X47851Y80599D01*
X47845Y80600D01*
X47840Y80604D01*
X47837Y80606D01*
X47834Y80608D01*
X47832Y80609D01*
X47831Y80610D01*
X47722Y80719D01*
Y79980D01*
X47721Y79972D01*
X47720Y79965D01*
X47718Y79959D01*
X47714Y79954D01*
X47707Y79945D01*
X47698Y79940D01*
X47689Y79936D01*
X47682Y79935D01*
X47679Y79934D01*
X47674D01*
X47666Y79935D01*
X47659Y79935D01*
X47653Y79938D01*
X47647Y79941D01*
X47642Y79945D01*
X47639Y79949D01*
X47633Y79957D01*
X47629Y79965D01*
X47628Y79973D01*
X47627Y79979D01*
Y79980D01*
Y79980D01*
Y80834D01*
X47628Y80842D01*
X47629Y80849D01*
X47631Y80855D01*
X47634Y80861D01*
X47638Y80866D01*
X47642Y80869D01*
X47650Y80875D01*
X47659Y80879D01*
X47667Y80880D01*
X47670Y80881D01*
X47674D01*
X47682Y80880D01*
D02*
G37*
G36*
X48829D02*
X48846Y80878D01*
X48862Y80874D01*
X48878Y80870D01*
X48893Y80865D01*
X48907Y80859D01*
X48920Y80853D01*
X48932Y80846D01*
X48942Y80839D01*
X48951Y80834D01*
X48959Y80828D01*
X48966Y80822D01*
X48972Y80818D01*
X48975Y80814D01*
X48977Y80812D01*
X48978Y80811D01*
X48991Y80798D01*
X49001Y80784D01*
X49010Y80770D01*
X49018Y80756D01*
X49025Y80742D01*
X49031Y80728D01*
X49035Y80714D01*
X49039Y80701D01*
X49042Y80689D01*
X49044Y80679D01*
X49045Y80669D01*
X49047Y80660D01*
Y80653D01*
X49047Y80648D01*
Y80644D01*
Y80644D01*
Y80170D01*
X49047Y80152D01*
X49044Y80135D01*
X49041Y80119D01*
X49037Y80103D01*
X49032Y80088D01*
X49026Y80075D01*
X49019Y80061D01*
X49012Y80050D01*
X49007Y80040D01*
X49000Y80030D01*
X48994Y80022D01*
X48989Y80015D01*
X48985Y80010D01*
X48982Y80006D01*
X48979Y80004D01*
X48978Y80003D01*
X48965Y79990D01*
X48952Y79980D01*
X48937Y79971D01*
X48923Y79963D01*
X48909Y79956D01*
X48895Y79950D01*
X48882Y79946D01*
X48868Y79942D01*
X48857Y79940D01*
X48846Y79937D01*
X48836Y79936D01*
X48827Y79935D01*
X48820D01*
X48815Y79934D01*
X48622D01*
X48613Y79935D01*
X48606Y79935D01*
X48600Y79938D01*
X48594Y79941D01*
X48589Y79945D01*
X48586Y79949D01*
X48580Y79958D01*
X48577Y79966D01*
X48575Y79974D01*
X48574Y79977D01*
Y79980D01*
Y79980D01*
Y79981D01*
X48575Y79990D01*
X48576Y79997D01*
X48578Y80003D01*
X48582Y80009D01*
X48585Y80014D01*
X48589Y80017D01*
X48598Y80023D01*
X48607Y80026D01*
X48614Y80028D01*
X48618Y80029D01*
X48811D01*
X48822Y80030D01*
X48832Y80030D01*
X48852Y80035D01*
X48868Y80042D01*
X48883Y80050D01*
X48895Y80057D01*
X48900Y80060D01*
X48904Y80063D01*
X48907Y80066D01*
X48910Y80068D01*
X48911Y80069D01*
X48912Y80070D01*
X48919Y80078D01*
X48925Y80086D01*
X48931Y80095D01*
X48935Y80103D01*
X48942Y80120D01*
X48947Y80135D01*
X48950Y80150D01*
X48951Y80155D01*
X48952Y80160D01*
X48952Y80165D01*
Y80168D01*
Y80170D01*
Y80170D01*
Y80644D01*
X48952Y80654D01*
X48951Y80665D01*
X48946Y80684D01*
X48939Y80702D01*
X48932Y80716D01*
X48924Y80728D01*
X48921Y80733D01*
X48918Y80737D01*
X48915Y80740D01*
X48913Y80743D01*
X48912Y80744D01*
X48912Y80744D01*
X48903Y80752D01*
X48895Y80759D01*
X48887Y80764D01*
X48878Y80769D01*
X48862Y80776D01*
X48846Y80781D01*
X48832Y80784D01*
X48826Y80785D01*
X48821D01*
X48817Y80786D01*
X48622D01*
X48613Y80787D01*
X48606Y80788D01*
X48600Y80790D01*
X48594Y80794D01*
X48589Y80797D01*
X48586Y80801D01*
X48580Y80810D01*
X48577Y80819D01*
X48575Y80826D01*
X48574Y80829D01*
Y80832D01*
Y80833D01*
Y80834D01*
X48575Y80842D01*
X48576Y80849D01*
X48578Y80855D01*
X48582Y80861D01*
X48585Y80866D01*
X48589Y80869D01*
X48598Y80875D01*
X48607Y80879D01*
X48614Y80880D01*
X48618Y80881D01*
X48811D01*
X48829Y80880D01*
D02*
G37*
G36*
X46301Y84309D02*
X46308Y84307D01*
X46314Y84304D01*
X46320Y84301D01*
X46325Y84297D01*
X46328Y84294D01*
X46331Y84292D01*
X46332Y84291D01*
X46518Y84106D01*
X46522Y84101D01*
X46525Y84095D01*
X46528Y84089D01*
X46529Y84084D01*
X46530Y84079D01*
X46531Y84076D01*
Y84073D01*
Y84073D01*
X46530Y84064D01*
X46529Y84057D01*
X46527Y84051D01*
X46523Y84045D01*
X46520Y84041D01*
X46516Y84037D01*
X46507Y84031D01*
X46498Y84028D01*
X46491Y84026D01*
X46488Y84025D01*
X46483D01*
X46477Y84026D01*
X46470Y84028D01*
X46464Y84029D01*
X46459Y84033D01*
X46456Y84035D01*
X46453Y84037D01*
X46451Y84038D01*
X46450Y84039D01*
X46341Y84148D01*
Y83409D01*
X46340Y83401D01*
X46339Y83394D01*
X46337Y83388D01*
X46333Y83383D01*
X46326Y83374D01*
X46317Y83369D01*
X46308Y83365D01*
X46301Y83364D01*
X46298Y83363D01*
X46293D01*
X46285Y83364D01*
X46278Y83364D01*
X46272Y83367D01*
X46266Y83370D01*
X46261Y83374D01*
X46258Y83378D01*
X46252Y83386D01*
X46248Y83394D01*
X46247Y83402D01*
X46246Y83408D01*
Y83409D01*
Y83409D01*
Y84263D01*
X46247Y84271D01*
X46248Y84278D01*
X46250Y84284D01*
X46253Y84290D01*
X46257Y84295D01*
X46261Y84298D01*
X46269Y84304D01*
X46278Y84308D01*
X46286Y84309D01*
X46289Y84310D01*
X46293D01*
X46301Y84309D01*
D02*
G37*
G36*
X46975D02*
X46992Y84307D01*
X47008Y84303D01*
X47024Y84299D01*
X47039Y84294D01*
X47052Y84288D01*
X47066Y84282D01*
X47077Y84275D01*
X47087Y84268D01*
X47097Y84263D01*
X47105Y84257D01*
X47112Y84251D01*
X47117Y84247D01*
X47121Y84243D01*
X47123Y84241D01*
X47124Y84240D01*
X47137Y84227D01*
X47147Y84213D01*
X47156Y84199D01*
X47164Y84185D01*
X47171Y84171D01*
X47177Y84157D01*
X47181Y84143D01*
X47185Y84130D01*
X47187Y84118D01*
X47190Y84108D01*
X47191Y84098D01*
X47192Y84089D01*
Y84082D01*
X47193Y84077D01*
Y84073D01*
Y84073D01*
Y83599D01*
X47192Y83581D01*
X47190Y83564D01*
X47187Y83548D01*
X47182Y83532D01*
X47177Y83517D01*
X47172Y83504D01*
X47165Y83490D01*
X47158Y83479D01*
X47152Y83469D01*
X47146Y83459D01*
X47140Y83451D01*
X47135Y83444D01*
X47131Y83439D01*
X47127Y83435D01*
X47125Y83433D01*
X47124Y83432D01*
X47111Y83419D01*
X47097Y83409D01*
X47083Y83400D01*
X47069Y83392D01*
X47055Y83385D01*
X47041Y83379D01*
X47027Y83375D01*
X47014Y83371D01*
X47002Y83369D01*
X46992Y83366D01*
X46982Y83365D01*
X46973Y83364D01*
X46966D01*
X46961Y83363D01*
X46767D01*
X46759Y83364D01*
X46752Y83364D01*
X46746Y83367D01*
X46740Y83370D01*
X46735Y83374D01*
X46732Y83378D01*
X46726Y83387D01*
X46722Y83395D01*
X46721Y83403D01*
X46720Y83406D01*
Y83409D01*
Y83409D01*
Y83410D01*
X46721Y83419D01*
X46722Y83426D01*
X46724Y83432D01*
X46727Y83438D01*
X46731Y83443D01*
X46735Y83446D01*
X46743Y83452D01*
X46752Y83455D01*
X46760Y83457D01*
X46763Y83458D01*
X46957D01*
X46967Y83459D01*
X46978Y83459D01*
X46997Y83464D01*
X47014Y83471D01*
X47029Y83479D01*
X47041Y83486D01*
X47046Y83489D01*
X47050Y83492D01*
X47053Y83495D01*
X47056Y83497D01*
X47057Y83498D01*
X47057Y83499D01*
X47065Y83507D01*
X47071Y83515D01*
X47077Y83524D01*
X47081Y83532D01*
X47088Y83549D01*
X47093Y83564D01*
X47096Y83579D01*
X47097Y83584D01*
X47097Y83589D01*
X47098Y83594D01*
Y83597D01*
Y83599D01*
Y83599D01*
Y84073D01*
X47097Y84083D01*
X47097Y84094D01*
X47092Y84113D01*
X47085Y84131D01*
X47077Y84145D01*
X47070Y84157D01*
X47067Y84162D01*
X47064Y84166D01*
X47061Y84169D01*
X47059Y84172D01*
X47058Y84173D01*
X47057Y84173D01*
X47049Y84181D01*
X47041Y84188D01*
X47032Y84193D01*
X47024Y84198D01*
X47007Y84205D01*
X46992Y84210D01*
X46977Y84213D01*
X46972Y84214D01*
X46967D01*
X46962Y84215D01*
X46767D01*
X46759Y84216D01*
X46752Y84217D01*
X46746Y84219D01*
X46740Y84223D01*
X46735Y84226D01*
X46732Y84230D01*
X46726Y84239D01*
X46722Y84248D01*
X46721Y84255D01*
X46720Y84258D01*
Y84261D01*
Y84262D01*
Y84263D01*
X46721Y84271D01*
X46722Y84278D01*
X46724Y84284D01*
X46727Y84290D01*
X46731Y84295D01*
X46735Y84298D01*
X46743Y84304D01*
X46752Y84308D01*
X46760Y84309D01*
X46763Y84310D01*
X46957D01*
X46975Y84309D01*
D02*
G37*
G36*
X45833D02*
X45844Y84308D01*
X45856Y84306D01*
X45867Y84303D01*
X45888Y84293D01*
X45908Y84282D01*
X45925Y84268D01*
X45941Y84253D01*
X45955Y84237D01*
X45969Y84220D01*
X45979Y84203D01*
X45989Y84187D01*
X45998Y84171D01*
X46004Y84158D01*
X46009Y84146D01*
X46013Y84137D01*
X46014Y84133D01*
X46015Y84131D01*
X46016Y84130D01*
Y84129D01*
X46023Y84106D01*
X46029Y84081D01*
X46035Y84057D01*
X46039Y84032D01*
X46047Y83983D01*
X46049Y83958D01*
X46052Y83937D01*
X46053Y83915D01*
X46054Y83896D01*
X46055Y83879D01*
X46056Y83864D01*
X46057Y83853D01*
Y83848D01*
Y83844D01*
Y83840D01*
Y83838D01*
Y83837D01*
Y83836D01*
X46056Y83804D01*
X46055Y83774D01*
X46053Y83746D01*
X46050Y83719D01*
X46048Y83693D01*
X46043Y83669D01*
X46040Y83646D01*
X46036Y83626D01*
X46033Y83607D01*
X46028Y83591D01*
X46025Y83577D01*
X46023Y83564D01*
X46019Y83555D01*
X46018Y83549D01*
X46017Y83544D01*
X46016Y83543D01*
X46010Y83526D01*
X46004Y83511D01*
X45997Y83497D01*
X45990Y83484D01*
X45983Y83471D01*
X45975Y83459D01*
X45968Y83449D01*
X45959Y83439D01*
X45944Y83421D01*
X45927Y83407D01*
X45911Y83394D01*
X45895Y83385D01*
X45880Y83378D01*
X45866Y83372D01*
X45854Y83369D01*
X45842Y83365D01*
X45833Y83364D01*
X45826Y83363D01*
X45820D01*
X45808Y83364D01*
X45796Y83364D01*
X45784Y83367D01*
X45774Y83370D01*
X45753Y83379D01*
X45734Y83391D01*
X45716Y83404D01*
X45700Y83420D01*
X45685Y83436D01*
X45673Y83454D01*
X45661Y83470D01*
X45652Y83486D01*
X45644Y83502D01*
X45637Y83515D01*
X45632Y83527D01*
X45628Y83536D01*
X45627Y83539D01*
X45626Y83542D01*
X45625Y83543D01*
Y83544D01*
X45618Y83567D01*
X45611Y83592D01*
X45606Y83616D01*
X45601Y83641D01*
X45594Y83690D01*
X45591Y83714D01*
X45589Y83736D01*
X45587Y83757D01*
X45586Y83776D01*
X45584Y83793D01*
Y83808D01*
X45584Y83819D01*
Y83824D01*
Y83829D01*
Y83832D01*
Y83834D01*
Y83835D01*
Y83836D01*
X45584Y83867D01*
X45585Y83897D01*
X45588Y83926D01*
X45590Y83953D01*
X45594Y83978D01*
X45597Y84003D01*
X45600Y84025D01*
X45604Y84046D01*
X45609Y84064D01*
X45612Y84080D01*
X45615Y84095D01*
X45619Y84107D01*
X45621Y84116D01*
X45624Y84123D01*
X45624Y84127D01*
X45625Y84128D01*
X45631Y84145D01*
X45638Y84160D01*
X45644Y84175D01*
X45651Y84188D01*
X45659Y84201D01*
X45666Y84213D01*
X45674Y84223D01*
X45682Y84233D01*
X45698Y84251D01*
X45714Y84266D01*
X45730Y84278D01*
X45746Y84288D01*
X45761Y84295D01*
X45774Y84301D01*
X45788Y84304D01*
X45799Y84308D01*
X45808Y84309D01*
X45814Y84310D01*
X45820D01*
X45833Y84309D01*
D02*
G37*
G36*
X34707Y80880D02*
X34723Y80878D01*
X34740Y80874D01*
X34756Y80870D01*
X34771Y80865D01*
X34784Y80859D01*
X34798Y80853D01*
X34809Y80846D01*
X34819Y80839D01*
X34828Y80834D01*
X34837Y80828D01*
X34843Y80822D01*
X34849Y80818D01*
X34853Y80814D01*
X34855Y80812D01*
X34856Y80811D01*
X34868Y80798D01*
X34878Y80784D01*
X34888Y80770D01*
X34896Y80756D01*
X34903Y80742D01*
X34908Y80728D01*
X34912Y80714D01*
X34917Y80701D01*
X34919Y80689D01*
X34922Y80679D01*
X34923Y80669D01*
X34924Y80660D01*
Y80653D01*
X34925Y80648D01*
Y80644D01*
Y80644D01*
Y80170D01*
X34924Y80152D01*
X34922Y80135D01*
X34918Y80119D01*
X34914Y80103D01*
X34909Y80088D01*
X34903Y80075D01*
X34897Y80061D01*
X34890Y80050D01*
X34884Y80040D01*
X34878Y80030D01*
X34872Y80022D01*
X34867Y80015D01*
X34863Y80010D01*
X34859Y80006D01*
X34857Y80004D01*
X34856Y80003D01*
X34843Y79990D01*
X34829Y79980D01*
X34815Y79971D01*
X34801Y79963D01*
X34787Y79956D01*
X34773Y79950D01*
X34759Y79946D01*
X34746Y79942D01*
X34734Y79940D01*
X34723Y79937D01*
X34713Y79936D01*
X34705Y79935D01*
X34698D01*
X34693Y79934D01*
X34499D01*
X34491Y79935D01*
X34483Y79935D01*
X34478Y79938D01*
X34472Y79941D01*
X34467Y79945D01*
X34463Y79949D01*
X34458Y79958D01*
X34454Y79966D01*
X34453Y79974D01*
X34452Y79977D01*
Y79980D01*
Y79980D01*
Y79981D01*
X34453Y79990D01*
X34453Y79997D01*
X34456Y80003D01*
X34459Y80009D01*
X34463Y80014D01*
X34467Y80017D01*
X34475Y80023D01*
X34484Y80026D01*
X34492Y80028D01*
X34495Y80029D01*
X34688D01*
X34699Y80030D01*
X34710Y80030D01*
X34729Y80035D01*
X34746Y80042D01*
X34761Y80050D01*
X34773Y80057D01*
X34778Y80060D01*
X34782Y80063D01*
X34785Y80066D01*
X34788Y80068D01*
X34788Y80069D01*
X34789Y80070D01*
X34797Y80078D01*
X34803Y80086D01*
X34808Y80095D01*
X34813Y80103D01*
X34820Y80120D01*
X34825Y80135D01*
X34828Y80150D01*
X34828Y80155D01*
X34829Y80160D01*
X34830Y80165D01*
Y80168D01*
Y80170D01*
Y80170D01*
Y80644D01*
X34829Y80654D01*
X34828Y80665D01*
X34823Y80684D01*
X34817Y80702D01*
X34809Y80716D01*
X34802Y80728D01*
X34798Y80733D01*
X34796Y80737D01*
X34793Y80740D01*
X34791Y80743D01*
X34790Y80744D01*
X34789Y80744D01*
X34781Y80752D01*
X34773Y80759D01*
X34764Y80764D01*
X34756Y80769D01*
X34739Y80776D01*
X34723Y80781D01*
X34709Y80784D01*
X34703Y80785D01*
X34698D01*
X34694Y80786D01*
X34499D01*
X34491Y80787D01*
X34483Y80788D01*
X34478Y80790D01*
X34472Y80794D01*
X34467Y80797D01*
X34463Y80801D01*
X34458Y80810D01*
X34454Y80819D01*
X34453Y80826D01*
X34452Y80829D01*
Y80832D01*
Y80833D01*
Y80834D01*
X34453Y80842D01*
X34453Y80849D01*
X34456Y80855D01*
X34459Y80861D01*
X34463Y80866D01*
X34467Y80869D01*
X34475Y80875D01*
X34484Y80879D01*
X34492Y80880D01*
X34495Y80881D01*
X34688D01*
X34707Y80880D01*
D02*
G37*
G36*
X34224D02*
X34231Y80879D01*
X34237Y80877D01*
X34243Y80874D01*
X34247Y80870D01*
X34251Y80866D01*
X34257Y80858D01*
X34260Y80849D01*
X34262Y80841D01*
X34263Y80838D01*
Y80835D01*
Y80834D01*
Y80834D01*
X34262Y80825D01*
X34261Y80818D01*
X34258Y80812D01*
X34255Y80806D01*
X34252Y80802D01*
X34248Y80798D01*
X34239Y80792D01*
X34230Y80789D01*
X34223Y80787D01*
X34219Y80786D01*
X34026D01*
X34015Y80785D01*
X34004Y80784D01*
X33985Y80779D01*
X33968Y80773D01*
X33954Y80765D01*
X33942Y80758D01*
X33937Y80754D01*
X33933Y80751D01*
X33929Y80749D01*
X33927Y80746D01*
X33926Y80745D01*
X33925Y80744D01*
X33918Y80736D01*
X33911Y80728D01*
X33906Y80719D01*
X33901Y80711D01*
X33894Y80694D01*
X33889Y80679D01*
X33886Y80664D01*
X33884Y80659D01*
Y80654D01*
X33884Y80649D01*
Y80646D01*
Y80644D01*
Y80644D01*
X33884Y80633D01*
X33885Y80622D01*
X33890Y80603D01*
X33897Y80586D01*
X33904Y80571D01*
X33912Y80559D01*
X33915Y80554D01*
X33919Y80550D01*
X33921Y80547D01*
X33924Y80544D01*
X33924Y80544D01*
X33925Y80543D01*
X33934Y80535D01*
X33942Y80529D01*
X33950Y80524D01*
X33959Y80519D01*
X33975Y80512D01*
X33991Y80507D01*
X34005Y80504D01*
X34011Y80504D01*
X34016Y80503D01*
X34020Y80502D01*
X34121D01*
X34129Y80501D01*
X34137Y80500D01*
X34143Y80498D01*
X34149Y80494D01*
X34153Y80491D01*
X34157Y80487D01*
X34163Y80479D01*
X34166Y80469D01*
X34168Y80462D01*
X34169Y80459D01*
Y80456D01*
Y80455D01*
Y80454D01*
X34168Y80446D01*
X34167Y80439D01*
X34164Y80433D01*
X34161Y80427D01*
X34158Y80423D01*
X34154Y80419D01*
X34144Y80413D01*
X34136Y80410D01*
X34129Y80408D01*
X34125Y80407D01*
X34026D01*
X34015Y80406D01*
X34004Y80405D01*
X33985Y80400D01*
X33968Y80394D01*
X33954Y80386D01*
X33942Y80379D01*
X33937Y80375D01*
X33933Y80372D01*
X33929Y80370D01*
X33927Y80367D01*
X33926Y80366D01*
X33925Y80365D01*
X33918Y80357D01*
X33911Y80349D01*
X33906Y80340D01*
X33901Y80332D01*
X33894Y80315D01*
X33889Y80300D01*
X33886Y80285D01*
X33884Y80280D01*
Y80275D01*
X33884Y80270D01*
Y80267D01*
Y80265D01*
Y80265D01*
Y80170D01*
X33884Y80160D01*
X33885Y80149D01*
X33890Y80130D01*
X33897Y80112D01*
X33904Y80098D01*
X33912Y80085D01*
X33919Y80077D01*
X33921Y80074D01*
X33924Y80071D01*
X33924Y80070D01*
X33925Y80070D01*
X33934Y80062D01*
X33942Y80056D01*
X33950Y80050D01*
X33959Y80046D01*
X33975Y80039D01*
X33991Y80034D01*
X34005Y80031D01*
X34011Y80030D01*
X34016Y80030D01*
X34020Y80029D01*
X34215D01*
X34224Y80028D01*
X34231Y80027D01*
X34237Y80025D01*
X34243Y80021D01*
X34247Y80018D01*
X34251Y80014D01*
X34257Y80005D01*
X34260Y79996D01*
X34262Y79989D01*
X34263Y79985D01*
Y79983D01*
Y79982D01*
Y79981D01*
X34262Y79973D01*
X34261Y79965D01*
X34258Y79960D01*
X34255Y79954D01*
X34252Y79950D01*
X34248Y79945D01*
X34239Y79940D01*
X34230Y79936D01*
X34223Y79935D01*
X34219Y79934D01*
X34026D01*
X34008Y79935D01*
X33991Y79937D01*
X33974Y79940D01*
X33959Y79945D01*
X33944Y79950D01*
X33930Y79955D01*
X33918Y79962D01*
X33906Y79969D01*
X33895Y79975D01*
X33886Y79981D01*
X33878Y79987D01*
X33871Y79992D01*
X33865Y79996D01*
X33862Y80000D01*
X33859Y80002D01*
X33859Y80003D01*
X33846Y80016D01*
X33835Y80030D01*
X33826Y80044D01*
X33818Y80058D01*
X33811Y80072D01*
X33805Y80086D01*
X33801Y80100D01*
X33797Y80113D01*
X33794Y80125D01*
X33792Y80135D01*
X33791Y80145D01*
X33789Y80154D01*
Y80161D01*
X33789Y80166D01*
Y80170D01*
Y80170D01*
Y80265D01*
X33789Y80286D01*
X33793Y80306D01*
X33797Y80325D01*
X33804Y80344D01*
X33810Y80360D01*
X33819Y80376D01*
X33827Y80390D01*
X33836Y80404D01*
X33845Y80415D01*
X33854Y80425D01*
X33862Y80435D01*
X33869Y80441D01*
X33874Y80447D01*
X33879Y80451D01*
X33883Y80454D01*
X33884Y80454D01*
X33867Y80469D01*
X33852Y80483D01*
X33839Y80499D01*
X33829Y80514D01*
X33819Y80530D01*
X33812Y80546D01*
X33805Y80561D01*
X33800Y80576D01*
X33797Y80589D01*
X33794Y80603D01*
X33791Y80614D01*
X33790Y80624D01*
X33789Y80632D01*
X33789Y80639D01*
Y80642D01*
Y80644D01*
X33789Y80662D01*
X33792Y80679D01*
X33795Y80695D01*
X33799Y80711D01*
X33804Y80725D01*
X33811Y80739D01*
X33817Y80752D01*
X33824Y80764D01*
X33830Y80774D01*
X33836Y80784D01*
X33842Y80792D01*
X33848Y80799D01*
X33852Y80804D01*
X33855Y80808D01*
X33858Y80810D01*
X33859Y80811D01*
X33872Y80824D01*
X33885Y80834D01*
X33899Y80844D01*
X33914Y80852D01*
X33928Y80859D01*
X33942Y80864D01*
X33955Y80869D01*
X33969Y80873D01*
X33980Y80875D01*
X33991Y80878D01*
X34001Y80879D01*
X34009Y80880D01*
X34017D01*
X34022Y80881D01*
X34215D01*
X34224Y80880D01*
D02*
G37*
G36*
X36739D02*
X36755Y80878D01*
X36772Y80874D01*
X36788Y80870D01*
X36803Y80865D01*
X36816Y80859D01*
X36830Y80853D01*
X36841Y80846D01*
X36851Y80839D01*
X36860Y80834D01*
X36869Y80828D01*
X36875Y80822D01*
X36881Y80818D01*
X36885Y80814D01*
X36887Y80812D01*
X36888Y80811D01*
X36900Y80798D01*
X36910Y80784D01*
X36920Y80770D01*
X36928Y80756D01*
X36935Y80742D01*
X36940Y80728D01*
X36944Y80714D01*
X36949Y80701D01*
X36951Y80689D01*
X36954Y80679D01*
X36954Y80669D01*
X36956Y80660D01*
Y80653D01*
X36957Y80648D01*
Y80644D01*
Y80644D01*
Y80170D01*
X36956Y80152D01*
X36954Y80135D01*
X36950Y80119D01*
X36946Y80103D01*
X36941Y80088D01*
X36935Y80075D01*
X36929Y80061D01*
X36922Y80050D01*
X36916Y80040D01*
X36910Y80030D01*
X36904Y80022D01*
X36899Y80015D01*
X36895Y80010D01*
X36891Y80006D01*
X36889Y80004D01*
X36888Y80003D01*
X36875Y79990D01*
X36861Y79980D01*
X36847Y79971D01*
X36833Y79963D01*
X36819Y79956D01*
X36805Y79950D01*
X36791Y79946D01*
X36778Y79942D01*
X36766Y79940D01*
X36755Y79937D01*
X36745Y79936D01*
X36737Y79935D01*
X36730D01*
X36725Y79934D01*
X36531D01*
X36523Y79935D01*
X36515Y79935D01*
X36510Y79938D01*
X36504Y79941D01*
X36499Y79945D01*
X36495Y79949D01*
X36490Y79958D01*
X36486Y79966D01*
X36485Y79974D01*
X36484Y79977D01*
Y79980D01*
Y79980D01*
Y79981D01*
X36485Y79990D01*
X36485Y79997D01*
X36488Y80003D01*
X36491Y80009D01*
X36495Y80014D01*
X36499Y80017D01*
X36507Y80023D01*
X36516Y80026D01*
X36524Y80028D01*
X36527Y80029D01*
X36720D01*
X36731Y80030D01*
X36742Y80030D01*
X36761Y80035D01*
X36778Y80042D01*
X36793Y80050D01*
X36805Y80057D01*
X36810Y80060D01*
X36814Y80063D01*
X36817Y80066D01*
X36820Y80068D01*
X36820Y80069D01*
X36821Y80070D01*
X36829Y80078D01*
X36835Y80086D01*
X36840Y80095D01*
X36845Y80103D01*
X36852Y80120D01*
X36857Y80135D01*
X36860Y80150D01*
X36860Y80155D01*
X36861Y80160D01*
X36862Y80165D01*
Y80168D01*
Y80170D01*
Y80170D01*
Y80644D01*
X36861Y80654D01*
X36860Y80665D01*
X36855Y80684D01*
X36849Y80702D01*
X36841Y80716D01*
X36834Y80728D01*
X36830Y80733D01*
X36828Y80737D01*
X36825Y80740D01*
X36823Y80743D01*
X36822Y80744D01*
X36821Y80744D01*
X36813Y80752D01*
X36805Y80759D01*
X36796Y80764D01*
X36788Y80769D01*
X36771Y80776D01*
X36755Y80781D01*
X36741Y80784D01*
X36735Y80785D01*
X36730D01*
X36726Y80786D01*
X36531D01*
X36523Y80787D01*
X36515Y80788D01*
X36510Y80790D01*
X36504Y80794D01*
X36499Y80797D01*
X36495Y80801D01*
X36490Y80810D01*
X36486Y80819D01*
X36485Y80826D01*
X36484Y80829D01*
Y80832D01*
Y80833D01*
Y80834D01*
X36485Y80842D01*
X36485Y80849D01*
X36488Y80855D01*
X36491Y80861D01*
X36495Y80866D01*
X36499Y80869D01*
X36507Y80875D01*
X36516Y80879D01*
X36524Y80880D01*
X36527Y80881D01*
X36720D01*
X36739Y80880D01*
D02*
G37*
G36*
X35969D02*
X35976Y80879D01*
X35991Y80876D01*
X35996Y80874D01*
X36001Y80872D01*
X36005Y80871D01*
X36006Y80870D01*
X36025Y80862D01*
X36042Y80853D01*
X36060Y80843D01*
X36076Y80833D01*
X36092Y80821D01*
X36106Y80810D01*
X36121Y80799D01*
X36134Y80789D01*
X36146Y80778D01*
X36156Y80768D01*
X36165Y80759D01*
X36173Y80751D01*
X36179Y80745D01*
X36183Y80740D01*
X36186Y80737D01*
X36187Y80736D01*
X36206Y80713D01*
X36222Y80689D01*
X36236Y80665D01*
X36249Y80641D01*
X36259Y80617D01*
X36268Y80594D01*
X36275Y80571D01*
X36281Y80550D01*
X36285Y80530D01*
X36288Y80512D01*
X36291Y80495D01*
X36292Y80481D01*
X36293Y80470D01*
X36294Y80462D01*
Y80459D01*
Y80456D01*
Y80455D01*
Y80454D01*
Y80169D01*
X36293Y80150D01*
X36291Y80134D01*
X36287Y80117D01*
X36283Y80101D01*
X36278Y80086D01*
X36272Y80073D01*
X36266Y80060D01*
X36260Y80049D01*
X36253Y80038D01*
X36247Y80029D01*
X36241Y80021D01*
X36236Y80015D01*
X36232Y80009D01*
X36228Y80005D01*
X36226Y80003D01*
X36226Y80002D01*
X36212Y79990D01*
X36198Y79980D01*
X36185Y79970D01*
X36170Y79963D01*
X36156Y79956D01*
X36142Y79950D01*
X36128Y79946D01*
X36116Y79942D01*
X36103Y79940D01*
X36092Y79937D01*
X36082Y79936D01*
X36074Y79935D01*
X36066D01*
X36061Y79934D01*
X36057D01*
X36039Y79935D01*
X36022Y79937D01*
X36006Y79940D01*
X35990Y79945D01*
X35976Y79950D01*
X35961Y79955D01*
X35949Y79961D01*
X35937Y79968D01*
X35927Y79975D01*
X35917Y79980D01*
X35910Y79986D01*
X35903Y79991D01*
X35897Y79995D01*
X35894Y80000D01*
X35891Y80001D01*
X35891Y80002D01*
X35878Y80015D01*
X35867Y80030D01*
X35858Y80043D01*
X35850Y80058D01*
X35843Y80072D01*
X35837Y80085D01*
X35833Y80100D01*
X35829Y80112D01*
X35826Y80125D01*
X35824Y80135D01*
X35823Y80145D01*
X35821Y80154D01*
Y80161D01*
X35821Y80166D01*
Y80170D01*
Y80170D01*
Y80265D01*
X35821Y80283D01*
X35823Y80300D01*
X35827Y80317D01*
X35831Y80333D01*
X35836Y80348D01*
X35842Y80361D01*
X35848Y80375D01*
X35855Y80386D01*
X35861Y80396D01*
X35867Y80405D01*
X35873Y80414D01*
X35878Y80420D01*
X35882Y80426D01*
X35886Y80430D01*
X35888Y80432D01*
X35889Y80433D01*
X35902Y80445D01*
X35916Y80455D01*
X35930Y80465D01*
X35944Y80473D01*
X35958Y80479D01*
X35972Y80485D01*
X35986Y80489D01*
X35999Y80494D01*
X36011Y80496D01*
X36022Y80499D01*
X36032Y80499D01*
X36041Y80501D01*
X36047D01*
X36053Y80502D01*
X36196D01*
X36193Y80518D01*
X36190Y80534D01*
X36186Y80549D01*
X36180Y80564D01*
X36168Y80591D01*
X36162Y80604D01*
X36156Y80616D01*
X36150Y80627D01*
X36144Y80637D01*
X36138Y80645D01*
X36134Y80653D01*
X36130Y80659D01*
X36126Y80663D01*
X36125Y80665D01*
X36124Y80666D01*
X36109Y80684D01*
X36093Y80700D01*
X36077Y80715D01*
X36061Y80728D01*
X36046Y80739D01*
X36031Y80750D01*
X36016Y80759D01*
X36002Y80767D01*
X35989Y80774D01*
X35977Y80779D01*
X35966Y80784D01*
X35957Y80787D01*
X35950Y80789D01*
X35945Y80791D01*
X35941Y80793D01*
X35940D01*
X35931Y80796D01*
X35926Y80801D01*
X35921Y80808D01*
X35919Y80815D01*
X35916Y80822D01*
X35916Y80828D01*
Y80832D01*
Y80834D01*
X35916Y80842D01*
X35917Y80849D01*
X35920Y80855D01*
X35923Y80861D01*
X35926Y80866D01*
X35931Y80869D01*
X35939Y80875D01*
X35948Y80879D01*
X35956Y80880D01*
X35959Y80881D01*
X35963D01*
X35969Y80880D01*
D02*
G37*
%LPC*%
G36*
X15533Y81906D02*
X15391D01*
X15380Y81905D01*
X15370Y81904D01*
X15351Y81899D01*
X15334Y81892D01*
X15319Y81885D01*
X15307Y81877D01*
X15299Y81871D01*
X15295Y81868D01*
X15293Y81866D01*
X15292Y81865D01*
X15291Y81864D01*
X15284Y81856D01*
X15277Y81848D01*
X15272Y81840D01*
X15267Y81831D01*
X15259Y81814D01*
X15254Y81798D01*
X15252Y81784D01*
X15250Y81778D01*
Y81773D01*
X15249Y81769D01*
Y81766D01*
Y81764D01*
Y81763D01*
Y81669D01*
X15250Y81658D01*
X15251Y81647D01*
X15256Y81628D01*
X15263Y81612D01*
X15270Y81597D01*
X15278Y81585D01*
X15281Y81580D01*
X15284Y81576D01*
X15287Y81572D01*
X15289Y81570D01*
X15290Y81569D01*
X15291Y81568D01*
X15299Y81561D01*
X15307Y81555D01*
X15315Y81549D01*
X15324Y81545D01*
X15340Y81537D01*
X15356Y81532D01*
X15370Y81530D01*
X15376Y81529D01*
X15381Y81528D01*
X15385Y81527D01*
X15391D01*
X15402Y81528D01*
X15413Y81529D01*
X15432Y81534D01*
X15449Y81541D01*
X15464Y81548D01*
X15476Y81556D01*
X15484Y81562D01*
X15488Y81565D01*
X15490Y81567D01*
X15491Y81567D01*
X15492Y81568D01*
X15499Y81576D01*
X15505Y81584D01*
X15511Y81592D01*
X15515Y81602D01*
X15523Y81618D01*
X15528Y81634D01*
X15530Y81648D01*
X15531Y81654D01*
X15532Y81659D01*
X15533Y81663D01*
Y81667D01*
Y81668D01*
Y81669D01*
Y81906D01*
D02*
G37*
G36*
X28595Y84444D02*
X28590D01*
X28579Y84443D01*
X28569Y84442D01*
X28550Y84437D01*
X28532Y84430D01*
X28518Y84423D01*
X28505Y84415D01*
X28497Y84409D01*
X28494Y84406D01*
X28491Y84404D01*
X28490Y84403D01*
X28490Y84402D01*
X28482Y84394D01*
X28475Y84385D01*
X28470Y84377D01*
X28465Y84369D01*
X28458Y84352D01*
X28453Y84336D01*
X28451Y84322D01*
X28449Y84316D01*
Y84311D01*
X28448Y84307D01*
Y84304D01*
Y84302D01*
Y84301D01*
X28449Y84290D01*
X28450Y84280D01*
X28455Y84260D01*
X28461Y84244D01*
X28469Y84229D01*
X28476Y84217D01*
X28480Y84212D01*
X28483Y84208D01*
X28485Y84205D01*
X28488Y84202D01*
X28489Y84201D01*
X28490Y84200D01*
X28497Y84193D01*
X28505Y84187D01*
X28514Y84181D01*
X28522Y84177D01*
X28539Y84170D01*
X28555Y84165D01*
X28569Y84162D01*
X28575Y84161D01*
X28580Y84160D01*
X28584Y84160D01*
X28590D01*
X28600Y84160D01*
X28611Y84161D01*
X28630Y84166D01*
X28648Y84173D01*
X28662Y84180D01*
X28675Y84188D01*
X28683Y84194D01*
X28686Y84197D01*
X28689Y84199D01*
X28690Y84200D01*
X28690Y84200D01*
X28698Y84209D01*
X28704Y84217D01*
X28710Y84225D01*
X28714Y84234D01*
X28721Y84250D01*
X28726Y84266D01*
X28729Y84280D01*
X28730Y84286D01*
X28730Y84291D01*
X28731Y84295D01*
Y84299D01*
Y84300D01*
Y84301D01*
X28730Y84312D01*
X28730Y84323D01*
X28725Y84342D01*
X28718Y84360D01*
X28710Y84375D01*
X28703Y84386D01*
X28697Y84395D01*
X28694Y84398D01*
X28692Y84400D01*
X28691Y84401D01*
X28690Y84402D01*
X28683Y84410D01*
X28675Y84416D01*
X28666Y84421D01*
X28657Y84426D01*
X28640Y84434D01*
X28625Y84439D01*
X28610Y84441D01*
X28605Y84443D01*
X28600D01*
X28595Y84444D01*
D02*
G37*
G36*
Y84065D02*
X28590D01*
X28579Y84064D01*
X28569Y84063D01*
X28550Y84058D01*
X28532Y84051D01*
X28518Y84044D01*
X28505Y84036D01*
X28497Y84030D01*
X28494Y84027D01*
X28491Y84025D01*
X28490Y84024D01*
X28490Y84023D01*
X28482Y84015D01*
X28475Y84007D01*
X28470Y83998D01*
X28465Y83990D01*
X28458Y83973D01*
X28453Y83957D01*
X28451Y83944D01*
X28449Y83938D01*
Y83933D01*
X28448Y83929D01*
Y83925D01*
Y83924D01*
Y83923D01*
Y83828D01*
X28449Y83817D01*
X28450Y83806D01*
X28455Y83787D01*
X28461Y83771D01*
X28469Y83756D01*
X28476Y83744D01*
X28480Y83739D01*
X28483Y83735D01*
X28485Y83731D01*
X28488Y83729D01*
X28489Y83728D01*
X28490Y83727D01*
X28497Y83720D01*
X28505Y83714D01*
X28514Y83708D01*
X28522Y83704D01*
X28539Y83696D01*
X28555Y83691D01*
X28569Y83689D01*
X28575Y83688D01*
X28580Y83687D01*
X28584Y83686D01*
X28590D01*
X28600Y83687D01*
X28611Y83688D01*
X28630Y83693D01*
X28648Y83700D01*
X28662Y83707D01*
X28675Y83715D01*
X28683Y83721D01*
X28686Y83724D01*
X28689Y83726D01*
X28690Y83726D01*
X28690Y83727D01*
X28698Y83736D01*
X28704Y83744D01*
X28710Y83752D01*
X28714Y83761D01*
X28721Y83777D01*
X28726Y83793D01*
X28729Y83807D01*
X28730Y83813D01*
X28730Y83818D01*
X28731Y83822D01*
Y83826D01*
Y83827D01*
Y83828D01*
Y83923D01*
X28730Y83934D01*
X28730Y83945D01*
X28725Y83964D01*
X28718Y83980D01*
X28710Y83995D01*
X28703Y84007D01*
X28697Y84015D01*
X28694Y84019D01*
X28692Y84021D01*
X28691Y84022D01*
X28690Y84023D01*
X28683Y84030D01*
X28675Y84037D01*
X28666Y84042D01*
X28657Y84047D01*
X28640Y84055D01*
X28625Y84060D01*
X28610Y84062D01*
X28605Y84064D01*
X28600D01*
X28595Y84065D01*
D02*
G37*
G36*
X24236Y37200D02*
X24230D01*
X24219Y37199D01*
X24209Y37198D01*
X24190Y37193D01*
X24173Y37186D01*
X24159Y37179D01*
X24146Y37171D01*
X24138Y37165D01*
X24134Y37162D01*
X24132Y37160D01*
X24131Y37159D01*
X24130Y37158D01*
X24123Y37150D01*
X24116Y37142D01*
X24111Y37133D01*
X24106Y37125D01*
X24099Y37108D01*
X24094Y37092D01*
X24091Y37079D01*
X24089Y37073D01*
Y37068D01*
X24089Y37064D01*
Y37061D01*
Y37059D01*
Y37058D01*
Y36821D01*
X24230D01*
X24241Y36822D01*
X24252Y36823D01*
X24271Y36828D01*
X24289Y36835D01*
X24303Y36842D01*
X24315Y36850D01*
X24324Y36856D01*
X24327Y36859D01*
X24329Y36861D01*
X24330Y36861D01*
X24331Y36862D01*
X24339Y36871D01*
X24344Y36879D01*
X24350Y36887D01*
X24354Y36896D01*
X24362Y36912D01*
X24367Y36928D01*
X24369Y36942D01*
X24370Y36948D01*
X24371Y36953D01*
X24372Y36957D01*
Y36961D01*
Y36962D01*
Y36963D01*
Y37058D01*
X24371Y37069D01*
X24370Y37079D01*
X24365Y37098D01*
X24359Y37116D01*
X24351Y37130D01*
X24344Y37142D01*
X24338Y37151D01*
X24334Y37154D01*
X24333Y37156D01*
X24332Y37157D01*
X24331Y37158D01*
X24323Y37166D01*
X24314Y37172D01*
X24306Y37177D01*
X24298Y37182D01*
X24281Y37190D01*
X24265Y37195D01*
X24251Y37197D01*
X24245Y37199D01*
X24240D01*
X24236Y37200D01*
D02*
G37*
G36*
X45826Y80786D02*
X45820D01*
X45809Y80785D01*
X45799Y80784D01*
X45780Y80779D01*
X45763Y80773D01*
X45749Y80765D01*
X45736Y80758D01*
X45728Y80751D01*
X45724Y80749D01*
X45722Y80746D01*
X45721Y80745D01*
X45720Y80744D01*
X45713Y80736D01*
X45706Y80728D01*
X45701Y80719D01*
X45696Y80711D01*
X45689Y80694D01*
X45684Y80679D01*
X45681Y80664D01*
X45679Y80659D01*
Y80654D01*
X45679Y80649D01*
Y80646D01*
Y80644D01*
Y80644D01*
X45679Y80633D01*
X45680Y80622D01*
X45685Y80603D01*
X45692Y80586D01*
X45699Y80571D01*
X45707Y80559D01*
X45710Y80554D01*
X45714Y80550D01*
X45716Y80547D01*
X45719Y80544D01*
X45719Y80544D01*
X45720Y80543D01*
X45728Y80535D01*
X45736Y80529D01*
X45744Y80524D01*
X45753Y80519D01*
X45769Y80512D01*
X45785Y80507D01*
X45799Y80504D01*
X45805Y80504D01*
X45810Y80503D01*
X45814Y80502D01*
X45820D01*
X45831Y80503D01*
X45842Y80504D01*
X45861Y80509D01*
X45879Y80515D01*
X45893Y80523D01*
X45905Y80530D01*
X45914Y80536D01*
X45917Y80539D01*
X45919Y80541D01*
X45920Y80542D01*
X45921Y80543D01*
X45929Y80551D01*
X45934Y80559D01*
X45940Y80568D01*
X45944Y80576D01*
X45952Y80593D01*
X45957Y80609D01*
X45959Y80623D01*
X45960Y80629D01*
X45961Y80634D01*
X45962Y80638D01*
Y80641D01*
Y80643D01*
Y80644D01*
X45961Y80654D01*
X45960Y80665D01*
X45955Y80684D01*
X45949Y80702D01*
X45941Y80717D01*
X45934Y80729D01*
X45928Y80737D01*
X45924Y80740D01*
X45923Y80743D01*
X45922Y80744D01*
X45921Y80744D01*
X45914Y80752D01*
X45905Y80759D01*
X45897Y80764D01*
X45888Y80769D01*
X45871Y80776D01*
X45855Y80781D01*
X45841Y80784D01*
X45835Y80785D01*
X45830D01*
X45826Y80786D01*
D02*
G37*
G36*
Y80407D02*
X45820D01*
X45809Y80406D01*
X45799Y80405D01*
X45780Y80400D01*
X45763Y80394D01*
X45749Y80386D01*
X45736Y80379D01*
X45728Y80372D01*
X45724Y80370D01*
X45722Y80367D01*
X45721Y80366D01*
X45720Y80365D01*
X45713Y80357D01*
X45706Y80350D01*
X45701Y80340D01*
X45696Y80332D01*
X45689Y80315D01*
X45684Y80300D01*
X45681Y80286D01*
X45679Y80280D01*
Y80275D01*
X45679Y80271D01*
Y80268D01*
Y80266D01*
Y80265D01*
Y80170D01*
X45679Y80160D01*
X45680Y80149D01*
X45685Y80130D01*
X45692Y80113D01*
X45699Y80098D01*
X45707Y80086D01*
X45710Y80081D01*
X45714Y80077D01*
X45716Y80074D01*
X45719Y80071D01*
X45719Y80070D01*
X45720Y80070D01*
X45728Y80062D01*
X45736Y80056D01*
X45744Y80050D01*
X45753Y80046D01*
X45769Y80039D01*
X45785Y80034D01*
X45799Y80031D01*
X45805Y80030D01*
X45810Y80030D01*
X45814Y80029D01*
X45820D01*
X45831Y80030D01*
X45842Y80030D01*
X45861Y80035D01*
X45879Y80042D01*
X45893Y80050D01*
X45905Y80057D01*
X45914Y80063D01*
X45917Y80066D01*
X45919Y80068D01*
X45920Y80069D01*
X45921Y80070D01*
X45929Y80078D01*
X45934Y80086D01*
X45940Y80095D01*
X45944Y80103D01*
X45952Y80120D01*
X45957Y80135D01*
X45959Y80150D01*
X45960Y80155D01*
X45961Y80160D01*
X45962Y80165D01*
Y80168D01*
Y80170D01*
Y80170D01*
Y80265D01*
X45961Y80276D01*
X45960Y80287D01*
X45955Y80306D01*
X45949Y80323D01*
X45941Y80338D01*
X45934Y80350D01*
X45928Y80358D01*
X45924Y80361D01*
X45923Y80364D01*
X45922Y80365D01*
X45921Y80365D01*
X45914Y80373D01*
X45905Y80380D01*
X45897Y80385D01*
X45888Y80390D01*
X45871Y80397D01*
X45855Y80402D01*
X45841Y80405D01*
X45835Y80406D01*
X45830D01*
X45826Y80407D01*
D02*
G37*
G36*
X45824Y84215D02*
X45820D01*
X45813Y84214D01*
X45806Y84213D01*
X45793Y84208D01*
X45780Y84201D01*
X45769Y84191D01*
X45759Y84178D01*
X45749Y84165D01*
X45740Y84151D01*
X45733Y84137D01*
X45726Y84122D01*
X45720Y84108D01*
X45715Y84094D01*
X45711Y84083D01*
X45709Y84072D01*
X45706Y84064D01*
X45704Y84059D01*
Y84058D01*
Y84058D01*
X45696Y84018D01*
X45689Y83979D01*
X45687Y83960D01*
X45685Y83942D01*
X45683Y83924D01*
X45682Y83908D01*
X45681Y83893D01*
X45680Y83879D01*
X45679Y83867D01*
X45679Y83856D01*
Y83848D01*
Y83841D01*
Y83838D01*
Y83836D01*
X45679Y83793D01*
X45683Y83752D01*
X45684Y83733D01*
X45687Y83714D01*
X45689Y83698D01*
X45691Y83682D01*
X45694Y83667D01*
X45696Y83654D01*
X45699Y83643D01*
X45700Y83633D01*
X45702Y83625D01*
X45704Y83619D01*
X45704Y83615D01*
Y83614D01*
X45708Y83600D01*
X45712Y83587D01*
X45716Y83574D01*
X45720Y83563D01*
X45729Y83542D01*
X45739Y83524D01*
X45748Y83509D01*
X45758Y83496D01*
X45767Y83485D01*
X45776Y83478D01*
X45785Y83471D01*
X45794Y83466D01*
X45801Y83463D01*
X45808Y83460D01*
X45813Y83459D01*
X45817Y83458D01*
X45820D01*
X45828Y83459D01*
X45834Y83459D01*
X45848Y83464D01*
X45860Y83472D01*
X45872Y83482D01*
X45883Y83494D01*
X45892Y83508D01*
X45900Y83521D01*
X45909Y83536D01*
X45915Y83551D01*
X45921Y83565D01*
X45926Y83578D01*
X45929Y83590D01*
X45933Y83600D01*
X45935Y83608D01*
X45936Y83613D01*
X45937Y83614D01*
Y83614D01*
X45945Y83654D01*
X45951Y83694D01*
X45954Y83713D01*
X45956Y83731D01*
X45958Y83749D01*
X45959Y83764D01*
X45959Y83780D01*
X45960Y83794D01*
X45961Y83806D01*
Y83816D01*
X45962Y83824D01*
Y83831D01*
Y83834D01*
Y83836D01*
X45961Y83879D01*
X45958Y83919D01*
X45956Y83938D01*
X45954Y83957D01*
X45952Y83973D01*
X45949Y83989D01*
X45947Y84004D01*
X45944Y84018D01*
X45943Y84028D01*
X45941Y84038D01*
X45939Y84046D01*
X45938Y84052D01*
X45937Y84056D01*
Y84057D01*
X45934Y84071D01*
X45929Y84084D01*
X45925Y84098D01*
X45921Y84109D01*
X45912Y84130D01*
X45903Y84148D01*
X45893Y84163D01*
X45883Y84177D01*
X45874Y84187D01*
X45864Y84195D01*
X45855Y84202D01*
X45847Y84207D01*
X45839Y84210D01*
X45833Y84213D01*
X45828Y84214D01*
X45824Y84215D01*
D02*
G37*
G36*
X36199Y80407D02*
X36057D01*
X36046Y80406D01*
X36036Y80405D01*
X36017Y80400D01*
X36000Y80394D01*
X35986Y80386D01*
X35973Y80379D01*
X35965Y80372D01*
X35961Y80370D01*
X35959Y80367D01*
X35958Y80366D01*
X35957Y80365D01*
X35950Y80358D01*
X35943Y80350D01*
X35938Y80341D01*
X35933Y80332D01*
X35926Y80315D01*
X35921Y80300D01*
X35918Y80285D01*
X35916Y80280D01*
Y80275D01*
X35916Y80270D01*
Y80267D01*
Y80265D01*
Y80265D01*
Y80170D01*
X35916Y80160D01*
X35917Y80149D01*
X35922Y80130D01*
X35929Y80113D01*
X35936Y80098D01*
X35944Y80086D01*
X35947Y80081D01*
X35951Y80077D01*
X35953Y80074D01*
X35956Y80071D01*
X35956Y80070D01*
X35957Y80070D01*
X35965Y80062D01*
X35973Y80056D01*
X35981Y80050D01*
X35990Y80046D01*
X36006Y80039D01*
X36022Y80034D01*
X36036Y80031D01*
X36042Y80030D01*
X36047Y80030D01*
X36051Y80029D01*
X36057D01*
X36068Y80030D01*
X36079Y80030D01*
X36098Y80035D01*
X36116Y80042D01*
X36130Y80050D01*
X36142Y80057D01*
X36151Y80063D01*
X36154Y80066D01*
X36156Y80068D01*
X36157Y80069D01*
X36158Y80070D01*
X36166Y80077D01*
X36171Y80085D01*
X36177Y80094D01*
X36181Y80103D01*
X36189Y80120D01*
X36194Y80135D01*
X36196Y80150D01*
X36197Y80155D01*
X36198Y80160D01*
X36199Y80165D01*
Y80168D01*
Y80170D01*
Y80170D01*
Y80407D01*
D02*
G37*
%LPD*%
D11*
X18293Y93396D02*
Y95396D01*
X14893Y93396D02*
X18293D01*
X14893D02*
Y95396D01*
X18293D01*
Y89078D02*
Y91078D01*
X14893Y89078D02*
X18293D01*
X14893D02*
Y91078D01*
X18293D01*
X15231Y77461D02*
X17231D01*
X15231D02*
Y80861D01*
X17231D01*
Y77461D02*
Y80861D01*
X17263Y77425D02*
X19263D01*
X17263D02*
Y80825D01*
X19263D01*
Y77425D02*
Y80825D01*
X28439Y83020D02*
X30439D01*
Y79620D02*
Y83020D01*
X28439Y79620D02*
X30439D01*
X28439D02*
Y83020D01*
X26407D02*
X28407D01*
Y79620D02*
Y83020D01*
X26407Y79620D02*
X28407D01*
X26407D02*
Y83020D01*
X27468Y33757D02*
Y35757D01*
X24068Y33757D02*
X27468D01*
X24068D02*
Y35757D01*
X27468D01*
X21782Y42901D02*
Y44901D01*
X25182D01*
Y42901D02*
Y44901D01*
X21782Y42901D02*
X25182D01*
X27468Y31725D02*
Y33725D01*
X24068Y31725D02*
X27468D01*
X24068D02*
Y33725D01*
X27468D01*
X21782Y44806D02*
Y46806D01*
X25182D01*
Y44806D02*
Y46806D01*
X21782Y44806D02*
X25182D01*
X47699Y82786D02*
X49699D01*
Y79386D02*
Y82786D01*
X47699Y79386D02*
X49699D01*
X47699D02*
Y82786D01*
X45667Y79356D02*
X47667D01*
Y75956D02*
Y79356D01*
X45667Y75956D02*
X47667D01*
X45667D02*
Y79356D01*
X47699D02*
X49699D01*
Y75956D02*
Y79356D01*
X47699Y75956D02*
X49699D01*
X47699D02*
Y79356D01*
X45667Y82785D02*
X47667D01*
Y79385D02*
Y82785D01*
X45667Y79385D02*
X47667D01*
X45667D02*
Y82785D01*
X33856Y75956D02*
X35856D01*
X33856D02*
Y79356D01*
X35856D01*
Y75956D02*
Y79356D01*
X35888Y75956D02*
X37888D01*
X35888D02*
Y79356D01*
X37888D01*
Y75956D02*
Y79356D01*
M02*
