G04*
G04 #@! TF.GenerationSoftware,Altium Limited,Altium Designer,23.11.1 (41)*
G04*
G04 Layer_Physical_Order=2*
G04 Layer_Color=16711680*
%FSLAX43Y43*%
%MOMM*%
G71*
G04*
G04 #@! TF.SameCoordinates,5C86F8B5-C48D-4B9D-AEF1-1A40F40C4F51*
G04*
G04*
G04 #@! TF.FilePolarity,Positive*
G04*
G01*
G75*
%ADD39R,1.500X1.000*%
%ADD40R,1.000X1.500*%
%ADD46C,0.381*%
%ADD47C,0.800*%
%ADD48R,1.400X1.400*%
%ADD49C,1.400*%
%ADD50C,3.300*%
%ADD51C,2.400*%
%ADD52R,2.400X2.400*%
%ADD53C,4.000*%
%ADD54C,1.508*%
%ADD55C,1.500*%
%ADD56R,1.500X1.500*%
%ADD57R,1.508X1.508*%
%ADD58R,1.400X1.400*%
%ADD59C,0.700*%
%ADD60C,1.000*%
G36*
X91213Y94187D02*
X91150Y94070D01*
X91065Y94087D01*
X90701D01*
X90343Y94016D01*
X90007Y93876D01*
X89704Y93674D01*
X89446Y93416D01*
X89244Y93113D01*
X89104Y92777D01*
X89033Y92419D01*
Y92055D01*
X89104Y91697D01*
X89244Y91361D01*
X89446Y91058D01*
X89704Y90800D01*
X90007Y90598D01*
X90343Y90458D01*
X90701Y90387D01*
X91065D01*
X91423Y90458D01*
X91759Y90598D01*
X91788Y90617D01*
X91900Y90557D01*
Y5100D01*
X90000Y3200D01*
X83500D01*
X81816Y4900D01*
X82565Y84035D01*
X80300Y86300D01*
X22800D01*
X21800Y85300D01*
Y77500D01*
X20400Y76100D01*
X17900Y76100D01*
X16100Y76100D01*
X12300Y79900D01*
Y91038D01*
X12320Y91058D01*
X12522Y91361D01*
X12662Y91697D01*
X12733Y92055D01*
Y92419D01*
X12662Y92777D01*
X12522Y93113D01*
X12320Y93416D01*
X12300Y93436D01*
Y93700D01*
X15000Y96400D01*
X89000D01*
X91213Y94187D01*
D02*
G37*
G36*
X34000Y80100D02*
X39100D01*
X39525Y79675D01*
X39459Y79561D01*
X39419Y79572D01*
X39183D01*
X38954Y79511D01*
X38748Y79392D01*
X38581Y79225D01*
X38462Y79019D01*
X38401Y78790D01*
Y78554D01*
X38462Y78325D01*
X38581Y78119D01*
X38748Y77952D01*
X38954Y77833D01*
X39183Y77772D01*
X39419D01*
X39648Y77833D01*
X39854Y77952D01*
X40021Y78119D01*
X40140Y78325D01*
X40201Y78554D01*
Y78790D01*
X40190Y78830D01*
X40304Y78896D01*
X40800Y78400D01*
Y75100D01*
X40700D01*
X39100Y73500D01*
X29600D01*
X28800Y72700D01*
Y44700D01*
X25519Y41419D01*
X25418Y41497D01*
X25432Y41522D01*
X25493Y41751D01*
Y41987D01*
X25432Y42216D01*
X25313Y42422D01*
X25146Y42589D01*
X24940Y42708D01*
X24898Y42719D01*
Y42951D01*
X25107D01*
Y44851D01*
X25107D01*
Y44856D01*
X25107D01*
Y46756D01*
X23707D01*
Y44856D01*
X23707D01*
Y44851D01*
X23707D01*
Y42951D01*
X24102D01*
Y42625D01*
X24040Y42589D01*
X23873Y42422D01*
X23754Y42216D01*
X23693Y41987D01*
Y41751D01*
X23754Y41522D01*
X23873Y41316D01*
X23962Y41227D01*
X23910Y41100D01*
X23493D01*
Y41769D01*
X22593D01*
X21693D01*
Y41100D01*
X20400Y41100D01*
X10700Y50800D01*
X10700Y58100D01*
X12600Y60000D01*
X19300D01*
X23000Y63700D01*
Y81300D01*
X24358Y82658D01*
X24475Y82609D01*
Y82309D01*
X25275D01*
Y83109D01*
X24975D01*
X24926Y83226D01*
X25300Y83600D01*
X30500D01*
X34000Y80100D01*
D02*
G37*
G36*
X79500Y81700D02*
Y23100D01*
X76100Y19700D01*
X69700D01*
X60900Y28500D01*
X50000D01*
X48200Y30300D01*
Y48900D01*
X44600Y52500D01*
X33800D01*
X32000Y54300D01*
Y61100D01*
X40800Y70000D01*
Y70100D01*
X42500Y71800D01*
Y80200D01*
X43500Y81200D01*
X43602Y81122D01*
X43542Y81019D01*
X43481Y80790D01*
Y80554D01*
X43542Y80325D01*
X43661Y80119D01*
X43828Y79952D01*
X44034Y79833D01*
X44263Y79772D01*
X44499D01*
X44728Y79833D01*
X44934Y79952D01*
X45101Y80119D01*
X45220Y80325D01*
X45281Y80554D01*
Y80790D01*
X45235Y80963D01*
X45622Y81350D01*
X45717Y81310D01*
Y81310D01*
X47617D01*
Y81613D01*
X47749D01*
Y81311D01*
X49649D01*
Y82711D01*
X47749D01*
Y82409D01*
X47617D01*
Y82710D01*
X45717D01*
Y82409D01*
X45568Y82379D01*
X45439Y82293D01*
X44672Y81526D01*
X44499Y81572D01*
X44263D01*
X44034Y81511D01*
X43931Y81451D01*
X43853Y81553D01*
X45700Y83400D01*
X55592D01*
X55641Y83283D01*
X49795Y77437D01*
X48699D01*
X48653Y77431D01*
X47749D01*
Y77408D01*
X47617D01*
Y77431D01*
X45717D01*
Y77408D01*
X44907D01*
X44728Y77511D01*
X44499Y77572D01*
X44263D01*
X44034Y77511D01*
X43828Y77392D01*
X43661Y77225D01*
X43542Y77019D01*
X43481Y76790D01*
Y76554D01*
X43542Y76325D01*
X43661Y76119D01*
X43828Y75952D01*
X44034Y75833D01*
X44263Y75772D01*
X44499D01*
X44728Y75833D01*
X44934Y75952D01*
X44977Y75995D01*
X48669D01*
X48852Y76020D01*
X48865Y76025D01*
X50087D01*
X50270Y76049D01*
X50440Y76120D01*
X50587Y76232D01*
X57755Y83400D01*
X77800D01*
X79500Y81700D01*
D02*
G37*
G36*
X43500Y40400D02*
Y37900D01*
X42400Y36800D01*
X30500D01*
X28100Y34400D01*
Y30800D01*
X27300Y30000D01*
X24600D01*
X23400Y31200D01*
Y36387D01*
X23432Y36442D01*
X23493Y36671D01*
Y36907D01*
X23432Y37136D01*
X23400Y37191D01*
Y37200D01*
X27649Y41449D01*
X27808Y41428D01*
X27873Y41316D01*
X28040Y41149D01*
X28246Y41030D01*
X28475Y40969D01*
X28711D01*
X28940Y41030D01*
X29146Y41149D01*
X29313Y41316D01*
X29432Y41522D01*
X29493Y41751D01*
Y41987D01*
X29432Y42216D01*
X29313Y42422D01*
X29146Y42589D01*
X29034Y42654D01*
X29013Y42813D01*
X30900Y44700D01*
X39200D01*
X43500Y40400D01*
D02*
G37*
%LPC*%
G36*
X16368Y95346D02*
X15768D01*
Y94496D01*
X16368D01*
Y95346D01*
D02*
G37*
G36*
X15568D02*
X14968D01*
Y94496D01*
X15568D01*
Y95346D01*
D02*
G37*
G36*
X16368Y94296D02*
X15668D01*
X14968D01*
Y93446D01*
X15270D01*
Y93137D01*
X15205D01*
X14976Y93076D01*
X14770Y92957D01*
X14603Y92790D01*
X14484Y92584D01*
X14423Y92355D01*
Y92337D01*
X16223D01*
Y92355D01*
X16162Y92584D01*
X16050Y92777D01*
X16066Y92858D01*
Y93446D01*
X16368D01*
Y94296D01*
D02*
G37*
G36*
X84021Y93137D02*
X83785D01*
X83556Y93076D01*
X83350Y92957D01*
X83183Y92790D01*
X83064Y92584D01*
X83003Y92355D01*
Y92119D01*
X83064Y91890D01*
X83183Y91684D01*
X83350Y91517D01*
X83556Y91398D01*
X83785Y91337D01*
X84021D01*
X84250Y91398D01*
X84456Y91517D01*
X84623Y91684D01*
X84742Y91890D01*
X84803Y92119D01*
Y92355D01*
X84742Y92584D01*
X84623Y92790D01*
X84456Y92957D01*
X84250Y93076D01*
X84021Y93137D01*
D02*
G37*
G36*
X66241D02*
X66005D01*
X65776Y93076D01*
X65570Y92957D01*
X65403Y92790D01*
X65284Y92584D01*
X65223Y92355D01*
Y92119D01*
X65284Y91890D01*
X65403Y91684D01*
X65570Y91517D01*
X65776Y91398D01*
X66005Y91337D01*
X66241D01*
X66470Y91398D01*
X66676Y91517D01*
X66843Y91684D01*
X66962Y91890D01*
X67023Y92119D01*
Y92355D01*
X66962Y92584D01*
X66843Y92790D01*
X66676Y92957D01*
X66470Y93076D01*
X66241Y93137D01*
D02*
G37*
G36*
X23061D02*
X22825D01*
X22596Y93076D01*
X22390Y92957D01*
X22223Y92790D01*
X22104Y92584D01*
X22043Y92355D01*
Y92119D01*
X22104Y91890D01*
X22223Y91684D01*
X22390Y91517D01*
X22596Y91398D01*
X22825Y91337D01*
X23061D01*
X23290Y91398D01*
X23496Y91517D01*
X23663Y91684D01*
X23782Y91890D01*
X23843Y92119D01*
Y92355D01*
X23782Y92584D01*
X23663Y92790D01*
X23496Y92957D01*
X23290Y93076D01*
X23061Y93137D01*
D02*
G37*
G36*
X20521D02*
X20285D01*
X20056Y93076D01*
X19850Y92957D01*
X19683Y92790D01*
X19564Y92584D01*
X19503Y92355D01*
Y92119D01*
X19564Y91890D01*
X19683Y91684D01*
X19850Y91517D01*
X20056Y91398D01*
X20285Y91337D01*
X20521D01*
X20750Y91398D01*
X20956Y91517D01*
X21123Y91684D01*
X21242Y91890D01*
X21303Y92119D01*
Y92355D01*
X21242Y92584D01*
X21123Y92790D01*
X20956Y92957D01*
X20750Y93076D01*
X20521Y93137D01*
D02*
G37*
G36*
X16223Y92137D02*
X14423D01*
Y92119D01*
X14484Y91890D01*
X14603Y91684D01*
X14770Y91517D01*
X14925Y91428D01*
Y90673D01*
X14955Y90521D01*
X14968Y90501D01*
Y90178D01*
X15668D01*
X16368D01*
Y91028D01*
X15721D01*
Y91428D01*
X15876Y91517D01*
X16043Y91684D01*
X16162Y91890D01*
X16223Y92119D01*
Y92137D01*
D02*
G37*
G36*
X18218Y95346D02*
X16818D01*
Y93446D01*
X17120D01*
Y92858D01*
X17136Y92777D01*
X17024Y92584D01*
X16963Y92355D01*
Y92119D01*
X17024Y91890D01*
X17136Y91697D01*
X17120Y91616D01*
Y91028D01*
X16818D01*
Y89128D01*
X18218D01*
Y91028D01*
X17916D01*
Y91337D01*
X17981D01*
X18210Y91398D01*
X18416Y91517D01*
X18583Y91684D01*
X18702Y91890D01*
X18763Y92119D01*
Y92355D01*
X18702Y92584D01*
X18583Y92790D01*
X18416Y92957D01*
X18210Y93076D01*
X17981Y93137D01*
X17916D01*
Y93446D01*
X18218D01*
Y95346D01*
D02*
G37*
G36*
X16368Y89978D02*
X15768D01*
Y89128D01*
X16368D01*
Y89978D01*
D02*
G37*
G36*
X15568D02*
X14968D01*
Y89128D01*
X15568D01*
Y89978D01*
D02*
G37*
G36*
X20413Y83109D02*
X20177D01*
X19948Y83048D01*
X19742Y82929D01*
X19575Y82762D01*
X19456Y82556D01*
X19395Y82327D01*
Y82091D01*
X19456Y81862D01*
X19575Y81656D01*
X19742Y81489D01*
X19948Y81370D01*
X20177Y81309D01*
X20413D01*
X20642Y81370D01*
X20848Y81489D01*
X21015Y81656D01*
X21134Y81862D01*
X21195Y82091D01*
Y82327D01*
X21134Y82556D01*
X21015Y82762D01*
X20848Y82929D01*
X20642Y83048D01*
X20413Y83109D01*
D02*
G37*
G36*
X20195Y81109D02*
X20177D01*
X19948Y81048D01*
X19742Y80929D01*
X19575Y80762D01*
X19456Y80556D01*
X19453Y80546D01*
X19213D01*
Y80750D01*
X18363D01*
Y80050D01*
Y79350D01*
X19213D01*
Y79749D01*
X19521D01*
X19575Y79656D01*
X19742Y79489D01*
X19948Y79370D01*
X20177Y79309D01*
X20195D01*
Y80209D01*
X20295D01*
D01*
X20195D01*
Y81109D01*
D02*
G37*
G36*
X20413D02*
X20395D01*
Y80309D01*
X21195D01*
Y80327D01*
X21134Y80556D01*
X21015Y80762D01*
X20848Y80929D01*
X20642Y81048D01*
X20413Y81109D01*
D02*
G37*
G36*
X16131Y80786D02*
X15281D01*
Y80186D01*
X16131D01*
Y80786D01*
D02*
G37*
G36*
Y79986D02*
X15281D01*
Y79386D01*
X16131D01*
Y79986D01*
D02*
G37*
G36*
X17181Y80786D02*
X16331D01*
Y80086D01*
Y79386D01*
X17181D01*
Y79749D01*
X17313D01*
Y79350D01*
X18163D01*
Y80050D01*
Y80750D01*
X17313D01*
Y80546D01*
X17181D01*
Y80786D01*
D02*
G37*
G36*
X21195Y80109D02*
X20395D01*
Y79309D01*
X20413D01*
X20642Y79370D01*
X20848Y79489D01*
X21015Y79656D01*
X21134Y79862D01*
X21195Y80091D01*
Y80109D01*
D02*
G37*
G36*
X20413Y79109D02*
X20177D01*
X19948Y79048D01*
X19742Y78929D01*
X19575Y78762D01*
X19493Y78621D01*
X19213D01*
Y78900D01*
X17313D01*
Y78621D01*
X17181D01*
Y78936D01*
X15281D01*
Y77536D01*
X17181D01*
Y77824D01*
X17313D01*
Y77500D01*
X19213D01*
Y77824D01*
X19478D01*
X19575Y77656D01*
X19742Y77489D01*
X19948Y77370D01*
X20177Y77309D01*
X20413D01*
X20642Y77370D01*
X20848Y77489D01*
X21015Y77656D01*
X21134Y77862D01*
X21195Y78091D01*
Y78327D01*
X21134Y78556D01*
X21015Y78762D01*
X20848Y78929D01*
X20642Y79048D01*
X20413Y79109D01*
D02*
G37*
G36*
X88405Y73205D02*
X88321D01*
Y71905D01*
X89621D01*
Y71989D01*
X89526Y72345D01*
X89341Y72665D01*
X89081Y72925D01*
X88761Y73110D01*
X88405Y73205D01*
D02*
G37*
G36*
X88121D02*
X88037D01*
X87681Y73110D01*
X87361Y72925D01*
X87101Y72665D01*
X86916Y72345D01*
X86821Y71989D01*
Y71905D01*
X88121D01*
Y73205D01*
D02*
G37*
G36*
X89621Y71705D02*
X88321D01*
Y70405D01*
X88405D01*
X88761Y70500D01*
X89081Y70685D01*
X89341Y70945D01*
X89526Y71265D01*
X89621Y71621D01*
Y71705D01*
D02*
G37*
G36*
X88121D02*
X86821D01*
Y71621D01*
X86916Y71265D01*
X87101Y70945D01*
X87361Y70685D01*
X87681Y70500D01*
X88037Y70405D01*
X88121D01*
Y71705D01*
D02*
G37*
G36*
X89621Y68125D02*
X86821D01*
Y65325D01*
X89621D01*
Y68125D01*
D02*
G37*
G36*
X88024Y54598D02*
X87940D01*
Y53298D01*
X89240D01*
Y53382D01*
X89145Y53738D01*
X88960Y54058D01*
X88700Y54318D01*
X88380Y54503D01*
X88024Y54598D01*
D02*
G37*
G36*
X87740D02*
X87656D01*
X87300Y54503D01*
X86980Y54318D01*
X86720Y54058D01*
X86535Y53738D01*
X86440Y53382D01*
Y53298D01*
X87740D01*
Y54598D01*
D02*
G37*
G36*
X89240Y53098D02*
X87940D01*
Y51798D01*
X88024D01*
X88380Y51893D01*
X88700Y52078D01*
X88960Y52338D01*
X89145Y52658D01*
X89240Y53014D01*
Y53098D01*
D02*
G37*
G36*
X87740D02*
X86440D01*
Y53014D01*
X86535Y52658D01*
X86720Y52338D01*
X86980Y52078D01*
X87300Y51893D01*
X87656Y51798D01*
X87740D01*
Y53098D01*
D02*
G37*
G36*
X89240Y49518D02*
X86440D01*
Y46718D01*
X89240D01*
Y49518D01*
D02*
G37*
G36*
X87897Y34992D02*
X87813D01*
Y33692D01*
X89113D01*
Y33776D01*
X89018Y34132D01*
X88833Y34452D01*
X88573Y34712D01*
X88253Y34897D01*
X87897Y34992D01*
D02*
G37*
G36*
X87613D02*
X87529D01*
X87173Y34897D01*
X86853Y34712D01*
X86593Y34452D01*
X86408Y34132D01*
X86313Y33776D01*
Y33692D01*
X87613D01*
Y34992D01*
D02*
G37*
G36*
X89113Y33492D02*
X87813D01*
Y32192D01*
X87897D01*
X88253Y32287D01*
X88573Y32472D01*
X88833Y32732D01*
X89018Y33052D01*
X89113Y33408D01*
Y33492D01*
D02*
G37*
G36*
X87613D02*
X86313D01*
Y33408D01*
X86408Y33052D01*
X86593Y32732D01*
X86853Y32472D01*
X87173Y32287D01*
X87529Y32192D01*
X87613D01*
Y33492D01*
D02*
G37*
G36*
X89113Y29912D02*
X86313D01*
Y27112D01*
X89113D01*
Y29912D01*
D02*
G37*
G36*
X87684Y16480D02*
X87600D01*
Y15180D01*
X88900D01*
Y15264D01*
X88805Y15620D01*
X88620Y15940D01*
X88360Y16200D01*
X88040Y16385D01*
X87684Y16480D01*
D02*
G37*
G36*
X87400D02*
X87316D01*
X86960Y16385D01*
X86640Y16200D01*
X86380Y15940D01*
X86195Y15620D01*
X86100Y15264D01*
Y15180D01*
X87400D01*
Y16480D01*
D02*
G37*
G36*
X88900Y14980D02*
X87600D01*
Y13680D01*
X87684D01*
X88040Y13775D01*
X88360Y13960D01*
X88620Y14220D01*
X88805Y14540D01*
X88900Y14896D01*
Y14980D01*
D02*
G37*
G36*
X87400D02*
X86100D01*
Y14896D01*
X86195Y14540D01*
X86380Y14220D01*
X86640Y13960D01*
X86960Y13775D01*
X87316Y13680D01*
X87400D01*
Y14980D01*
D02*
G37*
G36*
X88900Y11400D02*
X86100D01*
Y8600D01*
X88900D01*
Y11400D01*
D02*
G37*
G36*
X29339Y82945D02*
X28489D01*
Y82839D01*
X28357D01*
Y82945D01*
X27507D01*
Y82245D01*
Y81545D01*
X28357D01*
Y81615D01*
X28489D01*
Y81545D01*
X29339D01*
Y82245D01*
Y82945D01*
D02*
G37*
G36*
X30389D02*
X29539D01*
Y82345D01*
X30389D01*
Y82945D01*
D02*
G37*
G36*
Y82145D02*
X29539D01*
Y81545D01*
X30389D01*
Y82145D01*
D02*
G37*
G36*
X26275Y83109D02*
X25475D01*
Y82209D01*
Y81309D01*
X26275D01*
Y81615D01*
X26457D01*
Y81545D01*
X27307D01*
Y82245D01*
Y82945D01*
X26457D01*
Y82839D01*
X26275D01*
Y83109D01*
D02*
G37*
G36*
X25275Y82109D02*
X24475D01*
Y81309D01*
X25275D01*
Y82109D01*
D02*
G37*
G36*
X25493Y81109D02*
X25257D01*
X25028Y81048D01*
X24822Y80929D01*
X24655Y80762D01*
X24536Y80556D01*
X24475Y80327D01*
Y80091D01*
X24536Y79862D01*
X24655Y79656D01*
X24822Y79489D01*
X25028Y79370D01*
X25257Y79309D01*
X25493D01*
X25722Y79370D01*
X25928Y79489D01*
X26095Y79656D01*
X26214Y79862D01*
X26225Y79904D01*
X26457D01*
Y79695D01*
X28357D01*
Y79904D01*
X28489D01*
Y79695D01*
X30389D01*
Y81095D01*
X28489D01*
Y80700D01*
X28357D01*
Y81095D01*
X26457D01*
Y80700D01*
X26131D01*
X26095Y80762D01*
X25928Y80929D01*
X25722Y81048D01*
X25493Y81109D01*
D02*
G37*
G36*
X37838Y79281D02*
X35938D01*
Y77881D01*
X37838D01*
Y79281D01*
D02*
G37*
G36*
X35806D02*
X33906D01*
Y77881D01*
X35806D01*
Y79281D01*
D02*
G37*
G36*
X37838Y77431D02*
X36988D01*
Y76831D01*
X37838D01*
Y77431D01*
D02*
G37*
G36*
X36788D02*
X35938D01*
Y76831D01*
X36788D01*
Y77431D01*
D02*
G37*
G36*
X35806D02*
X34956D01*
Y76831D01*
X35806D01*
Y77431D01*
D02*
G37*
G36*
X34756D02*
X33906D01*
Y76831D01*
X34756D01*
Y77431D01*
D02*
G37*
G36*
X40201Y77572D02*
X39401D01*
Y76772D01*
X40201D01*
Y77572D01*
D02*
G37*
G36*
X39201D02*
X38401D01*
Y76772D01*
X39201D01*
Y77572D01*
D02*
G37*
G36*
X37838Y76631D02*
X36988D01*
Y76031D01*
X37838D01*
Y76631D01*
D02*
G37*
G36*
X36788D02*
X35938D01*
Y76031D01*
X36788D01*
Y76631D01*
D02*
G37*
G36*
X35806D02*
X34956D01*
Y76031D01*
X35806D01*
Y76631D01*
D02*
G37*
G36*
X34756D02*
X33906D01*
Y76031D01*
X34756D01*
Y76631D01*
D02*
G37*
G36*
X40201Y76572D02*
X39401D01*
Y75772D01*
X40201D01*
Y76572D01*
D02*
G37*
G36*
X39201D02*
X38401D01*
Y75772D01*
X39201D01*
Y76572D01*
D02*
G37*
G36*
X25493Y77109D02*
X25257D01*
X25028Y77048D01*
X24822Y76929D01*
X24655Y76762D01*
X24536Y76556D01*
X24475Y76327D01*
Y76091D01*
X24536Y75862D01*
X24655Y75656D01*
X24822Y75489D01*
X25028Y75370D01*
X25257Y75309D01*
X25493D01*
X25722Y75370D01*
X25928Y75489D01*
X26095Y75656D01*
X26214Y75862D01*
X26275Y76091D01*
Y76327D01*
X26214Y76556D01*
X26095Y76762D01*
X25928Y76929D01*
X25722Y77048D01*
X25493Y77109D01*
D02*
G37*
G36*
X23656Y57376D02*
X23288D01*
X22932Y57281D01*
X22612Y57096D01*
X22352Y56836D01*
X22167Y56516D01*
X22072Y56160D01*
Y55792D01*
X22167Y55436D01*
X22352Y55116D01*
X22612Y54856D01*
X22932Y54671D01*
X23288Y54576D01*
X23656D01*
X24012Y54671D01*
X24332Y54856D01*
X24592Y55116D01*
X24777Y55436D01*
X24872Y55792D01*
Y56160D01*
X24777Y56516D01*
X24592Y56836D01*
X24332Y57096D01*
X24012Y57281D01*
X23656Y57376D01*
D02*
G37*
G36*
X24872Y52296D02*
X23572D01*
Y50996D01*
X24872D01*
Y52296D01*
D02*
G37*
G36*
X23372D02*
X22072D01*
Y50996D01*
X23372D01*
Y52296D01*
D02*
G37*
G36*
X24872Y50796D02*
X23572D01*
Y49496D01*
X24872D01*
Y50796D01*
D02*
G37*
G36*
X23372D02*
X22072D01*
Y49496D01*
X23372D01*
Y50796D01*
D02*
G37*
G36*
X23257Y46756D02*
X22657D01*
Y45906D01*
X23257D01*
Y46756D01*
D02*
G37*
G36*
X22457D02*
X21857D01*
Y45906D01*
X22457D01*
Y46756D01*
D02*
G37*
G36*
X23257Y45706D02*
X22557D01*
X21857D01*
Y44978D01*
X21857Y44856D01*
X21857D01*
Y44851D01*
X21857D01*
Y44001D01*
X22557D01*
X23257D01*
Y44729D01*
X23257Y44851D01*
X23257D01*
Y44856D01*
X23257D01*
Y45706D01*
D02*
G37*
G36*
Y43801D02*
X22557D01*
X21857D01*
Y42951D01*
X21963D01*
Y42769D01*
X21693D01*
Y41969D01*
X22593D01*
X23493D01*
Y42769D01*
X23187D01*
Y42951D01*
X23257D01*
Y43801D01*
D02*
G37*
G36*
X49649Y80861D02*
X48799D01*
Y80261D01*
X49649D01*
Y80861D01*
D02*
G37*
G36*
X48599D02*
X47749D01*
Y80261D01*
X48599D01*
Y80861D01*
D02*
G37*
G36*
X47617Y80860D02*
X46767D01*
Y80260D01*
X47617D01*
Y80860D01*
D02*
G37*
G36*
X46567D02*
X45717D01*
Y80260D01*
X46567D01*
Y80860D01*
D02*
G37*
G36*
X46667Y80160D02*
D01*
Y80060D01*
X45717D01*
Y79460D01*
X46269D01*
Y79281D01*
X45717D01*
Y79025D01*
X45217D01*
X45101Y79225D01*
X44934Y79392D01*
X44728Y79511D01*
X44499Y79572D01*
X44481D01*
Y78672D01*
Y77772D01*
X44499D01*
X44728Y77833D01*
X44934Y77952D01*
X45101Y78119D01*
X45164Y78228D01*
X45717D01*
Y77881D01*
X46567D01*
Y78581D01*
X46767D01*
Y77881D01*
X47617D01*
Y78228D01*
X47749D01*
Y77881D01*
X48599D01*
Y78581D01*
X48699D01*
Y78681D01*
X49649D01*
Y79281D01*
X49097D01*
Y79461D01*
X49649D01*
Y80061D01*
X48699D01*
X47749D01*
Y79461D01*
X48301D01*
Y79281D01*
X47749D01*
Y79025D01*
X47617D01*
Y79281D01*
X47065D01*
Y79460D01*
X47617D01*
Y80060D01*
X46667D01*
Y80160D01*
D02*
G37*
G36*
X44281Y79572D02*
X44263D01*
X44034Y79511D01*
X43828Y79392D01*
X43661Y79225D01*
X43542Y79019D01*
X43481Y78790D01*
Y78772D01*
X44281D01*
Y79572D01*
D02*
G37*
G36*
X49649Y78481D02*
X48799D01*
Y77881D01*
X49649D01*
Y78481D01*
D02*
G37*
G36*
X44281Y78572D02*
X43481D01*
Y78554D01*
X43542Y78325D01*
X43661Y78119D01*
X43828Y77952D01*
X44034Y77833D01*
X44263Y77772D01*
X44281D01*
Y78572D01*
D02*
G37*
G36*
X60758Y77742D02*
X60733D01*
Y76892D01*
X61583D01*
Y76917D01*
X61518Y77159D01*
X61393Y77375D01*
X61216Y77552D01*
X61000Y77677D01*
X60758Y77742D01*
D02*
G37*
G36*
X60533D02*
X60508D01*
X60266Y77677D01*
X60050Y77552D01*
X59873Y77375D01*
X59748Y77159D01*
X59683Y76917D01*
Y76892D01*
X60533D01*
Y77742D01*
D02*
G37*
G36*
X61583Y76692D02*
X60733D01*
Y75842D01*
X60758D01*
X61000Y75907D01*
X61216Y76032D01*
X61393Y76209D01*
X61518Y76425D01*
X61583Y76667D01*
Y76692D01*
D02*
G37*
G36*
X60533D02*
X59683D01*
Y76667D01*
X59748Y76425D01*
X59873Y76209D01*
X60050Y76032D01*
X60266Y75907D01*
X60508Y75842D01*
X60533D01*
Y76692D01*
D02*
G37*
G36*
X58218Y75202D02*
X58193D01*
Y74352D01*
X59043D01*
Y74377D01*
X58978Y74619D01*
X58853Y74835D01*
X58676Y75012D01*
X58460Y75137D01*
X58218Y75202D01*
D02*
G37*
G36*
X57993D02*
X57968D01*
X57726Y75137D01*
X57510Y75012D01*
X57333Y74835D01*
X57208Y74619D01*
X57143Y74377D01*
Y74352D01*
X57993D01*
Y75202D01*
D02*
G37*
G36*
X60758D02*
X60508D01*
X60266Y75137D01*
X60050Y75012D01*
X59873Y74835D01*
X59748Y74619D01*
X59683Y74377D01*
Y74127D01*
X59748Y73885D01*
X59873Y73669D01*
X60050Y73492D01*
X60266Y73367D01*
X60508Y73302D01*
X60758D01*
X61000Y73367D01*
X61216Y73492D01*
X61393Y73669D01*
X61518Y73885D01*
X61583Y74127D01*
Y74377D01*
X61518Y74619D01*
X61393Y74835D01*
X61216Y75012D01*
X61000Y75137D01*
X60758Y75202D01*
D02*
G37*
G36*
X59043Y74152D02*
X58193D01*
Y73302D01*
X58218D01*
X58460Y73367D01*
X58676Y73492D01*
X58853Y73669D01*
X58978Y73885D01*
X59043Y74127D01*
Y74152D01*
D02*
G37*
G36*
X57993D02*
X57143D01*
Y74127D01*
X57208Y73885D01*
X57333Y73669D01*
X57510Y73492D01*
X57726Y73367D01*
X57968Y73302D01*
X57993D01*
Y74152D01*
D02*
G37*
G36*
X60758Y72662D02*
X60508D01*
X60266Y72597D01*
X60050Y72472D01*
X59873Y72295D01*
X59748Y72079D01*
X59683Y71837D01*
Y71587D01*
X59748Y71345D01*
X59873Y71129D01*
X60050Y70952D01*
X60266Y70827D01*
X60508Y70762D01*
X60758D01*
X61000Y70827D01*
X61216Y70952D01*
X61393Y71129D01*
X61518Y71345D01*
X61583Y71587D01*
Y71837D01*
X61518Y72079D01*
X61393Y72295D01*
X61216Y72472D01*
X61000Y72597D01*
X60758Y72662D01*
D02*
G37*
G36*
X58218D02*
X57968D01*
X57726Y72597D01*
X57510Y72472D01*
X57333Y72295D01*
X57208Y72079D01*
X57143Y71837D01*
Y71587D01*
X57208Y71345D01*
X57333Y71129D01*
X57510Y70952D01*
X57726Y70827D01*
X57968Y70762D01*
X58218D01*
X58460Y70827D01*
X58676Y70952D01*
X58853Y71129D01*
X58978Y71345D01*
X59043Y71587D01*
Y71837D01*
X58978Y72079D01*
X58853Y72295D01*
X58676Y72472D01*
X58460Y72597D01*
X58218Y72662D01*
D02*
G37*
G36*
X60758Y70122D02*
X60508D01*
X60266Y70057D01*
X60050Y69932D01*
X59873Y69755D01*
X59748Y69539D01*
X59683Y69297D01*
Y69047D01*
X59748Y68805D01*
X59873Y68589D01*
X60050Y68412D01*
X60266Y68287D01*
X60508Y68222D01*
X60758D01*
X61000Y68287D01*
X61216Y68412D01*
X61393Y68589D01*
X61518Y68805D01*
X61583Y69047D01*
Y69297D01*
X61518Y69539D01*
X61393Y69755D01*
X61216Y69932D01*
X61000Y70057D01*
X60758Y70122D01*
D02*
G37*
G36*
X58218D02*
X57968D01*
X57726Y70057D01*
X57510Y69932D01*
X57333Y69755D01*
X57208Y69539D01*
X57143Y69297D01*
Y69047D01*
X57208Y68805D01*
X57333Y68589D01*
X57510Y68412D01*
X57726Y68287D01*
X57968Y68222D01*
X58218D01*
X58460Y68287D01*
X58676Y68412D01*
X58853Y68589D01*
X58978Y68805D01*
X59043Y69047D01*
Y69297D01*
X58978Y69539D01*
X58853Y69755D01*
X58676Y69932D01*
X58460Y70057D01*
X58218Y70122D01*
D02*
G37*
G36*
X60758Y67582D02*
X60508D01*
X60266Y67517D01*
X60050Y67392D01*
X59873Y67215D01*
X59748Y66999D01*
X59683Y66757D01*
Y66507D01*
X59748Y66265D01*
X59873Y66049D01*
X60050Y65872D01*
X60266Y65747D01*
X60508Y65682D01*
X60758D01*
X61000Y65747D01*
X61216Y65872D01*
X61393Y66049D01*
X61518Y66265D01*
X61583Y66507D01*
Y66757D01*
X61518Y66999D01*
X61393Y67215D01*
X61216Y67392D01*
X61000Y67517D01*
X60758Y67582D01*
D02*
G37*
G36*
X58218D02*
X57968D01*
X57726Y67517D01*
X57510Y67392D01*
X57333Y67215D01*
X57208Y66999D01*
X57143Y66757D01*
Y66507D01*
X57208Y66265D01*
X57333Y66049D01*
X57510Y65872D01*
X57726Y65747D01*
X57968Y65682D01*
X58218D01*
X58460Y65747D01*
X58676Y65872D01*
X58853Y66049D01*
X58978Y66265D01*
X59043Y66507D01*
Y66757D01*
X58978Y66999D01*
X58853Y67215D01*
X58676Y67392D01*
X58460Y67517D01*
X58218Y67582D01*
D02*
G37*
G36*
X59043Y77742D02*
X57143D01*
Y76271D01*
X57135Y76232D01*
Y76098D01*
X55718Y74682D01*
X55632Y74552D01*
X55602Y74400D01*
Y62500D01*
X55632Y62348D01*
X55718Y62218D01*
X57550Y60387D01*
Y60291D01*
X57634Y60088D01*
X57788Y59934D01*
X57991Y59850D01*
X58209D01*
X58412Y59934D01*
X58566Y60088D01*
X58650Y60291D01*
Y60509D01*
X58566Y60712D01*
X58412Y60866D01*
X58209Y60950D01*
X58113D01*
X56398Y62665D01*
Y74235D01*
X57815Y75652D01*
X57901Y75781D01*
X57913Y75842D01*
X59043D01*
Y77742D01*
D02*
G37*
G36*
X42137Y40535D02*
X42111D01*
Y39681D01*
X42965D01*
Y39707D01*
X42900Y39949D01*
X42774Y40167D01*
X42597Y40344D01*
X42379Y40470D01*
X42137Y40535D01*
D02*
G37*
G36*
X41911D02*
X41885D01*
X41643Y40470D01*
X41425Y40344D01*
X41248Y40167D01*
X41122Y39949D01*
X41057Y39707D01*
Y39681D01*
X41911D01*
Y40535D01*
D02*
G37*
G36*
X42965Y39481D02*
X42111D01*
Y38627D01*
X42137D01*
X42379Y38692D01*
X42597Y38818D01*
X42774Y38995D01*
X42900Y39213D01*
X42965Y39455D01*
Y39481D01*
D02*
G37*
G36*
X41911D02*
X41057D01*
Y39455D01*
X41122Y39213D01*
X41248Y38995D01*
X41425Y38818D01*
X41643Y38692D01*
X41885Y38627D01*
X41911D01*
Y39481D01*
D02*
G37*
G36*
X39637Y40535D02*
X39385D01*
X39143Y40470D01*
X38925Y40344D01*
X38748Y40167D01*
X38622Y39949D01*
X38557Y39707D01*
Y39455D01*
X38622Y39213D01*
X38748Y38995D01*
X38925Y38818D01*
X39143Y38692D01*
X39385Y38627D01*
X39637D01*
X39879Y38692D01*
X40097Y38818D01*
X40274Y38995D01*
X40400Y39213D01*
X40465Y39455D01*
Y39707D01*
X40400Y39949D01*
X40274Y40167D01*
X40097Y40344D01*
X39879Y40470D01*
X39637Y40535D01*
D02*
G37*
G36*
X37965D02*
X36057D01*
Y38627D01*
X37965D01*
Y40535D01*
D02*
G37*
G36*
X24711Y37689D02*
X24693D01*
Y36889D01*
X25493D01*
Y36907D01*
X25432Y37136D01*
X25313Y37342D01*
X25146Y37509D01*
X24940Y37628D01*
X24711Y37689D01*
D02*
G37*
G36*
X24493D02*
X24475D01*
X24246Y37628D01*
X24040Y37509D01*
X23873Y37342D01*
X23754Y37136D01*
X23693Y36907D01*
Y36889D01*
X24493D01*
Y37689D01*
D02*
G37*
G36*
X25493Y36689D02*
X24693D01*
Y35889D01*
X24711D01*
X24940Y35950D01*
X25146Y36069D01*
X25313Y36236D01*
X25432Y36442D01*
X25493Y36671D01*
Y36689D01*
D02*
G37*
G36*
X24493D02*
X23693D01*
Y36671D01*
X23754Y36442D01*
X23873Y36236D01*
X24040Y36069D01*
X24246Y35950D01*
X24475Y35889D01*
X24493D01*
Y36689D01*
D02*
G37*
G36*
X25543Y35707D02*
X24943D01*
Y34857D01*
X25543D01*
Y35707D01*
D02*
G37*
G36*
X24743D02*
X24143D01*
Y34857D01*
X24743D01*
Y35707D01*
D02*
G37*
G36*
X25543Y34657D02*
X24943D01*
Y33807D01*
X25543D01*
Y34657D01*
D02*
G37*
G36*
X24743D02*
X24143D01*
Y33807D01*
X24743D01*
Y34657D01*
D02*
G37*
G36*
X25543Y33675D02*
X24943D01*
Y32825D01*
X25543D01*
Y33675D01*
D02*
G37*
G36*
X24743D02*
X24143D01*
Y32825D01*
X24743D01*
Y33675D01*
D02*
G37*
G36*
X26711Y37689D02*
X26475D01*
X26246Y37628D01*
X26040Y37509D01*
X25873Y37342D01*
X25754Y37136D01*
X25693Y36907D01*
Y36671D01*
X25754Y36442D01*
X25873Y36236D01*
X26040Y36069D01*
X26245Y35951D01*
Y35707D01*
X25993D01*
Y33807D01*
X26245D01*
Y33675D01*
X25993D01*
Y31775D01*
X27393D01*
Y33675D01*
X27041D01*
Y33807D01*
X27393D01*
Y35707D01*
X27041D01*
Y36009D01*
X27146Y36069D01*
X27313Y36236D01*
X27432Y36442D01*
X27493Y36671D01*
Y36907D01*
X27432Y37136D01*
X27313Y37342D01*
X27146Y37509D01*
X26940Y37628D01*
X26711Y37689D01*
D02*
G37*
G36*
X25543Y32625D02*
X24943D01*
Y31775D01*
X25543D01*
Y32625D01*
D02*
G37*
G36*
X24743D02*
X24143D01*
Y31775D01*
X24743D01*
Y32625D01*
D02*
G37*
%LPD*%
D39*
X16231Y78236D02*
D03*
Y80086D02*
D03*
X18263Y78200D02*
D03*
Y80050D02*
D03*
X29439Y82245D02*
D03*
Y80395D02*
D03*
X27407Y82245D02*
D03*
Y80395D02*
D03*
X48699Y82011D02*
D03*
Y80161D02*
D03*
X46667Y78581D02*
D03*
Y76731D02*
D03*
X48699Y78581D02*
D03*
Y76731D02*
D03*
X46667Y82010D02*
D03*
Y80160D02*
D03*
X34856Y76731D02*
D03*
Y78581D02*
D03*
X36888Y76731D02*
D03*
Y78581D02*
D03*
D40*
X17518Y94396D02*
D03*
X15668D02*
D03*
X17518Y90078D02*
D03*
X15668D02*
D03*
X26693Y34757D02*
D03*
X24843D02*
D03*
X22557Y43901D02*
D03*
X24407D02*
D03*
X26693Y32725D02*
D03*
X24843D02*
D03*
X22557Y45806D02*
D03*
X24407D02*
D03*
D46*
X57534Y75934D02*
Y76232D01*
X56000Y62500D02*
Y74400D01*
X57534Y76232D02*
X58093Y76792D01*
X56000Y74400D02*
X57534Y75934D01*
X56000Y62500D02*
X58100Y60400D01*
X26643Y32775D02*
Y36739D01*
X15323Y90673D02*
X15668Y90328D01*
X15323Y90673D02*
Y92237D01*
X15668Y90078D02*
Y90328D01*
X15323Y92513D02*
X15668Y92858D01*
Y94396D01*
X15323Y92237D02*
Y92513D01*
X17518Y91616D02*
X17863Y91961D01*
X17518Y90078D02*
Y91616D01*
X17863Y91961D02*
Y92237D01*
Y92513D01*
X17518Y92858D02*
Y94396D01*
Y92858D02*
X17863Y92513D01*
X16244Y78223D02*
X20281D01*
X16231Y78236D02*
X16244Y78223D01*
X20281D02*
X20295Y78209D01*
X16292Y80147D02*
X20233D01*
X16231Y80086D02*
X16292Y80147D01*
X20233D02*
X20295Y80209D01*
X25468Y80302D02*
X29346D01*
X25375Y80209D02*
X25468Y80302D01*
X29346D02*
X29439Y80395D01*
X26643Y32775D02*
X26693Y32725D01*
X26593Y36789D02*
X26643Y36739D01*
X24500Y41962D02*
Y45713D01*
X24407Y45806D02*
X24500Y45713D01*
Y41962D02*
X24593Y41869D01*
X45720Y82011D02*
X48699D01*
X44381Y80672D02*
X45720Y82011D01*
X46667Y78581D02*
Y78627D01*
Y80160D01*
Y78627D02*
X48653D01*
X44426D02*
X46667D01*
X48653D02*
X48699Y78581D01*
X44381Y78672D02*
X44426Y78627D01*
X48699Y78581D02*
Y80161D01*
D47*
X25393Y82227D02*
X29421D01*
X29439Y82245D01*
X25375Y82209D02*
X25393Y82227D01*
X22575Y41887D02*
Y45788D01*
Y41887D02*
X22593Y41869D01*
X22557Y45806D02*
X22575Y45788D01*
D48*
X22593Y41869D02*
D03*
D49*
X24593D02*
D03*
X22593Y36789D02*
D03*
X26593D02*
D03*
X24593D02*
D03*
X28593Y41869D02*
D03*
X15323Y92237D02*
D03*
X17863D02*
D03*
X20403D02*
D03*
X22943D02*
D03*
X66123D02*
D03*
X83903D02*
D03*
X44381Y78672D02*
D03*
Y76672D02*
D03*
Y80672D02*
D03*
X39301Y82672D02*
D03*
Y78672D02*
D03*
X25375Y76209D02*
D03*
X20295Y80209D02*
D03*
Y78209D02*
D03*
Y82209D02*
D03*
X25375Y80209D02*
D03*
D50*
X10883Y92237D02*
D03*
X90883D02*
D03*
D51*
X87500Y15080D02*
D03*
X87840Y53198D02*
D03*
X87713Y33592D02*
D03*
X88221Y71805D02*
D03*
X23472Y55976D02*
D03*
D52*
X87500Y10000D02*
D03*
X87840Y48118D02*
D03*
X87713Y28512D02*
D03*
X88221Y66725D02*
D03*
X23472Y50896D02*
D03*
D53*
X5000Y95000D02*
D03*
X95000D02*
D03*
Y5000D02*
D03*
X5000D02*
D03*
D54*
X42011Y39581D02*
D03*
X39511D02*
D03*
D55*
X58093Y74252D02*
D03*
X60633Y76792D02*
D03*
X58093Y69172D02*
D03*
Y66632D02*
D03*
X60633D02*
D03*
Y69172D02*
D03*
X58093Y71712D02*
D03*
X60633D02*
D03*
Y74252D02*
D03*
D56*
X58093Y76792D02*
D03*
D57*
X37011Y39581D02*
D03*
D58*
X39301Y76672D02*
D03*
X25375Y82209D02*
D03*
D59*
X78700Y27000D02*
D03*
X50300Y65100D02*
D03*
X71711Y62311D02*
D03*
X58100Y60400D02*
D03*
X77672Y82727D02*
D03*
X80500Y84000D02*
D03*
X80663Y65163D02*
D03*
X80759Y47165D02*
D03*
X80700Y27100D02*
D03*
X35051Y61751D02*
D03*
X71600Y81400D02*
D03*
X72800Y24300D02*
D03*
X78787Y65113D02*
D03*
X78800Y47026D02*
D03*
X72854Y44246D02*
D03*
X54700Y36878D02*
D03*
X57077Y30183D02*
D03*
X59490D02*
D03*
X67745Y63711D02*
D03*
X34852Y43264D02*
D03*
D60*
X50087Y76731D02*
X58356Y85000D01*
X48699Y76731D02*
X50087D01*
X58356Y85000D02*
X79400D01*
X80450Y83950D01*
X80700Y83700D01*
Y27100D02*
Y47165D01*
X46667Y76701D02*
X48669D01*
X80700Y65163D02*
Y83700D01*
Y47165D02*
Y65163D01*
X44410Y76701D02*
X46667D01*
X44381Y76672D02*
X44410Y76701D01*
X48669D02*
X48699Y76731D01*
M02*
