G04*
G04 #@! TF.GenerationSoftware,Altium Limited,Altium Designer,23.11.1 (41)*
G04*
G04 Layer_Physical_Order=1*
G04 Layer_Color=255*
%FSLAX43Y43*%
%MOMM*%
G71*
G04*
G04 #@! TF.SameCoordinates,5C86F8B5-C48D-4B9D-AEF1-1A40F40C4F51*
G04*
G04*
G04 #@! TF.FilePolarity,Positive*
G04*
G01*
G75*
%ADD17C,0.300*%
%ADD38R,1.600X0.600*%
%ADD39R,1.500X1.000*%
%ADD40R,1.000X1.500*%
%ADD41R,0.600X1.900*%
%ADD42R,0.500X1.800*%
%ADD43R,5.500X2.000*%
%ADD44R,1.800X0.500*%
%ADD45R,2.770X2.550*%
%ADD46C,0.381*%
%ADD47C,0.800*%
%ADD48R,1.400X1.400*%
%ADD49C,1.400*%
%ADD50C,3.300*%
%ADD51C,2.400*%
%ADD52R,2.400X2.400*%
%ADD53C,4.000*%
%ADD54C,1.508*%
%ADD55C,1.500*%
%ADD56R,1.500X1.500*%
%ADD57R,1.508X1.508*%
%ADD58R,1.400X1.400*%
%ADD59C,0.700*%
G36*
X91220Y94180D02*
X91160Y94068D01*
X91065Y94087D01*
X90701D01*
X90343Y94016D01*
X90007Y93876D01*
X89704Y93674D01*
X89446Y93416D01*
X89244Y93113D01*
X89104Y92777D01*
X89033Y92419D01*
Y92055D01*
X89104Y91697D01*
X89244Y91361D01*
X89446Y91058D01*
X89704Y90800D01*
X90007Y90598D01*
X90343Y90458D01*
X90701Y90387D01*
X91065D01*
X91423Y90458D01*
X91759Y90598D01*
X91788Y90617D01*
X91900Y90557D01*
Y5100D01*
X90000Y3200D01*
X83500D01*
X81816Y4900D01*
X81899Y13680D01*
X81958Y19906D01*
X82913D01*
Y19354D01*
X83215D01*
Y13887D01*
X83245Y13735D01*
X83331Y13605D01*
X86100Y10837D01*
Y8600D01*
X88900D01*
Y11400D01*
X86663D01*
X84011Y14052D01*
Y19354D01*
X84313D01*
Y21254D01*
X82913D01*
Y20702D01*
X82056D01*
X81966Y20792D01*
X81975Y21684D01*
X82913D01*
Y21386D01*
X84313D01*
Y23286D01*
X82913D01*
Y22480D01*
X82073D01*
X81983Y22570D01*
X82151Y40306D01*
X82913D01*
Y39373D01*
X83215D01*
Y35443D01*
X83245Y35290D01*
X83331Y35161D01*
X87315Y31178D01*
Y29912D01*
X86313D01*
Y27112D01*
X89113D01*
Y29912D01*
X88111D01*
Y31343D01*
X88081Y31495D01*
X87995Y31624D01*
X87554Y32065D01*
X87606Y32192D01*
X87897D01*
X88253Y32287D01*
X88573Y32472D01*
X88833Y32732D01*
X89018Y33052D01*
X89113Y33408D01*
Y33776D01*
X89018Y34132D01*
X88833Y34452D01*
X88573Y34712D01*
X88253Y34897D01*
X87897Y34992D01*
X87529D01*
X87173Y34897D01*
X86853Y34712D01*
X86593Y34452D01*
X86408Y34132D01*
X86313Y33776D01*
Y33485D01*
X86186Y33433D01*
X84011Y35608D01*
Y39373D01*
X84313D01*
Y41273D01*
X82913D01*
Y41102D01*
X82249D01*
X82159Y41192D01*
X82163Y41576D01*
X82913D01*
Y41405D01*
X84313D01*
Y43305D01*
X82913D01*
Y42372D01*
X82261D01*
X82171Y42462D01*
X82271Y53014D01*
X82316Y57753D01*
X82913D01*
Y57201D01*
X83215D01*
Y52345D01*
X83245Y52193D01*
X83331Y52063D01*
X86440Y48955D01*
Y46718D01*
X89240D01*
Y49518D01*
X87003D01*
X84011Y52510D01*
Y57201D01*
X84313D01*
Y59101D01*
X82913D01*
Y58549D01*
X82414D01*
X82325Y58639D01*
X82333Y59531D01*
X82913D01*
Y59233D01*
X84313D01*
Y61133D01*
X82913D01*
Y60327D01*
X82431D01*
X82341Y60417D01*
X82443Y71206D01*
X82497Y76868D01*
X82913D01*
Y76316D01*
X83215D01*
Y71333D01*
X83245Y71181D01*
X83331Y71051D01*
X86821Y67562D01*
Y65325D01*
X89621D01*
Y68125D01*
X87384D01*
X84011Y71498D01*
Y76316D01*
X84313D01*
Y78216D01*
X82913D01*
Y77664D01*
X82595D01*
X82505Y77754D01*
X82516Y78900D01*
X82913D01*
Y78348D01*
X84313D01*
Y80248D01*
X82913D01*
Y79696D01*
X82614D01*
X82525Y79786D01*
X82648Y92800D01*
X84547Y94700D01*
X90700D01*
X91220Y94180D01*
D02*
G37*
G36*
X34000Y80100D02*
X39100D01*
X39525Y79675D01*
X39459Y79561D01*
X39419Y79572D01*
X39401D01*
Y78772D01*
X40201D01*
Y78790D01*
X40190Y78830D01*
X40304Y78896D01*
X40800Y78400D01*
Y75100D01*
X40700D01*
X39100Y73500D01*
X29600D01*
X28800Y72700D01*
Y44700D01*
X25519Y41419D01*
X25418Y41497D01*
X25432Y41522D01*
X25493Y41751D01*
Y41769D01*
X24593D01*
X23693D01*
Y41751D01*
X23754Y41522D01*
X23873Y41316D01*
X23962Y41227D01*
X23910Y41100D01*
X23493D01*
Y42769D01*
X21693D01*
Y41100D01*
X20400D01*
X10700Y50800D01*
Y58100D01*
X12600Y60000D01*
X19300D01*
X23000Y63700D01*
Y81300D01*
X24358Y82658D01*
X24475Y82609D01*
Y81309D01*
X26275D01*
Y83109D01*
X24975D01*
X24926Y83226D01*
X25300Y83600D01*
X30500D01*
X34000Y80100D01*
D02*
G37*
G36*
X77563Y83277D02*
X77360Y83193D01*
X77206Y83039D01*
X77122Y82836D01*
Y82740D01*
X75450Y81068D01*
X74013D01*
Y80631D01*
X74003Y80621D01*
X72661D01*
Y80923D01*
X72109D01*
Y81192D01*
X72150Y81291D01*
Y81509D01*
X72066Y81712D01*
X71912Y81866D01*
X71709Y81950D01*
X71491D01*
X71288Y81866D01*
X71134Y81712D01*
X71050Y81509D01*
Y81291D01*
X71134Y81088D01*
X71172Y81050D01*
X71120Y80923D01*
X70761D01*
Y79523D01*
X72661D01*
Y79825D01*
X73897D01*
X74013Y79798D01*
X74013Y79698D01*
Y78798D01*
X76013D01*
Y79798D01*
X74463D01*
X74425Y79925D01*
X74450Y79941D01*
X74576Y80068D01*
X76013D01*
Y80505D01*
X77685Y82177D01*
X77781D01*
X77960Y82251D01*
X78044Y82216D01*
X78087Y82185D01*
Y81777D01*
X78389D01*
Y78199D01*
X78419Y78047D01*
X78505Y77917D01*
X79500Y76923D01*
Y64811D01*
X79487Y64689D01*
X79320D01*
X79284Y64750D01*
X79259Y64816D01*
X79337Y65004D01*
Y65222D01*
X79253Y65425D01*
X79099Y65579D01*
X78896Y65663D01*
X78678D01*
X78475Y65579D01*
X78321Y65425D01*
X78237Y65222D01*
Y65004D01*
X78315Y64816D01*
X78290Y64750D01*
X78254Y64689D01*
X78087D01*
Y63352D01*
X76332Y61597D01*
X76013D01*
Y61699D01*
X74013D01*
Y61552D01*
X72661D01*
Y61808D01*
X72118D01*
X72113Y61935D01*
X72177Y61999D01*
X72261Y62202D01*
Y62420D01*
X72177Y62623D01*
X72023Y62777D01*
X71820Y62861D01*
X71602D01*
X71399Y62777D01*
X71245Y62623D01*
X71161Y62420D01*
Y62202D01*
X71245Y61999D01*
X71309Y61935D01*
X71304Y61808D01*
X70761D01*
Y60408D01*
X72661D01*
Y60755D01*
X74013D01*
Y60699D01*
X76013D01*
Y60801D01*
X76497D01*
X76649Y60831D01*
X76779Y60917D01*
X78272Y62410D01*
X78389Y62362D01*
Y58830D01*
X78419Y58678D01*
X78505Y58548D01*
X79500Y57554D01*
Y46856D01*
X79494Y46804D01*
X79433Y46789D01*
X79342Y46897D01*
X79350Y46917D01*
Y47135D01*
X79266Y47338D01*
X79112Y47492D01*
X78909Y47576D01*
X78691D01*
X78488Y47492D01*
X78334Y47338D01*
X78250Y47135D01*
Y46917D01*
X78282Y46840D01*
X78211Y46734D01*
X78087D01*
Y46182D01*
X77715D01*
X77563Y46152D01*
X77434Y46066D01*
X75341Y43973D01*
X75255Y43843D01*
X75235Y43744D01*
X74013D01*
Y43597D01*
X73804D01*
Y43853D01*
X73414D01*
X73398Y43867D01*
X73339Y43980D01*
X73404Y44137D01*
Y44355D01*
X73320Y44558D01*
X73166Y44712D01*
X72963Y44796D01*
X72745D01*
X72542Y44712D01*
X72388Y44558D01*
X72304Y44355D01*
Y44137D01*
X72369Y43980D01*
X72310Y43867D01*
X72294Y43853D01*
X71904D01*
Y42453D01*
X73804D01*
Y42800D01*
X74013D01*
Y42744D01*
X76013D01*
Y43315D01*
X76021Y43354D01*
Y43526D01*
X77880Y45386D01*
X78087D01*
Y44834D01*
X78389D01*
Y40875D01*
X78419Y40723D01*
X78505Y40593D01*
X79500Y39599D01*
Y26710D01*
X79487Y26588D01*
X79245D01*
X79215Y26626D01*
X79177Y26715D01*
X79250Y26891D01*
Y27109D01*
X79166Y27312D01*
X79012Y27466D01*
X78809Y27550D01*
X78591D01*
X78388Y27466D01*
X78234Y27312D01*
X78150Y27109D01*
Y26891D01*
X78223Y26715D01*
X78168Y26588D01*
X78087D01*
Y26036D01*
X77715D01*
X77563Y26006D01*
X77434Y25920D01*
X75366Y23852D01*
X74013D01*
Y23641D01*
X73804D01*
Y23834D01*
X73252D01*
Y23974D01*
X73266Y23988D01*
X73350Y24191D01*
Y24409D01*
X73266Y24612D01*
X73112Y24766D01*
X72909Y24850D01*
X72691D01*
X72488Y24766D01*
X72334Y24612D01*
X72250Y24409D01*
Y24191D01*
X72334Y23988D01*
X72361Y23961D01*
X72309Y23834D01*
X71904D01*
Y22434D01*
X73804D01*
Y22845D01*
X74904D01*
X74940Y22852D01*
X76013D01*
Y23372D01*
X77880Y25240D01*
X78087D01*
Y24688D01*
X78389D01*
Y21989D01*
X76140Y19740D01*
X76013Y19793D01*
Y20042D01*
X74013D01*
Y19700D01*
X69700D01*
X60900Y28500D01*
X50000D01*
X48200Y30300D01*
Y48900D01*
X44600Y52500D01*
X33800D01*
X32000Y54300D01*
Y61100D01*
X40800Y70000D01*
Y70100D01*
X42500Y71800D01*
Y80200D01*
X43500Y81200D01*
X43602Y81122D01*
X43542Y81019D01*
X43481Y80790D01*
Y80772D01*
X44281D01*
Y81572D01*
X44263D01*
X44034Y81511D01*
X43931Y81451D01*
X43853Y81553D01*
X45700Y83400D01*
X77553D01*
X77563Y83277D01*
D02*
G37*
G36*
X21800Y93300D02*
Y77500D01*
X20400Y76100D01*
X16100Y76100D01*
X12300Y79900D01*
X12300Y91038D01*
X12320Y91058D01*
X12522Y91361D01*
X12662Y91697D01*
X12733Y92055D01*
Y92419D01*
X12662Y92777D01*
X12522Y93113D01*
X12320Y93416D01*
X12300Y93436D01*
Y93700D01*
X15000Y96400D01*
X18700D01*
X21800Y93300D01*
D02*
G37*
%LPC*%
G36*
X84021Y93137D02*
X84003D01*
Y92337D01*
X84803D01*
Y92355D01*
X84742Y92584D01*
X84623Y92790D01*
X84456Y92957D01*
X84250Y93076D01*
X84021Y93137D01*
D02*
G37*
G36*
X83803D02*
X83785D01*
X83556Y93076D01*
X83350Y92957D01*
X83183Y92790D01*
X83064Y92584D01*
X83003Y92355D01*
Y92337D01*
X83803D01*
Y93137D01*
D02*
G37*
G36*
X84803Y92137D02*
X84003D01*
Y91337D01*
X84021D01*
X84250Y91398D01*
X84456Y91517D01*
X84623Y91684D01*
X84742Y91890D01*
X84803Y92119D01*
Y92137D01*
D02*
G37*
G36*
X83803D02*
X83003D01*
Y92119D01*
X83064Y91890D01*
X83183Y91684D01*
X83350Y91517D01*
X83556Y91398D01*
X83785Y91337D01*
X83803D01*
Y92137D01*
D02*
G37*
G36*
X89592Y79105D02*
X88992D01*
Y78255D01*
X89592D01*
Y79105D01*
D02*
G37*
G36*
X88792D02*
X88192D01*
Y78255D01*
X88792D01*
Y79105D01*
D02*
G37*
G36*
X89592Y78055D02*
X88992D01*
Y77205D01*
X89592D01*
Y78055D01*
D02*
G37*
G36*
X88792D02*
X88192D01*
Y77205D01*
X88792D01*
Y78055D01*
D02*
G37*
G36*
X86163Y80248D02*
X84763D01*
Y78348D01*
X85065D01*
Y78216D01*
X84763D01*
Y76316D01*
X86163D01*
Y77427D01*
X86342D01*
Y77205D01*
X87742D01*
Y79105D01*
X86342D01*
Y78224D01*
X86169D01*
X86163Y78348D01*
X86163D01*
Y80248D01*
D02*
G37*
G36*
X88405Y73205D02*
X88037D01*
X87681Y73110D01*
X87361Y72925D01*
X87101Y72665D01*
X86916Y72345D01*
X86821Y71989D01*
Y71621D01*
X86916Y71265D01*
X87101Y70945D01*
X87361Y70685D01*
X87681Y70500D01*
X88037Y70405D01*
X88405D01*
X88761Y70500D01*
X89081Y70685D01*
X89341Y70945D01*
X89526Y71265D01*
X89621Y71621D01*
Y71989D01*
X89526Y72345D01*
X89341Y72665D01*
X89081Y72925D01*
X88761Y73110D01*
X88405Y73205D01*
D02*
G37*
G36*
X89592Y60244D02*
X88992D01*
Y59394D01*
X89592D01*
Y60244D01*
D02*
G37*
G36*
X88792D02*
X88192D01*
Y59394D01*
X88792D01*
Y60244D01*
D02*
G37*
G36*
X89592Y59194D02*
X88992D01*
Y58344D01*
X89592D01*
Y59194D01*
D02*
G37*
G36*
X88792D02*
X88192D01*
Y58344D01*
X88792D01*
Y59194D01*
D02*
G37*
G36*
X86163Y61133D02*
X84763D01*
Y59233D01*
X85065D01*
Y59101D01*
X84763D01*
Y57201D01*
X86163D01*
Y59101D01*
X85861D01*
Y59233D01*
X86163D01*
Y59455D01*
X86342D01*
Y58344D01*
X87742D01*
Y60244D01*
X86771D01*
X86732Y60252D01*
X86163D01*
Y61133D01*
D02*
G37*
G36*
X88024Y54598D02*
X87656D01*
X87300Y54503D01*
X86980Y54318D01*
X86720Y54058D01*
X86535Y53738D01*
X86440Y53382D01*
Y53014D01*
X86535Y52658D01*
X86720Y52338D01*
X86980Y52078D01*
X87300Y51893D01*
X87656Y51798D01*
X88024D01*
X88380Y51893D01*
X88700Y52078D01*
X88960Y52338D01*
X89145Y52658D01*
X89240Y53014D01*
Y53382D01*
X89145Y53738D01*
X88960Y54058D01*
X88700Y54318D01*
X88380Y54503D01*
X88024Y54598D01*
D02*
G37*
G36*
X89592Y42162D02*
X88992D01*
Y41312D01*
X89592D01*
Y42162D01*
D02*
G37*
G36*
X88792D02*
X88192D01*
Y41312D01*
X88792D01*
Y42162D01*
D02*
G37*
G36*
X89592Y41112D02*
X88992D01*
Y40262D01*
X89592D01*
Y41112D01*
D02*
G37*
G36*
X88792D02*
X88192D01*
Y40262D01*
X88792D01*
Y41112D01*
D02*
G37*
G36*
X86163Y43305D02*
X84763D01*
Y41405D01*
X85065D01*
Y41273D01*
X84763D01*
Y39373D01*
X86163D01*
Y40254D01*
X86732D01*
X86771Y40262D01*
X87742D01*
Y42162D01*
X86342D01*
Y41051D01*
X86163D01*
Y41273D01*
X85861D01*
Y41405D01*
X86163D01*
Y43305D01*
D02*
G37*
G36*
X89592Y22143D02*
X88992D01*
Y21293D01*
X89592D01*
Y22143D01*
D02*
G37*
G36*
X88792D02*
X88192D01*
Y21293D01*
X88792D01*
Y22143D01*
D02*
G37*
G36*
X89592Y21093D02*
X88992D01*
Y20243D01*
X89592D01*
Y21093D01*
D02*
G37*
G36*
X88792D02*
X88192D01*
Y20243D01*
X88792D01*
Y21093D01*
D02*
G37*
G36*
X86163Y23286D02*
X84763D01*
Y21386D01*
X85065D01*
Y21254D01*
X84763D01*
Y19354D01*
X86163D01*
Y20235D01*
X86732D01*
X86771Y20243D01*
X87742D01*
Y22143D01*
X86342D01*
Y21032D01*
X86163D01*
Y21254D01*
X85861D01*
Y21386D01*
X86163D01*
Y23286D01*
D02*
G37*
G36*
X87684Y16480D02*
X87316D01*
X86960Y16385D01*
X86640Y16200D01*
X86380Y15940D01*
X86195Y15620D01*
X86100Y15264D01*
Y14896D01*
X86195Y14540D01*
X86380Y14220D01*
X86640Y13960D01*
X86960Y13775D01*
X87316Y13680D01*
X87684D01*
X88040Y13775D01*
X88360Y13960D01*
X88620Y14220D01*
X88805Y14540D01*
X88900Y14896D01*
Y15264D01*
X88805Y15620D01*
X88620Y15940D01*
X88360Y16200D01*
X88040Y16385D01*
X87684Y16480D01*
D02*
G37*
G36*
X25493Y81109D02*
X25475D01*
Y80309D01*
X26275D01*
Y80327D01*
X26214Y80556D01*
X26095Y80762D01*
X25928Y80929D01*
X25722Y81048D01*
X25493Y81109D01*
D02*
G37*
G36*
X25275D02*
X25257D01*
X25028Y81048D01*
X24822Y80929D01*
X24655Y80762D01*
X24536Y80556D01*
X24475Y80327D01*
Y80309D01*
X25275D01*
Y81109D01*
D02*
G37*
G36*
X26275Y80109D02*
X25475D01*
Y79309D01*
X25493D01*
X25722Y79370D01*
X25928Y79489D01*
X26095Y79656D01*
X26214Y79862D01*
X26275Y80091D01*
Y80109D01*
D02*
G37*
G36*
X25275D02*
X24475D01*
Y80091D01*
X24536Y79862D01*
X24655Y79656D01*
X24822Y79489D01*
X25028Y79370D01*
X25257Y79309D01*
X25275D01*
Y80109D01*
D02*
G37*
G36*
X39201Y79572D02*
X39183D01*
X38954Y79511D01*
X38748Y79392D01*
X38581Y79225D01*
X38462Y79019D01*
X38401Y78790D01*
Y78772D01*
X39201D01*
Y79572D01*
D02*
G37*
G36*
X40201Y78572D02*
X39401D01*
Y77772D01*
X39419D01*
X39648Y77833D01*
X39854Y77952D01*
X40021Y78119D01*
X40140Y78325D01*
X40201Y78554D01*
Y78572D01*
D02*
G37*
G36*
X39201D02*
X38401D01*
Y78554D01*
X38462Y78325D01*
X38581Y78119D01*
X38748Y77952D01*
X38954Y77833D01*
X39183Y77772D01*
X39201D01*
Y78572D01*
D02*
G37*
G36*
X40201Y77572D02*
X38401D01*
Y75772D01*
X40201D01*
Y77572D01*
D02*
G37*
G36*
X25493Y77109D02*
X25257D01*
X25028Y77048D01*
X24822Y76929D01*
X24655Y76762D01*
X24536Y76556D01*
X24475Y76327D01*
Y76091D01*
X24536Y75862D01*
X24655Y75656D01*
X24822Y75489D01*
X25028Y75370D01*
X25257Y75309D01*
X25493D01*
X25722Y75370D01*
X25928Y75489D01*
X26095Y75656D01*
X26214Y75862D01*
X26275Y76091D01*
Y76327D01*
X26214Y76556D01*
X26095Y76762D01*
X25928Y76929D01*
X25722Y77048D01*
X25493Y77109D01*
D02*
G37*
G36*
X23656Y57376D02*
X23572D01*
Y56076D01*
X24872D01*
Y56160D01*
X24777Y56516D01*
X24592Y56836D01*
X24332Y57096D01*
X24012Y57281D01*
X23656Y57376D01*
D02*
G37*
G36*
X15498Y57451D02*
X14013D01*
Y56076D01*
X15498D01*
Y57451D01*
D02*
G37*
G36*
X24872Y55876D02*
X23572D01*
Y54576D01*
X23656D01*
X24012Y54671D01*
X24332Y54856D01*
X24592Y55116D01*
X24777Y55436D01*
X24872Y55792D01*
Y55876D01*
D02*
G37*
G36*
X17183Y57451D02*
X15698D01*
Y55976D01*
Y54501D01*
X17183D01*
Y55364D01*
X22209D01*
X22352Y55116D01*
X22612Y54856D01*
X22932Y54671D01*
X23288Y54576D01*
X23372D01*
Y55976D01*
Y57376D01*
X23288D01*
X22932Y57281D01*
X22612Y57096D01*
X22352Y56836D01*
X22209Y56588D01*
X17183D01*
Y57451D01*
D02*
G37*
G36*
X15498Y55876D02*
X14013D01*
Y54501D01*
X15498D01*
Y55876D01*
D02*
G37*
G36*
X24872Y52296D02*
X22072D01*
Y50588D01*
X17183D01*
Y51451D01*
X14013D01*
Y48501D01*
X17183D01*
Y49364D01*
X22552D01*
X22786Y49411D01*
X22914Y49496D01*
X24872D01*
Y52296D01*
D02*
G37*
G36*
X24711Y42769D02*
X24693D01*
Y41969D01*
X25493D01*
Y41987D01*
X25432Y42216D01*
X25313Y42422D01*
X25146Y42589D01*
X24940Y42708D01*
X24711Y42769D01*
D02*
G37*
G36*
X24493D02*
X24475D01*
X24246Y42708D01*
X24040Y42589D01*
X23873Y42422D01*
X23754Y42216D01*
X23693Y41987D01*
Y41969D01*
X24493D01*
Y42769D01*
D02*
G37*
G36*
X44499Y81572D02*
X44481D01*
Y80772D01*
X45281D01*
Y80790D01*
X45220Y81019D01*
X45101Y81225D01*
X44934Y81392D01*
X44728Y81511D01*
X44499Y81572D01*
D02*
G37*
G36*
X45281Y80572D02*
X44481D01*
Y79772D01*
X44499D01*
X44728Y79833D01*
X44934Y79952D01*
X45101Y80119D01*
X45220Y80325D01*
X45281Y80554D01*
Y80572D01*
D02*
G37*
G36*
X44281D02*
X43481D01*
Y80554D01*
X43542Y80325D01*
X43661Y80119D01*
X43828Y79952D01*
X44034Y79833D01*
X44263Y79772D01*
X44281D01*
Y80572D01*
D02*
G37*
G36*
X72661Y79073D02*
X71811D01*
Y78473D01*
X72661D01*
Y79073D01*
D02*
G37*
G36*
X71611D02*
X70761D01*
Y78473D01*
X71611D01*
Y79073D01*
D02*
G37*
G36*
X76013Y78528D02*
X75113D01*
Y78128D01*
X76013D01*
Y78528D01*
D02*
G37*
G36*
X74913D02*
X74013D01*
Y78128D01*
X74913D01*
Y78528D01*
D02*
G37*
G36*
X44499Y79572D02*
X44263D01*
X44034Y79511D01*
X43828Y79392D01*
X43661Y79225D01*
X43542Y79019D01*
X43481Y78790D01*
Y78554D01*
X43542Y78325D01*
X43661Y78119D01*
X43828Y77952D01*
X44034Y77833D01*
X44263Y77772D01*
X44499D01*
X44728Y77833D01*
X44934Y77952D01*
X45101Y78119D01*
X45220Y78325D01*
X45281Y78554D01*
Y78790D01*
X45220Y79019D01*
X45101Y79225D01*
X44934Y79392D01*
X44728Y79511D01*
X44499Y79572D01*
D02*
G37*
G36*
X72661Y78273D02*
X71811D01*
Y77673D01*
X72661D01*
Y78273D01*
D02*
G37*
G36*
X71611D02*
X70761D01*
Y77673D01*
X71611D01*
Y78273D01*
D02*
G37*
G36*
X76013Y77928D02*
X75113D01*
Y77528D01*
X76013D01*
Y77928D01*
D02*
G37*
G36*
X74913D02*
X74013D01*
Y77528D01*
X74913D01*
Y77928D01*
D02*
G37*
G36*
X76013Y77258D02*
X74013D01*
Y76258D01*
X76013D01*
Y77258D01*
D02*
G37*
G36*
X60758Y77742D02*
X60508D01*
X60266Y77677D01*
X60050Y77552D01*
X59873Y77375D01*
X59748Y77159D01*
X59683Y76917D01*
Y76667D01*
X59748Y76425D01*
X59873Y76209D01*
X60050Y76032D01*
X60266Y75907D01*
X60508Y75842D01*
X60758D01*
X61000Y75907D01*
X61216Y76032D01*
X61393Y76209D01*
X61518Y76425D01*
X61583Y76667D01*
Y76917D01*
X61518Y77159D01*
X61393Y77375D01*
X61216Y77552D01*
X61000Y77677D01*
X60758Y77742D01*
D02*
G37*
G36*
X59043D02*
X57143D01*
Y75842D01*
X59043D01*
Y77742D01*
D02*
G37*
G36*
X44499Y77572D02*
X44263D01*
X44034Y77511D01*
X43828Y77392D01*
X43661Y77225D01*
X43542Y77019D01*
X43481Y76790D01*
Y76554D01*
X43542Y76325D01*
X43661Y76119D01*
X43828Y75952D01*
X44034Y75833D01*
X44263Y75772D01*
X44499D01*
X44728Y75833D01*
X44934Y75952D01*
X45101Y76119D01*
X45220Y76325D01*
X45281Y76554D01*
Y76790D01*
X45220Y77019D01*
X45101Y77225D01*
X44934Y77392D01*
X44728Y77511D01*
X44499Y77572D01*
D02*
G37*
G36*
X58218Y75202D02*
X57968D01*
X57726Y75137D01*
X57510Y75012D01*
X57333Y74835D01*
X57208Y74619D01*
X57143Y74377D01*
Y74127D01*
X57208Y73885D01*
X57333Y73669D01*
X57510Y73492D01*
X57726Y73367D01*
X57968Y73302D01*
X58218D01*
X58460Y73367D01*
X58676Y73492D01*
X58853Y73669D01*
X58978Y73885D01*
X59043Y74127D01*
Y74377D01*
X58978Y74619D01*
X58853Y74835D01*
X58676Y75012D01*
X58460Y75137D01*
X58218Y75202D01*
D02*
G37*
G36*
X60758D02*
X60508D01*
X60266Y75137D01*
X60050Y75012D01*
X59873Y74835D01*
X59748Y74619D01*
X59683Y74377D01*
Y74127D01*
X59748Y73885D01*
X59873Y73669D01*
X60050Y73492D01*
X60266Y73367D01*
X60508Y73302D01*
X60758D01*
X61000Y73367D01*
X61008Y73372D01*
X61417Y72964D01*
Y72451D01*
X61290Y72399D01*
X61216Y72472D01*
X61000Y72597D01*
X60758Y72662D01*
X60508D01*
X60266Y72597D01*
X60050Y72472D01*
X59873Y72295D01*
X59748Y72079D01*
X59683Y71837D01*
Y71587D01*
X59748Y71345D01*
X59873Y71129D01*
X60050Y70952D01*
X60266Y70827D01*
X60508Y70762D01*
X60758D01*
X61000Y70827D01*
X61216Y70952D01*
X61290Y71025D01*
X61417Y70973D01*
Y69911D01*
X61290Y69859D01*
X61216Y69932D01*
X61000Y70057D01*
X60758Y70122D01*
X60508D01*
X60266Y70057D01*
X60050Y69932D01*
X59873Y69755D01*
X59748Y69539D01*
X59717Y69425D01*
X59590Y69442D01*
Y70572D01*
X59563Y70708D01*
X59486Y70824D01*
X58973Y71337D01*
X58978Y71345D01*
X59043Y71587D01*
Y71837D01*
X58978Y72079D01*
X58853Y72295D01*
X58676Y72472D01*
X58460Y72597D01*
X58218Y72662D01*
X57968D01*
X57726Y72597D01*
X57510Y72472D01*
X57333Y72295D01*
X57208Y72079D01*
X57143Y71837D01*
Y71587D01*
X57208Y71345D01*
X57333Y71129D01*
X57510Y70952D01*
X57726Y70827D01*
X57968Y70762D01*
X58218D01*
X58460Y70827D01*
X58468Y70832D01*
X58877Y70424D01*
Y69911D01*
X58750Y69859D01*
X58676Y69932D01*
X58460Y70057D01*
X58218Y70122D01*
X58193D01*
Y69172D01*
Y68222D01*
X58218D01*
X58460Y68287D01*
X58676Y68412D01*
X58750Y68485D01*
X58877Y68433D01*
Y67371D01*
X58750Y67319D01*
X58676Y67392D01*
X58460Y67517D01*
X58218Y67582D01*
X57968D01*
X57726Y67517D01*
X57510Y67392D01*
X57333Y67215D01*
X57208Y66999D01*
X57143Y66757D01*
Y66507D01*
X57208Y66265D01*
X57333Y66049D01*
X57510Y65872D01*
X57726Y65747D01*
X57968Y65682D01*
X58218D01*
X58427Y65738D01*
X58643Y65522D01*
Y60814D01*
X58516Y60762D01*
X58412Y60866D01*
X58209Y60950D01*
X57991D01*
X57788Y60866D01*
X57634Y60712D01*
X57550Y60509D01*
Y60291D01*
X57634Y60088D01*
X57788Y59934D01*
X57802Y59928D01*
Y59445D01*
X54497D01*
Y62761D01*
X54638D01*
Y64661D01*
X53238D01*
Y62982D01*
X53121Y62933D01*
X52788Y63266D01*
Y64661D01*
X51388D01*
Y64290D01*
X51241D01*
Y64633D01*
X50790D01*
X50738Y64760D01*
X50766Y64788D01*
X50850Y64991D01*
Y65209D01*
X50766Y65412D01*
X50612Y65566D01*
X50409Y65650D01*
X50191D01*
X49988Y65566D01*
X49834Y65412D01*
X49750Y65209D01*
Y64991D01*
X49834Y64788D01*
X49862Y64760D01*
X49810Y64633D01*
X49341D01*
Y63233D01*
X51241D01*
Y63576D01*
X51388D01*
Y62761D01*
X52283D01*
X53043Y62001D01*
Y59445D01*
X52700D01*
Y58345D01*
Y57245D01*
X61300D01*
Y58345D01*
Y59445D01*
X60957D01*
Y64838D01*
X62026Y65907D01*
X62103Y66023D01*
X62130Y66160D01*
Y73112D01*
X62103Y73248D01*
X62026Y73364D01*
X61513Y73877D01*
X61518Y73885D01*
X61583Y74127D01*
Y74377D01*
X61518Y74619D01*
X61393Y74835D01*
X61216Y75012D01*
X61000Y75137D01*
X60758Y75202D01*
D02*
G37*
G36*
X57993Y70122D02*
X57968D01*
X57726Y70057D01*
X57510Y69932D01*
X57333Y69755D01*
X57208Y69539D01*
X57143Y69297D01*
Y69272D01*
X57993D01*
Y70122D01*
D02*
G37*
G36*
Y69072D02*
X57143D01*
Y69047D01*
X57208Y68805D01*
X57333Y68589D01*
X57510Y68412D01*
X57726Y68287D01*
X57968Y68222D01*
X57993D01*
Y69072D01*
D02*
G37*
G36*
X65488Y64661D02*
X64888D01*
Y63811D01*
X65488D01*
Y64661D01*
D02*
G37*
G36*
X64688D02*
X64088D01*
Y63811D01*
X64688D01*
Y64661D01*
D02*
G37*
G36*
X67338D02*
X65938D01*
Y63510D01*
X65823Y63433D01*
X65605Y63216D01*
X65488Y63264D01*
Y63611D01*
X64888D01*
Y62761D01*
X64985D01*
X65033Y62644D01*
X61978Y59588D01*
X61892Y59459D01*
X61889Y59445D01*
X61500D01*
Y58345D01*
Y57245D01*
X65050D01*
Y59445D01*
X63127D01*
X63078Y59562D01*
X66269Y62753D01*
X66328D01*
X66367Y62761D01*
X67338D01*
Y63161D01*
X67370Y63189D01*
X67465Y63232D01*
X67636Y63161D01*
X67854D01*
X68057Y63245D01*
X68211Y63399D01*
X68295Y63602D01*
Y63820D01*
X68211Y64023D01*
X68057Y64177D01*
X67854Y64261D01*
X67636D01*
X67465Y64190D01*
X67370Y64233D01*
X67338Y64261D01*
Y64661D01*
D02*
G37*
G36*
X64688Y63611D02*
X64088D01*
Y62761D01*
X64688D01*
Y63611D01*
D02*
G37*
G36*
X51241Y62783D02*
X50391D01*
Y62183D01*
X51241D01*
Y62783D01*
D02*
G37*
G36*
X50191D02*
X49341D01*
Y62183D01*
X50191D01*
Y62783D01*
D02*
G37*
G36*
X51241Y61983D02*
X50391D01*
Y61383D01*
X51241D01*
Y61983D01*
D02*
G37*
G36*
X50191D02*
X49341D01*
Y61383D01*
X50191D01*
Y61983D01*
D02*
G37*
G36*
X33901Y61232D02*
X33301D01*
Y60382D01*
X33901D01*
Y61232D01*
D02*
G37*
G36*
X33101D02*
X32501D01*
Y60382D01*
X33101D01*
Y61232D01*
D02*
G37*
G36*
X76013Y60429D02*
X74013D01*
Y59429D01*
X76013D01*
Y60429D01*
D02*
G37*
G36*
X72661Y59958D02*
X71811D01*
Y59358D01*
X72661D01*
Y59958D01*
D02*
G37*
G36*
X71611D02*
X70761D01*
Y59358D01*
X71611D01*
Y59958D01*
D02*
G37*
G36*
X33901Y60182D02*
X33301D01*
Y59332D01*
X33901D01*
Y60182D01*
D02*
G37*
G36*
X33101D02*
X32501D01*
Y59332D01*
X33101D01*
Y60182D01*
D02*
G37*
G36*
X76013Y59159D02*
X75113D01*
Y58759D01*
X76013D01*
Y59159D01*
D02*
G37*
G36*
X74913D02*
X74013D01*
Y58759D01*
X74913D01*
Y59159D01*
D02*
G37*
G36*
X72661Y59158D02*
X71811D01*
Y58558D01*
X72661D01*
Y59158D01*
D02*
G37*
G36*
X71611D02*
X70761D01*
Y58558D01*
X71611D01*
Y59158D01*
D02*
G37*
G36*
X52500Y59445D02*
X52150D01*
Y58445D01*
X52500D01*
Y59445D01*
D02*
G37*
G36*
X76013Y58559D02*
X75113D01*
Y58159D01*
X76013D01*
Y58559D01*
D02*
G37*
G36*
X74913D02*
X74013D01*
Y58159D01*
X74913D01*
Y58559D01*
D02*
G37*
G36*
X34209Y58486D02*
X33809D01*
Y57436D01*
X34209D01*
Y58486D01*
D02*
G37*
G36*
X33609D02*
X33209D01*
Y57436D01*
X33609D01*
Y58486D01*
D02*
G37*
G36*
X52500Y58245D02*
X52150D01*
Y57245D01*
X52500D01*
Y58245D01*
D02*
G37*
G36*
X76013Y57889D02*
X74013D01*
Y56889D01*
X76013D01*
Y57889D01*
D02*
G37*
G36*
X35160Y62301D02*
X34942D01*
X34739Y62217D01*
X34585Y62063D01*
X34501Y61860D01*
Y61642D01*
X34585Y61439D01*
X34653Y61371D01*
Y61232D01*
X34351D01*
Y59332D01*
X34617D01*
Y58486D01*
X34479D01*
Y56186D01*
X35479D01*
Y58486D01*
X35413D01*
Y59332D01*
X35751D01*
Y61232D01*
X35449D01*
Y61371D01*
X35517Y61439D01*
X35601Y61642D01*
Y61860D01*
X35517Y62063D01*
X35363Y62217D01*
X35160Y62301D01*
D02*
G37*
G36*
X34209Y57236D02*
X33809D01*
Y56186D01*
X34209D01*
Y57236D01*
D02*
G37*
G36*
X33609D02*
X33209D01*
Y56186D01*
X33609D01*
Y57236D01*
D02*
G37*
G36*
X67700Y56795D02*
X65500D01*
Y55895D01*
Y55095D01*
Y54295D01*
Y53495D01*
Y52695D01*
Y51895D01*
Y51095D01*
Y50295D01*
Y49495D01*
Y48695D01*
Y47895D01*
Y47095D01*
Y46295D01*
Y45495D01*
Y44695D01*
Y43895D01*
X67700D01*
Y44695D01*
Y45495D01*
Y46295D01*
Y47095D01*
Y47895D01*
Y48695D01*
Y49495D01*
Y50295D01*
Y51095D01*
Y51895D01*
Y52695D01*
Y53495D01*
Y54295D01*
Y55095D01*
Y55895D01*
Y56795D01*
D02*
G37*
G36*
X43061Y59075D02*
X36939D01*
X36787Y59044D01*
X36658Y58958D01*
X36186Y58486D01*
X35749D01*
Y56186D01*
X36749D01*
Y57923D01*
X36902Y58076D01*
X37019Y58027D01*
Y56186D01*
X38019D01*
Y56938D01*
X38289D01*
Y56186D01*
X38726D01*
X41248Y53663D01*
X41378Y53577D01*
X41530Y53547D01*
X49500D01*
Y52695D01*
Y51895D01*
Y51095D01*
Y50295D01*
Y49495D01*
Y48695D01*
Y47895D01*
Y47095D01*
Y46295D01*
Y45495D01*
Y44695D01*
Y43895D01*
X51700D01*
Y44695D01*
Y45495D01*
Y46295D01*
Y47095D01*
Y47895D01*
Y48695D01*
Y49495D01*
Y50295D01*
Y51095D01*
Y51895D01*
Y52695D01*
Y53495D01*
Y54295D01*
Y55095D01*
Y55895D01*
Y56795D01*
X49500D01*
Y55943D01*
X46357D01*
X43342Y58958D01*
X43213Y59044D01*
X43188Y59049D01*
X43061Y59075D01*
D02*
G37*
G36*
X65050Y43445D02*
X55900D01*
Y42345D01*
X55700D01*
Y43445D01*
X52150D01*
Y41245D01*
X55710D01*
X55759Y41128D01*
X54418Y39787D01*
X54332Y39658D01*
X54302Y39506D01*
Y39134D01*
X54000D01*
Y37234D01*
X54115D01*
X54200Y37107D01*
X54150Y36987D01*
Y36769D01*
X54234Y36566D01*
X54388Y36412D01*
X54591Y36328D01*
X54809D01*
X55012Y36412D01*
X55166Y36566D01*
X55250Y36769D01*
Y36987D01*
X55200Y37107D01*
X55285Y37234D01*
X55400D01*
Y39134D01*
X55098D01*
Y39341D01*
X56822Y41064D01*
X56875Y41144D01*
X57002Y41105D01*
Y38418D01*
X55748Y37164D01*
X55662Y37035D01*
X55631Y36882D01*
Y35320D01*
X50520D01*
Y32920D01*
X53341D01*
Y31133D01*
X53039D01*
Y29233D01*
X54439D01*
Y31133D01*
X54137D01*
Y32920D01*
X56420D01*
Y34891D01*
X56428Y34930D01*
Y36718D01*
X57675Y37965D01*
X57703Y37963D01*
X57802Y37923D01*
Y37140D01*
X57832Y36988D01*
X57918Y36858D01*
X60020Y34757D01*
Y32920D01*
X62049D01*
Y31133D01*
X61747D01*
Y29233D01*
X63147D01*
Y31133D01*
X62845D01*
Y32920D01*
X65920D01*
Y35320D01*
X60583D01*
X58598Y37305D01*
Y41245D01*
X65050D01*
Y43445D01*
D02*
G37*
G36*
X76013Y42474D02*
X74013D01*
Y41474D01*
X76013D01*
Y42474D01*
D02*
G37*
G36*
X73804Y42003D02*
X72954D01*
Y41403D01*
X73804D01*
Y42003D01*
D02*
G37*
G36*
X72754D02*
X71904D01*
Y41403D01*
X72754D01*
Y42003D01*
D02*
G37*
G36*
X76013Y41204D02*
X75113D01*
Y40804D01*
X76013D01*
Y41204D01*
D02*
G37*
G36*
X74913D02*
X74013D01*
Y40804D01*
X74913D01*
Y41204D01*
D02*
G37*
G36*
X73804Y41203D02*
X72954D01*
Y40603D01*
X73804D01*
Y41203D01*
D02*
G37*
G36*
X72754D02*
X71904D01*
Y40603D01*
X72754D01*
Y41203D01*
D02*
G37*
G36*
X76013Y40604D02*
X75113D01*
Y40204D01*
X76013D01*
Y40604D01*
D02*
G37*
G36*
X74913D02*
X74013D01*
Y40204D01*
X74913D01*
Y40604D01*
D02*
G37*
G36*
X76013Y39934D02*
X74013D01*
Y38934D01*
X76013D01*
Y39934D01*
D02*
G37*
G36*
X53550Y39134D02*
X52950D01*
Y38284D01*
X53550D01*
Y39134D01*
D02*
G37*
G36*
X52750D02*
X52150D01*
Y38284D01*
X52750D01*
Y39134D01*
D02*
G37*
G36*
X53550Y38084D02*
X52950D01*
Y37234D01*
X53550D01*
Y38084D01*
D02*
G37*
G36*
X52750D02*
X52150D01*
Y37234D01*
X52750D01*
Y38084D01*
D02*
G37*
G36*
X61297Y31133D02*
X59897D01*
Y30733D01*
X59865Y30705D01*
X59770Y30662D01*
X59599Y30733D01*
X59381D01*
X59178Y30649D01*
X59024Y30495D01*
X58940Y30292D01*
Y30074D01*
X59024Y29871D01*
X59178Y29717D01*
X59381Y29633D01*
X59599D01*
X59770Y29704D01*
X59865Y29661D01*
X59897Y29633D01*
Y29233D01*
X61297D01*
Y31133D01*
D02*
G37*
G36*
X56289D02*
X54889D01*
Y29233D01*
X56289D01*
Y29785D01*
X56697D01*
X56765Y29717D01*
X56968Y29633D01*
X57186D01*
X57389Y29717D01*
X57543Y29871D01*
X57627Y30074D01*
Y30292D01*
X57543Y30495D01*
X57389Y30649D01*
X57186Y30733D01*
X56968D01*
X56765Y30649D01*
X56697Y30581D01*
X56289D01*
Y31133D01*
D02*
G37*
G36*
X76013Y22582D02*
X74013D01*
Y21582D01*
X76013D01*
Y22582D01*
D02*
G37*
G36*
X73804Y21984D02*
X72954D01*
Y21384D01*
X73804D01*
Y21984D01*
D02*
G37*
G36*
X72754D02*
X71904D01*
Y21384D01*
X72754D01*
Y21984D01*
D02*
G37*
G36*
X76013Y21312D02*
X75113D01*
Y20912D01*
X76013D01*
Y21312D01*
D02*
G37*
G36*
X74913D02*
X74013D01*
Y20912D01*
X74913D01*
Y21312D01*
D02*
G37*
G36*
X73804Y21184D02*
X72954D01*
Y20584D01*
X73804D01*
Y21184D01*
D02*
G37*
G36*
X72754D02*
X71904D01*
Y20584D01*
X72754D01*
Y21184D01*
D02*
G37*
G36*
X76013Y20712D02*
X75113D01*
Y20312D01*
X76013D01*
Y20712D01*
D02*
G37*
G36*
X74913D02*
X74013D01*
Y20312D01*
X74913D01*
Y20712D01*
D02*
G37*
%LPD*%
G36*
X59748Y68805D02*
X59873Y68589D01*
X60050Y68412D01*
X60266Y68287D01*
X60508Y68222D01*
X60758D01*
X61000Y68287D01*
X61216Y68412D01*
X61290Y68485D01*
X61417Y68433D01*
Y67371D01*
X61290Y67319D01*
X61216Y67392D01*
X61000Y67517D01*
X60758Y67582D01*
X60508D01*
X60266Y67517D01*
X60050Y67392D01*
X59873Y67215D01*
X59748Y66999D01*
X59717Y66885D01*
X59590Y66902D01*
Y68902D01*
X59717Y68919D01*
X59748Y68805D01*
D02*
G37*
G36*
X42099Y56186D02*
X43099D01*
Y57909D01*
X43216Y57958D01*
X45904Y55270D01*
X45902Y55242D01*
X45862Y55143D01*
X42165D01*
X41239Y56069D01*
X41288Y56186D01*
X41829D01*
Y58278D01*
X42099D01*
Y56186D01*
D02*
G37*
%LPC*%
G36*
X17981Y93137D02*
X17963D01*
Y92337D01*
X18763D01*
Y92355D01*
X18702Y92584D01*
X18583Y92790D01*
X18416Y92957D01*
X18210Y93076D01*
X17981Y93137D01*
D02*
G37*
G36*
X17763D02*
X17745D01*
X17516Y93076D01*
X17310Y92957D01*
X17143Y92790D01*
X17024Y92584D01*
X16963Y92355D01*
Y92337D01*
X17763D01*
Y93137D01*
D02*
G37*
G36*
X20521D02*
X20285D01*
X20056Y93076D01*
X19850Y92957D01*
X19683Y92790D01*
X19564Y92584D01*
X19503Y92355D01*
Y92119D01*
X19564Y91890D01*
X19683Y91684D01*
X19850Y91517D01*
X20056Y91398D01*
X20285Y91337D01*
X20521D01*
X20750Y91398D01*
X20956Y91517D01*
X21123Y91684D01*
X21242Y91890D01*
X21303Y92119D01*
Y92355D01*
X21242Y92584D01*
X21123Y92790D01*
X20956Y92957D01*
X20750Y93076D01*
X20521Y93137D01*
D02*
G37*
G36*
X18763Y92137D02*
X17963D01*
Y91337D01*
X17981D01*
X18210Y91398D01*
X18416Y91517D01*
X18583Y91684D01*
X18702Y91890D01*
X18763Y92119D01*
Y92137D01*
D02*
G37*
G36*
X17763D02*
X16963D01*
Y92119D01*
X17024Y91890D01*
X17143Y91684D01*
X17310Y91517D01*
X17516Y91398D01*
X17745Y91337D01*
X17763D01*
Y92137D01*
D02*
G37*
G36*
X15441Y93137D02*
X15205D01*
X14976Y93076D01*
X14770Y92957D01*
X14603Y92790D01*
X14484Y92584D01*
X14423Y92355D01*
Y92119D01*
X14484Y91890D01*
X14603Y91684D01*
X14770Y91517D01*
X14976Y91398D01*
X15205Y91337D01*
X15441D01*
X15670Y91398D01*
X15876Y91517D01*
X16043Y91684D01*
X16162Y91890D01*
X16223Y92119D01*
Y92355D01*
X16162Y92584D01*
X16043Y92790D01*
X15876Y92957D01*
X15670Y93076D01*
X15441Y93137D01*
D02*
G37*
G36*
X20413Y83109D02*
X20177D01*
X19948Y83048D01*
X19742Y82929D01*
X19575Y82762D01*
X19456Y82556D01*
X19395Y82327D01*
Y82091D01*
X19456Y81862D01*
X19575Y81656D01*
X19742Y81489D01*
X19948Y81370D01*
X20177Y81309D01*
X20413D01*
X20642Y81370D01*
X20848Y81489D01*
X21015Y81656D01*
X21134Y81862D01*
X21195Y82091D01*
Y82327D01*
X21134Y82556D01*
X21015Y82762D01*
X20848Y82929D01*
X20642Y83048D01*
X20413Y83109D01*
D02*
G37*
G36*
Y81109D02*
X20177D01*
X19948Y81048D01*
X19742Y80929D01*
X19575Y80762D01*
X19456Y80556D01*
X19395Y80327D01*
Y80091D01*
X19456Y79862D01*
X19575Y79656D01*
X19742Y79489D01*
X19948Y79370D01*
X20177Y79309D01*
X20413D01*
X20642Y79370D01*
X20848Y79489D01*
X21015Y79656D01*
X21134Y79862D01*
X21195Y80091D01*
Y80327D01*
X21134Y80556D01*
X21015Y80762D01*
X20848Y80929D01*
X20642Y81048D01*
X20413Y81109D01*
D02*
G37*
G36*
Y79109D02*
X20395D01*
Y78309D01*
X21195D01*
Y78327D01*
X21134Y78556D01*
X21015Y78762D01*
X20848Y78929D01*
X20642Y79048D01*
X20413Y79109D01*
D02*
G37*
G36*
X20195D02*
X20177D01*
X19948Y79048D01*
X19742Y78929D01*
X19575Y78762D01*
X19456Y78556D01*
X19395Y78327D01*
Y78309D01*
X20195D01*
Y79109D01*
D02*
G37*
G36*
X21195Y78109D02*
X20395D01*
Y77309D01*
X20413D01*
X20642Y77370D01*
X20848Y77489D01*
X21015Y77656D01*
X21134Y77862D01*
X21195Y78091D01*
Y78109D01*
D02*
G37*
G36*
X20195D02*
X19395D01*
Y78091D01*
X19456Y77862D01*
X19575Y77656D01*
X19742Y77489D01*
X19948Y77370D01*
X20177Y77309D01*
X20195D01*
Y78109D01*
D02*
G37*
%LPD*%
D17*
X50291Y65091D02*
X50300Y65100D01*
X50291Y63933D02*
Y65091D01*
X59000Y58345D02*
Y65670D01*
X53400Y58345D02*
Y62149D01*
X52088Y63461D02*
Y63711D01*
Y63461D02*
X53400Y62149D01*
X50291Y63933D02*
X51866D01*
X52088Y63711D01*
X54140Y58404D02*
Y63508D01*
Y58404D02*
X54200Y58345D01*
X53938Y63711D02*
X54140Y63508D01*
X60633Y74252D02*
X61773Y73112D01*
Y66160D02*
Y73112D01*
X60600Y64986D02*
X61773Y66160D01*
X60600Y58345D02*
Y64986D01*
X58093Y71712D02*
X59234Y70572D01*
Y66419D02*
Y70572D01*
Y66419D02*
X59800Y65852D01*
Y58345D02*
Y65852D01*
X58093Y66577D02*
X59000Y65670D01*
X58093Y66577D02*
Y66632D01*
D38*
X80728Y58659D02*
D03*
Y59929D02*
D03*
Y61199D02*
D03*
X75013D02*
D03*
Y59929D02*
D03*
Y58659D02*
D03*
X80728Y57389D02*
D03*
X75013D02*
D03*
X80728Y40704D02*
D03*
Y41974D02*
D03*
Y43244D02*
D03*
X75013D02*
D03*
Y41974D02*
D03*
Y40704D02*
D03*
X80728Y39434D02*
D03*
X75013D02*
D03*
X80728Y78028D02*
D03*
Y79298D02*
D03*
Y80568D02*
D03*
X75013D02*
D03*
Y79298D02*
D03*
Y78028D02*
D03*
X80728Y76758D02*
D03*
X75013D02*
D03*
Y23352D02*
D03*
X80728Y19542D02*
D03*
Y23352D02*
D03*
X75013Y20812D02*
D03*
Y19542D02*
D03*
Y22082D02*
D03*
X80728D02*
D03*
Y20812D02*
D03*
D39*
X71711Y59258D02*
D03*
Y61108D02*
D03*
X72854Y41303D02*
D03*
Y43153D02*
D03*
X71711Y78373D02*
D03*
Y80223D02*
D03*
X72854Y23134D02*
D03*
X50291Y63933D02*
D03*
X72854Y21284D02*
D03*
X50291Y62083D02*
D03*
D40*
X87042Y59294D02*
D03*
X88892D02*
D03*
X83613Y58151D02*
D03*
X85463D02*
D03*
X83613Y60183D02*
D03*
X85463D02*
D03*
X80637Y63739D02*
D03*
X78787D02*
D03*
X80637Y45784D02*
D03*
X78787D02*
D03*
X87042Y41212D02*
D03*
X88892D02*
D03*
X83613Y40323D02*
D03*
X85463D02*
D03*
X83613Y42355D02*
D03*
X85463D02*
D03*
X83613Y79298D02*
D03*
X85463D02*
D03*
X83613Y77266D02*
D03*
X85463D02*
D03*
X87042Y78155D02*
D03*
X88892D02*
D03*
X80637Y82727D02*
D03*
X78787D02*
D03*
X35051Y60282D02*
D03*
X78787Y25638D02*
D03*
X54700Y38184D02*
D03*
X55589Y30183D02*
D03*
X60597D02*
D03*
X52088Y63711D02*
D03*
X66638D02*
D03*
X80637Y25638D02*
D03*
X64788Y63711D02*
D03*
X52850Y38184D02*
D03*
X33201Y60282D02*
D03*
X33038Y44788D02*
D03*
X53739Y30183D02*
D03*
X62447D02*
D03*
X34888Y44788D02*
D03*
X36975D02*
D03*
X38825D02*
D03*
X53938Y63711D02*
D03*
X85463Y22336D02*
D03*
X83613D02*
D03*
X85463Y20304D02*
D03*
X83613D02*
D03*
X88892Y21193D02*
D03*
X87042D02*
D03*
D41*
X34979Y57336D02*
D03*
X33709Y47836D02*
D03*
Y57336D02*
D03*
X34979Y47836D02*
D03*
X36249D02*
D03*
X37519D02*
D03*
X38789D02*
D03*
X40059D02*
D03*
X41329D02*
D03*
X42599D02*
D03*
X36249Y57336D02*
D03*
X37519D02*
D03*
X38789D02*
D03*
X40059D02*
D03*
X41329D02*
D03*
X42599D02*
D03*
D42*
X53400Y58345D02*
D03*
X56600Y42345D02*
D03*
X62200Y58345D02*
D03*
X61400D02*
D03*
X55800Y42345D02*
D03*
X52600Y58345D02*
D03*
X64600D02*
D03*
X63800D02*
D03*
X63000D02*
D03*
X64600Y42345D02*
D03*
X63800D02*
D03*
X63000D02*
D03*
X62200D02*
D03*
X61400D02*
D03*
X59800D02*
D03*
Y58345D02*
D03*
X60600Y42345D02*
D03*
X59000D02*
D03*
X58200D02*
D03*
X57400D02*
D03*
X55000D02*
D03*
X54200D02*
D03*
X53400D02*
D03*
X52600D02*
D03*
X60600Y58345D02*
D03*
X54200D02*
D03*
X55000D02*
D03*
X55800D02*
D03*
X56600D02*
D03*
X57400D02*
D03*
X58200D02*
D03*
X59000D02*
D03*
D43*
X53470Y34120D02*
D03*
X62970D02*
D03*
D44*
X66600Y44345D02*
D03*
Y45145D02*
D03*
Y45945D02*
D03*
Y46745D02*
D03*
Y47545D02*
D03*
X50600Y44345D02*
D03*
Y45145D02*
D03*
Y45945D02*
D03*
Y46745D02*
D03*
Y47545D02*
D03*
X66600Y53145D02*
D03*
X50600D02*
D03*
X66600Y56345D02*
D03*
Y55545D02*
D03*
Y54745D02*
D03*
Y53945D02*
D03*
Y52345D02*
D03*
Y51545D02*
D03*
Y50745D02*
D03*
Y49945D02*
D03*
Y49145D02*
D03*
Y48345D02*
D03*
X50600Y53945D02*
D03*
Y54745D02*
D03*
Y55545D02*
D03*
Y56345D02*
D03*
Y52345D02*
D03*
Y51545D02*
D03*
Y48345D02*
D03*
Y49145D02*
D03*
Y49945D02*
D03*
Y50745D02*
D03*
D45*
X15598Y49976D02*
D03*
Y55976D02*
D03*
D46*
X78743Y25681D02*
X78787Y25638D01*
X78700Y27000D02*
X78743Y26956D01*
Y25681D02*
Y26956D01*
X77715Y25638D02*
X78787D01*
X71711Y61108D02*
Y62311D01*
X58100Y60400D02*
X58200Y60300D01*
Y58345D02*
Y60300D01*
X77672Y82727D02*
X78787D01*
X75513Y80568D02*
X77672Y82727D01*
X80500Y82864D02*
X80561Y82925D01*
Y83939D01*
X80500Y84000D02*
X80561Y83939D01*
X80500Y82864D02*
X80637Y82727D01*
Y65137D02*
X80663Y65163D01*
X80637Y63739D02*
Y65137D01*
X80698Y45845D02*
Y47104D01*
X80637Y45784D02*
X80698Y45845D01*
Y47104D02*
X80759Y47165D01*
X80637Y25638D02*
X80669Y25670D01*
Y27069D01*
X80700Y27100D01*
X33347Y45097D02*
Y45953D01*
X33709Y46314D02*
Y47836D01*
X33038Y44788D02*
X33347Y45097D01*
Y45953D02*
X33709Y46314D01*
X26593Y38093D02*
X33038Y44538D01*
X26593Y36789D02*
Y38093D01*
X33038Y44538D02*
Y44788D01*
X83359Y59929D02*
X83613Y60183D01*
X80728Y59929D02*
X83359D01*
X83303Y41974D02*
X83613Y42284D01*
X80728Y41974D02*
X83303D01*
X83613Y42284D02*
Y42355D01*
X83359Y22082D02*
X83613Y22336D01*
X80728Y22082D02*
X83359D01*
X78787Y20983D02*
Y25638D01*
Y20983D02*
X80228Y19542D01*
X80728D01*
X78787Y40875D02*
X80228Y39434D01*
X80728D01*
X78787Y40875D02*
Y45784D01*
Y63489D02*
Y63739D01*
Y58830D02*
Y63489D01*
X80228Y57389D02*
X80728D01*
X78787Y58830D02*
X80228Y57389D01*
X78787Y78199D02*
X80228Y76758D01*
X78787Y78199D02*
Y82727D01*
X80228Y76758D02*
X80728D01*
X71600Y81400D02*
X71711Y81289D01*
Y80223D02*
Y81289D01*
X72800Y24300D02*
X72854Y24246D01*
Y23134D02*
Y24246D01*
X78787Y63739D02*
Y65113D01*
Y47013D02*
X78800Y47026D01*
X78787Y45784D02*
Y47013D01*
X72854Y43153D02*
Y44246D01*
X83613Y13887D02*
X87500Y10000D01*
Y9500D02*
Y10000D01*
Y9500D02*
X87600Y9600D01*
X87042Y59294D02*
Y59544D01*
X85463Y60163D02*
X85772Y59854D01*
X83613Y52345D02*
Y58151D01*
X81228Y58659D02*
X81736Y58151D01*
X76497Y61199D02*
X78787Y63489D01*
X80637Y61290D02*
Y63739D01*
X80728Y58659D02*
X81228D01*
X75013Y61199D02*
X76497D01*
X80637Y61290D02*
X80728Y61199D01*
X74967Y61153D02*
X75013Y61199D01*
X81736Y58151D02*
X83613D01*
X71711Y61108D02*
X71757Y61153D01*
X74967D01*
X83613Y52345D02*
X87840Y48118D01*
X85463Y58151D02*
Y60163D01*
X85772Y59854D02*
X86732D01*
X87042Y59544D01*
X83613Y35443D02*
Y40323D01*
X86732Y40653D02*
X87042Y40962D01*
X85463Y40323D02*
Y40343D01*
X85772Y40653D02*
X86732D01*
X85463Y40343D02*
X85772Y40653D01*
X72854Y43153D02*
X72899Y43199D01*
X74967D01*
X75622Y43354D02*
Y43691D01*
X75513Y43244D02*
X75622Y43354D01*
X75013Y43244D02*
X75513D01*
X74967Y43199D02*
X75013Y43244D01*
X80637Y43335D02*
Y45784D01*
X77715D02*
X78787D01*
X80637Y43335D02*
X80728Y43244D01*
X75622Y43691D02*
X77715Y45784D01*
X80728Y40704D02*
X83303D01*
X83613Y40395D01*
Y35443D02*
X87713Y31343D01*
Y28512D02*
Y31343D01*
X85463Y40343D02*
Y42355D01*
X83613Y40323D02*
Y40395D01*
X87042Y40962D02*
Y41212D01*
X83613Y13887D02*
Y20304D01*
X85463D02*
Y20324D01*
Y22336D01*
X86732Y20633D02*
X87042Y20943D01*
X85772Y20633D02*
X86732D01*
X87042Y20943D02*
Y21193D01*
X85463Y20324D02*
X85772Y20633D01*
X81228Y20812D02*
X81736Y20304D01*
X80728Y20812D02*
X81228D01*
X81736Y20304D02*
X83613D01*
X80637Y23443D02*
Y25638D01*
Y23443D02*
X80728Y23352D01*
X75622Y23462D02*
Y23545D01*
X77715Y25638D01*
X75513Y23352D02*
X75622Y23462D01*
X75013Y23352D02*
X75513D01*
X74904Y23243D02*
X75013Y23352D01*
X72963Y23243D02*
X74904D01*
X72854Y23134D02*
X72963Y23243D01*
X83613Y71333D02*
X88221Y66725D01*
X83613Y71333D02*
Y77266D01*
X74513Y80568D02*
X75013D01*
X75513D01*
X80637Y80659D02*
Y82727D01*
Y80659D02*
X80728Y80568D01*
X74168Y80223D02*
X74513Y80568D01*
X71711Y80223D02*
X74168D01*
X85463Y77516D02*
Y79298D01*
Y77516D02*
X85772Y77826D01*
X86732D01*
X87042Y78135D01*
Y78155D01*
X85463Y77266D02*
Y77516D01*
X80728Y79298D02*
X83613D01*
X81228Y78028D02*
X81990Y77266D01*
X80728Y78028D02*
X81228D01*
X81990Y77266D02*
X83613D01*
X34979Y57336D02*
X35015Y57372D01*
X54700Y36878D02*
Y38184D01*
X35015Y57372D02*
Y60246D01*
X54700Y38184D02*
Y39506D01*
X56541Y41346D02*
Y42285D01*
X55589Y30183D02*
X57077D01*
X59490D02*
X60597D01*
X54700Y39506D02*
X56541Y41346D01*
Y42285D02*
X56600Y42345D01*
X62200Y58345D02*
X62259Y58404D01*
X35015Y60246D02*
X35051Y60282D01*
Y61751D01*
X62259Y58404D02*
Y59307D01*
X66104Y63152D01*
X66328D02*
X66638Y63461D01*
X66104Y63152D02*
X66328D01*
X66638Y63711D02*
X67745D01*
X66638Y63461D02*
Y63711D01*
X56029Y34930D02*
Y36882D01*
X57400Y38253D01*
X58200Y37140D02*
X61022Y34318D01*
X58200Y37140D02*
Y42345D01*
X53470Y34120D02*
X55220D01*
X56029Y34930D01*
X57400Y38253D02*
Y42345D01*
X61022Y34318D02*
X62772D01*
X62970Y34120D01*
X62447Y33597D02*
X62970Y34120D01*
X53470D02*
X53739Y33851D01*
Y30183D02*
Y33851D01*
X62447Y30183D02*
Y33597D01*
X36975Y39617D02*
X37011Y39581D01*
X36975Y39617D02*
Y44788D01*
Y45038D02*
X37519Y45582D01*
Y47836D01*
X36975Y44788D02*
Y45038D01*
X38825Y40572D02*
Y44788D01*
Y40572D02*
X39511Y39886D01*
Y39581D02*
Y39886D01*
X38807Y44806D02*
Y47818D01*
X38789Y47836D02*
X38807Y47818D01*
Y44806D02*
X38825Y44788D01*
X43061Y58676D02*
X46192Y55545D01*
X36939Y58676D02*
X43061D01*
X46192Y55545D02*
X50600D01*
X36249Y57336D02*
Y57986D01*
X36939Y58676D01*
X41530Y53945D02*
X50600D01*
X38789Y56686D02*
X41530Y53945D01*
X38789Y56686D02*
Y57336D01*
X37519D02*
X38789D01*
X40059Y56686D02*
Y57336D01*
Y56686D02*
X42000Y54745D01*
X50600D01*
X34852Y43264D02*
X34888Y43300D01*
Y44788D01*
X34933Y47791D02*
X34979Y47836D01*
X34933Y44833D02*
Y47791D01*
X34888Y44788D02*
X34933Y44833D01*
D47*
X15598Y55976D02*
X23472D01*
X15598Y49976D02*
X22552D01*
X23472Y50896D01*
D48*
X22593Y41869D02*
D03*
D49*
X24593D02*
D03*
X22593Y36789D02*
D03*
X26593D02*
D03*
X24593D02*
D03*
X28593Y41869D02*
D03*
X15323Y92237D02*
D03*
X17863D02*
D03*
X20403D02*
D03*
X22943D02*
D03*
X66123D02*
D03*
X83903D02*
D03*
X44381Y78672D02*
D03*
Y76672D02*
D03*
Y80672D02*
D03*
X39301Y82672D02*
D03*
Y78672D02*
D03*
X25375Y76209D02*
D03*
X20295Y80209D02*
D03*
Y78209D02*
D03*
Y82209D02*
D03*
X25375Y80209D02*
D03*
D50*
X10883Y92237D02*
D03*
X90883D02*
D03*
D51*
X87500Y15080D02*
D03*
X87840Y53198D02*
D03*
X87713Y33592D02*
D03*
X88221Y71805D02*
D03*
X23472Y55976D02*
D03*
D52*
X87500Y10000D02*
D03*
X87840Y48118D02*
D03*
X87713Y28512D02*
D03*
X88221Y66725D02*
D03*
X23472Y50896D02*
D03*
D53*
X5000Y95000D02*
D03*
X95000D02*
D03*
Y5000D02*
D03*
X5000D02*
D03*
D54*
X42011Y39581D02*
D03*
X39511D02*
D03*
D55*
X58093Y74252D02*
D03*
X60633Y76792D02*
D03*
X58093Y69172D02*
D03*
Y66632D02*
D03*
X60633D02*
D03*
Y69172D02*
D03*
X58093Y71712D02*
D03*
X60633D02*
D03*
Y74252D02*
D03*
D56*
X58093Y76792D02*
D03*
D57*
X37011Y39581D02*
D03*
D58*
X39301Y76672D02*
D03*
X25375Y82209D02*
D03*
D59*
X78700Y27000D02*
D03*
X50300Y65100D02*
D03*
X71711Y62311D02*
D03*
X58100Y60400D02*
D03*
X77672Y82727D02*
D03*
X80500Y84000D02*
D03*
X80663Y65163D02*
D03*
X80759Y47165D02*
D03*
X80700Y27100D02*
D03*
X35051Y61751D02*
D03*
X71600Y81400D02*
D03*
X72800Y24300D02*
D03*
X78787Y65113D02*
D03*
X78800Y47026D02*
D03*
X72854Y44246D02*
D03*
X54700Y36878D02*
D03*
X57077Y30183D02*
D03*
X59490D02*
D03*
X67745Y63711D02*
D03*
X34852Y43264D02*
D03*
M02*
