G04*
G04 #@! TF.GenerationSoftware,Altium Limited,Altium Designer,23.11.1 (41)*
G04*
G04 Layer_Color=16711935*
%FSLAX43Y43*%
%MOMM*%
G71*
G04*
G04 #@! TF.SameCoordinates,B7B300D0-87F7-4E0C-A4D9-EE24505A4503*
G04*
G04*
G04 #@! TF.FilePolarity,Negative*
G04*
G01*
G75*
%ADD20R,0.900X1.000*%
%ADD21R,1.000X0.900*%
%ADD27R,1.700X1.700*%
%ADD28C,1.700*%
%ADD29C,6.100*%
%ADD30C,1.400*%
%ADD31R,1.400X1.400*%
%ADD32C,1.600*%
%ADD33R,1.600X1.600*%
%ADD34R,1.600X1.600*%
%ADD35C,1.500*%
%ADD36R,1.500X1.500*%
%ADD37C,4.800*%
%ADD38R,1.300X1.300*%
%ADD39C,1.300*%
%ADD73R,1.000X2.600*%
%ADD74R,1.700X1.900*%
%ADD75R,0.400X0.900*%
%ADD76R,0.900X0.400*%
%ADD77R,0.400X1.600*%
%ADD78R,1.600X0.400*%
%ADD79R,1.100X1.500*%
%ADD80R,1.200X2.100*%
%ADD81R,3.400X2.100*%
%ADD82R,1.900X1.700*%
%ADD83R,1.500X1.100*%
D20*
X50273Y47505D02*
D03*
X48953D02*
D03*
X50270Y46200D02*
D03*
X48950D02*
D03*
X50370Y41425D02*
D03*
X49050D02*
D03*
X51311Y37624D02*
D03*
X49991D02*
D03*
X46175Y37500D02*
D03*
X47495D02*
D03*
X35970Y35250D02*
D03*
X34650D02*
D03*
X34655Y36550D02*
D03*
X35975D02*
D03*
X41270Y35000D02*
D03*
X39950D02*
D03*
X34435Y55025D02*
D03*
X35755D02*
D03*
X47490Y38800D02*
D03*
X46170D02*
D03*
X41275Y33700D02*
D03*
X39955D02*
D03*
X34435Y53725D02*
D03*
X35755D02*
D03*
X41275Y32400D02*
D03*
X39955D02*
D03*
X34430Y52425D02*
D03*
X35750D02*
D03*
X39950Y31100D02*
D03*
X41270D02*
D03*
X35750Y56350D02*
D03*
X34430D02*
D03*
X34650Y37850D02*
D03*
X35970D02*
D03*
D21*
X35900Y49830D02*
D03*
Y51150D02*
D03*
X34600Y49830D02*
D03*
Y51150D02*
D03*
X50050Y40200D02*
D03*
Y38880D02*
D03*
X51350Y40195D02*
D03*
Y38875D02*
D03*
X46500Y33900D02*
D03*
Y35220D02*
D03*
X45209Y35218D02*
D03*
Y33898D02*
D03*
X32000Y51145D02*
D03*
Y49825D02*
D03*
X48725Y38800D02*
D03*
Y37480D02*
D03*
X33300Y51150D02*
D03*
Y49830D02*
D03*
X50500Y33905D02*
D03*
Y35225D02*
D03*
X49200Y33905D02*
D03*
Y35225D02*
D03*
X30700Y51150D02*
D03*
Y49830D02*
D03*
X51800Y33905D02*
D03*
Y35225D02*
D03*
X47875D02*
D03*
Y33905D02*
D03*
X29400Y49805D02*
D03*
Y51125D02*
D03*
D27*
X39800Y20905D02*
D03*
D28*
X37500D02*
D03*
X35200D02*
D03*
X32900D02*
D03*
X30600D02*
D03*
X40950Y18365D02*
D03*
X38650D02*
D03*
X36350D02*
D03*
X34050D02*
D03*
X31750D02*
D03*
X39800Y15825D02*
D03*
X37500D02*
D03*
X30600D02*
D03*
X35200D02*
D03*
X32900D02*
D03*
D29*
X47700Y18365D02*
D03*
X22700D02*
D03*
D30*
X26305Y60909D02*
D03*
X28845D02*
D03*
X23765D02*
D03*
X21225D02*
D03*
X16145D02*
D03*
X13605D02*
D03*
X55465Y21789D02*
D03*
X53465D02*
D03*
X57465D02*
D03*
Y19789D02*
D03*
X53465D02*
D03*
X55465D02*
D03*
D31*
X11065Y60909D02*
D03*
D32*
X14375Y27550D02*
D03*
Y29550D02*
D03*
X64846Y20405D02*
D03*
X62846D02*
D03*
X11285Y50495D02*
D03*
D33*
X14375Y31550D02*
D03*
X11285Y48495D02*
D03*
D34*
X60846Y20405D02*
D03*
D35*
X77545Y20677D02*
D03*
X75545D02*
D03*
X73545D02*
D03*
X75545Y22677D02*
D03*
X73545D02*
D03*
X71545D02*
D03*
X69545D02*
D03*
X71545Y20677D02*
D03*
X69545D02*
D03*
D36*
X77545Y22677D02*
D03*
D37*
X6000Y60164D02*
D03*
X76000Y60000D02*
D03*
X6000Y15164D02*
D03*
X76000Y15000D02*
D03*
D38*
X10975Y39832D02*
D03*
D39*
X12975D02*
D03*
X15775D02*
D03*
X19775D02*
D03*
D73*
X13025Y37432D02*
D03*
X9725D02*
D03*
X13620Y58425D02*
D03*
X10320D02*
D03*
D74*
X29825Y52925D02*
D03*
X32695D02*
D03*
X48312Y32100D02*
D03*
X51182D02*
D03*
D75*
X41025Y52700D02*
D03*
X40525D02*
D03*
X40025D02*
D03*
X39525D02*
D03*
X41025Y54300D02*
D03*
X40525D02*
D03*
X40025D02*
D03*
X39525D02*
D03*
X42025D02*
D03*
X42525D02*
D03*
X43025D02*
D03*
X43525D02*
D03*
X42025Y52700D02*
D03*
X42525D02*
D03*
X43025D02*
D03*
X43525D02*
D03*
X45025Y57250D02*
D03*
X45525D02*
D03*
X46025D02*
D03*
X46525D02*
D03*
X45025Y55650D02*
D03*
X45525D02*
D03*
X46025D02*
D03*
X46525D02*
D03*
D76*
X51700Y42300D02*
D03*
Y42800D02*
D03*
Y43300D02*
D03*
Y43800D02*
D03*
X53300Y42300D02*
D03*
Y42800D02*
D03*
Y43300D02*
D03*
Y43800D02*
D03*
X31550Y43300D02*
D03*
Y43800D02*
D03*
Y44300D02*
D03*
Y44800D02*
D03*
X33150Y43300D02*
D03*
Y43800D02*
D03*
Y44300D02*
D03*
Y44800D02*
D03*
X31550Y45800D02*
D03*
Y46300D02*
D03*
Y46800D02*
D03*
Y47300D02*
D03*
X33150Y45800D02*
D03*
Y46300D02*
D03*
Y46800D02*
D03*
Y47300D02*
D03*
D77*
X45025Y50275D02*
D03*
X44525D02*
D03*
X44025D02*
D03*
X43525D02*
D03*
X43025D02*
D03*
X42525D02*
D03*
X42025D02*
D03*
X40525D02*
D03*
X41525D02*
D03*
X41025D02*
D03*
X39525D02*
D03*
X39025D02*
D03*
X38525D02*
D03*
X38025D02*
D03*
X37525D02*
D03*
X45025Y38775D02*
D03*
X44525D02*
D03*
X44025D02*
D03*
X43525D02*
D03*
X43025D02*
D03*
X42525D02*
D03*
X42025D02*
D03*
X40525D02*
D03*
X41525D02*
D03*
X41025D02*
D03*
X39525D02*
D03*
X39025D02*
D03*
X38525D02*
D03*
X38025D02*
D03*
X37525D02*
D03*
X40025Y50275D02*
D03*
Y38775D02*
D03*
D78*
X35525Y48275D02*
D03*
Y47775D02*
D03*
Y47275D02*
D03*
Y46775D02*
D03*
Y46275D02*
D03*
Y45775D02*
D03*
Y43775D02*
D03*
Y43275D02*
D03*
Y42775D02*
D03*
Y42275D02*
D03*
Y41775D02*
D03*
Y41275D02*
D03*
Y40775D02*
D03*
Y44775D02*
D03*
Y44275D02*
D03*
X47025Y48275D02*
D03*
Y47775D02*
D03*
Y47275D02*
D03*
Y46775D02*
D03*
Y46275D02*
D03*
Y45775D02*
D03*
Y43775D02*
D03*
Y43275D02*
D03*
Y42775D02*
D03*
Y42275D02*
D03*
Y41775D02*
D03*
Y41275D02*
D03*
Y40775D02*
D03*
Y44775D02*
D03*
Y44275D02*
D03*
X35525Y45275D02*
D03*
X47025D02*
D03*
D79*
X56127Y37600D02*
D03*
X58127D02*
D03*
X61752Y39625D02*
D03*
X59752D02*
D03*
X56127D02*
D03*
X58127D02*
D03*
X61752Y37600D02*
D03*
X59752D02*
D03*
X11670Y63425D02*
D03*
X13670D02*
D03*
X10975Y41832D02*
D03*
X12975D02*
D03*
X25721Y58903D02*
D03*
X23721D02*
D03*
X17775Y37732D02*
D03*
X15775D02*
D03*
X25821Y63103D02*
D03*
X23821D02*
D03*
X17775Y42032D02*
D03*
X15775D02*
D03*
D80*
X60527Y35275D02*
D03*
X58227D02*
D03*
X55927D02*
D03*
D81*
X58227Y29375D02*
D03*
D82*
X43075Y34557D02*
D03*
Y31687D02*
D03*
X32625Y58000D02*
D03*
Y55130D02*
D03*
D83*
X13485Y50495D02*
D03*
Y48495D02*
D03*
X15685Y50495D02*
D03*
Y48495D02*
D03*
M02*
