G04*
G04 #@! TF.GenerationSoftware,Altium Limited,Altium Designer,23.11.1 (41)*
G04*
G04 Layer_Color=8388736*
%FSLAX43Y43*%
%MOMM*%
G71*
G04*
G04 #@! TF.SameCoordinates,B7B300D0-87F7-4E0C-A4D9-EE24505A4503*
G04*
G04*
G04 #@! TF.FilePolarity,Negative*
G04*
G01*
G75*
%ADD16R,0.400X1.700*%
%ADD17R,1.700X0.400*%
%ADD18R,1.150X1.600*%
%ADD19R,1.500X1.150*%
%ADD20R,0.900X1.000*%
%ADD21R,1.000X0.900*%
%ADD22R,1.700X0.700*%
G04:AMPARAMS|DCode=23|XSize=1.3mm|YSize=4.1mm|CornerRadius=0.35mm|HoleSize=0mm|Usage=FLASHONLY|Rotation=90.000|XOffset=0mm|YOffset=0mm|HoleType=Round|Shape=RoundedRectangle|*
%AMROUNDEDRECTD23*
21,1,1.300,3.400,0,0,90.0*
21,1,0.600,4.100,0,0,90.0*
1,1,0.700,1.700,0.300*
1,1,0.700,1.700,-0.300*
1,1,0.700,-1.700,-0.300*
1,1,0.700,-1.700,0.300*
%
%ADD23ROUNDEDRECTD23*%
%ADD24R,2.200X0.900*%
%ADD25R,1.600X1.150*%
%ADD26R,2.870X2.650*%
%ADD27R,1.700X1.700*%
%ADD28C,1.700*%
%ADD29C,6.100*%
%ADD30C,1.400*%
%ADD31R,1.400X1.400*%
%ADD32C,1.600*%
%ADD33R,1.600X1.600*%
%ADD34R,1.600X1.600*%
%ADD35C,1.500*%
%ADD36R,1.500X1.500*%
%ADD37C,4.800*%
%ADD38R,1.300X1.300*%
%ADD39C,1.300*%
D16*
X57482Y31275D02*
D03*
X56982D02*
D03*
X56482D02*
D03*
X55982D02*
D03*
X55482D02*
D03*
X54982D02*
D03*
X54482D02*
D03*
X53982D02*
D03*
X53482D02*
D03*
X52982D02*
D03*
X52482D02*
D03*
X51982D02*
D03*
X51482D02*
D03*
X50982D02*
D03*
X50482D02*
D03*
X49982D02*
D03*
X49482D02*
D03*
X48982D02*
D03*
X48482D02*
D03*
X47982D02*
D03*
X47482D02*
D03*
X46982D02*
D03*
X46482D02*
D03*
X45982D02*
D03*
X45482D02*
D03*
X44982D02*
D03*
X44482D02*
D03*
X43982D02*
D03*
X43482D02*
D03*
X42982D02*
D03*
X42482D02*
D03*
X41982D02*
D03*
X41482D02*
D03*
X40982D02*
D03*
X40482D02*
D03*
X39982D02*
D03*
Y52875D02*
D03*
X40482D02*
D03*
X40982D02*
D03*
X41482D02*
D03*
X41982D02*
D03*
X42482D02*
D03*
X42982D02*
D03*
X43482D02*
D03*
X43982D02*
D03*
X44482D02*
D03*
X44982D02*
D03*
X45482D02*
D03*
X45982D02*
D03*
X46482D02*
D03*
X46982D02*
D03*
X47482D02*
D03*
X47982D02*
D03*
X48482D02*
D03*
X48982D02*
D03*
X49482D02*
D03*
X49982D02*
D03*
X50482D02*
D03*
X50982D02*
D03*
X51482D02*
D03*
X51982D02*
D03*
X52482D02*
D03*
X52982D02*
D03*
X53482D02*
D03*
X53982D02*
D03*
X54482D02*
D03*
X54982D02*
D03*
X55482D02*
D03*
X55982D02*
D03*
X56482D02*
D03*
X56982D02*
D03*
X57482D02*
D03*
D17*
X37932Y33325D02*
D03*
Y33825D02*
D03*
Y34325D02*
D03*
Y34825D02*
D03*
Y35325D02*
D03*
Y35825D02*
D03*
Y36325D02*
D03*
Y36825D02*
D03*
Y37325D02*
D03*
Y37825D02*
D03*
Y38325D02*
D03*
Y38825D02*
D03*
Y39325D02*
D03*
Y39825D02*
D03*
Y40325D02*
D03*
Y40825D02*
D03*
Y41325D02*
D03*
Y41825D02*
D03*
Y42325D02*
D03*
Y42825D02*
D03*
Y43325D02*
D03*
Y43825D02*
D03*
Y44325D02*
D03*
Y44825D02*
D03*
Y45325D02*
D03*
Y45825D02*
D03*
Y46325D02*
D03*
Y46825D02*
D03*
Y47325D02*
D03*
Y47825D02*
D03*
Y48325D02*
D03*
Y48825D02*
D03*
Y49325D02*
D03*
Y49825D02*
D03*
Y50325D02*
D03*
Y50825D02*
D03*
X59532D02*
D03*
Y50325D02*
D03*
Y49825D02*
D03*
Y49325D02*
D03*
Y48825D02*
D03*
Y48325D02*
D03*
Y47825D02*
D03*
Y47325D02*
D03*
Y46825D02*
D03*
Y46325D02*
D03*
Y45825D02*
D03*
Y45325D02*
D03*
Y44825D02*
D03*
Y44325D02*
D03*
Y43825D02*
D03*
Y43325D02*
D03*
Y42825D02*
D03*
Y42325D02*
D03*
Y41825D02*
D03*
Y41325D02*
D03*
Y40825D02*
D03*
Y40325D02*
D03*
Y39825D02*
D03*
Y39325D02*
D03*
Y38825D02*
D03*
Y38325D02*
D03*
Y37825D02*
D03*
Y37325D02*
D03*
Y36825D02*
D03*
Y36325D02*
D03*
Y35825D02*
D03*
Y35325D02*
D03*
Y34825D02*
D03*
Y34325D02*
D03*
Y33825D02*
D03*
Y33325D02*
D03*
D18*
X59800Y24000D02*
D03*
X57950D02*
D03*
D19*
X32325Y26025D02*
D03*
Y27875D02*
D03*
X76125Y29625D02*
D03*
Y31475D02*
D03*
Y35350D02*
D03*
Y37200D02*
D03*
X76150Y41050D02*
D03*
Y42900D02*
D03*
X18200Y26175D02*
D03*
Y28025D02*
D03*
X76000Y53125D02*
D03*
Y51275D02*
D03*
D20*
X58845Y27675D02*
D03*
X57525D02*
D03*
X51945Y26425D02*
D03*
X50625D02*
D03*
X45225Y58225D02*
D03*
X46545D02*
D03*
X56075Y54800D02*
D03*
X57395D02*
D03*
X75925Y49325D02*
D03*
X77245D02*
D03*
X64775Y45800D02*
D03*
X63455D02*
D03*
X45050Y29550D02*
D03*
X46370D02*
D03*
X31400Y41700D02*
D03*
X32720D02*
D03*
X51545Y55825D02*
D03*
X50225D02*
D03*
D21*
X36025Y32680D02*
D03*
Y34000D02*
D03*
X30400Y36930D02*
D03*
Y38250D02*
D03*
X38400Y53530D02*
D03*
Y54850D02*
D03*
X66050Y37750D02*
D03*
Y39070D02*
D03*
X62875Y50005D02*
D03*
Y51325D02*
D03*
D22*
X73982Y53195D02*
D03*
X68267D02*
D03*
X73982Y51925D02*
D03*
Y50655D02*
D03*
Y49385D02*
D03*
X68267D02*
D03*
Y50655D02*
D03*
Y51925D02*
D03*
X74107Y42932D02*
D03*
X68392D02*
D03*
X74107Y41662D02*
D03*
Y40392D02*
D03*
Y39122D02*
D03*
X68392D02*
D03*
Y40392D02*
D03*
Y41662D02*
D03*
X74107Y31530D02*
D03*
X68392D02*
D03*
X74107Y30260D02*
D03*
Y28990D02*
D03*
Y27720D02*
D03*
X68392D02*
D03*
Y28990D02*
D03*
Y30260D02*
D03*
Y35970D02*
D03*
Y34700D02*
D03*
Y33430D02*
D03*
X74107D02*
D03*
Y34700D02*
D03*
Y35970D02*
D03*
X68392Y37240D02*
D03*
X74107D02*
D03*
D23*
X67575Y46175D02*
D03*
X76575D02*
D03*
D24*
X20432Y31180D02*
D03*
X30032D02*
D03*
X20432Y26100D02*
D03*
Y27370D02*
D03*
Y28640D02*
D03*
Y29910D02*
D03*
Y32450D02*
D03*
Y33720D02*
D03*
Y34990D02*
D03*
X30032Y29910D02*
D03*
Y28640D02*
D03*
Y27370D02*
D03*
Y26100D02*
D03*
Y34990D02*
D03*
Y33720D02*
D03*
Y32450D02*
D03*
D25*
X36325Y31375D02*
D03*
Y29525D02*
D03*
D26*
X15985Y46595D02*
D03*
Y52595D02*
D03*
D27*
X39800Y20905D02*
D03*
D28*
X37500D02*
D03*
X35200D02*
D03*
X32900D02*
D03*
X30600D02*
D03*
X40950Y18365D02*
D03*
X38650D02*
D03*
X36350D02*
D03*
X34050D02*
D03*
X31750D02*
D03*
X39800Y15825D02*
D03*
X37500D02*
D03*
X30600D02*
D03*
X35200D02*
D03*
X32900D02*
D03*
D29*
X47700Y18365D02*
D03*
X22700D02*
D03*
D30*
X26305Y60909D02*
D03*
X28845D02*
D03*
X23765D02*
D03*
X21225D02*
D03*
X16145D02*
D03*
X13605D02*
D03*
X55465Y21789D02*
D03*
X53465D02*
D03*
X57465D02*
D03*
Y19789D02*
D03*
X53465D02*
D03*
X55465D02*
D03*
D31*
X11065Y60909D02*
D03*
D32*
X14375Y27550D02*
D03*
Y29550D02*
D03*
X64846Y20405D02*
D03*
X62846D02*
D03*
X11285Y50495D02*
D03*
D33*
X14375Y31550D02*
D03*
X11285Y48495D02*
D03*
D34*
X60846Y20405D02*
D03*
D35*
X77545Y20677D02*
D03*
X75545D02*
D03*
X73545D02*
D03*
X75545Y22677D02*
D03*
X73545D02*
D03*
X71545D02*
D03*
X69545D02*
D03*
X71545Y20677D02*
D03*
X69545D02*
D03*
D36*
X77545Y22677D02*
D03*
D37*
X6000Y60164D02*
D03*
X76000Y60000D02*
D03*
X6000Y15164D02*
D03*
X76000Y15000D02*
D03*
D38*
X10975Y39832D02*
D03*
D39*
X12975D02*
D03*
X15775D02*
D03*
X19775D02*
D03*
M02*
