G04*
G04 #@! TF.GenerationSoftware,Altium Limited,Altium Designer,23.11.1 (41)*
G04*
G04 Layer_Physical_Order=2*
G04 Layer_Color=16711680*
%FSLAX43Y43*%
%MOMM*%
G71*
G04*
G04 #@! TF.SameCoordinates,A9BB8E2F-42CC-474E-B4F6-770058E49C0A*
G04*
G04*
G04 #@! TF.FilePolarity,Positive*
G04*
G01*
G75*
%ADD13C,0.254*%
%ADD39R,1.400X1.050*%
%ADD40R,1.050X1.400*%
%ADD41R,1.500X1.050*%
%ADD50R,1.050X1.500*%
%ADD51C,0.350*%
%ADD52C,0.381*%
%ADD54C,1.500*%
%ADD55C,1.200*%
%ADD56R,1.200X1.200*%
%ADD57R,1.500X1.500*%
%ADD58C,1.500*%
%ADD59C,1.400*%
%ADD60R,1.400X1.400*%
%ADD61C,1.260*%
%ADD62C,2.350*%
%ADD63R,1.500X1.500*%
%ADD64C,3.200*%
%ADD65C,0.700*%
%ADD66R,1.600X3.000*%
%ADD67C,0.800*%
G36*
X15663Y36237D02*
Y34983D01*
X14575D01*
Y34929D01*
X13828D01*
X13625Y35133D01*
X13426Y35265D01*
X13192Y35312D01*
X12355D01*
Y35600D01*
X10905D01*
Y33800D01*
X12355D01*
Y34088D01*
X12939D01*
X13142Y33885D01*
X13341Y33752D01*
X13575Y33706D01*
X14575D01*
Y33533D01*
X15556D01*
Y33387D01*
X15322Y33340D01*
X15124Y33208D01*
X15065Y33149D01*
X15054Y33133D01*
X14575D01*
Y31683D01*
X14603D01*
X14713Y31643D01*
Y31512D01*
X14400D01*
Y33500D01*
X12400D01*
Y30100D01*
X14400D01*
Y30288D01*
X14713D01*
Y29874D01*
X14641Y29854D01*
X14459Y29749D01*
X14310Y29600D01*
X14205Y29418D01*
X14150Y29214D01*
Y29003D01*
X14205Y28800D01*
X14310Y28618D01*
X14459Y28469D01*
X14641Y28363D01*
X14845Y28309D01*
X15055D01*
X15259Y28363D01*
X15429Y28462D01*
X15521Y28436D01*
X15556Y28421D01*
Y27935D01*
X15275D01*
Y27035D01*
Y26135D01*
X15556D01*
Y25789D01*
X15584Y25580D01*
X15663Y25388D01*
Y23300D01*
X15242D01*
Y22400D01*
Y21500D01*
X15663D01*
Y20246D01*
X15536Y20212D01*
X15490Y20291D01*
X15341Y20440D01*
X15185Y20531D01*
X14050Y21665D01*
Y24200D01*
X12050D01*
Y20800D01*
X13184D01*
X13258Y20711D01*
X13210Y20600D01*
X12950D01*
Y19900D01*
X13650D01*
Y20169D01*
X13767Y20218D01*
X14056Y19929D01*
X14050Y19905D01*
Y19695D01*
X14105Y19491D01*
X14210Y19309D01*
X14359Y19160D01*
X14530Y19061D01*
Y18062D01*
X14403Y18041D01*
X14400Y18050D01*
X12950D01*
Y16150D01*
X14400D01*
X14417Y16200D01*
X15663D01*
Y11775D01*
X14530D01*
X14450Y11825D01*
Y11825D01*
X13000D01*
Y9925D01*
X13450D01*
Y9448D01*
X13377Y9320D01*
X13320Y9109D01*
Y8911D01*
X13292Y8883D01*
X13160Y8685D01*
X13113Y8451D01*
Y7500D01*
X13000D01*
Y5700D01*
X14450D01*
Y5700D01*
X14530D01*
Y5700D01*
X15155D01*
Y6600D01*
Y7500D01*
X14530D01*
Y7500D01*
X14464D01*
X14337Y7533D01*
Y8191D01*
X14470Y8227D01*
X14660Y8336D01*
X14814Y8490D01*
X14923Y8680D01*
X14980Y8891D01*
Y9109D01*
X14923Y9320D01*
X14814Y9510D01*
X14674Y9650D01*
Y9975D01*
X15663D01*
Y7500D01*
X15355D01*
Y6600D01*
Y5700D01*
X15663D01*
Y4229D01*
X15562Y4151D01*
X15381Y4200D01*
X15019D01*
X14669Y4106D01*
X14356Y3925D01*
X14100Y3669D01*
X13919Y3356D01*
X13825Y3006D01*
Y2644D01*
X13919Y2294D01*
X14100Y1981D01*
X14356Y1725D01*
X14669Y1544D01*
X15019Y1450D01*
X15381D01*
X15485Y1478D01*
X15609Y1387D01*
X15613Y1313D01*
X14555Y255D01*
X4408D01*
X4364Y374D01*
X4505Y495D01*
X4794Y833D01*
X5027Y1213D01*
X5197Y1624D01*
X5301Y2056D01*
X5336Y2500D01*
X5301Y2944D01*
X5197Y3376D01*
X5027Y3787D01*
X4794Y4167D01*
X4505Y4505D01*
X4167Y4794D01*
X3787Y5027D01*
X3376Y5197D01*
X2944Y5301D01*
X2500Y5336D01*
X2056Y5301D01*
X1624Y5197D01*
X1213Y5027D01*
X833Y4794D01*
X495Y4505D01*
X374Y4364D01*
X255Y4408D01*
Y35592D01*
X374Y35636D01*
X495Y35495D01*
X833Y35206D01*
X1213Y34973D01*
X1624Y34803D01*
X2056Y34699D01*
X2500Y34664D01*
X2944Y34699D01*
X3376Y34803D01*
X3787Y34973D01*
X4167Y35206D01*
X4505Y35495D01*
X4794Y35833D01*
X5027Y36213D01*
X5197Y36624D01*
X5301Y37056D01*
X5336Y37500D01*
X14400D01*
X15663Y36237D01*
D02*
G37*
G36*
X61600Y38000D02*
Y33900D01*
X61300Y33600D01*
X44650D01*
Y33769D01*
X44643Y33786D01*
X45774Y34918D01*
X45941D01*
Y34400D01*
X47391D01*
Y36200D01*
X45941D01*
Y35682D01*
X45616D01*
X45469Y35653D01*
X45345Y35570D01*
X43980Y34205D01*
X43788Y34126D01*
X43634Y33971D01*
X43550Y33769D01*
Y33550D01*
X43634Y33348D01*
X43788Y33193D01*
X43991Y33110D01*
X44209D01*
X44294Y33145D01*
X44400Y33074D01*
Y29377D01*
X41693Y26670D01*
X39489D01*
X39398Y26761D01*
Y26779D01*
X39314Y26982D01*
X39159Y27136D01*
X38957Y27220D01*
X38738D01*
X38536Y27136D01*
X38381Y26982D01*
X38298Y26779D01*
Y26561D01*
X38381Y26358D01*
X38536Y26204D01*
X38738Y26120D01*
X38957D01*
X39200Y25877D01*
Y25577D01*
X38263D01*
Y25262D01*
X38089D01*
X37832Y25520D01*
X37865Y25601D01*
Y25819D01*
X37781Y26022D01*
X37627Y26176D01*
X37424Y26260D01*
X37206D01*
X37003Y26176D01*
X36950Y26122D01*
X36928Y26127D01*
X36776Y26096D01*
X36647Y26010D01*
X36561Y25881D01*
X36530Y25728D01*
X36561Y25576D01*
X36647Y25447D01*
X36665Y25428D01*
X36795Y25342D01*
X36932Y25315D01*
X37003Y25244D01*
X37025Y25235D01*
X37095Y25131D01*
X37643Y24582D01*
X37772Y24496D01*
X37924Y24466D01*
X38263D01*
Y23690D01*
X37043Y22470D01*
X31750D01*
Y23000D01*
X30282Y24468D01*
Y26905D01*
X30366Y26988D01*
X30450Y27191D01*
Y27409D01*
X30366Y27612D01*
X30212Y27766D01*
X30009Y27850D01*
X29791D01*
X29588Y27766D01*
X29434Y27612D01*
X29350Y27409D01*
Y27191D01*
X29434Y26988D01*
X29518Y26905D01*
Y25398D01*
X29400Y25350D01*
X28961Y25789D01*
X16371D01*
X16370Y25791D01*
X16363Y25842D01*
Y26135D01*
X17750D01*
Y26723D01*
X19976D01*
X20211Y26770D01*
X20409Y26903D01*
X21815Y28309D01*
X21855D01*
X22059Y28363D01*
X22241Y28469D01*
X22390Y28618D01*
X22495Y28800D01*
X22550Y29003D01*
Y29214D01*
X22495Y29418D01*
X22390Y29600D01*
X22241Y29749D01*
X22059Y29854D01*
X21855Y29909D01*
X21645D01*
X21441Y29854D01*
X21259Y29749D01*
X21110Y29600D01*
X21005Y29418D01*
X20950Y29214D01*
Y29174D01*
X20646Y28870D01*
X20532Y28935D01*
X20550Y29003D01*
Y29009D01*
X19850D01*
Y28309D01*
X19855D01*
X19924Y28327D01*
X19989Y28213D01*
X19723Y27947D01*
X17150D01*
X17091Y27935D01*
X16363D01*
Y28421D01*
Y31606D01*
X16434Y31643D01*
X16458Y31645D01*
X16559Y31578D01*
X16563Y31537D01*
X16563Y31534D01*
X16563Y31522D01*
Y29843D01*
X16801D01*
Y29554D01*
X16848Y29320D01*
X16950Y29167D01*
Y29003D01*
X17005Y28800D01*
X17110Y28618D01*
X17259Y28469D01*
X17441Y28363D01*
X17645Y28309D01*
X17855D01*
X18059Y28363D01*
X18241Y28469D01*
X18390Y28618D01*
X18495Y28800D01*
X18550Y29003D01*
Y29214D01*
X18495Y29418D01*
X18390Y29600D01*
X18241Y29749D01*
X18059Y29854D01*
X18025Y29863D01*
Y30618D01*
X18013Y30677D01*
Y31643D01*
X16669D01*
X16606Y31643D01*
X16597Y31645D01*
X16551Y31656D01*
X16483Y31725D01*
X16475Y31788D01*
X16475Y31792D01*
Y33133D01*
X16363D01*
Y33533D01*
X16475D01*
Y34500D01*
X30449D01*
Y37464D01*
X30576Y37498D01*
X30623Y37417D01*
X30800Y37240D01*
X31017Y37115D01*
X31258Y37050D01*
X31508D01*
X31750Y37115D01*
X31967Y37240D01*
X32144Y37417D01*
X32269Y37633D01*
X32318Y37816D01*
X32449D01*
X32498Y37633D01*
X32623Y37417D01*
X32800Y37240D01*
X33017Y37115D01*
X33258Y37050D01*
X33508D01*
X33750Y37115D01*
X33967Y37240D01*
X34144Y37417D01*
X34269Y37633D01*
X34318Y37816D01*
X34449D01*
X34498Y37633D01*
X34623Y37417D01*
X34800Y37240D01*
X35017Y37115D01*
X35258Y37050D01*
X35508D01*
X35750Y37115D01*
X35967Y37240D01*
X36144Y37417D01*
X36269Y37633D01*
X36306Y37774D01*
X36433Y37757D01*
Y37050D01*
X38333D01*
Y38950D01*
X36433D01*
Y38243D01*
X36306Y38226D01*
X36269Y38367D01*
X36144Y38583D01*
X35967Y38760D01*
X35750Y38885D01*
X35508Y38950D01*
X35258D01*
X35017Y38885D01*
X34800Y38760D01*
X34623Y38583D01*
X34498Y38367D01*
X34449Y38184D01*
X34318D01*
X34269Y38367D01*
X34144Y38583D01*
X33967Y38760D01*
X33750Y38885D01*
X33508Y38950D01*
X33258D01*
X33017Y38885D01*
X32800Y38760D01*
X32623Y38583D01*
X32498Y38367D01*
X32449Y38184D01*
X32318D01*
X32269Y38367D01*
X32144Y38583D01*
X31967Y38760D01*
X31750Y38885D01*
X31508Y38950D01*
X31258D01*
X31017Y38885D01*
X30800Y38760D01*
X30623Y38583D01*
X30576Y38502D01*
X30449Y38536D01*
Y39845D01*
X59755D01*
X61600Y38000D01*
D02*
G37*
G36*
X70744Y39718D02*
X70495Y39505D01*
X70206Y39167D01*
X69973Y38787D01*
X69803Y38376D01*
X69699Y37944D01*
X69664Y37500D01*
X69699Y37056D01*
X69803Y36624D01*
X69973Y36213D01*
X70206Y35833D01*
X70495Y35495D01*
X70833Y35206D01*
X71213Y34973D01*
X71624Y34803D01*
X72056Y34699D01*
X72500Y34664D01*
X72944Y34699D01*
X73376Y34803D01*
X73787Y34973D01*
X74167Y35206D01*
X74505Y35495D01*
X74718Y35744D01*
X74845Y35697D01*
Y4303D01*
X74718Y4256D01*
X74505Y4505D01*
X74167Y4794D01*
X73787Y5027D01*
X73376Y5197D01*
X72944Y5301D01*
X72500Y5336D01*
X72056Y5301D01*
X71624Y5197D01*
X71213Y5027D01*
X70833Y4794D01*
X70495Y4505D01*
X70206Y4167D01*
X69973Y3787D01*
X69803Y3376D01*
X69699Y2944D01*
X69664Y2500D01*
X69699Y2056D01*
X69803Y1624D01*
X69973Y1213D01*
X70206Y833D01*
X70495Y495D01*
X70636Y374D01*
X70592Y255D01*
X15862D01*
X15813Y372D01*
X16184Y743D01*
X16197Y760D01*
X16214Y775D01*
X16261Y843D01*
X16312Y910D01*
X16320Y930D01*
X16333Y948D01*
X16361Y1027D01*
X16393Y1104D01*
X16395Y1126D01*
X16403Y1147D01*
X16409Y1230D01*
X16420Y1313D01*
X16417Y1335D01*
X16419Y1357D01*
X16415Y1431D01*
X16407Y1470D01*
X16407Y1510D01*
X16388Y1573D01*
X16376Y1638D01*
X16359Y1674D01*
X16347Y1712D01*
X16313Y1768D01*
X16285Y1828D01*
X16259Y1858D01*
X16238Y1892D01*
X16238Y1918D01*
X16300Y1981D01*
X16481Y2294D01*
X16575Y2644D01*
Y3006D01*
X16481Y3356D01*
X16300Y3669D01*
X16268Y3702D01*
X16303Y3737D01*
X16330Y3783D01*
X16362Y3825D01*
X16382Y3874D01*
X16409Y3920D01*
X16422Y3971D01*
X16443Y4020D01*
X16449Y4072D01*
X16463Y4123D01*
Y4176D01*
X16470Y4229D01*
Y5700D01*
X17830D01*
Y5988D01*
X26990D01*
X27224Y6035D01*
X27423Y6167D01*
X29425Y8170D01*
X29499D01*
X29710Y8227D01*
X29900Y8336D01*
X30054Y8490D01*
X30163Y8680D01*
X30220Y8891D01*
Y9109D01*
X30163Y9320D01*
X30054Y9510D01*
X29900Y9664D01*
X29710Y9773D01*
X29499Y9830D01*
X29281D01*
X29070Y9773D01*
X28880Y9664D01*
X28726Y9510D01*
X28617Y9320D01*
X28560Y9109D01*
Y9035D01*
X26737Y7212D01*
X17830D01*
Y7500D01*
X16470D01*
Y8095D01*
X16571Y8173D01*
X16581Y8170D01*
X16799D01*
X17010Y8227D01*
X17200Y8336D01*
X17354Y8490D01*
X17463Y8680D01*
X17520Y8891D01*
Y9109D01*
X17463Y9320D01*
X17354Y9510D01*
X17200Y9664D01*
X17010Y9773D01*
X16799Y9830D01*
X16672D01*
X16581Y9957D01*
X16587Y9975D01*
X17830D01*
Y10263D01*
X22182D01*
X23480Y8965D01*
Y8891D01*
X23537Y8680D01*
X23646Y8490D01*
X23800Y8336D01*
X23990Y8227D01*
X24201Y8170D01*
X24419D01*
X24630Y8227D01*
X24820Y8336D01*
X24974Y8490D01*
X25083Y8680D01*
X25140Y8891D01*
Y9109D01*
X25083Y9320D01*
X24974Y9510D01*
X24820Y9664D01*
X24630Y9773D01*
X24419Y9830D01*
X24345D01*
X22868Y11308D01*
X22669Y11440D01*
X22435Y11487D01*
X17830D01*
Y11775D01*
X16470D01*
Y16200D01*
X17717D01*
Y18000D01*
X17717D01*
X17683Y18082D01*
X18006Y18405D01*
X18139Y18603D01*
X18185Y18837D01*
Y19204D01*
X18290Y19309D01*
X18395Y19491D01*
X18450Y19695D01*
Y19905D01*
X18395Y20109D01*
X18290Y20291D01*
X18141Y20440D01*
X17959Y20545D01*
X17755Y20600D01*
X17545D01*
X17341Y20545D01*
X17159Y20440D01*
X17010Y20291D01*
X16905Y20109D01*
X16850Y19905D01*
Y19695D01*
X16905Y19491D01*
X16962Y19392D01*
Y19091D01*
X16478Y18608D01*
X16346Y18409D01*
X16299Y18175D01*
Y18000D01*
X16267D01*
Y16905D01*
X16140Y16843D01*
X16067Y16899D01*
X15872Y16979D01*
X15867Y16980D01*
Y18000D01*
X15753D01*
Y19400D01*
X15747Y19433D01*
X15872Y19466D01*
X15972Y19508D01*
X16067Y19547D01*
X16234Y19675D01*
X16362Y19842D01*
X16443Y20037D01*
X16470Y20246D01*
Y21500D01*
X16892D01*
Y22400D01*
Y23300D01*
X16470D01*
Y24780D01*
X28544D01*
X28687Y24637D01*
X28740Y24596D01*
X28786Y24550D01*
X28844Y24517D01*
X28896Y24476D01*
X28957Y24451D01*
X29014Y24418D01*
X29078Y24401D01*
X29139Y24376D01*
X29205Y24367D01*
X29269Y24350D01*
X29289D01*
X29308Y24207D01*
X29409Y23963D01*
X29518Y23822D01*
Y21381D01*
X29547Y21235D01*
X29630Y21111D01*
X39603Y11137D01*
Y8602D01*
X39519Y8518D01*
X39436Y8316D01*
Y8097D01*
X39519Y7895D01*
X39674Y7740D01*
X39876Y7656D01*
X40095D01*
X40297Y7740D01*
X40300Y7743D01*
X40418Y7695D01*
Y7448D01*
X38307Y5337D01*
X38203D01*
X38088Y5414D01*
X38004Y5431D01*
X37862Y5574D01*
X37659Y5658D01*
X37441D01*
X37238Y5574D01*
X37084Y5419D01*
X37000Y5217D01*
Y4998D01*
X37084Y4796D01*
X37193Y4687D01*
X37231Y4620D01*
X37195Y4522D01*
X37098Y4426D01*
X37015Y4223D01*
Y4005D01*
X37098Y3803D01*
X37253Y3648D01*
X37455Y3564D01*
X37674D01*
X37876Y3648D01*
X38026Y3798D01*
X38073Y3807D01*
X38202Y3894D01*
X38215Y3906D01*
X38735D01*
X38887Y3936D01*
X39016Y4023D01*
X41732Y6739D01*
X41819Y6868D01*
X41849Y7020D01*
Y10644D01*
X43957Y12752D01*
X44172D01*
X44247Y12570D01*
X44402Y12416D01*
X44604Y12332D01*
X44823D01*
X45025Y12416D01*
X45180Y12570D01*
X45263Y12773D01*
Y12991D01*
X45180Y13194D01*
X45025Y13348D01*
X44902Y13399D01*
Y13537D01*
X45025Y13588D01*
X45180Y13742D01*
X45263Y13944D01*
Y14163D01*
X45180Y14365D01*
X45025Y14520D01*
X44823Y14604D01*
X44604D01*
X44402Y14520D01*
X44247Y14365D01*
X44172Y14184D01*
X43718D01*
X43669Y14301D01*
X46158Y16789D01*
X46275Y16741D01*
Y13955D01*
X46091Y13878D01*
X45936Y13724D01*
X45852Y13521D01*
Y13303D01*
X45936Y13101D01*
X46091Y12946D01*
X46293Y12862D01*
X46512D01*
X46714Y12946D01*
X46869Y13101D01*
X46952Y13303D01*
Y13521D01*
X46916Y13610D01*
X46916Y13611D01*
X46942Y13739D01*
Y21476D01*
X50179Y24713D01*
X50329Y24683D01*
X50373Y24576D01*
X50528Y24421D01*
X50622Y24382D01*
Y21738D01*
X50495Y21653D01*
X50374Y21703D01*
X50155D01*
X49953Y21619D01*
X49799Y21464D01*
X49715Y21262D01*
Y21043D01*
X49799Y20841D01*
X49822Y20818D01*
Y10695D01*
X49851Y10549D01*
X49934Y10425D01*
X50961Y9398D01*
Y8665D01*
X50877Y8581D01*
X50793Y8379D01*
Y8160D01*
X50877Y7958D01*
X51032Y7804D01*
X51234Y7720D01*
X51452D01*
X51584Y7774D01*
X51711Y7694D01*
Y6661D01*
X51627Y6577D01*
X51543Y6375D01*
Y6156D01*
X51627Y5954D01*
X51781Y5799D01*
X51984Y5716D01*
X52202D01*
X52405Y5799D01*
X52559Y5954D01*
X52643Y6156D01*
Y6375D01*
X52559Y6577D01*
X52475Y6661D01*
Y9273D01*
X52593Y9322D01*
X52779Y9135D01*
Y4788D01*
X52695Y4704D01*
X52611Y4502D01*
Y4283D01*
X52695Y4081D01*
X52850Y3926D01*
X53052Y3842D01*
X53271D01*
X53473Y3926D01*
X53628Y4081D01*
X53711Y4283D01*
Y4502D01*
X53628Y4704D01*
X53544Y4788D01*
Y8982D01*
X53661Y9031D01*
X54318Y8374D01*
Y2379D01*
X54234Y2295D01*
X54150Y2093D01*
Y1874D01*
X54234Y1672D01*
X54389Y1517D01*
X54591Y1434D01*
X54810D01*
X55012Y1517D01*
X55166Y1672D01*
X55250Y1874D01*
Y2093D01*
X55166Y2295D01*
X55083Y2379D01*
Y8533D01*
X55053Y8679D01*
X54971Y8803D01*
X53303Y10470D01*
Y17492D01*
X53303Y17492D01*
Y24492D01*
X53387Y24576D01*
X53471Y24778D01*
Y24997D01*
X53387Y25199D01*
X53233Y25354D01*
X53030Y25438D01*
X52812D01*
X52609Y25354D01*
X52455Y25199D01*
X52404Y25078D01*
X52267D01*
X52217Y25199D01*
X52062Y25354D01*
X51860Y25438D01*
X51641D01*
X51439Y25354D01*
X51295Y25210D01*
X51172Y25333D01*
X51178Y25431D01*
X51193Y25474D01*
X51338Y25534D01*
X51492Y25688D01*
X51576Y25891D01*
Y26109D01*
X51492Y26312D01*
X51338Y26466D01*
X51232Y26510D01*
X51202Y26660D01*
X51925Y27383D01*
X52011Y27512D01*
X52041Y27664D01*
Y29760D01*
X52853D01*
X52921Y29692D01*
X53123Y29608D01*
X53342D01*
X53544Y29692D01*
X53699Y29847D01*
X53783Y30049D01*
Y30268D01*
X53699Y30470D01*
X53544Y30625D01*
X53342Y30708D01*
X53123D01*
X52921Y30625D01*
X52853Y30557D01*
X51866D01*
X51714Y30526D01*
X51585Y30440D01*
X51412Y30268D01*
X51328Y30231D01*
X51243Y30268D01*
X51070Y30440D01*
X50941Y30526D01*
X50789Y30557D01*
X49802D01*
X49734Y30625D01*
X49532Y30708D01*
X49313D01*
X49111Y30625D01*
X49004Y30518D01*
X48887Y30580D01*
X48898Y30636D01*
Y31093D01*
X49338D01*
Y31893D01*
X48613D01*
X47888D01*
Y31093D01*
X48133D01*
Y30794D01*
X47824Y30485D01*
X47741Y30361D01*
X47712Y30215D01*
Y30120D01*
X47741Y29974D01*
X47824Y29850D01*
X47948Y29767D01*
X48094Y29738D01*
X48241Y29767D01*
X48365Y29850D01*
X48447Y29974D01*
X48461Y30041D01*
X48786Y30366D01*
X48881Y30288D01*
X48873Y30268D01*
Y30049D01*
X48956Y29847D01*
X49111Y29692D01*
X49313Y29608D01*
X49532D01*
X49734Y29692D01*
X49802Y29760D01*
X50614D01*
Y28091D01*
X45178Y22655D01*
X45092Y22526D01*
X45062Y22374D01*
Y18405D01*
X44967Y18373D01*
X44935Y18371D01*
X44787Y18519D01*
X44584Y18603D01*
X44366D01*
X44164Y18519D01*
X44080Y18435D01*
X42129D01*
X41983Y18406D01*
X41859Y18323D01*
X39399Y15864D01*
X39253Y15924D01*
X39035D01*
X38832Y15840D01*
X38678Y15686D01*
X38594Y15483D01*
Y15265D01*
X38678Y15062D01*
X38832Y14908D01*
X39035Y14824D01*
X39253D01*
X39456Y14908D01*
X39610Y15062D01*
X39617Y15078D01*
X39664Y15088D01*
X39788Y15171D01*
X42287Y17670D01*
X44080D01*
X44164Y17586D01*
X44366Y17503D01*
X44584D01*
X44736Y17565D01*
X44807Y17458D01*
X41124Y13774D01*
X40917D01*
Y13796D01*
X40833Y13998D01*
X40679Y14152D01*
X40477Y14236D01*
X40258D01*
X40056Y14152D01*
X39901Y13998D01*
X39817Y13796D01*
Y13577D01*
X39901Y13375D01*
X40056Y13220D01*
X40258Y13136D01*
X40305D01*
X40349Y13060D01*
X40305Y12984D01*
X40258D01*
X40056Y12901D01*
X39901Y12746D01*
X39817Y12544D01*
Y12325D01*
X39901Y12123D01*
X40056Y11968D01*
X40258Y11884D01*
X40477D01*
X40679Y11968D01*
X40833Y12123D01*
X40917Y12325D01*
Y12347D01*
X41361D01*
X41410Y12229D01*
X40534Y11354D01*
X40495Y11295D01*
X40442Y11295D01*
X40362Y11325D01*
X40339Y11442D01*
X40256Y11566D01*
X30282Y21540D01*
Y22875D01*
X30400Y22924D01*
X30742Y22582D01*
Y22470D01*
X30776Y22209D01*
X30877Y21966D01*
X31037Y21757D01*
X31246Y21597D01*
X31489Y21496D01*
X31750Y21461D01*
X37043D01*
X37043Y21461D01*
X37304Y21496D01*
X37547Y21597D01*
X37756Y21757D01*
X37756Y21757D01*
X38976Y22977D01*
X38976Y22977D01*
X39137Y23186D01*
X39237Y23429D01*
X39270Y23677D01*
X39713D01*
Y24710D01*
X39913Y24864D01*
X39985Y24957D01*
X39990Y24958D01*
X40113Y24916D01*
Y24727D01*
X40838D01*
X41563D01*
Y25577D01*
X41655Y25661D01*
X41693D01*
X41693Y25661D01*
X41954Y25696D01*
X42197Y25796D01*
X42406Y25957D01*
X45113Y28664D01*
X45273Y28873D01*
X45374Y29116D01*
X45409Y29377D01*
Y32591D01*
X46038D01*
Y31093D01*
X46298D01*
Y30406D01*
X46214Y30322D01*
X46130Y30120D01*
Y29901D01*
X46214Y29699D01*
X46368Y29544D01*
X46571Y29461D01*
X46789D01*
X46992Y29544D01*
X47146Y29699D01*
X47230Y29901D01*
Y30120D01*
X47146Y30322D01*
X47062Y30406D01*
Y31093D01*
X47488D01*
Y32591D01*
X47888D01*
Y32093D01*
X48613D01*
X49338D01*
Y32591D01*
X61300D01*
X61561Y32626D01*
X61804Y32727D01*
X62013Y32887D01*
X62313Y33187D01*
X62473Y33396D01*
X62574Y33639D01*
X62609Y33900D01*
Y38000D01*
X62609Y38000D01*
X62574Y38261D01*
X62473Y38504D01*
X62313Y38713D01*
X62313Y38713D01*
X61299Y39728D01*
X61347Y39845D01*
X70697D01*
X70744Y39718D01*
D02*
G37*
%LPC*%
G36*
X10505Y35600D02*
X9880D01*
Y34800D01*
X10505D01*
Y35600D01*
D02*
G37*
G36*
X9680D02*
X9055D01*
Y34800D01*
X9680D01*
Y35600D01*
D02*
G37*
G36*
X10505Y34600D02*
X9880D01*
Y33800D01*
X10505D01*
Y34600D01*
D02*
G37*
G36*
X9680D02*
X9055D01*
Y33800D01*
X9680D01*
Y34600D01*
D02*
G37*
G36*
X11350Y33500D02*
X10450D01*
Y31900D01*
X11350D01*
Y33500D01*
D02*
G37*
G36*
X10250D02*
X9350D01*
Y31900D01*
X10250D01*
Y33500D01*
D02*
G37*
G36*
X11350Y31700D02*
X10450D01*
Y30100D01*
X11350D01*
Y31700D01*
D02*
G37*
G36*
X10250D02*
X9350D01*
Y30100D01*
X10250D01*
Y31700D01*
D02*
G37*
G36*
X13750Y29909D02*
X13050D01*
Y29209D01*
X13750D01*
Y29909D01*
D02*
G37*
G36*
X12850D02*
X12150D01*
Y29209D01*
X12850D01*
Y29909D01*
D02*
G37*
G36*
X13750Y29009D02*
X13050D01*
Y28309D01*
X13750D01*
Y29009D01*
D02*
G37*
G36*
X12850D02*
X12150D01*
Y28309D01*
X12850D01*
Y29009D01*
D02*
G37*
G36*
X15075Y27935D02*
X14450D01*
Y27135D01*
X15075D01*
Y27935D01*
D02*
G37*
G36*
Y26935D02*
X14450D01*
Y26135D01*
X15075D01*
Y26935D01*
D02*
G37*
G36*
X11000Y24200D02*
X10100D01*
Y22600D01*
X11000D01*
Y24200D01*
D02*
G37*
G36*
X9900D02*
X9000D01*
Y22600D01*
X9900D01*
Y24200D01*
D02*
G37*
G36*
X15042Y23300D02*
X14417D01*
Y22500D01*
X15042D01*
Y23300D01*
D02*
G37*
G36*
Y22300D02*
X14417D01*
Y21500D01*
X15042D01*
Y22300D01*
D02*
G37*
G36*
X9900Y22400D02*
X9000D01*
Y21136D01*
X8883Y21088D01*
X8633Y21338D01*
X8434Y21470D01*
X8200Y21517D01*
X7800D01*
Y21620D01*
X6000D01*
Y21507D01*
X5800D01*
Y21630D01*
X4000D01*
X3901Y21697D01*
Y21814D01*
X2001D01*
Y19914D01*
X2708D01*
X2725Y19787D01*
X2584Y19749D01*
X2367Y19624D01*
X2190Y19447D01*
X2065Y19231D01*
X2001Y18989D01*
Y18964D01*
X2951D01*
Y18864D01*
X3051D01*
Y17914D01*
X3076D01*
X3317Y17979D01*
X3534Y18104D01*
X3711Y18281D01*
X3836Y18497D01*
X3873Y18636D01*
X4000Y18619D01*
Y18330D01*
X4800D01*
Y19055D01*
Y19780D01*
X4000D01*
Y19109D01*
X3873Y19092D01*
X3836Y19231D01*
X3711Y19447D01*
X3534Y19624D01*
X3317Y19749D01*
X3177Y19787D01*
X3193Y19914D01*
X3901D01*
Y20113D01*
X4000Y20180D01*
X5800D01*
Y20283D01*
X6000D01*
Y20170D01*
X7800D01*
Y20293D01*
X7947D01*
X8297Y19943D01*
Y17809D01*
X8343Y17574D01*
X8476Y17376D01*
X9185Y16667D01*
X9383Y16535D01*
X9617Y16488D01*
X10998D01*
X11002Y16489D01*
X11100Y16408D01*
Y16150D01*
X12550D01*
Y18050D01*
X11100D01*
Y17792D01*
X11002Y17711D01*
X10998Y17712D01*
X9871D01*
X9520Y18062D01*
Y18528D01*
X10100D01*
Y20328D01*
X9494D01*
X9474Y20431D01*
X9341Y20629D01*
X9288Y20683D01*
X9336Y20800D01*
X9900D01*
Y22400D01*
D02*
G37*
G36*
X11000D02*
X10100D01*
Y20800D01*
X11000D01*
Y22400D01*
D02*
G37*
G36*
X11125Y20328D02*
X10500D01*
Y19528D01*
X11125D01*
Y20328D01*
D02*
G37*
G36*
X5800Y19780D02*
X5000D01*
Y19155D01*
X5800D01*
Y19780D01*
D02*
G37*
G36*
X7800Y19770D02*
X7000D01*
Y19145D01*
X7800D01*
Y19770D01*
D02*
G37*
G36*
X6800D02*
X6000D01*
Y19145D01*
X6800D01*
Y19770D01*
D02*
G37*
G36*
X13650Y19700D02*
X12950D01*
Y19000D01*
X13650D01*
Y19700D01*
D02*
G37*
G36*
X12750Y20600D02*
X12050D01*
Y20393D01*
X11950Y20328D01*
X11923Y20328D01*
X11325D01*
Y19428D01*
Y18528D01*
X11950D01*
Y18935D01*
X12050Y19000D01*
X12077Y19000D01*
X12750D01*
Y19800D01*
Y20600D01*
D02*
G37*
G36*
X11125Y19328D02*
X10500D01*
Y18528D01*
X11125D01*
Y19328D01*
D02*
G37*
G36*
X5800Y18955D02*
X5000D01*
Y18330D01*
X5800D01*
Y18955D01*
D02*
G37*
G36*
X7800Y18945D02*
X7000D01*
Y18320D01*
X7800D01*
Y18945D01*
D02*
G37*
G36*
X6800D02*
X6000D01*
Y18320D01*
X6800D01*
Y18945D01*
D02*
G37*
G36*
X2851Y18764D02*
X2001D01*
Y18739D01*
X2065Y18497D01*
X2190Y18281D01*
X2367Y18104D01*
X2584Y17979D01*
X2826Y17914D01*
X2851D01*
Y18764D01*
D02*
G37*
G36*
X8257Y12545D02*
X7767D01*
X7533Y12498D01*
X7334Y12366D01*
X7202Y12167D01*
X7155Y11933D01*
X7202Y11699D01*
X7334Y11500D01*
X7533Y11368D01*
X7767Y11321D01*
X8004D01*
X8710Y10615D01*
Y10030D01*
X10510D01*
Y10203D01*
X11150D01*
Y9925D01*
X11365D01*
X11381Y9798D01*
X11290Y9773D01*
X11100Y9664D01*
X10946Y9510D01*
X10837Y9320D01*
X10780Y9109D01*
Y9100D01*
X12440D01*
Y9109D01*
X12383Y9320D01*
X12274Y9510D01*
X12120Y9664D01*
X11930Y9773D01*
X11839Y9798D01*
X11855Y9925D01*
X12600D01*
Y11825D01*
X11150D01*
Y11427D01*
X10510D01*
Y11480D01*
X9575D01*
X8690Y12366D01*
X8491Y12498D01*
X8257Y12545D01*
D02*
G37*
G36*
X10510Y9630D02*
X9710D01*
Y9005D01*
X10510D01*
Y9630D01*
D02*
G37*
G36*
X9510D02*
X8710D01*
Y9005D01*
X9510D01*
Y9630D01*
D02*
G37*
G36*
X10510Y8805D02*
X9710D01*
Y8180D01*
X10510D01*
Y8805D01*
D02*
G37*
G36*
X9510D02*
X8710D01*
Y8180D01*
X9510D01*
Y8805D01*
D02*
G37*
G36*
X12440Y8900D02*
X11710D01*
Y8170D01*
X11719D01*
X11930Y8227D01*
X12120Y8336D01*
X12274Y8490D01*
X12383Y8680D01*
X12440Y8891D01*
Y8900D01*
D02*
G37*
G36*
X11510D02*
X10780D01*
Y8891D01*
X10837Y8680D01*
X10946Y8490D01*
X11100Y8336D01*
X11290Y8227D01*
X11501Y8170D01*
X11510D01*
Y8900D01*
D02*
G37*
G36*
X12600Y7500D02*
X11975D01*
Y6700D01*
X12600D01*
Y7500D01*
D02*
G37*
G36*
X11775D02*
X11150D01*
Y6700D01*
X11775D01*
Y7500D01*
D02*
G37*
G36*
X12600Y6500D02*
X11975D01*
Y5700D01*
X12600D01*
Y6500D01*
D02*
G37*
G36*
X11775D02*
X11150D01*
Y5700D01*
X11775D01*
Y6500D01*
D02*
G37*
G36*
X49241Y36200D02*
X48616D01*
Y35400D01*
X49241D01*
Y36200D01*
D02*
G37*
G36*
X48416D02*
X47791D01*
Y35400D01*
X48416D01*
Y36200D01*
D02*
G37*
G36*
X49241Y35200D02*
X48616D01*
Y34400D01*
X49241D01*
Y35200D01*
D02*
G37*
G36*
X48416D02*
X47791D01*
Y34400D01*
X48416D01*
Y35200D01*
D02*
G37*
G36*
X19855Y29909D02*
X19850D01*
Y29209D01*
X20550D01*
Y29214D01*
X20495Y29418D01*
X20390Y29600D01*
X20241Y29749D01*
X20059Y29854D01*
X19855Y29909D01*
D02*
G37*
G36*
X19650D02*
X19645D01*
X19441Y29854D01*
X19259Y29749D01*
X19110Y29600D01*
X19005Y29418D01*
X18950Y29214D01*
Y29209D01*
X19650D01*
Y29909D01*
D02*
G37*
G36*
Y29009D02*
X18950D01*
Y29003D01*
X19005Y28800D01*
X19110Y28618D01*
X19259Y28469D01*
X19441Y28363D01*
X19645Y28309D01*
X19650D01*
Y29009D01*
D02*
G37*
G36*
X41563Y24527D02*
X40938D01*
Y23677D01*
X41563D01*
Y24527D01*
D02*
G37*
G36*
X40738D02*
X40113D01*
Y23677D01*
X40738D01*
Y24527D01*
D02*
G37*
G36*
X70400Y24343D02*
X69600D01*
Y23543D01*
X69618D01*
X69847Y23604D01*
X70053Y23723D01*
X70220Y23890D01*
X70339Y24095D01*
X70400Y24324D01*
Y24343D01*
D02*
G37*
G36*
X71945Y25900D02*
X69055D01*
X68908Y25871D01*
X68784Y25788D01*
X64080Y21084D01*
X63997Y20960D01*
X63968Y20813D01*
Y17709D01*
X59209Y12950D01*
X59091D01*
X58888Y12866D01*
X58734Y12712D01*
X58650Y12509D01*
Y12291D01*
X58734Y12088D01*
X58888Y11934D01*
X59091Y11850D01*
X59309D01*
X59512Y11934D01*
X59666Y12088D01*
X59750Y12291D01*
Y12409D01*
X64621Y17280D01*
X64704Y17404D01*
X64733Y17550D01*
Y20655D01*
X68483Y24405D01*
X68600Y24356D01*
Y24324D01*
X68661Y24095D01*
X68780Y23890D01*
X68947Y23723D01*
X69153Y23604D01*
X69382Y23543D01*
X69400D01*
Y24443D01*
X69500D01*
Y24543D01*
X70400D01*
Y24561D01*
X70339Y24790D01*
X70220Y24995D01*
X70197Y25018D01*
X70246Y25136D01*
X70754D01*
X70803Y25018D01*
X70780Y24995D01*
X70661Y24790D01*
X70600Y24561D01*
Y24324D01*
X70661Y24095D01*
X70780Y23890D01*
X70947Y23723D01*
X71153Y23604D01*
X71382Y23543D01*
X71618D01*
X71847Y23604D01*
X72053Y23723D01*
X72075Y23745D01*
X72193Y23697D01*
Y23189D01*
X72075Y23140D01*
X72053Y23163D01*
X71847Y23282D01*
X71618Y23343D01*
X71382D01*
X71153Y23282D01*
X70947Y23163D01*
X70780Y22995D01*
X70661Y22790D01*
X70600Y22561D01*
Y22324D01*
X70661Y22095D01*
X70780Y21890D01*
X70947Y21723D01*
X71153Y21604D01*
X71382Y21543D01*
X71618D01*
X71847Y21604D01*
X71965Y21672D01*
X72107Y21608D01*
X72110Y21594D01*
X71808Y21292D01*
X71618Y21343D01*
X71382D01*
X71153Y21282D01*
X70947Y21163D01*
X70780Y20995D01*
X70661Y20790D01*
X70600Y20561D01*
Y20324D01*
X70661Y20095D01*
X70780Y19890D01*
X70947Y19723D01*
X71153Y19604D01*
X71382Y19543D01*
X71618D01*
X71847Y19604D01*
X72053Y19723D01*
X72220Y19890D01*
X72339Y20095D01*
X72400Y20324D01*
Y20561D01*
X72349Y20751D01*
X72845Y21247D01*
X72928Y21372D01*
X72957Y21518D01*
Y24888D01*
X72928Y25034D01*
X72845Y25158D01*
X72216Y25788D01*
X72092Y25871D01*
X71945Y25900D01*
D02*
G37*
G36*
X17717Y23300D02*
X17092D01*
Y22500D01*
X17717D01*
Y23300D01*
D02*
G37*
G36*
X69618Y23343D02*
X69382D01*
X69153Y23282D01*
X68947Y23163D01*
X68780Y22995D01*
X68661Y22790D01*
X68600Y22561D01*
Y22324D01*
X68661Y22095D01*
X68780Y21890D01*
X68947Y21723D01*
X69153Y21604D01*
X69382Y21543D01*
X69618D01*
X69847Y21604D01*
X70053Y21723D01*
X70220Y21890D01*
X70339Y22095D01*
X70400Y22324D01*
Y22561D01*
X70339Y22790D01*
X70220Y22995D01*
X70053Y23163D01*
X69847Y23282D01*
X69618Y23343D01*
D02*
G37*
G36*
X17717Y22300D02*
X17092D01*
Y21500D01*
X17717D01*
Y22300D01*
D02*
G37*
G36*
X21755Y20600D02*
X21750D01*
Y19900D01*
X22450D01*
Y19905D01*
X22395Y20109D01*
X22290Y20291D01*
X22141Y20440D01*
X21959Y20545D01*
X21755Y20600D01*
D02*
G37*
G36*
X21550D02*
X21545D01*
X21341Y20545D01*
X21159Y20440D01*
X21010Y20291D01*
X20905Y20109D01*
X20850Y19905D01*
Y19900D01*
X21550D01*
Y20600D01*
D02*
G37*
G36*
X69618Y21343D02*
X69382D01*
X69153Y21282D01*
X68947Y21163D01*
X68780Y20995D01*
X68661Y20790D01*
X68600Y20561D01*
Y20324D01*
X68661Y20095D01*
X68780Y19890D01*
X68947Y19723D01*
X69153Y19604D01*
X69382Y19543D01*
X69618D01*
X69847Y19604D01*
X70053Y19723D01*
X70220Y19890D01*
X70339Y20095D01*
X70400Y20324D01*
Y20561D01*
X70339Y20790D01*
X70220Y20995D01*
X70053Y21163D01*
X69847Y21282D01*
X69618Y21343D01*
D02*
G37*
G36*
X22450Y19700D02*
X21750D01*
Y19000D01*
X21755D01*
X21959Y19055D01*
X22141Y19160D01*
X22290Y19309D01*
X22395Y19491D01*
X22450Y19695D01*
Y19700D01*
D02*
G37*
G36*
X21550D02*
X20850D01*
Y19695D01*
X20905Y19491D01*
X21010Y19309D01*
X21159Y19160D01*
X21341Y19055D01*
X21545Y19000D01*
X21550D01*
Y19700D01*
D02*
G37*
G36*
X69618Y19343D02*
X69382D01*
X69153Y19282D01*
X68947Y19163D01*
X68780Y18995D01*
X68661Y18790D01*
X68600Y18561D01*
Y18324D01*
X68661Y18095D01*
X68780Y17890D01*
X68947Y17723D01*
X69153Y17604D01*
X69382Y17543D01*
X69618D01*
X69847Y17604D01*
X70053Y17723D01*
X70220Y17890D01*
X70339Y18095D01*
X70400Y18324D01*
Y18561D01*
X70339Y18790D01*
X70220Y18995D01*
X70053Y19163D01*
X69847Y19282D01*
X69618Y19343D01*
D02*
G37*
G36*
Y17343D02*
X69600D01*
Y16543D01*
X70400D01*
Y16561D01*
X70339Y16790D01*
X70220Y16995D01*
X70053Y17163D01*
X69847Y17282D01*
X69618Y17343D01*
D02*
G37*
G36*
X69400D02*
X69382D01*
X69153Y17282D01*
X68947Y17163D01*
X68780Y16995D01*
X68661Y16790D01*
X68600Y16561D01*
Y16543D01*
X69400D01*
Y17343D01*
D02*
G37*
G36*
X48639Y20380D02*
X48420D01*
X48218Y20296D01*
X48063Y20142D01*
X47979Y19940D01*
Y19721D01*
X48063Y19519D01*
X48147Y19435D01*
Y18455D01*
X48063Y18371D01*
X47979Y18169D01*
Y17950D01*
X48063Y17748D01*
X48147Y17664D01*
Y16685D01*
X48026Y16564D01*
X47943Y16362D01*
Y16143D01*
X48026Y15941D01*
X48181Y15786D01*
X48383Y15703D01*
X48602D01*
X48804Y15786D01*
X48959Y15941D01*
X49043Y16143D01*
Y16362D01*
X48959Y16564D01*
X48911Y16612D01*
Y17664D01*
X48995Y17748D01*
X49079Y17950D01*
Y18169D01*
X48995Y18371D01*
X48911Y18455D01*
Y19435D01*
X48995Y19519D01*
X49079Y19721D01*
Y19940D01*
X48995Y20142D01*
X48841Y20296D01*
X48639Y20380D01*
D02*
G37*
G36*
X70400Y16343D02*
X69600D01*
Y15543D01*
X69618D01*
X69847Y15604D01*
X70053Y15723D01*
X70220Y15890D01*
X70339Y16095D01*
X70400Y16324D01*
Y16343D01*
D02*
G37*
G36*
X69400D02*
X68600D01*
Y16324D01*
X68661Y16095D01*
X68780Y15890D01*
X68947Y15723D01*
X69153Y15604D01*
X69382Y15543D01*
X69400D01*
Y16343D01*
D02*
G37*
G36*
X71618Y19343D02*
X71382D01*
X71153Y19282D01*
X70947Y19163D01*
X70780Y18995D01*
X70661Y18790D01*
X70600Y18561D01*
Y18324D01*
X70661Y18095D01*
X70780Y17890D01*
X70947Y17723D01*
X71153Y17604D01*
X71382Y17543D01*
X71618D01*
X71808Y17594D01*
X71942Y17460D01*
X71893Y17343D01*
X70600D01*
Y15543D01*
X71824D01*
X71872Y15426D01*
X71460Y15014D01*
X68095D01*
X68012Y15098D01*
X67809Y15181D01*
X67591D01*
X67388Y15098D01*
X67234Y14943D01*
X67150Y14741D01*
Y14522D01*
X67234Y14320D01*
X67388Y14165D01*
X67591Y14081D01*
X67809D01*
X68012Y14165D01*
X68095Y14249D01*
X71619D01*
X71765Y14278D01*
X71889Y14361D01*
X72845Y15317D01*
X72928Y15441D01*
X72957Y15588D01*
Y17368D01*
X72928Y17514D01*
X72845Y17638D01*
X72349Y18134D01*
X72400Y18324D01*
Y18561D01*
X72339Y18790D01*
X72220Y18995D01*
X72053Y19163D01*
X71847Y19282D01*
X71618Y19343D01*
D02*
G37*
G36*
X25981Y13800D02*
X25619D01*
X25269Y13706D01*
X24956Y13525D01*
X24700Y13269D01*
X24519Y12956D01*
X24425Y12606D01*
Y12244D01*
X24519Y11894D01*
X24700Y11581D01*
X24956Y11325D01*
X25269Y11144D01*
X25619Y11050D01*
X25981D01*
X26331Y11144D01*
X26644Y11325D01*
X26900Y11581D01*
X27081Y11894D01*
X27175Y12244D01*
Y12606D01*
X27081Y12956D01*
X26900Y13269D01*
X26644Y13525D01*
X26331Y13706D01*
X25981Y13800D01*
D02*
G37*
G36*
X26959Y9830D02*
X26950D01*
Y9100D01*
X27680D01*
Y9109D01*
X27623Y9320D01*
X27514Y9510D01*
X27360Y9664D01*
X27170Y9773D01*
X26959Y9830D01*
D02*
G37*
G36*
X26750D02*
X26741D01*
X26530Y9773D01*
X26340Y9664D01*
X26186Y9510D01*
X26077Y9320D01*
X26020Y9109D01*
Y9100D01*
X26750D01*
Y9830D01*
D02*
G37*
G36*
X27680Y8900D02*
X26950D01*
Y8170D01*
X26959D01*
X27170Y8227D01*
X27360Y8336D01*
X27514Y8490D01*
X27623Y8680D01*
X27680Y8891D01*
Y8900D01*
D02*
G37*
G36*
X26750D02*
X26020D01*
Y8891D01*
X26077Y8680D01*
X26186Y8490D01*
X26340Y8336D01*
X26530Y8227D01*
X26741Y8170D01*
X26750D01*
Y8900D01*
D02*
G37*
%LPD*%
D13*
X46608Y13739D02*
Y21614D01*
X50162Y25168D02*
Y25168D01*
X46608Y21614D02*
X50162Y25168D01*
Y25168D02*
X50994Y26000D01*
X46402Y13412D02*
Y13533D01*
X46608Y13739D01*
X50994Y26000D02*
X51026D01*
D39*
X9610Y8905D02*
D03*
Y10755D02*
D03*
X6900Y20895D02*
D03*
Y19045D02*
D03*
X4900Y20905D02*
D03*
Y19055D02*
D03*
D40*
X15142Y17100D02*
D03*
X16992D02*
D03*
X11630Y34700D02*
D03*
X9780D02*
D03*
X46763Y31993D02*
D03*
X48613D02*
D03*
X46666Y35300D02*
D03*
X48516D02*
D03*
X13725Y6600D02*
D03*
X11875D02*
D03*
X17105D02*
D03*
X15255D02*
D03*
X15142Y22400D02*
D03*
X16992D02*
D03*
X15438Y30743D02*
D03*
X17288D02*
D03*
X17105Y10875D02*
D03*
X15255D02*
D03*
X17025Y27035D02*
D03*
X15175D02*
D03*
X9375Y19428D02*
D03*
X11225D02*
D03*
D41*
X15525Y32408D02*
D03*
Y34258D02*
D03*
D50*
X40838Y24627D02*
D03*
X38988D02*
D03*
X13725Y10875D02*
D03*
X11875D02*
D03*
X13675Y17100D02*
D03*
X11825D02*
D03*
D51*
X39015Y26603D02*
X40529Y25089D01*
X38848Y26670D02*
X38915Y26603D01*
X39015D01*
X40529Y24864D02*
Y25089D01*
X29900Y21381D02*
X39986Y11296D01*
Y8206D02*
Y11296D01*
X29900Y21381D02*
Y27300D01*
X48094Y30158D02*
Y30215D01*
Y30120D02*
Y30158D01*
X64350Y17550D02*
Y20813D01*
X59200Y12400D02*
X64350Y17550D01*
X50839Y24793D02*
Y24888D01*
Y24793D02*
X51004Y24628D01*
Y10673D02*
Y24628D01*
X67700Y14631D02*
X71619D01*
X72575Y15588D01*
Y17368D01*
X71500Y18443D02*
X72575Y17368D01*
X64350Y20813D02*
X69055Y25518D01*
X71945D02*
X72575Y24888D01*
X69055Y25518D02*
X71945D01*
X72575Y21518D02*
Y24888D01*
X71500Y20443D02*
X72575Y21518D01*
X52921Y10312D02*
X54700Y8533D01*
X52921Y17492D02*
X52921Y17492D01*
X52921Y10312D02*
Y17492D01*
X52921Y17492D02*
Y24888D01*
X51750Y10705D02*
X53161Y9294D01*
X51750Y10705D02*
Y24888D01*
X39144Y15374D02*
X39211Y15441D01*
X39517D01*
X42129Y18053D01*
X44475D01*
X48516Y31896D02*
X48613Y31993D01*
X48094Y30215D02*
X48516Y30636D01*
Y31896D01*
X48529Y18060D02*
Y19830D01*
Y16289D02*
Y18060D01*
X46700Y31264D02*
Y32000D01*
X45616Y35300D02*
X46666D01*
X44167Y33726D02*
Y33851D01*
X44100Y33660D02*
X44167Y33726D01*
Y33851D02*
X45616Y35300D01*
X48493Y16253D02*
X48529Y16289D01*
X50204Y10695D02*
Y21142D01*
X50265Y21203D01*
X50204Y10695D02*
X51343Y9556D01*
X51004Y10673D02*
X52093Y9584D01*
X46680Y30011D02*
Y31284D01*
X46700Y31264D01*
X51343Y8270D02*
Y9556D01*
X52093Y6266D02*
Y9584D01*
X53161Y4392D02*
Y9294D01*
X54700Y1984D02*
Y8533D01*
D52*
X37376Y25412D02*
X37924Y24864D01*
X37315Y25710D02*
X37376Y25649D01*
X37924Y24864D02*
X38679D01*
X37376Y25412D02*
Y25649D01*
X36947Y25710D02*
X37315D01*
X36928Y25728D02*
X36947Y25710D01*
X40750Y12745D02*
X41550D01*
X40440Y13686D02*
X40750Y13376D01*
X41550Y12745D02*
X46091Y17286D01*
X40440Y12434D02*
X40750Y12745D01*
X40367Y13686D02*
X40440D01*
X40750Y13376D02*
X41289D01*
X45460Y17547D01*
X51643Y29935D02*
X51866Y30158D01*
X53233D01*
X46091Y22112D02*
X51643Y27664D01*
Y29935D01*
X46091Y17286D02*
Y22112D01*
X40367Y12434D02*
X40440D01*
X49423Y30158D02*
X50789D01*
X51012Y29935D01*
Y27926D02*
Y29935D01*
X45460Y22374D02*
X51012Y27926D01*
X45460Y17547D02*
Y22374D01*
X37565Y4114D02*
X37626Y4175D01*
X38735Y4304D02*
X41451Y7020D01*
X38043Y4939D02*
X38472D01*
X38050Y4304D02*
X38735D01*
X37611Y5047D02*
X37935D01*
X40816Y7283D02*
Y11072D01*
X37550Y5108D02*
X37611Y5047D01*
X37626Y4175D02*
X37921D01*
X38050Y4304D01*
X41451Y7020D02*
Y10809D01*
X38472Y4939D02*
X40816Y7283D01*
X37935Y5047D02*
X38043Y4939D01*
X41451Y10809D02*
X43792Y13150D01*
X40816Y11072D02*
X43529Y13785D01*
X44627Y12882D02*
X44713D01*
X43792Y13150D02*
X44359D01*
X44627Y12882D01*
X44359Y13785D02*
X44627Y14054D01*
X44713D01*
X43529Y13785D02*
X44359D01*
D54*
X12982Y36869D02*
X14369D01*
X15500Y38000D01*
X27383D01*
D55*
X19750Y29109D02*
D03*
X21750D02*
D03*
X17750D02*
D03*
X14950D02*
D03*
X14850Y19800D02*
D03*
X17650D02*
D03*
X21650D02*
D03*
D56*
X12950Y29109D02*
D03*
X12850Y19800D02*
D03*
D57*
X37383Y38000D02*
D03*
D58*
X35383D02*
D03*
X33383D02*
D03*
X31383D02*
D03*
X29383D02*
D03*
X27383D02*
D03*
X2951Y18864D02*
D03*
D59*
X69500Y24443D02*
D03*
Y22443D02*
D03*
X71500Y24443D02*
D03*
Y22443D02*
D03*
Y20443D02*
D03*
Y18443D02*
D03*
X69500Y20443D02*
D03*
Y18443D02*
D03*
Y16443D02*
D03*
D60*
X71500D02*
D03*
D61*
X11610Y9000D02*
D03*
X14150D02*
D03*
X16690D02*
D03*
X24310D02*
D03*
X26850D02*
D03*
X29390D02*
D03*
D62*
X25800Y12425D02*
D03*
X15200Y2825D02*
D03*
D63*
X2951Y20864D02*
D03*
D64*
X72500Y2500D02*
D03*
Y37500D02*
D03*
X2500D02*
D03*
Y2500D02*
D03*
D65*
X38848Y26670D02*
D03*
X40304D02*
D03*
X37315Y25710D02*
D03*
X37443Y15017D02*
D03*
X40833Y17838D02*
D03*
X39144Y11010D02*
D03*
X8200Y20905D02*
D03*
X13444Y34449D02*
D03*
X7767Y11933D02*
D03*
X67700Y14631D02*
D03*
X59200Y12400D02*
D03*
X53233Y30158D02*
D03*
X49423D02*
D03*
X40367Y12434D02*
D03*
Y13686D02*
D03*
X44475Y18053D02*
D03*
X39144Y15374D02*
D03*
X32733Y15030D02*
D03*
X37550Y5108D02*
D03*
X37565Y4114D02*
D03*
X44713Y12882D02*
D03*
Y14054D02*
D03*
X46680Y30011D02*
D03*
X34769Y4562D02*
D03*
X40365Y4414D02*
D03*
X42600D02*
D03*
X47100Y4600D02*
D03*
X39986Y8206D02*
D03*
X44100Y33660D02*
D03*
X48529Y18060D02*
D03*
X48493Y16253D02*
D03*
X48529Y19830D02*
D03*
X46402Y13412D02*
D03*
X52921Y24888D02*
D03*
X50839D02*
D03*
X51750D02*
D03*
X50265Y21153D02*
D03*
X56363Y24003D02*
D03*
X48094Y30158D02*
D03*
X48704Y21153D02*
D03*
X49478Y35776D02*
D03*
X51026Y26000D02*
D03*
X49404Y12852D02*
D03*
X54700Y1984D02*
D03*
X29900Y27300D02*
D03*
X55773Y35766D02*
D03*
X52093Y6266D02*
D03*
X53161Y4392D02*
D03*
X51343Y8270D02*
D03*
X70100Y5900D02*
D03*
D66*
X13400Y31800D02*
D03*
X10350D02*
D03*
X10000Y22500D02*
D03*
X13050D02*
D03*
D67*
X17413Y29554D02*
X17750Y29217D01*
Y29109D02*
Y29217D01*
X17288Y30743D02*
X17413Y30618D01*
Y29554D02*
Y30618D01*
X13444Y34449D02*
X13575Y34317D01*
X15465D02*
X15525Y34258D01*
X13575Y34317D02*
X15465D01*
X11630Y34700D02*
X13192D01*
X13444Y34449D01*
X8909Y17809D02*
Y20197D01*
X14773Y19877D02*
Y20077D01*
Y19877D02*
X14850Y19800D01*
X13050Y21800D02*
Y22500D01*
Y21800D02*
X14773Y20077D01*
X15142Y17100D02*
Y19400D01*
X13675Y17100D02*
X15142D01*
X17105Y6600D02*
X26990D01*
X29390Y9000D01*
X13725Y10875D02*
X15255D01*
X14062Y9088D02*
Y10313D01*
X13725Y10650D02*
X14062Y10313D01*
Y9088D02*
X14150Y9000D01*
X13725Y10650D02*
Y10875D01*
X13725Y6600D02*
Y8451D01*
X14150Y8876D01*
Y9000D01*
X17105Y10875D02*
X22435D01*
X24310Y9000D01*
X6910Y20905D02*
X8200D01*
X6900Y20895D02*
X6910Y20905D01*
X8909Y17809D02*
X9617Y17100D01*
X8200Y20905D02*
X8909Y20197D01*
X9617Y17100D02*
X10998D01*
X17573Y18837D02*
Y19723D01*
X16911Y18175D02*
X17573Y18837D01*
X16911Y18000D02*
Y18175D01*
X17573Y19723D02*
X17650Y19800D01*
X13800Y30900D02*
X15400D01*
X15438D02*
X15497Y30959D01*
X15400Y30862D02*
X15438Y30900D01*
X15497Y32716D02*
X15556Y32775D01*
X15497Y30959D02*
Y32716D01*
X13400Y31300D02*
Y31800D01*
Y31300D02*
X13800Y30900D01*
X14950Y29109D02*
Y29217D01*
X15400Y29667D02*
Y30862D01*
X14950Y29217D02*
X15400Y29667D01*
X17062Y27247D02*
X17150Y27335D01*
X17062Y27035D02*
Y27247D01*
X17150Y27335D02*
X19976D01*
X21750Y29109D01*
X15175Y27035D02*
Y27210D01*
X12950Y29109D02*
X14724Y27335D01*
X15050D01*
X15175Y27210D01*
X8257Y11933D02*
X9435Y10755D01*
X9610D01*
X7767Y11933D02*
X8257D01*
X11815Y10815D02*
X11875Y10875D01*
X9670Y10815D02*
X11815D01*
X9610Y10755D02*
X9670Y10815D01*
X4900Y20905D02*
X4910Y20895D01*
X6900D01*
X2992Y20905D02*
X4900D01*
X2951Y20864D02*
X2992Y20905D01*
M02*
