G04*
G04 #@! TF.GenerationSoftware,Altium Limited,Altium Designer,23.11.1 (41)*
G04*
G04 Layer_Color=65535*
%FSLAX43Y43*%
%MOMM*%
G71*
G04*
G04 #@! TF.SameCoordinates,A9BB8E2F-42CC-474E-B4F6-770058E49C0A*
G04*
G04*
G04 #@! TF.FilePolarity,Positive*
G04*
G01*
G75*
%ADD10C,0.150*%
%ADD11C,0.091*%
%ADD12C,0.200*%
%ADD13C,0.254*%
%ADD14C,0.100*%
%ADD15R,4.200X0.900*%
G36*
X46998Y29697D02*
Y30332D01*
X46363D01*
Y29697D01*
X46998D01*
D02*
G37*
G36*
X25444Y33327D02*
X25452Y33326D01*
X25460Y33324D01*
X25470Y33323D01*
X25480Y33320D01*
X25490Y33318D01*
X25502Y33313D01*
X25514Y33308D01*
X25526Y33303D01*
X25537Y33296D01*
X25549Y33288D01*
X25561Y33279D01*
X25572Y33268D01*
X25573Y33268D01*
X25575Y33266D01*
X25577Y33263D01*
X25581Y33258D01*
X25586Y33252D01*
X25591Y33246D01*
X25597Y33238D01*
X25602Y33229D01*
X25608Y33219D01*
X25613Y33208D01*
X25618Y33197D01*
X25622Y33184D01*
X25626Y33171D01*
X25629Y33157D01*
X25631Y33142D01*
X25631Y33127D01*
Y33126D01*
Y33125D01*
Y33121D01*
X25631Y33117D01*
Y33112D01*
X25630Y33106D01*
X25628Y33099D01*
X25627Y33091D01*
X25623Y33074D01*
X25616Y33054D01*
X25607Y33033D01*
X25602Y33022D01*
X25595Y33011D01*
X25342Y32606D01*
X25593D01*
X25598Y32605D01*
X25604Y32604D01*
X25612Y32601D01*
X25619Y32596D01*
X25625Y32589D01*
X25630Y32579D01*
X25631Y32572D01*
Y32566D01*
Y32564D01*
X25631Y32560D01*
X25630Y32553D01*
X25626Y32546D01*
X25622Y32539D01*
X25614Y32532D01*
X25605Y32528D01*
X25598Y32527D01*
X25592Y32526D01*
X25269D01*
X25265Y32527D01*
X25258Y32528D01*
X25251Y32531D01*
X25243Y32536D01*
X25237Y32543D01*
X25232Y32553D01*
X25231Y32559D01*
X25230Y32566D01*
Y32566D01*
Y32567D01*
X25231Y32573D01*
X25233Y32580D01*
X25237Y32588D01*
X25532Y33060D01*
X25532Y33062D01*
X25535Y33066D01*
X25537Y33072D01*
X25542Y33081D01*
X25545Y33091D01*
X25548Y33102D01*
X25550Y33114D01*
X25551Y33126D01*
Y33127D01*
Y33129D01*
Y33131D01*
X25550Y33135D01*
X25549Y33144D01*
X25547Y33156D01*
X25543Y33170D01*
X25536Y33184D01*
X25527Y33198D01*
X25515Y33212D01*
X25514Y33213D01*
X25510Y33218D01*
X25502Y33223D01*
X25492Y33230D01*
X25480Y33236D01*
X25466Y33241D01*
X25449Y33246D01*
X25431Y33247D01*
X25427D01*
X25424Y33246D01*
X25419Y33246D01*
X25413Y33244D01*
X25406Y33242D01*
X25399Y33239D01*
X25390Y33235D01*
X25380Y33230D01*
X25371Y33223D01*
X25360Y33214D01*
X25350Y33204D01*
X25339Y33193D01*
X25328Y33180D01*
X25317Y33164D01*
X25306Y33146D01*
X25305Y33145D01*
X25304Y33142D01*
X25301Y33140D01*
X25297Y33137D01*
X25292Y33132D01*
X25286Y33130D01*
X25279Y33127D01*
X25271Y33126D01*
X25269D01*
X25265Y33127D01*
X25258Y33129D01*
X25251Y33131D01*
X25243Y33137D01*
X25237Y33143D01*
X25232Y33153D01*
X25231Y33160D01*
X25230Y33167D01*
Y33168D01*
Y33169D01*
X25231Y33173D01*
X25232Y33178D01*
X25235Y33183D01*
Y33184D01*
X25236Y33185D01*
X25238Y33189D01*
X25242Y33197D01*
X25248Y33206D01*
X25256Y33217D01*
X25264Y33229D01*
X25275Y33242D01*
X25287Y33256D01*
X25301Y33268D01*
X25315Y33282D01*
X25331Y33294D01*
X25349Y33305D01*
X25367Y33314D01*
X25388Y33322D01*
X25409Y33326D01*
X25420Y33328D01*
X25439D01*
X25444Y33327D01*
D02*
G37*
G36*
X24795Y33326D02*
X24799Y33325D01*
X24806Y33323D01*
X24812Y33319D01*
X24819Y33313D01*
X24824Y33306D01*
X24830Y33296D01*
X25068Y32578D01*
Y32577D01*
X25069Y32575D01*
X25070Y32571D01*
Y32566D01*
Y32564D01*
X25069Y32560D01*
X25068Y32553D01*
X25065Y32546D01*
X25060Y32539D01*
X25053Y32532D01*
X25044Y32528D01*
X25037Y32527D01*
X25030Y32526D01*
X25029D01*
X25026Y32527D01*
X25021Y32528D01*
X25015Y32529D01*
X25008Y32533D01*
X25002Y32538D01*
X24996Y32544D01*
X24992Y32553D01*
X24934Y32726D01*
X24645D01*
X24588Y32553D01*
X24587Y32552D01*
X24586Y32549D01*
X24583Y32544D01*
X24579Y32539D01*
X24574Y32534D01*
X24567Y32530D01*
X24560Y32527D01*
X24550Y32526D01*
X24548D01*
X24544Y32527D01*
X24537Y32528D01*
X24529Y32531D01*
X24522Y32536D01*
X24516Y32543D01*
X24511Y32553D01*
X24510Y32559D01*
X24509Y32566D01*
Y32566D01*
Y32570D01*
X24510Y32574D01*
X24511Y32578D01*
X24749Y33294D01*
X24750Y33296D01*
X24752Y33299D01*
X24754Y33304D01*
X24758Y33311D01*
X24764Y33317D01*
X24771Y33322D01*
X24780Y33325D01*
X24790Y33327D01*
X24791D01*
X24795Y33326D01*
D02*
G37*
G36*
X24163Y33327D02*
X24170Y33326D01*
X24178Y33324D01*
X24188Y33323D01*
X24199Y33320D01*
X24209Y33318D01*
X24221Y33313D01*
X24232Y33309D01*
X24244Y33303D01*
X24256Y33296D01*
X24268Y33289D01*
X24280Y33279D01*
X24291Y33269D01*
X24292Y33268D01*
X24293Y33267D01*
X24296Y33263D01*
X24300Y33259D01*
X24304Y33253D01*
X24309Y33246D01*
X24314Y33239D01*
X24320Y33230D01*
X24325Y33219D01*
X24330Y33209D01*
X24336Y33197D01*
X24340Y33185D01*
X24344Y33171D01*
X24347Y33158D01*
X24348Y33142D01*
X24349Y33127D01*
Y32726D01*
Y32725D01*
Y32723D01*
Y32718D01*
X24348Y32712D01*
X24347Y32705D01*
X24346Y32697D01*
X24344Y32687D01*
X24341Y32677D01*
X24339Y32666D01*
X24335Y32655D01*
X24330Y32643D01*
X24325Y32631D01*
X24317Y32619D01*
X24309Y32607D01*
X24300Y32595D01*
X24290Y32584D01*
X24289Y32583D01*
X24287Y32582D01*
X24284Y32579D01*
X24280Y32575D01*
X24274Y32571D01*
X24267Y32566D01*
X24259Y32561D01*
X24250Y32555D01*
X24241Y32550D01*
X24230Y32544D01*
X24218Y32539D01*
X24205Y32535D01*
X24193Y32531D01*
X24178Y32528D01*
X24164Y32527D01*
X24149Y32526D01*
X23907D01*
X23902Y32527D01*
X23896Y32528D01*
X23889Y32531D01*
X23881Y32536D01*
X23875Y32543D01*
X23870Y32553D01*
X23869Y32559D01*
X23869Y32566D01*
Y33287D01*
Y33288D01*
Y33289D01*
X23869Y33294D01*
X23871Y33300D01*
X23874Y33307D01*
X23879Y33315D01*
X23886Y33322D01*
X23896Y33326D01*
X23902Y33327D01*
X23908Y33328D01*
X24157D01*
X24163Y33327D01*
D02*
G37*
G36*
X21545Y25200D02*
X21552Y25199D01*
X21560Y25198D01*
X21569Y25196D01*
X21580Y25193D01*
X21591Y25191D01*
X21602Y25187D01*
X21613Y25181D01*
X21626Y25176D01*
X21638Y25169D01*
X21650Y25161D01*
X21662Y25152D01*
X21673Y25142D01*
X21673Y25141D01*
X21675Y25139D01*
X21678Y25136D01*
X21682Y25132D01*
X21686Y25126D01*
X21691Y25119D01*
X21697Y25110D01*
X21702Y25102D01*
X21708Y25092D01*
X21713Y25081D01*
X21718Y25070D01*
X21722Y25057D01*
X21727Y25044D01*
X21729Y25030D01*
X21731Y25016D01*
X21732Y25000D01*
Y25000D01*
Y24996D01*
X21731Y24991D01*
Y24984D01*
X21729Y24975D01*
X21728Y24966D01*
X21725Y24955D01*
X21722Y24943D01*
X21717Y24930D01*
X21712Y24918D01*
X21706Y24904D01*
X21698Y24890D01*
X21689Y24877D01*
X21678Y24864D01*
X21666Y24852D01*
X21651Y24840D01*
X21652Y24839D01*
X21655Y24837D01*
X21659Y24834D01*
X21664Y24829D01*
X21670Y24823D01*
X21677Y24815D01*
X21684Y24807D01*
X21692Y24797D01*
X21699Y24786D01*
X21706Y24774D01*
X21713Y24760D01*
X21719Y24747D01*
X21724Y24731D01*
X21728Y24715D01*
X21731Y24698D01*
X21732Y24679D01*
Y24600D01*
Y24599D01*
Y24596D01*
Y24591D01*
X21731Y24585D01*
X21730Y24578D01*
X21728Y24570D01*
X21727Y24561D01*
X21724Y24550D01*
X21722Y24539D01*
X21717Y24528D01*
X21712Y24517D01*
X21707Y24504D01*
X21700Y24492D01*
X21692Y24480D01*
X21683Y24468D01*
X21673Y24457D01*
X21672Y24457D01*
X21670Y24455D01*
X21667Y24452D01*
X21662Y24448D01*
X21656Y24444D01*
X21650Y24439D01*
X21641Y24434D01*
X21633Y24429D01*
X21623Y24423D01*
X21612Y24418D01*
X21600Y24413D01*
X21588Y24408D01*
X21574Y24404D01*
X21560Y24402D01*
X21546Y24400D01*
X21530Y24399D01*
X21369D01*
X21365Y24400D01*
X21358Y24402D01*
X21351Y24404D01*
X21344Y24409D01*
X21337Y24416D01*
X21333Y24426D01*
X21332Y24432D01*
X21331Y24439D01*
Y24440D01*
Y24441D01*
X21332Y24446D01*
X21333Y24452D01*
X21336Y24459D01*
X21341Y24467D01*
X21348Y24474D01*
X21358Y24478D01*
X21364Y24479D01*
X21371Y24479D01*
X21536D01*
X21539Y24480D01*
X21548Y24481D01*
X21560Y24484D01*
X21574Y24488D01*
X21588Y24494D01*
X21602Y24502D01*
X21616Y24514D01*
X21618Y24516D01*
X21622Y24520D01*
X21627Y24528D01*
X21634Y24538D01*
X21640Y24550D01*
X21645Y24565D01*
X21650Y24581D01*
X21651Y24600D01*
Y24679D01*
Y24680D01*
Y24682D01*
Y24684D01*
X21651Y24688D01*
X21650Y24697D01*
X21647Y24709D01*
X21643Y24722D01*
X21636Y24737D01*
X21628Y24751D01*
X21616Y24764D01*
X21614Y24766D01*
X21610Y24770D01*
X21602Y24775D01*
X21592Y24782D01*
X21580Y24789D01*
X21565Y24794D01*
X21548Y24798D01*
X21530Y24800D01*
X21449D01*
X21445Y24801D01*
X21438Y24803D01*
X21431Y24805D01*
X21423Y24810D01*
X21417Y24817D01*
X21412Y24827D01*
X21411Y24833D01*
X21410Y24840D01*
Y24841D01*
Y24841D01*
X21411Y24847D01*
X21413Y24852D01*
X21415Y24860D01*
X21421Y24868D01*
X21427Y24874D01*
X21437Y24879D01*
X21444Y24880D01*
X21451Y24880D01*
X21536D01*
X21539Y24881D01*
X21548Y24882D01*
X21560Y24885D01*
X21574Y24889D01*
X21588Y24895D01*
X21602Y24903D01*
X21616Y24915D01*
X21618Y24917D01*
X21622Y24921D01*
X21627Y24929D01*
X21634Y24939D01*
X21640Y24951D01*
X21645Y24966D01*
X21650Y24982D01*
X21651Y25000D01*
Y25001D01*
Y25003D01*
Y25006D01*
X21651Y25009D01*
X21650Y25018D01*
X21647Y25029D01*
X21643Y25043D01*
X21636Y25057D01*
X21628Y25072D01*
X21616Y25085D01*
X21614Y25087D01*
X21610Y25091D01*
X21602Y25096D01*
X21592Y25103D01*
X21580Y25110D01*
X21565Y25115D01*
X21548Y25119D01*
X21530Y25121D01*
X21369D01*
X21365Y25121D01*
X21358Y25123D01*
X21351Y25126D01*
X21344Y25131D01*
X21337Y25137D01*
X21333Y25148D01*
X21332Y25154D01*
X21331Y25160D01*
Y25161D01*
Y25162D01*
X21332Y25167D01*
X21333Y25173D01*
X21336Y25181D01*
X21341Y25188D01*
X21348Y25195D01*
X21358Y25199D01*
X21364Y25200D01*
X21371Y25201D01*
X21539D01*
X21545Y25200D01*
D02*
G37*
G36*
X20894Y25199D02*
X20899Y25198D01*
X20905Y25196D01*
X20911Y25192D01*
X20918Y25187D01*
X20924Y25179D01*
X20929Y25169D01*
X21168Y24452D01*
Y24451D01*
X21168Y24448D01*
X21169Y24444D01*
Y24439D01*
Y24437D01*
X21168Y24433D01*
X21168Y24426D01*
X21164Y24419D01*
X21160Y24412D01*
X21152Y24405D01*
X21143Y24401D01*
X21136Y24400D01*
X21130Y24399D01*
X21129D01*
X21125Y24400D01*
X21120Y24401D01*
X21114Y24402D01*
X21108Y24406D01*
X21102Y24411D01*
X21096Y24417D01*
X21091Y24426D01*
X21034Y24600D01*
X20745D01*
X20687Y24426D01*
X20686Y24425D01*
X20685Y24422D01*
X20683Y24418D01*
X20679Y24413D01*
X20674Y24408D01*
X20667Y24403D01*
X20659Y24400D01*
X20649Y24399D01*
X20647D01*
X20643Y24400D01*
X20636Y24402D01*
X20629Y24404D01*
X20621Y24409D01*
X20615Y24416D01*
X20610Y24426D01*
X20609Y24432D01*
X20609Y24439D01*
Y24440D01*
Y24443D01*
X20609Y24447D01*
X20610Y24452D01*
X20849Y25167D01*
X20850Y25169D01*
X20851Y25172D01*
X20854Y25177D01*
X20858Y25184D01*
X20863Y25190D01*
X20871Y25195D01*
X20879Y25198D01*
X20889Y25200D01*
X20891D01*
X20894Y25199D01*
D02*
G37*
G36*
X20263Y25200D02*
X20269Y25199D01*
X20278Y25198D01*
X20287Y25196D01*
X20298Y25193D01*
X20308Y25191D01*
X20320Y25187D01*
X20332Y25182D01*
X20344Y25176D01*
X20356Y25170D01*
X20367Y25162D01*
X20379Y25153D01*
X20390Y25143D01*
X20391Y25142D01*
X20393Y25140D01*
X20395Y25137D01*
X20400Y25132D01*
X20404Y25126D01*
X20409Y25120D01*
X20414Y25112D01*
X20420Y25103D01*
X20425Y25093D01*
X20430Y25083D01*
X20435Y25071D01*
X20439Y25058D01*
X20444Y25044D01*
X20446Y25031D01*
X20448Y25016D01*
X20449Y25000D01*
Y24600D01*
Y24599D01*
Y24596D01*
Y24591D01*
X20448Y24585D01*
X20447Y24578D01*
X20445Y24570D01*
X20444Y24561D01*
X20441Y24550D01*
X20439Y24539D01*
X20434Y24528D01*
X20429Y24517D01*
X20424Y24504D01*
X20417Y24492D01*
X20409Y24480D01*
X20400Y24468D01*
X20389Y24457D01*
X20389Y24457D01*
X20387Y24455D01*
X20384Y24452D01*
X20379Y24448D01*
X20373Y24444D01*
X20367Y24439D01*
X20359Y24434D01*
X20350Y24429D01*
X20340Y24423D01*
X20329Y24418D01*
X20318Y24413D01*
X20305Y24408D01*
X20292Y24404D01*
X20278Y24402D01*
X20263Y24400D01*
X20248Y24399D01*
X20006D01*
X20002Y24400D01*
X19995Y24402D01*
X19989Y24404D01*
X19981Y24409D01*
X19974Y24416D01*
X19970Y24426D01*
X19969Y24432D01*
X19968Y24439D01*
Y25160D01*
Y25161D01*
Y25162D01*
X19969Y25167D01*
X19971Y25173D01*
X19973Y25181D01*
X19978Y25188D01*
X19985Y25195D01*
X19995Y25199D01*
X20001Y25200D01*
X20008Y25201D01*
X20257D01*
X20263Y25200D01*
D02*
G37*
G36*
X23405Y38399D02*
X23412Y38398D01*
X23419Y38395D01*
X23426Y38390D01*
X23433Y38383D01*
X23437Y38373D01*
X23439Y38366D01*
Y38359D01*
Y38359D01*
Y38358D01*
X23438Y38353D01*
X23436Y38345D01*
X23433Y38337D01*
X23207Y37999D01*
X23433Y37661D01*
Y37660D01*
X23434Y37659D01*
X23436Y37654D01*
X23438Y37647D01*
X23439Y37639D01*
Y37637D01*
X23438Y37633D01*
X23437Y37626D01*
X23434Y37619D01*
X23430Y37612D01*
X23422Y37605D01*
X23413Y37601D01*
X23406Y37600D01*
X23399Y37599D01*
X23396D01*
X23391Y37600D01*
X23386Y37602D01*
X23381Y37603D01*
X23376Y37606D01*
X23370Y37610D01*
X23366Y37616D01*
X23159Y37927D01*
X22952Y37616D01*
X22951Y37615D01*
X22949Y37613D01*
X22947Y37611D01*
X22943Y37608D01*
X22938Y37604D01*
X22933Y37602D01*
X22926Y37600D01*
X22919Y37599D01*
X22917D01*
X22913Y37600D01*
X22906Y37602D01*
X22898Y37604D01*
X22891Y37609D01*
X22885Y37616D01*
X22880Y37626D01*
X22879Y37632D01*
X22878Y37639D01*
Y37640D01*
Y37641D01*
X22879Y37646D01*
X22881Y37653D01*
X22885Y37661D01*
X23110Y37999D01*
X22885Y38337D01*
Y38338D01*
X22884Y38339D01*
X22881Y38344D01*
X22879Y38351D01*
X22878Y38359D01*
Y38360D01*
Y38361D01*
X22879Y38366D01*
X22881Y38372D01*
X22883Y38380D01*
X22888Y38387D01*
X22895Y38394D01*
X22905Y38398D01*
X22912Y38399D01*
X22919Y38400D01*
X22922D01*
X22926Y38399D01*
X22931Y38398D01*
X22936Y38396D01*
X22941Y38392D01*
X22947Y38388D01*
X22952Y38382D01*
X23159Y38072D01*
X23366Y38382D01*
X23367Y38383D01*
X23368Y38385D01*
X23371Y38388D01*
X23375Y38392D01*
X23379Y38394D01*
X23385Y38398D01*
X23391Y38399D01*
X23399Y38400D01*
X23401D01*
X23405Y38399D01*
D02*
G37*
G36*
X24447D02*
X24454Y38398D01*
X24461Y38395D01*
X24468Y38390D01*
X24475Y38383D01*
X24479Y38373D01*
X24481Y38366D01*
Y38359D01*
Y38359D01*
Y38356D01*
X24480Y38353D01*
X24479Y38348D01*
X24334Y37839D01*
X24521D01*
Y37959D01*
Y37960D01*
Y37961D01*
X24522Y37965D01*
X24524Y37972D01*
X24527Y37980D01*
X24532Y37986D01*
X24538Y37993D01*
X24549Y37997D01*
X24554Y37999D01*
X24563D01*
X24568Y37998D01*
X24574Y37997D01*
X24582Y37994D01*
X24589Y37990D01*
X24596Y37982D01*
X24600Y37973D01*
X24601Y37966D01*
X24602Y37959D01*
Y37839D01*
X24683D01*
X24688Y37838D01*
X24694Y37838D01*
X24702Y37834D01*
X24709Y37829D01*
X24716Y37822D01*
X24720Y37812D01*
X24721Y37805D01*
X24722Y37799D01*
Y37797D01*
X24721Y37793D01*
X24720Y37786D01*
X24717Y37779D01*
X24712Y37772D01*
X24705Y37765D01*
X24695Y37761D01*
X24688Y37760D01*
X24681Y37759D01*
X24602D01*
Y37639D01*
Y37637D01*
X24601Y37633D01*
X24600Y37626D01*
X24597Y37619D01*
X24592Y37612D01*
X24585Y37605D01*
X24575Y37601D01*
X24568Y37600D01*
X24561Y37599D01*
X24560D01*
X24555Y37600D01*
X24549Y37602D01*
X24542Y37604D01*
X24534Y37609D01*
X24527Y37616D01*
X24523Y37626D01*
X24522Y37632D01*
X24521Y37639D01*
Y37759D01*
X24279D01*
X24275Y37760D01*
X24268Y37761D01*
X24261Y37764D01*
X24253Y37769D01*
X24247Y37776D01*
X24242Y37786D01*
X24242Y37792D01*
X24241Y37799D01*
Y37800D01*
Y37803D01*
Y37806D01*
X24242Y37810D01*
X24402Y38370D01*
X24403Y38372D01*
X24404Y38376D01*
X24406Y38380D01*
X24411Y38386D01*
X24416Y38391D01*
X24423Y38396D01*
X24431Y38399D01*
X24441Y38400D01*
X24443D01*
X24447Y38399D01*
D02*
G37*
G36*
X23850Y38400D02*
X23858D01*
X23866Y38398D01*
X23876Y38398D01*
X23887Y38395D01*
X23899Y38392D01*
X23912Y38388D01*
X23926Y38384D01*
X23940Y38378D01*
X23955Y38371D01*
X23969Y38364D01*
X23984Y38354D01*
X23997Y38343D01*
X24011Y38331D01*
X24011Y38330D01*
X24014Y38327D01*
X24017Y38324D01*
X24022Y38318D01*
X24027Y38311D01*
X24033Y38303D01*
X24039Y38293D01*
X24046Y38283D01*
X24052Y38272D01*
X24059Y38258D01*
X24065Y38244D01*
X24070Y38229D01*
X24074Y38213D01*
X24077Y38196D01*
X24080Y38178D01*
X24081Y38160D01*
Y38159D01*
Y38155D01*
Y38150D01*
X24080Y38142D01*
X24079Y38133D01*
X24077Y38123D01*
X24075Y38111D01*
X24072Y38098D01*
X24069Y38085D01*
X24065Y38071D01*
X24059Y38057D01*
X24053Y38041D01*
X24045Y38027D01*
X24036Y38014D01*
X24026Y37999D01*
X24014Y37986D01*
X24013Y37986D01*
X24011Y37984D01*
X24007Y37981D01*
X24002Y37976D01*
X23995Y37971D01*
X23987Y37965D01*
X23978Y37959D01*
X23967Y37953D01*
X23956Y37947D01*
X23942Y37941D01*
X23928Y37935D01*
X23912Y37930D01*
X23896Y37926D01*
X23879Y37922D01*
X23860Y37920D01*
X23841Y37920D01*
X23681D01*
Y37639D01*
Y37637D01*
X23680Y37633D01*
X23679Y37626D01*
X23676Y37619D01*
X23671Y37612D01*
X23664Y37605D01*
X23654Y37601D01*
X23647Y37600D01*
X23640Y37599D01*
X23638D01*
X23634Y37600D01*
X23627Y37602D01*
X23621Y37604D01*
X23613Y37609D01*
X23606Y37616D01*
X23602Y37626D01*
X23601Y37632D01*
X23600Y37639D01*
Y38360D01*
Y38361D01*
Y38362D01*
X23601Y38367D01*
X23603Y38373D01*
X23605Y38381D01*
X23611Y38388D01*
X23617Y38395D01*
X23627Y38399D01*
X23633Y38400D01*
X23640Y38401D01*
X23845D01*
X23850Y38400D01*
D02*
G37*
G36*
X39619Y27590D02*
X39626Y27589D01*
X39634Y27587D01*
X39643Y27586D01*
X39654Y27583D01*
X39665Y27581D01*
X39676Y27576D01*
X39688Y27571D01*
X39700Y27566D01*
X39713Y27559D01*
X39724Y27551D01*
X39736Y27542D01*
X39747Y27532D01*
X39748Y27531D01*
X39750Y27529D01*
X39752Y27526D01*
X39757Y27521D01*
X39761Y27516D01*
X39765Y27509D01*
X39771Y27501D01*
X39776Y27492D01*
X39781Y27483D01*
X39786Y27472D01*
X39791Y27460D01*
X39796Y27447D01*
X39800Y27434D01*
X39802Y27420D01*
X39804Y27406D01*
X39805Y27390D01*
Y27382D01*
X39804Y27376D01*
X39803Y27369D01*
X39801Y27361D01*
X39800Y27351D01*
X39797Y27341D01*
X39790Y27319D01*
X39786Y27307D01*
X39780Y27295D01*
X39774Y27283D01*
X39766Y27271D01*
X39757Y27259D01*
X39747Y27248D01*
X39746Y27247D01*
X39745Y27246D01*
X39741Y27243D01*
X39737Y27239D01*
X39731Y27235D01*
X39724Y27230D01*
X39717Y27225D01*
X39708Y27219D01*
X39698Y27214D01*
X39687Y27209D01*
X39675Y27204D01*
X39663Y27200D01*
X39650Y27196D01*
X39636Y27193D01*
X39621Y27192D01*
X39606Y27191D01*
X39365D01*
X39363D01*
X39359D01*
X39351Y27192D01*
X39342Y27192D01*
X39330Y27193D01*
X39317Y27196D01*
X39301Y27198D01*
X39284Y27202D01*
X39266Y27207D01*
X39247Y27213D01*
X39227Y27219D01*
X39207Y27229D01*
X39187Y27239D01*
X39166Y27251D01*
X39146Y27264D01*
X39126Y27280D01*
X39126Y27281D01*
X39123Y27284D01*
X39119Y27287D01*
X39114Y27293D01*
X39107Y27299D01*
X39099Y27307D01*
X39091Y27316D01*
X39083Y27326D01*
X39073Y27337D01*
X39064Y27349D01*
X39045Y27374D01*
X39028Y27403D01*
X39020Y27418D01*
X39013Y27434D01*
X39012Y27434D01*
X39011Y27438D01*
X39010Y27442D01*
X39008Y27447D01*
X39006Y27459D01*
X39004Y27465D01*
Y27472D01*
X39005Y27477D01*
X39006Y27483D01*
X39009Y27490D01*
X39014Y27498D01*
X39021Y27505D01*
X39031Y27509D01*
X39038Y27510D01*
X39044Y27510D01*
X39045D01*
X39050D01*
X39054Y27510D01*
X39060Y27508D01*
X39066Y27505D01*
X39072Y27502D01*
X39076Y27497D01*
X39079Y27490D01*
Y27489D01*
X39080Y27486D01*
X39082Y27482D01*
X39084Y27475D01*
X39087Y27467D01*
X39090Y27459D01*
X39095Y27449D01*
X39100Y27438D01*
X39107Y27426D01*
X39115Y27413D01*
X39123Y27401D01*
X39133Y27388D01*
X39144Y27374D01*
X39157Y27361D01*
X39170Y27348D01*
X39186Y27335D01*
X39187Y27335D01*
X39188Y27333D01*
X39192Y27330D01*
X39197Y27327D01*
X39203Y27323D01*
X39210Y27318D01*
X39219Y27313D01*
X39228Y27307D01*
X39248Y27297D01*
X39272Y27287D01*
X39297Y27280D01*
X39310Y27276D01*
X39324Y27274D01*
Y27400D01*
X39324Y27406D01*
X39325Y27412D01*
X39327Y27421D01*
X39329Y27430D01*
X39331Y27441D01*
X39334Y27451D01*
X39338Y27463D01*
X39342Y27475D01*
X39348Y27487D01*
X39355Y27499D01*
X39362Y27510D01*
X39372Y27522D01*
X39382Y27533D01*
X39383Y27534D01*
X39384Y27536D01*
X39388Y27538D01*
X39392Y27543D01*
X39398Y27547D01*
X39405Y27552D01*
X39412Y27557D01*
X39422Y27562D01*
X39432Y27567D01*
X39443Y27573D01*
X39454Y27577D01*
X39467Y27582D01*
X39480Y27586D01*
X39494Y27588D01*
X39510Y27590D01*
X39525Y27591D01*
X39604D01*
X39605D01*
X39608D01*
X39613D01*
X39619Y27590D01*
D02*
G37*
G36*
X39771Y27029D02*
X39778Y27028D01*
X39785Y27025D01*
X39792Y27021D01*
X39799Y27013D01*
X39803Y27004D01*
X39804Y26997D01*
X39805Y26990D01*
Y26668D01*
X39804Y26664D01*
X39802Y26657D01*
X39800Y26649D01*
X39795Y26642D01*
X39788Y26636D01*
X39778Y26631D01*
X39772Y26630D01*
X39765Y26629D01*
X39764D01*
X39763D01*
X39757Y26630D01*
X39751Y26632D01*
X39742Y26636D01*
X39270Y26930D01*
X39269Y26931D01*
X39264Y26934D01*
X39258Y26936D01*
X39250Y26940D01*
X39240Y26944D01*
X39229Y26946D01*
X39217Y26949D01*
X39204Y26950D01*
X39203D01*
X39202D01*
X39199D01*
X39196Y26949D01*
X39187Y26948D01*
X39175Y26945D01*
X39161Y26941D01*
X39147Y26934D01*
X39132Y26926D01*
X39119Y26914D01*
X39117Y26912D01*
X39113Y26908D01*
X39108Y26901D01*
X39101Y26890D01*
X39094Y26879D01*
X39089Y26864D01*
X39085Y26847D01*
X39083Y26830D01*
Y26826D01*
X39084Y26823D01*
X39085Y26818D01*
X39087Y26812D01*
X39088Y26805D01*
X39092Y26797D01*
X39096Y26789D01*
X39101Y26779D01*
X39108Y26770D01*
X39116Y26759D01*
X39126Y26748D01*
X39137Y26737D01*
X39151Y26726D01*
X39167Y26715D01*
X39185Y26704D01*
X39186Y26704D01*
X39188Y26703D01*
X39191Y26699D01*
X39194Y26696D01*
X39198Y26691D01*
X39201Y26685D01*
X39203Y26678D01*
X39204Y26670D01*
Y26668D01*
X39203Y26664D01*
X39202Y26657D01*
X39199Y26649D01*
X39194Y26642D01*
X39187Y26636D01*
X39177Y26631D01*
X39170Y26630D01*
X39164Y26629D01*
X39163D01*
X39162D01*
X39158Y26630D01*
X39153Y26631D01*
X39148Y26633D01*
X39147D01*
X39146Y26634D01*
X39142Y26637D01*
X39134Y26641D01*
X39125Y26647D01*
X39114Y26654D01*
X39102Y26663D01*
X39088Y26674D01*
X39075Y26686D01*
X39062Y26699D01*
X39049Y26714D01*
X39037Y26730D01*
X39026Y26748D01*
X39017Y26766D01*
X39009Y26786D01*
X39005Y26808D01*
X39003Y26819D01*
Y26838D01*
X39004Y26843D01*
X39005Y26851D01*
X39006Y26859D01*
X39008Y26868D01*
X39011Y26879D01*
X39013Y26889D01*
X39017Y26901D01*
X39022Y26912D01*
X39028Y26924D01*
X39035Y26936D01*
X39043Y26948D01*
X39052Y26960D01*
X39062Y26971D01*
X39063Y26972D01*
X39065Y26973D01*
X39068Y26976D01*
X39072Y26980D01*
X39078Y26984D01*
X39085Y26989D01*
X39093Y26995D01*
X39102Y27000D01*
X39111Y27006D01*
X39122Y27011D01*
X39134Y27017D01*
X39147Y27021D01*
X39159Y27025D01*
X39174Y27028D01*
X39188Y27029D01*
X39203Y27030D01*
X39204D01*
X39206D01*
X39209D01*
X39214Y27029D01*
X39219D01*
X39225Y27028D01*
X39231Y27027D01*
X39240Y27026D01*
X39257Y27022D01*
X39276Y27015D01*
X39297Y27006D01*
X39308Y27000D01*
X39319Y26994D01*
X39724Y26741D01*
Y26992D01*
X39725Y26996D01*
X39726Y27003D01*
X39730Y27011D01*
X39735Y27017D01*
X39741Y27024D01*
X39752Y27028D01*
X39758Y27030D01*
X39765D01*
X39767D01*
X39771Y27029D01*
D02*
G37*
G36*
Y26468D02*
X39778Y26468D01*
X39785Y26464D01*
X39792Y26460D01*
X39799Y26452D01*
X39803Y26443D01*
X39804Y26436D01*
X39805Y26430D01*
Y26261D01*
X39804Y26255D01*
X39803Y26249D01*
X39801Y26240D01*
X39800Y26231D01*
X39797Y26221D01*
X39795Y26210D01*
X39790Y26199D01*
X39786Y26187D01*
X39780Y26174D01*
X39774Y26162D01*
X39766Y26150D01*
X39757Y26139D01*
X39746Y26128D01*
X39746Y26127D01*
X39744Y26125D01*
X39741Y26122D01*
X39736Y26118D01*
X39730Y26114D01*
X39724Y26109D01*
X39716Y26104D01*
X39707Y26099D01*
X39697Y26093D01*
X39686Y26088D01*
X39675Y26083D01*
X39662Y26078D01*
X39648Y26074D01*
X39635Y26072D01*
X39620Y26070D01*
X39604Y26069D01*
X39203D01*
X39203D01*
X39200D01*
X39195D01*
X39190Y26070D01*
X39182Y26071D01*
X39174Y26073D01*
X39165Y26074D01*
X39154Y26077D01*
X39144Y26079D01*
X39132Y26084D01*
X39121Y26088D01*
X39109Y26094D01*
X39097Y26100D01*
X39085Y26108D01*
X39073Y26117D01*
X39062Y26128D01*
X39061Y26128D01*
X39060Y26130D01*
X39057Y26133D01*
X39053Y26138D01*
X39049Y26144D01*
X39044Y26150D01*
X39038Y26158D01*
X39033Y26167D01*
X39027Y26177D01*
X39022Y26188D01*
X39017Y26199D01*
X39012Y26212D01*
X39008Y26226D01*
X39006Y26239D01*
X39004Y26254D01*
X39003Y26270D01*
Y26431D01*
X39004Y26435D01*
X39005Y26442D01*
X39008Y26450D01*
X39013Y26457D01*
X39020Y26463D01*
X39030Y26468D01*
X39037Y26469D01*
X39044D01*
X39045D01*
X39050Y26468D01*
X39056Y26468D01*
X39063Y26464D01*
X39071Y26460D01*
X39077Y26452D01*
X39082Y26443D01*
X39083Y26436D01*
X39083Y26430D01*
Y26265D01*
X39084Y26261D01*
X39085Y26252D01*
X39088Y26240D01*
X39092Y26227D01*
X39099Y26212D01*
X39107Y26198D01*
X39119Y26184D01*
X39121Y26183D01*
X39125Y26179D01*
X39132Y26173D01*
X39143Y26167D01*
X39155Y26161D01*
X39170Y26155D01*
X39187Y26151D01*
X39204Y26150D01*
X39604D01*
X39605D01*
X39607D01*
X39609D01*
X39613Y26150D01*
X39622Y26151D01*
X39634Y26154D01*
X39648Y26158D01*
X39661Y26164D01*
X39676Y26172D01*
X39690Y26184D01*
X39692Y26186D01*
X39695Y26191D01*
X39701Y26198D01*
X39707Y26208D01*
X39713Y26221D01*
X39719Y26235D01*
X39723Y26252D01*
X39724Y26270D01*
Y26431D01*
X39725Y26435D01*
X39726Y26442D01*
X39730Y26450D01*
X39735Y26457D01*
X39741Y26463D01*
X39752Y26468D01*
X39758Y26469D01*
X39765D01*
X39767D01*
X39771Y26468D01*
D02*
G37*
G36*
X35931Y22061D02*
X35938Y22060D01*
X35945Y22056D01*
X35952Y22052D01*
X35959Y22045D01*
X35964Y22035D01*
X35965Y22029D01*
X35965Y22023D01*
Y22022D01*
Y22020D01*
X35965Y22017D01*
X35964Y22012D01*
X35894Y21700D01*
X35927D01*
X35932Y21699D01*
X35938Y21699D01*
X35945Y21695D01*
X35953Y21690D01*
X35960Y21683D01*
X35964Y21673D01*
X35965Y21666D01*
X35965Y21660D01*
Y21658D01*
X35965Y21654D01*
X35964Y21647D01*
X35960Y21640D01*
X35955Y21633D01*
X35949Y21626D01*
X35938Y21622D01*
X35932Y21621D01*
X35925Y21620D01*
X35877D01*
X35804Y21291D01*
Y21289D01*
X35802Y21286D01*
X35800Y21281D01*
X35796Y21276D01*
X35791Y21270D01*
X35784Y21265D01*
X35776Y21261D01*
X35766Y21260D01*
X35764D01*
X35760Y21260D01*
X35753Y21262D01*
X35746Y21265D01*
X35738Y21270D01*
X35732Y21277D01*
X35727Y21287D01*
X35726Y21293D01*
X35725Y21299D01*
Y21300D01*
Y21303D01*
Y21306D01*
X35726Y21309D01*
X35795Y21620D01*
X35763D01*
X35759Y21621D01*
X35752Y21622D01*
X35746Y21625D01*
X35738Y21630D01*
X35731Y21637D01*
X35727Y21647D01*
X35726Y21653D01*
X35725Y21660D01*
Y21661D01*
Y21661D01*
X35726Y21666D01*
X35728Y21672D01*
X35730Y21680D01*
X35735Y21688D01*
X35742Y21694D01*
X35752Y21699D01*
X35758Y21699D01*
X35765Y21700D01*
X35812D01*
X35875Y21981D01*
X35603D01*
X35598Y21982D01*
X35592Y21984D01*
X35585Y21986D01*
X35577Y21991D01*
X35570Y21998D01*
X35566Y22008D01*
X35565Y22014D01*
X35565Y22021D01*
Y22022D01*
Y22023D01*
X35565Y22028D01*
X35567Y22034D01*
X35570Y22041D01*
X35575Y22049D01*
X35581Y22056D01*
X35592Y22060D01*
X35598Y22061D01*
X35604Y22061D01*
X35927D01*
X35931Y22061D01*
D02*
G37*
G36*
X35218D02*
X35225Y22060D01*
X35234Y22058D01*
X35243Y22056D01*
X35253Y22054D01*
X35263Y22051D01*
X35275Y22047D01*
X35287Y22042D01*
X35299Y22037D01*
X35311Y22029D01*
X35323Y22022D01*
X35334Y22012D01*
X35345Y22002D01*
X35346Y22001D01*
X35348Y22000D01*
X35351Y21996D01*
X35355Y21992D01*
X35359Y21986D01*
X35364Y21979D01*
X35370Y21972D01*
X35375Y21962D01*
X35381Y21953D01*
X35386Y21942D01*
X35391Y21930D01*
X35395Y21918D01*
X35400Y21905D01*
X35402Y21891D01*
X35404Y21876D01*
X35405Y21861D01*
Y21860D01*
Y21858D01*
Y21855D01*
X35404Y21851D01*
Y21846D01*
X35403Y21840D01*
X35401Y21833D01*
X35400Y21825D01*
X35396Y21808D01*
X35389Y21788D01*
X35380Y21767D01*
X35375Y21756D01*
X35368Y21745D01*
X35115Y21340D01*
X35367D01*
X35371Y21339D01*
X35378Y21338D01*
X35385Y21335D01*
X35392Y21330D01*
X35399Y21323D01*
X35403Y21313D01*
X35405Y21306D01*
Y21299D01*
Y21298D01*
X35404Y21293D01*
X35403Y21287D01*
X35400Y21280D01*
X35395Y21272D01*
X35388Y21266D01*
X35378Y21261D01*
X35372Y21260D01*
X35365Y21260D01*
X35043D01*
X35038Y21260D01*
X35032Y21262D01*
X35024Y21265D01*
X35016Y21270D01*
X35011Y21277D01*
X35005Y21287D01*
X35005Y21293D01*
X35004Y21299D01*
Y21300D01*
Y21301D01*
X35005Y21307D01*
X35006Y21314D01*
X35011Y21322D01*
X35305Y21794D01*
X35306Y21796D01*
X35308Y21800D01*
X35311Y21806D01*
X35315Y21814D01*
X35318Y21825D01*
X35321Y21836D01*
X35324Y21847D01*
X35324Y21860D01*
Y21861D01*
Y21863D01*
Y21865D01*
X35324Y21869D01*
X35323Y21878D01*
X35320Y21890D01*
X35316Y21903D01*
X35309Y21918D01*
X35301Y21932D01*
X35289Y21946D01*
X35287Y21947D01*
X35283Y21952D01*
X35275Y21957D01*
X35265Y21963D01*
X35253Y21970D01*
X35239Y21975D01*
X35222Y21979D01*
X35204Y21981D01*
X35201D01*
X35197Y21980D01*
X35192Y21979D01*
X35186Y21978D01*
X35180Y21976D01*
X35172Y21973D01*
X35164Y21968D01*
X35153Y21963D01*
X35144Y21957D01*
X35133Y21948D01*
X35123Y21938D01*
X35112Y21927D01*
X35101Y21913D01*
X35090Y21897D01*
X35079Y21880D01*
X35078Y21879D01*
X35077Y21876D01*
X35074Y21874D01*
X35071Y21870D01*
X35066Y21866D01*
X35060Y21864D01*
X35053Y21861D01*
X35044Y21860D01*
X35043D01*
X35038Y21861D01*
X35032Y21863D01*
X35024Y21865D01*
X35016Y21870D01*
X35011Y21877D01*
X35005Y21887D01*
X35005Y21894D01*
X35004Y21901D01*
Y21902D01*
Y21902D01*
X35005Y21907D01*
X35005Y21912D01*
X35008Y21917D01*
Y21918D01*
X35009Y21919D01*
X35011Y21923D01*
X35016Y21930D01*
X35022Y21940D01*
X35029Y21951D01*
X35038Y21962D01*
X35049Y21976D01*
X35060Y21990D01*
X35074Y22002D01*
X35088Y22016D01*
X35104Y22028D01*
X35122Y22039D01*
X35141Y22048D01*
X35161Y22056D01*
X35182Y22060D01*
X35193Y22061D01*
X35213D01*
X35218Y22061D01*
D02*
G37*
G36*
X34810D02*
X34817Y22060D01*
X34824Y22056D01*
X34831Y22051D01*
X34838Y22045D01*
X34842Y22034D01*
X34844Y22028D01*
Y22021D01*
Y22019D01*
X34843Y22015D01*
X34842Y22008D01*
X34839Y22001D01*
X34835Y21994D01*
X34827Y21987D01*
X34818Y21983D01*
X34811Y21982D01*
X34804Y21981D01*
X34639D01*
X34636Y21980D01*
X34627Y21979D01*
X34615Y21977D01*
X34601Y21973D01*
X34587Y21966D01*
X34572Y21957D01*
X34559Y21946D01*
X34557Y21944D01*
X34554Y21940D01*
X34548Y21932D01*
X34542Y21922D01*
X34535Y21909D01*
X34529Y21895D01*
X34526Y21878D01*
X34524Y21860D01*
Y21460D01*
Y21459D01*
Y21458D01*
Y21455D01*
X34525Y21452D01*
X34526Y21442D01*
X34528Y21430D01*
X34533Y21417D01*
X34539Y21403D01*
X34547Y21388D01*
X34559Y21375D01*
X34561Y21373D01*
X34566Y21370D01*
X34572Y21364D01*
X34583Y21358D01*
X34595Y21351D01*
X34610Y21345D01*
X34627Y21342D01*
X34644Y21340D01*
X34806D01*
X34810Y21339D01*
X34817Y21338D01*
X34824Y21335D01*
X34831Y21330D01*
X34838Y21323D01*
X34842Y21313D01*
X34844Y21306D01*
Y21299D01*
Y21298D01*
X34843Y21293D01*
X34842Y21287D01*
X34839Y21280D01*
X34835Y21272D01*
X34827Y21266D01*
X34818Y21261D01*
X34811Y21260D01*
X34804Y21260D01*
X34636D01*
X34630Y21260D01*
X34623Y21261D01*
X34615Y21263D01*
X34605Y21265D01*
X34595Y21267D01*
X34584Y21270D01*
X34573Y21274D01*
X34561Y21278D01*
X34549Y21284D01*
X34537Y21291D01*
X34525Y21299D01*
X34513Y21308D01*
X34502Y21318D01*
X34501Y21319D01*
X34500Y21321D01*
X34497Y21324D01*
X34493Y21328D01*
X34489Y21334D01*
X34484Y21341D01*
X34479Y21348D01*
X34473Y21358D01*
X34468Y21368D01*
X34462Y21378D01*
X34457Y21390D01*
X34453Y21403D01*
X34449Y21416D01*
X34446Y21430D01*
X34445Y21445D01*
X34444Y21460D01*
Y21861D01*
Y21862D01*
Y21864D01*
Y21869D01*
X34445Y21875D01*
X34446Y21882D01*
X34447Y21891D01*
X34449Y21900D01*
X34451Y21910D01*
X34454Y21920D01*
X34458Y21932D01*
X34462Y21944D01*
X34468Y21956D01*
X34475Y21968D01*
X34483Y21979D01*
X34492Y21991D01*
X34502Y22002D01*
X34503Y22003D01*
X34505Y22005D01*
X34508Y22007D01*
X34512Y22012D01*
X34518Y22016D01*
X34525Y22021D01*
X34533Y22027D01*
X34542Y22032D01*
X34552Y22038D01*
X34562Y22043D01*
X34574Y22048D01*
X34587Y22052D01*
X34600Y22056D01*
X34614Y22059D01*
X34629Y22061D01*
X34644Y22061D01*
X34806D01*
X34810Y22061D01*
D02*
G37*
G36*
X41619Y27590D02*
X41627Y27589D01*
X41635Y27587D01*
X41644Y27586D01*
X41654Y27583D01*
X41665Y27581D01*
X41676Y27576D01*
X41688Y27571D01*
X41700Y27566D01*
X41712Y27559D01*
X41724Y27551D01*
X41736Y27542D01*
X41747Y27532D01*
X41748Y27531D01*
X41749Y27529D01*
X41752Y27526D01*
X41756Y27521D01*
X41760Y27516D01*
X41765Y27509D01*
X41770Y27501D01*
X41775Y27492D01*
X41781Y27483D01*
X41786Y27472D01*
X41791Y27460D01*
X41796Y27447D01*
X41800Y27434D01*
X41802Y27420D01*
X41804Y27406D01*
X41805Y27390D01*
Y27383D01*
X41804Y27377D01*
X41803Y27369D01*
X41802Y27361D01*
X41800Y27351D01*
X41797Y27341D01*
X41795Y27331D01*
X41791Y27319D01*
X41786Y27307D01*
X41780Y27296D01*
X41774Y27284D01*
X41766Y27272D01*
X41757Y27260D01*
X41747Y27249D01*
X41746Y27248D01*
X41744Y27247D01*
X41741Y27244D01*
X41736Y27240D01*
X41731Y27236D01*
X41724Y27230D01*
X41716Y27225D01*
X41707Y27220D01*
X41698Y27214D01*
X41687Y27209D01*
X41675Y27204D01*
X41662Y27200D01*
X41649Y27196D01*
X41635Y27193D01*
X41621Y27192D01*
X41605Y27191D01*
X41525D01*
X41524D01*
X41521D01*
X41516Y27192D01*
X41508Y27192D01*
X41500Y27193D01*
X41490Y27195D01*
X41479Y27198D01*
X41468Y27201D01*
X41455Y27205D01*
X41442Y27210D01*
X41429Y27217D01*
X41415Y27225D01*
X41402Y27234D01*
X41389Y27245D01*
X41377Y27257D01*
X41365Y27271D01*
X41364Y27270D01*
X41363Y27268D01*
X41359Y27263D01*
X41354Y27258D01*
X41348Y27252D01*
X41341Y27246D01*
X41332Y27238D01*
X41322Y27231D01*
X41311Y27224D01*
X41299Y27216D01*
X41286Y27209D01*
X41271Y27203D01*
X41256Y27198D01*
X41240Y27194D01*
X41223Y27192D01*
X41204Y27191D01*
X41204D01*
X41201D01*
X41196D01*
X41191Y27192D01*
X41183Y27192D01*
X41175Y27194D01*
X41166Y27196D01*
X41155Y27198D01*
X41145Y27201D01*
X41133Y27205D01*
X41122Y27209D01*
X41110Y27215D01*
X41098Y27222D01*
X41086Y27230D01*
X41074Y27239D01*
X41063Y27249D01*
X41062Y27250D01*
X41061Y27252D01*
X41058Y27255D01*
X41054Y27259D01*
X41050Y27265D01*
X41045Y27272D01*
X41039Y27280D01*
X41034Y27289D01*
X41028Y27298D01*
X41023Y27309D01*
X41018Y27321D01*
X41013Y27334D01*
X41009Y27346D01*
X41007Y27361D01*
X41005Y27375D01*
X41004Y27390D01*
Y27399D01*
X41005Y27404D01*
X41006Y27412D01*
X41007Y27420D01*
X41009Y27429D01*
X41012Y27439D01*
X41014Y27450D01*
X41018Y27461D01*
X41023Y27473D01*
X41029Y27485D01*
X41036Y27497D01*
X41044Y27509D01*
X41053Y27521D01*
X41063Y27532D01*
X41064Y27532D01*
X41066Y27534D01*
X41069Y27537D01*
X41073Y27541D01*
X41079Y27545D01*
X41086Y27550D01*
X41094Y27556D01*
X41103Y27561D01*
X41112Y27567D01*
X41123Y27572D01*
X41135Y27577D01*
X41148Y27582D01*
X41160Y27586D01*
X41175Y27588D01*
X41189Y27590D01*
X41204Y27591D01*
X41205D01*
X41209D01*
X41214Y27590D01*
X41221D01*
X41230Y27588D01*
X41239Y27587D01*
X41250Y27584D01*
X41262Y27581D01*
X41275Y27576D01*
X41287Y27571D01*
X41301Y27565D01*
X41314Y27557D01*
X41328Y27548D01*
X41341Y27537D01*
X41353Y27525D01*
X41365Y27510D01*
X41366Y27511D01*
X41367Y27513D01*
X41369Y27516D01*
X41373Y27520D01*
X41377Y27524D01*
X41382Y27529D01*
X41395Y27541D01*
X41410Y27554D01*
X41429Y27565D01*
X41450Y27576D01*
X41461Y27580D01*
X41473Y27583D01*
X41474D01*
X41476Y27584D01*
X41479D01*
X41483Y27585D01*
X41488Y27586D01*
X41494Y27587D01*
X41501Y27587D01*
X41510D01*
X41519Y27588D01*
X41530Y27589D01*
X41542Y27590D01*
X41555D01*
X41571Y27591D01*
X41588D01*
X41605D01*
X41606D01*
X41609D01*
X41613D01*
X41619Y27590D01*
D02*
G37*
G36*
X41771Y27029D02*
X41778Y27028D01*
X41785Y27025D01*
X41792Y27021D01*
X41799Y27013D01*
X41803Y27004D01*
X41804Y26997D01*
X41805Y26990D01*
Y26668D01*
X41804Y26664D01*
X41802Y26657D01*
X41800Y26649D01*
X41795Y26642D01*
X41788Y26636D01*
X41778Y26631D01*
X41772Y26630D01*
X41765Y26629D01*
X41764D01*
X41764D01*
X41758Y26630D01*
X41751Y26632D01*
X41742Y26636D01*
X41270Y26930D01*
X41269Y26931D01*
X41265Y26934D01*
X41259Y26936D01*
X41250Y26940D01*
X41240Y26944D01*
X41229Y26946D01*
X41217Y26949D01*
X41204Y26950D01*
X41204D01*
X41202D01*
X41199D01*
X41196Y26949D01*
X41187Y26948D01*
X41175Y26945D01*
X41161Y26941D01*
X41147Y26934D01*
X41133Y26926D01*
X41119Y26914D01*
X41117Y26912D01*
X41113Y26908D01*
X41108Y26901D01*
X41101Y26890D01*
X41095Y26879D01*
X41089Y26864D01*
X41085Y26847D01*
X41084Y26830D01*
Y26826D01*
X41084Y26823D01*
X41085Y26818D01*
X41087Y26812D01*
X41089Y26805D01*
X41092Y26797D01*
X41096Y26789D01*
X41101Y26779D01*
X41108Y26770D01*
X41117Y26759D01*
X41127Y26748D01*
X41138Y26737D01*
X41151Y26726D01*
X41167Y26715D01*
X41185Y26704D01*
X41186Y26704D01*
X41188Y26703D01*
X41191Y26699D01*
X41194Y26696D01*
X41199Y26691D01*
X41201Y26685D01*
X41204Y26678D01*
X41204Y26670D01*
Y26668D01*
X41204Y26664D01*
X41202Y26657D01*
X41199Y26649D01*
X41194Y26642D01*
X41188Y26636D01*
X41177Y26631D01*
X41171Y26630D01*
X41164Y26629D01*
X41163D01*
X41162D01*
X41158Y26630D01*
X41153Y26631D01*
X41148Y26633D01*
X41147D01*
X41146Y26634D01*
X41142Y26637D01*
X41134Y26641D01*
X41125Y26647D01*
X41114Y26654D01*
X41102Y26663D01*
X41089Y26674D01*
X41075Y26686D01*
X41062Y26699D01*
X41049Y26714D01*
X41037Y26730D01*
X41026Y26748D01*
X41017Y26766D01*
X41009Y26786D01*
X41005Y26808D01*
X41003Y26819D01*
Y26838D01*
X41004Y26843D01*
X41005Y26851D01*
X41007Y26859D01*
X41008Y26868D01*
X41011Y26879D01*
X41013Y26889D01*
X41018Y26901D01*
X41023Y26912D01*
X41028Y26924D01*
X41035Y26936D01*
X41043Y26948D01*
X41052Y26960D01*
X41062Y26971D01*
X41063Y26972D01*
X41065Y26973D01*
X41068Y26976D01*
X41073Y26980D01*
X41078Y26984D01*
X41085Y26989D01*
X41093Y26995D01*
X41102Y27000D01*
X41111Y27006D01*
X41122Y27011D01*
X41134Y27017D01*
X41147Y27021D01*
X41160Y27025D01*
X41174Y27028D01*
X41188Y27029D01*
X41204Y27030D01*
X41204D01*
X41206D01*
X41210D01*
X41214Y27029D01*
X41219D01*
X41225Y27028D01*
X41232Y27027D01*
X41240Y27026D01*
X41257Y27022D01*
X41276Y27015D01*
X41298Y27006D01*
X41309Y27000D01*
X41320Y26994D01*
X41725Y26741D01*
Y26992D01*
X41725Y26996D01*
X41726Y27003D01*
X41730Y27011D01*
X41735Y27017D01*
X41742Y27024D01*
X41752Y27028D01*
X41758Y27030D01*
X41765D01*
X41767D01*
X41771Y27029D01*
D02*
G37*
G36*
Y26468D02*
X41778Y26468D01*
X41785Y26464D01*
X41792Y26460D01*
X41799Y26452D01*
X41803Y26443D01*
X41804Y26436D01*
X41805Y26430D01*
Y26261D01*
X41804Y26255D01*
X41803Y26249D01*
X41802Y26240D01*
X41800Y26231D01*
X41797Y26221D01*
X41795Y26210D01*
X41791Y26199D01*
X41786Y26187D01*
X41780Y26174D01*
X41774Y26162D01*
X41766Y26150D01*
X41757Y26139D01*
X41747Y26128D01*
X41746Y26127D01*
X41744Y26125D01*
X41741Y26122D01*
X41736Y26118D01*
X41731Y26114D01*
X41724Y26109D01*
X41716Y26104D01*
X41707Y26099D01*
X41697Y26093D01*
X41687Y26088D01*
X41675Y26083D01*
X41662Y26078D01*
X41649Y26074D01*
X41635Y26072D01*
X41620Y26070D01*
X41605Y26069D01*
X41204D01*
X41203D01*
X41200D01*
X41195D01*
X41190Y26070D01*
X41182Y26071D01*
X41174Y26073D01*
X41165Y26074D01*
X41155Y26077D01*
X41144Y26079D01*
X41133Y26084D01*
X41121Y26088D01*
X41109Y26094D01*
X41097Y26100D01*
X41085Y26108D01*
X41073Y26117D01*
X41062Y26128D01*
X41062Y26128D01*
X41060Y26130D01*
X41057Y26133D01*
X41053Y26138D01*
X41049Y26144D01*
X41044Y26150D01*
X41038Y26158D01*
X41033Y26167D01*
X41027Y26177D01*
X41022Y26188D01*
X41017Y26199D01*
X41012Y26212D01*
X41008Y26226D01*
X41006Y26239D01*
X41004Y26254D01*
X41003Y26270D01*
Y26431D01*
X41004Y26435D01*
X41005Y26442D01*
X41008Y26450D01*
X41013Y26457D01*
X41020Y26463D01*
X41030Y26468D01*
X41037Y26469D01*
X41044D01*
X41045D01*
X41050Y26468D01*
X41056Y26468D01*
X41063Y26464D01*
X41071Y26460D01*
X41078Y26452D01*
X41082Y26443D01*
X41083Y26436D01*
X41084Y26430D01*
Y26265D01*
X41084Y26261D01*
X41085Y26252D01*
X41088Y26240D01*
X41092Y26227D01*
X41099Y26212D01*
X41107Y26198D01*
X41119Y26184D01*
X41121Y26183D01*
X41125Y26179D01*
X41133Y26173D01*
X41143Y26167D01*
X41155Y26161D01*
X41170Y26155D01*
X41187Y26151D01*
X41204Y26150D01*
X41605D01*
X41605D01*
X41607D01*
X41610D01*
X41613Y26150D01*
X41622Y26151D01*
X41634Y26154D01*
X41648Y26158D01*
X41661Y26164D01*
X41676Y26172D01*
X41690Y26184D01*
X41692Y26186D01*
X41695Y26191D01*
X41701Y26198D01*
X41707Y26208D01*
X41714Y26221D01*
X41720Y26235D01*
X41723Y26252D01*
X41725Y26270D01*
Y26431D01*
X41725Y26435D01*
X41726Y26442D01*
X41730Y26450D01*
X41735Y26457D01*
X41742Y26463D01*
X41752Y26468D01*
X41758Y26469D01*
X41765D01*
X41767D01*
X41771Y26468D01*
D02*
G37*
G36*
X32121Y25669D02*
X32128Y25668D01*
X32136Y25667D01*
X32146Y25665D01*
X32156Y25662D01*
X32167Y25660D01*
X32178Y25656D01*
X32189Y25651D01*
X32202Y25646D01*
X32214Y25639D01*
X32226Y25631D01*
X32238Y25622D01*
X32249Y25612D01*
X32250Y25611D01*
X32251Y25609D01*
X32254Y25606D01*
X32258Y25602D01*
X32262Y25596D01*
X32267Y25589D01*
X32272Y25581D01*
X32278Y25572D01*
X32283Y25563D01*
X32288Y25552D01*
X32294Y25540D01*
X32298Y25527D01*
X32302Y25514D01*
X32305Y25500D01*
X32306Y25486D01*
X32307Y25470D01*
Y25229D01*
Y25229D01*
Y25227D01*
Y25224D01*
Y25220D01*
X32306Y25216D01*
Y25210D01*
X32305Y25203D01*
X32305Y25196D01*
X32301Y25179D01*
X32297Y25158D01*
X32291Y25136D01*
X32283Y25113D01*
X32273Y25087D01*
X32261Y25061D01*
X32245Y25034D01*
X32227Y25008D01*
X32217Y24994D01*
X32205Y24981D01*
X32193Y24968D01*
X32179Y24955D01*
X32166Y24943D01*
X32151Y24930D01*
X32134Y24918D01*
X32117Y24907D01*
X32116D01*
X32114Y24905D01*
X32111Y24904D01*
X32107Y24901D01*
X32102Y24899D01*
X32096Y24895D01*
X32083Y24889D01*
X32069Y24881D01*
X32053Y24875D01*
X32039Y24871D01*
X32033Y24870D01*
X32027Y24869D01*
X32025D01*
X32021Y24870D01*
X32018Y24871D01*
X32008Y24874D01*
X32003Y24877D01*
X31999Y24881D01*
X31998Y24882D01*
X31997Y24883D01*
X31996Y24885D01*
X31993Y24889D01*
X31989Y24898D01*
X31988Y24903D01*
X31987Y24909D01*
Y24910D01*
Y24913D01*
X31988Y24918D01*
X31990Y24924D01*
X31992Y24930D01*
X31996Y24935D01*
X32000Y24940D01*
X32007Y24944D01*
X32008D01*
X32008Y24944D01*
X32014Y24946D01*
X32022Y24949D01*
X32032Y24953D01*
X32043Y24958D01*
X32056Y24964D01*
X32068Y24970D01*
X32080Y24976D01*
X32081Y24977D01*
X32085Y24981D01*
X32091Y24985D01*
X32100Y24992D01*
X32110Y25000D01*
X32121Y25009D01*
X32133Y25021D01*
X32146Y25035D01*
X32158Y25049D01*
X32171Y25065D01*
X32184Y25083D01*
X32195Y25102D01*
X32205Y25122D01*
X32213Y25143D01*
X32219Y25166D01*
X32223Y25190D01*
X32098D01*
X32092Y25190D01*
X32085Y25191D01*
X32077Y25193D01*
X32068Y25195D01*
X32058Y25197D01*
X32047Y25200D01*
X32036Y25204D01*
X32024Y25208D01*
X32012Y25214D01*
X32000Y25221D01*
X31988Y25229D01*
X31976Y25238D01*
X31965Y25248D01*
X31964Y25249D01*
X31963Y25251D01*
X31960Y25254D01*
X31956Y25258D01*
X31952Y25264D01*
X31947Y25271D01*
X31942Y25278D01*
X31937Y25288D01*
X31931Y25297D01*
X31926Y25308D01*
X31921Y25320D01*
X31916Y25333D01*
X31912Y25345D01*
X31910Y25360D01*
X31908Y25374D01*
X31907Y25389D01*
Y25470D01*
Y25470D01*
Y25473D01*
Y25478D01*
X31908Y25483D01*
X31909Y25491D01*
X31910Y25499D01*
X31912Y25509D01*
X31915Y25519D01*
X31917Y25529D01*
X31921Y25541D01*
X31926Y25552D01*
X31932Y25564D01*
X31938Y25576D01*
X31946Y25588D01*
X31955Y25600D01*
X31965Y25611D01*
X31966Y25612D01*
X31968Y25613D01*
X31971Y25616D01*
X31975Y25620D01*
X31981Y25624D01*
X31988Y25629D01*
X31996Y25635D01*
X32005Y25640D01*
X32014Y25646D01*
X32025Y25651D01*
X32037Y25657D01*
X32050Y25661D01*
X32063Y25665D01*
X32077Y25668D01*
X32091Y25669D01*
X32107Y25670D01*
X32115D01*
X32121Y25669D01*
D02*
G37*
G36*
X31559Y25670D02*
X31567Y25669D01*
X31575Y25668D01*
X31585Y25666D01*
X31595Y25663D01*
X31605Y25661D01*
X31617Y25657D01*
X31629Y25651D01*
X31641Y25646D01*
X31652Y25639D01*
X31664Y25631D01*
X31676Y25622D01*
X31687Y25612D01*
X31688Y25611D01*
X31690Y25609D01*
X31692Y25606D01*
X31696Y25602D01*
X31701Y25596D01*
X31706Y25589D01*
X31712Y25581D01*
X31717Y25572D01*
X31723Y25563D01*
X31728Y25552D01*
X31733Y25540D01*
X31737Y25527D01*
X31741Y25514D01*
X31744Y25500D01*
X31745Y25486D01*
X31746Y25470D01*
Y25470D01*
Y25468D01*
Y25465D01*
X31745Y25460D01*
Y25455D01*
X31745Y25449D01*
X31743Y25443D01*
X31742Y25434D01*
X31738Y25417D01*
X31731Y25398D01*
X31722Y25377D01*
X31717Y25366D01*
X31710Y25355D01*
X31457Y24949D01*
X31708D01*
X31712Y24949D01*
X31719Y24948D01*
X31727Y24944D01*
X31734Y24939D01*
X31740Y24933D01*
X31745Y24922D01*
X31746Y24916D01*
Y24909D01*
Y24907D01*
X31745Y24903D01*
X31745Y24896D01*
X31741Y24889D01*
X31737Y24882D01*
X31729Y24875D01*
X31720Y24871D01*
X31713Y24870D01*
X31707Y24869D01*
X31384D01*
X31380Y24870D01*
X31373Y24872D01*
X31366Y24874D01*
X31358Y24879D01*
X31352Y24886D01*
X31347Y24896D01*
X31346Y24902D01*
X31345Y24909D01*
Y24910D01*
Y24911D01*
X31346Y24916D01*
X31348Y24923D01*
X31352Y24932D01*
X31646Y25404D01*
X31647Y25405D01*
X31650Y25410D01*
X31652Y25415D01*
X31657Y25424D01*
X31660Y25434D01*
X31663Y25445D01*
X31665Y25457D01*
X31666Y25470D01*
Y25470D01*
Y25472D01*
Y25475D01*
X31665Y25478D01*
X31664Y25487D01*
X31662Y25499D01*
X31657Y25513D01*
X31651Y25527D01*
X31642Y25542D01*
X31630Y25555D01*
X31629Y25557D01*
X31624Y25561D01*
X31617Y25566D01*
X31607Y25573D01*
X31595Y25580D01*
X31580Y25585D01*
X31564Y25589D01*
X31546Y25591D01*
X31542D01*
X31539Y25590D01*
X31534Y25589D01*
X31528Y25587D01*
X31521Y25585D01*
X31514Y25582D01*
X31505Y25578D01*
X31495Y25573D01*
X31486Y25566D01*
X31475Y25558D01*
X31465Y25547D01*
X31454Y25536D01*
X31443Y25523D01*
X31432Y25507D01*
X31421Y25489D01*
X31420Y25488D01*
X31419Y25486D01*
X31416Y25483D01*
X31412Y25480D01*
X31407Y25476D01*
X31401Y25473D01*
X31394Y25470D01*
X31386Y25470D01*
X31384D01*
X31380Y25470D01*
X31373Y25472D01*
X31366Y25475D01*
X31358Y25480D01*
X31352Y25487D01*
X31347Y25497D01*
X31346Y25503D01*
X31345Y25510D01*
Y25511D01*
Y25512D01*
X31346Y25516D01*
X31347Y25521D01*
X31350Y25526D01*
Y25527D01*
X31350Y25528D01*
X31353Y25532D01*
X31357Y25540D01*
X31363Y25549D01*
X31371Y25560D01*
X31379Y25572D01*
X31390Y25585D01*
X31402Y25599D01*
X31416Y25612D01*
X31430Y25625D01*
X31446Y25637D01*
X31464Y25648D01*
X31482Y25657D01*
X31503Y25665D01*
X31524Y25669D01*
X31535Y25671D01*
X31554D01*
X31559Y25670D01*
D02*
G37*
G36*
X31152D02*
X31158Y25669D01*
X31166Y25666D01*
X31173Y25661D01*
X31180Y25654D01*
X31184Y25644D01*
X31185Y25637D01*
Y25630D01*
Y25629D01*
X31185Y25624D01*
X31184Y25618D01*
X31180Y25611D01*
X31176Y25603D01*
X31169Y25596D01*
X31159Y25592D01*
X31153Y25591D01*
X31146Y25591D01*
X30981D01*
X30977Y25590D01*
X30968Y25589D01*
X30956Y25586D01*
X30943Y25582D01*
X30928Y25575D01*
X30914Y25567D01*
X30900Y25555D01*
X30899Y25553D01*
X30895Y25549D01*
X30889Y25542D01*
X30884Y25531D01*
X30877Y25519D01*
X30871Y25504D01*
X30867Y25487D01*
X30866Y25470D01*
Y25070D01*
Y25069D01*
Y25067D01*
Y25064D01*
X30867Y25061D01*
X30867Y25052D01*
X30870Y25040D01*
X30874Y25026D01*
X30880Y25013D01*
X30889Y24998D01*
X30900Y24984D01*
X30902Y24982D01*
X30907Y24979D01*
X30914Y24973D01*
X30924Y24967D01*
X30937Y24960D01*
X30951Y24955D01*
X30968Y24951D01*
X30986Y24949D01*
X31147D01*
X31152Y24949D01*
X31158Y24948D01*
X31166Y24944D01*
X31173Y24939D01*
X31180Y24933D01*
X31184Y24922D01*
X31185Y24916D01*
Y24909D01*
Y24907D01*
X31185Y24903D01*
X31184Y24896D01*
X31180Y24889D01*
X31176Y24882D01*
X31169Y24875D01*
X31159Y24871D01*
X31153Y24870D01*
X31146Y24869D01*
X30977D01*
X30972Y24870D01*
X30965Y24871D01*
X30956Y24872D01*
X30947Y24874D01*
X30937Y24877D01*
X30926Y24879D01*
X30915Y24883D01*
X30903Y24888D01*
X30890Y24894D01*
X30878Y24900D01*
X30867Y24908D01*
X30855Y24917D01*
X30844Y24927D01*
X30843Y24928D01*
X30841Y24930D01*
X30839Y24933D01*
X30834Y24938D01*
X30830Y24944D01*
X30825Y24950D01*
X30820Y24958D01*
X30815Y24967D01*
X30809Y24977D01*
X30804Y24987D01*
X30799Y24999D01*
X30795Y25012D01*
X30790Y25026D01*
X30788Y25039D01*
X30786Y25054D01*
X30785Y25070D01*
Y25470D01*
Y25471D01*
Y25474D01*
Y25479D01*
X30786Y25484D01*
X30787Y25492D01*
X30789Y25500D01*
X30790Y25509D01*
X30793Y25520D01*
X30796Y25530D01*
X30800Y25542D01*
X30804Y25553D01*
X30810Y25565D01*
X30817Y25577D01*
X30824Y25589D01*
X30834Y25601D01*
X30844Y25612D01*
X30845Y25613D01*
X30846Y25614D01*
X30850Y25617D01*
X30854Y25621D01*
X30860Y25625D01*
X30867Y25630D01*
X30874Y25636D01*
X30884Y25641D01*
X30894Y25647D01*
X30904Y25652D01*
X30916Y25657D01*
X30928Y25662D01*
X30942Y25666D01*
X30955Y25668D01*
X30971Y25670D01*
X30986Y25671D01*
X31147D01*
X31152Y25670D01*
D02*
G37*
G36*
X38312Y34400D02*
X38319Y34398D01*
X38328Y34397D01*
X38339Y34392D01*
X38351Y34388D01*
X38364Y34381D01*
X38377Y34374D01*
X38391Y34364D01*
X38405Y34351D01*
X38418Y34337D01*
X38431Y34319D01*
X38443Y34299D01*
X38455Y34275D01*
X38460Y34261D01*
X38465Y34248D01*
X38466Y34247D01*
X38467Y34243D01*
X38469Y34237D01*
X38471Y34229D01*
X38474Y34219D01*
X38476Y34207D01*
X38480Y34193D01*
X38483Y34178D01*
X38487Y34160D01*
X38490Y34141D01*
X38493Y34121D01*
X38495Y34099D01*
X38498Y34076D01*
X38499Y34052D01*
X38501Y34026D01*
Y34000D01*
Y33998D01*
Y33993D01*
Y33986D01*
X38500Y33976D01*
Y33964D01*
X38499Y33949D01*
X38498Y33933D01*
X38497Y33915D01*
X38495Y33896D01*
X38493Y33877D01*
X38486Y33834D01*
X38477Y33792D01*
X38471Y33772D01*
X38465Y33751D01*
X38465Y33750D01*
X38463Y33745D01*
X38460Y33737D01*
X38455Y33728D01*
X38450Y33716D01*
X38443Y33703D01*
X38435Y33690D01*
X38426Y33675D01*
X38415Y33661D01*
X38403Y33647D01*
X38389Y33635D01*
X38374Y33623D01*
X38358Y33613D01*
X38340Y33606D01*
X38321Y33601D01*
X38311Y33600D01*
X38301Y33599D01*
X38295D01*
X38290Y33600D01*
X38282Y33602D01*
X38273Y33604D01*
X38262Y33608D01*
X38250Y33612D01*
X38237Y33619D01*
X38224Y33626D01*
X38211Y33636D01*
X38196Y33649D01*
X38183Y33663D01*
X38170Y33681D01*
X38158Y33701D01*
X38146Y33724D01*
X38141Y33738D01*
X38136Y33751D01*
Y33752D01*
X38134Y33756D01*
X38132Y33762D01*
X38131Y33770D01*
X38128Y33780D01*
X38125Y33792D01*
X38121Y33805D01*
X38119Y33822D01*
X38115Y33838D01*
X38112Y33858D01*
X38109Y33878D01*
X38106Y33900D01*
X38104Y33923D01*
X38103Y33948D01*
X38101Y33974D01*
Y34000D01*
Y34002D01*
Y34007D01*
Y34014D01*
X38102Y34025D01*
Y34036D01*
X38103Y34051D01*
X38103Y34067D01*
X38105Y34085D01*
X38107Y34104D01*
X38109Y34123D01*
X38115Y34165D01*
X38124Y34207D01*
X38130Y34228D01*
X38136Y34248D01*
Y34249D01*
X38136Y34250D01*
X38138Y34255D01*
X38142Y34262D01*
X38146Y34272D01*
X38151Y34283D01*
X38158Y34296D01*
X38166Y34310D01*
X38175Y34325D01*
X38186Y34338D01*
X38198Y34353D01*
X38212Y34365D01*
X38227Y34377D01*
X38243Y34387D01*
X38261Y34394D01*
X38280Y34399D01*
X38290Y34401D01*
X38306D01*
X38312Y34400D01*
D02*
G37*
G36*
X37753D02*
X37761Y34399D01*
X37769Y34398D01*
X37779Y34396D01*
X37789Y34393D01*
X37799Y34391D01*
X37811Y34387D01*
X37823Y34381D01*
X37834Y34376D01*
X37846Y34369D01*
X37858Y34361D01*
X37870Y34352D01*
X37881Y34342D01*
X37882Y34341D01*
X37884Y34339D01*
X37886Y34336D01*
X37890Y34332D01*
X37895Y34326D01*
X37900Y34319D01*
X37906Y34311D01*
X37911Y34302D01*
X37917Y34293D01*
X37922Y34282D01*
X37927Y34270D01*
X37931Y34257D01*
X37935Y34244D01*
X37938Y34230D01*
X37939Y34216D01*
X37940Y34200D01*
Y34200D01*
Y34198D01*
Y34195D01*
X37939Y34190D01*
Y34185D01*
X37939Y34179D01*
X37937Y34173D01*
X37936Y34164D01*
X37932Y34147D01*
X37925Y34128D01*
X37916Y34107D01*
X37911Y34096D01*
X37904Y34085D01*
X37651Y33679D01*
X37902D01*
X37906Y33679D01*
X37913Y33678D01*
X37921Y33674D01*
X37928Y33669D01*
X37934Y33663D01*
X37939Y33652D01*
X37940Y33646D01*
Y33639D01*
Y33637D01*
X37939Y33633D01*
X37939Y33626D01*
X37935Y33619D01*
X37931Y33612D01*
X37923Y33605D01*
X37914Y33601D01*
X37907Y33600D01*
X37900Y33599D01*
X37578D01*
X37574Y33600D01*
X37567Y33602D01*
X37560Y33604D01*
X37552Y33609D01*
X37546Y33616D01*
X37541Y33626D01*
X37540Y33632D01*
X37539Y33639D01*
Y33640D01*
Y33641D01*
X37540Y33646D01*
X37542Y33653D01*
X37546Y33662D01*
X37840Y34134D01*
X37841Y34135D01*
X37844Y34140D01*
X37846Y34145D01*
X37851Y34154D01*
X37854Y34164D01*
X37856Y34175D01*
X37859Y34187D01*
X37860Y34200D01*
Y34200D01*
Y34202D01*
Y34205D01*
X37859Y34208D01*
X37858Y34217D01*
X37856Y34229D01*
X37851Y34243D01*
X37845Y34257D01*
X37836Y34272D01*
X37824Y34285D01*
X37823Y34287D01*
X37818Y34291D01*
X37811Y34296D01*
X37801Y34303D01*
X37789Y34310D01*
X37774Y34315D01*
X37758Y34319D01*
X37740Y34321D01*
X37736D01*
X37733Y34320D01*
X37728Y34319D01*
X37722Y34317D01*
X37715Y34315D01*
X37708Y34312D01*
X37699Y34308D01*
X37689Y34303D01*
X37680Y34296D01*
X37669Y34288D01*
X37659Y34277D01*
X37648Y34266D01*
X37637Y34253D01*
X37626Y34237D01*
X37615Y34219D01*
X37614Y34218D01*
X37613Y34216D01*
X37610Y34213D01*
X37606Y34210D01*
X37601Y34206D01*
X37595Y34203D01*
X37588Y34200D01*
X37580Y34200D01*
X37578D01*
X37574Y34200D01*
X37567Y34202D01*
X37560Y34205D01*
X37552Y34210D01*
X37546Y34217D01*
X37541Y34227D01*
X37540Y34233D01*
X37539Y34240D01*
Y34241D01*
Y34242D01*
X37540Y34246D01*
X37541Y34251D01*
X37544Y34256D01*
Y34257D01*
X37544Y34258D01*
X37547Y34262D01*
X37551Y34270D01*
X37557Y34279D01*
X37565Y34290D01*
X37573Y34302D01*
X37584Y34315D01*
X37596Y34329D01*
X37610Y34342D01*
X37624Y34355D01*
X37640Y34367D01*
X37658Y34378D01*
X37676Y34387D01*
X37697Y34395D01*
X37718Y34399D01*
X37729Y34401D01*
X37748D01*
X37753Y34400D01*
D02*
G37*
G36*
X37149D02*
X37156D01*
X37165Y34398D01*
X37175Y34398D01*
X37186Y34395D01*
X37198Y34392D01*
X37211Y34388D01*
X37225Y34384D01*
X37239Y34378D01*
X37253Y34371D01*
X37268Y34364D01*
X37282Y34354D01*
X37296Y34343D01*
X37309Y34331D01*
X37310Y34330D01*
X37313Y34327D01*
X37316Y34324D01*
X37320Y34318D01*
X37325Y34311D01*
X37331Y34303D01*
X37338Y34293D01*
X37345Y34283D01*
X37351Y34272D01*
X37357Y34258D01*
X37363Y34244D01*
X37368Y34229D01*
X37373Y34213D01*
X37376Y34196D01*
X37379Y34178D01*
X37379Y34160D01*
Y34159D01*
Y34158D01*
Y34156D01*
Y34152D01*
X37379Y34144D01*
X37377Y34133D01*
X37375Y34119D01*
X37372Y34104D01*
X37368Y34088D01*
X37362Y34070D01*
X37353Y34052D01*
X37344Y34032D01*
X37332Y34014D01*
X37318Y33996D01*
X37302Y33979D01*
X37282Y33963D01*
X37259Y33948D01*
X37247Y33942D01*
X37234Y33937D01*
X37374Y33657D01*
X37375Y33655D01*
X37377Y33651D01*
X37379Y33646D01*
X37379Y33639D01*
Y33638D01*
Y33636D01*
X37379Y33633D01*
X37378Y33630D01*
X37376Y33625D01*
X37374Y33620D01*
X37371Y33615D01*
X37367Y33611D01*
X37366Y33610D01*
X37365Y33609D01*
X37363Y33608D01*
X37359Y33605D01*
X37350Y33601D01*
X37345Y33600D01*
X37339Y33599D01*
X37335D01*
X37330Y33600D01*
X37324Y33602D01*
X37319Y33604D01*
X37313Y33608D01*
X37308Y33613D01*
X37302Y33621D01*
X37154Y33920D01*
X36979D01*
Y33639D01*
Y33637D01*
X36979Y33633D01*
X36978Y33626D01*
X36974Y33619D01*
X36969Y33612D01*
X36962Y33605D01*
X36952Y33601D01*
X36946Y33600D01*
X36939Y33599D01*
X36937D01*
X36933Y33600D01*
X36926Y33602D01*
X36919Y33604D01*
X36912Y33609D01*
X36905Y33616D01*
X36901Y33626D01*
X36900Y33632D01*
X36899Y33639D01*
Y34360D01*
Y34361D01*
Y34362D01*
X36900Y34367D01*
X36902Y34373D01*
X36904Y34381D01*
X36909Y34388D01*
X36916Y34395D01*
X36926Y34399D01*
X36932Y34400D01*
X36939Y34401D01*
X37143D01*
X37149Y34400D01*
D02*
G37*
G36*
X32196Y34469D02*
X32202Y34468D01*
X32209Y34465D01*
X32217Y34460D01*
X32224Y34453D01*
X32228Y34443D01*
X32229Y34436D01*
X32229Y34429D01*
Y33709D01*
Y33707D01*
X32229Y33703D01*
X32228Y33696D01*
X32224Y33689D01*
X32219Y33682D01*
X32213Y33675D01*
X32202Y33671D01*
X32196Y33670D01*
X32189Y33669D01*
X32187D01*
X32183Y33670D01*
X32176Y33672D01*
X32169Y33674D01*
X32162Y33679D01*
X32155Y33686D01*
X32151Y33696D01*
X32150Y33702D01*
X32149Y33709D01*
Y34333D01*
X32056Y34241D01*
X32055Y34240D01*
X32054Y34239D01*
X32052Y34237D01*
X32048Y34235D01*
X32040Y34231D01*
X32034Y34230D01*
X32028Y34229D01*
X32026D01*
X32022Y34230D01*
X32015Y34232D01*
X32009Y34234D01*
X32001Y34239D01*
X31994Y34246D01*
X31990Y34256D01*
X31989Y34263D01*
X31988Y34270D01*
Y34270D01*
Y34272D01*
X31989Y34276D01*
X31990Y34279D01*
X31993Y34288D01*
X31996Y34293D01*
X32000Y34298D01*
X32157Y34454D01*
X32158Y34455D01*
X32159Y34457D01*
X32163Y34459D01*
X32167Y34462D01*
X32177Y34468D01*
X32183Y34469D01*
X32189Y34470D01*
X32191D01*
X32196Y34469D01*
D02*
G37*
G36*
X31642Y34470D02*
X31649Y34469D01*
X31658Y34468D01*
X31667Y34466D01*
X31677Y34463D01*
X31687Y34461D01*
X31699Y34457D01*
X31711Y34451D01*
X31723Y34446D01*
X31735Y34439D01*
X31746Y34431D01*
X31758Y34422D01*
X31769Y34412D01*
X31770Y34411D01*
X31772Y34409D01*
X31774Y34406D01*
X31779Y34402D01*
X31783Y34396D01*
X31788Y34389D01*
X31794Y34381D01*
X31799Y34372D01*
X31805Y34363D01*
X31810Y34352D01*
X31815Y34340D01*
X31819Y34327D01*
X31823Y34314D01*
X31826Y34300D01*
X31828Y34286D01*
X31829Y34270D01*
Y34270D01*
Y34268D01*
Y34265D01*
X31828Y34260D01*
Y34255D01*
X31827Y34249D01*
X31825Y34243D01*
X31824Y34234D01*
X31820Y34217D01*
X31813Y34198D01*
X31804Y34177D01*
X31799Y34166D01*
X31792Y34155D01*
X31539Y33749D01*
X31790D01*
X31795Y33749D01*
X31801Y33748D01*
X31809Y33744D01*
X31816Y33739D01*
X31823Y33733D01*
X31827Y33722D01*
X31829Y33716D01*
Y33709D01*
Y33707D01*
X31828Y33703D01*
X31827Y33696D01*
X31823Y33689D01*
X31819Y33682D01*
X31812Y33675D01*
X31802Y33671D01*
X31796Y33670D01*
X31789Y33669D01*
X31467D01*
X31462Y33670D01*
X31456Y33672D01*
X31448Y33674D01*
X31440Y33679D01*
X31434Y33686D01*
X31429Y33696D01*
X31428Y33702D01*
X31428Y33709D01*
Y33710D01*
Y33711D01*
X31428Y33716D01*
X31430Y33723D01*
X31434Y33732D01*
X31729Y34204D01*
X31730Y34205D01*
X31732Y34210D01*
X31735Y34215D01*
X31739Y34224D01*
X31742Y34234D01*
X31745Y34245D01*
X31747Y34257D01*
X31748Y34270D01*
Y34270D01*
Y34272D01*
Y34275D01*
X31747Y34278D01*
X31746Y34287D01*
X31744Y34299D01*
X31740Y34313D01*
X31733Y34327D01*
X31724Y34342D01*
X31713Y34355D01*
X31711Y34357D01*
X31707Y34361D01*
X31699Y34366D01*
X31689Y34373D01*
X31677Y34380D01*
X31663Y34385D01*
X31646Y34389D01*
X31628Y34391D01*
X31625D01*
X31621Y34390D01*
X31616Y34389D01*
X31610Y34387D01*
X31604Y34385D01*
X31596Y34382D01*
X31587Y34378D01*
X31577Y34373D01*
X31568Y34366D01*
X31557Y34358D01*
X31547Y34347D01*
X31536Y34336D01*
X31525Y34323D01*
X31514Y34307D01*
X31503Y34289D01*
X31502Y34288D01*
X31501Y34286D01*
X31498Y34283D01*
X31494Y34280D01*
X31489Y34276D01*
X31483Y34273D01*
X31477Y34270D01*
X31468Y34270D01*
X31467D01*
X31462Y34270D01*
X31456Y34272D01*
X31448Y34275D01*
X31440Y34280D01*
X31434Y34287D01*
X31429Y34297D01*
X31428Y34303D01*
X31428Y34310D01*
Y34311D01*
Y34312D01*
X31428Y34316D01*
X31429Y34321D01*
X31432Y34326D01*
Y34327D01*
X31433Y34328D01*
X31435Y34332D01*
X31439Y34340D01*
X31445Y34349D01*
X31453Y34360D01*
X31461Y34372D01*
X31472Y34385D01*
X31484Y34399D01*
X31498Y34412D01*
X31512Y34425D01*
X31528Y34437D01*
X31546Y34448D01*
X31565Y34457D01*
X31585Y34465D01*
X31606Y34469D01*
X31617Y34471D01*
X31637D01*
X31642Y34470D01*
D02*
G37*
G36*
X31037D02*
X31044D01*
X31053Y34468D01*
X31063Y34468D01*
X31074Y34465D01*
X31086Y34462D01*
X31099Y34458D01*
X31113Y34454D01*
X31127Y34448D01*
X31142Y34441D01*
X31156Y34434D01*
X31170Y34424D01*
X31184Y34413D01*
X31198Y34401D01*
X31198Y34400D01*
X31201Y34397D01*
X31204Y34394D01*
X31209Y34388D01*
X31214Y34381D01*
X31220Y34373D01*
X31226Y34363D01*
X31233Y34353D01*
X31239Y34342D01*
X31246Y34328D01*
X31252Y34314D01*
X31257Y34299D01*
X31261Y34283D01*
X31264Y34266D01*
X31267Y34248D01*
X31268Y34230D01*
Y34229D01*
Y34228D01*
Y34226D01*
Y34222D01*
X31267Y34214D01*
X31265Y34203D01*
X31264Y34189D01*
X31260Y34174D01*
X31256Y34158D01*
X31250Y34140D01*
X31242Y34122D01*
X31232Y34102D01*
X31220Y34084D01*
X31206Y34066D01*
X31190Y34049D01*
X31170Y34033D01*
X31148Y34018D01*
X31136Y34012D01*
X31122Y34007D01*
X31263Y33727D01*
X31264Y33725D01*
X31265Y33721D01*
X31267Y33716D01*
X31268Y33709D01*
Y33708D01*
Y33706D01*
X31267Y33703D01*
X31266Y33700D01*
X31264Y33695D01*
X31263Y33690D01*
X31259Y33685D01*
X31255Y33681D01*
X31254Y33680D01*
X31253Y33679D01*
X31251Y33678D01*
X31247Y33675D01*
X31238Y33671D01*
X31233Y33670D01*
X31227Y33669D01*
X31223D01*
X31219Y33670D01*
X31213Y33672D01*
X31207Y33674D01*
X31201Y33678D01*
X31196Y33683D01*
X31191Y33691D01*
X31042Y33990D01*
X30868D01*
Y33709D01*
Y33707D01*
X30867Y33703D01*
X30866Y33696D01*
X30863Y33689D01*
X30858Y33682D01*
X30851Y33675D01*
X30841Y33671D01*
X30834Y33670D01*
X30827Y33669D01*
X30825D01*
X30821Y33670D01*
X30814Y33672D01*
X30808Y33674D01*
X30800Y33679D01*
X30793Y33686D01*
X30789Y33696D01*
X30788Y33702D01*
X30787Y33709D01*
Y34430D01*
Y34431D01*
Y34432D01*
X30788Y34437D01*
X30790Y34443D01*
X30792Y34451D01*
X30797Y34458D01*
X30804Y34465D01*
X30814Y34469D01*
X30820Y34470D01*
X30827Y34471D01*
X31032D01*
X31037Y34470D01*
D02*
G37*
G36*
X30445Y32950D02*
X30452Y32950D01*
X30460Y32948D01*
X30470Y32946D01*
X30480Y32944D01*
X30491Y32941D01*
X30503Y32937D01*
X30514Y32932D01*
X30526Y32927D01*
X30538Y32919D01*
X30550Y32912D01*
X30562Y32902D01*
X30573Y32892D01*
X30574Y32891D01*
X30576Y32890D01*
X30578Y32886D01*
X30582Y32882D01*
X30587Y32876D01*
X30592Y32869D01*
X30598Y32861D01*
X30603Y32852D01*
X30609Y32842D01*
X30614Y32831D01*
X30619Y32820D01*
X30623Y32808D01*
X30627Y32794D01*
X30630Y32780D01*
X30631Y32766D01*
X30632Y32751D01*
Y32750D01*
Y32747D01*
X30631Y32742D01*
Y32734D01*
X30630Y32725D01*
X30628Y32716D01*
X30625Y32705D01*
X30622Y32693D01*
X30618Y32681D01*
X30613Y32668D01*
X30606Y32654D01*
X30598Y32641D01*
X30589Y32627D01*
X30578Y32615D01*
X30566Y32602D01*
X30552Y32590D01*
X30553Y32589D01*
X30555Y32588D01*
X30559Y32584D01*
X30565Y32579D01*
X30570Y32573D01*
X30577Y32566D01*
X30585Y32557D01*
X30592Y32547D01*
X30599Y32536D01*
X30607Y32524D01*
X30614Y32511D01*
X30619Y32497D01*
X30625Y32481D01*
X30629Y32465D01*
X30631Y32448D01*
X30632Y32429D01*
Y32350D01*
Y32349D01*
Y32347D01*
Y32341D01*
X30631Y32336D01*
X30631Y32329D01*
X30629Y32320D01*
X30627Y32311D01*
X30625Y32301D01*
X30622Y32290D01*
X30618Y32279D01*
X30613Y32267D01*
X30608Y32254D01*
X30600Y32243D01*
X30592Y32231D01*
X30583Y32219D01*
X30573Y32208D01*
X30572Y32207D01*
X30570Y32205D01*
X30567Y32203D01*
X30563Y32199D01*
X30557Y32194D01*
X30550Y32189D01*
X30542Y32184D01*
X30533Y32179D01*
X30523Y32173D01*
X30512Y32168D01*
X30500Y32163D01*
X30488Y32159D01*
X30475Y32155D01*
X30460Y32152D01*
X30446Y32150D01*
X30431Y32150D01*
X30269D01*
X30265Y32150D01*
X30258Y32152D01*
X30252Y32155D01*
X30244Y32160D01*
X30237Y32166D01*
X30233Y32177D01*
X30232Y32182D01*
X30231Y32189D01*
Y32190D01*
Y32191D01*
X30232Y32196D01*
X30234Y32202D01*
X30236Y32210D01*
X30241Y32217D01*
X30248Y32224D01*
X30258Y32228D01*
X30264Y32229D01*
X30271Y32230D01*
X30436D01*
X30439Y32231D01*
X30449Y32232D01*
X30460Y32234D01*
X30474Y32238D01*
X30488Y32244D01*
X30503Y32253D01*
X30516Y32265D01*
X30518Y32266D01*
X30522Y32270D01*
X30527Y32278D01*
X30534Y32288D01*
X30541Y32301D01*
X30546Y32315D01*
X30550Y32331D01*
X30552Y32350D01*
Y32429D01*
Y32430D01*
Y32432D01*
Y32435D01*
X30551Y32438D01*
X30550Y32447D01*
X30548Y32459D01*
X30543Y32473D01*
X30537Y32487D01*
X30528Y32501D01*
X30516Y32515D01*
X30515Y32517D01*
X30510Y32521D01*
X30503Y32526D01*
X30493Y32533D01*
X30480Y32539D01*
X30466Y32544D01*
X30449Y32549D01*
X30431Y32550D01*
X30350D01*
X30345Y32551D01*
X30339Y32553D01*
X30331Y32555D01*
X30323Y32561D01*
X30318Y32567D01*
X30312Y32577D01*
X30312Y32583D01*
X30311Y32590D01*
Y32591D01*
Y32592D01*
X30312Y32597D01*
X30313Y32603D01*
X30316Y32610D01*
X30321Y32618D01*
X30328Y32625D01*
X30338Y32629D01*
X30345Y32630D01*
X30351Y32631D01*
X30436D01*
X30439Y32632D01*
X30449Y32632D01*
X30460Y32635D01*
X30474Y32639D01*
X30488Y32645D01*
X30503Y32654D01*
X30516Y32665D01*
X30518Y32667D01*
X30522Y32671D01*
X30527Y32679D01*
X30534Y32689D01*
X30541Y32702D01*
X30546Y32716D01*
X30550Y32732D01*
X30552Y32751D01*
Y32752D01*
Y32753D01*
Y32756D01*
X30551Y32759D01*
X30550Y32769D01*
X30548Y32780D01*
X30543Y32793D01*
X30537Y32808D01*
X30528Y32822D01*
X30516Y32835D01*
X30515Y32837D01*
X30510Y32841D01*
X30503Y32846D01*
X30493Y32853D01*
X30480Y32860D01*
X30466Y32865D01*
X30449Y32869D01*
X30431Y32871D01*
X30269D01*
X30265Y32872D01*
X30258Y32874D01*
X30252Y32876D01*
X30244Y32881D01*
X30237Y32888D01*
X30233Y32898D01*
X30232Y32904D01*
X30231Y32911D01*
Y32912D01*
Y32912D01*
X30232Y32917D01*
X30234Y32923D01*
X30236Y32931D01*
X30241Y32939D01*
X30248Y32945D01*
X30258Y32950D01*
X30264Y32950D01*
X30271Y32951D01*
X30439D01*
X30445Y32950D01*
D02*
G37*
G36*
X29884D02*
X29891Y32950D01*
X29900Y32948D01*
X29909Y32946D01*
X29920Y32944D01*
X29930Y32941D01*
X29942Y32937D01*
X29954Y32933D01*
X29966Y32927D01*
X29978Y32920D01*
X29989Y32912D01*
X30001Y32903D01*
X30012Y32893D01*
X30013Y32892D01*
X30015Y32890D01*
X30017Y32887D01*
X30022Y32883D01*
X30026Y32877D01*
X30031Y32870D01*
X30036Y32863D01*
X30042Y32853D01*
X30047Y32843D01*
X30052Y32833D01*
X30057Y32821D01*
X30061Y32808D01*
X30065Y32795D01*
X30068Y32781D01*
X30070Y32766D01*
X30071Y32751D01*
Y32350D01*
Y32349D01*
Y32347D01*
Y32341D01*
X30070Y32336D01*
X30069Y32329D01*
X30067Y32320D01*
X30065Y32311D01*
X30063Y32301D01*
X30060Y32290D01*
X30056Y32279D01*
X30051Y32267D01*
X30046Y32254D01*
X30038Y32243D01*
X30031Y32231D01*
X30022Y32219D01*
X30011Y32208D01*
X30011Y32207D01*
X30009Y32205D01*
X30005Y32203D01*
X30001Y32199D01*
X29995Y32194D01*
X29989Y32189D01*
X29981Y32184D01*
X29972Y32179D01*
X29962Y32173D01*
X29951Y32168D01*
X29939Y32163D01*
X29927Y32159D01*
X29914Y32155D01*
X29900Y32152D01*
X29885Y32150D01*
X29870Y32150D01*
X29628D01*
X29624Y32150D01*
X29617Y32152D01*
X29610Y32155D01*
X29603Y32160D01*
X29596Y32166D01*
X29592Y32177D01*
X29591Y32182D01*
X29590Y32189D01*
Y32911D01*
Y32912D01*
Y32912D01*
X29591Y32917D01*
X29593Y32923D01*
X29595Y32931D01*
X29600Y32939D01*
X29607Y32945D01*
X29617Y32950D01*
X29623Y32950D01*
X29630Y32951D01*
X29879D01*
X29884Y32950D01*
D02*
G37*
G36*
X29243D02*
X29250Y32950D01*
X29259Y32948D01*
X29268Y32946D01*
X29279Y32944D01*
X29289Y32941D01*
X29301Y32937D01*
X29313Y32933D01*
X29325Y32927D01*
X29336Y32920D01*
X29348Y32912D01*
X29360Y32903D01*
X29371Y32893D01*
X29372Y32892D01*
X29374Y32890D01*
X29376Y32887D01*
X29380Y32883D01*
X29385Y32877D01*
X29390Y32870D01*
X29395Y32863D01*
X29401Y32853D01*
X29406Y32843D01*
X29411Y32833D01*
X29416Y32821D01*
X29420Y32808D01*
X29424Y32795D01*
X29427Y32781D01*
X29429Y32766D01*
X29429Y32751D01*
Y32350D01*
Y32349D01*
Y32347D01*
Y32341D01*
X29429Y32336D01*
X29428Y32329D01*
X29426Y32320D01*
X29424Y32311D01*
X29422Y32301D01*
X29419Y32290D01*
X29415Y32279D01*
X29410Y32267D01*
X29405Y32254D01*
X29397Y32243D01*
X29390Y32231D01*
X29380Y32219D01*
X29370Y32208D01*
X29369Y32207D01*
X29368Y32205D01*
X29364Y32203D01*
X29360Y32199D01*
X29354Y32194D01*
X29347Y32189D01*
X29340Y32184D01*
X29330Y32179D01*
X29321Y32173D01*
X29310Y32168D01*
X29298Y32163D01*
X29286Y32159D01*
X29273Y32155D01*
X29259Y32152D01*
X29244Y32150D01*
X29229Y32150D01*
X28987D01*
X28983Y32150D01*
X28976Y32152D01*
X28969Y32155D01*
X28962Y32160D01*
X28955Y32166D01*
X28951Y32177D01*
X28950Y32182D01*
X28949Y32189D01*
Y32911D01*
Y32912D01*
Y32912D01*
X28950Y32917D01*
X28952Y32923D01*
X28954Y32931D01*
X28959Y32939D01*
X28966Y32945D01*
X28976Y32950D01*
X28982Y32950D01*
X28989Y32951D01*
X29237D01*
X29243Y32950D01*
D02*
G37*
G36*
X34937Y19208D02*
X34944Y19208D01*
X34951Y19204D01*
X34958Y19199D01*
X34965Y19192D01*
X34969Y19182D01*
X34971Y19175D01*
Y19169D01*
Y19167D01*
X34970Y19163D01*
X34969Y19156D01*
X34966Y19149D01*
X34961Y19142D01*
X34954Y19135D01*
X34944Y19131D01*
X34938Y19130D01*
X34931Y19129D01*
X34692D01*
Y18889D01*
X34819D01*
X34824Y18888D01*
X34832Y18887D01*
X34840Y18885D01*
X34850Y18884D01*
X34860Y18881D01*
X34870Y18879D01*
X34882Y18874D01*
X34894Y18869D01*
X34906Y18864D01*
X34917Y18857D01*
X34929Y18849D01*
X34941Y18840D01*
X34952Y18829D01*
X34953Y18829D01*
X34955Y18827D01*
X34957Y18824D01*
X34961Y18819D01*
X34966Y18813D01*
X34971Y18807D01*
X34977Y18798D01*
X34982Y18790D01*
X34988Y18780D01*
X34993Y18769D01*
X34998Y18757D01*
X35002Y18745D01*
X35006Y18731D01*
X35009Y18717D01*
X35010Y18703D01*
X35011Y18687D01*
Y18608D01*
Y18607D01*
Y18604D01*
Y18599D01*
X35010Y18593D01*
X35010Y18587D01*
X35008Y18578D01*
X35006Y18569D01*
X35004Y18559D01*
X35001Y18548D01*
X34997Y18537D01*
X34992Y18525D01*
X34987Y18512D01*
X34979Y18500D01*
X34972Y18489D01*
X34962Y18477D01*
X34952Y18466D01*
X34951Y18465D01*
X34950Y18463D01*
X34946Y18461D01*
X34942Y18456D01*
X34936Y18452D01*
X34929Y18447D01*
X34921Y18442D01*
X34912Y18437D01*
X34902Y18431D01*
X34891Y18426D01*
X34880Y18421D01*
X34868Y18417D01*
X34854Y18412D01*
X34840Y18410D01*
X34826Y18408D01*
X34811Y18407D01*
X34649D01*
X34645Y18408D01*
X34638Y18410D01*
X34632Y18412D01*
X34624Y18418D01*
X34617Y18424D01*
X34613Y18434D01*
X34612Y18440D01*
X34611Y18447D01*
Y18448D01*
Y18449D01*
X34612Y18454D01*
X34614Y18460D01*
X34616Y18467D01*
X34621Y18475D01*
X34628Y18482D01*
X34638Y18486D01*
X34644Y18487D01*
X34651Y18488D01*
X34816D01*
X34819Y18489D01*
X34829Y18489D01*
X34840Y18492D01*
X34853Y18496D01*
X34868Y18502D01*
X34882Y18511D01*
X34895Y18522D01*
X34897Y18524D01*
X34901Y18528D01*
X34906Y18536D01*
X34913Y18546D01*
X34920Y18559D01*
X34925Y18573D01*
X34929Y18589D01*
X34931Y18608D01*
Y18687D01*
Y18688D01*
Y18690D01*
Y18692D01*
X34930Y18696D01*
X34929Y18705D01*
X34927Y18717D01*
X34922Y18731D01*
X34916Y18745D01*
X34907Y18759D01*
X34895Y18773D01*
X34894Y18774D01*
X34889Y18779D01*
X34882Y18784D01*
X34872Y18791D01*
X34859Y18797D01*
X34845Y18802D01*
X34829Y18807D01*
X34811Y18808D01*
X34649D01*
X34645Y18809D01*
X34638Y18811D01*
X34632Y18813D01*
X34624Y18818D01*
X34617Y18825D01*
X34613Y18835D01*
X34612Y18841D01*
X34611Y18848D01*
Y19169D01*
Y19169D01*
Y19170D01*
X34612Y19175D01*
X34614Y19181D01*
X34616Y19189D01*
X34621Y19197D01*
X34628Y19203D01*
X34638Y19208D01*
X34644Y19208D01*
X34651Y19209D01*
X34933D01*
X34937Y19208D01*
D02*
G37*
G36*
X34417D02*
X34423Y19208D01*
X34431Y19204D01*
X34438Y19199D01*
X34445Y19192D01*
X34449Y19182D01*
X34451Y19175D01*
Y19169D01*
Y19167D01*
X34450Y19163D01*
X34449Y19156D01*
X34445Y19149D01*
X34441Y19142D01*
X34434Y19135D01*
X34424Y19131D01*
X34418Y19130D01*
X34411Y19129D01*
X34246D01*
X34242Y19128D01*
X34233Y19127D01*
X34221Y19125D01*
X34208Y19120D01*
X34193Y19114D01*
X34179Y19105D01*
X34165Y19093D01*
X34164Y19092D01*
X34160Y19087D01*
X34154Y19080D01*
X34149Y19070D01*
X34142Y19057D01*
X34136Y19043D01*
X34132Y19026D01*
X34131Y19008D01*
Y18608D01*
Y18607D01*
Y18605D01*
Y18603D01*
X34132Y18599D01*
X34132Y18590D01*
X34135Y18578D01*
X34139Y18565D01*
X34145Y18551D01*
X34154Y18536D01*
X34165Y18522D01*
X34167Y18521D01*
X34172Y18517D01*
X34179Y18511D01*
X34189Y18506D01*
X34202Y18499D01*
X34216Y18493D01*
X34233Y18489D01*
X34251Y18488D01*
X34412D01*
X34417Y18487D01*
X34423Y18486D01*
X34431Y18483D01*
X34438Y18478D01*
X34445Y18471D01*
X34449Y18461D01*
X34451Y18454D01*
Y18447D01*
Y18445D01*
X34450Y18441D01*
X34449Y18434D01*
X34445Y18428D01*
X34441Y18420D01*
X34434Y18413D01*
X34424Y18409D01*
X34418Y18408D01*
X34411Y18407D01*
X34242D01*
X34237Y18408D01*
X34230Y18409D01*
X34221Y18411D01*
X34212Y18412D01*
X34202Y18415D01*
X34191Y18418D01*
X34180Y18422D01*
X34168Y18426D01*
X34155Y18432D01*
X34143Y18439D01*
X34132Y18446D01*
X34120Y18456D01*
X34109Y18466D01*
X34108Y18467D01*
X34106Y18468D01*
X34104Y18472D01*
X34099Y18476D01*
X34095Y18482D01*
X34090Y18489D01*
X34085Y18496D01*
X34080Y18506D01*
X34074Y18516D01*
X34069Y18526D01*
X34064Y18538D01*
X34060Y18550D01*
X34056Y18564D01*
X34053Y18577D01*
X34051Y18593D01*
X34050Y18608D01*
Y19009D01*
Y19010D01*
Y19012D01*
Y19017D01*
X34051Y19022D01*
X34052Y19030D01*
X34054Y19038D01*
X34056Y19048D01*
X34058Y19058D01*
X34061Y19068D01*
X34065Y19080D01*
X34069Y19092D01*
X34075Y19104D01*
X34082Y19115D01*
X34089Y19127D01*
X34099Y19139D01*
X34109Y19150D01*
X34110Y19151D01*
X34111Y19153D01*
X34115Y19155D01*
X34119Y19159D01*
X34125Y19164D01*
X34132Y19169D01*
X34139Y19175D01*
X34149Y19180D01*
X34159Y19186D01*
X34169Y19191D01*
X34181Y19196D01*
X34193Y19200D01*
X34207Y19204D01*
X34220Y19207D01*
X34236Y19208D01*
X34251Y19209D01*
X34412D01*
X34417Y19208D01*
D02*
G37*
G36*
X34897Y12095D02*
X34903Y12094D01*
X34911Y12091D01*
X34918Y12086D01*
X34925Y12079D01*
X34929Y12069D01*
X34930Y12062D01*
X34931Y12055D01*
Y12054D01*
Y12050D01*
X34930Y12046D01*
X34928Y12040D01*
X34926Y12034D01*
X34922Y12028D01*
X34917Y12024D01*
X34911Y12021D01*
X34910D01*
X34906Y12020D01*
X34902Y12018D01*
X34895Y12016D01*
X34888Y12013D01*
X34879Y12010D01*
X34869Y12005D01*
X34858Y11999D01*
X34846Y11993D01*
X34834Y11985D01*
X34821Y11977D01*
X34808Y11966D01*
X34795Y11955D01*
X34781Y11943D01*
X34769Y11929D01*
X34756Y11914D01*
X34755Y11913D01*
X34753Y11911D01*
X34751Y11907D01*
X34747Y11903D01*
X34743Y11896D01*
X34739Y11889D01*
X34734Y11881D01*
X34728Y11872D01*
X34718Y11851D01*
X34708Y11828D01*
X34700Y11802D01*
X34697Y11790D01*
X34695Y11776D01*
X34820D01*
X34826Y11775D01*
X34833Y11774D01*
X34841Y11773D01*
X34851Y11771D01*
X34862Y11769D01*
X34872Y11766D01*
X34884Y11762D01*
X34895Y11758D01*
X34907Y11752D01*
X34919Y11745D01*
X34931Y11737D01*
X34943Y11728D01*
X34954Y11718D01*
X34955Y11717D01*
X34956Y11715D01*
X34959Y11712D01*
X34963Y11708D01*
X34967Y11702D01*
X34972Y11695D01*
X34977Y11687D01*
X34983Y11678D01*
X34988Y11668D01*
X34994Y11657D01*
X34998Y11646D01*
X35002Y11633D01*
X35006Y11620D01*
X35009Y11605D01*
X35010Y11590D01*
X35011Y11575D01*
Y11495D01*
Y11494D01*
Y11492D01*
Y11487D01*
X35010Y11481D01*
X35010Y11474D01*
X35008Y11466D01*
X35006Y11456D01*
X35004Y11445D01*
X35001Y11434D01*
X34997Y11423D01*
X34992Y11412D01*
X34987Y11400D01*
X34979Y11387D01*
X34972Y11375D01*
X34962Y11363D01*
X34952Y11352D01*
X34951Y11352D01*
X34950Y11350D01*
X34946Y11347D01*
X34942Y11343D01*
X34936Y11339D01*
X34929Y11335D01*
X34922Y11329D01*
X34912Y11324D01*
X34903Y11319D01*
X34892Y11313D01*
X34880Y11308D01*
X34868Y11304D01*
X34855Y11300D01*
X34840Y11297D01*
X34826Y11296D01*
X34811Y11295D01*
X34802D01*
X34796Y11296D01*
X34790Y11297D01*
X34781Y11298D01*
X34772Y11300D01*
X34762Y11302D01*
X34740Y11309D01*
X34728Y11313D01*
X34715Y11319D01*
X34703Y11326D01*
X34692Y11334D01*
X34680Y11342D01*
X34669Y11352D01*
X34668Y11353D01*
X34666Y11355D01*
X34664Y11358D01*
X34659Y11363D01*
X34655Y11368D01*
X34651Y11375D01*
X34645Y11383D01*
X34640Y11392D01*
X34635Y11401D01*
X34630Y11412D01*
X34625Y11424D01*
X34621Y11437D01*
X34616Y11450D01*
X34614Y11464D01*
X34612Y11478D01*
X34611Y11494D01*
Y11735D01*
Y11736D01*
Y11741D01*
X34612Y11748D01*
X34613Y11758D01*
X34614Y11769D01*
X34616Y11783D01*
X34619Y11799D01*
X34622Y11816D01*
X34627Y11834D01*
X34633Y11853D01*
X34640Y11873D01*
X34649Y11893D01*
X34659Y11913D01*
X34671Y11933D01*
X34685Y11954D01*
X34701Y11973D01*
X34702Y11974D01*
X34704Y11977D01*
X34708Y11981D01*
X34714Y11986D01*
X34719Y11993D01*
X34727Y12000D01*
X34736Y12009D01*
X34747Y12017D01*
X34758Y12027D01*
X34769Y12036D01*
X34795Y12054D01*
X34824Y12072D01*
X34839Y12080D01*
X34854Y12087D01*
X34855Y12087D01*
X34858Y12088D01*
X34862Y12090D01*
X34868Y12092D01*
X34879Y12094D01*
X34885Y12096D01*
X34892D01*
X34897Y12095D01*
D02*
G37*
G36*
X34417Y12096D02*
X34423Y12095D01*
X34431Y12092D01*
X34438Y12087D01*
X34445Y12080D01*
X34449Y12070D01*
X34451Y12063D01*
Y12056D01*
Y12054D01*
X34450Y12050D01*
X34449Y12043D01*
X34445Y12037D01*
X34441Y12029D01*
X34434Y12022D01*
X34424Y12018D01*
X34418Y12017D01*
X34411Y12016D01*
X34246D01*
X34242Y12016D01*
X34233Y12015D01*
X34221Y12012D01*
X34208Y12008D01*
X34193Y12001D01*
X34179Y11993D01*
X34165Y11981D01*
X34164Y11979D01*
X34160Y11975D01*
X34154Y11967D01*
X34149Y11957D01*
X34142Y11944D01*
X34136Y11930D01*
X34132Y11913D01*
X34131Y11895D01*
Y11495D01*
Y11494D01*
Y11493D01*
Y11490D01*
X34132Y11487D01*
X34132Y11478D01*
X34135Y11466D01*
X34139Y11452D01*
X34145Y11439D01*
X34154Y11423D01*
X34165Y11410D01*
X34167Y11408D01*
X34172Y11405D01*
X34179Y11399D01*
X34189Y11393D01*
X34202Y11386D01*
X34216Y11380D01*
X34233Y11377D01*
X34251Y11375D01*
X34412D01*
X34417Y11374D01*
X34423Y11374D01*
X34431Y11370D01*
X34438Y11365D01*
X34445Y11358D01*
X34449Y11348D01*
X34451Y11341D01*
Y11335D01*
Y11333D01*
X34450Y11329D01*
X34449Y11322D01*
X34445Y11315D01*
X34441Y11308D01*
X34434Y11301D01*
X34424Y11297D01*
X34418Y11296D01*
X34411Y11295D01*
X34242D01*
X34237Y11296D01*
X34230Y11297D01*
X34221Y11298D01*
X34212Y11300D01*
X34202Y11302D01*
X34191Y11305D01*
X34180Y11309D01*
X34168Y11313D01*
X34155Y11319D01*
X34143Y11326D01*
X34132Y11334D01*
X34120Y11343D01*
X34109Y11353D01*
X34108Y11354D01*
X34106Y11356D01*
X34104Y11359D01*
X34099Y11363D01*
X34095Y11369D01*
X34090Y11376D01*
X34085Y11384D01*
X34080Y11393D01*
X34074Y11403D01*
X34069Y11413D01*
X34064Y11425D01*
X34060Y11438D01*
X34056Y11451D01*
X34053Y11465D01*
X34051Y11480D01*
X34050Y11495D01*
Y11896D01*
Y11897D01*
Y11900D01*
Y11905D01*
X34051Y11910D01*
X34052Y11917D01*
X34054Y11926D01*
X34056Y11935D01*
X34058Y11945D01*
X34061Y11955D01*
X34065Y11967D01*
X34069Y11979D01*
X34075Y11991D01*
X34082Y12003D01*
X34089Y12015D01*
X34099Y12027D01*
X34109Y12038D01*
X34110Y12038D01*
X34111Y12040D01*
X34115Y12043D01*
X34119Y12047D01*
X34125Y12051D01*
X34132Y12056D01*
X34139Y12062D01*
X34149Y12067D01*
X34159Y12073D01*
X34169Y12078D01*
X34181Y12083D01*
X34193Y12087D01*
X34207Y12092D01*
X34220Y12094D01*
X34236Y12096D01*
X34251Y12097D01*
X34412D01*
X34417Y12096D01*
D02*
G37*
G36*
X46506Y9282D02*
X46513Y9282D01*
X46520Y9278D01*
X46527Y9274D01*
X46534Y9267D01*
X46539Y9257D01*
X46540Y9251D01*
X46541Y9244D01*
Y9244D01*
Y9242D01*
X46540Y9238D01*
X46539Y9234D01*
X46469Y8922D01*
X46502D01*
X46507Y8921D01*
X46513Y8920D01*
X46520Y8917D01*
X46528Y8912D01*
X46535Y8905D01*
X46539Y8895D01*
X46540Y8888D01*
X46541Y8882D01*
Y8880D01*
X46540Y8876D01*
X46539Y8869D01*
X46535Y8862D01*
X46530Y8854D01*
X46524Y8848D01*
X46513Y8843D01*
X46507Y8843D01*
X46500Y8842D01*
X46452D01*
X46379Y8513D01*
Y8511D01*
X46377Y8508D01*
X46375Y8503D01*
X46371Y8498D01*
X46366Y8492D01*
X46360Y8487D01*
X46351Y8483D01*
X46341Y8481D01*
X46339D01*
X46335Y8482D01*
X46328Y8484D01*
X46321Y8487D01*
X46313Y8492D01*
X46307Y8498D01*
X46302Y8509D01*
X46301Y8514D01*
X46300Y8521D01*
Y8522D01*
Y8525D01*
Y8528D01*
X46301Y8531D01*
X46370Y8842D01*
X46338D01*
X46334Y8843D01*
X46327Y8844D01*
X46321Y8847D01*
X46313Y8852D01*
X46306Y8859D01*
X46302Y8869D01*
X46301Y8875D01*
X46300Y8882D01*
Y8882D01*
Y8883D01*
X46301Y8888D01*
X46303Y8894D01*
X46305Y8902D01*
X46310Y8909D01*
X46317Y8916D01*
X46327Y8920D01*
X46333Y8921D01*
X46340Y8922D01*
X46387D01*
X46450Y9203D01*
X46178D01*
X46173Y9204D01*
X46167Y9205D01*
X46160Y9208D01*
X46152Y9213D01*
X46146Y9220D01*
X46141Y9230D01*
X46140Y9236D01*
X46140Y9243D01*
Y9244D01*
Y9244D01*
X46140Y9249D01*
X46142Y9255D01*
X46145Y9263D01*
X46150Y9271D01*
X46157Y9277D01*
X46167Y9282D01*
X46173Y9282D01*
X46179Y9283D01*
X46502D01*
X46506Y9282D01*
D02*
G37*
G36*
X45946D02*
X45953Y9282D01*
X45960Y9278D01*
X45967Y9273D01*
X45974Y9266D01*
X45978Y9256D01*
X45980Y9249D01*
Y9243D01*
Y9241D01*
X45979Y9237D01*
X45978Y9230D01*
X45975Y9223D01*
X45970Y9216D01*
X45963Y9209D01*
X45954Y9205D01*
X45947Y9204D01*
X45940Y9203D01*
X45775D01*
X45772Y9202D01*
X45762Y9201D01*
X45751Y9199D01*
X45737Y9194D01*
X45723Y9188D01*
X45708Y9179D01*
X45695Y9167D01*
X45693Y9166D01*
X45690Y9162D01*
X45684Y9154D01*
X45678Y9144D01*
X45671Y9131D01*
X45665Y9117D01*
X45662Y9100D01*
X45660Y9082D01*
Y8682D01*
Y8681D01*
Y8679D01*
Y8677D01*
X45661Y8673D01*
X45662Y8664D01*
X45664Y8652D01*
X45668Y8639D01*
X45674Y8625D01*
X45683Y8610D01*
X45695Y8597D01*
X45696Y8595D01*
X45701Y8591D01*
X45708Y8585D01*
X45718Y8580D01*
X45731Y8573D01*
X45745Y8567D01*
X45762Y8564D01*
X45780Y8562D01*
X45942D01*
X45946Y8561D01*
X45953Y8560D01*
X45960Y8557D01*
X45967Y8552D01*
X45974Y8545D01*
X45978Y8535D01*
X45980Y8528D01*
Y8521D01*
Y8520D01*
X45979Y8515D01*
X45978Y8509D01*
X45975Y8502D01*
X45970Y8494D01*
X45963Y8487D01*
X45954Y8483D01*
X45947Y8482D01*
X45940Y8481D01*
X45772D01*
X45766Y8482D01*
X45759Y8483D01*
X45751Y8485D01*
X45741Y8487D01*
X45731Y8489D01*
X45720Y8492D01*
X45709Y8496D01*
X45697Y8500D01*
X45685Y8506D01*
X45673Y8513D01*
X45661Y8520D01*
X45649Y8530D01*
X45638Y8540D01*
X45637Y8541D01*
X45636Y8542D01*
X45633Y8546D01*
X45629Y8550D01*
X45625Y8556D01*
X45619Y8563D01*
X45614Y8570D01*
X45609Y8580D01*
X45603Y8590D01*
X45598Y8600D01*
X45593Y8612D01*
X45589Y8624D01*
X45585Y8638D01*
X45582Y8651D01*
X45581Y8667D01*
X45580Y8682D01*
Y9083D01*
Y9084D01*
Y9086D01*
Y9091D01*
X45581Y9096D01*
X45581Y9104D01*
X45583Y9112D01*
X45585Y9122D01*
X45587Y9132D01*
X45590Y9142D01*
X45594Y9154D01*
X45598Y9166D01*
X45604Y9178D01*
X45611Y9189D01*
X45619Y9201D01*
X45628Y9213D01*
X45638Y9224D01*
X45639Y9225D01*
X45641Y9227D01*
X45644Y9229D01*
X45648Y9233D01*
X45654Y9238D01*
X45661Y9243D01*
X45668Y9249D01*
X45678Y9254D01*
X45688Y9260D01*
X45698Y9265D01*
X45710Y9270D01*
X45723Y9274D01*
X45736Y9278D01*
X45750Y9281D01*
X45765Y9282D01*
X45780Y9283D01*
X45942D01*
X45946Y9282D01*
D02*
G37*
G36*
X60667Y16138D02*
X60675Y16137D01*
X60683Y16135D01*
X60692Y16134D01*
X60702Y16131D01*
X60713Y16129D01*
X60724Y16124D01*
X60736Y16119D01*
X60748Y16114D01*
X60760Y16107D01*
X60772Y16099D01*
X60784Y16090D01*
X60795Y16080D01*
X60795Y16079D01*
X60797Y16077D01*
X60800Y16074D01*
X60804Y16069D01*
X60808Y16063D01*
X60813Y16057D01*
X60819Y16049D01*
X60824Y16040D01*
X60830Y16031D01*
X60835Y16020D01*
X60840Y16008D01*
X60845Y15995D01*
X60849Y15982D01*
X60851Y15968D01*
X60853Y15954D01*
X60854Y15938D01*
Y15937D01*
Y15934D01*
X60853Y15929D01*
Y15921D01*
X60851Y15913D01*
X60850Y15904D01*
X60847Y15893D01*
X60844Y15881D01*
X60839Y15868D01*
X60834Y15855D01*
X60828Y15842D01*
X60820Y15828D01*
X60811Y15815D01*
X60800Y15802D01*
X60788Y15789D01*
X60773Y15778D01*
X60774Y15777D01*
X60776Y15776D01*
X60779Y15773D01*
X60783Y15770D01*
X60787Y15766D01*
X60792Y15761D01*
X60804Y15748D01*
X60817Y15733D01*
X60828Y15714D01*
X60839Y15693D01*
X60843Y15682D01*
X60846Y15670D01*
Y15668D01*
X60847Y15667D01*
Y15663D01*
X60848Y15660D01*
X60849Y15655D01*
X60850Y15649D01*
X60850Y15641D01*
Y15633D01*
X60851Y15624D01*
X60852Y15613D01*
X60853Y15601D01*
Y15587D01*
X60854Y15572D01*
Y15555D01*
Y15537D01*
Y15537D01*
Y15534D01*
Y15530D01*
X60853Y15524D01*
X60852Y15516D01*
X60850Y15508D01*
X60849Y15498D01*
X60846Y15488D01*
X60844Y15478D01*
X60839Y15466D01*
X60834Y15455D01*
X60829Y15443D01*
X60822Y15431D01*
X60814Y15419D01*
X60805Y15407D01*
X60795Y15396D01*
X60794Y15395D01*
X60792Y15394D01*
X60789Y15391D01*
X60784Y15387D01*
X60779Y15383D01*
X60772Y15378D01*
X60764Y15372D01*
X60755Y15367D01*
X60746Y15361D01*
X60735Y15356D01*
X60723Y15351D01*
X60710Y15347D01*
X60697Y15343D01*
X60683Y15340D01*
X60669Y15339D01*
X60653Y15338D01*
X60646D01*
X60640Y15339D01*
X60632Y15339D01*
X60624Y15341D01*
X60614Y15343D01*
X60604Y15345D01*
X60594Y15348D01*
X60582Y15352D01*
X60570Y15356D01*
X60559Y15362D01*
X60547Y15369D01*
X60535Y15377D01*
X60523Y15386D01*
X60512Y15396D01*
X60511Y15397D01*
X60510Y15399D01*
X60507Y15402D01*
X60503Y15406D01*
X60499Y15412D01*
X60494Y15419D01*
X60488Y15427D01*
X60483Y15436D01*
X60477Y15445D01*
X60472Y15456D01*
X60467Y15468D01*
X60463Y15481D01*
X60459Y15493D01*
X60456Y15508D01*
X60455Y15522D01*
X60454Y15537D01*
Y15618D01*
Y15619D01*
Y15622D01*
X60455Y15627D01*
X60455Y15635D01*
X60456Y15643D01*
X60458Y15652D01*
X60461Y15663D01*
X60464Y15675D01*
X60468Y15688D01*
X60473Y15701D01*
X60480Y15714D01*
X60488Y15728D01*
X60497Y15740D01*
X60508Y15754D01*
X60520Y15766D01*
X60534Y15778D01*
X60533Y15778D01*
X60531Y15780D01*
X60527Y15784D01*
X60521Y15789D01*
X60516Y15795D01*
X60509Y15802D01*
X60501Y15811D01*
X60494Y15821D01*
X60487Y15832D01*
X60479Y15844D01*
X60472Y15857D01*
X60466Y15871D01*
X60461Y15887D01*
X60457Y15903D01*
X60455Y15920D01*
X60454Y15938D01*
Y15939D01*
Y15942D01*
Y15947D01*
X60455Y15952D01*
X60455Y15959D01*
X60457Y15968D01*
X60459Y15977D01*
X60461Y15987D01*
X60464Y15998D01*
X60468Y16009D01*
X60472Y16021D01*
X60478Y16033D01*
X60485Y16045D01*
X60493Y16057D01*
X60502Y16069D01*
X60512Y16080D01*
X60513Y16080D01*
X60515Y16082D01*
X60518Y16085D01*
X60522Y16089D01*
X60528Y16093D01*
X60535Y16098D01*
X60543Y16104D01*
X60552Y16109D01*
X60561Y16115D01*
X60572Y16120D01*
X60584Y16125D01*
X60597Y16129D01*
X60609Y16134D01*
X60624Y16136D01*
X60638Y16138D01*
X60653Y16139D01*
X60662D01*
X60667Y16138D01*
D02*
G37*
G36*
X60259Y16139D02*
X60266Y16138D01*
X60274Y16135D01*
X60280Y16129D01*
X60287Y16123D01*
X60291Y16113D01*
X60293Y16106D01*
Y16099D01*
Y16097D01*
X60292Y16093D01*
X60291Y16086D01*
X60288Y16080D01*
X60284Y16072D01*
X60276Y16065D01*
X60267Y16061D01*
X60260Y16060D01*
X60253Y16059D01*
X60088D01*
X60085Y16058D01*
X60076Y16058D01*
X60064Y16055D01*
X60050Y16051D01*
X60036Y16044D01*
X60022Y16036D01*
X60008Y16024D01*
X60006Y16022D01*
X60003Y16018D01*
X59997Y16010D01*
X59991Y16000D01*
X59984Y15987D01*
X59978Y15973D01*
X59975Y15956D01*
X59973Y15938D01*
Y15538D01*
Y15537D01*
Y15536D01*
Y15533D01*
X59974Y15530D01*
X59975Y15520D01*
X59978Y15509D01*
X59982Y15495D01*
X59988Y15482D01*
X59996Y15466D01*
X60008Y15453D01*
X60010Y15451D01*
X60015Y15448D01*
X60022Y15442D01*
X60032Y15436D01*
X60044Y15429D01*
X60059Y15423D01*
X60076Y15420D01*
X60093Y15418D01*
X60255D01*
X60259Y15417D01*
X60266Y15416D01*
X60274Y15413D01*
X60280Y15408D01*
X60287Y15401D01*
X60291Y15391D01*
X60293Y15384D01*
Y15378D01*
Y15376D01*
X60292Y15372D01*
X60291Y15365D01*
X60288Y15358D01*
X60284Y15350D01*
X60276Y15344D01*
X60267Y15339D01*
X60260Y15339D01*
X60253Y15338D01*
X60085D01*
X60079Y15339D01*
X60072Y15339D01*
X60064Y15341D01*
X60055Y15343D01*
X60044Y15345D01*
X60033Y15348D01*
X60022Y15352D01*
X60011Y15356D01*
X59998Y15362D01*
X59986Y15369D01*
X59974Y15377D01*
X59962Y15386D01*
X59951Y15396D01*
X59951Y15397D01*
X59949Y15399D01*
X59946Y15402D01*
X59942Y15406D01*
X59938Y15412D01*
X59933Y15419D01*
X59928Y15427D01*
X59923Y15436D01*
X59917Y15446D01*
X59912Y15456D01*
X59907Y15468D01*
X59902Y15481D01*
X59898Y15494D01*
X59896Y15508D01*
X59894Y15523D01*
X59893Y15538D01*
Y15939D01*
Y15940D01*
Y15943D01*
Y15948D01*
X59894Y15953D01*
X59895Y15960D01*
X59896Y15969D01*
X59898Y15978D01*
X59901Y15988D01*
X59903Y15998D01*
X59907Y16010D01*
X59912Y16022D01*
X59918Y16034D01*
X59924Y16046D01*
X59932Y16058D01*
X59941Y16069D01*
X59951Y16080D01*
X59952Y16081D01*
X59954Y16083D01*
X59957Y16085D01*
X59962Y16090D01*
X59967Y16094D01*
X59974Y16099D01*
X59982Y16105D01*
X59991Y16110D01*
X60001Y16116D01*
X60011Y16121D01*
X60023Y16126D01*
X60036Y16130D01*
X60049Y16135D01*
X60063Y16137D01*
X60078Y16139D01*
X60093Y16140D01*
X60255D01*
X60259Y16139D01*
D02*
G37*
G36*
X60394Y19038D02*
X60401Y19037D01*
X60410Y19035D01*
X60419Y19034D01*
X60429Y19031D01*
X60440Y19029D01*
X60452Y19024D01*
X60463Y19020D01*
X60476Y19014D01*
X60487Y19007D01*
X60499Y19000D01*
X60511Y18991D01*
X60522Y18980D01*
X60523Y18980D01*
X60525Y18978D01*
X60527Y18974D01*
X60531Y18970D01*
X60536Y18964D01*
X60541Y18958D01*
X60546Y18950D01*
X60552Y18941D01*
X60557Y18931D01*
X60562Y18920D01*
X60567Y18909D01*
X60571Y18896D01*
X60575Y18883D01*
X60578Y18869D01*
X60580Y18854D01*
X60580Y18839D01*
Y18598D01*
Y18597D01*
Y18596D01*
Y18593D01*
Y18589D01*
X60580Y18585D01*
Y18579D01*
X60579Y18572D01*
X60578Y18564D01*
X60575Y18547D01*
X60570Y18527D01*
X60564Y18505D01*
X60557Y18481D01*
X60547Y18456D01*
X60534Y18430D01*
X60519Y18403D01*
X60500Y18376D01*
X60490Y18363D01*
X60478Y18349D01*
X60466Y18337D01*
X60453Y18324D01*
X60439Y18311D01*
X60424Y18299D01*
X60407Y18287D01*
X60390Y18276D01*
X60389D01*
X60388Y18274D01*
X60384Y18272D01*
X60380Y18270D01*
X60375Y18267D01*
X60369Y18264D01*
X60356Y18257D01*
X60342Y18250D01*
X60327Y18244D01*
X60312Y18239D01*
X60306Y18239D01*
X60300Y18238D01*
X60298D01*
X60295Y18239D01*
X60291Y18239D01*
X60282Y18243D01*
X60277Y18245D01*
X60273Y18250D01*
X60272Y18250D01*
X60271Y18252D01*
X60269Y18254D01*
X60267Y18257D01*
X60262Y18267D01*
X60262Y18272D01*
X60261Y18278D01*
Y18278D01*
Y18282D01*
X60262Y18287D01*
X60263Y18293D01*
X60266Y18299D01*
X60269Y18304D01*
X60273Y18309D01*
X60280Y18312D01*
X60281D01*
X60282Y18313D01*
X60288Y18315D01*
X60295Y18318D01*
X60306Y18322D01*
X60317Y18327D01*
X60329Y18333D01*
X60341Y18338D01*
X60353Y18345D01*
X60355Y18346D01*
X60359Y18349D01*
X60365Y18354D01*
X60373Y18360D01*
X60383Y18369D01*
X60394Y18378D01*
X60406Y18390D01*
X60419Y18404D01*
X60432Y18418D01*
X60444Y18434D01*
X60457Y18452D01*
X60468Y18470D01*
X60478Y18491D01*
X60487Y18512D01*
X60492Y18535D01*
X60497Y18558D01*
X60372D01*
X60366Y18559D01*
X60358Y18560D01*
X60350Y18562D01*
X60341Y18563D01*
X60331Y18566D01*
X60320Y18568D01*
X60309Y18573D01*
X60297Y18577D01*
X60285Y18583D01*
X60273Y18590D01*
X60262Y18597D01*
X60250Y18607D01*
X60239Y18617D01*
X60238Y18618D01*
X60236Y18619D01*
X60234Y18623D01*
X60229Y18627D01*
X60225Y18633D01*
X60220Y18640D01*
X60215Y18647D01*
X60210Y18656D01*
X60204Y18666D01*
X60199Y18677D01*
X60194Y18689D01*
X60190Y18701D01*
X60185Y18714D01*
X60183Y18728D01*
X60181Y18743D01*
X60180Y18758D01*
Y18838D01*
Y18839D01*
Y18842D01*
Y18847D01*
X60181Y18852D01*
X60182Y18859D01*
X60184Y18868D01*
X60185Y18877D01*
X60188Y18887D01*
X60190Y18898D01*
X60195Y18909D01*
X60199Y18921D01*
X60205Y18933D01*
X60212Y18945D01*
X60219Y18957D01*
X60229Y18969D01*
X60239Y18980D01*
X60240Y18980D01*
X60241Y18982D01*
X60245Y18985D01*
X60249Y18989D01*
X60255Y18993D01*
X60262Y18998D01*
X60269Y19004D01*
X60278Y19009D01*
X60288Y19015D01*
X60299Y19020D01*
X60311Y19025D01*
X60323Y19029D01*
X60336Y19034D01*
X60350Y19036D01*
X60365Y19038D01*
X60380Y19039D01*
X60388D01*
X60394Y19038D01*
D02*
G37*
G36*
X59986Y19039D02*
X59993Y19038D01*
X60000Y19035D01*
X60007Y19029D01*
X60014Y19023D01*
X60018Y19013D01*
X60020Y19006D01*
Y18999D01*
Y18997D01*
X60019Y18993D01*
X60018Y18986D01*
X60015Y18980D01*
X60010Y18972D01*
X60003Y18965D01*
X59993Y18961D01*
X59987Y18960D01*
X59980Y18959D01*
X59815D01*
X59812Y18958D01*
X59802Y18958D01*
X59790Y18955D01*
X59777Y18951D01*
X59763Y18944D01*
X59748Y18936D01*
X59735Y18924D01*
X59733Y18922D01*
X59730Y18918D01*
X59724Y18910D01*
X59718Y18900D01*
X59711Y18887D01*
X59705Y18873D01*
X59702Y18856D01*
X59700Y18838D01*
Y18438D01*
Y18437D01*
Y18436D01*
Y18433D01*
X59701Y18430D01*
X59702Y18420D01*
X59704Y18409D01*
X59708Y18395D01*
X59714Y18382D01*
X59723Y18366D01*
X59735Y18353D01*
X59736Y18351D01*
X59741Y18348D01*
X59748Y18342D01*
X59758Y18336D01*
X59771Y18329D01*
X59785Y18323D01*
X59802Y18320D01*
X59820Y18318D01*
X59982D01*
X59986Y18317D01*
X59993Y18316D01*
X60000Y18313D01*
X60007Y18308D01*
X60014Y18301D01*
X60018Y18291D01*
X60020Y18284D01*
Y18278D01*
Y18276D01*
X60019Y18272D01*
X60018Y18265D01*
X60015Y18258D01*
X60010Y18250D01*
X60003Y18244D01*
X59993Y18239D01*
X59987Y18239D01*
X59980Y18238D01*
X59812D01*
X59806Y18239D01*
X59799Y18239D01*
X59790Y18241D01*
X59781Y18243D01*
X59771Y18245D01*
X59760Y18248D01*
X59749Y18252D01*
X59737Y18256D01*
X59724Y18262D01*
X59713Y18269D01*
X59701Y18277D01*
X59689Y18286D01*
X59678Y18296D01*
X59677Y18297D01*
X59675Y18299D01*
X59673Y18302D01*
X59669Y18306D01*
X59664Y18312D01*
X59659Y18319D01*
X59654Y18327D01*
X59649Y18336D01*
X59643Y18346D01*
X59638Y18356D01*
X59633Y18368D01*
X59629Y18381D01*
X59625Y18394D01*
X59622Y18408D01*
X59620Y18423D01*
X59620Y18438D01*
Y18839D01*
Y18840D01*
Y18843D01*
Y18848D01*
X59620Y18853D01*
X59621Y18860D01*
X59623Y18869D01*
X59625Y18878D01*
X59627Y18888D01*
X59630Y18898D01*
X59634Y18910D01*
X59638Y18922D01*
X59644Y18934D01*
X59651Y18946D01*
X59658Y18958D01*
X59668Y18969D01*
X59678Y18980D01*
X59679Y18981D01*
X59680Y18983D01*
X59684Y18985D01*
X59688Y18990D01*
X59694Y18994D01*
X59701Y18999D01*
X59708Y19005D01*
X59718Y19010D01*
X59728Y19016D01*
X59738Y19021D01*
X59750Y19026D01*
X59763Y19030D01*
X59776Y19035D01*
X59790Y19037D01*
X59805Y19039D01*
X59820Y19040D01*
X59982D01*
X59986Y19039D01*
D02*
G37*
G36*
X45096Y26096D02*
X45103Y26094D01*
X45112Y26092D01*
X45123Y26088D01*
X45135Y26084D01*
X45148Y26077D01*
X45161Y26070D01*
X45175Y26059D01*
X45189Y26047D01*
X45202Y26032D01*
X45215Y26015D01*
X45227Y25994D01*
X45239Y25971D01*
X45244Y25957D01*
X45249Y25944D01*
X45250Y25943D01*
X45251Y25938D01*
X45253Y25933D01*
X45255Y25925D01*
X45258Y25915D01*
X45260Y25903D01*
X45264Y25889D01*
X45267Y25873D01*
X45271Y25856D01*
X45274Y25837D01*
X45277Y25817D01*
X45279Y25795D01*
X45282Y25772D01*
X45283Y25747D01*
X45285Y25722D01*
Y25696D01*
Y25694D01*
Y25689D01*
Y25682D01*
X45284Y25672D01*
Y25659D01*
X45283Y25645D01*
X45282Y25629D01*
X45281Y25611D01*
X45279Y25592D01*
X45277Y25572D01*
X45270Y25530D01*
X45261Y25488D01*
X45255Y25467D01*
X45249Y25447D01*
X45249Y25445D01*
X45247Y25440D01*
X45244Y25433D01*
X45239Y25423D01*
X45234Y25412D01*
X45227Y25399D01*
X45219Y25385D01*
X45210Y25371D01*
X45199Y25357D01*
X45187Y25343D01*
X45173Y25330D01*
X45158Y25319D01*
X45142Y25309D01*
X45124Y25302D01*
X45105Y25297D01*
X45095Y25296D01*
X45085Y25295D01*
X45079D01*
X45074Y25296D01*
X45066Y25297D01*
X45057Y25300D01*
X45046Y25303D01*
X45034Y25308D01*
X45021Y25314D01*
X45008Y25322D01*
X44995Y25332D01*
X44980Y25345D01*
X44967Y25359D01*
X44954Y25377D01*
X44942Y25397D01*
X44930Y25420D01*
X44925Y25434D01*
X44920Y25447D01*
Y25448D01*
X44918Y25452D01*
X44916Y25458D01*
X44915Y25466D01*
X44912Y25476D01*
X44909Y25488D01*
X44905Y25501D01*
X44903Y25517D01*
X44899Y25534D01*
X44896Y25554D01*
X44893Y25574D01*
X44890Y25596D01*
X44888Y25619D01*
X44887Y25643D01*
X44885Y25670D01*
Y25696D01*
Y25697D01*
Y25703D01*
Y25710D01*
X44886Y25720D01*
Y25732D01*
X44887Y25746D01*
X44887Y25763D01*
X44889Y25780D01*
X44891Y25800D01*
X44893Y25819D01*
X44899Y25861D01*
X44908Y25903D01*
X44914Y25923D01*
X44920Y25944D01*
Y25944D01*
X44920Y25945D01*
X44922Y25950D01*
X44926Y25958D01*
X44930Y25967D01*
X44935Y25979D01*
X44942Y25992D01*
X44950Y26006D01*
X44959Y26021D01*
X44970Y26034D01*
X44982Y26048D01*
X44996Y26061D01*
X45011Y26073D01*
X45027Y26082D01*
X45045Y26090D01*
X45064Y26095D01*
X45074Y26097D01*
X45090D01*
X45096Y26096D01*
D02*
G37*
G36*
X44690Y26095D02*
X44696Y26094D01*
X44704Y26091D01*
X44712Y26086D01*
X44718Y26079D01*
X44723Y26069D01*
X44723Y26062D01*
X44724Y26055D01*
Y25335D01*
Y25333D01*
X44723Y25329D01*
X44723Y25322D01*
X44719Y25315D01*
X44714Y25308D01*
X44707Y25301D01*
X44697Y25297D01*
X44690Y25296D01*
X44684Y25295D01*
X44682D01*
X44678Y25296D01*
X44671Y25297D01*
X44664Y25300D01*
X44657Y25305D01*
X44650Y25312D01*
X44646Y25322D01*
X44645Y25328D01*
X44644Y25335D01*
Y25959D01*
X44551Y25867D01*
X44550Y25866D01*
X44549Y25865D01*
X44547Y25863D01*
X44543Y25861D01*
X44535Y25856D01*
X44529Y25856D01*
X44523Y25855D01*
X44521D01*
X44517Y25856D01*
X44510Y25857D01*
X44503Y25860D01*
X44496Y25865D01*
X44489Y25872D01*
X44485Y25882D01*
X44484Y25889D01*
X44483Y25895D01*
Y25896D01*
Y25898D01*
X44484Y25901D01*
X44485Y25905D01*
X44488Y25914D01*
X44491Y25919D01*
X44495Y25923D01*
X44651Y26080D01*
X44652Y26081D01*
X44654Y26082D01*
X44657Y26085D01*
X44662Y26088D01*
X44672Y26093D01*
X44678Y26095D01*
X44684Y26096D01*
X44685D01*
X44690Y26095D01*
D02*
G37*
G36*
X44289Y26096D02*
X44296Y26095D01*
X44304Y26092D01*
X44311Y26087D01*
X44317Y26080D01*
X44322Y26070D01*
X44323Y26063D01*
Y26056D01*
Y26054D01*
X44322Y26050D01*
X44322Y26043D01*
X44318Y26037D01*
X44314Y26029D01*
X44306Y26022D01*
X44297Y26018D01*
X44290Y26017D01*
X44284Y26016D01*
X44119D01*
X44115Y26015D01*
X44106Y26015D01*
X44094Y26012D01*
X44081Y26008D01*
X44066Y26001D01*
X44052Y25993D01*
X44038Y25981D01*
X44037Y25979D01*
X44033Y25975D01*
X44027Y25967D01*
X44021Y25957D01*
X44015Y25944D01*
X44009Y25930D01*
X44005Y25913D01*
X44004Y25895D01*
Y25495D01*
Y25494D01*
Y25493D01*
Y25490D01*
X44004Y25487D01*
X44005Y25478D01*
X44008Y25466D01*
X44012Y25452D01*
X44018Y25439D01*
X44026Y25423D01*
X44038Y25410D01*
X44040Y25408D01*
X44045Y25405D01*
X44052Y25399D01*
X44062Y25393D01*
X44075Y25386D01*
X44089Y25380D01*
X44106Y25377D01*
X44124Y25375D01*
X44285D01*
X44289Y25374D01*
X44296Y25373D01*
X44304Y25370D01*
X44311Y25365D01*
X44317Y25358D01*
X44322Y25348D01*
X44323Y25341D01*
Y25335D01*
Y25333D01*
X44322Y25329D01*
X44322Y25322D01*
X44318Y25315D01*
X44314Y25308D01*
X44306Y25301D01*
X44297Y25297D01*
X44290Y25296D01*
X44284Y25295D01*
X44115D01*
X44109Y25296D01*
X44103Y25297D01*
X44094Y25298D01*
X44085Y25300D01*
X44075Y25302D01*
X44064Y25305D01*
X44053Y25309D01*
X44041Y25313D01*
X44028Y25319D01*
X44016Y25326D01*
X44004Y25334D01*
X43993Y25343D01*
X43982Y25353D01*
X43981Y25354D01*
X43979Y25356D01*
X43977Y25359D01*
X43972Y25363D01*
X43968Y25369D01*
X43963Y25376D01*
X43958Y25384D01*
X43953Y25393D01*
X43947Y25403D01*
X43942Y25413D01*
X43937Y25425D01*
X43933Y25438D01*
X43928Y25451D01*
X43926Y25465D01*
X43924Y25480D01*
X43923Y25495D01*
Y25896D01*
Y25897D01*
Y25900D01*
Y25905D01*
X43924Y25910D01*
X43925Y25917D01*
X43927Y25926D01*
X43928Y25935D01*
X43931Y25945D01*
X43933Y25955D01*
X43938Y25967D01*
X43942Y25979D01*
X43948Y25991D01*
X43954Y26003D01*
X43962Y26015D01*
X43971Y26026D01*
X43982Y26037D01*
X43982Y26038D01*
X43984Y26040D01*
X43987Y26043D01*
X43992Y26047D01*
X43998Y26051D01*
X44004Y26056D01*
X44012Y26062D01*
X44021Y26067D01*
X44031Y26073D01*
X44042Y26078D01*
X44053Y26083D01*
X44066Y26087D01*
X44080Y26092D01*
X44093Y26094D01*
X44108Y26096D01*
X44124Y26097D01*
X44285D01*
X44289Y26096D01*
D02*
G37*
G36*
X55262Y22982D02*
X55268Y22981D01*
X55275Y22978D01*
X55283Y22973D01*
X55290Y22966D01*
X55294Y22956D01*
X55295Y22949D01*
X55296Y22942D01*
Y22222D01*
Y22220D01*
X55295Y22216D01*
X55294Y22209D01*
X55291Y22202D01*
X55285Y22195D01*
X55279Y22188D01*
X55269Y22184D01*
X55262Y22183D01*
X55255Y22182D01*
X55253D01*
X55249Y22183D01*
X55242Y22184D01*
X55236Y22187D01*
X55228Y22192D01*
X55221Y22199D01*
X55217Y22209D01*
X55216Y22215D01*
X55215Y22222D01*
Y22846D01*
X55122Y22754D01*
X55121Y22753D01*
X55121Y22752D01*
X55118Y22750D01*
X55115Y22748D01*
X55106Y22744D01*
X55100Y22743D01*
X55094Y22742D01*
X55093D01*
X55088Y22743D01*
X55082Y22744D01*
X55075Y22747D01*
X55067Y22752D01*
X55061Y22759D01*
X55056Y22769D01*
X55055Y22776D01*
X55055Y22782D01*
Y22783D01*
Y22785D01*
X55055Y22788D01*
X55056Y22792D01*
X55060Y22801D01*
X55062Y22806D01*
X55066Y22810D01*
X55223Y22967D01*
X55224Y22968D01*
X55225Y22969D01*
X55229Y22972D01*
X55233Y22975D01*
X55243Y22980D01*
X55249Y22982D01*
X55255Y22983D01*
X55257D01*
X55262Y22982D01*
D02*
G37*
G36*
X54709Y22983D02*
X54715Y22982D01*
X54724Y22980D01*
X54733Y22979D01*
X54744Y22976D01*
X54754Y22974D01*
X54766Y22969D01*
X54778Y22965D01*
X54790Y22959D01*
X54802Y22952D01*
X54814Y22945D01*
X54825Y22936D01*
X54836Y22925D01*
X54837Y22925D01*
X54839Y22923D01*
X54841Y22919D01*
X54846Y22915D01*
X54850Y22909D01*
X54855Y22903D01*
X54860Y22895D01*
X54866Y22886D01*
X54871Y22875D01*
X54876Y22865D01*
X54881Y22853D01*
X54885Y22841D01*
X54890Y22827D01*
X54892Y22814D01*
X54894Y22799D01*
X54895Y22783D01*
Y22382D01*
Y22382D01*
Y22379D01*
Y22374D01*
X54894Y22368D01*
X54893Y22361D01*
X54891Y22353D01*
X54890Y22343D01*
X54887Y22333D01*
X54885Y22322D01*
X54880Y22311D01*
X54875Y22299D01*
X54870Y22287D01*
X54863Y22275D01*
X54855Y22263D01*
X54846Y22251D01*
X54836Y22240D01*
X54835Y22239D01*
X54833Y22238D01*
X54830Y22235D01*
X54825Y22231D01*
X54819Y22227D01*
X54813Y22222D01*
X54805Y22217D01*
X54796Y22212D01*
X54786Y22206D01*
X54775Y22201D01*
X54764Y22195D01*
X54751Y22191D01*
X54738Y22187D01*
X54724Y22184D01*
X54709Y22183D01*
X54694Y22182D01*
X54452D01*
X54448Y22183D01*
X54441Y22184D01*
X54435Y22187D01*
X54427Y22192D01*
X54420Y22199D01*
X54416Y22209D01*
X54415Y22215D01*
X54414Y22222D01*
Y22943D01*
Y22944D01*
Y22945D01*
X54415Y22950D01*
X54417Y22956D01*
X54419Y22963D01*
X54424Y22971D01*
X54431Y22978D01*
X54441Y22982D01*
X54447Y22983D01*
X54454Y22984D01*
X54703D01*
X54709Y22983D01*
D02*
G37*
G36*
X54068D02*
X54074Y22982D01*
X54083Y22980D01*
X54092Y22979D01*
X54103Y22976D01*
X54113Y22974D01*
X54125Y22969D01*
X54137Y22965D01*
X54149Y22959D01*
X54161Y22952D01*
X54172Y22945D01*
X54184Y22936D01*
X54195Y22925D01*
X54196Y22925D01*
X54198Y22923D01*
X54200Y22919D01*
X54205Y22915D01*
X54209Y22909D01*
X54214Y22903D01*
X54219Y22895D01*
X54225Y22886D01*
X54230Y22875D01*
X54235Y22865D01*
X54240Y22853D01*
X54244Y22841D01*
X54249Y22827D01*
X54251Y22814D01*
X54253Y22799D01*
X54254Y22783D01*
Y22382D01*
Y22382D01*
Y22379D01*
Y22374D01*
X54253Y22368D01*
X54252Y22361D01*
X54250Y22353D01*
X54249Y22343D01*
X54246Y22333D01*
X54243Y22322D01*
X54239Y22311D01*
X54234Y22299D01*
X54229Y22287D01*
X54221Y22275D01*
X54214Y22263D01*
X54205Y22251D01*
X54194Y22240D01*
X54194Y22239D01*
X54192Y22238D01*
X54188Y22235D01*
X54184Y22231D01*
X54178Y22227D01*
X54172Y22222D01*
X54164Y22217D01*
X54155Y22212D01*
X54145Y22206D01*
X54134Y22201D01*
X54122Y22195D01*
X54110Y22191D01*
X54097Y22187D01*
X54083Y22184D01*
X54068Y22183D01*
X54053Y22182D01*
X53811D01*
X53807Y22183D01*
X53800Y22184D01*
X53793Y22187D01*
X53786Y22192D01*
X53779Y22199D01*
X53775Y22209D01*
X53774Y22215D01*
X53773Y22222D01*
Y22943D01*
Y22944D01*
Y22945D01*
X53774Y22950D01*
X53776Y22956D01*
X53778Y22963D01*
X53783Y22971D01*
X53790Y22978D01*
X53800Y22982D01*
X53806Y22983D01*
X53813Y22984D01*
X54062D01*
X54068Y22983D01*
D02*
G37*
G36*
X69677Y9950D02*
X69688Y9949D01*
X69702Y9948D01*
X69717Y9948D01*
X69733Y9946D01*
X69750Y9943D01*
X69768Y9940D01*
X69804Y9932D01*
X69822Y9927D01*
X69839Y9921D01*
X69855Y9915D01*
X69869Y9907D01*
X69870Y9906D01*
X69873Y9904D01*
X69877Y9901D01*
X69881Y9897D01*
X69885Y9892D01*
X69890Y9886D01*
X69892Y9878D01*
X69893Y9871D01*
Y9870D01*
Y9868D01*
X69892Y9865D01*
X69891Y9860D01*
X69888Y9851D01*
X69885Y9847D01*
X69881Y9842D01*
X69880Y9841D01*
X69880Y9840D01*
X69877Y9838D01*
X69874Y9836D01*
X69864Y9832D01*
X69859Y9831D01*
X69853Y9830D01*
X69852D01*
X69848Y9831D01*
X69843Y9832D01*
X69836Y9834D01*
X69835Y9835D01*
X69831Y9836D01*
X69826Y9838D01*
X69819Y9840D01*
X69812Y9843D01*
X69802Y9846D01*
X69791Y9849D01*
X69779Y9853D01*
X69765Y9856D01*
X69751Y9859D01*
X69720Y9865D01*
X69687Y9869D01*
X69670Y9871D01*
X69648D01*
X69644Y9870D01*
X69635Y9869D01*
X69624Y9866D01*
X69611Y9862D01*
X69596Y9855D01*
X69582Y9847D01*
X69568Y9835D01*
X69567Y9833D01*
X69563Y9829D01*
X69557Y9822D01*
X69551Y9811D01*
X69545Y9799D01*
X69539Y9784D01*
X69535Y9767D01*
X69534Y9750D01*
Y9749D01*
Y9746D01*
X69534Y9743D01*
Y9738D01*
X69535Y9732D01*
X69537Y9724D01*
X69542Y9709D01*
X69545Y9700D01*
X69550Y9691D01*
X69555Y9683D01*
X69562Y9673D01*
X69568Y9665D01*
X69578Y9657D01*
X69587Y9650D01*
X69599Y9643D01*
X69824Y9528D01*
X69825Y9527D01*
X69829Y9525D01*
X69834Y9522D01*
X69841Y9517D01*
X69849Y9511D01*
X69858Y9503D01*
X69869Y9495D01*
X69879Y9484D01*
X69889Y9472D01*
X69899Y9460D01*
X69908Y9444D01*
X69917Y9428D01*
X69924Y9410D01*
X69929Y9392D01*
X69933Y9371D01*
X69934Y9349D01*
Y9348D01*
Y9345D01*
Y9341D01*
X69933Y9335D01*
X69932Y9328D01*
X69930Y9320D01*
X69929Y9311D01*
X69926Y9300D01*
X69924Y9289D01*
X69919Y9278D01*
X69914Y9267D01*
X69909Y9255D01*
X69902Y9242D01*
X69894Y9230D01*
X69885Y9218D01*
X69874Y9207D01*
X69874Y9207D01*
X69872Y9205D01*
X69869Y9202D01*
X69864Y9198D01*
X69858Y9194D01*
X69852Y9189D01*
X69843Y9184D01*
X69835Y9179D01*
X69825Y9173D01*
X69814Y9168D01*
X69803Y9163D01*
X69790Y9158D01*
X69776Y9154D01*
X69763Y9152D01*
X69748Y9150D01*
X69733Y9149D01*
X69726D01*
X69719Y9150D01*
X69709Y9151D01*
X69695Y9152D01*
X69680Y9153D01*
X69663Y9157D01*
X69645Y9160D01*
X69625Y9164D01*
X69604Y9170D01*
X69582Y9178D01*
X69560Y9185D01*
X69537Y9196D01*
X69514Y9207D01*
X69492Y9221D01*
X69470Y9236D01*
X69469Y9237D01*
X69468Y9239D01*
X69465Y9241D01*
X69462Y9246D01*
X69458Y9251D01*
X69456Y9256D01*
X69454Y9262D01*
X69453Y9269D01*
Y9270D01*
Y9272D01*
X69454Y9275D01*
X69455Y9278D01*
X69458Y9288D01*
X69461Y9293D01*
X69464Y9297D01*
X69465Y9298D01*
X69467Y9299D01*
X69469Y9300D01*
X69473Y9303D01*
X69481Y9307D01*
X69487Y9308D01*
X69493Y9309D01*
X69495D01*
X69500Y9308D01*
X69507Y9306D01*
X69516Y9302D01*
X69518Y9301D01*
X69519Y9300D01*
X69523Y9298D01*
X69526Y9296D01*
X69531Y9294D01*
X69536Y9290D01*
X69543Y9287D01*
X69551Y9284D01*
X69558Y9279D01*
X69567Y9275D01*
X69578Y9270D01*
X69588Y9264D01*
X69600Y9259D01*
X69612Y9253D01*
X69626Y9246D01*
X69627D01*
X69628Y9246D01*
X69631Y9245D01*
X69634Y9244D01*
X69639Y9242D01*
X69644Y9241D01*
X69658Y9238D01*
X69674Y9235D01*
X69693Y9232D01*
X69712Y9230D01*
X69733Y9229D01*
X69738D01*
X69742Y9230D01*
X69751Y9231D01*
X69762Y9234D01*
X69775Y9238D01*
X69790Y9244D01*
X69804Y9252D01*
X69818Y9264D01*
X69819Y9266D01*
X69824Y9271D01*
X69829Y9278D01*
X69836Y9288D01*
X69842Y9300D01*
X69847Y9315D01*
X69852Y9332D01*
X69853Y9350D01*
Y9350D01*
Y9353D01*
Y9356D01*
X69852Y9361D01*
X69852Y9367D01*
X69850Y9375D01*
X69845Y9391D01*
X69841Y9399D01*
X69837Y9408D01*
X69831Y9417D01*
X69825Y9426D01*
X69818Y9434D01*
X69808Y9443D01*
X69798Y9450D01*
X69786Y9457D01*
X69562Y9572D01*
X69561Y9573D01*
X69557Y9575D01*
X69551Y9578D01*
X69545Y9583D01*
X69536Y9589D01*
X69528Y9597D01*
X69518Y9605D01*
X69507Y9615D01*
X69497Y9627D01*
X69488Y9641D01*
X69479Y9655D01*
X69470Y9671D01*
X69463Y9689D01*
X69458Y9707D01*
X69454Y9728D01*
X69453Y9750D01*
Y9751D01*
Y9754D01*
Y9758D01*
X69454Y9764D01*
X69455Y9772D01*
X69457Y9779D01*
X69458Y9789D01*
X69461Y9799D01*
X69463Y9810D01*
X69468Y9821D01*
X69472Y9833D01*
X69478Y9844D01*
X69485Y9857D01*
X69492Y9869D01*
X69501Y9881D01*
X69512Y9892D01*
X69512Y9893D01*
X69514Y9894D01*
X69518Y9897D01*
X69522Y9901D01*
X69528Y9905D01*
X69534Y9910D01*
X69543Y9916D01*
X69551Y9921D01*
X69562Y9927D01*
X69573Y9932D01*
X69584Y9937D01*
X69596Y9942D01*
X69610Y9946D01*
X69623Y9948D01*
X69638Y9950D01*
X69653Y9951D01*
X69666D01*
X69677Y9950D01*
D02*
G37*
G36*
X70781Y9949D02*
X70788Y9948D01*
X70796Y9945D01*
X70802Y9940D01*
X70809Y9933D01*
X70813Y9923D01*
X70815Y9916D01*
Y9909D01*
Y9909D01*
Y9907D01*
Y9904D01*
X70814Y9900D01*
X70654Y9182D01*
Y9180D01*
X70653Y9177D01*
X70650Y9172D01*
X70647Y9166D01*
X70642Y9159D01*
X70634Y9154D01*
X70626Y9151D01*
X70615Y9149D01*
X70614D01*
X70610Y9150D01*
X70605Y9151D01*
X70598Y9153D01*
X70593Y9158D01*
X70586Y9163D01*
X70580Y9172D01*
X70575Y9183D01*
X70455Y9543D01*
X70335Y9183D01*
X70334Y9181D01*
X70332Y9178D01*
X70330Y9172D01*
X70325Y9166D01*
X70320Y9160D01*
X70313Y9154D01*
X70304Y9151D01*
X70294Y9149D01*
X70292D01*
X70289Y9150D01*
X70284Y9151D01*
X70277Y9153D01*
X70270Y9158D01*
X70264Y9163D01*
X70258Y9172D01*
X70254Y9183D01*
X70095Y9900D01*
Y9901D01*
X70094Y9904D01*
X70094Y9907D01*
Y9909D01*
Y9910D01*
Y9911D01*
X70094Y9916D01*
X70096Y9922D01*
X70099Y9930D01*
X70104Y9937D01*
X70110Y9944D01*
X70121Y9948D01*
X70127Y9949D01*
X70134Y9950D01*
X70136D01*
X70139Y9949D01*
X70144Y9948D01*
X70151Y9946D01*
X70158Y9942D01*
X70164Y9937D01*
X70170Y9929D01*
X70173Y9918D01*
X70302Y9338D01*
X70415Y9676D01*
X70416Y9678D01*
X70417Y9681D01*
X70420Y9687D01*
X70424Y9693D01*
X70429Y9699D01*
X70436Y9705D01*
X70445Y9708D01*
X70455Y9710D01*
X70456D01*
X70460Y9709D01*
X70464Y9708D01*
X70471Y9706D01*
X70477Y9701D01*
X70483Y9695D01*
X70489Y9687D01*
X70494Y9676D01*
X70607Y9339D01*
X70735Y9918D01*
Y9920D01*
X70737Y9923D01*
X70740Y9928D01*
X70743Y9934D01*
X70748Y9940D01*
X70756Y9945D01*
X70764Y9948D01*
X70775Y9950D01*
X70777D01*
X70781Y9949D01*
D02*
G37*
G36*
X71182D02*
X71188Y9948D01*
X71196Y9945D01*
X71203Y9940D01*
X71210Y9933D01*
X71214Y9923D01*
X71215Y9916D01*
X71216Y9909D01*
Y9189D01*
Y9187D01*
X71215Y9183D01*
X71214Y9176D01*
X71211Y9169D01*
X71206Y9162D01*
X71199Y9155D01*
X71189Y9151D01*
X71182Y9150D01*
X71175Y9149D01*
X71174D01*
X71169Y9150D01*
X71163Y9152D01*
X71156Y9154D01*
X71148Y9159D01*
X71142Y9166D01*
X71137Y9176D01*
X71136Y9182D01*
X71136Y9189D01*
Y9813D01*
X71043Y9721D01*
X71042Y9720D01*
X71041Y9719D01*
X71038Y9717D01*
X71035Y9715D01*
X71026Y9711D01*
X71021Y9710D01*
X71015Y9709D01*
X71013D01*
X71009Y9710D01*
X71002Y9712D01*
X70995Y9714D01*
X70988Y9719D01*
X70981Y9726D01*
X70977Y9736D01*
X70976Y9743D01*
X70975Y9750D01*
Y9750D01*
Y9752D01*
X70976Y9756D01*
X70977Y9759D01*
X70980Y9768D01*
X70982Y9773D01*
X70987Y9778D01*
X71143Y9934D01*
X71144Y9935D01*
X71146Y9937D01*
X71149Y9939D01*
X71153Y9942D01*
X71163Y9948D01*
X71169Y9949D01*
X71175Y9950D01*
X71177D01*
X71182Y9949D01*
D02*
G37*
G36*
X67785Y28181D02*
X67792Y28181D01*
X67800Y28177D01*
X67806Y28172D01*
X67813Y28165D01*
X67817Y28155D01*
X67819Y28148D01*
Y28142D01*
Y28141D01*
Y28140D01*
X67818Y28135D01*
X67817Y28127D01*
X67813Y28120D01*
X67587Y27781D01*
X67813Y27443D01*
Y27442D01*
X67814Y27441D01*
X67817Y27436D01*
X67818Y27429D01*
X67819Y27421D01*
Y27419D01*
X67818Y27415D01*
X67817Y27408D01*
X67814Y27402D01*
X67810Y27394D01*
X67802Y27387D01*
X67793Y27383D01*
X67786Y27382D01*
X67779Y27381D01*
X67776D01*
X67772Y27382D01*
X67767Y27384D01*
X67762Y27385D01*
X67757Y27388D01*
X67751Y27392D01*
X67746Y27398D01*
X67539Y27709D01*
X67332Y27398D01*
X67331Y27397D01*
X67329Y27396D01*
X67327Y27393D01*
X67323Y27390D01*
X67318Y27386D01*
X67313Y27384D01*
X67307Y27382D01*
X67299Y27381D01*
X67297D01*
X67293Y27382D01*
X67286Y27384D01*
X67279Y27386D01*
X67271Y27391D01*
X67265Y27398D01*
X67260Y27408D01*
X67259Y27414D01*
X67258Y27421D01*
Y27422D01*
Y27423D01*
X67259Y27429D01*
X67261Y27435D01*
X67265Y27443D01*
X67490Y27781D01*
X67265Y28120D01*
Y28120D01*
X67264Y28121D01*
X67262Y28126D01*
X67259Y28133D01*
X67258Y28142D01*
Y28142D01*
Y28143D01*
X67259Y28148D01*
X67261Y28154D01*
X67263Y28162D01*
X67269Y28170D01*
X67275Y28176D01*
X67285Y28181D01*
X67292Y28181D01*
X67299Y28182D01*
X67302D01*
X67307Y28181D01*
X67311Y28180D01*
X67317Y28178D01*
X67322Y28175D01*
X67327Y28170D01*
X67332Y28164D01*
X67539Y27854D01*
X67746Y28164D01*
X67747Y28165D01*
X67748Y28167D01*
X67751Y28170D01*
X67755Y28174D01*
X67759Y28176D01*
X67765Y28180D01*
X67772Y28181D01*
X67779Y28182D01*
X67781D01*
X67785Y28181D01*
D02*
G37*
G36*
X68836Y28182D02*
X68843Y28181D01*
X68851Y28180D01*
X68860Y28178D01*
X68870Y28175D01*
X68881Y28173D01*
X68893Y28169D01*
X68904Y28164D01*
X68917Y28159D01*
X68929Y28151D01*
X68941Y28143D01*
X68953Y28134D01*
X68964Y28124D01*
X68964Y28123D01*
X68966Y28121D01*
X68969Y28118D01*
X68973Y28114D01*
X68977Y28108D01*
X68982Y28101D01*
X68988Y28093D01*
X68993Y28084D01*
X68999Y28074D01*
X69004Y28063D01*
X69009Y28052D01*
X69013Y28039D01*
X69018Y28026D01*
X69020Y28012D01*
X69022Y27998D01*
X69023Y27983D01*
Y27982D01*
Y27978D01*
X69022Y27973D01*
Y27966D01*
X69020Y27957D01*
X69019Y27948D01*
X69016Y27937D01*
X69013Y27925D01*
X69008Y27912D01*
X69003Y27900D01*
X68997Y27886D01*
X68989Y27873D01*
X68980Y27859D01*
X68969Y27846D01*
X68957Y27834D01*
X68942Y27822D01*
X68943Y27821D01*
X68946Y27819D01*
X68950Y27816D01*
X68955Y27811D01*
X68961Y27805D01*
X68968Y27797D01*
X68975Y27789D01*
X68983Y27779D01*
X68990Y27768D01*
X68997Y27756D01*
X69004Y27742D01*
X69010Y27729D01*
X69015Y27713D01*
X69019Y27697D01*
X69022Y27680D01*
X69023Y27661D01*
Y27582D01*
Y27581D01*
Y27578D01*
Y27573D01*
X69022Y27567D01*
X69021Y27561D01*
X69019Y27552D01*
X69018Y27543D01*
X69015Y27533D01*
X69013Y27522D01*
X69008Y27511D01*
X69003Y27499D01*
X68998Y27486D01*
X68991Y27474D01*
X68983Y27462D01*
X68974Y27451D01*
X68964Y27440D01*
X68963Y27439D01*
X68961Y27437D01*
X68958Y27434D01*
X68953Y27430D01*
X68947Y27426D01*
X68941Y27421D01*
X68932Y27416D01*
X68924Y27411D01*
X68914Y27405D01*
X68903Y27400D01*
X68891Y27395D01*
X68879Y27390D01*
X68865Y27386D01*
X68851Y27384D01*
X68837Y27382D01*
X68821Y27381D01*
X68660D01*
X68656Y27382D01*
X68649Y27384D01*
X68642Y27386D01*
X68634Y27391D01*
X68628Y27398D01*
X68624Y27408D01*
X68623Y27414D01*
X68622Y27421D01*
Y27422D01*
Y27423D01*
X68623Y27428D01*
X68624Y27434D01*
X68627Y27441D01*
X68632Y27449D01*
X68639Y27456D01*
X68649Y27460D01*
X68655Y27461D01*
X68662Y27462D01*
X68826D01*
X68830Y27462D01*
X68839Y27463D01*
X68851Y27466D01*
X68865Y27470D01*
X68879Y27476D01*
X68893Y27484D01*
X68907Y27496D01*
X68909Y27498D01*
X68913Y27502D01*
X68918Y27510D01*
X68925Y27520D01*
X68931Y27533D01*
X68936Y27547D01*
X68941Y27563D01*
X68942Y27582D01*
Y27661D01*
Y27662D01*
Y27664D01*
Y27666D01*
X68942Y27670D01*
X68941Y27679D01*
X68938Y27691D01*
X68934Y27704D01*
X68927Y27719D01*
X68919Y27733D01*
X68907Y27747D01*
X68905Y27748D01*
X68901Y27753D01*
X68893Y27758D01*
X68883Y27764D01*
X68870Y27771D01*
X68856Y27776D01*
X68839Y27780D01*
X68821Y27782D01*
X68740D01*
X68736Y27783D01*
X68729Y27785D01*
X68722Y27787D01*
X68714Y27792D01*
X68708Y27799D01*
X68703Y27809D01*
X68702Y27815D01*
X68701Y27822D01*
Y27823D01*
Y27824D01*
X68702Y27829D01*
X68704Y27835D01*
X68706Y27842D01*
X68711Y27850D01*
X68718Y27857D01*
X68728Y27861D01*
X68735Y27862D01*
X68742Y27862D01*
X68826D01*
X68830Y27863D01*
X68839Y27864D01*
X68851Y27867D01*
X68865Y27871D01*
X68879Y27877D01*
X68893Y27885D01*
X68907Y27897D01*
X68909Y27899D01*
X68913Y27903D01*
X68918Y27911D01*
X68925Y27921D01*
X68931Y27934D01*
X68936Y27948D01*
X68941Y27964D01*
X68942Y27983D01*
Y27983D01*
Y27985D01*
Y27988D01*
X68942Y27991D01*
X68941Y28000D01*
X68938Y28011D01*
X68934Y28025D01*
X68927Y28039D01*
X68919Y28054D01*
X68907Y28067D01*
X68905Y28069D01*
X68901Y28073D01*
X68893Y28078D01*
X68883Y28085D01*
X68870Y28092D01*
X68856Y28097D01*
X68839Y28101D01*
X68821Y28103D01*
X68660D01*
X68656Y28104D01*
X68649Y28105D01*
X68642Y28108D01*
X68634Y28113D01*
X68628Y28120D01*
X68624Y28130D01*
X68623Y28136D01*
X68622Y28142D01*
Y28143D01*
Y28144D01*
X68623Y28149D01*
X68624Y28155D01*
X68627Y28163D01*
X68632Y28170D01*
X68639Y28177D01*
X68649Y28181D01*
X68655Y28182D01*
X68662Y28183D01*
X68830D01*
X68836Y28182D01*
D02*
G37*
G36*
X68230D02*
X68238D01*
X68246Y28181D01*
X68256Y28180D01*
X68267Y28177D01*
X68279Y28175D01*
X68293Y28170D01*
X68306Y28166D01*
X68321Y28160D01*
X68335Y28153D01*
X68349Y28146D01*
X68364Y28136D01*
X68377Y28126D01*
X68391Y28113D01*
X68392Y28112D01*
X68394Y28109D01*
X68398Y28106D01*
X68402Y28100D01*
X68407Y28093D01*
X68413Y28085D01*
X68420Y28076D01*
X68426Y28065D01*
X68432Y28054D01*
X68439Y28040D01*
X68445Y28027D01*
X68450Y28011D01*
X68454Y27995D01*
X68458Y27978D01*
X68460Y27961D01*
X68461Y27942D01*
Y27941D01*
Y27937D01*
Y27932D01*
X68460Y27924D01*
X68459Y27915D01*
X68458Y27905D01*
X68455Y27893D01*
X68453Y27880D01*
X68449Y27867D01*
X68445Y27853D01*
X68439Y27839D01*
X68433Y27824D01*
X68426Y27809D01*
X68416Y27796D01*
X68406Y27781D01*
X68394Y27769D01*
X68393Y27768D01*
X68391Y27766D01*
X68388Y27763D01*
X68382Y27758D01*
X68376Y27753D01*
X68367Y27747D01*
X68358Y27742D01*
X68348Y27736D01*
X68336Y27729D01*
X68322Y27723D01*
X68308Y27717D01*
X68293Y27712D01*
X68277Y27708D01*
X68259Y27704D01*
X68240Y27703D01*
X68221Y27702D01*
X68061D01*
Y27421D01*
Y27419D01*
X68060Y27415D01*
X68059Y27408D01*
X68056Y27402D01*
X68051Y27394D01*
X68044Y27387D01*
X68034Y27383D01*
X68027Y27382D01*
X68020Y27381D01*
X68019D01*
X68015Y27382D01*
X68008Y27384D01*
X68001Y27386D01*
X67993Y27391D01*
X67987Y27398D01*
X67982Y27408D01*
X67982Y27414D01*
X67981Y27421D01*
Y28142D01*
Y28143D01*
Y28144D01*
X67982Y28149D01*
X67983Y28155D01*
X67986Y28163D01*
X67991Y28170D01*
X67998Y28177D01*
X68008Y28181D01*
X68014Y28182D01*
X68020Y28183D01*
X68225D01*
X68230Y28182D01*
D02*
G37*
G36*
X36324Y15718D02*
X36329Y15717D01*
X36337Y15714D01*
X36345Y15708D01*
X36351Y15702D01*
X36356Y15692D01*
X36356Y15685D01*
X36357Y15678D01*
Y14957D01*
Y14956D01*
X36356Y14951D01*
X36356Y14945D01*
X36352Y14938D01*
X36347Y14930D01*
X36340Y14924D01*
X36330Y14919D01*
X36324Y14918D01*
X36317Y14918D01*
X36315D01*
X36311Y14918D01*
X36304Y14920D01*
X36297Y14923D01*
X36290Y14928D01*
X36283Y14935D01*
X36279Y14945D01*
X36278Y14951D01*
X36277Y14957D01*
Y15582D01*
X36184Y15489D01*
X36183Y15489D01*
X36182Y15488D01*
X36180Y15486D01*
X36176Y15484D01*
X36168Y15479D01*
X36162Y15478D01*
X36156Y15478D01*
X36154D01*
X36150Y15478D01*
X36143Y15480D01*
X36137Y15483D01*
X36129Y15488D01*
X36122Y15495D01*
X36118Y15505D01*
X36117Y15511D01*
X36116Y15518D01*
Y15519D01*
Y15521D01*
X36117Y15524D01*
X36118Y15527D01*
X36121Y15537D01*
X36124Y15542D01*
X36128Y15546D01*
X36285Y15703D01*
X36285Y15703D01*
X36287Y15705D01*
X36291Y15708D01*
X36295Y15711D01*
X36305Y15716D01*
X36311Y15718D01*
X36317Y15719D01*
X36318D01*
X36324Y15718D01*
D02*
G37*
G36*
X35725Y15719D02*
X35733D01*
X35742Y15717D01*
X35752Y15716D01*
X35763Y15714D01*
X35775Y15711D01*
X35788Y15707D01*
X35802Y15703D01*
X35816Y15697D01*
X35830Y15690D01*
X35845Y15682D01*
X35859Y15672D01*
X35873Y15662D01*
X35886Y15649D01*
X35887Y15648D01*
X35890Y15646D01*
X35893Y15643D01*
X35897Y15637D01*
X35902Y15630D01*
X35908Y15621D01*
X35915Y15612D01*
X35922Y15602D01*
X35928Y15590D01*
X35934Y15577D01*
X35940Y15563D01*
X35945Y15548D01*
X35950Y15532D01*
X35953Y15515D01*
X35956Y15497D01*
X35956Y15478D01*
Y15158D01*
Y15157D01*
Y15156D01*
Y15154D01*
Y15150D01*
X35956Y15142D01*
X35955Y15131D01*
X35952Y15117D01*
X35950Y15102D01*
X35945Y15086D01*
X35939Y15070D01*
X36022Y14986D01*
X36023Y14985D01*
X36025Y14984D01*
X36027Y14981D01*
X36029Y14978D01*
X36034Y14968D01*
X36035Y14962D01*
X36036Y14957D01*
Y14955D01*
X36035Y14951D01*
X36034Y14944D01*
X36031Y14937D01*
X36027Y14930D01*
X36019Y14924D01*
X36010Y14919D01*
X36003Y14918D01*
X35996Y14918D01*
X35993D01*
X35989Y14918D01*
X35985Y14919D01*
X35976Y14923D01*
X35971Y14925D01*
X35966Y14929D01*
X35896Y14999D01*
X35896Y14998D01*
X35893Y14995D01*
X35889Y14991D01*
X35884Y14986D01*
X35877Y14980D01*
X35868Y14973D01*
X35858Y14966D01*
X35847Y14958D01*
X35835Y14951D01*
X35821Y14943D01*
X35807Y14936D01*
X35791Y14930D01*
X35774Y14925D01*
X35755Y14921D01*
X35736Y14918D01*
X35716Y14918D01*
X35712D01*
X35707Y14918D01*
X35699D01*
X35691Y14920D01*
X35681Y14921D01*
X35670Y14924D01*
X35658Y14926D01*
X35644Y14930D01*
X35631Y14935D01*
X35616Y14941D01*
X35602Y14947D01*
X35588Y14956D01*
X35573Y14965D01*
X35560Y14975D01*
X35546Y14988D01*
X35545Y14989D01*
X35543Y14991D01*
X35539Y14995D01*
X35535Y15001D01*
X35530Y15007D01*
X35524Y15016D01*
X35517Y15025D01*
X35512Y15035D01*
X35505Y15047D01*
X35498Y15061D01*
X35492Y15074D01*
X35487Y15089D01*
X35483Y15105D01*
X35479Y15122D01*
X35477Y15139D01*
X35476Y15158D01*
Y15478D01*
Y15479D01*
Y15483D01*
X35477Y15488D01*
Y15495D01*
X35479Y15504D01*
X35479Y15514D01*
X35482Y15525D01*
X35484Y15537D01*
X35489Y15550D01*
X35493Y15564D01*
X35499Y15578D01*
X35506Y15593D01*
X35514Y15607D01*
X35523Y15621D01*
X35534Y15635D01*
X35546Y15648D01*
X35547Y15649D01*
X35550Y15652D01*
X35553Y15655D01*
X35559Y15659D01*
X35566Y15665D01*
X35574Y15671D01*
X35583Y15677D01*
X35594Y15684D01*
X35605Y15691D01*
X35619Y15697D01*
X35632Y15703D01*
X35648Y15708D01*
X35664Y15713D01*
X35681Y15716D01*
X35698Y15719D01*
X35716Y15719D01*
X35720D01*
X35725Y15719D01*
D02*
G37*
G36*
X35281D02*
X35287Y15718D01*
X35295Y15714D01*
X35303Y15710D01*
X35309Y15703D01*
X35314Y15693D01*
X35314Y15687D01*
X35315Y15680D01*
Y15679D01*
Y15678D01*
Y15676D01*
X35314Y15672D01*
X35312Y15665D01*
X35307Y15654D01*
X34943Y14998D01*
X35276D01*
X35281Y14997D01*
X35287Y14996D01*
X35295Y14993D01*
X35303Y14988D01*
X35309Y14981D01*
X35314Y14971D01*
X35314Y14964D01*
X35315Y14957D01*
Y14956D01*
X35314Y14951D01*
X35314Y14945D01*
X35310Y14938D01*
X35305Y14930D01*
X35298Y14924D01*
X35288Y14919D01*
X35281Y14918D01*
X35275Y14918D01*
X34873D01*
X34869Y14918D01*
X34862Y14920D01*
X34854Y14923D01*
X34847Y14928D01*
X34841Y14935D01*
X34836Y14945D01*
X34835Y14951D01*
X34834Y14957D01*
Y14958D01*
Y14959D01*
X34835Y14964D01*
X34837Y14972D01*
X34842Y14982D01*
X35207Y15639D01*
X34873D01*
X34869Y15640D01*
X34862Y15642D01*
X34854Y15644D01*
X34847Y15649D01*
X34841Y15656D01*
X34836Y15666D01*
X34835Y15672D01*
X34834Y15679D01*
Y15680D01*
Y15681D01*
X34835Y15686D01*
X34837Y15692D01*
X34839Y15699D01*
X34844Y15707D01*
X34851Y15714D01*
X34861Y15718D01*
X34868Y15719D01*
X34875Y15719D01*
X35276D01*
X35281Y15719D01*
D02*
G37*
G36*
X39963Y17644D02*
X39970Y17643D01*
X39977Y17640D01*
X39984Y17635D01*
X39991Y17628D01*
X39995Y17618D01*
X39996Y17611D01*
X39997Y17604D01*
Y17525D01*
X40117D01*
X40119D01*
X40123Y17524D01*
X40130Y17523D01*
X40136Y17520D01*
X40144Y17515D01*
X40151Y17508D01*
X40155Y17498D01*
X40156Y17491D01*
X40157Y17484D01*
Y17483D01*
X40156Y17478D01*
X40154Y17472D01*
X40152Y17465D01*
X40147Y17457D01*
X40140Y17450D01*
X40130Y17446D01*
X40124Y17445D01*
X40117Y17445D01*
X39997D01*
Y17202D01*
X39996Y17198D01*
X39994Y17191D01*
X39992Y17184D01*
X39987Y17176D01*
X39980Y17170D01*
X39970Y17165D01*
X39964Y17165D01*
X39957Y17164D01*
X39956D01*
X39953D01*
X39950D01*
X39946Y17165D01*
X39385Y17325D01*
X39384Y17326D01*
X39380Y17327D01*
X39376Y17330D01*
X39370Y17334D01*
X39365Y17339D01*
X39360Y17346D01*
X39357Y17354D01*
X39356Y17364D01*
Y17366D01*
X39357Y17370D01*
X39357Y17377D01*
X39361Y17385D01*
X39366Y17391D01*
X39373Y17398D01*
X39383Y17402D01*
X39390Y17404D01*
X39396D01*
X39397D01*
X39400D01*
X39403Y17403D01*
X39407Y17402D01*
X39917Y17257D01*
Y17445D01*
X39796D01*
X39796D01*
X39795D01*
X39791Y17445D01*
X39784Y17447D01*
X39776Y17450D01*
X39769Y17455D01*
X39763Y17461D01*
X39758Y17472D01*
X39757Y17478D01*
Y17486D01*
X39758Y17491D01*
X39758Y17497D01*
X39762Y17505D01*
X39766Y17512D01*
X39774Y17519D01*
X39783Y17523D01*
X39790Y17524D01*
X39796Y17525D01*
X39917D01*
Y17606D01*
X39917Y17611D01*
X39918Y17617D01*
X39922Y17625D01*
X39927Y17632D01*
X39933Y17639D01*
X39944Y17643D01*
X39950Y17644D01*
X39957Y17645D01*
X39959D01*
X39963Y17644D01*
D02*
G37*
G36*
X40123Y17003D02*
X40130Y17002D01*
X40136Y16999D01*
X40144Y16995D01*
X40151Y16987D01*
X40155Y16978D01*
X40156Y16971D01*
X40157Y16964D01*
Y16796D01*
X40156Y16790D01*
X40155Y16783D01*
X40153Y16775D01*
X40152Y16765D01*
X40149Y16755D01*
X40147Y16744D01*
X40142Y16733D01*
X40138Y16721D01*
X40132Y16709D01*
X40125Y16697D01*
X40118Y16685D01*
X40109Y16673D01*
X40098Y16662D01*
X40098Y16661D01*
X40096Y16660D01*
X40093Y16657D01*
X40088Y16653D01*
X40082Y16649D01*
X40076Y16644D01*
X40068Y16638D01*
X40059Y16633D01*
X40049Y16627D01*
X40038Y16622D01*
X40027Y16617D01*
X40014Y16613D01*
X40000Y16609D01*
X39987Y16606D01*
X39972Y16605D01*
X39956Y16604D01*
X39555D01*
X39555D01*
X39552D01*
X39547D01*
X39542Y16605D01*
X39534Y16605D01*
X39526Y16607D01*
X39517Y16609D01*
X39506Y16611D01*
X39496Y16614D01*
X39484Y16618D01*
X39473Y16622D01*
X39461Y16628D01*
X39449Y16635D01*
X39437Y16643D01*
X39425Y16652D01*
X39414Y16662D01*
X39413Y16663D01*
X39412Y16665D01*
X39409Y16668D01*
X39405Y16672D01*
X39401Y16678D01*
X39396Y16685D01*
X39390Y16693D01*
X39385Y16702D01*
X39379Y16712D01*
X39374Y16722D01*
X39368Y16734D01*
X39364Y16747D01*
X39360Y16760D01*
X39357Y16774D01*
X39356Y16789D01*
X39355Y16804D01*
Y16966D01*
X39356Y16970D01*
X39357Y16977D01*
X39360Y16984D01*
X39365Y16991D01*
X39372Y16998D01*
X39382Y17002D01*
X39389Y17004D01*
X39396D01*
X39397D01*
X39401Y17003D01*
X39408Y17002D01*
X39415Y16999D01*
X39423Y16995D01*
X39429Y16987D01*
X39434Y16978D01*
X39434Y16971D01*
X39435Y16964D01*
Y16799D01*
X39436Y16796D01*
X39437Y16787D01*
X39440Y16775D01*
X39444Y16761D01*
X39451Y16747D01*
X39459Y16732D01*
X39471Y16719D01*
X39473Y16717D01*
X39477Y16714D01*
X39484Y16708D01*
X39495Y16702D01*
X39507Y16695D01*
X39522Y16689D01*
X39539Y16686D01*
X39556Y16684D01*
X39956D01*
X39957D01*
X39959D01*
X39961D01*
X39965Y16685D01*
X39974Y16686D01*
X39986Y16688D01*
X39999Y16693D01*
X40013Y16699D01*
X40028Y16707D01*
X40042Y16719D01*
X40043Y16721D01*
X40047Y16726D01*
X40053Y16732D01*
X40059Y16743D01*
X40065Y16755D01*
X40071Y16770D01*
X40075Y16787D01*
X40076Y16804D01*
Y16966D01*
X40077Y16970D01*
X40078Y16977D01*
X40082Y16984D01*
X40087Y16991D01*
X40093Y16998D01*
X40104Y17002D01*
X40110Y17004D01*
X40117D01*
X40119D01*
X40123Y17003D01*
D02*
G37*
G36*
X58654Y36000D02*
X58662Y35999D01*
X58670Y35998D01*
X58680Y35996D01*
X58690Y35993D01*
X58700Y35991D01*
X58712Y35987D01*
X58724Y35981D01*
X58735Y35976D01*
X58747Y35969D01*
X58759Y35961D01*
X58771Y35952D01*
X58782Y35942D01*
X58783Y35941D01*
X58785Y35939D01*
X58787Y35936D01*
X58791Y35932D01*
X58796Y35926D01*
X58801Y35919D01*
X58806Y35911D01*
X58812Y35902D01*
X58817Y35893D01*
X58823Y35882D01*
X58828Y35870D01*
X58832Y35857D01*
X58836Y35844D01*
X58839Y35830D01*
X58840Y35816D01*
X58841Y35800D01*
Y35800D01*
Y35798D01*
Y35795D01*
X58840Y35790D01*
Y35785D01*
X58839Y35779D01*
X58838Y35773D01*
X58837Y35764D01*
X58833Y35747D01*
X58826Y35728D01*
X58817Y35707D01*
X58812Y35696D01*
X58805Y35685D01*
X58552Y35279D01*
X58803D01*
X58807Y35279D01*
X58814Y35278D01*
X58822Y35274D01*
X58828Y35269D01*
X58835Y35263D01*
X58839Y35252D01*
X58841Y35246D01*
Y35239D01*
Y35237D01*
X58840Y35233D01*
X58839Y35226D01*
X58836Y35219D01*
X58832Y35212D01*
X58824Y35205D01*
X58815Y35201D01*
X58808Y35200D01*
X58801Y35199D01*
X58479D01*
X58475Y35200D01*
X58468Y35202D01*
X58461Y35204D01*
X58453Y35209D01*
X58447Y35216D01*
X58442Y35226D01*
X58441Y35232D01*
X58440Y35239D01*
Y35240D01*
Y35241D01*
X58441Y35246D01*
X58443Y35253D01*
X58447Y35262D01*
X58741Y35734D01*
X58742Y35735D01*
X58745Y35740D01*
X58747Y35745D01*
X58752Y35754D01*
X58755Y35764D01*
X58757Y35775D01*
X58760Y35787D01*
X58761Y35800D01*
Y35800D01*
Y35802D01*
Y35805D01*
X58760Y35808D01*
X58759Y35817D01*
X58757Y35829D01*
X58752Y35843D01*
X58746Y35857D01*
X58737Y35872D01*
X58725Y35885D01*
X58724Y35887D01*
X58719Y35891D01*
X58712Y35896D01*
X58702Y35903D01*
X58690Y35910D01*
X58675Y35915D01*
X58658Y35919D01*
X58641Y35921D01*
X58637D01*
X58634Y35920D01*
X58629Y35919D01*
X58623Y35917D01*
X58616Y35915D01*
X58609Y35912D01*
X58600Y35908D01*
X58590Y35903D01*
X58581Y35896D01*
X58570Y35888D01*
X58560Y35877D01*
X58549Y35866D01*
X58538Y35853D01*
X58527Y35837D01*
X58516Y35819D01*
X58515Y35818D01*
X58514Y35816D01*
X58510Y35813D01*
X58507Y35810D01*
X58502Y35806D01*
X58496Y35803D01*
X58489Y35800D01*
X58481Y35800D01*
X58479D01*
X58475Y35800D01*
X58468Y35802D01*
X58461Y35805D01*
X58453Y35810D01*
X58447Y35817D01*
X58442Y35827D01*
X58441Y35833D01*
X58440Y35840D01*
Y35841D01*
Y35842D01*
X58441Y35846D01*
X58442Y35851D01*
X58444Y35856D01*
Y35857D01*
X58445Y35858D01*
X58448Y35862D01*
X58452Y35870D01*
X58458Y35879D01*
X58466Y35890D01*
X58474Y35902D01*
X58485Y35915D01*
X58497Y35929D01*
X58510Y35942D01*
X58525Y35955D01*
X58541Y35967D01*
X58559Y35978D01*
X58577Y35987D01*
X58598Y35995D01*
X58619Y35999D01*
X58630Y36001D01*
X58649D01*
X58654Y36000D01*
D02*
G37*
G36*
X58094D02*
X58101Y35999D01*
X58110Y35998D01*
X58119Y35996D01*
X58130Y35993D01*
X58140Y35991D01*
X58152Y35987D01*
X58164Y35982D01*
X58176Y35976D01*
X58187Y35970D01*
X58199Y35962D01*
X58211Y35953D01*
X58222Y35943D01*
X58223Y35942D01*
X58225Y35940D01*
X58227Y35937D01*
X58231Y35932D01*
X58236Y35926D01*
X58241Y35920D01*
X58246Y35912D01*
X58252Y35903D01*
X58257Y35893D01*
X58262Y35882D01*
X58267Y35871D01*
X58271Y35858D01*
X58275Y35844D01*
X58278Y35831D01*
X58280Y35816D01*
X58280Y35800D01*
Y35400D01*
Y35399D01*
Y35396D01*
Y35391D01*
X58280Y35385D01*
X58279Y35378D01*
X58277Y35370D01*
X58275Y35361D01*
X58273Y35350D01*
X58270Y35339D01*
X58266Y35328D01*
X58261Y35317D01*
X58256Y35304D01*
X58248Y35292D01*
X58241Y35280D01*
X58231Y35268D01*
X58221Y35257D01*
X58220Y35257D01*
X58219Y35255D01*
X58215Y35252D01*
X58211Y35248D01*
X58205Y35244D01*
X58198Y35239D01*
X58191Y35234D01*
X58181Y35229D01*
X58172Y35223D01*
X58161Y35218D01*
X58149Y35213D01*
X58137Y35208D01*
X58124Y35204D01*
X58110Y35202D01*
X58095Y35200D01*
X58080Y35199D01*
X57838D01*
X57834Y35200D01*
X57827Y35202D01*
X57820Y35204D01*
X57813Y35209D01*
X57806Y35216D01*
X57802Y35226D01*
X57801Y35232D01*
X57800Y35239D01*
Y35960D01*
Y35961D01*
Y35962D01*
X57801Y35967D01*
X57803Y35973D01*
X57805Y35981D01*
X57810Y35988D01*
X57817Y35995D01*
X57827Y35999D01*
X57833Y36000D01*
X57840Y36001D01*
X58088D01*
X58094Y36000D01*
D02*
G37*
G36*
X57453D02*
X57460Y35999D01*
X57468Y35998D01*
X57478Y35996D01*
X57489Y35993D01*
X57499Y35991D01*
X57511Y35987D01*
X57523Y35982D01*
X57534Y35976D01*
X57546Y35970D01*
X57558Y35962D01*
X57570Y35953D01*
X57581Y35943D01*
X57582Y35942D01*
X57583Y35940D01*
X57586Y35937D01*
X57590Y35932D01*
X57594Y35926D01*
X57600Y35920D01*
X57605Y35912D01*
X57611Y35903D01*
X57616Y35893D01*
X57621Y35882D01*
X57626Y35871D01*
X57630Y35858D01*
X57634Y35844D01*
X57637Y35831D01*
X57638Y35816D01*
X57639Y35800D01*
Y35400D01*
Y35399D01*
Y35396D01*
Y35391D01*
X57638Y35385D01*
X57638Y35378D01*
X57636Y35370D01*
X57634Y35361D01*
X57632Y35350D01*
X57629Y35339D01*
X57625Y35328D01*
X57620Y35317D01*
X57615Y35304D01*
X57607Y35292D01*
X57600Y35280D01*
X57590Y35268D01*
X57580Y35257D01*
X57579Y35257D01*
X57578Y35255D01*
X57574Y35252D01*
X57570Y35248D01*
X57564Y35244D01*
X57557Y35239D01*
X57550Y35234D01*
X57540Y35229D01*
X57531Y35223D01*
X57520Y35218D01*
X57508Y35213D01*
X57495Y35208D01*
X57483Y35204D01*
X57468Y35202D01*
X57454Y35200D01*
X57439Y35199D01*
X57197D01*
X57193Y35200D01*
X57186Y35202D01*
X57179Y35204D01*
X57172Y35209D01*
X57165Y35216D01*
X57161Y35226D01*
X57160Y35232D01*
X57159Y35239D01*
Y35960D01*
Y35961D01*
Y35962D01*
X57160Y35967D01*
X57161Y35973D01*
X57164Y35981D01*
X57169Y35988D01*
X57176Y35995D01*
X57186Y35999D01*
X57192Y36000D01*
X57199Y36001D01*
X57447D01*
X57453Y36000D01*
D02*
G37*
G36*
X58307Y26001D02*
X58313Y26000D01*
X58320Y25997D01*
X58328Y25992D01*
X58335Y25985D01*
X58339Y25975D01*
X58340Y25968D01*
X58341Y25961D01*
Y25241D01*
Y25239D01*
X58340Y25235D01*
X58339Y25228D01*
X58336Y25221D01*
X58331Y25214D01*
X58324Y25207D01*
X58314Y25203D01*
X58307Y25202D01*
X58300Y25201D01*
X58298D01*
X58294Y25202D01*
X58287Y25203D01*
X58281Y25206D01*
X58273Y25211D01*
X58266Y25218D01*
X58262Y25228D01*
X58261Y25234D01*
X58260Y25241D01*
Y25865D01*
X58167Y25773D01*
X58166Y25772D01*
X58166Y25771D01*
X58163Y25769D01*
X58160Y25767D01*
X58151Y25762D01*
X58145Y25762D01*
X58139Y25761D01*
X58138D01*
X58133Y25762D01*
X58127Y25763D01*
X58120Y25766D01*
X58112Y25771D01*
X58106Y25778D01*
X58101Y25788D01*
X58100Y25795D01*
X58100Y25801D01*
Y25802D01*
Y25804D01*
X58100Y25807D01*
X58101Y25811D01*
X58105Y25820D01*
X58107Y25825D01*
X58111Y25829D01*
X58268Y25986D01*
X58269Y25987D01*
X58270Y25988D01*
X58274Y25991D01*
X58278Y25994D01*
X58288Y25999D01*
X58294Y26001D01*
X58300Y26002D01*
X58302D01*
X58307Y26001D01*
D02*
G37*
G36*
X57709Y26002D02*
X57716D01*
X57725Y26000D01*
X57735Y25999D01*
X57746Y25997D01*
X57758Y25994D01*
X57771Y25990D01*
X57785Y25986D01*
X57799Y25980D01*
X57814Y25973D01*
X57828Y25965D01*
X57842Y25955D01*
X57856Y25945D01*
X57870Y25932D01*
X57870Y25932D01*
X57873Y25929D01*
X57876Y25926D01*
X57881Y25920D01*
X57886Y25913D01*
X57892Y25905D01*
X57898Y25895D01*
X57905Y25885D01*
X57911Y25873D01*
X57918Y25860D01*
X57924Y25846D01*
X57929Y25831D01*
X57933Y25815D01*
X57936Y25798D01*
X57939Y25780D01*
X57940Y25762D01*
Y25761D01*
Y25760D01*
Y25757D01*
Y25754D01*
X57939Y25746D01*
X57937Y25735D01*
X57936Y25721D01*
X57932Y25706D01*
X57928Y25690D01*
X57922Y25672D01*
X57914Y25653D01*
X57904Y25634D01*
X57892Y25615D01*
X57878Y25598D01*
X57862Y25581D01*
X57842Y25565D01*
X57820Y25550D01*
X57808Y25544D01*
X57794Y25538D01*
X57935Y25258D01*
X57936Y25257D01*
X57937Y25252D01*
X57939Y25247D01*
X57940Y25241D01*
Y25240D01*
Y25238D01*
X57939Y25235D01*
X57938Y25231D01*
X57936Y25227D01*
X57935Y25222D01*
X57931Y25217D01*
X57927Y25213D01*
X57926Y25212D01*
X57925Y25211D01*
X57923Y25209D01*
X57919Y25207D01*
X57910Y25203D01*
X57905Y25202D01*
X57899Y25201D01*
X57895D01*
X57891Y25202D01*
X57885Y25203D01*
X57879Y25206D01*
X57873Y25210D01*
X57868Y25215D01*
X57863Y25223D01*
X57714Y25521D01*
X57540D01*
Y25241D01*
Y25239D01*
X57539Y25235D01*
X57538Y25228D01*
X57535Y25221D01*
X57530Y25214D01*
X57523Y25207D01*
X57513Y25203D01*
X57506Y25202D01*
X57499Y25201D01*
X57497D01*
X57493Y25202D01*
X57486Y25203D01*
X57480Y25206D01*
X57472Y25211D01*
X57465Y25218D01*
X57461Y25228D01*
X57460Y25234D01*
X57459Y25241D01*
Y25962D01*
Y25963D01*
Y25964D01*
X57460Y25969D01*
X57462Y25975D01*
X57464Y25982D01*
X57469Y25990D01*
X57476Y25997D01*
X57486Y26001D01*
X57492Y26002D01*
X57499Y26003D01*
X57704D01*
X57709Y26002D01*
D02*
G37*
G36*
X7846Y24752D02*
X7852Y24751D01*
X7859Y24748D01*
X7867Y24743D01*
X7874Y24736D01*
X7878Y24726D01*
X7879Y24719D01*
X7880Y24712D01*
Y23992D01*
Y23990D01*
X7879Y23986D01*
X7878Y23979D01*
X7875Y23972D01*
X7869Y23965D01*
X7863Y23958D01*
X7853Y23954D01*
X7846Y23953D01*
X7839Y23952D01*
X7837D01*
X7833Y23953D01*
X7826Y23955D01*
X7820Y23957D01*
X7812Y23962D01*
X7805Y23969D01*
X7801Y23979D01*
X7800Y23985D01*
X7799Y23992D01*
Y24616D01*
X7706Y24524D01*
X7705Y24523D01*
X7705Y24522D01*
X7702Y24521D01*
X7699Y24518D01*
X7690Y24514D01*
X7684Y24513D01*
X7678Y24512D01*
X7677D01*
X7672Y24513D01*
X7666Y24515D01*
X7659Y24517D01*
X7651Y24522D01*
X7644Y24529D01*
X7640Y24539D01*
X7639Y24546D01*
X7639Y24553D01*
Y24553D01*
Y24555D01*
X7639Y24559D01*
X7640Y24562D01*
X7644Y24571D01*
X7646Y24576D01*
X7650Y24581D01*
X7807Y24737D01*
X7808Y24738D01*
X7809Y24740D01*
X7813Y24742D01*
X7817Y24745D01*
X7827Y24751D01*
X7833Y24752D01*
X7839Y24753D01*
X7841D01*
X7846Y24752D01*
D02*
G37*
G36*
X7445Y24753D02*
X7452Y24752D01*
X7459Y24749D01*
X7466Y24744D01*
X7473Y24737D01*
X7477Y24727D01*
X7479Y24720D01*
Y24713D01*
Y24712D01*
X7478Y24707D01*
X7477Y24701D01*
X7474Y24694D01*
X7469Y24686D01*
X7462Y24680D01*
X7452Y24675D01*
X7446Y24674D01*
X7439Y24674D01*
X7274D01*
X7271Y24673D01*
X7261Y24672D01*
X7249Y24669D01*
X7236Y24665D01*
X7222Y24658D01*
X7207Y24650D01*
X7194Y24638D01*
X7192Y24636D01*
X7189Y24632D01*
X7183Y24625D01*
X7177Y24614D01*
X7170Y24602D01*
X7164Y24587D01*
X7161Y24570D01*
X7159Y24553D01*
Y24153D01*
Y24152D01*
Y24150D01*
Y24147D01*
X7160Y24144D01*
X7161Y24135D01*
X7163Y24123D01*
X7167Y24109D01*
X7173Y24096D01*
X7182Y24081D01*
X7194Y24067D01*
X7195Y24065D01*
X7200Y24062D01*
X7207Y24056D01*
X7217Y24050D01*
X7230Y24043D01*
X7244Y24038D01*
X7261Y24034D01*
X7279Y24032D01*
X7441D01*
X7445Y24032D01*
X7452Y24031D01*
X7459Y24027D01*
X7466Y24022D01*
X7473Y24016D01*
X7477Y24005D01*
X7479Y23999D01*
Y23992D01*
Y23990D01*
X7478Y23986D01*
X7477Y23979D01*
X7474Y23972D01*
X7469Y23965D01*
X7462Y23958D01*
X7452Y23954D01*
X7446Y23953D01*
X7439Y23952D01*
X7271D01*
X7265Y23953D01*
X7258Y23954D01*
X7249Y23955D01*
X7240Y23957D01*
X7230Y23960D01*
X7219Y23962D01*
X7208Y23966D01*
X7196Y23971D01*
X7183Y23977D01*
X7172Y23983D01*
X7160Y23991D01*
X7148Y24000D01*
X7137Y24010D01*
X7136Y24011D01*
X7134Y24013D01*
X7132Y24016D01*
X7128Y24021D01*
X7123Y24027D01*
X7118Y24033D01*
X7113Y24041D01*
X7108Y24050D01*
X7102Y24060D01*
X7097Y24071D01*
X7092Y24082D01*
X7088Y24095D01*
X7084Y24109D01*
X7081Y24122D01*
X7079Y24137D01*
X7079Y24153D01*
Y24553D01*
Y24554D01*
Y24557D01*
Y24562D01*
X7079Y24567D01*
X7080Y24575D01*
X7082Y24583D01*
X7084Y24592D01*
X7086Y24603D01*
X7089Y24613D01*
X7093Y24625D01*
X7097Y24636D01*
X7103Y24648D01*
X7110Y24660D01*
X7118Y24672D01*
X7127Y24684D01*
X7137Y24695D01*
X7138Y24696D01*
X7140Y24697D01*
X7143Y24700D01*
X7147Y24704D01*
X7153Y24708D01*
X7160Y24713D01*
X7167Y24719D01*
X7177Y24724D01*
X7187Y24730D01*
X7197Y24735D01*
X7209Y24740D01*
X7222Y24745D01*
X7235Y24749D01*
X7249Y24751D01*
X7264Y24753D01*
X7279Y24754D01*
X7441D01*
X7445Y24753D01*
D02*
G37*
G36*
X10047Y13736D02*
X10053Y13735D01*
X10060Y13732D01*
X10068Y13727D01*
X10075Y13720D01*
X10079Y13710D01*
X10080Y13703D01*
X10081Y13696D01*
Y12976D01*
Y12974D01*
X10080Y12970D01*
X10079Y12963D01*
X10075Y12956D01*
X10070Y12949D01*
X10064Y12942D01*
X10053Y12938D01*
X10047Y12937D01*
X10040Y12936D01*
X10038D01*
X10034Y12937D01*
X10027Y12938D01*
X10020Y12941D01*
X10013Y12946D01*
X10006Y12953D01*
X10002Y12963D01*
X10001Y12969D01*
X10000Y12976D01*
Y13600D01*
X9907Y13508D01*
X9906Y13507D01*
X9905Y13506D01*
X9903Y13504D01*
X9900Y13502D01*
X9891Y13497D01*
X9885Y13497D01*
X9879Y13496D01*
X9878D01*
X9873Y13497D01*
X9867Y13498D01*
X9860Y13501D01*
X9852Y13506D01*
X9845Y13513D01*
X9841Y13523D01*
X9840Y13530D01*
X9839Y13536D01*
Y13537D01*
Y13539D01*
X9840Y13542D01*
X9841Y13546D01*
X9845Y13555D01*
X9847Y13560D01*
X9851Y13564D01*
X10008Y13721D01*
X10009Y13722D01*
X10010Y13723D01*
X10014Y13726D01*
X10018Y13729D01*
X10028Y13734D01*
X10034Y13736D01*
X10040Y13737D01*
X10042D01*
X10047Y13736D01*
D02*
G37*
G36*
X9404D02*
X9408Y13735D01*
X9415Y13733D01*
X9421Y13729D01*
X9428Y13723D01*
X9433Y13716D01*
X9439Y13706D01*
X9677Y12988D01*
Y12987D01*
X9678Y12985D01*
X9679Y12981D01*
Y12976D01*
Y12974D01*
X9678Y12970D01*
X9677Y12963D01*
X9674Y12956D01*
X9669Y12949D01*
X9662Y12942D01*
X9653Y12938D01*
X9646Y12937D01*
X9639Y12936D01*
X9638D01*
X9635Y12937D01*
X9630Y12938D01*
X9624Y12939D01*
X9617Y12943D01*
X9611Y12948D01*
X9605Y12954D01*
X9601Y12963D01*
X9543Y13136D01*
X9254D01*
X9197Y12963D01*
X9196Y12962D01*
X9195Y12959D01*
X9192Y12954D01*
X9188Y12949D01*
X9183Y12944D01*
X9176Y12940D01*
X9169Y12937D01*
X9159Y12936D01*
X9157D01*
X9153Y12937D01*
X9146Y12938D01*
X9138Y12941D01*
X9131Y12946D01*
X9125Y12953D01*
X9120Y12963D01*
X9119Y12969D01*
X9118Y12976D01*
Y12976D01*
Y12980D01*
X9119Y12984D01*
X9120Y12988D01*
X9358Y13704D01*
X9359Y13706D01*
X9361Y13709D01*
X9363Y13714D01*
X9367Y13721D01*
X9373Y13727D01*
X9380Y13732D01*
X9389Y13735D01*
X9399Y13737D01*
X9400D01*
X9404Y13736D01*
D02*
G37*
G36*
X8772Y13737D02*
X8779Y13736D01*
X8787Y13734D01*
X8797Y13733D01*
X8808Y13730D01*
X8818Y13728D01*
X8830Y13723D01*
X8841Y13719D01*
X8853Y13713D01*
X8865Y13706D01*
X8877Y13699D01*
X8889Y13689D01*
X8900Y13679D01*
X8901Y13678D01*
X8902Y13677D01*
X8905Y13673D01*
X8909Y13669D01*
X8913Y13663D01*
X8918Y13656D01*
X8923Y13649D01*
X8929Y13640D01*
X8934Y13629D01*
X8939Y13619D01*
X8945Y13607D01*
X8949Y13595D01*
X8953Y13581D01*
X8956Y13568D01*
X8957Y13552D01*
X8958Y13537D01*
Y13136D01*
Y13135D01*
Y13133D01*
Y13128D01*
X8957Y13122D01*
X8956Y13115D01*
X8955Y13107D01*
X8953Y13097D01*
X8950Y13087D01*
X8948Y13076D01*
X8944Y13065D01*
X8939Y13053D01*
X8934Y13041D01*
X8926Y13029D01*
X8918Y13017D01*
X8909Y13005D01*
X8899Y12994D01*
X8898Y12993D01*
X8896Y12992D01*
X8893Y12989D01*
X8889Y12985D01*
X8883Y12981D01*
X8876Y12976D01*
X8868Y12971D01*
X8859Y12965D01*
X8850Y12960D01*
X8839Y12954D01*
X8827Y12949D01*
X8814Y12945D01*
X8802Y12941D01*
X8787Y12938D01*
X8773Y12937D01*
X8758Y12936D01*
X8516D01*
X8512Y12937D01*
X8505Y12938D01*
X8498Y12941D01*
X8490Y12946D01*
X8484Y12953D01*
X8479Y12963D01*
X8479Y12969D01*
X8478Y12976D01*
Y13697D01*
Y13698D01*
Y13699D01*
X8479Y13704D01*
X8480Y13710D01*
X8483Y13717D01*
X8488Y13725D01*
X8495Y13732D01*
X8505Y13736D01*
X8511Y13737D01*
X8517Y13738D01*
X8766D01*
X8772Y13737D01*
D02*
G37*
G36*
X40305Y10439D02*
X40312Y10438D01*
X40321Y10436D01*
X40330Y10435D01*
X40340Y10432D01*
X40350Y10430D01*
X40362Y10425D01*
X40374Y10420D01*
X40386Y10415D01*
X40398Y10408D01*
X40409Y10400D01*
X40421Y10391D01*
X40432Y10381D01*
X40433Y10380D01*
X40435Y10378D01*
X40437Y10375D01*
X40442Y10370D01*
X40446Y10365D01*
X40451Y10358D01*
X40457Y10350D01*
X40462Y10341D01*
X40468Y10332D01*
X40473Y10321D01*
X40478Y10309D01*
X40482Y10296D01*
X40486Y10283D01*
X40489Y10269D01*
X40491Y10255D01*
X40491Y10239D01*
Y10238D01*
Y10235D01*
X40491Y10230D01*
Y10222D01*
X40489Y10214D01*
X40487Y10205D01*
X40485Y10194D01*
X40481Y10182D01*
X40477Y10169D01*
X40472Y10156D01*
X40465Y10143D01*
X40458Y10129D01*
X40448Y10116D01*
X40437Y10103D01*
X40426Y10090D01*
X40411Y10079D01*
X40412Y10078D01*
X40414Y10077D01*
X40416Y10074D01*
X40420Y10071D01*
X40425Y10067D01*
X40430Y10062D01*
X40442Y10049D01*
X40454Y10034D01*
X40466Y10015D01*
X40476Y9994D01*
X40480Y9983D01*
X40484Y9971D01*
Y9970D01*
X40485Y9968D01*
Y9964D01*
X40486Y9961D01*
X40486Y9956D01*
X40487Y9950D01*
X40488Y9942D01*
Y9934D01*
X40489Y9925D01*
X40490Y9914D01*
X40491Y9902D01*
Y9888D01*
X40491Y9873D01*
Y9856D01*
Y9838D01*
Y9838D01*
Y9835D01*
Y9831D01*
X40491Y9825D01*
X40490Y9817D01*
X40488Y9809D01*
X40486Y9800D01*
X40484Y9789D01*
X40481Y9779D01*
X40477Y9767D01*
X40472Y9756D01*
X40467Y9744D01*
X40459Y9732D01*
X40452Y9720D01*
X40442Y9708D01*
X40432Y9697D01*
X40431Y9696D01*
X40430Y9695D01*
X40426Y9692D01*
X40422Y9688D01*
X40416Y9684D01*
X40409Y9679D01*
X40402Y9673D01*
X40393Y9668D01*
X40383Y9662D01*
X40372Y9657D01*
X40360Y9652D01*
X40348Y9648D01*
X40335Y9644D01*
X40321Y9641D01*
X40306Y9640D01*
X40291Y9639D01*
X40283D01*
X40277Y9640D01*
X40270Y9641D01*
X40261Y9642D01*
X40252Y9644D01*
X40242Y9646D01*
X40232Y9649D01*
X40220Y9653D01*
X40208Y9657D01*
X40196Y9663D01*
X40184Y9670D01*
X40173Y9678D01*
X40161Y9687D01*
X40150Y9697D01*
X40149Y9698D01*
X40147Y9700D01*
X40145Y9703D01*
X40140Y9707D01*
X40136Y9713D01*
X40131Y9720D01*
X40126Y9728D01*
X40121Y9737D01*
X40115Y9746D01*
X40110Y9757D01*
X40105Y9769D01*
X40101Y9782D01*
X40096Y9794D01*
X40094Y9809D01*
X40092Y9823D01*
X40091Y9838D01*
Y9919D01*
Y9920D01*
Y9923D01*
X40092Y9928D01*
X40093Y9936D01*
X40094Y9944D01*
X40096Y9953D01*
X40098Y9964D01*
X40102Y9976D01*
X40106Y9989D01*
X40111Y10002D01*
X40118Y10015D01*
X40125Y10029D01*
X40135Y10041D01*
X40146Y10055D01*
X40157Y10067D01*
X40172Y10079D01*
X40171Y10079D01*
X40168Y10081D01*
X40164Y10085D01*
X40159Y10090D01*
X40153Y10096D01*
X40146Y10103D01*
X40139Y10112D01*
X40132Y10122D01*
X40124Y10133D01*
X40117Y10145D01*
X40110Y10158D01*
X40104Y10173D01*
X40099Y10188D01*
X40095Y10204D01*
X40092Y10221D01*
X40091Y10239D01*
Y10240D01*
Y10243D01*
Y10248D01*
X40092Y10253D01*
X40093Y10260D01*
X40095Y10269D01*
X40096Y10278D01*
X40099Y10288D01*
X40102Y10299D01*
X40106Y10310D01*
X40110Y10322D01*
X40116Y10334D01*
X40123Y10346D01*
X40130Y10358D01*
X40140Y10370D01*
X40150Y10381D01*
X40151Y10381D01*
X40152Y10383D01*
X40156Y10386D01*
X40160Y10390D01*
X40166Y10394D01*
X40173Y10399D01*
X40180Y10405D01*
X40190Y10410D01*
X40199Y10416D01*
X40210Y10421D01*
X40222Y10426D01*
X40234Y10431D01*
X40247Y10435D01*
X40261Y10437D01*
X40276Y10439D01*
X40291Y10440D01*
X40299D01*
X40305Y10439D01*
D02*
G37*
G36*
X39897D02*
X39903Y10438D01*
X39910Y10435D01*
X39918Y10430D01*
X39925Y10423D01*
X39929Y10413D01*
X39930Y10406D01*
X39931Y10399D01*
Y9679D01*
Y9677D01*
X39930Y9673D01*
X39929Y9666D01*
X39926Y9659D01*
X39921Y9651D01*
X39914Y9645D01*
X39904Y9641D01*
X39897Y9640D01*
X39890Y9639D01*
X39888D01*
X39884Y9640D01*
X39877Y9641D01*
X39871Y9644D01*
X39863Y9649D01*
X39856Y9656D01*
X39852Y9666D01*
X39851Y9672D01*
X39850Y9679D01*
Y10303D01*
X39757Y10211D01*
X39756Y10210D01*
X39756Y10209D01*
X39753Y10207D01*
X39750Y10205D01*
X39741Y10200D01*
X39735Y10200D01*
X39729Y10199D01*
X39728D01*
X39723Y10200D01*
X39717Y10201D01*
X39710Y10204D01*
X39702Y10209D01*
X39696Y10216D01*
X39691Y10226D01*
X39690Y10233D01*
X39690Y10239D01*
Y10240D01*
Y10242D01*
X39690Y10245D01*
X39691Y10249D01*
X39695Y10258D01*
X39697Y10263D01*
X39701Y10267D01*
X39858Y10424D01*
X39859Y10425D01*
X39861Y10426D01*
X39864Y10429D01*
X39868Y10432D01*
X39878Y10437D01*
X39884Y10439D01*
X39890Y10440D01*
X39892D01*
X39897Y10439D01*
D02*
G37*
G36*
X39299Y10440D02*
X39306D01*
X39315Y10438D01*
X39325Y10437D01*
X39336Y10435D01*
X39348Y10432D01*
X39361Y10428D01*
X39375Y10424D01*
X39389Y10418D01*
X39404Y10411D01*
X39418Y10403D01*
X39433Y10393D01*
X39446Y10383D01*
X39460Y10370D01*
X39460Y10370D01*
X39463Y10367D01*
X39466Y10364D01*
X39471Y10358D01*
X39476Y10351D01*
X39482Y10343D01*
X39488Y10333D01*
X39495Y10323D01*
X39501Y10311D01*
X39508Y10298D01*
X39514Y10284D01*
X39519Y10269D01*
X39523Y10253D01*
X39526Y10236D01*
X39529Y10218D01*
X39530Y10200D01*
Y10199D01*
Y10198D01*
Y10195D01*
Y10192D01*
X39529Y10184D01*
X39527Y10173D01*
X39526Y10159D01*
X39522Y10144D01*
X39518Y10128D01*
X39512Y10110D01*
X39504Y10091D01*
X39494Y10072D01*
X39482Y10053D01*
X39468Y10035D01*
X39452Y10019D01*
X39433Y10003D01*
X39410Y9988D01*
X39398Y9982D01*
X39384Y9976D01*
X39525Y9696D01*
X39526Y9695D01*
X39527Y9690D01*
X39529Y9685D01*
X39530Y9679D01*
Y9678D01*
Y9676D01*
X39529Y9673D01*
X39528Y9669D01*
X39526Y9665D01*
X39525Y9660D01*
X39521Y9655D01*
X39517Y9651D01*
X39516Y9650D01*
X39515Y9649D01*
X39513Y9647D01*
X39509Y9645D01*
X39500Y9641D01*
X39495Y9640D01*
X39489Y9639D01*
X39485D01*
X39481Y9640D01*
X39475Y9641D01*
X39469Y9644D01*
X39463Y9648D01*
X39458Y9653D01*
X39453Y9661D01*
X39304Y9959D01*
X39130D01*
Y9679D01*
Y9677D01*
X39129Y9673D01*
X39128Y9666D01*
X39125Y9659D01*
X39120Y9651D01*
X39113Y9645D01*
X39103Y9641D01*
X39096Y9640D01*
X39089Y9639D01*
X39087D01*
X39083Y9640D01*
X39076Y9641D01*
X39070Y9644D01*
X39062Y9649D01*
X39055Y9656D01*
X39051Y9666D01*
X39050Y9672D01*
X39049Y9679D01*
Y10400D01*
Y10401D01*
Y10402D01*
X39050Y10407D01*
X39052Y10413D01*
X39054Y10420D01*
X39060Y10428D01*
X39066Y10435D01*
X39076Y10439D01*
X39082Y10440D01*
X39089Y10441D01*
X39294D01*
X39299Y10440D01*
D02*
G37*
G36*
X1059Y24498D02*
X1066Y24497D01*
X1074Y24494D01*
X1081Y24489D01*
X1087Y24482D01*
X1092Y24472D01*
X1093Y24465D01*
Y24459D01*
Y24458D01*
Y24457D01*
X1092Y24452D01*
X1091Y24444D01*
X1087Y24437D01*
X862Y24098D01*
X1087Y23760D01*
Y23759D01*
X1088Y23758D01*
X1091Y23753D01*
X1092Y23746D01*
X1093Y23738D01*
Y23736D01*
X1092Y23732D01*
X1092Y23725D01*
X1088Y23719D01*
X1084Y23711D01*
X1076Y23704D01*
X1067Y23700D01*
X1060Y23699D01*
X1054Y23698D01*
X1050D01*
X1046Y23699D01*
X1041Y23701D01*
X1036Y23702D01*
X1031Y23705D01*
X1025Y23709D01*
X1021Y23715D01*
X813Y24026D01*
X606Y23715D01*
X605Y23714D01*
X604Y23713D01*
X601Y23710D01*
X598Y23707D01*
X593Y23703D01*
X588Y23701D01*
X581Y23699D01*
X573Y23698D01*
X571D01*
X567Y23699D01*
X560Y23701D01*
X553Y23703D01*
X545Y23708D01*
X539Y23715D01*
X534Y23725D01*
X533Y23731D01*
X533Y23738D01*
Y23739D01*
Y23740D01*
X533Y23746D01*
X535Y23752D01*
X539Y23760D01*
X764Y24098D01*
X539Y24437D01*
Y24437D01*
X538Y24438D01*
X536Y24443D01*
X533Y24450D01*
X533Y24459D01*
Y24459D01*
Y24460D01*
X533Y24465D01*
X535Y24471D01*
X538Y24479D01*
X543Y24486D01*
X549Y24493D01*
X560Y24497D01*
X566Y24498D01*
X573Y24499D01*
X577D01*
X581Y24498D01*
X585Y24497D01*
X591Y24495D01*
X596Y24492D01*
X601Y24487D01*
X606Y24481D01*
X813Y24171D01*
X1021Y24481D01*
X1021Y24482D01*
X1022Y24484D01*
X1026Y24487D01*
X1029Y24491D01*
X1033Y24493D01*
X1039Y24497D01*
X1046Y24498D01*
X1054Y24499D01*
X1055D01*
X1059Y24498D01*
D02*
G37*
G36*
X2102D02*
X2108Y24497D01*
X2116Y24494D01*
X2124Y24489D01*
X2130Y24482D01*
X2135Y24472D01*
X2135Y24465D01*
X2136Y24459D01*
Y23738D01*
Y23736D01*
X2135Y23732D01*
X2135Y23725D01*
X2131Y23719D01*
X2126Y23711D01*
X2119Y23704D01*
X2109Y23700D01*
X2102Y23699D01*
X2096Y23698D01*
X2094D01*
X2090Y23699D01*
X2083Y23701D01*
X2076Y23703D01*
X2069Y23708D01*
X2062Y23715D01*
X2058Y23725D01*
X2057Y23731D01*
X2056Y23738D01*
Y24362D01*
X1963Y24270D01*
X1962Y24269D01*
X1961Y24268D01*
X1959Y24267D01*
X1955Y24264D01*
X1947Y24260D01*
X1941Y24259D01*
X1935Y24258D01*
X1933D01*
X1929Y24259D01*
X1922Y24261D01*
X1915Y24263D01*
X1908Y24268D01*
X1901Y24275D01*
X1897Y24285D01*
X1896Y24292D01*
X1895Y24299D01*
Y24300D01*
Y24301D01*
X1896Y24305D01*
X1897Y24308D01*
X1900Y24317D01*
X1903Y24322D01*
X1907Y24327D01*
X2063Y24483D01*
X2064Y24484D01*
X2066Y24486D01*
X2069Y24488D01*
X2074Y24492D01*
X2084Y24497D01*
X2090Y24498D01*
X2096Y24499D01*
X2097D01*
X2102Y24498D01*
D02*
G37*
G36*
X1504Y24499D02*
X1512D01*
X1520Y24497D01*
X1531Y24497D01*
X1542Y24494D01*
X1553Y24492D01*
X1567Y24487D01*
X1581Y24483D01*
X1595Y24477D01*
X1609Y24470D01*
X1624Y24463D01*
X1638Y24453D01*
X1652Y24443D01*
X1665Y24430D01*
X1666Y24429D01*
X1668Y24426D01*
X1672Y24423D01*
X1676Y24417D01*
X1681Y24410D01*
X1687Y24402D01*
X1694Y24393D01*
X1701Y24382D01*
X1707Y24371D01*
X1713Y24357D01*
X1719Y24344D01*
X1724Y24328D01*
X1729Y24312D01*
X1732Y24295D01*
X1734Y24278D01*
X1735Y24259D01*
Y24258D01*
Y24254D01*
Y24249D01*
X1734Y24241D01*
X1734Y24232D01*
X1732Y24222D01*
X1729Y24210D01*
X1727Y24197D01*
X1723Y24184D01*
X1719Y24170D01*
X1713Y24156D01*
X1707Y24141D01*
X1700Y24126D01*
X1690Y24113D01*
X1680Y24098D01*
X1668Y24086D01*
X1668Y24085D01*
X1665Y24083D01*
X1662Y24080D01*
X1657Y24075D01*
X1650Y24070D01*
X1641Y24064D01*
X1632Y24059D01*
X1622Y24053D01*
X1610Y24046D01*
X1597Y24040D01*
X1582Y24034D01*
X1567Y24029D01*
X1551Y24025D01*
X1533Y24021D01*
X1515Y24020D01*
X1495Y24019D01*
X1335D01*
Y23738D01*
Y23736D01*
X1334Y23732D01*
X1334Y23725D01*
X1330Y23719D01*
X1325Y23711D01*
X1318Y23704D01*
X1308Y23700D01*
X1301Y23699D01*
X1295Y23698D01*
X1293D01*
X1289Y23699D01*
X1282Y23701D01*
X1275Y23703D01*
X1268Y23708D01*
X1261Y23715D01*
X1257Y23725D01*
X1256Y23731D01*
X1255Y23738D01*
Y24459D01*
Y24460D01*
Y24461D01*
X1256Y24466D01*
X1257Y24472D01*
X1260Y24480D01*
X1265Y24487D01*
X1272Y24494D01*
X1282Y24498D01*
X1288Y24499D01*
X1295Y24500D01*
X1499D01*
X1504Y24499D01*
D02*
G37*
G36*
X52424Y1599D02*
X52431Y1598D01*
X52439Y1595D01*
X52445Y1590D01*
X52452Y1583D01*
X52456Y1573D01*
X52458Y1566D01*
Y1559D01*
Y1559D01*
Y1558D01*
X52457Y1553D01*
X52455Y1545D01*
X52452Y1537D01*
X52226Y1199D01*
X52452Y861D01*
Y860D01*
X52453Y859D01*
X52455Y854D01*
X52457Y847D01*
X52458Y839D01*
Y837D01*
X52457Y833D01*
X52456Y826D01*
X52453Y819D01*
X52449Y812D01*
X52441Y805D01*
X52432Y801D01*
X52425Y800D01*
X52418Y799D01*
X52415D01*
X52411Y800D01*
X52406Y802D01*
X52401Y803D01*
X52395Y806D01*
X52389Y810D01*
X52385Y816D01*
X52178Y1127D01*
X51971Y816D01*
X51970Y815D01*
X51968Y813D01*
X51966Y811D01*
X51962Y808D01*
X51957Y804D01*
X51952Y802D01*
X51945Y800D01*
X51938Y799D01*
X51936D01*
X51932Y800D01*
X51925Y802D01*
X51918Y804D01*
X51910Y809D01*
X51904Y816D01*
X51899Y826D01*
X51898Y832D01*
X51897Y839D01*
Y840D01*
Y841D01*
X51898Y846D01*
X51900Y853D01*
X51904Y861D01*
X52129Y1199D01*
X51904Y1537D01*
Y1538D01*
X51903Y1539D01*
X51901Y1544D01*
X51898Y1551D01*
X51897Y1559D01*
Y1560D01*
Y1561D01*
X51898Y1566D01*
X51900Y1572D01*
X51902Y1580D01*
X51907Y1587D01*
X51914Y1594D01*
X51924Y1598D01*
X51931Y1599D01*
X51938Y1600D01*
X51941D01*
X51945Y1599D01*
X51950Y1598D01*
X51956Y1596D01*
X51961Y1592D01*
X51966Y1588D01*
X51971Y1582D01*
X52178Y1272D01*
X52385Y1582D01*
X52386Y1583D01*
X52387Y1585D01*
X52390Y1588D01*
X52394Y1592D01*
X52398Y1594D01*
X52404Y1598D01*
X52411Y1599D01*
X52418Y1600D01*
X52420D01*
X52424Y1599D01*
D02*
G37*
G36*
X53474Y1600D02*
X53481Y1599D01*
X53490Y1598D01*
X53499Y1596D01*
X53509Y1593D01*
X53520Y1591D01*
X53531Y1587D01*
X53543Y1581D01*
X53555Y1576D01*
X53567Y1569D01*
X53579Y1561D01*
X53591Y1552D01*
X53602Y1542D01*
X53602Y1541D01*
X53604Y1539D01*
X53607Y1536D01*
X53611Y1532D01*
X53615Y1526D01*
X53620Y1519D01*
X53626Y1511D01*
X53631Y1502D01*
X53637Y1493D01*
X53642Y1482D01*
X53647Y1470D01*
X53651Y1457D01*
X53656Y1444D01*
X53658Y1430D01*
X53660Y1416D01*
X53661Y1400D01*
Y1400D01*
Y1398D01*
Y1395D01*
X53660Y1390D01*
Y1385D01*
X53659Y1379D01*
X53657Y1373D01*
X53657Y1364D01*
X53652Y1347D01*
X53646Y1328D01*
X53636Y1307D01*
X53631Y1296D01*
X53624Y1285D01*
X53371Y879D01*
X53623D01*
X53627Y879D01*
X53634Y878D01*
X53641Y874D01*
X53648Y869D01*
X53655Y863D01*
X53659Y852D01*
X53661Y846D01*
Y839D01*
Y837D01*
X53660Y833D01*
X53659Y826D01*
X53656Y819D01*
X53651Y812D01*
X53644Y805D01*
X53635Y801D01*
X53628Y800D01*
X53621Y799D01*
X53299D01*
X53295Y800D01*
X53288Y802D01*
X53280Y804D01*
X53273Y809D01*
X53267Y816D01*
X53262Y826D01*
X53261Y832D01*
X53260Y839D01*
Y840D01*
Y841D01*
X53261Y846D01*
X53262Y853D01*
X53267Y862D01*
X53561Y1334D01*
X53562Y1335D01*
X53564Y1340D01*
X53567Y1345D01*
X53571Y1354D01*
X53575Y1364D01*
X53577Y1375D01*
X53580Y1387D01*
X53580Y1400D01*
Y1400D01*
Y1402D01*
Y1405D01*
X53580Y1408D01*
X53579Y1417D01*
X53576Y1429D01*
X53572Y1443D01*
X53565Y1457D01*
X53557Y1472D01*
X53545Y1485D01*
X53543Y1487D01*
X53539Y1491D01*
X53531Y1496D01*
X53521Y1503D01*
X53509Y1510D01*
X53495Y1515D01*
X53478Y1519D01*
X53460Y1521D01*
X53457D01*
X53454Y1520D01*
X53448Y1519D01*
X53443Y1517D01*
X53436Y1515D01*
X53428Y1512D01*
X53420Y1508D01*
X53410Y1503D01*
X53400Y1496D01*
X53389Y1488D01*
X53379Y1477D01*
X53368Y1466D01*
X53357Y1453D01*
X53346Y1437D01*
X53335Y1419D01*
X53334Y1418D01*
X53333Y1416D01*
X53330Y1413D01*
X53327Y1410D01*
X53322Y1406D01*
X53316Y1403D01*
X53309Y1400D01*
X53300Y1400D01*
X53299D01*
X53295Y1400D01*
X53288Y1402D01*
X53280Y1405D01*
X53273Y1410D01*
X53267Y1417D01*
X53262Y1427D01*
X53261Y1433D01*
X53260Y1440D01*
Y1441D01*
Y1442D01*
X53261Y1446D01*
X53262Y1451D01*
X53264Y1456D01*
Y1457D01*
X53265Y1458D01*
X53267Y1462D01*
X53272Y1470D01*
X53278Y1479D01*
X53285Y1490D01*
X53294Y1502D01*
X53305Y1515D01*
X53317Y1529D01*
X53330Y1542D01*
X53344Y1555D01*
X53361Y1567D01*
X53378Y1578D01*
X53397Y1587D01*
X53417Y1595D01*
X53438Y1599D01*
X53449Y1601D01*
X53469D01*
X53474Y1600D01*
D02*
G37*
G36*
X52869D02*
X52877D01*
X52885Y1598D01*
X52895Y1598D01*
X52906Y1595D01*
X52918Y1592D01*
X52932Y1588D01*
X52945Y1584D01*
X52960Y1578D01*
X52974Y1571D01*
X52988Y1564D01*
X53003Y1554D01*
X53016Y1543D01*
X53030Y1531D01*
X53031Y1530D01*
X53033Y1527D01*
X53037Y1524D01*
X53041Y1518D01*
X53046Y1511D01*
X53052Y1503D01*
X53059Y1493D01*
X53065Y1483D01*
X53071Y1472D01*
X53078Y1458D01*
X53084Y1444D01*
X53089Y1429D01*
X53093Y1413D01*
X53097Y1396D01*
X53099Y1378D01*
X53100Y1360D01*
Y1359D01*
Y1355D01*
Y1350D01*
X53099Y1342D01*
X53098Y1333D01*
X53097Y1323D01*
X53094Y1311D01*
X53092Y1298D01*
X53088Y1285D01*
X53084Y1271D01*
X53078Y1257D01*
X53072Y1241D01*
X53064Y1227D01*
X53055Y1214D01*
X53045Y1199D01*
X53033Y1186D01*
X53032Y1186D01*
X53030Y1184D01*
X53026Y1181D01*
X53021Y1176D01*
X53015Y1171D01*
X53006Y1165D01*
X52997Y1159D01*
X52987Y1153D01*
X52975Y1147D01*
X52961Y1141D01*
X52947Y1135D01*
X52932Y1130D01*
X52916Y1126D01*
X52898Y1122D01*
X52879Y1120D01*
X52860Y1120D01*
X52700D01*
Y839D01*
Y837D01*
X52699Y833D01*
X52698Y826D01*
X52695Y819D01*
X52690Y812D01*
X52683Y805D01*
X52673Y801D01*
X52666Y800D01*
X52659Y799D01*
X52658D01*
X52653Y800D01*
X52647Y802D01*
X52640Y804D01*
X52632Y809D01*
X52625Y816D01*
X52621Y826D01*
X52620Y832D01*
X52620Y839D01*
Y1560D01*
Y1561D01*
Y1562D01*
X52620Y1567D01*
X52622Y1573D01*
X52625Y1581D01*
X52630Y1588D01*
X52636Y1595D01*
X52647Y1599D01*
X52653Y1600D01*
X52659Y1601D01*
X52864D01*
X52869Y1600D01*
D02*
G37*
%LPC*%
G36*
X24790Y33159D02*
X24672Y32807D01*
X24907D01*
X24790Y33159D01*
D02*
G37*
G36*
X24149Y33247D02*
X23949D01*
Y32606D01*
X24154D01*
X24157Y32607D01*
X24166Y32608D01*
X24177Y32610D01*
X24191Y32615D01*
X24205Y32621D01*
X24220Y32629D01*
X24233Y32641D01*
X24235Y32643D01*
X24239Y32648D01*
X24244Y32654D01*
X24251Y32665D01*
X24258Y32677D01*
X24263Y32692D01*
X24267Y32709D01*
X24269Y32726D01*
Y33126D01*
Y33127D01*
Y33129D01*
Y33131D01*
X24268Y33135D01*
X24267Y33144D01*
X24264Y33156D01*
X24260Y33170D01*
X24253Y33184D01*
X24245Y33198D01*
X24233Y33212D01*
X24232Y33213D01*
X24227Y33218D01*
X24220Y33223D01*
X24210Y33230D01*
X24197Y33236D01*
X24182Y33241D01*
X24166Y33246D01*
X24149Y33247D01*
D02*
G37*
G36*
X20889Y25033D02*
X20772Y24680D01*
X21007D01*
X20889Y25033D01*
D02*
G37*
G36*
X20248Y25121D02*
X20049D01*
Y24479D01*
X20253D01*
X20257Y24480D01*
X20266Y24481D01*
X20277Y24484D01*
X20290Y24488D01*
X20305Y24494D01*
X20319Y24502D01*
X20333Y24514D01*
X20334Y24516D01*
X20339Y24521D01*
X20344Y24528D01*
X20351Y24538D01*
X20357Y24550D01*
X20362Y24565D01*
X20367Y24582D01*
X20368Y24600D01*
Y25000D01*
Y25000D01*
Y25002D01*
Y25005D01*
X20367Y25008D01*
X20367Y25017D01*
X20364Y25029D01*
X20360Y25043D01*
X20353Y25057D01*
X20345Y25072D01*
X20333Y25085D01*
X20331Y25087D01*
X20327Y25091D01*
X20319Y25096D01*
X20309Y25103D01*
X20296Y25110D01*
X20282Y25115D01*
X20266Y25119D01*
X20248Y25121D01*
D02*
G37*
G36*
X23841Y38321D02*
X23681D01*
Y38000D01*
X23847D01*
X23852Y38001D01*
X23858Y38002D01*
X23864Y38003D01*
X23880Y38006D01*
X23897Y38011D01*
X23917Y38019D01*
X23926Y38025D01*
X23935Y38030D01*
X23945Y38038D01*
X23954Y38046D01*
X23955Y38047D01*
X23956Y38048D01*
X23958Y38051D01*
X23962Y38054D01*
X23965Y38058D01*
X23968Y38064D01*
X23973Y38070D01*
X23978Y38078D01*
X23986Y38094D01*
X23993Y38113D01*
X23999Y38135D01*
X24000Y38147D01*
X24000Y38160D01*
Y38161D01*
Y38163D01*
Y38167D01*
X24000Y38171D01*
X23999Y38177D01*
X23998Y38184D01*
X23995Y38200D01*
X23989Y38217D01*
X23981Y38237D01*
X23976Y38246D01*
X23969Y38255D01*
X23962Y38265D01*
X23954Y38274D01*
X23953Y38275D01*
X23952Y38276D01*
X23949Y38278D01*
X23945Y38282D01*
X23941Y38285D01*
X23935Y38288D01*
X23929Y38293D01*
X23923Y38298D01*
X23906Y38306D01*
X23886Y38313D01*
X23864Y38319D01*
X23853Y38320D01*
X23841Y38321D01*
D02*
G37*
G36*
X39604Y27510D02*
X39525D01*
X39524D01*
X39522D01*
X39520D01*
X39516Y27510D01*
X39507Y27509D01*
X39495Y27506D01*
X39482Y27502D01*
X39467Y27495D01*
X39453Y27487D01*
X39439Y27475D01*
X39438Y27473D01*
X39434Y27469D01*
X39428Y27461D01*
X39422Y27451D01*
X39415Y27439D01*
X39410Y27425D01*
X39406Y27408D01*
X39404Y27390D01*
Y27271D01*
X39604D01*
X39605D01*
X39607D01*
X39609D01*
X39613Y27272D01*
X39622Y27273D01*
X39634Y27275D01*
X39648Y27280D01*
X39662Y27285D01*
X39676Y27294D01*
X39690Y27306D01*
X39692Y27307D01*
X39695Y27312D01*
X39701Y27319D01*
X39707Y27329D01*
X39713Y27341D01*
X39719Y27357D01*
X39723Y27373D01*
X39724Y27390D01*
Y27395D01*
X39724Y27399D01*
X39723Y27408D01*
X39720Y27420D01*
X39716Y27433D01*
X39710Y27447D01*
X39702Y27461D01*
X39690Y27475D01*
X39688Y27477D01*
X39683Y27481D01*
X39676Y27486D01*
X39666Y27493D01*
X39653Y27499D01*
X39639Y27505D01*
X39622Y27509D01*
X39604Y27510D01*
D02*
G37*
G36*
X41605D02*
X41525D01*
X41524D01*
X41523D01*
X41520D01*
X41517Y27510D01*
X41507Y27509D01*
X41495Y27506D01*
X41483Y27502D01*
X41468Y27495D01*
X41454Y27487D01*
X41440Y27475D01*
X41439Y27473D01*
X41435Y27469D01*
X41429Y27461D01*
X41423Y27451D01*
X41416Y27439D01*
X41411Y27425D01*
X41407Y27408D01*
X41405Y27390D01*
Y27385D01*
X41406Y27382D01*
X41407Y27373D01*
X41409Y27361D01*
X41413Y27348D01*
X41419Y27334D01*
X41428Y27319D01*
X41440Y27306D01*
X41441Y27304D01*
X41446Y27301D01*
X41453Y27295D01*
X41463Y27289D01*
X41476Y27282D01*
X41490Y27276D01*
X41506Y27273D01*
X41525Y27271D01*
X41605D01*
X41605D01*
X41607D01*
X41610D01*
X41613Y27272D01*
X41622Y27273D01*
X41634Y27275D01*
X41648Y27280D01*
X41662Y27285D01*
X41676Y27294D01*
X41690Y27306D01*
X41692Y27307D01*
X41695Y27312D01*
X41701Y27319D01*
X41707Y27329D01*
X41714Y27341D01*
X41720Y27357D01*
X41723Y27373D01*
X41725Y27390D01*
Y27395D01*
X41724Y27399D01*
X41723Y27408D01*
X41720Y27420D01*
X41716Y27433D01*
X41710Y27447D01*
X41702Y27461D01*
X41690Y27475D01*
X41688Y27477D01*
X41684Y27481D01*
X41676Y27486D01*
X41666Y27493D01*
X41654Y27499D01*
X41639Y27505D01*
X41623Y27509D01*
X41605Y27510D01*
D02*
G37*
G36*
X41204D02*
X41204D01*
X41202D01*
X41199D01*
X41196Y27510D01*
X41187Y27509D01*
X41175Y27506D01*
X41162Y27502D01*
X41148Y27495D01*
X41133Y27487D01*
X41120Y27475D01*
X41118Y27473D01*
X41114Y27469D01*
X41109Y27461D01*
X41102Y27451D01*
X41095Y27439D01*
X41090Y27425D01*
X41086Y27408D01*
X41084Y27390D01*
Y27385D01*
X41085Y27382D01*
X41086Y27373D01*
X41089Y27361D01*
X41093Y27348D01*
X41099Y27334D01*
X41107Y27319D01*
X41119Y27306D01*
X41121Y27304D01*
X41125Y27301D01*
X41133Y27295D01*
X41143Y27289D01*
X41155Y27282D01*
X41170Y27276D01*
X41186Y27273D01*
X41204Y27271D01*
X41205D01*
X41207D01*
X41210D01*
X41213Y27272D01*
X41222Y27273D01*
X41234Y27275D01*
X41248Y27280D01*
X41261Y27285D01*
X41276Y27294D01*
X41290Y27306D01*
X41292Y27307D01*
X41295Y27312D01*
X41301Y27319D01*
X41307Y27329D01*
X41314Y27341D01*
X41320Y27357D01*
X41323Y27373D01*
X41325Y27390D01*
Y27395D01*
X41324Y27399D01*
X41323Y27408D01*
X41320Y27420D01*
X41316Y27433D01*
X41310Y27447D01*
X41302Y27461D01*
X41290Y27475D01*
X41288Y27477D01*
X41283Y27481D01*
X41276Y27486D01*
X41266Y27493D01*
X41254Y27499D01*
X41239Y27505D01*
X41222Y27509D01*
X41204Y27510D01*
D02*
G37*
G36*
X32107Y25590D02*
X32102D01*
X32098Y25589D01*
X32089Y25588D01*
X32077Y25585D01*
X32064Y25581D01*
X32050Y25574D01*
X32036Y25566D01*
X32022Y25554D01*
X32020Y25552D01*
X32017Y25548D01*
X32011Y25541D01*
X32005Y25531D01*
X31998Y25519D01*
X31992Y25504D01*
X31989Y25487D01*
X31987Y25470D01*
Y25390D01*
Y25389D01*
Y25388D01*
Y25385D01*
X31988Y25382D01*
X31989Y25372D01*
X31992Y25361D01*
X31996Y25347D01*
X32002Y25333D01*
X32010Y25318D01*
X32022Y25305D01*
X32024Y25303D01*
X32028Y25300D01*
X32036Y25294D01*
X32046Y25288D01*
X32058Y25281D01*
X32073Y25275D01*
X32089Y25272D01*
X32107Y25270D01*
X32227D01*
Y25470D01*
Y25470D01*
Y25472D01*
Y25475D01*
X32226Y25478D01*
X32225Y25487D01*
X32222Y25499D01*
X32218Y25512D01*
X32211Y25526D01*
X32203Y25541D01*
X32191Y25554D01*
X32189Y25556D01*
X32185Y25560D01*
X32178Y25565D01*
X32167Y25572D01*
X32156Y25579D01*
X32141Y25584D01*
X32124Y25588D01*
X32107Y25590D01*
D02*
G37*
G36*
X38301Y34321D02*
X38298D01*
X38295Y34320D01*
X38290Y34319D01*
X38284Y34316D01*
X38278Y34314D01*
X38271Y34310D01*
X38263Y34304D01*
X38256Y34297D01*
X38247Y34288D01*
X38240Y34277D01*
X38231Y34264D01*
X38224Y34249D01*
X38216Y34231D01*
X38209Y34211D01*
X38202Y34187D01*
Y34186D01*
X38202Y34183D01*
X38201Y34178D01*
X38199Y34172D01*
X38197Y34163D01*
X38196Y34153D01*
X38194Y34142D01*
X38192Y34129D01*
X38190Y34116D01*
X38188Y34102D01*
X38186Y34086D01*
X38185Y34070D01*
X38182Y34036D01*
X38181Y34000D01*
Y33999D01*
Y33996D01*
Y33991D01*
Y33983D01*
X38182Y33975D01*
Y33964D01*
X38183Y33953D01*
X38184Y33939D01*
X38185Y33926D01*
X38186Y33910D01*
X38191Y33879D01*
X38196Y33846D01*
X38202Y33812D01*
Y33811D01*
X38204Y33806D01*
X38206Y33800D01*
X38208Y33792D01*
X38212Y33782D01*
X38216Y33770D01*
X38226Y33746D01*
X38240Y33722D01*
X38248Y33710D01*
X38257Y33701D01*
X38267Y33692D01*
X38277Y33685D01*
X38289Y33681D01*
X38301Y33679D01*
X38303D01*
X38307Y33680D01*
X38312Y33681D01*
X38317Y33684D01*
X38323Y33686D01*
X38330Y33690D01*
X38338Y33696D01*
X38345Y33703D01*
X38354Y33712D01*
X38362Y33723D01*
X38370Y33735D01*
X38378Y33750D01*
X38385Y33768D01*
X38393Y33789D01*
X38399Y33812D01*
Y33813D01*
X38399Y33816D01*
X38400Y33821D01*
X38402Y33827D01*
X38404Y33836D01*
X38405Y33845D01*
X38408Y33857D01*
X38410Y33869D01*
X38411Y33882D01*
X38414Y33897D01*
X38416Y33913D01*
X38417Y33929D01*
X38420Y33964D01*
X38421Y34000D01*
Y34001D01*
Y34004D01*
Y34010D01*
Y34017D01*
X38420Y34025D01*
Y34036D01*
X38419Y34047D01*
X38418Y34061D01*
X38416Y34074D01*
X38416Y34089D01*
X38411Y34121D01*
X38406Y34154D01*
X38399Y34187D01*
Y34189D01*
X38397Y34193D01*
X38395Y34200D01*
X38393Y34208D01*
X38389Y34218D01*
X38385Y34229D01*
X38375Y34254D01*
X38361Y34278D01*
X38353Y34289D01*
X38344Y34299D01*
X38334Y34308D01*
X38324Y34315D01*
X38312Y34319D01*
X38301Y34321D01*
D02*
G37*
G36*
X37139D02*
X36979D01*
Y34000D01*
X37146D01*
X37150Y34001D01*
X37156Y34002D01*
X37163Y34003D01*
X37178Y34006D01*
X37196Y34011D01*
X37215Y34019D01*
X37225Y34025D01*
X37234Y34030D01*
X37243Y34038D01*
X37253Y34046D01*
X37253Y34047D01*
X37254Y34048D01*
X37257Y34051D01*
X37260Y34054D01*
X37264Y34058D01*
X37267Y34064D01*
X37271Y34070D01*
X37276Y34078D01*
X37285Y34094D01*
X37291Y34113D01*
X37297Y34135D01*
X37298Y34147D01*
X37299Y34160D01*
Y34161D01*
Y34163D01*
Y34167D01*
X37298Y34171D01*
X37297Y34177D01*
X37297Y34184D01*
X37293Y34200D01*
X37288Y34217D01*
X37280Y34237D01*
X37275Y34246D01*
X37268Y34255D01*
X37261Y34265D01*
X37253Y34274D01*
X37252Y34275D01*
X37251Y34276D01*
X37247Y34278D01*
X37244Y34282D01*
X37240Y34285D01*
X37234Y34288D01*
X37228Y34293D01*
X37221Y34298D01*
X37204Y34306D01*
X37185Y34313D01*
X37163Y34319D01*
X37152Y34320D01*
X37139Y34321D01*
D02*
G37*
G36*
X31028Y34391D02*
X30868D01*
Y34070D01*
X31034D01*
X31039Y34071D01*
X31044Y34072D01*
X31051Y34073D01*
X31066Y34076D01*
X31084Y34081D01*
X31104Y34089D01*
X31113Y34095D01*
X31122Y34100D01*
X31132Y34108D01*
X31141Y34116D01*
X31142Y34117D01*
X31143Y34118D01*
X31145Y34121D01*
X31148Y34124D01*
X31152Y34128D01*
X31155Y34134D01*
X31159Y34140D01*
X31165Y34148D01*
X31173Y34164D01*
X31180Y34183D01*
X31186Y34205D01*
X31187Y34217D01*
X31187Y34230D01*
Y34231D01*
Y34233D01*
Y34237D01*
X31187Y34241D01*
X31186Y34247D01*
X31185Y34254D01*
X31181Y34270D01*
X31176Y34287D01*
X31168Y34307D01*
X31163Y34316D01*
X31156Y34325D01*
X31149Y34335D01*
X31141Y34344D01*
X31140Y34345D01*
X31139Y34346D01*
X31136Y34348D01*
X31132Y34352D01*
X31128Y34355D01*
X31122Y34358D01*
X31116Y34363D01*
X31110Y34368D01*
X31093Y34376D01*
X31073Y34383D01*
X31051Y34389D01*
X31040Y34390D01*
X31028Y34391D01*
D02*
G37*
G36*
X29870Y32871D02*
X29670D01*
Y32230D01*
X29875D01*
X29879Y32231D01*
X29888Y32232D01*
X29899Y32234D01*
X29912Y32238D01*
X29927Y32244D01*
X29941Y32253D01*
X29955Y32265D01*
X29956Y32266D01*
X29961Y32271D01*
X29966Y32278D01*
X29972Y32288D01*
X29979Y32301D01*
X29984Y32315D01*
X29989Y32332D01*
X29990Y32350D01*
Y32750D01*
Y32751D01*
Y32753D01*
Y32755D01*
X29989Y32758D01*
X29989Y32768D01*
X29986Y32780D01*
X29982Y32793D01*
X29975Y32808D01*
X29967Y32822D01*
X29955Y32835D01*
X29953Y32837D01*
X29949Y32841D01*
X29941Y32846D01*
X29931Y32853D01*
X29918Y32860D01*
X29904Y32865D01*
X29888Y32869D01*
X29870Y32871D01*
D02*
G37*
G36*
X29229D02*
X29029D01*
Y32230D01*
X29234D01*
X29237Y32231D01*
X29247Y32232D01*
X29258Y32234D01*
X29271Y32238D01*
X29286Y32244D01*
X29300Y32253D01*
X29314Y32265D01*
X29315Y32266D01*
X29319Y32271D01*
X29325Y32278D01*
X29331Y32288D01*
X29338Y32301D01*
X29343Y32315D01*
X29347Y32332D01*
X29349Y32350D01*
Y32750D01*
Y32751D01*
Y32753D01*
Y32755D01*
X29348Y32758D01*
X29347Y32768D01*
X29345Y32780D01*
X29341Y32793D01*
X29334Y32808D01*
X29325Y32822D01*
X29314Y32835D01*
X29312Y32837D01*
X29308Y32841D01*
X29300Y32846D01*
X29290Y32853D01*
X29277Y32860D01*
X29263Y32865D01*
X29247Y32869D01*
X29229Y32871D01*
D02*
G37*
G36*
X34811Y11696D02*
X34692D01*
Y11495D01*
Y11494D01*
Y11493D01*
Y11490D01*
X34692Y11487D01*
X34693Y11478D01*
X34696Y11466D01*
X34700Y11452D01*
X34706Y11438D01*
X34714Y11423D01*
X34726Y11410D01*
X34728Y11408D01*
X34732Y11405D01*
X34740Y11399D01*
X34750Y11393D01*
X34762Y11386D01*
X34777Y11380D01*
X34793Y11377D01*
X34811Y11375D01*
X34816D01*
X34819Y11376D01*
X34829Y11377D01*
X34840Y11379D01*
X34853Y11384D01*
X34868Y11390D01*
X34882Y11398D01*
X34895Y11410D01*
X34897Y11412D01*
X34901Y11417D01*
X34906Y11423D01*
X34913Y11434D01*
X34920Y11446D01*
X34925Y11461D01*
X34929Y11478D01*
X34931Y11495D01*
Y11575D01*
Y11576D01*
Y11577D01*
Y11580D01*
X34930Y11583D01*
X34929Y11593D01*
X34927Y11604D01*
X34922Y11618D01*
X34916Y11632D01*
X34907Y11647D01*
X34895Y11660D01*
X34894Y11662D01*
X34889Y11666D01*
X34882Y11671D01*
X34872Y11678D01*
X34860Y11685D01*
X34846Y11690D01*
X34829Y11694D01*
X34811Y11696D01*
D02*
G37*
G36*
X60653Y16058D02*
X60648D01*
X60645Y16058D01*
X60636Y16057D01*
X60624Y16054D01*
X60611Y16050D01*
X60597Y16044D01*
X60582Y16036D01*
X60569Y16024D01*
X60567Y16022D01*
X60564Y16018D01*
X60558Y16010D01*
X60552Y16000D01*
X60545Y15987D01*
X60539Y15973D01*
X60536Y15957D01*
X60534Y15938D01*
Y15937D01*
Y15936D01*
Y15933D01*
X60535Y15930D01*
X60536Y15921D01*
X60538Y15909D01*
X60543Y15895D01*
X60549Y15882D01*
X60557Y15866D01*
X60569Y15853D01*
X60570Y15851D01*
X60575Y15848D01*
X60582Y15842D01*
X60592Y15836D01*
X60604Y15829D01*
X60620Y15823D01*
X60636Y15820D01*
X60653Y15818D01*
X60658D01*
X60662Y15819D01*
X60671Y15820D01*
X60683Y15822D01*
X60696Y15827D01*
X60710Y15833D01*
X60724Y15841D01*
X60738Y15853D01*
X60740Y15855D01*
X60744Y15860D01*
X60749Y15866D01*
X60756Y15877D01*
X60763Y15889D01*
X60768Y15904D01*
X60772Y15921D01*
X60773Y15938D01*
Y15939D01*
Y15941D01*
Y15943D01*
X60773Y15947D01*
X60772Y15956D01*
X60769Y15968D01*
X60765Y15981D01*
X60758Y15995D01*
X60750Y16009D01*
X60738Y16023D01*
X60736Y16025D01*
X60732Y16029D01*
X60724Y16034D01*
X60714Y16041D01*
X60702Y16047D01*
X60688Y16052D01*
X60671Y16057D01*
X60653Y16058D01*
D02*
G37*
G36*
Y15738D02*
X60648D01*
X60645Y15737D01*
X60636Y15736D01*
X60624Y15734D01*
X60611Y15729D01*
X60597Y15723D01*
X60582Y15715D01*
X60569Y15703D01*
X60567Y15701D01*
X60564Y15697D01*
X60558Y15690D01*
X60552Y15679D01*
X60545Y15667D01*
X60539Y15652D01*
X60536Y15636D01*
X60534Y15618D01*
Y15538D01*
Y15537D01*
Y15536D01*
Y15533D01*
X60535Y15530D01*
X60536Y15520D01*
X60538Y15509D01*
X60543Y15495D01*
X60549Y15481D01*
X60557Y15466D01*
X60569Y15453D01*
X60570Y15451D01*
X60575Y15448D01*
X60582Y15442D01*
X60592Y15436D01*
X60604Y15429D01*
X60620Y15423D01*
X60636Y15420D01*
X60653Y15418D01*
X60658D01*
X60662Y15419D01*
X60671Y15420D01*
X60683Y15422D01*
X60696Y15427D01*
X60710Y15433D01*
X60724Y15441D01*
X60738Y15453D01*
X60740Y15455D01*
X60744Y15459D01*
X60749Y15466D01*
X60756Y15476D01*
X60763Y15489D01*
X60768Y15504D01*
X60772Y15520D01*
X60773Y15538D01*
Y15618D01*
Y15619D01*
Y15620D01*
Y15623D01*
X60773Y15626D01*
X60772Y15636D01*
X60769Y15647D01*
X60765Y15660D01*
X60758Y15674D01*
X60750Y15689D01*
X60738Y15702D01*
X60736Y15704D01*
X60732Y15708D01*
X60724Y15713D01*
X60714Y15720D01*
X60702Y15727D01*
X60688Y15732D01*
X60671Y15736D01*
X60653Y15738D01*
D02*
G37*
G36*
X60380Y18958D02*
X60375D01*
X60372Y18958D01*
X60362Y18957D01*
X60350Y18954D01*
X60338Y18950D01*
X60323Y18943D01*
X60309Y18935D01*
X60295Y18923D01*
X60294Y18921D01*
X60290Y18917D01*
X60284Y18909D01*
X60278Y18899D01*
X60272Y18887D01*
X60266Y18873D01*
X60262Y18856D01*
X60261Y18838D01*
Y18759D01*
Y18758D01*
Y18756D01*
Y18754D01*
X60262Y18750D01*
X60262Y18741D01*
X60265Y18729D01*
X60269Y18716D01*
X60275Y18701D01*
X60284Y18687D01*
X60295Y18673D01*
X60297Y18672D01*
X60301Y18668D01*
X60309Y18662D01*
X60319Y18656D01*
X60331Y18650D01*
X60346Y18644D01*
X60362Y18640D01*
X60380Y18639D01*
X60500D01*
Y18838D01*
Y18839D01*
Y18841D01*
Y18843D01*
X60499Y18847D01*
X60498Y18856D01*
X60496Y18868D01*
X60492Y18881D01*
X60485Y18895D01*
X60476Y18909D01*
X60465Y18923D01*
X60463Y18925D01*
X60459Y18929D01*
X60451Y18934D01*
X60441Y18941D01*
X60429Y18947D01*
X60415Y18952D01*
X60398Y18957D01*
X60380Y18958D01*
D02*
G37*
G36*
X45085Y26016D02*
X45082D01*
X45079Y26015D01*
X45074Y26015D01*
X45068Y26012D01*
X45062Y26010D01*
X45055Y26005D01*
X45047Y25999D01*
X45040Y25993D01*
X45031Y25983D01*
X45024Y25973D01*
X45015Y25960D01*
X45008Y25944D01*
X45000Y25927D01*
X44993Y25906D01*
X44986Y25883D01*
Y25882D01*
X44986Y25878D01*
X44985Y25873D01*
X44983Y25867D01*
X44981Y25859D01*
X44980Y25849D01*
X44978Y25838D01*
X44976Y25825D01*
X44974Y25812D01*
X44972Y25797D01*
X44970Y25782D01*
X44969Y25766D01*
X44966Y25731D01*
X44965Y25696D01*
Y25695D01*
Y25692D01*
Y25686D01*
Y25679D01*
X44966Y25670D01*
Y25659D01*
X44967Y25648D01*
X44968Y25635D01*
X44969Y25621D01*
X44970Y25606D01*
X44975Y25575D01*
X44980Y25542D01*
X44986Y25508D01*
Y25506D01*
X44988Y25502D01*
X44990Y25496D01*
X44992Y25488D01*
X44996Y25478D01*
X45000Y25466D01*
X45010Y25442D01*
X45024Y25417D01*
X45032Y25406D01*
X45041Y25396D01*
X45051Y25388D01*
X45061Y25381D01*
X45073Y25377D01*
X45085Y25375D01*
X45087D01*
X45091Y25376D01*
X45096Y25377D01*
X45101Y25379D01*
X45107Y25382D01*
X45114Y25386D01*
X45122Y25392D01*
X45129Y25399D01*
X45138Y25407D01*
X45146Y25418D01*
X45154Y25431D01*
X45162Y25446D01*
X45169Y25464D01*
X45177Y25484D01*
X45183Y25508D01*
Y25509D01*
X45183Y25512D01*
X45184Y25516D01*
X45186Y25523D01*
X45188Y25532D01*
X45189Y25541D01*
X45192Y25553D01*
X45194Y25565D01*
X45195Y25578D01*
X45198Y25593D01*
X45200Y25609D01*
X45201Y25625D01*
X45204Y25659D01*
X45205Y25696D01*
Y25697D01*
Y25700D01*
Y25706D01*
Y25713D01*
X45204Y25721D01*
Y25732D01*
X45203Y25743D01*
X45202Y25757D01*
X45200Y25770D01*
X45200Y25785D01*
X45195Y25817D01*
X45190Y25850D01*
X45183Y25883D01*
Y25884D01*
X45181Y25889D01*
X45179Y25895D01*
X45177Y25904D01*
X45173Y25914D01*
X45169Y25925D01*
X45159Y25949D01*
X45145Y25974D01*
X45137Y25985D01*
X45128Y25995D01*
X45118Y26004D01*
X45108Y26010D01*
X45096Y26015D01*
X45085Y26016D01*
D02*
G37*
G36*
X54694Y22903D02*
X54495D01*
Y22262D01*
X54699D01*
X54703Y22263D01*
X54712Y22264D01*
X54723Y22266D01*
X54737Y22271D01*
X54751Y22277D01*
X54765Y22285D01*
X54779Y22297D01*
X54781Y22299D01*
X54785Y22304D01*
X54790Y22310D01*
X54797Y22321D01*
X54803Y22333D01*
X54808Y22348D01*
X54813Y22365D01*
X54814Y22382D01*
Y22782D01*
Y22783D01*
Y22785D01*
Y22788D01*
X54814Y22791D01*
X54813Y22800D01*
X54810Y22812D01*
X54806Y22826D01*
X54799Y22840D01*
X54791Y22854D01*
X54779Y22868D01*
X54777Y22870D01*
X54773Y22874D01*
X54765Y22879D01*
X54755Y22886D01*
X54742Y22892D01*
X54728Y22897D01*
X54712Y22902D01*
X54694Y22903D01*
D02*
G37*
G36*
X54053D02*
X53854D01*
Y22262D01*
X54058D01*
X54062Y22263D01*
X54071Y22264D01*
X54082Y22266D01*
X54095Y22271D01*
X54110Y22277D01*
X54124Y22285D01*
X54138Y22297D01*
X54139Y22299D01*
X54144Y22304D01*
X54149Y22310D01*
X54155Y22321D01*
X54162Y22333D01*
X54167Y22348D01*
X54172Y22365D01*
X54173Y22382D01*
Y22782D01*
Y22783D01*
Y22785D01*
Y22788D01*
X54172Y22791D01*
X54172Y22800D01*
X54169Y22812D01*
X54165Y22826D01*
X54158Y22840D01*
X54150Y22854D01*
X54138Y22868D01*
X54136Y22870D01*
X54132Y22874D01*
X54124Y22879D01*
X54114Y22886D01*
X54101Y22892D01*
X54087Y22897D01*
X54071Y22902D01*
X54053Y22903D01*
D02*
G37*
G36*
X68221Y28103D02*
X68061D01*
Y27782D01*
X68228D01*
X68232Y27783D01*
X68238Y27784D01*
X68245Y27785D01*
X68260Y27788D01*
X68278Y27793D01*
X68297Y27802D01*
X68306Y27807D01*
X68316Y27813D01*
X68325Y27820D01*
X68334Y27828D01*
X68335Y27829D01*
X68336Y27830D01*
X68338Y27833D01*
X68342Y27836D01*
X68345Y27840D01*
X68349Y27846D01*
X68353Y27852D01*
X68358Y27860D01*
X68366Y27876D01*
X68373Y27895D01*
X68379Y27917D01*
X68380Y27929D01*
X68381Y27942D01*
Y27943D01*
Y27945D01*
Y27949D01*
X68380Y27953D01*
X68379Y27959D01*
X68378Y27966D01*
X68375Y27982D01*
X68370Y27999D01*
X68361Y28019D01*
X68356Y28028D01*
X68349Y28038D01*
X68343Y28047D01*
X68334Y28056D01*
X68333Y28057D01*
X68333Y28058D01*
X68329Y28060D01*
X68326Y28064D01*
X68322Y28067D01*
X68316Y28071D01*
X68310Y28075D01*
X68303Y28080D01*
X68286Y28088D01*
X68267Y28095D01*
X68245Y28101D01*
X68234Y28102D01*
X68221Y28103D01*
D02*
G37*
G36*
X35716Y15639D02*
X35709D01*
X35705Y15638D01*
X35699Y15637D01*
X35693Y15637D01*
X35676Y15633D01*
X35659Y15628D01*
X35639Y15620D01*
X35630Y15615D01*
X35621Y15608D01*
X35611Y15601D01*
X35602Y15593D01*
X35601Y15592D01*
X35600Y15591D01*
X35598Y15588D01*
X35595Y15584D01*
X35592Y15580D01*
X35588Y15574D01*
X35583Y15568D01*
X35579Y15561D01*
X35571Y15544D01*
X35563Y15525D01*
X35558Y15503D01*
X35557Y15491D01*
X35556Y15478D01*
Y15158D01*
Y15157D01*
Y15154D01*
Y15151D01*
X35557Y15147D01*
X35558Y15141D01*
X35559Y15134D01*
X35562Y15118D01*
X35567Y15100D01*
X35576Y15081D01*
X35581Y15072D01*
X35587Y15062D01*
X35594Y15053D01*
X35602Y15044D01*
X35603Y15043D01*
X35605Y15042D01*
X35607Y15039D01*
X35610Y15037D01*
X35615Y15034D01*
X35621Y15029D01*
X35627Y15025D01*
X35634Y15021D01*
X35650Y15012D01*
X35670Y15005D01*
X35692Y15000D01*
X35704Y14999D01*
X35716Y14998D01*
X35724D01*
X35729Y14999D01*
X35735Y15000D01*
X35742Y15001D01*
X35751Y15003D01*
X35760Y15006D01*
X35780Y15012D01*
X35790Y15017D01*
X35800Y15023D01*
X35810Y15029D01*
X35820Y15037D01*
X35830Y15045D01*
X35840Y15056D01*
X35839Y15056D01*
X35837Y15058D01*
X35835Y15061D01*
X35831Y15064D01*
X35822Y15072D01*
X35812Y15083D01*
X35811Y15083D01*
X35809Y15085D01*
X35807Y15089D01*
X35804Y15094D01*
X35799Y15104D01*
X35797Y15111D01*
X35797Y15116D01*
Y15117D01*
Y15118D01*
X35797Y15123D01*
X35799Y15129D01*
X35802Y15137D01*
X35807Y15144D01*
X35813Y15151D01*
X35824Y15155D01*
X35830Y15156D01*
X35836Y15157D01*
X35840D01*
X35843Y15156D01*
X35847Y15154D01*
X35853Y15152D01*
X35859Y15148D01*
X35867Y15143D01*
X35874Y15135D01*
Y15136D01*
Y15137D01*
X35875Y15142D01*
X35876Y15149D01*
Y15158D01*
Y15478D01*
Y15479D01*
Y15482D01*
Y15485D01*
X35875Y15489D01*
X35874Y15495D01*
X35874Y15502D01*
X35870Y15518D01*
X35865Y15536D01*
X35857Y15555D01*
X35852Y15565D01*
X35845Y15574D01*
X35838Y15583D01*
X35830Y15593D01*
X35829Y15593D01*
X35828Y15594D01*
X35824Y15597D01*
X35821Y15600D01*
X35817Y15604D01*
X35811Y15607D01*
X35805Y15611D01*
X35798Y15616D01*
X35781Y15625D01*
X35762Y15632D01*
X35740Y15637D01*
X35729Y15638D01*
X35716Y15639D01*
D02*
G37*
G36*
X58080Y35921D02*
X57880D01*
Y35279D01*
X58085D01*
X58088Y35280D01*
X58098Y35281D01*
X58109Y35284D01*
X58122Y35288D01*
X58137Y35294D01*
X58151Y35302D01*
X58165Y35314D01*
X58166Y35316D01*
X58170Y35321D01*
X58176Y35328D01*
X58182Y35338D01*
X58189Y35350D01*
X58194Y35365D01*
X58198Y35382D01*
X58200Y35400D01*
Y35800D01*
Y35800D01*
Y35802D01*
Y35805D01*
X58199Y35808D01*
X58198Y35817D01*
X58196Y35829D01*
X58192Y35843D01*
X58185Y35857D01*
X58176Y35872D01*
X58165Y35885D01*
X58163Y35887D01*
X58159Y35891D01*
X58151Y35896D01*
X58141Y35903D01*
X58128Y35910D01*
X58114Y35915D01*
X58098Y35919D01*
X58080Y35921D01*
D02*
G37*
G36*
X57439D02*
X57239D01*
Y35279D01*
X57444D01*
X57447Y35280D01*
X57457Y35281D01*
X57468Y35284D01*
X57481Y35288D01*
X57495Y35294D01*
X57510Y35302D01*
X57523Y35314D01*
X57525Y35316D01*
X57529Y35321D01*
X57534Y35328D01*
X57541Y35338D01*
X57548Y35350D01*
X57553Y35365D01*
X57557Y35382D01*
X57559Y35400D01*
Y35800D01*
Y35800D01*
Y35802D01*
Y35805D01*
X57558Y35808D01*
X57557Y35817D01*
X57555Y35829D01*
X57550Y35843D01*
X57544Y35857D01*
X57535Y35872D01*
X57523Y35885D01*
X57522Y35887D01*
X57517Y35891D01*
X57510Y35896D01*
X57500Y35903D01*
X57487Y35910D01*
X57473Y35915D01*
X57457Y35919D01*
X57439Y35921D01*
D02*
G37*
G36*
X57700Y25922D02*
X57540D01*
Y25602D01*
X57706D01*
X57711Y25603D01*
X57716Y25603D01*
X57723Y25604D01*
X57738Y25608D01*
X57756Y25613D01*
X57776Y25621D01*
X57785Y25626D01*
X57794Y25632D01*
X57804Y25640D01*
X57813Y25647D01*
X57814Y25648D01*
X57815Y25650D01*
X57817Y25653D01*
X57820Y25656D01*
X57824Y25660D01*
X57827Y25666D01*
X57831Y25672D01*
X57837Y25680D01*
X57845Y25696D01*
X57852Y25715D01*
X57858Y25737D01*
X57859Y25749D01*
X57859Y25762D01*
Y25762D01*
Y25765D01*
Y25768D01*
X57859Y25773D01*
X57858Y25779D01*
X57857Y25785D01*
X57853Y25801D01*
X57848Y25819D01*
X57840Y25839D01*
X57835Y25848D01*
X57828Y25857D01*
X57821Y25867D01*
X57813Y25876D01*
X57812Y25877D01*
X57811Y25878D01*
X57808Y25880D01*
X57804Y25883D01*
X57800Y25887D01*
X57794Y25890D01*
X57788Y25894D01*
X57782Y25899D01*
X57765Y25908D01*
X57745Y25915D01*
X57723Y25921D01*
X57712Y25921D01*
X57700Y25922D01*
D02*
G37*
G36*
X9399Y13569D02*
X9281Y13217D01*
X9516D01*
X9399Y13569D01*
D02*
G37*
G36*
X8758Y13657D02*
X8558D01*
Y13016D01*
X8763D01*
X8766Y13017D01*
X8775Y13018D01*
X8786Y13020D01*
X8800Y13025D01*
X8814Y13031D01*
X8829Y13039D01*
X8842Y13051D01*
X8844Y13053D01*
X8848Y13058D01*
X8853Y13064D01*
X8860Y13075D01*
X8867Y13087D01*
X8872Y13102D01*
X8876Y13119D01*
X8878Y13136D01*
Y13536D01*
Y13537D01*
Y13539D01*
Y13541D01*
X8877Y13545D01*
X8876Y13554D01*
X8874Y13566D01*
X8869Y13580D01*
X8863Y13594D01*
X8854Y13608D01*
X8842Y13622D01*
X8841Y13623D01*
X8836Y13628D01*
X8829Y13633D01*
X8819Y13640D01*
X8806Y13646D01*
X8791Y13651D01*
X8775Y13656D01*
X8758Y13657D01*
D02*
G37*
G36*
X40291Y10359D02*
X40286D01*
X40283Y10359D01*
X40273Y10358D01*
X40261Y10355D01*
X40249Y10351D01*
X40234Y10345D01*
X40220Y10337D01*
X40206Y10325D01*
X40205Y10323D01*
X40201Y10319D01*
X40195Y10311D01*
X40190Y10301D01*
X40183Y10288D01*
X40177Y10274D01*
X40173Y10258D01*
X40172Y10239D01*
Y10238D01*
Y10237D01*
Y10234D01*
X40173Y10231D01*
X40173Y10222D01*
X40176Y10210D01*
X40180Y10196D01*
X40186Y10183D01*
X40195Y10167D01*
X40206Y10154D01*
X40208Y10152D01*
X40212Y10149D01*
X40220Y10143D01*
X40230Y10137D01*
X40242Y10130D01*
X40257Y10124D01*
X40273Y10121D01*
X40291Y10119D01*
X40296D01*
X40299Y10120D01*
X40309Y10121D01*
X40321Y10123D01*
X40333Y10128D01*
X40348Y10134D01*
X40362Y10142D01*
X40376Y10154D01*
X40377Y10156D01*
X40382Y10161D01*
X40387Y10167D01*
X40393Y10178D01*
X40400Y10190D01*
X40405Y10205D01*
X40409Y10222D01*
X40411Y10239D01*
Y10240D01*
Y10242D01*
Y10244D01*
X40410Y10248D01*
X40409Y10257D01*
X40407Y10269D01*
X40403Y10282D01*
X40396Y10296D01*
X40387Y10310D01*
X40376Y10324D01*
X40374Y10326D01*
X40370Y10330D01*
X40362Y10335D01*
X40352Y10342D01*
X40340Y10348D01*
X40326Y10354D01*
X40309Y10358D01*
X40291Y10359D01*
D02*
G37*
G36*
Y10039D02*
X40286D01*
X40283Y10038D01*
X40273Y10037D01*
X40261Y10035D01*
X40249Y10030D01*
X40234Y10024D01*
X40220Y10016D01*
X40206Y10004D01*
X40205Y10003D01*
X40201Y9998D01*
X40195Y9991D01*
X40190Y9981D01*
X40183Y9968D01*
X40177Y9953D01*
X40173Y9937D01*
X40172Y9919D01*
Y9839D01*
Y9838D01*
Y9837D01*
Y9834D01*
X40173Y9831D01*
X40173Y9822D01*
X40176Y9810D01*
X40180Y9796D01*
X40186Y9782D01*
X40195Y9767D01*
X40206Y9754D01*
X40208Y9752D01*
X40212Y9749D01*
X40220Y9743D01*
X40230Y9737D01*
X40242Y9730D01*
X40257Y9724D01*
X40273Y9721D01*
X40291Y9719D01*
X40296D01*
X40299Y9720D01*
X40309Y9721D01*
X40321Y9723D01*
X40333Y9728D01*
X40348Y9734D01*
X40362Y9742D01*
X40376Y9754D01*
X40377Y9756D01*
X40382Y9760D01*
X40387Y9767D01*
X40393Y9778D01*
X40400Y9790D01*
X40405Y9805D01*
X40409Y9821D01*
X40411Y9839D01*
Y9919D01*
Y9920D01*
Y9921D01*
Y9924D01*
X40410Y9927D01*
X40409Y9937D01*
X40407Y9948D01*
X40403Y9961D01*
X40396Y9975D01*
X40387Y9990D01*
X40376Y10003D01*
X40374Y10005D01*
X40370Y10009D01*
X40362Y10014D01*
X40352Y10021D01*
X40340Y10028D01*
X40326Y10033D01*
X40309Y10037D01*
X40291Y10039D01*
D02*
G37*
G36*
X39290Y10360D02*
X39130D01*
Y10040D01*
X39296D01*
X39301Y10041D01*
X39306Y10041D01*
X39313Y10042D01*
X39328Y10046D01*
X39346Y10051D01*
X39366Y10059D01*
X39375Y10064D01*
X39384Y10070D01*
X39394Y10078D01*
X39403Y10085D01*
X39404Y10086D01*
X39405Y10088D01*
X39407Y10090D01*
X39411Y10094D01*
X39414Y10098D01*
X39417Y10104D01*
X39422Y10110D01*
X39427Y10118D01*
X39435Y10134D01*
X39442Y10153D01*
X39448Y10175D01*
X39449Y10187D01*
X39449Y10200D01*
Y10200D01*
Y10203D01*
Y10206D01*
X39449Y10211D01*
X39448Y10217D01*
X39447Y10223D01*
X39444Y10239D01*
X39438Y10257D01*
X39430Y10277D01*
X39425Y10286D01*
X39418Y10295D01*
X39411Y10304D01*
X39403Y10314D01*
X39402Y10315D01*
X39401Y10315D01*
X39398Y10318D01*
X39394Y10321D01*
X39390Y10325D01*
X39384Y10328D01*
X39378Y10332D01*
X39372Y10337D01*
X39355Y10346D01*
X39335Y10353D01*
X39313Y10359D01*
X39302Y10359D01*
X39290Y10360D01*
D02*
G37*
G36*
X1495Y24420D02*
X1335D01*
Y24099D01*
X1502D01*
X1506Y24100D01*
X1512Y24101D01*
X1519Y24102D01*
X1534Y24105D01*
X1552Y24110D01*
X1571Y24119D01*
X1581Y24124D01*
X1590Y24130D01*
X1599Y24137D01*
X1608Y24145D01*
X1609Y24146D01*
X1610Y24147D01*
X1613Y24150D01*
X1616Y24153D01*
X1619Y24157D01*
X1623Y24163D01*
X1627Y24169D01*
X1632Y24177D01*
X1641Y24193D01*
X1647Y24212D01*
X1653Y24234D01*
X1654Y24246D01*
X1655Y24259D01*
Y24260D01*
Y24262D01*
Y24266D01*
X1654Y24270D01*
X1653Y24276D01*
X1652Y24283D01*
X1649Y24299D01*
X1644Y24316D01*
X1635Y24336D01*
X1630Y24345D01*
X1624Y24355D01*
X1617Y24364D01*
X1608Y24373D01*
X1608Y24374D01*
X1607Y24375D01*
X1603Y24377D01*
X1600Y24381D01*
X1596Y24384D01*
X1590Y24388D01*
X1584Y24392D01*
X1577Y24397D01*
X1560Y24405D01*
X1541Y24412D01*
X1519Y24418D01*
X1508Y24419D01*
X1495Y24420D01*
D02*
G37*
G36*
X52860Y1521D02*
X52700D01*
Y1200D01*
X52867D01*
X52871Y1201D01*
X52877Y1202D01*
X52883Y1203D01*
X52899Y1206D01*
X52916Y1211D01*
X52936Y1219D01*
X52945Y1225D01*
X52955Y1230D01*
X52964Y1238D01*
X52973Y1246D01*
X52974Y1247D01*
X52975Y1248D01*
X52977Y1251D01*
X52981Y1254D01*
X52984Y1258D01*
X52987Y1264D01*
X52992Y1270D01*
X52997Y1278D01*
X53005Y1294D01*
X53012Y1313D01*
X53018Y1335D01*
X53019Y1347D01*
X53020Y1360D01*
Y1361D01*
Y1363D01*
Y1367D01*
X53019Y1371D01*
X53018Y1377D01*
X53017Y1384D01*
X53014Y1400D01*
X53009Y1417D01*
X53000Y1437D01*
X52995Y1446D01*
X52988Y1455D01*
X52982Y1465D01*
X52973Y1474D01*
X52972Y1475D01*
X52971Y1476D01*
X52968Y1478D01*
X52965Y1482D01*
X52960Y1485D01*
X52955Y1488D01*
X52949Y1493D01*
X52942Y1498D01*
X52925Y1506D01*
X52905Y1513D01*
X52883Y1519D01*
X52872Y1520D01*
X52860Y1521D01*
D02*
G37*
%LPD*%
D10*
X35855Y27380D02*
G03*
X35855Y27380I-300J0D01*
G01*
X45004Y21253D02*
G03*
X44204Y21253I-400J0D01*
G01*
X44204D02*
G03*
X45004Y21253I400J0D01*
G01*
X40304Y27933D02*
Y31233D01*
X38504D02*
X40304D01*
X38504Y27933D02*
X40304D01*
X38504D02*
Y31233D01*
X32865Y24270D02*
X36165D01*
X32865Y22470D02*
Y24270D01*
X36165Y22470D02*
Y24270D01*
X32865Y22470D02*
X36165D01*
X42249Y27933D02*
Y31233D01*
X40449D02*
X42249D01*
X40449Y27933D02*
X42249D01*
X40449D02*
Y31233D01*
X32865Y26170D02*
X36165D01*
X32865Y24370D02*
Y26170D01*
X36165Y24370D02*
Y26170D01*
X32865Y24370D02*
X36165D01*
X36565Y32220D02*
Y35520D01*
X34665D02*
X36565D01*
X34665Y32220D02*
Y35520D01*
Y32220D02*
X36565D01*
X34565D02*
Y35520D01*
X32665D02*
X34565D01*
X32665Y32220D02*
Y35520D01*
Y32220D02*
X34565D01*
X36175Y31770D02*
X38475D01*
X36275Y26670D02*
X38475D01*
X30475Y31770D02*
X32775D01*
X30475Y26670D02*
X32675D01*
X38475D02*
Y31770D01*
X36175Y26370D02*
Y32070D01*
X32775Y26370D02*
Y32070D01*
X30475Y26670D02*
Y31770D01*
X32775Y32070D02*
X36175D01*
X32775Y26370D02*
X36175D01*
X33414Y16958D02*
Y20258D01*
X31614D02*
X33414D01*
X31614Y16958D02*
X33414D01*
X31614D02*
Y20258D01*
Y10007D02*
Y13307D01*
Y10007D02*
X33414D01*
X31614Y13307D02*
X33414D01*
Y10007D02*
Y13307D01*
X33302Y6610D02*
X35100D01*
X35100Y6610D01*
Y7110D01*
X49850D01*
X49850Y7109D01*
Y6609D02*
Y7109D01*
Y6609D02*
X51301D01*
X35100Y6110D02*
Y6610D01*
Y6110D02*
X49850D01*
X49850Y6110D01*
Y6609D01*
X46854Y9882D02*
X50154D01*
X46854Y8082D02*
Y9882D01*
X50154Y8082D02*
Y9882D01*
X46854Y8082D02*
X50154D01*
X40656Y18203D02*
Y21503D01*
X38856D02*
X40656D01*
X38856Y18203D02*
X40656D01*
X38856D02*
Y21503D01*
X45955Y24724D02*
X49255D01*
Y26524D01*
X45955Y24724D02*
Y26524D01*
X49255D01*
X53204Y10053D02*
Y12453D01*
X44004Y10053D02*
Y12453D01*
X53204Y22053D02*
Y24453D01*
X44004Y22053D02*
Y24453D01*
X53404Y21853D02*
X55804D01*
X53404Y12653D02*
X55804D01*
X41404D02*
X43804D01*
X41404Y21853D02*
X43804D01*
X41404Y12653D02*
Y21853D01*
X43804Y12453D02*
Y22053D01*
X55804Y12653D02*
Y21853D01*
X53404Y12453D02*
Y22053D01*
X44004Y10053D02*
X53204D01*
X43804Y12453D02*
X53404D01*
X43804Y22053D02*
X53404D01*
X44004Y24453D02*
X53204D01*
X56043Y14839D02*
X59343D01*
Y16639D01*
X56043Y14839D02*
Y16639D01*
X59343D01*
X55897Y19539D02*
X59197D01*
X55897Y17739D02*
Y19539D01*
X59197Y17739D02*
Y19539D01*
X55897Y17739D02*
X59197D01*
X53710Y24584D02*
Y26484D01*
X57010D01*
Y24584D02*
Y26484D01*
X53710Y24584D02*
X57010D01*
X40999Y7432D02*
X42899D01*
X40999D02*
Y10732D01*
X42899D01*
Y7432D02*
Y10732D01*
D11*
X11471Y12877D02*
G03*
X11562Y12877I45J0D01*
G01*
D02*
G03*
X11471Y12877I-45J0D01*
G01*
D12*
X33646Y9482D02*
Y20982D01*
X38146Y9482D02*
Y20982D01*
X33646D02*
X34896D01*
X33646Y9482D02*
X34896D01*
X36896Y20982D02*
X38146D01*
X36896Y9482D02*
X38146D01*
X11450Y25409D02*
Y33009D01*
Y25409D02*
X23250D01*
Y33009D01*
X11450D02*
X23250D01*
X33301Y6609D02*
X33350Y360D01*
X51350D01*
X33350D02*
X51350D01*
X51301Y6609D02*
X51350Y360D01*
X11350Y23700D02*
X23150D01*
Y16100D02*
Y23700D01*
X11350Y16100D02*
X23150D01*
X11350D02*
Y23700D01*
X73650Y14118D02*
Y26768D01*
X67350D02*
X73650D01*
X67350Y14118D02*
Y26768D01*
Y14118D02*
X73650D01*
X9179Y23528D02*
X9529D01*
X9279Y16228D02*
X9529D01*
X5229D02*
X5579D01*
X9529D02*
Y23528D01*
X5229Y16228D02*
Y23528D01*
X5579D01*
D13*
X25183Y35700D02*
X39583D01*
Y39700D01*
X25183Y35700D02*
Y39700D01*
X39583D01*
X66350Y10800D02*
X68850D01*
X66350Y800D02*
X68850D01*
X66350D02*
Y10800D01*
X68850Y800D02*
Y10800D01*
X58850Y800D02*
Y10800D01*
X56350Y800D02*
Y10800D01*
Y800D02*
X58850D01*
X56350Y10800D02*
X58850D01*
X4651Y16664D02*
Y23064D01*
X651Y16664D02*
X4651D01*
X651Y23064D02*
X4651D01*
X651Y16664D02*
Y23064D01*
D14*
X9610Y12425D02*
X20510D01*
X9610Y2825D02*
Y12425D01*
X20510Y2825D02*
X31410D01*
Y12425D01*
X46213Y36432D02*
Y39002D01*
X45963Y29482D02*
Y36402D01*
X56713Y29482D02*
Y36402D01*
X45963D02*
X56713D01*
X46213Y39002D02*
X56463D01*
X45963Y29482D02*
X56713D01*
X46163Y26782D02*
X56463D01*
Y36402D02*
Y39002D01*
X46163Y26782D02*
Y29482D01*
X56463Y26782D02*
Y29432D01*
D15*
X7380Y18978D02*
D03*
M02*
