G04*
G04 #@! TF.GenerationSoftware,Altium Limited,Altium Designer,23.11.1 (41)*
G04*
G04 Layer_Color=8388736*
%FSLAX43Y43*%
%MOMM*%
G71*
G04*
G04 #@! TF.SameCoordinates,128D2ADB-0047-4A34-82FD-57E8471D3911*
G04*
G04*
G04 #@! TF.FilePolarity,Negative*
G04*
G01*
G75*
%ADD14R,1.150X1.600*%
%ADD15R,1.500X1.150*%
%ADD16R,1.600X1.150*%
%ADD17R,1.600X3.300*%
%ADD18R,3.300X1.600*%
%ADD19C,2.000*%
G04:AMPARAMS|DCode=20|XSize=3.1mm|YSize=3.1mm|CornerRadius=0.8mm|HoleSize=0mm|Usage=FLASHONLY|Rotation=202.000|XOffset=0mm|YOffset=0mm|HoleType=Round|Shape=RoundedRectangle|*
%AMROUNDEDRECTD20*
21,1,3.100,1.500,0,0,202.0*
21,1,1.500,3.100,0,0,202.0*
1,1,1.600,-0.976,0.414*
1,1,1.600,0.414,0.976*
1,1,1.600,0.976,-0.414*
1,1,1.600,-0.414,-0.976*
%
%ADD20ROUNDEDRECTD20*%
%ADD21C,1.700*%
%ADD22C,7.100*%
%ADD23C,0.100*%
%ADD24C,2.100*%
%ADD25R,2.100X2.100*%
%ADD26P,2.970X4X244.0*%
G04:AMPARAMS|DCode=27|XSize=3.1mm|YSize=3.1mm|CornerRadius=0.8mm|HoleSize=0mm|Usage=FLASHONLY|Rotation=14.000|XOffset=0mm|YOffset=0mm|HoleType=Round|Shape=RoundedRectangle|*
%AMROUNDEDRECTD27*
21,1,3.100,1.500,0,0,14.0*
21,1,1.500,3.100,0,0,14.0*
1,1,1.600,0.909,-0.546*
1,1,1.600,-0.546,-0.909*
1,1,1.600,-0.909,0.546*
1,1,1.600,0.546,0.909*
%
%ADD27ROUNDEDRECTD27*%
%ADD28C,1.400*%
%ADD29C,1.624*%
G04:AMPARAMS|DCode=30|XSize=3.1mm|YSize=3.1mm|CornerRadius=0.8mm|HoleSize=0mm|Usage=FLASHONLY|Rotation=109.000|XOffset=0mm|YOffset=0mm|HoleType=Round|Shape=RoundedRectangle|*
%AMROUNDEDRECTD30*
21,1,3.100,1.500,0,0,109.0*
21,1,1.500,3.100,0,0,109.0*
1,1,1.600,0.465,0.953*
1,1,1.600,0.953,-0.465*
1,1,1.600,-0.465,-0.953*
1,1,1.600,-0.953,0.465*
%
%ADD30ROUNDEDRECTD30*%
G04:AMPARAMS|DCode=31|XSize=3.1mm|YSize=3.1mm|CornerRadius=0.8mm|HoleSize=0mm|Usage=FLASHONLY|Rotation=298.000|XOffset=0mm|YOffset=0mm|HoleType=Round|Shape=RoundedRectangle|*
%AMROUNDEDRECTD31*
21,1,3.100,1.500,0,0,298.0*
21,1,1.500,3.100,0,0,298.0*
1,1,1.600,-0.310,-1.014*
1,1,1.600,-1.014,0.310*
1,1,1.600,0.310,1.014*
1,1,1.600,1.014,-0.310*
%
%ADD31ROUNDEDRECTD31*%
%ADD32C,1.800*%
%ADD33P,2.970X4X206.0*%
%ADD34P,2.970X4X281.0*%
%ADD35P,2.970X4X375.0*%
%ADD36P,2.970X4X73.0*%
%ADD37P,2.970X4X92.0*%
G04:AMPARAMS|DCode=38|XSize=3.1mm|YSize=3.1mm|CornerRadius=0.8mm|HoleSize=0mm|Usage=FLASHONLY|Rotation=52.000|XOffset=0mm|YOffset=0mm|HoleType=Round|Shape=RoundedRectangle|*
%AMROUNDEDRECTD38*
21,1,3.100,1.500,0,0,52.0*
21,1,1.500,3.100,0,0,52.0*
1,1,1.600,1.053,0.129*
1,1,1.600,0.129,-1.053*
1,1,1.600,-1.053,-0.129*
1,1,1.600,-0.129,1.053*
%
%ADD38ROUNDEDRECTD38*%
G04:AMPARAMS|DCode=39|XSize=3.1mm|YSize=3.1mm|CornerRadius=0.8mm|HoleSize=0mm|Usage=FLASHONLY|Rotation=90.000|XOffset=0mm|YOffset=0mm|HoleType=Round|Shape=RoundedRectangle|*
%AMROUNDEDRECTD39*
21,1,3.100,1.500,0,0,90.0*
21,1,1.500,3.100,0,0,90.0*
1,1,1.600,0.750,0.750*
1,1,1.600,0.750,-0.750*
1,1,1.600,-0.750,-0.750*
1,1,1.600,-0.750,0.750*
%
%ADD39ROUNDEDRECTD39*%
G04:AMPARAMS|DCode=40|XSize=3.1mm|YSize=3.1mm|CornerRadius=0.8mm|HoleSize=0mm|Usage=FLASHONLY|Rotation=33.000|XOffset=0mm|YOffset=0mm|HoleType=Round|Shape=RoundedRectangle|*
%AMROUNDEDRECTD40*
21,1,3.100,1.500,0,0,33.0*
21,1,1.500,3.100,0,0,33.0*
1,1,1.600,1.037,-0.221*
1,1,1.600,-0.221,-1.037*
1,1,1.600,-1.037,0.221*
1,1,1.600,0.221,1.037*
%
%ADD40ROUNDEDRECTD40*%
G04:AMPARAMS|DCode=41|XSize=3.1mm|YSize=3.1mm|CornerRadius=0.8mm|HoleSize=0mm|Usage=FLASHONLY|Rotation=355.000|XOffset=0mm|YOffset=0mm|HoleType=Round|Shape=RoundedRectangle|*
%AMROUNDEDRECTD41*
21,1,3.100,1.500,0,0,355.0*
21,1,1.500,3.100,0,0,355.0*
1,1,1.600,0.682,-0.813*
1,1,1.600,-0.813,-0.682*
1,1,1.600,-0.682,0.813*
1,1,1.600,0.813,0.682*
%
%ADD41ROUNDEDRECTD41*%
G04:AMPARAMS|DCode=42|XSize=3.1mm|YSize=3.1mm|CornerRadius=0.8mm|HoleSize=0mm|Usage=FLASHONLY|Rotation=259.000|XOffset=0mm|YOffset=0mm|HoleType=Round|Shape=RoundedRectangle|*
%AMROUNDEDRECTD42*
21,1,3.100,1.500,0,0,259.0*
21,1,1.500,3.100,0,0,259.0*
1,1,1.600,-0.879,-0.593*
1,1,1.600,-0.593,0.879*
1,1,1.600,0.879,0.593*
1,1,1.600,0.593,-0.879*
%
%ADD42ROUNDEDRECTD42*%
G04:AMPARAMS|DCode=43|XSize=3.1mm|YSize=3.1mm|CornerRadius=0.8mm|HoleSize=0mm|Usage=FLASHONLY|Rotation=240.000|XOffset=0mm|YOffset=0mm|HoleType=Round|Shape=RoundedRectangle|*
%AMROUNDEDRECTD43*
21,1,3.100,1.500,0,0,240.0*
21,1,1.500,3.100,0,0,240.0*
1,1,1.600,-1.025,-0.275*
1,1,1.600,-0.275,1.025*
1,1,1.600,1.025,0.275*
1,1,1.600,0.275,-1.025*
%
%ADD43ROUNDEDRECTD43*%
G04:AMPARAMS|DCode=44|XSize=3.1mm|YSize=3.1mm|CornerRadius=0.8mm|HoleSize=0mm|Usage=FLASHONLY|Rotation=221.000|XOffset=0mm|YOffset=0mm|HoleType=Round|Shape=RoundedRectangle|*
%AMROUNDEDRECTD44*
21,1,3.100,1.500,0,0,221.0*
21,1,1.500,3.100,0,0,221.0*
1,1,1.600,-1.058,0.074*
1,1,1.600,0.074,1.058*
1,1,1.600,1.058,-0.074*
1,1,1.600,-0.074,-1.058*
%
%ADD44ROUNDEDRECTD44*%
G04:AMPARAMS|DCode=45|XSize=3.1mm|YSize=3.1mm|CornerRadius=0.8mm|HoleSize=0mm|Usage=FLASHONLY|Rotation=183.000|XOffset=0mm|YOffset=0mm|HoleType=Round|Shape=RoundedRectangle|*
%AMROUNDEDRECTD45*
21,1,3.100,1.500,0,0,183.0*
21,1,1.500,3.100,0,0,183.0*
1,1,1.600,-0.788,0.710*
1,1,1.600,0.710,0.788*
1,1,1.600,0.788,-0.710*
1,1,1.600,-0.710,-0.788*
%
%ADD45ROUNDEDRECTD45*%
G04:AMPARAMS|DCode=46|XSize=3.1mm|YSize=3.1mm|CornerRadius=0.8mm|HoleSize=0mm|Usage=FLASHONLY|Rotation=165.000|XOffset=0mm|YOffset=0mm|HoleType=Round|Shape=RoundedRectangle|*
%AMROUNDEDRECTD46*
21,1,3.100,1.500,0,0,165.0*
21,1,1.500,3.100,0,0,165.0*
1,1,1.600,-0.530,0.919*
1,1,1.600,0.919,0.530*
1,1,1.600,0.530,-0.919*
1,1,1.600,-0.919,-0.530*
%
%ADD46ROUNDEDRECTD46*%
G04:AMPARAMS|DCode=47|XSize=3.1mm|YSize=3.1mm|CornerRadius=0.8mm|HoleSize=0mm|Usage=FLASHONLY|Rotation=146.000|XOffset=0mm|YOffset=0mm|HoleType=Round|Shape=RoundedRectangle|*
%AMROUNDEDRECTD47*
21,1,3.100,1.500,0,0,146.0*
21,1,1.500,3.100,0,0,146.0*
1,1,1.600,-0.202,1.041*
1,1,1.600,1.041,0.202*
1,1,1.600,0.202,-1.041*
1,1,1.600,-1.041,-0.202*
%
%ADD47ROUNDEDRECTD47*%
G04:AMPARAMS|DCode=48|XSize=3.1mm|YSize=3.1mm|CornerRadius=0.8mm|HoleSize=0mm|Usage=FLASHONLY|Rotation=127.000|XOffset=0mm|YOffset=0mm|HoleType=Round|Shape=RoundedRectangle|*
%AMROUNDEDRECTD48*
21,1,3.100,1.500,0,0,127.0*
21,1,1.500,3.100,0,0,127.0*
1,1,1.600,0.148,1.050*
1,1,1.600,1.050,-0.148*
1,1,1.600,-0.148,-1.050*
1,1,1.600,-1.050,0.148*
%
%ADD48ROUNDEDRECTD48*%
G04:AMPARAMS|DCode=49|XSize=3.1mm|YSize=3.1mm|CornerRadius=0.8mm|HoleSize=0mm|Usage=FLASHONLY|Rotation=71.000|XOffset=0mm|YOffset=0mm|HoleType=Round|Shape=RoundedRectangle|*
%AMROUNDEDRECTD49*
21,1,3.100,1.500,0,0,71.0*
21,1,1.500,3.100,0,0,71.0*
1,1,1.600,0.953,0.465*
1,1,1.600,0.465,-0.953*
1,1,1.600,-0.953,-0.465*
1,1,1.600,-0.465,0.953*
%
%ADD49ROUNDEDRECTD49*%
%ADD50P,2.970X4X130.0*%
%ADD51P,2.970X4X149.0*%
%ADD52P,2.970X4X168.0*%
%ADD53P,2.970X4X187.0*%
G04:AMPARAMS|DCode=54|XSize=3.1mm|YSize=3.1mm|CornerRadius=0.8mm|HoleSize=0mm|Usage=FLASHONLY|Rotation=279.000|XOffset=0mm|YOffset=0mm|HoleType=Round|Shape=RoundedRectangle|*
%AMROUNDEDRECTD54*
21,1,3.100,1.500,0,0,279.0*
21,1,1.500,3.100,0,0,279.0*
1,1,1.600,-0.623,-0.858*
1,1,1.600,-0.858,0.623*
1,1,1.600,0.623,0.858*
1,1,1.600,0.858,-0.623*
%
%ADD54ROUNDEDRECTD54*%
G04:AMPARAMS|DCode=55|XSize=3.1mm|YSize=3.1mm|CornerRadius=0.8mm|HoleSize=0mm|Usage=FLASHONLY|Rotation=336.000|XOffset=0mm|YOffset=0mm|HoleType=Round|Shape=RoundedRectangle|*
%AMROUNDEDRECTD55*
21,1,3.100,1.500,0,0,336.0*
21,1,1.500,3.100,0,0,336.0*
1,1,1.600,0.380,-0.990*
1,1,1.600,-0.990,-0.380*
1,1,1.600,-0.380,0.990*
1,1,1.600,0.990,0.380*
%
%ADD55ROUNDEDRECTD55*%
G04:AMPARAMS|DCode=56|XSize=3.1mm|YSize=3.1mm|CornerRadius=0.8mm|HoleSize=0mm|Usage=FLASHONLY|Rotation=317.000|XOffset=0mm|YOffset=0mm|HoleType=Round|Shape=RoundedRectangle|*
%AMROUNDEDRECTD56*
21,1,3.100,1.500,0,0,317.0*
21,1,1.500,3.100,0,0,317.0*
1,1,1.600,0.037,-1.060*
1,1,1.600,-1.060,-0.037*
1,1,1.600,-0.037,1.060*
1,1,1.600,1.060,0.037*
%
%ADD56ROUNDEDRECTD56*%
%ADD57P,2.970X4X263.0*%
%ADD58P,2.970X4X300.0*%
%ADD59P,2.970X4X318.0*%
%ADD60P,2.970X4X337.0*%
%ADD61P,2.970X4X356.0*%
%ADD62P,2.970X4X394.0*%
%ADD63P,2.970X4X54.0*%
%ADD64P,2.970X4X111.0*%
D14*
X12575Y14650D02*
D03*
X14425D02*
D03*
X25352Y14650D02*
D03*
X27202D02*
D03*
X28852Y14650D02*
D03*
X30702D02*
D03*
X9075Y14650D02*
D03*
X10925D02*
D03*
X9121Y26756D02*
D03*
X10971D02*
D03*
X12621D02*
D03*
X14471D02*
D03*
X25047Y26982D02*
D03*
X26897D02*
D03*
X28547D02*
D03*
X30397D02*
D03*
D15*
X28777Y13000D02*
D03*
Y11150D02*
D03*
X12500Y13000D02*
D03*
Y11150D02*
D03*
X12546Y25106D02*
D03*
Y23256D02*
D03*
X28472Y25332D02*
D03*
Y23482D02*
D03*
D16*
X26777Y13000D02*
D03*
Y11150D02*
D03*
X32777D02*
D03*
Y13000D02*
D03*
X24777D02*
D03*
Y11150D02*
D03*
X30777Y13000D02*
D03*
Y11150D02*
D03*
X16500D02*
D03*
Y13000D02*
D03*
X14500D02*
D03*
Y11150D02*
D03*
X10500Y13000D02*
D03*
Y11150D02*
D03*
X8500Y13000D02*
D03*
Y11150D02*
D03*
X10546Y25106D02*
D03*
Y23256D02*
D03*
X16546D02*
D03*
Y25106D02*
D03*
X14546D02*
D03*
Y23256D02*
D03*
X8546Y25106D02*
D03*
Y23256D02*
D03*
X26472Y25332D02*
D03*
Y23482D02*
D03*
X32472D02*
D03*
Y25332D02*
D03*
X30472D02*
D03*
Y23482D02*
D03*
X24472Y25332D02*
D03*
Y23482D02*
D03*
X21600Y5425D02*
D03*
Y3575D02*
D03*
D17*
X-39903Y-77294D02*
D03*
X-46403D02*
D03*
D18*
X-71316Y26912D02*
D03*
Y20412D02*
D03*
D19*
X-1422Y-82931D02*
X-1361Y-82992D01*
Y-92949D02*
Y-82992D01*
Y-92949D02*
X-229Y-94082D01*
D20*
X77759Y30913D02*
D03*
X54301Y21435D02*
D03*
D21*
X69723Y40716D02*
D03*
Y38176D02*
D03*
X-27305Y78232D02*
D03*
Y75692D02*
D03*
X-47650Y66243D02*
D03*
Y63703D02*
D03*
X-70554Y40901D02*
D03*
X-68014D02*
D03*
X-78841Y20217D02*
D03*
X-76301D02*
D03*
X-81381Y-2134D02*
D03*
X-78841D02*
D03*
X-15773Y-80772D02*
D03*
Y-78232D02*
D03*
X34265Y-74321D02*
D03*
Y-71781D02*
D03*
X26728Y77325D02*
D03*
Y74785D02*
D03*
X46921Y64320D02*
D03*
Y66860D02*
D03*
X38323Y41664D02*
D03*
X39887Y39662D02*
D03*
X79807Y13563D02*
D03*
Y16103D02*
D03*
X78664Y-10363D02*
D03*
X81204D02*
D03*
X70917Y-36576D02*
D03*
X73457D02*
D03*
X43231Y-42393D02*
D03*
X45771D02*
D03*
X-29101Y-55924D02*
D03*
Y-58464D02*
D03*
X8560Y-79172D02*
D03*
Y-81712D02*
D03*
X-60528Y-52045D02*
D03*
X-63068D02*
D03*
X-73736Y-31369D02*
D03*
X-76276D02*
D03*
D22*
X-3000Y-14700D02*
D03*
X55000Y-55000D02*
D03*
Y55000D02*
D03*
X-55000D02*
D03*
X-3000Y32400D02*
D03*
X-55000Y-55000D02*
D03*
X-43060Y-14630D02*
D03*
X41940D02*
D03*
X-43060Y32370D02*
D03*
X41940D02*
D03*
D23*
X2313Y-18700D02*
D03*
X35963D02*
D03*
D24*
X32600Y-19700D02*
D03*
X29600D02*
D03*
X26600D02*
D03*
X23600D02*
D03*
X20600D02*
D03*
X17600D02*
D03*
X14600D02*
D03*
X11600D02*
D03*
X8600D02*
D03*
X5600D02*
D03*
Y-22700D02*
D03*
X8600D02*
D03*
X11600D02*
D03*
X14600D02*
D03*
X17600D02*
D03*
X20600D02*
D03*
X23600D02*
D03*
X26600D02*
D03*
X29600D02*
D03*
X27648Y-90740D02*
D03*
X31250Y-89500D02*
D03*
X34852Y-88260D02*
D03*
X24045Y-91981D02*
D03*
X17675Y8830D02*
D03*
X10175D02*
D03*
Y16830D02*
D03*
X33940Y8830D02*
D03*
X26440D02*
D03*
Y16830D02*
D03*
X17721Y21086D02*
D03*
X10221D02*
D03*
Y29086D02*
D03*
X33647Y21312D02*
D03*
X26147D02*
D03*
Y29312D02*
D03*
X-37384Y-86136D02*
D03*
X-26577Y-89857D02*
D03*
X-30180Y-88616D02*
D03*
X-33782Y-87376D02*
D03*
X-7849Y-94082D02*
D03*
X3581D02*
D03*
X-229D02*
D03*
X-4039D02*
D03*
X74377Y-57879D02*
D03*
X80769Y-48403D02*
D03*
X78638Y-51562D02*
D03*
X76508Y-54721D02*
D03*
X52192Y78156D02*
D03*
X42293Y83871D02*
D03*
X45593Y81966D02*
D03*
X48893Y80061D02*
D03*
X-40375Y84466D02*
D03*
X-43739Y82677D02*
D03*
X-47103Y80888D02*
D03*
X-37011Y86254D02*
D03*
X14810Y-11250D02*
D03*
Y522D02*
D03*
X32060Y-11250D02*
D03*
Y522D02*
D03*
X-63558Y69672D02*
D03*
X-71354Y61313D02*
D03*
X-68755Y64099D02*
D03*
X-66157Y66886D02*
D03*
X-92708Y15657D02*
D03*
X-93704Y4271D02*
D03*
X-93372Y8066D02*
D03*
X-93040Y11862D02*
D03*
X-93164Y-15046D02*
D03*
X-90399Y-26137D02*
D03*
X-91320Y-22440D02*
D03*
X-92242Y-18743D02*
D03*
X-82965Y-44705D02*
D03*
X-76740Y-54291D02*
D03*
X-78815Y-51095D02*
D03*
X-80890Y-47900D02*
D03*
X-64425Y-69451D02*
D03*
X-55418Y-76488D02*
D03*
X-58420Y-74143D02*
D03*
X-61422Y-71797D02*
D03*
X-6890Y-46300D02*
D03*
X-10700D02*
D03*
X-14510D02*
D03*
X51619Y-78559D02*
D03*
X60626Y-71522D02*
D03*
X57624Y-73867D02*
D03*
X54621Y-76213D02*
D03*
X88943Y-30597D02*
D03*
X91901Y-19556D02*
D03*
X90915Y-23236D02*
D03*
X89929Y-26916D02*
D03*
X93794Y-1262D02*
D03*
X93196Y10152D02*
D03*
X93395Y6348D02*
D03*
X93595Y2543D02*
D03*
X89164Y29612D02*
D03*
X84882Y40210D02*
D03*
X86309Y36678D02*
D03*
X87736Y33145D02*
D03*
X75154Y57063D02*
D03*
X67655Y65690D02*
D03*
X70155Y62814D02*
D03*
X72654Y59939D02*
D03*
X24247Y91060D02*
D03*
X13027Y93241D02*
D03*
X16767Y92514D02*
D03*
X20507Y91787D02*
D03*
X-7177Y94117D02*
D03*
X-18466Y92329D02*
D03*
X-14703Y92925D02*
D03*
X-10940Y93521D02*
D03*
X-83007Y44933D02*
D03*
X-87656Y34492D02*
D03*
X-86106Y37972D02*
D03*
X-84557Y41453D02*
D03*
X-62256Y-9195D02*
D03*
X-67256D02*
D03*
X-64756D02*
D03*
X-72256D02*
D03*
X-74756D02*
D03*
X-77256D02*
D03*
X-69756D02*
D03*
D25*
X32600Y-22700D02*
D03*
X17675Y16830D02*
D03*
X33940D02*
D03*
X17721Y29086D02*
D03*
X33647Y29312D02*
D03*
X7391Y-94082D02*
D03*
X11000Y-11250D02*
D03*
Y522D02*
D03*
X28250Y-11250D02*
D03*
Y522D02*
D03*
X-3080Y-46300D02*
D03*
X-79756Y-9195D02*
D03*
D26*
X38455Y-87019D02*
D03*
D27*
X-55093Y-16319D02*
D03*
X-79641Y-22440D02*
D03*
D28*
X33750Y46000D02*
D03*
X35750D02*
D03*
X31750D02*
D03*
Y48000D02*
D03*
X35750D02*
D03*
X33750D02*
D03*
X16000Y48250D02*
D03*
X18000D02*
D03*
X14000D02*
D03*
Y46250D02*
D03*
X18000D02*
D03*
X16000D02*
D03*
D29*
X31280Y-83280D02*
D03*
X28780Y-83260D02*
D03*
X26280Y-83280D02*
D03*
X13975Y16830D02*
D03*
Y8830D02*
D03*
X30240Y16830D02*
D03*
Y8830D02*
D03*
X14021Y29086D02*
D03*
Y21086D02*
D03*
X29947Y29312D02*
D03*
Y21312D02*
D03*
X-31275Y-72630D02*
D03*
X-33775D02*
D03*
X-36275D02*
D03*
X-38775D02*
D03*
X-41275Y-72630D02*
D03*
X-44750Y-67250D02*
D03*
X-42250Y-67250D02*
D03*
X-39750D02*
D03*
X-37250D02*
D03*
X-34750D02*
D03*
D30*
X25687Y-78659D02*
D03*
X17450Y-54737D02*
D03*
D31*
X-28717Y50814D02*
D03*
X-40595Y73152D02*
D03*
D32*
X14924Y-35678D02*
D03*
X12424D02*
D03*
X9924D02*
D03*
Y-29678D02*
D03*
X12424D02*
D03*
X14924D02*
D03*
D33*
X-22975Y-91097D02*
D03*
D34*
X82899Y-45245D02*
D03*
D35*
X38994Y85776D02*
D03*
D36*
X-50467Y79100D02*
D03*
D37*
X-73952Y58526D02*
D03*
D38*
X-33599Y-44522D02*
D03*
X-49175Y-64459D02*
D03*
D39*
X-1422Y-57631D02*
D03*
X-1422Y-82931D02*
D03*
D40*
X-48393Y-30988D02*
D03*
X-69611Y-44768D02*
D03*
D41*
X-56743Y7217D02*
D03*
X-81947Y9422D02*
D03*
D42*
X12719Y58452D02*
D03*
X17546Y83287D02*
D03*
D43*
X27049Y53849D02*
D03*
X39699Y75759D02*
D03*
D44*
X48670Y37626D02*
D03*
X67764Y54224D02*
D03*
D45*
X57983Y3770D02*
D03*
X83249Y5094D02*
D03*
D46*
X55771Y-14211D02*
D03*
X80209Y-20759D02*
D03*
D47*
X48036Y-33173D02*
D03*
X69010Y-47320D02*
D03*
D48*
X35850Y-45630D02*
D03*
X51076Y-65835D02*
D03*
D49*
X-17594Y-54725D02*
D03*
X-25831Y-78647D02*
D03*
D50*
X-94036Y475D02*
D03*
D51*
X-89477Y-29833D02*
D03*
D52*
X-74665Y-57486D02*
D03*
D53*
X-52415Y-78834D02*
D03*
D54*
X-18595Y81743D02*
D03*
X-14637Y56755D02*
D03*
D55*
X-76773Y32139D02*
D03*
X-53661Y21849D02*
D03*
D56*
X-68403Y54755D02*
D03*
X-49900Y37500D02*
D03*
D57*
X63628Y-69176D02*
D03*
D58*
X92888Y-15876D02*
D03*
D59*
X92996Y13957D02*
D03*
D60*
X83455Y43743D02*
D03*
D61*
X65156Y68565D02*
D03*
D62*
X9287Y93968D02*
D03*
D63*
X-22229Y91733D02*
D03*
D64*
X-89206Y31011D02*
D03*
M02*
