G04*
G04 #@! TF.GenerationSoftware,Altium Limited,Altium Designer,23.11.1 (41)*
G04*
G04 Layer_Color=8388736*
%FSLAX43Y43*%
%MOMM*%
G71*
G04*
G04 #@! TF.SameCoordinates,A9BB8E2F-42CC-474E-B4F6-770058E49C0A*
G04*
G04*
G04 #@! TF.FilePolarity,Negative*
G04*
G01*
G75*
%ADD16R,1.603X1.253*%
%ADD17R,1.253X1.603*%
%ADD18R,1.703X1.253*%
%ADD19R,1.803X0.803*%
G04:AMPARAMS|DCode=20|XSize=1.403mm|YSize=4.203mm|CornerRadius=0.402mm|HoleSize=0mm|Usage=FLASHONLY|Rotation=180.000|XOffset=0mm|YOffset=0mm|HoleType=Round|Shape=RoundedRectangle|*
%AMROUNDEDRECTD20*
21,1,1.403,3.400,0,0,180.0*
21,1,0.600,4.203,0,0,180.0*
1,1,0.803,-0.300,1.700*
1,1,0.803,0.300,1.700*
1,1,0.803,0.300,-1.700*
1,1,0.803,-0.300,-1.700*
%
%ADD20ROUNDEDRECTD20*%
%ADD21R,0.483X0.953*%
%ADD22R,2.003X0.703*%
%ADD23R,0.703X2.003*%
%ADD24R,2.973X2.753*%
%ADD25R,1.803X0.503*%
%ADD26R,1.003X2.303*%
%ADD27R,1.253X1.703*%
%ADD28C,1.403*%
%ADD29R,1.403X1.403*%
%ADD30R,1.703X1.703*%
%ADD31C,1.703*%
%ADD32C,1.603*%
%ADD33R,1.603X1.603*%
%ADD34C,1.463*%
%ADD35C,2.553*%
%ADD36R,1.703X1.703*%
%ADD37C,3.403*%
%ADD38C,0.903*%
D16*
X39404Y30507D02*
D03*
Y28657D02*
D03*
X41349Y30507D02*
D03*
Y28657D02*
D03*
X32514Y19533D02*
D03*
Y17683D02*
D03*
Y10732D02*
D03*
Y12582D02*
D03*
X39756Y20778D02*
D03*
Y18928D02*
D03*
D17*
X33590Y23370D02*
D03*
X35440D02*
D03*
X33590Y25270D02*
D03*
X35440D02*
D03*
X47579Y8982D02*
D03*
X49429D02*
D03*
X48530Y25624D02*
D03*
X46680D02*
D03*
X58618Y15739D02*
D03*
X56768D02*
D03*
X56622Y18639D02*
D03*
X58472D02*
D03*
D18*
X35615Y32945D02*
D03*
Y34795D02*
D03*
X33615Y32945D02*
D03*
Y34795D02*
D03*
X41949Y10007D02*
D03*
Y8157D02*
D03*
D19*
X37315Y28600D02*
D03*
Y29870D02*
D03*
Y31140D02*
D03*
X31600D02*
D03*
Y29870D02*
D03*
Y28600D02*
D03*
X37315Y27330D02*
D03*
X31600D02*
D03*
D20*
X35896Y10732D02*
D03*
Y19732D02*
D03*
D21*
X45600Y6610D02*
D03*
X46100D02*
D03*
X46600D02*
D03*
X47100D02*
D03*
X47600D02*
D03*
X48100D02*
D03*
X48600D02*
D03*
X49100D02*
D03*
X45100D02*
D03*
X44600D02*
D03*
X44100D02*
D03*
X43600D02*
D03*
X43100D02*
D03*
X42600D02*
D03*
X42100D02*
D03*
X41600D02*
D03*
X41100D02*
D03*
X40600D02*
D03*
X40100D02*
D03*
X39600D02*
D03*
X39100D02*
D03*
X38600D02*
D03*
X38100D02*
D03*
X37600D02*
D03*
X37100D02*
D03*
X36600D02*
D03*
X36100D02*
D03*
X35600D02*
D03*
D22*
X42604Y15653D02*
D03*
Y14853D02*
D03*
Y14053D02*
D03*
Y13253D02*
D03*
Y16453D02*
D03*
Y17253D02*
D03*
Y21253D02*
D03*
Y20453D02*
D03*
Y19653D02*
D03*
Y18853D02*
D03*
X54604Y13253D02*
D03*
Y14053D02*
D03*
Y14853D02*
D03*
Y15653D02*
D03*
Y16453D02*
D03*
Y17253D02*
D03*
Y18853D02*
D03*
Y19653D02*
D03*
Y20453D02*
D03*
Y21253D02*
D03*
X42604Y18053D02*
D03*
X54604D02*
D03*
D23*
X51004Y23253D02*
D03*
X50204D02*
D03*
X49404D02*
D03*
X48604D02*
D03*
X47804D02*
D03*
X47004D02*
D03*
X46204D02*
D03*
X45404D02*
D03*
X44604D02*
D03*
X52604D02*
D03*
X44604Y11253D02*
D03*
X45404D02*
D03*
X46204D02*
D03*
X47004D02*
D03*
X47804D02*
D03*
X48604D02*
D03*
X49404D02*
D03*
X50204D02*
D03*
X51004D02*
D03*
X52604D02*
D03*
X51804Y23253D02*
D03*
Y11253D02*
D03*
D24*
X7379Y22878D02*
D03*
Y16878D02*
D03*
D25*
X67600Y2050D02*
D03*
Y4550D02*
D03*
Y7050D02*
D03*
Y9550D02*
D03*
X57600D02*
D03*
Y7050D02*
D03*
Y4550D02*
D03*
Y2050D02*
D03*
D26*
X51963Y37702D02*
D03*
Y28102D02*
D03*
X46883Y37702D02*
D03*
X48153D02*
D03*
X49423D02*
D03*
X50693D02*
D03*
X53233D02*
D03*
X54503D02*
D03*
X55773D02*
D03*
X50693Y28102D02*
D03*
X49423D02*
D03*
X48153D02*
D03*
X46883D02*
D03*
X55773D02*
D03*
X54503D02*
D03*
X53233D02*
D03*
D27*
X56285Y25534D02*
D03*
X54435D02*
D03*
D28*
X19750Y29109D02*
D03*
X21750D02*
D03*
X17750D02*
D03*
X14950D02*
D03*
X14850Y19800D02*
D03*
X17650D02*
D03*
X21650D02*
D03*
D29*
X12950Y29109D02*
D03*
X12850Y19800D02*
D03*
D30*
X37383Y38000D02*
D03*
D31*
X35383D02*
D03*
X33383D02*
D03*
X31383D02*
D03*
X29383D02*
D03*
X27383D02*
D03*
X2951Y18864D02*
D03*
D32*
X69500Y24443D02*
D03*
Y22443D02*
D03*
X71500Y24443D02*
D03*
Y22443D02*
D03*
Y20443D02*
D03*
Y18443D02*
D03*
X69500Y20443D02*
D03*
Y18443D02*
D03*
Y16443D02*
D03*
D33*
X71500D02*
D03*
D34*
X11610Y9000D02*
D03*
X14150D02*
D03*
X16690D02*
D03*
X24310D02*
D03*
X26850D02*
D03*
X29390D02*
D03*
D35*
X25800Y12425D02*
D03*
X15200Y2825D02*
D03*
D36*
X2951Y20864D02*
D03*
D37*
X72500Y2500D02*
D03*
Y37500D02*
D03*
X2500D02*
D03*
Y2500D02*
D03*
D38*
X44100Y33660D02*
D03*
M02*
